<svg width="24" height="24" viewBox="0 0 24 24" fill="none" xmlns="http://www.w3.org/2000/svg">
<g clip-path="url(#clip0_7460_7238)">
<path fill-rule="evenodd" clip-rule="evenodd" d="M5.14887 3.07097C7.11453 1.56267 9.52296 0.745117 12.0006 0.745117C14.4783 0.745118 16.8867 1.56267 18.8524 3.07097C20.818 4.57928 22.2311 6.69404 22.8723 9.08728L21.2279 9.52791C20.6836 7.49668 19.4843 5.70179 17.816 4.42163C16.1476 3.14148 14.1035 2.44759 12.0006 2.44759C9.89773 2.44759 7.85361 3.14147 6.18527 4.42163C4.51694 5.70179 3.31764 7.49667 2.77337 9.52791L1.12891 9.08727C1.77017 6.69404 3.18321 4.57927 5.14887 3.07097Z" fill="#282828"/>
<path d="M19.8868 14.4627C18.233 14.0168 16.7669 12.5474 16.5974 10.7188C15.1699 11.2178 14.5838 11.5344 13.3437 12.2372C12.8365 12.5245 12.0134 12.9508 11.23 13.3566L10.8178 13.5702C8.67687 14.6813 7.00144 15.0446 4.51367 15.4973C4.81348 16.1379 5.19308 16.7337 5.63969 17.2718C9.27626 16.5999 12.6487 15.2551 15.0247 13.5854L15.2667 13.4153L15.4266 13.6642C16.39 15.1643 17.5438 15.9868 18.9756 16.4258C19.3605 15.8204 19.6688 15.1615 19.8868 14.4627Z" fill="#0DA4FF"/>
<path d="M18.3719 17.2567C17.0289 16.9283 15.8535 16.2136 14.964 14.974C12.3723 16.2987 9.9313 17.5266 6.4208 18.0922C6.99738 18.6204 7.64917 19.0679 8.35827 19.4167C9.97955 19.159 12.6148 18.2746 14.5441 17.3096L14.7166 17.2233L14.8603 17.3519C15.5172 17.9399 16.2259 18.2463 17.0004 18.5753C17.5066 18.1897 17.967 17.7469 18.3719 17.2567Z" fill="#0DA4FF"/>
<path d="M15.8933 19.287C15.7744 19.2172 15.6625 19.1538 15.5541 19.0924C15.4684 19.0438 15.3847 18.9964 15.3016 18.9481C15.0439 18.7983 14.8007 18.6444 14.543 18.4295C13.3109 19.1586 11.7432 19.6739 10.3016 20.0858C10.8496 20.2003 11.4175 20.2605 11.9995 20.2605C13.4075 20.2605 14.7332 19.9082 15.8933 19.287Z" fill="#0DA4FF"/>
<path d="M21.52 11.2115C21.5413 11.4715 21.5521 11.7345 21.5521 12C21.5521 17.2758 17.2752 21.5527 11.9994 21.5527C6.72353 21.5527 2.44661 17.2758 2.44661 12C2.44661 11.7345 2.45744 11.4716 2.47868 11.2116L0.811145 10.7648C0.766865 11.1704 0.744141 11.5825 0.744141 12C0.744141 18.2161 5.78328 23.2552 11.9994 23.2552C18.2155 23.2552 23.2546 18.2161 23.2546 12C23.2546 11.5825 23.2319 11.1703 23.1876 10.7646L21.52 11.2115Z" fill="#024CC6"/>
</g>
<defs>
<clipPath id="clip0_7460_7238">
<rect width="24" height="24" fill="white"/>
</clipPath>
</defs>
</svg>
