<svg width="24" height="24" viewBox="0 0 24 24" fill="none" xmlns="http://www.w3.org/2000/svg">
<g clip-path="url(#clip0_7460_7667)">
<path fill-rule="evenodd" clip-rule="evenodd" d="M6.17184 11.9999C6.17184 8.78097 8.7813 6.1715 12.0002 6.1715C15.2192 6.1715 17.8286 8.78097 17.8286 11.9999C17.8286 13.7348 17.0706 15.2927 15.8676 16.3604V14.4467C15.8676 14.0049 15.5095 13.6467 15.0676 13.6467C14.6258 13.6467 14.2676 14.0049 14.2676 14.4467V17.3708C13.8059 17.566 13.3137 17.7034 12.8003 17.7739V12.8446C12.8003 12.4028 12.4421 12.0446 12.0003 12.0446C11.5584 12.0446 11.2003 12.4028 11.2003 12.8446V17.7739C10.6868 17.7034 10.1946 17.566 9.73287 17.3708V14.4467C9.73287 14.0049 9.3747 13.6467 8.93287 13.6467C8.49105 13.6467 8.13287 14.0049 8.13287 14.4467V16.3605C6.9299 15.2928 6.17184 13.7349 6.17184 11.9999ZM11.0002 9.78165C11.0002 9.22936 11.448 8.78165 12.0002 8.78165C12.5525 8.78165 13.0002 9.22936 13.0002 9.78165C13.0002 10.3339 12.5525 10.7816 12.0002 10.7816C11.448 10.7816 11.0002 10.3339 11.0002 9.78165ZM9.00024 10.4687C8.44796 10.4687 8.00024 10.9164 8.00024 11.4687C8.00024 12.0209 8.44796 12.4687 9.00024 12.4687C9.55253 12.4687 10.0002 12.0209 10.0002 11.4687C10.0002 10.9164 9.55253 10.4687 9.00024 10.4687ZM15.0002 10.4687C14.448 10.4687 14.0002 10.9164 14.0002 11.4687C14.0002 12.0209 14.448 12.4687 15.0002 12.4687C15.5525 12.4687 16.0002 12.0209 16.0002 11.4687C16.0002 10.9164 15.5525 10.4687 15.0002 10.4687Z" fill="#1B2C6B"/>
<path fill-rule="evenodd" clip-rule="evenodd" d="M14.1989 0.946513C12.8646 0.0686098 11.136 0.0686104 9.80167 0.946514L2.29944 5.88266C1.175 6.62249 0.498047 7.87824 0.498047 9.22424V14.7756C0.498047 16.1216 1.175 17.3773 2.29944 18.1172L9.80167 23.0533C11.136 23.9312 12.8646 23.9312 14.1989 23.0533L21.7011 18.1172C22.8256 17.3773 23.5025 16.1216 23.5025 14.7756V9.22424C23.5025 7.87824 22.8256 6.62249 21.7011 5.88266L14.1989 0.946513ZM12.0002 4.5715C7.89765 4.5715 4.57184 7.89731 4.57184 11.9999C4.57184 16.1025 7.89765 19.4283 12.0002 19.4283C16.1028 19.4283 19.4286 16.1025 19.4286 11.9999C19.4286 7.89731 16.1028 4.5715 12.0002 4.5715Z" fill="#1B2C6B"/>
</g>
<defs>
<clipPath id="clip0_7460_7667">
<rect width="24" height="24" fill="white"/>
</clipPath>
</defs>
</svg>
