<svg width="24" height="24" viewBox="0 0 24 24" fill="none" xmlns="http://www.w3.org/2000/svg">
<path fill-rule="evenodd" clip-rule="evenodd" d="M2.63086 6.43945V19.3687C2.63086 20.9375 3.83499 22.225 5.36942 22.3575C6.63823 22.2374 7.63086 21.169 7.63086 19.8687V18.8687C7.63086 18.0403 8.30243 17.3687 9.13086 17.3687C9.45689 17.3687 9.77562 17.4653 10.0469 17.6461L10.648 18.0468C10.9466 18.2459 11.3289 18.2697 11.6499 18.1092L12.6836 17.5924C12.9652 17.4516 13.2965 17.4516 13.5781 17.5924L14.6836 18.1451C14.9652 18.2859 15.2965 18.2859 15.5781 18.1451L16.6836 17.5924C16.9652 17.4516 17.2965 17.4516 17.5781 17.5924L18.6118 18.1092C18.9328 18.2697 19.3151 18.2459 19.6137 18.0468L19.6309 18.0354L19.6309 6.43945C19.6309 4.11817 17.8934 2.16434 15.588 1.89312C12.6268 1.54474 9.63492 1.54474 6.67368 1.89312C4.3683 2.16434 2.63086 4.11817 2.63086 6.43945ZM8.63125 6.5188C8.16181 6.5188 7.78125 6.89936 7.78125 7.3688C7.78125 7.83824 8.16181 8.2188 8.63125 8.2188H11.6312C12.1007 8.2188 12.4812 7.83824 12.4812 7.3688C12.4812 6.89936 12.1007 6.5188 11.6312 6.5188H8.63125ZM8.63125 11.0188C8.16181 11.0188 7.78125 11.3994 7.78125 11.8688C7.78125 12.3382 8.16181 12.7188 8.63125 12.7188H14.6312C15.1007 12.7188 15.4812 12.3382 15.4812 11.8688C15.4812 11.3994 15.1007 11.0188 14.6312 11.0188H8.63125Z" fill="#34AFED"/>
<path fill-rule="evenodd" clip-rule="evenodd" d="M8.63125 6.51855C8.16181 6.51855 7.78125 6.89911 7.78125 7.36855C7.78125 7.838 8.16181 8.21855 8.63125 8.21855H11.6313C12.1007 8.21855 12.4813 7.838 12.4813 7.36855C12.4813 6.89911 12.1007 6.51855 11.6313 6.51855H8.63125ZM8.63125 11.0186C8.16181 11.0186 7.78125 11.3991 7.78125 11.8686C7.78125 12.338 8.16181 12.7186 8.63125 12.7186H14.6313C15.1007 12.7186 15.4813 12.338 15.4813 11.8686C15.4813 11.3991 15.1007 11.0186 14.6313 11.0186H8.63125Z" fill="white"/>
<path d="M19.9309 22.3682H5.13086C6.51157 22.3682 7.63086 21.2489 7.63086 19.8682V18.8682C7.63086 18.0397 8.30243 17.3682 9.13086 17.3682C9.45688 17.3682 9.77561 17.4647 10.0469 17.6455L10.648 18.0463C10.9466 18.2453 11.3289 18.2691 11.6499 18.1086L12.6836 17.5918C12.9652 17.451 13.2965 17.451 13.5781 17.5918L14.6836 18.1446C14.9652 18.2853 15.2965 18.2853 15.5781 18.1446L16.6836 17.5918C16.9652 17.451 17.2965 17.451 17.5781 17.5918L18.6118 18.1086C18.9328 18.2691 19.3151 18.2453 19.6137 18.0463L20.2148 17.6455C20.4861 17.4647 20.8048 17.3682 21.1309 17.3682C21.9593 17.3682 22.6309 18.0397 22.6309 18.8682V19.6682C22.6309 21.1593 21.422 22.3682 19.9309 22.3682Z" fill="#525282"/>
</svg>
