<svg width="24" height="24" viewBox="0 0 24 24" fill="none" xmlns="http://www.w3.org/2000/svg">
<path d="M10.8297 5.87745V4.69998C10.8297 3.39223 10.5001 2.11847 9.88684 0.989774C9.30193 1.10139 8.73315 1.25845 8.18431 1.45715C8.66585 2.35254 8.93906 3.37661 8.93906 4.46448C8.93906 7.97611 6.09232 10.8229 2.58069 10.8229C1.99114 10.8229 1.42032 10.7426 0.878578 10.5925C0.82079 11.0536 0.791016 11.5235 0.791016 12.0003C0.791016 12.2376 0.798388 12.4732 0.812917 12.7068H6.4415L8.18564 10.0906C8.27299 9.95958 8.42005 9.88087 8.57753 9.88087H13.3825C13.7587 9.88087 13.9831 10.3001 13.7744 10.6131L12.3786 12.7068H14.9193L16.6635 10.0906C16.7508 9.95958 16.8979 9.88087 17.0554 9.88087H23.0101C22.0437 4.83087 17.6889 0.984192 12.4026 0.797852C12.7659 1.66781 13.0077 2.58841 13.1173 3.53367C13.1405 3.53298 13.1638 3.53263 13.1872 3.53263C13.8091 3.53263 14.4055 3.77967 14.8452 4.21941C15.285 4.65915 15.532 5.25557 15.532 5.87745H10.8297Z" fill="#2D3B9C"/>
<path d="M23.1883 11.2938H17.5595L15.8153 13.9101C15.728 14.0411 15.5809 14.1198 15.4235 14.1198H10.6185C10.2423 14.1198 10.0179 13.7005 10.2266 13.3875L11.6224 11.2938H9.2329C9.13842 11.2938 9.05018 11.3411 8.99777 11.4197L7.33752 13.9101C7.25017 14.0411 7.10311 14.1198 6.94563 14.1198H0.9911C1.96417 19.2047 6.37274 23.0697 11.7084 23.2062C11.2877 22.2673 11.0104 21.2652 10.8906 20.2338C10.8673 20.2345 10.8439 20.2348 10.8205 20.2348C10.198 20.2348 9.60098 19.9875 9.16081 19.5474C8.72064 19.1072 8.47336 18.5102 8.47336 17.8877H13.178V19.0652C13.178 20.455 13.5503 21.8065 14.2397 22.9863C14.7805 22.8766 15.3072 22.728 15.8167 22.5436C15.3352 21.6482 15.0619 20.6241 15.0619 19.5362C15.0619 16.0245 17.9087 13.1778 21.4203 13.1778C22.0099 13.1778 22.5808 13.2581 23.1226 13.4082C23.1804 12.9471 23.2102 12.4772 23.2102 12.0003C23.2102 11.763 23.2028 11.5275 23.1883 11.2938Z" fill="#2D3B9C"/>
<path d="M22.857 14.8027C22.4023 14.6649 21.92 14.5908 21.4203 14.5908C18.689 14.5908 16.4749 16.8049 16.4749 19.5362C16.4749 20.4236 16.7086 21.2563 17.1179 21.9764C17.5387 21.7601 17.9441 21.5179 18.3319 21.252C18.049 20.744 17.8879 20.1589 17.8879 19.5362C17.8879 17.5853 19.4694 16.0037 21.4203 16.0037C21.7669 16.0037 22.1018 16.0537 22.4183 16.1467C22.5917 15.7115 22.7386 15.2628 22.857 14.8027Z" fill="#2D3B9C"/>
<path d="M21.7984 17.4503C21.6757 17.4283 21.5494 17.4167 21.4203 17.4167C20.2498 17.4167 19.3008 18.3656 19.3008 19.5362C19.3008 19.8288 19.3602 20.1076 19.4674 20.3612C20.3969 19.5305 21.1871 18.5471 21.7984 17.4503Z" fill="#2D3B9C"/>
<path d="M1.14415 9.19801C1.59877 9.3358 2.08108 9.40988 2.58069 9.40988C5.31196 9.40988 7.52609 7.19575 7.52609 4.46448C7.52609 3.57714 7.29239 2.74438 6.88318 2.0244C6.46235 2.2407 6.05699 2.48286 5.66919 2.74876C5.952 3.25677 6.11311 3.84181 6.11311 4.46448C6.11311 6.41539 4.53159 7.99691 2.58069 7.99691C2.23415 7.99691 1.89928 7.94701 1.58285 7.85401C1.40947 8.28925 1.26257 8.73791 1.14415 9.19801Z" fill="#2D3B9C"/>
<path d="M2.20275 6.55034C2.32539 6.57242 2.45169 6.58394 2.58069 6.58394C3.75123 6.58394 4.70014 5.63503 4.70014 4.46448C4.70014 4.1719 4.64086 3.89316 4.53364 3.63962C3.60417 4.4703 2.81407 5.45368 2.20275 6.55034Z" fill="#2D3B9C"/>
</svg>
