<svg width="24" height="24" viewBox="0 0 24 24" fill="none" xmlns="http://www.w3.org/2000/svg">
<g clip-path="url(#clip0_30387_71112)">
<path fill-rule="evenodd" clip-rule="evenodd" d="M21.1761 20.1266C21.7042 19.3883 22.015 18.4839 22.015 17.507C22.015 15.0176 19.9969 12.9995 17.5075 12.9995C15.0181 12.9995 13 15.0176 13 17.507C13 19.9964 15.0181 22.0145 17.5075 22.0145C18.4938 22.0145 19.4061 21.6977 20.1482 21.1604L22.2771 23.6024C22.6422 24.0213 23.2857 24.0433 23.6786 23.6504C24.0725 23.2564 24.0491 22.6108 23.6277 22.2464L21.1761 20.1266ZM15.117 17.0083C15.5036 17.0083 15.817 17.3217 15.817 17.7083C15.817 18.4679 16.4328 19.0837 17.1924 19.0837C17.579 19.0837 17.8924 19.3971 17.8924 19.7837C17.8924 20.1703 17.579 20.4837 17.1924 20.4837C15.6596 20.4837 14.417 19.2411 14.417 17.7083C14.417 17.3217 14.7304 17.0083 15.117 17.0083Z" fill="#525282"/>
<path fill-rule="evenodd" clip-rule="evenodd" d="M18.6591 0.813576C17.3863 -0.000244141 15.5909 -0.000244141 12 -0.000244141C8.40916 -0.000244141 6.61372 -0.000244141 5.34102 0.813575C4.87015 1.11467 4.46061 1.48867 4.13091 1.91867C3.23975 3.08093 3.23975 4.72055 3.23975 7.9998V15.9998C3.23975 19.2791 3.23975 20.9187 4.1309 22.081C4.46061 22.511 4.87015 22.885 5.34102 23.1861C6.61372 23.9999 8.40916 23.9999 12 23.9999C15.328 23.9999 17.1139 23.9999 18.3707 23.352C18.089 23.3932 17.8008 23.4146 17.5077 23.4146C14.6536 23.4146 12.2723 21.3907 11.7206 18.6998H8.65752C8.27092 18.6998 7.95752 18.3864 7.95752 17.9998C7.95752 17.6132 8.27092 17.2998 8.65752 17.2998H11.6037C11.6361 16.361 11.8876 15.4778 12.3085 14.6998H7.6082C7.2216 14.6998 6.9082 14.3864 6.9082 13.9998C6.9082 13.6132 7.2216 13.2998 7.6082 13.2998H13.3607C14.4273 12.2484 15.8917 11.5996 17.5077 11.5996C18.7095 11.5996 19.8275 11.9585 20.7603 12.5749V7.9998C20.7603 4.72055 20.7603 3.08093 19.8692 1.91867C19.5395 1.48867 19.1299 1.11467 18.6591 0.813576Z" fill="#AC32BF"/>
<g opacity="0.5">
<path d="M13.375 13.2998H7.6082C7.2216 13.2998 6.9082 13.6132 6.9082 13.9998C6.9082 14.3864 7.2216 14.6998 7.6082 14.6998H12.3021C12.5888 14.1804 12.9514 13.7087 13.375 13.2998Z" fill="#AC32BF"/>
<path d="M11.6053 17.2998H8.65752C8.27092 17.2998 7.95752 17.6132 7.95752 17.9998C7.95752 18.3864 8.27092 18.6998 8.65752 18.6998H11.7119C11.6385 18.328 11.6001 17.9436 11.6001 17.5503C11.6001 17.4664 11.6018 17.3829 11.6053 17.2998Z" fill="#AC32BF"/>
</g>
<path d="M7.10584 5.01068C6.75361 5.06874 6.49518 5.37326 6.49518 5.73025V7.47493C6.49518 7.92112 6.79884 8.31004 7.23171 8.41826L7.95862 8.59999C8.0198 7.85074 8.64725 7.26176 9.41227 7.26176C10.2178 7.26176 10.8708 7.91478 10.8708 8.72031H13.7879C13.7879 7.91478 14.4409 7.26176 15.2465 7.26176C16.052 7.26176 16.705 7.91478 16.705 8.72031L16.9481 8.72031C17.4851 8.72031 17.9205 8.28497 17.9205 7.74795V6.91275C17.9205 6.25713 17.483 5.68208 16.8512 5.5071L14.4947 4.85455C14.3509 4.81471 14.2219 4.73327 14.1242 4.62045L14.0662 4.55354C12.6198 2.88468 10.045 2.84053 8.54226 4.45883C8.31833 4.69999 8.02061 4.8599 7.6959 4.91342L7.10584 5.01068Z" fill="white"/>
<path d="M16.073 8.72032C16.073 8.26385 15.703 7.89381 15.2465 7.89381C15.218 7.89381 15.1898 7.89525 15.162 7.89807C14.7452 7.9404 14.42 8.29238 14.42 8.72032C14.42 9.17679 14.79 9.54683 15.2465 9.54683C15.703 9.54683 16.073 9.17679 16.073 8.72032Z" fill="white"/>
<path d="M10.2388 8.72032C10.2388 8.37452 10.0265 8.07832 9.72505 7.95502C9.62858 7.91556 9.52299 7.89381 9.41232 7.89381C9.18409 7.89381 8.97746 7.98632 8.8279 8.13589C8.67832 8.28546 8.58581 8.49208 8.58581 8.72032C8.58581 9.17679 8.95585 9.54683 9.41232 9.54683C9.86879 9.54683 10.2388 9.17679 10.2388 8.72032Z" fill="white"/>
</g>
<defs>
<clipPath id="clip0_30387_71112">
<rect width="24" height="24" fill="white"/>
</clipPath>
</defs>
</svg>
