<svg width="24" height="24" viewBox="0 0 24 24" fill="none" xmlns="http://www.w3.org/2000/svg">
<path d="M6.30741 8.03457C6.64503 7.82401 7.08114 7.69187 7.80728 7.62186C8.54562 7.55067 9.4967 7.5498 10.8408 7.5498H17.1608C18.5049 7.5498 19.4559 7.55067 20.1943 7.62186C20.9204 7.69187 21.3565 7.82401 21.6942 8.03457C22.1082 8.29282 22.4578 8.64235 22.716 9.05643C22.9266 9.39405 23.0587 9.83016 23.1287 10.5563C23.1999 11.2946 23.2008 12.2457 23.2008 13.5898V14.4098C23.2008 15.7539 23.1999 16.705 23.1287 17.4433C23.0587 18.1694 22.9266 18.6056 22.716 18.9432C22.4578 19.3573 22.1082 19.7068 21.6942 19.965C21.3565 20.1756 20.9204 20.3077 20.1943 20.3778C19.4559 20.4489 18.5049 20.4498 17.1608 20.4498H10.8408C9.4967 20.4498 8.54562 20.4489 7.80728 20.3778C7.08114 20.3077 6.64503 20.1756 6.30741 19.965C5.89333 19.7068 5.54379 19.3573 5.28555 18.9432C5.07499 18.6056 4.94284 18.1694 4.87283 17.4433C4.80165 16.705 4.80078 15.7539 4.80078 14.4098V13.5898C4.80078 12.2457 4.80165 11.2946 4.87283 10.5563C4.94284 9.83016 5.07499 9.39405 5.28555 9.05643C5.54379 8.64235 5.89333 8.29282 6.30741 8.03457Z" fill="#AC32BF"/>
<path d="M1.69469 6.01989C1.04549 7.17084 1.23481 8.68284 1.61346 11.7068C1.99212 14.7308 2.18144 16.2428 3.09438 17.1982C3.1479 17.2542 3.20299 17.3086 3.25957 17.3613C3.20028 16.5789 3.20029 15.624 3.2003 14.4512V13.5479C3.20029 12.2548 3.20028 11.2266 3.27974 10.4025C3.36122 9.55737 3.53205 8.84348 3.92745 8.20948C4.31482 7.58836 4.83912 7.06406 5.46024 6.67669C6.09424 6.28129 6.80813 6.11046 7.65325 6.02898C8.47736 5.94952 9.50559 5.94953 10.7986 5.94954H17.202C18.495 5.94953 19.5232 5.94952 20.3473 6.02898C20.5774 6.05116 20.7977 6.07996 21.0094 6.11811C20.7892 5.01586 20.5034 4.28088 19.9776 3.73059C19.7058 3.44617 19.3935 3.2034 19.0509 3.01012C17.8999 2.36092 16.3879 2.55024 13.3639 2.92889L7.90651 3.61224C4.88251 3.99089 3.37051 4.18022 2.41516 5.09316C2.13074 5.36496 1.88797 5.67723 1.69469 6.01989Z" fill="#525282"/>
<path fill-rule="evenodd" clip-rule="evenodd" d="M16.15 12.1713C16.15 11.7019 16.5306 11.3213 17 11.3213L20 11.3213C20.4694 11.3213 20.85 11.7019 20.85 12.1713C20.85 12.6408 20.4694 13.0213 20 13.0213L17 13.0213C16.5306 13.0213 16.15 12.6408 16.15 12.1713Z" fill="white"/>
<path fill-rule="evenodd" clip-rule="evenodd" d="M14.15 15.6713C14.15 15.2019 14.5306 14.8213 15 14.8213L20 14.8213C20.4694 14.8213 20.85 15.2019 20.85 15.6713C20.85 16.1408 20.4694 16.5213 20 16.5213H15C14.5306 16.5213 14.15 16.1408 14.15 15.6713Z" fill="white"/>
<path fill-rule="evenodd" clip-rule="evenodd" d="M9.64443 11C8.92915 11 8.3493 11.5798 8.3493 12.2951C8.3493 13.0104 8.92915 13.5903 9.64443 13.5903C10.3597 13.5903 10.9396 13.0104 10.9396 12.2951C10.9396 11.5798 10.3597 11 9.64443 11Z" fill="white"/>
<path fill-rule="evenodd" clip-rule="evenodd" d="M8.35696 14.0645C7.61088 14.0645 7.00527 14.6679 7.00244 15.4139L7.00001 16.0555C6.99836 16.4897 7.34994 16.8426 7.7842 16.8426H11.5049C11.9391 16.8426 12.2907 16.4897 12.2891 16.0555L12.2866 15.4139C12.2838 14.6678 11.6782 14.0645 10.9321 14.0645H10.674C10.5181 14.0645 10.3657 14.111 10.2363 14.1981L9.68432 14.5694C9.66027 14.5856 9.6288 14.5856 9.60474 14.5694L9.05275 14.1981C8.92337 14.111 8.77098 14.0645 8.61505 14.0645H8.35696Z" fill="white"/>
</svg>
