<svg width="24" height="24" viewBox="0 0 24 24" fill="none" xmlns="http://www.w3.org/2000/svg">
<path fill-rule="evenodd" clip-rule="evenodd" d="M8.65039 17.9995V9.03906H10.8504V17.9995H8.65039Z" fill="#525282"/>
<path fill-rule="evenodd" clip-rule="evenodd" d="M4.15039 17.9995L4.15039 9.03906H6.35039V17.9995H4.15039Z" fill="#525282"/>
<path fill-rule="evenodd" clip-rule="evenodd" d="M13.1504 17.9995V9.03906H15.3504V17.9995H13.1504Z" fill="#525282"/>
<path fill-rule="evenodd" clip-rule="evenodd" d="M17.6504 17.9995V9.03906H19.8504V17.9995H17.6504Z" fill="#525282"/>
<path d="M2 8.49032C2 7.04715 2 6.32556 2.39541 5.79411C2.79083 5.26267 3.47742 5.05669 4.85061 4.64473L11.4253 2.67232C11.7106 2.58674 11.8532 2.54395 12 2.54395C12.1468 2.54395 12.2894 2.58674 12.5747 2.67232L19.1494 4.64473C20.5226 5.05669 21.2092 5.26267 21.6046 5.79411C22 6.32556 22 7.04715 22 8.49032C22 9.43952 22 9.91413 21.7071 10.207C21.4142 10.4999 20.9428 10.4999 20 10.4999H4C3.05719 10.4999 2.58579 10.4999 2.29289 10.207C2 9.91413 2 9.43952 2 8.49032Z" fill="#22B07D"/>
<path d="M2 18.6637C2 17.4609 2.90501 16.4508 4.10056 16.3192L-nan -nanL4.10056 16.3192C9.35099 15.7411 14.649 15.7411 19.8994 16.3192L-nan -nanL19.8994 16.3192C21.095 16.4508 22 17.4609 22 18.6637V20.5504H2V18.6637Z" fill="#22B07D"/>
<path fill-rule="evenodd" clip-rule="evenodd" d="M1 20.5508C1 19.9985 1.44772 19.5508 2 19.5508H22C22.5523 19.5508 23 19.9985 23 20.5508C23 21.1031 22.5523 21.5508 22 21.5508H2C1.44772 21.5508 1 21.1031 1 20.5508Z" fill="#525282"/>
<path d="M13.75 6.75C13.75 7.7165 12.9665 8.5 12 8.5C11.0335 8.5 10.25 7.7165 10.25 6.75C10.25 5.7835 11.0335 5 12 5C12.9665 5 13.75 5.7835 13.75 6.75Z" fill="#525282"/>
</svg>
