<svg width="24" height="24" viewBox="0 0 24 24" fill="none" xmlns="http://www.w3.org/2000/svg">
<path d="M0.480469 11.5813C0.480469 8.0471 0.480469 6.28001 1.38049 5.04123C1.41683 4.99122 1.45412 4.94197 1.49234 4.89349C1.75987 4.55415 2.073 4.25299 2.42307 3.99866C3.66184 3.09863 5.42894 3.09863 8.96312 3.09863L15.0371 3.09863C15.0423 3.09863 15.0475 3.09863 15.0526 3.09863C16.0698 3.09863 16.9402 3.09874 17.6937 3.12051C19.5508 3.17416 20.6972 3.35935 21.5772 3.99866C21.9773 4.28933 22.3291 4.64116 22.6198 5.04123C23.1253 5.73706 23.3469 6.59959 23.444 7.84835L23.4444 7.85363C23.5198 8.82711 23.5198 10.0351 23.5198 11.5813V12.4191C23.5198 13.9681 23.5198 15.1776 23.444 16.152C23.3469 17.4008 23.1253 18.2633 22.6198 18.9591C22.3291 19.3592 21.9773 19.711 21.5772 20.0017C20.6972 20.641 19.5508 20.8262 17.6937 20.8799C16.9364 20.9017 16.0609 20.9017 15.0371 20.9017L8.96312 20.9017C5.42894 20.9017 3.66184 20.9017 2.42307 20.0017C2.02299 19.711 1.67116 19.3592 1.38049 18.9591C0.480469 17.7204 0.480469 15.9533 0.480469 12.4191L0.480469 11.5813Z" fill="#FFD361"/>
<path d="M13.5508 8.00818C13.5508 6.79392 14.5351 5.80957 15.7494 5.80957C16.9636 5.80957 17.948 6.79392 17.948 8.00818C17.948 9.22243 16.9636 10.2068 15.7494 10.2068C14.5351 10.2068 13.5508 9.22243 13.5508 8.00818Z" fill="#EB001B"/>
<path d="M16.4883 8.00818C16.4883 6.79392 17.4726 5.80957 18.6869 5.80957C19.9011 5.80957 20.8855 6.79392 20.8855 8.00818C20.8855 9.22243 19.9011 10.2068 18.6869 10.2068C17.4726 10.2068 16.4883 9.22243 16.4883 8.00818Z" fill="#F79E1B"/>
<path d="M17.2176 6.37207C17.6654 6.77455 17.947 7.35824 17.947 8.0077C17.947 8.65716 17.6654 9.24085 17.2176 9.64333C16.7699 9.24085 16.4883 8.65716 16.4883 8.0077C16.4883 7.35824 16.7699 6.77455 17.2176 6.37207Z" fill="#FF5F00"/>
<path d="M4.47585 8.60805C4.02403 8.27146 3.79812 8.10317 3.74952 7.90192C3.73128 7.82642 3.73128 7.74921 3.74952 7.67371C3.79812 7.47247 4.02403 7.30417 4.47585 6.96759C5.09119 6.50917 5.39887 6.27996 5.66947 6.30339C5.76697 6.31183 5.85957 6.33898 5.93767 6.38202C6.15442 6.50148 6.15442 6.82089 6.15442 7.45972V8.11591C6.15442 8.75474 6.15442 9.07416 5.93767 9.19361C5.85957 9.23665 5.76697 9.2638 5.66947 9.27225C5.39887 9.29568 5.0912 9.06647 4.47585 8.60805Z" fill="#484878"/>
<path d="M3.31055 15.4989C3.31055 15.0846 3.64633 14.7489 4.06055 14.7489H5.92868C6.3429 14.7489 6.67868 15.0846 6.67868 15.4989C6.67868 15.9131 6.3429 16.2489 5.92868 16.2489H4.06055C3.64633 16.2489 3.31055 15.9131 3.31055 15.4989Z" fill="#484878"/>
<path d="M8.7309 14.7489C8.31668 14.7489 7.9809 15.0846 7.9809 15.4989C7.9809 15.9131 8.31668 16.2489 8.7309 16.2489H10.599C11.0132 16.2489 11.349 15.9131 11.349 15.4989C11.349 15.0846 11.0132 14.7489 10.599 14.7489L8.7309 14.7489Z" fill="#484878"/>
<path d="M12.6512 15.4989C12.6512 15.0846 12.987 14.7489 13.4012 14.7489H15.2694C15.6836 14.7489 16.0194 15.0846 16.0194 15.4989C16.0194 15.9131 15.6836 16.2489 15.2694 16.2489H13.4012C12.987 16.2489 12.6512 15.9131 12.6512 15.4989Z" fill="#484878"/>
<path d="M18.0715 14.7489C17.6573 14.7489 17.3215 15.0846 17.3215 15.4989C17.3215 15.9131 17.6573 16.2489 18.0715 16.2489L19.9397 16.2489C20.3539 16.2489 20.6897 15.9131 20.6897 15.4989C20.6897 15.0846 20.3539 14.7489 19.9397 14.7489L18.0715 14.7489Z" fill="#484878"/>
</svg>
