<svg width="24" height="24" viewBox="0 0 24 24" fill="none" xmlns="http://www.w3.org/2000/svg">
<path fill-rule="evenodd" clip-rule="evenodd" d="M11.9998 19.5036C18.2161 19.5036 23.2554 16.144 23.2554 11.9998C23.2554 7.85563 18.2161 4.49609 11.9998 4.49609C5.78345 4.49609 0.744141 7.85563 0.744141 11.9998C0.744141 16.144 5.78345 19.5036 11.9998 19.5036ZM3.5303 12.2975C3.59112 12.1254 3.65395 11.9508 3.72632 11.7813C3.80696 11.8018 3.88829 11.8234 3.96965 11.845C4.04348 11.8646 4.11734 11.8842 4.19075 11.903L4.40939 11.9594C4.34354 12.224 4.2777 12.5061 4.22744 12.7905C4.22702 12.8007 4.22616 12.8109 4.22531 12.8211C4.22411 12.8354 4.22291 12.8497 4.22291 12.8641C4.2113 12.9704 4.21282 13.0776 4.22744 13.1837C4.24086 13.2438 4.26898 13.3007 4.30995 13.3508C4.35093 13.401 4.40383 13.4431 4.46518 13.4745C4.53717 13.5105 4.61463 13.5379 4.69538 13.5558L4.75016 13.5704H4.75519C4.80797 13.5743 4.85823 13.5786 4.90849 13.5842C4.96755 13.5917 5.02721 13.5953 5.08692 13.5949C5.18343 13.5949 5.28139 13.5867 5.37654 13.5786L5.38246 13.5781L5.47695 13.5704C5.71403 13.5421 5.9393 13.4642 6.13287 13.3437C6.171 13.3199 6.20234 13.2891 6.22454 13.2535C6.24674 13.2179 6.25922 13.1784 6.26104 13.1381C6.26054 12.9557 6.25752 12.7703 6.25451 12.5913C6.25099 12.3956 6.24797 12.1934 6.24797 11.9947C6.22787 11.7899 6.22787 11.5808 6.22787 11.3787C6.22737 11.1868 6.22636 10.9885 6.21078 10.7941C6.21078 10.5674 6.20425 10.3368 6.19771 10.1139C6.19709 10.0927 6.19647 10.0713 6.19584 10.0499C6.19031 9.86214 6.18464 9.66944 6.18464 9.47987C6.31556 9.47171 6.44897 9.45927 6.57789 9.44725C6.73873 9.4322 6.90591 9.41664 7.06976 9.40889V11.6914C7.06269 11.778 7.08568 11.8645 7.13585 11.9399C7.18602 12.0154 7.26112 12.0765 7.35173 12.1155L7.4422 12.1379C7.50312 12.1469 7.56486 12.151 7.62666 12.1504C7.6484 12.1504 7.67027 12.1497 7.69201 12.1491C7.71349 12.1484 7.73485 12.1478 7.75584 12.1478L7.85083 12.1452C7.98041 12.1443 8.10528 12.1035 8.20267 12.0304C8.28905 11.943 8.34018 11.834 8.34843 11.7198C8.36768 11.5733 8.37608 11.4259 8.37356 11.2784H9.14508V11.3288C9.14508 11.5241 9.14508 11.7258 9.14056 11.925C9.13 12.017 9.22852 12.0717 9.31597 12.1087L9.3247 12.1105C9.35912 12.1176 9.39423 12.1249 9.42806 12.134C9.46324 12.1379 9.49943 12.1379 9.53964 12.1379H9.63011C9.68978 12.1245 9.74433 12.098 9.78839 12.061C9.83246 12.0241 9.86452 11.9779 9.88142 11.9271C9.94061 11.7354 9.96702 11.5373 9.95983 11.3391V11.2711H10.7248V11.9869C10.7577 12.037 10.8092 12.0762 10.8711 12.0983L10.8992 12.1121L10.9304 12.1186L10.9912 12.131C11.0347 12.1388 11.079 12.143 11.1234 12.1435C11.1788 12.1449 11.2337 12.1341 11.2827 12.1121C11.3561 12.0572 11.4019 11.9801 11.4104 11.897C11.4118 11.892 11.4131 11.8869 11.4145 11.8819C11.4175 11.8706 11.4205 11.8594 11.424 11.8484C11.4487 11.6294 11.4586 11.4094 11.4536 11.1894H12.2272V11.7667C12.2219 11.8625 12.2545 11.9571 12.3196 12.0351C12.358 12.0685 12.4045 12.0942 12.4558 12.1104L12.4795 12.1194C12.5854 12.1386 12.6934 12.1475 12.8017 12.1461C12.8826 12.1461 12.964 12.1426 13.0429 12.1392H13.0932C13.1314 12.1309 13.1702 12.1248 13.2093 12.1207L13.2495 12.1087C13.3032 12.0976 13.3529 12.0751 13.3937 12.0433C13.4243 11.9899 13.434 11.9296 13.4214 11.8712C13.4184 11.8583 13.4184 11.8458 13.4184 11.8334C13.3867 11.4854 13.3525 11.2019 13.3103 10.9416C13.367 10.9242 13.4259 10.9125 13.4857 10.9068L13.536 10.9003L14.1643 10.8082C14.1859 10.9265 14.2004 11.0479 14.2145 11.1653L14.2171 11.1869C14.2273 11.2717 14.2378 11.3588 14.2517 11.444C14.2572 11.4759 14.2572 11.5086 14.2572 11.5404C14.2573 11.5967 14.2634 11.6528 14.2753 11.7082C14.283 11.8247 14.283 11.9414 14.2753 12.0579C14.2629 12.1113 14.2552 12.1653 14.2522 12.2197L14.2386 12.2657C14.2256 12.3113 14.212 12.3577 14.1969 12.4033C14.1398 12.5581 14.0451 12.7007 13.919 12.8219C13.8055 12.9199 13.6703 12.9977 13.5214 13.0507L13.435 13.08L13.354 13.0981L13.2535 13.1209C13.2193 13.1239 13.1857 13.1286 13.153 13.1333C13.0983 13.1423 13.0428 13.1475 12.9871 13.1488H12.7253C12.5672 13.1549 12.4093 13.136 12.2593 13.0929C12.0739 13.0363 11.9194 12.9231 11.8256 12.775C11.7223 12.9155 11.5759 13.0289 11.4024 13.1028C11.3041 13.1346 11.1998 13.1508 11.0947 13.1505C11.0297 13.1505 10.9648 13.1444 10.9012 13.1325L10.8309 13.1222C10.6941 13.084 10.5668 13.0245 10.4554 12.9466C10.4256 12.9263 10.3986 12.9031 10.375 12.8774C10.3509 12.8509 10.323 12.8271 10.2921 12.8064C10.215 12.9175 10.1051 13.0092 9.9734 13.0723C9.92819 13.0869 9.88291 13.1015 9.83669 13.1153L9.72511 13.1351C9.64771 13.1448 9.56961 13.1498 9.49139 13.1501C9.34588 13.1522 9.20143 13.1285 9.06718 13.0804C8.91545 13.0041 8.78602 12.8992 8.6887 12.7737C8.58755 12.9048 8.44472 13.0084 8.27706 13.0723L8.1906 13.1015C8.12975 13.1154 8.06798 13.1261 8.00564 13.1338C7.93657 13.145 7.86633 13.15 7.79605 13.1488H7.58093C7.47746 13.1458 7.37497 13.1306 7.27634 13.1037C7.20274 13.072 7.13346 13.0335 7.06976 12.9888C7.07826 13.1683 7.05401 13.3478 6.99789 13.5209C6.88397 13.8313 6.64839 14.0986 6.33091 14.2776C6.01756 14.4483 5.66199 14.5541 5.29249 14.5865C5.20303 14.5921 5.11507 14.5921 5.02057 14.5921C4.92608 14.5921 4.83712 14.5903 4.74866 14.586C4.69715 14.5757 4.64467 14.5694 4.59184 14.5671H4.56922C4.53475 14.5586 4.49938 14.5524 4.4648 14.5463L4.45814 14.5452H4.45412C4.13174 14.4915 3.84359 14.3385 3.6444 14.115C3.57664 14.0339 3.51997 13.9465 3.47552 13.8543C3.40831 13.6962 3.36933 13.5303 3.35991 13.3622C3.35359 13.1177 3.37973 12.8734 3.43782 12.6339V12.6283L3.44335 12.6034C3.44548 12.5946 3.44754 12.5857 3.44961 12.5768C3.45341 12.5606 3.45721 12.5442 3.46144 12.5281L3.46597 12.5113L3.48507 12.4472L3.50165 12.3913L3.52226 12.3199L3.5303 12.2975ZM16.536 11.3236C16.6851 11.2884 16.8377 11.2524 16.9875 11.2143C17.008 11.235 17.02 11.2608 17.0217 11.2879C17.0235 11.3004 17.0264 11.3127 17.0302 11.3249C17.0403 11.3705 17.0523 11.4187 17.0644 11.4617L17.0714 11.4879C17.0769 11.506 17.0815 11.5245 17.086 11.543L17.0925 11.5692L17.1026 11.5998L17.1257 11.6682L17.1307 11.6897C17.1327 11.6978 17.1358 11.706 17.1358 11.7112C17.1524 11.7954 17.1894 11.8758 17.2443 11.9471C17.2993 12.0184 17.371 12.0792 17.4549 12.1254C17.557 12.146 17.6617 12.1555 17.7665 12.1538C17.8379 12.1538 17.9103 12.1508 17.9807 12.1478C17.9922 12.1473 18.0038 12.1468 18.0154 12.1463C18.0563 12.1445 18.0973 12.1426 18.1365 12.1426C18.1745 12.1342 18.2131 12.1276 18.2521 12.1229C18.3351 12.1026 18.4742 12.0687 18.4677 11.9568C18.4511 11.6277 18.4069 11.3017 18.3611 10.998C18.3566 10.9777 18.3566 10.9571 18.3566 10.9326C18.5134 10.9111 18.6728 10.8874 18.8291 10.8642L19.2071 10.8091C19.2467 11.0898 19.289 11.3888 19.3076 11.6897C19.3551 12.0044 19.2943 12.3242 19.1327 12.6098C19.0098 12.8109 18.8067 12.9676 18.5602 13.0512L18.5019 13.0705L18.4727 13.08L18.4194 13.0925L18.3134 13.117L18.2601 13.1243C18.2189 13.1295 18.1767 13.1351 18.1355 13.1437H18.1033C18.0018 13.1475 17.8972 13.1514 17.7937 13.1514C17.7092 13.1514 17.6339 13.1488 17.564 13.1432C17.5323 13.1338 17.4991 13.1243 17.4559 13.1127C17.3858 13.0857 17.3212 13.0494 17.2644 13.0051L17.2443 12.991C17.2277 13.151 17.194 13.3094 17.1438 13.4641L17.1106 13.5424C17.0955 13.5768 17.079 13.6117 17.0644 13.6414C16.9848 13.8031 16.8688 13.9498 16.723 14.0732C16.5771 14.1965 16.4043 14.294 16.2144 14.3602C15.9316 14.4569 15.6299 14.5067 15.3253 14.5069H15.3223C15.3001 14.4047 15.2758 14.3016 15.252 14.2005C15.2468 14.1782 15.2415 14.156 15.2363 14.1339C15.1997 13.9804 15.162 13.8199 15.1283 13.6607L15.1946 13.6517C15.2233 13.6444 15.2539 13.6366 15.2856 13.6298L15.3952 13.6035C15.6331 13.5477 15.8616 13.4661 16.0752 13.3605C16.2033 13.3002 16.3058 13.2069 16.3682 13.0938C16.4032 13.0079 16.4097 12.9154 16.3868 12.8266V12.8124C16.3396 12.3909 16.2567 11.9663 16.1762 11.5555L16.1491 11.4157L16.4778 11.3374C16.4972 11.3328 16.5166 11.3282 16.536 11.3236ZM18.8636 14.3259C18.7591 14.232 18.6515 14.1352 18.5421 14.0427L18.5441 14.0444C18.427 14.1454 18.3107 14.2497 18.1973 14.3515C18.1822 14.365 18.1671 14.3786 18.1521 14.392L18.0681 14.4673H17.9721C17.9113 14.4118 17.85 14.3572 17.7866 14.3008C17.7766 14.2918 17.7665 14.2828 17.7564 14.2738C17.6694 14.1958 17.5801 14.1159 17.4941 14.035V13.9601C17.5491 13.9102 17.6044 13.8605 17.66 13.8109L17.6679 13.8038C17.767 13.7152 17.8697 13.6234 17.9676 13.5304H18.0259C18.0396 13.529 18.0534 13.5305 18.0662 13.535C18.0789 13.5394 18.0902 13.5466 18.0988 13.5558C18.1159 13.5712 18.1329 13.5868 18.1499 13.6024C18.1814 13.6313 18.2129 13.6603 18.2455 13.6883C18.3415 13.7756 18.4421 13.8642 18.5426 13.9502C18.6713 13.8448 18.7959 13.7313 18.916 13.6216L19.0166 13.5317H19.1211C19.2227 13.6273 19.329 13.7219 19.4329 13.8144L19.4604 13.8388C19.4735 13.8506 19.4867 13.8622 19.5001 13.8739C19.5309 13.9009 19.5622 13.9284 19.5931 13.9584V14.0367C19.4882 14.1361 19.378 14.2337 19.2708 14.3286L19.1146 14.4669H19.0191L18.8768 14.3378L18.8636 14.3259ZM20.1072 9.45062C20.2817 9.4347 20.4626 9.41879 20.6405 9.4076C20.6405 9.76163 20.6405 10.1157 20.638 10.4727V13.1252C20.5762 13.1265 20.5063 13.1286 20.437 13.1325C20.3746 13.1435 20.3111 13.1487 20.2475 13.148C20.197 13.148 20.1467 13.151 20.0967 13.157C20.0231 13.1659 19.9489 13.1703 19.8745 13.1703H19.8388V13.0598L19.8388 13.0579C19.8383 12.95 19.8378 12.8384 19.8343 12.7281C19.8278 12.7016 19.8239 12.6747 19.8228 12.6477C19.8225 12.5894 19.8215 12.5311 19.8205 12.4726C19.8194 12.4054 19.8182 12.338 19.8182 12.2704C19.8132 12.1135 19.8132 11.9518 19.8132 11.7922C19.7941 11.5914 19.7941 11.3873 19.7941 11.1899C19.7931 10.9997 19.7916 10.8031 19.7765 10.6099C19.7765 10.5076 19.7765 10.4034 19.7725 10.3032C19.7685 10.203 19.7685 10.099 19.7685 9.99665C19.7695 9.95836 19.7665 9.91908 19.7635 9.88122C19.7574 9.82485 19.7574 9.76811 19.7635 9.71173C19.7544 9.63499 19.7517 9.5578 19.7554 9.48073C19.866 9.47227 19.977 9.46231 20.0852 9.4526L20.1072 9.45062ZM15.5746 9.40776C15.4264 9.41688 15.2765 9.42968 15.1296 9.44222C15.0965 9.44505 15.0635 9.44786 15.0308 9.45062C14.9192 9.46094 14.8046 9.47127 14.6915 9.4803C14.6888 9.58393 14.6926 9.68761 14.7031 9.79089C14.7066 9.91047 14.7076 10.0318 14.7081 10.1492C14.7081 10.3604 14.7111 10.5794 14.7282 10.7915C14.7282 10.9512 14.7305 11.1126 14.7328 11.2704C14.7331 11.2928 14.7334 11.3151 14.7337 11.3374C14.7337 11.4069 14.7349 11.4757 14.7361 11.5442C14.737 11.5927 14.7378 11.641 14.7382 11.6892C14.7533 11.8906 14.7548 12.0959 14.7563 12.2943L14.7563 12.2967C14.7563 12.4184 14.7563 12.544 14.7619 12.6675C14.7742 12.7804 14.7789 12.8939 14.7759 13.0073V13.169H14.8116C14.886 13.169 14.9602 13.1646 15.0338 13.1557C15.0837 13.1497 15.1341 13.1467 15.1846 13.1467C15.2479 13.1474 15.311 13.1424 15.3731 13.1316C15.4409 13.1273 15.5093 13.1252 15.5741 13.1239C15.5758 12.5717 15.5752 12.0132 15.5747 11.4609C15.5744 11.1871 15.5741 10.9148 15.5741 10.6456L15.5746 9.40776ZM13.0811 9.90273C13.2626 9.74486 13.4355 9.58569 13.5807 9.45062L13.6802 9.44976L13.8481 9.6029L13.8582 9.61221C13.9646 9.70997 14.0743 9.81072 14.1859 9.90703V9.93457C14.1883 9.94906 14.1867 9.96386 14.1811 9.97771C14.1755 9.99155 14.1661 10.0041 14.1537 10.0141L14.0029 10.1535C13.8959 10.2516 13.7853 10.3527 13.6722 10.4486H13.5862C13.4994 10.3734 13.4105 10.2926 13.3296 10.2191L13.3123 10.2033C13.2367 10.1346 13.1591 10.0641 13.0811 9.99651V9.90273Z" fill="#FDC003"/>
<path fill-rule="evenodd" clip-rule="evenodd" d="M3.53069 12.2971C3.59151 12.1251 3.65433 11.9504 3.72671 11.7809C3.80735 11.8015 3.88867 11.823 3.97004 11.8446C4.04387 11.8642 4.11773 11.8838 4.19113 11.9027L4.40977 11.959C4.34393 12.2236 4.27809 12.5058 4.22782 12.7901C4.2274 12.8003 4.22655 12.8106 4.22569 12.8208C4.2245 12.8351 4.2233 12.8494 4.2233 12.8637C4.21168 12.9701 4.2132 13.0772 4.22782 13.1833C4.24124 13.2434 4.26936 13.3003 4.31034 13.3505C4.35131 13.4006 4.40421 13.4427 4.46556 13.4741C4.53755 13.5101 4.61502 13.5375 4.69576 13.5554L4.75055 13.57H4.75558C4.80835 13.5739 4.85861 13.5782 4.90887 13.5838C4.96793 13.5914 5.02759 13.595 5.08731 13.5945C5.18381 13.5945 5.28177 13.5863 5.37692 13.5783L5.38285 13.5778L5.47734 13.57C5.71441 13.5417 5.93969 13.4638 6.13326 13.3433C6.17139 13.3196 6.20273 13.2887 6.22493 13.2531C6.24712 13.2175 6.2596 13.178 6.26143 13.1377C6.26093 12.9553 6.25791 12.7699 6.25489 12.5909C6.25138 12.3952 6.24836 12.193 6.24836 11.9943C6.22826 11.7895 6.22826 11.5805 6.22826 11.3783C6.22775 11.1864 6.22675 10.9881 6.21117 10.7937C6.21117 10.567 6.20463 10.3364 6.1981 10.1136C6.19748 10.0923 6.19685 10.0709 6.19622 10.0495C6.1907 9.86176 6.18503 9.66907 6.18503 9.4795C6.31594 9.47134 6.44936 9.4589 6.57828 9.44688C6.73912 9.43182 6.90629 9.41626 7.07015 9.40852V11.691C7.06307 11.7776 7.08606 11.8641 7.13623 11.9396C7.1864 12.015 7.26151 12.0761 7.35212 12.1152L7.44259 12.1375C7.5035 12.1465 7.56525 12.1507 7.62705 12.15C7.64879 12.15 7.67066 12.1494 7.6924 12.1487C7.71388 12.1481 7.73524 12.1474 7.75622 12.1474L7.85122 12.1449C7.98079 12.1439 8.10566 12.1032 8.20305 12.03C8.28944 11.9426 8.34056 11.8337 8.34881 11.7194C8.36807 11.5729 8.37646 11.4255 8.37394 11.2781H9.14547V11.3284C9.14547 11.5237 9.14547 11.7254 9.14094 11.9246C9.13039 12.0167 9.2289 12.0713 9.31636 12.1083L9.32509 12.1101C9.35951 12.1173 9.39462 12.1245 9.42844 12.1337C9.46363 12.1375 9.49982 12.1375 9.54002 12.1375H9.6305C9.69016 12.1241 9.74471 12.0976 9.78878 12.0606C9.83284 12.0237 9.8649 11.9775 9.88181 11.9268C9.941 11.735 9.96741 11.5369 9.96022 11.3387V11.2707H10.7252V11.9866C10.7581 12.0366 10.8096 12.0758 10.8715 12.098L10.8996 12.1117L10.9308 12.1182L10.9916 12.1307C11.0351 12.1384 11.0794 12.1426 11.1238 12.1431C11.1792 12.1446 11.234 12.1338 11.2831 12.1117C11.3565 12.0568 11.4023 11.9798 11.4108 11.8966C11.4122 11.8916 11.4135 11.8865 11.4149 11.8815C11.4179 11.8702 11.4209 11.859 11.4244 11.848C11.4491 11.629 11.459 11.409 11.454 11.189H12.2275V11.7663C12.2223 11.8621 12.2549 11.9567 12.32 12.0347C12.3584 12.0681 12.4049 12.0938 12.4562 12.11L12.4799 12.119C12.5857 12.1382 12.6938 12.1472 12.802 12.1457C12.883 12.1457 12.9644 12.1423 13.0433 12.1388H13.0936C13.1318 12.1306 13.1705 12.1244 13.2097 12.1203L13.2499 12.1083C13.3036 12.0973 13.3533 12.0748 13.3941 12.0429C13.4247 11.9896 13.4343 11.9292 13.4218 11.8708C13.4188 11.8579 13.4188 11.8455 13.4188 11.833C13.3871 11.485 13.3529 11.2015 13.3107 10.9412C13.3674 10.9238 13.4262 10.9121 13.4861 10.9064L13.5364 10.8999L14.1646 10.8079C14.1863 10.9262 14.2008 11.0475 14.2149 11.1649L14.2175 11.1865C14.2277 11.2713 14.2382 11.3584 14.2521 11.4437C14.2576 11.4755 14.2576 11.5082 14.2576 11.54C14.2577 11.5963 14.2637 11.6525 14.2757 11.7078C14.2833 11.8243 14.2833 11.941 14.2757 12.0575C14.2633 12.1109 14.2556 12.1649 14.2526 12.2193L14.239 12.2653C14.226 12.3109 14.2124 12.3574 14.1973 12.403C14.1402 12.5577 14.0454 12.7003 13.9194 12.8215C13.8058 12.9196 13.6707 12.9974 13.5218 13.0504L13.4353 13.0796L13.3544 13.0977L13.2539 13.1205C13.2197 13.1235 13.186 13.1282 13.1534 13.133C13.0987 13.142 13.0432 13.1471 12.9875 13.1485H12.7256C12.5676 13.1546 12.4097 13.1356 12.2597 13.0925C12.0743 13.036 11.9198 12.9228 11.8259 12.7746C11.7227 12.9151 11.5763 13.0285 11.4027 13.1024C11.3045 13.1342 11.2002 13.1504 11.0951 13.1502C11.0301 13.1501 10.9652 13.1441 10.9016 13.1321L10.8313 13.1218C10.6945 13.0836 10.5672 13.0241 10.4558 12.9463C10.426 12.9259 10.399 12.9027 10.3754 12.877C10.3513 12.8505 10.3234 12.8267 10.2924 12.806C10.2154 12.9171 10.1055 13.0088 9.97379 13.0719C9.92858 13.0865 9.88329 13.1011 9.83707 13.1149L9.72549 13.1347C9.6481 13.1444 9.57 13.1494 9.49177 13.1497C9.34626 13.1519 9.20182 13.1281 9.06756 13.0801C8.91583 13.0037 8.7864 12.8988 8.68909 12.7733C8.58794 12.9044 8.44511 13.008 8.27744 13.0719L8.19099 13.1011C8.13013 13.115 8.06837 13.1258 8.00603 13.1334C7.93696 13.1446 7.86672 13.1496 7.79643 13.1485H7.58131C7.47785 13.1454 7.37536 13.1302 7.27672 13.1033C7.20313 13.0716 7.13385 13.0331 7.07015 12.9884C7.07864 13.1679 7.05439 13.3475 6.99827 13.5206C6.88436 13.831 6.64877 14.0982 6.33129 14.2772C6.01795 14.4479 5.66238 14.5537 5.29288 14.5861C5.20341 14.5917 5.11545 14.5917 5.02096 14.5917C4.92647 14.5917 4.8375 14.59 4.74904 14.5857C4.69754 14.5753 4.64505 14.569 4.59222 14.5667H4.56961C4.53513 14.5582 4.49977 14.552 4.46519 14.546L4.45853 14.5448H4.45451C4.13212 14.4912 3.84398 14.3381 3.64478 14.1146C3.57702 14.0335 3.52036 13.9461 3.4759 13.8539C3.40869 13.6958 3.36972 13.5299 3.3603 13.3618C3.35398 13.1173 3.38011 12.873 3.43821 12.6335V12.6279L3.44373 12.603C3.44586 12.5942 3.44793 12.5853 3.45 12.5765C3.45379 12.5602 3.4576 12.5439 3.46183 12.5277L3.46635 12.5109L3.48545 12.4468L3.50204 12.3909L3.52265 12.3195L3.53069 12.2971ZM16.5364 11.3232C16.6855 11.288 16.8381 11.252 16.9879 11.214C17.0084 11.2346 17.0204 11.2604 17.022 11.2875C17.0239 11.3 17.0268 11.3124 17.0306 11.3245C17.0406 11.3701 17.0527 11.4183 17.0648 11.4613L17.0718 11.4875C17.0773 11.5056 17.0819 11.5241 17.0864 11.5426L17.0929 11.5689L17.103 11.5994L17.1261 11.6678L17.1311 11.6893C17.1331 11.6975 17.1361 11.7056 17.1361 11.7108C17.1528 11.7951 17.1898 11.8754 17.2447 11.9467C17.2997 12.0181 17.3714 12.0788 17.4553 12.1251C17.5574 12.1456 17.6621 12.1551 17.7669 12.1535C17.8383 12.1535 17.9107 12.1504 17.981 12.1474C17.9926 12.147 18.0042 12.1464 18.0158 12.1459C18.0567 12.1441 18.0977 12.1423 18.1369 12.1423C18.1749 12.1338 18.2135 12.1272 18.2525 12.1225C18.3355 12.1022 18.4746 12.0683 18.4681 11.9564C18.4515 11.6274 18.4073 11.3013 18.3615 10.9976C18.357 10.9774 18.357 10.9567 18.357 10.9322C18.5138 10.9107 18.6732 10.887 18.8295 10.8638L19.2074 10.8087C19.2471 11.0894 19.2894 11.3884 19.308 11.6893C19.3555 12.004 19.2947 12.3238 19.1331 12.6094C19.0102 12.8105 18.807 12.9672 18.5606 13.0508L18.5023 13.0702L18.4731 13.0796L18.4198 13.0921L18.3138 13.1166L18.2605 13.1239C18.2193 13.1291 18.1771 13.1347 18.1358 13.1433H18.1037C18.0022 13.1472 17.8976 13.151 17.7941 13.151C17.7096 13.151 17.6342 13.1485 17.5644 13.1429C17.5327 13.1334 17.4995 13.1239 17.4563 13.1123C17.3862 13.0854 17.3216 13.0491 17.2648 13.0048L17.2447 12.9906C17.228 13.1506 17.1944 13.309 17.1442 13.4638L17.111 13.5421C17.0959 13.5765 17.0793 13.6113 17.0648 13.641C16.9852 13.8027 16.8692 13.9494 16.7234 14.0728C16.5775 14.1961 16.4047 14.2937 16.2148 14.3598C15.932 14.4565 15.6303 14.5063 15.3257 14.5065H15.3227C15.3004 14.4043 15.2762 14.3013 15.2524 14.2002C15.2471 14.1779 15.2419 14.1556 15.2367 14.1336C15.2 13.98 15.1623 13.8195 15.1287 13.6604L15.195 13.6513C15.2237 13.644 15.2543 13.6363 15.286 13.6294L15.3956 13.6031C15.6335 13.5474 15.862 13.4657 16.0756 13.3601C16.2037 13.2998 16.3062 13.2065 16.3686 13.0934C16.4036 13.0075 16.4101 12.9151 16.3872 12.8263V12.8121C16.34 12.3905 16.2571 11.9659 16.1766 11.5551L16.1495 11.4153L16.4782 11.337C16.4975 11.3324 16.517 11.3278 16.5364 11.3232ZM18.8639 14.3255C18.7595 14.2316 18.6519 14.1348 18.5425 14.0424L18.5445 14.0441C18.4274 14.145 18.3111 14.2494 18.1977 14.3511C18.1825 14.3647 18.1675 14.3782 18.1524 14.3917L18.0685 14.4669H17.9725C17.9117 14.4114 17.8504 14.3568 17.787 14.3005C17.777 14.2915 17.7669 14.2824 17.7568 14.2734C17.6698 14.1954 17.5805 14.1155 17.4945 14.0346V13.9598C17.5495 13.9099 17.6047 13.8601 17.6604 13.8105L17.6682 13.8034C17.7674 13.7149 17.87 13.623 17.968 13.53H18.0263C18.0399 13.5286 18.0538 13.5302 18.0666 13.5346C18.0793 13.5391 18.0905 13.5462 18.0992 13.5554C18.1163 13.5708 18.1333 13.5864 18.1503 13.6021C18.1817 13.631 18.2133 13.66 18.2459 13.6879C18.3419 13.7752 18.4425 13.8638 18.543 13.9499C18.6716 13.8445 18.7963 13.7309 18.9164 13.6212L19.0169 13.5313H19.1215C19.2231 13.627 19.3294 13.7215 19.4333 13.814L19.4608 13.8385C19.4739 13.8502 19.4871 13.8618 19.5005 13.8736C19.5313 13.9006 19.5626 13.9281 19.5935 13.958V14.0363C19.4885 14.1357 19.3784 14.2333 19.2711 14.3283L19.115 14.4665H19.0195L18.8772 14.3375L18.8639 14.3255ZM20.1076 9.45024C20.282 9.43433 20.463 9.41841 20.6409 9.40723C20.6409 9.76126 20.6409 10.1153 20.6384 10.4723V13.1248C20.5766 13.1261 20.5067 13.1282 20.4374 13.1321C20.375 13.1431 20.3115 13.1483 20.2479 13.1476C20.1974 13.1476 20.147 13.1507 20.0971 13.1566C20.0235 13.1655 19.9492 13.1699 19.8749 13.17H19.8392V13.0594L19.8392 13.0575C19.8387 12.9497 19.8382 12.8381 19.8347 12.7277C19.8281 12.7013 19.8243 12.6743 19.8232 12.6473C19.8229 12.5891 19.8219 12.5307 19.8209 12.4723C19.8198 12.4051 19.8186 12.3377 19.8186 12.27C19.8136 12.1131 19.8136 11.9514 19.8136 11.7919C19.7945 11.591 19.7945 11.3869 19.7945 11.1895C19.7935 10.9994 19.792 10.8027 19.7769 10.6096C19.7769 10.5072 19.7769 10.403 19.7729 10.3028C19.7689 10.2027 19.7689 10.0986 19.7689 9.99627C19.7699 9.95799 19.7669 9.9187 19.7638 9.88085C19.7578 9.82447 19.7578 9.76774 19.7638 9.71136C19.7548 9.63462 19.7521 9.55742 19.7558 9.48036C19.8664 9.4719 19.9774 9.46193 20.0856 9.45222L20.1076 9.45024ZM15.575 9.40738C15.4268 9.41651 15.2769 9.4293 15.13 9.44184C15.0969 9.44467 15.0639 9.44749 15.0312 9.45024C14.9196 9.46057 14.805 9.47089 14.6919 9.47993C14.6891 9.58356 14.693 9.68724 14.7035 9.79051C14.707 9.9101 14.708 10.0314 14.7085 10.1488C14.7085 10.3601 14.7115 10.579 14.7286 10.7911C14.7286 10.9508 14.7309 11.1122 14.7332 11.2701C14.7335 11.2924 14.7338 11.3148 14.7341 11.337C14.7341 11.4065 14.7353 11.4754 14.7365 11.5439C14.7374 11.5923 14.7382 11.6406 14.7386 11.6889C14.7537 11.8903 14.7552 12.0955 14.7567 12.294L14.7567 12.2963C14.7567 12.418 14.7567 12.5436 14.7623 12.6671C14.7746 12.78 14.7793 12.8935 14.7763 13.0069V13.1687H14.812C14.8863 13.1687 14.9606 13.1642 15.0342 13.1553C15.0841 13.1493 15.1345 13.1463 15.185 13.1463C15.2482 13.147 15.3114 13.142 15.3734 13.1312C15.4413 13.1269 15.5097 13.1248 15.5745 13.1235C15.5762 12.5713 15.5756 12.0128 15.575 11.4605C15.5748 11.1867 15.5745 10.9145 15.5745 10.6453L15.575 9.40738ZM13.0815 9.90236C13.2629 9.74448 13.4358 9.58532 13.5811 9.45024L13.6806 9.44938L13.8485 9.60253L13.8586 9.61183C13.965 9.70959 14.0747 9.81035 14.1863 9.90666V9.93419C14.1887 9.94869 14.1871 9.96348 14.1815 9.97733C14.1759 9.99118 14.1665 10.0037 14.1541 10.0138L14.0033 10.1531C13.8962 10.2512 13.7857 10.3523 13.6726 10.4482H13.5866C13.4997 10.373 13.4109 10.2922 13.33 10.2187L13.3127 10.203C13.2371 10.1343 13.1595 10.0637 13.0815 9.99614V9.90236Z" fill="#363636"/>
</svg>
