<svg width="24" height="24" viewBox="0 0 24 24" fill="none" xmlns="http://www.w3.org/2000/svg">
<path fill-rule="evenodd" clip-rule="evenodd" d="M9.72564 10.8446C9.68029 10.7557 9.58896 10.6998 9.48921 10.6998H9.38148C9.14844 10.6998 8.97996 10.8538 8.88374 11.0102C8.78482 11.171 8.73145 11.3765 8.73103 11.5897C8.72918 11.6988 8.74328 11.8071 8.77244 11.9111L5.48131 12.2957C5.3253 12.0359 5.06467 11.8407 4.7395 11.8407C4.33996 11.8407 4.04305 12.1312 3.90898 12.4809L3.62797 12.5136L3.62268 12.5143L3.61298 12.5157C3.57682 12.5221 3.53576 12.5308 3.49895 12.544C3.48303 12.5498 3.44858 12.563 3.41378 12.589C3.39131 12.6058 3.2763 12.6985 3.30743 12.8596C3.33282 12.991 3.43797 13.0443 3.45401 13.0524C3.46796 13.0594 3.48233 13.0654 3.49455 13.0697C3.50391 13.0729 3.51248 13.0755 3.51983 13.0775C3.52464 13.0788 3.52892 13.0799 3.53256 13.0807C3.5682 13.0892 3.60735 13.0937 3.64302 13.0965C3.71019 13.1023 3.7772 13.1065 3.84261 13.1099C3.87797 13.3655 3.98834 13.6006 4.15787 13.7689L1.46132 21.1793C1.43907 21.2404 1.44005 21.3075 1.46404 21.368C2.06943 22.8929 3.28039 24 4.7289 24C6.17748 24 7.38752 22.8928 7.99287 21.368C8.01681 21.3077 8.01784 21.2407 7.99575 21.1797L5.31284 13.7689C5.46262 13.62 5.56668 13.4188 5.61321 13.1971L10.9173 13.4423L11.7379 22.2941C11.7506 22.4307 11.8652 22.5351 12.0023 22.5351C12.1394 22.535 12.254 22.4306 12.2666 22.294L13.0847 13.433C14.2626 13.3624 15.4843 13.3124 16.7097 13.2622H16.7115L16.7137 13.2621C17.2726 13.2393 17.8327 13.2164 18.3886 13.1916C18.4351 13.4133 18.5392 13.6146 18.689 13.7636L16.0061 21.1744C15.984 21.2354 15.985 21.3024 16.009 21.3627C16.6143 22.8875 17.8244 23.9947 19.2729 23.9947C20.7215 23.9947 21.9324 22.8877 22.5378 21.3627C22.5617 21.3024 22.5628 21.2354 22.5407 21.1744L19.8596 13.7692C20.0297 13.6004 20.1402 13.3645 20.1754 13.1082L20.3107 13.1005C20.3556 13.098 20.4168 13.0917 20.4735 13.0684C20.5001 13.0574 20.5588 13.0297 20.6035 12.9661C20.6611 12.8842 20.6674 12.7834 20.6318 12.6995C20.604 12.6339 20.5585 12.5962 20.5371 12.5802C20.5115 12.5612 20.4865 12.5485 20.4672 12.5402C20.4297 12.524 20.3884 12.5134 20.3479 12.509L20.1088 12.481C19.9748 12.1313 19.6778 11.8407 19.2782 11.8407C18.9533 11.8407 18.6935 12.0356 18.5378 12.2938L15.2267 11.9048C15.2547 11.8026 15.2682 11.6966 15.2664 11.5897C15.266 11.3756 15.2116 11.1701 15.1124 11.0097C15.0165 10.8545 14.8482 10.6998 14.616 10.6998H14.5082C14.4063 10.6998 14.3134 10.7582 14.2692 10.8499C14.2532 10.8829 14.2381 10.9005 14.2297 10.9082C13.8059 10.9057 13.3578 10.7895 12.8858 10.6502V9.34726H13.0124C13.1085 9.34726 13.1971 9.29536 13.2441 9.21149C13.291 9.12761 13.2889 9.02495 13.2387 8.94302L12.2285 7.2962C12.1803 7.21762 12.0948 7.16966 12.0025 7.16956C11.9103 7.16945 11.8246 7.21724 11.7763 7.29572L10.7608 8.94345C10.7103 9.02532 10.7081 9.12815 10.755 9.21214C10.8019 9.29612 10.8906 9.34818 10.9868 9.34818H11.1187V10.65C10.6431 10.7885 10.1939 10.9052 9.77037 10.9081C9.7606 10.8994 9.74373 10.88 9.72564 10.8446ZM19.5034 20.7657V14.393L21.8275 20.7657H19.5034ZM19.0277 20.7657V14.4335L16.7185 20.7657H19.0277ZM2.17626 20.7657H4.48382V14.4402L2.17626 20.7657ZM7.28622 20.7657H4.95955V14.3923L7.28622 20.7657Z" fill="black"/>
<path d="M12.8395 0C12.7941 0.244775 12.5494 0.407958 12.3046 0.362629C12.1777 0.335432 12.0598 0.25384 11.9963 0.135986C11.9329 0.25384 11.815 0.335432 11.6881 0.362629C11.4433 0.407958 11.2076 0.244775 11.1532 0C11.0716 0.208512 11.1351 0.453286 11.3255 0.580206C11.5431 0.734323 11.8422 0.670864 11.9963 0.453286C12.1505 0.670864 12.4496 0.725258 12.6672 0.580206C12.8576 0.453286 12.9301 0.208512 12.8395 0Z" fill="black"/>
<path d="M14.0725 5.4305C15.2873 4.72338 15.6952 3.164 14.9881 1.94013C14.6436 1.35086 14.0724 0.915705 13.4106 0.752522C14.8883 1.86761 15.1785 3.96186 14.0725 5.4305Z" fill="black"/>
<path d="M11.4796 5.82015C11.0626 5.97427 10.6184 6.03772 10.1742 6.01959C10.7 6.19184 11.2349 6.20998 11.7425 6.10119V6.20998L12.0055 6.56354L12.2684 6.20998V6.10119C12.776 6.20998 13.3109 6.19184 13.8367 6.01959C13.3925 6.03772 12.9483 5.97427 12.5313 5.82015C13.2112 5.46659 13.7642 4.85012 14.018 4.0614C14.3988 2.89192 14.0362 1.61365 13.1115 0.815868C14.1178 2.31171 13.7551 4.33337 12.3046 5.38499L12.4043 2.89192V0.924658C12.2502 0.852132 12.1142 0.734277 12.0145 0.598291C11.9148 0.743343 11.7788 0.852132 11.6247 0.924658V2.89192L11.7244 5.38499C10.2739 4.33337 9.91127 2.31171 10.9176 0.815868C9.99286 1.61365 9.63023 2.89192 10.011 4.0614C10.2467 4.85012 10.7997 5.46659 11.4796 5.82015Z" fill="black"/>
<path d="M12.8395 0C12.7941 0.244775 12.5494 0.407958 12.3046 0.362629C12.1777 0.335432 12.0598 0.25384 11.9963 0.135986C11.9329 0.25384 11.815 0.335432 11.6881 0.362629C11.4433 0.407958 11.2076 0.244775 11.1532 0C11.0716 0.208512 11.1351 0.453286 11.3255 0.580206C11.5431 0.734323 11.8422 0.670864 11.9963 0.453286C12.1505 0.670864 12.4496 0.725258 12.6672 0.580206C12.8576 0.453286 12.9301 0.208512 12.8395 0Z" fill="black"/>
<path d="M9.92933 5.43043C8.82331 3.95272 9.11342 1.85854 10.5911 0.752522C9.92933 0.924771 9.35819 1.35086 9.01369 1.94013C8.30657 3.164 8.71453 4.72331 9.92933 5.43043Z" fill="black"/>
</svg>
