<svg width="24" height="24" viewBox="0 0 24 24" fill="none" xmlns="http://www.w3.org/2000/svg">
<path d="M6.30661 8.03469C6.64423 7.82414 7.08034 7.69199 7.80649 7.62198C8.54482 7.55079 9.4959 7.54993 10.84 7.54993H17.16C18.5041 7.54993 19.4552 7.55079 20.1935 7.62198C20.9196 7.69199 21.3557 7.82414 21.6934 8.03469C22.1074 8.29294 22.457 8.64247 22.7152 9.05655C22.9258 9.39417 23.0579 9.83028 23.1279 10.5564C23.1991 11.2948 23.2 12.2458 23.2 13.5899V14.4099C23.2 15.754 23.1991 16.7051 23.1279 17.4434C23.0579 18.1696 22.9258 18.6057 22.7152 18.9433C22.457 19.3574 22.1074 19.7069 21.6934 19.9652C21.3557 20.1757 20.9196 20.3079 20.1935 20.3779C19.4552 20.4491 18.5041 20.4499 17.16 20.4499H10.84C9.4959 20.4499 8.54482 20.4491 7.80649 20.3779C7.08034 20.3079 6.64423 20.1757 6.30661 19.9652C5.89253 19.7069 5.543 19.3574 5.28476 18.9433C5.0742 18.6057 4.94205 18.1696 4.87204 17.4434C4.80086 16.7051 4.79999 15.754 4.79999 14.4099V13.5899C4.79999 12.2458 4.80086 11.2948 4.87204 10.5564C4.94205 9.83028 5.0742 9.39417 5.28476 9.05655C5.543 8.64247 5.89253 8.29294 6.30661 8.03469Z" fill="#AC32BF"/>
<path d="M1.69438 6.02031C1.04518 7.17127 1.23451 8.68327 1.61316 11.7073C1.99181 14.7313 2.18114 16.2433 3.09408 17.1986C3.14759 17.2546 3.20268 17.309 3.25926 17.3617C3.19998 16.5794 3.19999 15.6244 3.19999 14.4516V13.5483C3.19998 12.2553 3.19998 11.227 3.27943 10.4029C3.36091 9.5578 3.53174 8.84391 3.92714 8.20991C4.31451 7.58878 4.83881 7.06449 5.45993 6.67712C6.09394 6.28172 6.80782 6.11089 7.65295 6.02941C8.47705 5.94995 9.50529 5.94996 10.7983 5.94997H17.2017C18.4947 5.94996 19.5229 5.94995 20.347 6.02941C20.5771 6.05159 20.7974 6.08039 21.0091 6.11854C20.7889 5.01629 20.5031 4.28131 19.9773 3.73102C19.7055 3.4466 19.3932 3.20382 19.0505 3.01055C17.8996 2.36135 16.3876 2.55067 13.3636 2.92932L7.90621 3.61267C4.88221 3.99132 3.37021 4.18064 2.41486 5.09359C2.13043 5.36538 1.88766 5.67765 1.69438 6.02031Z" fill="#525282"/>
<path fill-rule="evenodd" clip-rule="evenodd" d="M13.7191 12.1713C13.7191 11.7019 13.3386 11.3213 12.8691 11.3213L9.86911 11.3213C9.39967 11.3213 9.01911 11.7019 9.01911 12.1713C9.01911 12.6408 9.39967 13.0213 9.86911 13.0213L12.8691 13.0213C13.3386 13.0213 13.7191 12.6408 13.7191 12.1713Z" fill="white"/>
<path fill-rule="evenodd" clip-rule="evenodd" d="M13.7 15.6713C13.7 15.2019 13.3194 14.8213 12.85 14.8213L7.84998 14.8213C7.38054 14.8213 6.99998 15.2019 6.99998 15.6713C6.99998 16.1408 7.38054 16.5213 7.84998 16.5213H12.85C13.3194 16.5213 13.7 16.1408 13.7 15.6713Z" fill="white"/>
<path fill-rule="evenodd" clip-rule="evenodd" d="M18.2055 11C18.9208 11 19.5007 11.5798 19.5007 12.2951C19.5007 13.0104 18.9208 13.5903 18.2055 13.5903C17.4903 13.5903 16.9104 13.0104 16.9104 12.2951C16.9104 11.5798 17.4903 11 18.2055 11Z" fill="white"/>
<path fill-rule="evenodd" clip-rule="evenodd" d="M19.493 14.0645C20.2391 14.0645 20.8447 14.6679 20.8475 15.4139L20.85 16.0555C20.8516 16.4897 20.5 16.8426 20.0658 16.8426H16.3451C15.9108 16.8426 15.5593 16.4897 15.5609 16.0555L15.5634 15.4139C15.5662 14.6678 16.1718 14.0645 16.9179 14.0645H17.176C17.3319 14.0645 17.4843 14.111 17.6137 14.1981L18.1657 14.5694C18.1897 14.5856 18.2212 14.5856 18.2452 14.5694L18.7972 14.1981C18.9266 14.111 19.079 14.0645 19.2349 14.0645H19.493Z" fill="white"/>
</svg>
