<svg width="24" height="24" viewBox="0 0 24 24" fill="none" xmlns="http://www.w3.org/2000/svg">
<path d="M5.91641 7.96355C6.26102 7.74863 6.70615 7.61375 7.44732 7.54229C8.20094 7.46964 9.1717 7.46875 10.5436 7.46875L16.9944 7.46875C18.3663 7.46875 19.3371 7.46964 20.0907 7.54229C20.8318 7.61375 21.277 7.74863 21.6216 7.96355C22.0442 8.22714 22.401 8.58391 22.6646 9.00656C22.8795 9.35116 23.0144 9.7963 23.0858 10.5375C23.1585 11.2911 23.1594 12.2618 23.1594 13.6337V14.4707C23.1594 15.8426 23.1585 16.8134 23.0858 17.567C23.0144 18.3082 22.8795 18.7533 22.6646 19.0979C22.401 19.5206 22.0442 19.8773 21.6216 20.1409C21.277 20.3558 20.8318 20.4907 20.0907 20.5622C19.3371 20.6348 18.3663 20.6357 16.9944 20.6357H10.5436C9.1717 20.6357 8.20094 20.6348 7.44732 20.5622C6.70615 20.4907 6.26102 20.3558 5.91641 20.1409C5.49376 19.8773 5.13699 19.5206 4.8734 19.0979C4.65848 18.7533 4.5236 18.3082 4.45214 17.567C4.37949 16.8134 4.3786 15.8426 4.3786 14.4707V13.6337C4.3786 12.2618 4.37949 11.2911 4.45214 10.5375C4.5236 9.7963 4.65848 9.35116 4.8734 9.00656C5.13699 8.58391 5.49376 8.22714 5.91641 7.96355Z" fill="#AC32BF"/>
<path d="M9.74795 17.7837C11.8088 17.7837 13.4794 16.1131 13.4794 14.0523C13.4794 11.9914 11.8088 10.3208 9.74795 10.3208C7.68711 10.3208 6.01648 11.9914 6.01648 14.0523C6.01648 16.1131 7.68711 17.7837 9.74795 17.7837Z" fill="white"/>
<path d="M19.5738 12.3465C19.5738 11.6312 18.9939 11.0514 18.2787 11.0514C17.5634 11.0514 16.9835 11.6312 16.9835 12.3465C16.9835 13.0618 17.5634 13.6417 18.2787 13.6417C18.9939 13.6417 19.5738 13.0618 19.5738 12.3465Z" fill="white"/>
<path d="M20.9207 15.6216C20.9178 14.8755 20.3122 14.2722 19.5661 14.2722H19.308C19.1521 14.2722 18.9997 14.3187 18.8703 14.4057L18.3184 14.777C18.2943 14.7932 18.2628 14.7932 18.2388 14.777L17.6868 14.4057C17.5574 14.3187 17.405 14.2722 17.2491 14.2722H16.991C16.2449 14.2722 15.6393 14.8755 15.6365 15.6215L15.634 16.2631C15.6324 16.6974 15.984 17.0503 16.4182 17.0503H20.1389C20.5732 17.0503 20.9247 16.6974 20.9231 16.2631L20.9207 15.6216Z" fill="white"/>
<path d="M1.27506 5.94541C0.614653 7.11623 0.807246 8.65433 1.19243 11.7305C1.57762 14.8067 1.77021 16.3448 2.69891 17.3166C2.75335 17.3736 2.80939 17.4289 2.86694 17.4826C2.80664 16.6867 2.80665 15.7153 2.80665 14.5222V13.6033C2.80664 12.288 2.80664 11.242 2.88746 10.4037C2.97035 9.54395 3.14413 8.81775 3.54635 8.1728C3.94041 7.54096 4.47376 7.00761 5.1056 6.61356C5.75054 6.21133 6.47675 6.03755 7.33646 5.95466C8.17479 5.87384 9.22077 5.87385 10.5361 5.87385H17.05C18.3653 5.87385 19.4113 5.87384 20.2496 5.95466C20.4837 5.97723 20.7078 6.00653 20.9231 6.04534C20.6991 4.92406 20.4084 4.1764 19.8735 3.61661C19.597 3.32728 19.2793 3.08031 18.9308 2.8837C17.76 2.2233 16.2219 2.41589 13.1457 2.80107L7.59409 3.49622C4.5179 3.8814 2.9798 4.07399 2.00797 5.00269C1.71863 5.27918 1.47167 5.59684 1.27506 5.94541Z" fill="#525282"/>
<path fill-rule="evenodd" clip-rule="evenodd" d="M7.73136 14.0513C7.73136 13.5818 8.11192 13.2013 8.58136 13.2013H10.8544C11.3239 13.2013 11.7044 13.5818 11.7044 14.0513C11.7044 14.5207 11.3239 14.9013 10.8544 14.9013H8.58136C8.11192 14.9013 7.73136 14.5207 7.73136 14.0513Z" fill="#525282"/>
</svg>
