<svg width="30" height="30" viewBox="0 0 30 30" fill="none" xmlns="http://www.w3.org/2000/svg">
<path d="M8.07157 16.9739L13.624 22.4836C14.2041 23.0593 14.2041 23.9926 13.624 24.5683C13.0439 25.1439 12.1033 25.1439 11.5232 24.5683L3.43509 16.5424C3.26798 16.3766 3.149 16.1811 3.07817 15.973C3.02748 15.8245 3 15.6654 3 15.4999C3 15.2438 3.06579 15.003 3.18152 14.7932C3.20433 14.7518 3.2293 14.7113 3.25641 14.6718C3.31324 14.5889 3.37837 14.512 3.4506 14.4424L11.5234 6.43174C12.1035 5.85609 13.0441 5.85609 13.6242 6.43174C14.2043 7.0074 14.2043 7.94072 13.6242 8.51638L8.07202 14.0258H25.5145C26.3349 14.0258 27 14.6858 27 15.4999C27 16.314 26.3349 16.9739 25.5145 16.9739H8.07157Z" fill="#286AD1"/>
</svg>
