<svg width="24" height="24" viewBox="0 0 24 24" fill="none" xmlns="http://www.w3.org/2000/svg">
<path opacity="0.6" d="M21.5215 5.0498C22.5371 5.0498 23.3604 5.87312 23.3604 6.88873V17.8965C23.3604 18.9122 22.5371 19.7355 21.5215 19.7355V5.0498Z" fill="#1187C3"/>
<path fill-rule="evenodd" clip-rule="evenodd" d="M10.0708 2.48576C10.1946 2.40441 10.4498 2.29367 10.7139 2.19263C11.1705 2.01788 11.6529 1.92837 12.1383 1.86976L12.5394 1.82134C14.5522 1.57831 16.5873 1.5831 18.599 1.83559C19.2462 1.91681 19.8859 2.06092 20.4834 2.32244C20.6345 2.3886 20.7599 2.44816 20.8171 2.48576C21.2281 2.75577 21.5795 3.10714 21.8495 3.51819C22.4406 4.41804 22.4406 5.09548 22.4406 7.58923V15.6037C22.4406 18.0975 22.4406 19.3443 21.8495 20.2442C21.5795 20.6552 21.2281 21.0066 20.8171 21.2766C19.9172 21.8677 18.6704 21.8677 16.1766 21.8677H14.7113C12.5571 21.8677 11.3334 21.8677 10.46 21.4867C10.5701 21.3858 10.6761 21.2801 10.7779 21.1697L13.6357 18.0697C14.5677 17.0587 14.5406 15.4938 13.5743 14.5157C12.7013 13.6321 11.322 13.4979 10.295 14.1965L8.44727 15.4536V7.58923C8.44727 5.09548 8.44727 4.41804 9.03836 3.51819C9.30837 3.10714 9.65973 2.75577 10.0708 2.48576ZM10.702 6.79845C10.702 6.0615 10.702 5.69303 10.8679 5.42234C10.9607 5.27088 11.088 5.14354 11.2395 5.05073C11.5102 4.88486 11.8787 4.88486 12.6156 4.88488H18.2723C19.0093 4.88486 19.3777 4.88486 19.6484 5.05073C19.7999 5.14354 19.9272 5.27088 20.02 5.42234C20.1859 5.69303 20.1859 6.0615 20.1859 6.79845V7.62115C20.1859 8.35808 20.1859 8.72655 20.0201 8.99722C19.9272 9.14869 19.7999 9.27603 19.6484 9.36884C19.3778 9.53472 19.0093 9.53472 18.2724 9.53472H12.6156C11.8786 9.53472 11.5102 9.53472 11.2395 9.36884C11.088 9.27603 10.9607 9.14869 10.8679 8.99722C10.702 8.72655 10.702 8.35808 10.702 7.62115V6.79845ZM14.4403 12.3724C14.4403 12.1237 14.6419 11.9221 14.8905 11.9221H15.9975C16.2462 11.9221 16.4477 12.1237 16.4477 12.3724V12.9729C16.4477 13.2215 16.2462 13.4231 15.9975 13.4231H14.8905C14.6419 13.4231 14.4403 13.2215 14.4403 12.9729V12.3724ZM14.4403 15.0726C14.4403 14.8239 14.6419 14.6223 14.8905 14.6223H15.9975C16.2462 14.6223 16.4477 14.8239 16.4477 15.0726V15.6731C16.4477 15.9217 16.2462 16.1233 15.9975 16.1233H14.8905C14.6419 16.1233 14.4403 15.9217 14.4403 15.6731V15.0726ZM14.4403 17.7725C14.4403 17.5238 14.6419 17.3223 14.8905 17.3223H15.9975C16.2462 17.3223 16.4477 17.5238 16.4477 17.7725V18.373C16.4477 18.6217 16.2462 18.8233 15.9975 18.8233H14.8905C14.6419 18.8233 14.4403 18.6217 14.4403 18.373V17.7725ZM17.9691 12.3724C17.9691 12.1237 18.1707 11.9221 18.4193 11.9221H19.5263C19.775 11.9221 19.9766 12.1237 19.9766 12.3724V12.9729C19.9766 13.2215 19.775 13.4231 19.5263 13.4231H18.4193C18.1707 13.4231 17.9691 13.2215 17.9691 12.9729V12.3724ZM17.9691 15.0726C17.9691 14.8239 18.1707 14.6223 18.4193 14.6223H19.5263C19.775 14.6223 19.9766 14.8239 19.9766 15.0726V15.6731C19.9766 15.9217 19.775 16.1233 19.5263 16.1233H18.4193C18.1707 16.1233 17.9691 15.9217 17.9691 15.6731V15.0726ZM17.9691 17.7725C17.9691 17.5238 18.1707 17.3223 18.4193 17.3223H19.5263C19.775 17.3223 19.9766 17.5238 19.9766 17.7725V18.373C19.9766 18.6217 19.775 18.8233 19.5263 18.8233H18.4193C18.1707 18.8233 17.9691 18.6217 17.9691 18.373V17.7725ZM10.8972 12.3724C10.8972 12.1237 11.0987 11.9221 11.3474 11.9221H12.4544C12.703 11.9221 12.9046 12.1237 12.9046 12.3724V12.9729C12.9046 13.2215 12.703 13.4231 12.4544 13.4231H11.3474C11.0987 13.4231 10.8972 13.2215 10.8972 12.9729V12.3724Z" fill="#1187C3"/>
<path d="M3.31393 12.815C4.03948 11.8113 5.20271 11.2168 6.4412 11.2168H6.9469V15.6195C6.9469 16.3982 7.57817 17.0295 8.35689 17.0295C8.63977 17.0295 8.91611 16.9444 9.15 16.7853L11.137 15.4335C11.5673 15.1407 12.1454 15.197 12.5112 15.5672C12.9162 15.9771 12.9275 16.6329 12.5369 17.0566L9.67912 20.1566C9.17988 20.6982 8.53606 21.0855 7.82373 21.2729L3.74543 22.3458C3.05197 22.5283 2.32225 22.2236 1.96434 21.6023L0.388774 18.867C-0.00245437 18.1878 0.041264 17.3422 0.500454 16.707L3.31393 12.815Z" fill="#525282"/>
</svg>
