<svg width="24" height="24" viewBox="0 0 24 24" fill="none" xmlns="http://www.w3.org/2000/svg">
<path d="M7.09991 6.27545C7.10014 8.98146 9.29386 11.175 11.9999 11.175C14.706 11.175 16.8997 8.98148 16.8999 6.27549L12.9831 7.74429C12.3492 7.982 11.6507 7.982 11.0168 7.74429L7.09991 6.27545Z" fill="#30BA8F"/>
<path d="M6.01433 15.92C5.80268 14.9274 5.75632 13.907 5.87418 12.9023L4.46634 13.1535C2.52044 13.5007 1.14199 15.2488 1.2581 17.222L1.43533 20.2337C1.55663 22.2951 3.26367 23.9046 5.32859 23.9046H18.6713C20.7362 23.9046 22.4433 22.2951 22.5646 20.2337L22.7418 17.2209C22.8579 15.2483 21.4804 13.5006 19.5352 13.1527L18.0749 12.8915C18.227 13.9229 18.214 14.9752 18.0379 16.0024C19.0951 16.4509 19.8042 17.5309 19.7255 18.7417L19.654 19.8419C19.6217 20.3379 19.1935 20.7138 18.6975 20.6816C18.2014 20.6493 17.8255 20.2211 17.8577 19.7251L17.9293 18.625C17.9644 18.0854 17.5554 17.6196 17.0159 17.5845C16.4764 17.5494 16.0105 17.9584 15.9754 18.4979L15.9039 19.598C15.8717 20.0941 15.4434 20.47 14.9474 20.4377C14.4514 20.4055 14.0754 19.9773 14.1077 19.4812L14.1792 18.3811C14.2585 17.1616 15.113 16.1772 16.2311 15.8769C16.4448 14.7791 16.4292 13.6421 16.1816 12.5529L15.6078 12.4502C15.0685 12.3538 14.5138 12.4948 14.0861 12.8371L12.0001 14.5065L9.91793 12.8395C9.49038 12.4972 8.93591 12.3561 8.39673 12.4523L7.74602 12.5684C7.55399 13.566 7.56632 14.5951 7.78402 15.5875C9.12977 15.781 10.164 16.9387 10.164 18.338C10.164 19.8728 8.91979 21.117 7.385 21.117C5.85021 21.117 4.60602 19.8728 4.60602 18.338C4.60602 17.3016 5.17332 16.3978 6.01433 15.92Z" fill="#30BA8F"/>
<path d="M6.40602 18.338C6.40602 17.7973 6.84432 17.359 7.385 17.359C7.92568 17.359 8.36399 17.7973 8.36399 18.338C8.36399 18.8787 7.92568 19.317 7.385 19.317C6.84432 19.317 6.40602 18.8787 6.40602 18.338Z" fill="#30BA8F"/>
<path d="M12.3511 0.131664C12.1247 0.0467695 11.8752 0.0467696 11.6488 0.131664L4.99436 2.62709C4.56178 2.78931 4.56178 3.4012 4.99436 3.56342L11.6488 6.05885C11.8752 6.14374 12.1247 6.14374 12.3511 6.05885L18.4533 3.76516V7.02344C18.4533 7.52049 18.8563 7.92344 19.3533 7.92344C19.8504 7.92344 20.2533 7.52049 20.2533 7.02344L20.2502 3.36692C20.25 3.20024 20.1466 3.05113 19.9905 2.99267L12.3511 0.131664Z" fill="#525282"/>
</svg>
