<svg width="24" height="24" viewBox="0 0 24 24" fill="none" xmlns="http://www.w3.org/2000/svg">
<path d="M10.6618 10.9534C10.641 11.0213 10.5359 11.1279 10.3465 11.2732C10.1364 11.4336 9.90838 11.5693 9.66707 11.6774C9.41399 11.8002 9.13761 11.8676 8.85641 11.8751C8.75047 11.8773 8.64554 11.8543 8.55022 11.808C8.4549 11.7617 8.37193 11.6935 8.30811 11.6089C8.17938 11.4417 8.11623 11.2332 8.13054 11.0226C8.13793 10.7537 8.20276 10.4895 8.32066 10.2477C8.38149 10.1278 8.4237 10.0678 8.44728 10.0678C8.45298 10.0678 8.45602 10.0751 8.45602 10.0857C8.4453 10.1525 8.42276 10.2169 8.38948 10.2758C8.28857 10.4752 8.23756 10.6961 8.24081 10.9196C8.24145 11.0028 8.25857 11.0852 8.2912 11.1618C8.32383 11.2384 8.37133 11.3078 8.43093 11.3659C8.48821 11.4249 8.55697 11.4715 8.63297 11.5028C8.70896 11.5341 8.79058 11.5495 8.87276 11.5481C9.15876 11.5417 9.44079 11.4799 9.70319 11.3659C9.92923 11.276 10.1439 11.1597 10.3427 11.0196C10.5174 10.8981 10.5966 10.8263 10.5804 10.804C10.5538 10.7654 10.4561 10.7307 10.2872 10.6998C10.1409 10.6764 9.99678 10.6408 9.85642 10.5933C9.70839 10.5327 9.63437 10.4462 9.63437 10.3336C9.64889 10.0017 9.783 9.68619 10.0119 9.44539C10.1939 9.23068 10.3545 9.12333 10.4937 9.12333C10.6078 9.12333 10.6648 9.20622 10.6648 9.372C10.6648 9.49874 10.6293 9.56212 10.5583 9.56212C10.5526 9.56212 10.5427 9.53969 10.5294 9.49444C10.5161 9.44919 10.4792 9.42675 10.4184 9.42675C10.3015 9.42675 10.1621 9.526 10.0002 9.72448C9.88095 9.84194 9.79445 9.98846 9.7492 10.1496C9.74906 10.1534 9.74984 10.1572 9.75148 10.1606C9.84696 10.265 9.97706 10.3312 10.1176 10.3469C10.2788 10.3777 10.4382 10.417 10.5952 10.4648C10.6692 10.496 10.7062 10.572 10.7062 10.6929C10.704 10.7814 10.689 10.8692 10.6618 10.9534Z" fill="#045453"/>
<path d="M10.8706 12.0831C10.8824 12.0359 10.8891 11.9876 10.8907 11.939C10.8909 11.9011 10.8819 11.8637 10.8644 11.8301C10.847 11.7965 10.8217 11.7675 10.7907 11.7458C10.7174 11.6923 10.6281 11.6655 10.5375 11.6698C10.2468 11.6923 9.97357 11.8175 9.76673 12.023C9.54468 12.2423 9.32186 12.4614 9.09828 12.6804C8.93697 12.8699 8.7135 12.9958 8.46786 13.0356C8.34998 13.0356 8.28661 12.9548 8.27774 12.7933C8.2839 12.5082 8.3624 12.2292 8.50588 11.9827C8.52177 11.9569 8.53237 11.9282 8.53705 11.8983C8.53705 11.888 8.53364 11.8827 8.52603 11.8827C8.50068 11.8827 8.47698 11.9027 8.45492 11.9428C8.29211 12.2084 8.1996 12.511 8.1861 12.8222C8.18512 12.8821 8.19601 12.9416 8.21814 12.9973C8.24026 13.053 8.27318 13.1037 8.315 13.1466C8.35419 13.1898 8.40222 13.224 8.45582 13.247C8.50943 13.2699 8.56735 13.2811 8.62565 13.2797C8.82422 13.2368 9.00168 13.1262 9.12756 12.9667C9.51236 12.5817 9.75875 12.3456 9.86674 12.2584C10.0258 12.1059 10.2315 12.0113 10.4508 11.9895C10.516 11.9819 10.5821 11.9928 10.6415 12.0211C10.7008 12.0493 10.7509 12.0937 10.7861 12.1492C10.7965 12.1746 10.8077 12.1873 10.8196 12.1873C10.8373 12.1875 10.8543 12.1528 10.8706 12.0831Z" fill="#045453"/>
<path fill-rule="evenodd" clip-rule="evenodd" d="M15.7767 9.93132C15.6552 9.93132 15.6639 9.99775 15.6758 10.0875C15.6827 10.1399 15.6906 10.2002 15.6744 10.2598C15.6364 10.3994 15.4253 10.3819 15.404 10.0697C15.4038 10.0625 15.4012 10.0556 15.3966 10.05C15.392 10.0444 15.3857 10.0405 15.3787 10.0388C15.3717 10.0371 15.3643 10.0378 15.3577 10.0407C15.3511 10.0436 15.3456 10.0486 15.3421 10.0549C15.0417 10.5572 14.744 10.6028 14.528 10.0572C14.5251 10.0491 14.5207 10.0417 14.5149 10.0354C14.5091 10.0291 14.502 10.024 14.4942 10.0204C14.4864 10.0169 14.478 10.0149 14.4694 10.0147C14.4608 10.0145 14.4523 10.016 14.4443 10.0192C14.2038 10.119 14.0787 10.4511 14.007 10.6412C13.9853 10.6987 13.9686 10.7432 13.955 10.7644C13.6683 10.8865 13.2614 11.1732 13.4181 11.6044C13.172 11.6556 12.945 11.774 12.7622 11.9466C12.5401 12.1656 12.3173 12.3847 12.0937 12.604C12.0749 12.6261 12.0552 12.6474 12.0347 12.6678C12.0248 12.4672 12.012 12.2382 11.9964 11.9808L11.9959 11.9722C12.121 11.9073 12.2392 11.8292 12.3485 11.739C12.5571 11.6079 12.7573 11.4641 12.9481 11.3082C12.9863 11.2765 13.0192 11.239 13.0458 11.1971C13.0754 11.1324 13.0949 11.0636 13.1036 10.9929C13.1096 10.957 13.1127 10.9206 13.1127 10.8842C13.12 10.8147 13.1095 10.7444 13.0823 10.68C13.0551 10.6156 13.0121 10.5591 12.9572 10.5157C12.8227 10.4348 12.683 10.3629 12.539 10.3005C12.3673 10.2245 12.2097 10.1202 12.0728 9.99179C12.1765 9.99787 12.2372 9.99128 12.2549 9.97201C12.2671 9.95731 12.2478 9.93513 12.1971 9.90547C12.1865 9.89939 12.1747 9.89368 12.1614 9.8876L11.8393 9.7355C11.814 9.72232 11.7984 9.71865 11.7926 9.72448C11.7874 9.73553 11.7852 9.7477 11.7861 9.75984V9.94996C11.7861 9.99888 11.7979 10.0299 11.8215 10.0431C11.8518 10.0597 11.8795 10.0807 11.9036 10.1055C12.0057 10.2463 12.1311 10.3687 12.2743 10.4675C12.3893 10.5406 12.5095 10.6052 12.634 10.6606C12.7467 10.7114 12.8545 10.7724 12.9561 10.8427C13.0108 10.8828 13.0382 10.9169 13.0382 10.945C13.0369 10.957 13.033 10.9686 13.0268 10.9789C13.0206 10.9893 13.0123 10.9982 13.0025 11.0051C12.8057 11.1595 12.6003 11.3025 12.3872 11.4336C12.2613 11.5325 12.1243 11.6158 11.9795 11.6819C11.9624 11.3657 11.9561 11.1916 11.9607 11.1595C11.9945 11.2003 12.0313 11.2384 12.071 11.2735C12.0788 11.2809 12.0883 11.2861 12.0987 11.2888C12.1075 11.2895 12.1132 11.2838 12.1132 11.272C12.0982 11.1721 12.0687 11.0749 12.0257 10.9834C11.9889 10.8838 11.9509 10.7833 11.9116 10.6819C11.8893 10.6155 11.8708 10.5823 11.8561 10.5823C11.85 10.5819 11.8451 10.5868 11.8417 10.5971C11.7972 10.6839 11.7668 10.7772 11.7516 10.8735C11.7713 10.9173 11.7884 10.9623 11.8025 11.0081C11.8109 11.3024 11.8157 11.5275 11.817 11.6834L11.8197 11.7467C11.7443 11.7736 11.6672 11.7961 11.5887 11.8139C11.5296 11.8156 11.4721 11.794 11.4287 11.7538C11.4012 11.7291 11.3797 11.6984 11.3659 11.6642C11.352 11.6299 11.3462 11.5929 11.3488 11.5561C11.3571 11.4158 11.3801 11.2769 11.4174 11.1416C11.4272 11.132 11.4398 11.1149 11.4553 11.0914C11.5352 10.9284 11.577 10.7494 11.5774 10.5678C11.5812 10.4984 11.5831 10.4265 11.5831 10.3522C11.5775 10.0602 11.5563 9.6132 11.5196 9.01116C11.4899 8.50469 11.478 8.23092 11.4838 8.18985C11.5176 8.23062 11.5545 8.26875 11.5941 8.30393C11.6019 8.31122 11.6115 8.31644 11.6218 8.31913C11.6306 8.31989 11.6363 8.31419 11.6363 8.3024C11.6213 8.20246 11.5919 8.10524 11.5488 8.01381C11.5118 7.91419 11.4738 7.81368 11.4348 7.71228C11.4125 7.64587 11.394 7.61266 11.3793 7.61266C11.3732 7.61228 11.3682 7.61722 11.3648 7.62749C11.3203 7.71425 11.2898 7.80757 11.2747 7.90392C11.2945 7.94765 11.3116 7.99261 11.3256 8.03852C11.334 8.33282 11.3388 8.55792 11.3401 8.71381C11.3766 9.56807 11.4075 10.2081 11.4329 10.634C11.4378 10.7593 11.4286 10.8849 11.4055 11.0081C11.4008 11.0324 11.3972 11.0536 11.3947 11.0717C11.3167 11.2706 11.2754 11.4821 11.2732 11.696C11.2732 11.8459 11.3028 11.9566 11.362 12.0283C11.254 12.2521 11.1924 12.4962 11.1816 12.7458C11.1806 12.8057 11.1915 12.8652 11.2136 12.9209C11.2357 12.9765 11.2686 13.0273 11.3105 13.0702C11.3497 13.1134 11.3978 13.1477 11.4514 13.1706C11.5051 13.1936 11.5631 13.2047 11.6215 13.2032C11.714 13.1833 11.802 13.1486 11.8823 13.1011C11.8921 13.2928 11.9012 13.4604 11.9097 13.6036C11.9134 13.6988 11.909 13.7941 11.8964 13.8884C11.8831 13.8983 11.8703 13.9144 11.858 13.9367C11.6952 14.2022 11.6027 14.5047 11.5891 14.8158C11.5881 14.8757 11.599 14.9352 11.6211 14.9909C11.6433 15.0465 11.6762 15.0973 11.718 15.1402C11.7572 15.1834 11.8052 15.2176 11.8588 15.2406C11.9125 15.2635 11.9704 15.2747 12.0287 15.2732C12.2273 15.2304 12.4047 15.1197 12.5306 14.9603C12.9154 14.5755 13.1618 14.3394 13.2698 14.2519C13.3892 14.1487 13.5264 14.0682 13.6747 14.0143C13.952 13.9994 14.2301 14.015 14.504 14.061C14.657 14.0913 14.8157 14.062 14.9477 13.979C15.0797 13.896 15.1749 13.7656 15.2139 13.6146C15.2953 13.3187 15.1091 13.2206 14.9166 13.1191C14.8815 13.1007 14.8463 13.0821 14.8124 13.0622C14.5128 12.8857 14.4207 12.6865 14.7143 12.4918C14.7507 12.4677 14.7918 12.4516 14.8348 12.4447C14.8779 12.4377 14.922 12.4401 14.9641 12.4515L14.976 12.455C15.0628 12.4805 15.0949 12.4899 15.0949 12.3025C15.0976 12.2712 15.0929 12.2397 15.0812 12.2105C15.0695 12.1814 15.0511 12.1554 15.0274 12.1347C15.0038 12.1139 14.9757 12.0991 14.9453 12.0912C14.9148 12.0834 14.883 12.0828 14.8523 12.0895C14.6117 12.1894 14.4866 12.5215 14.415 12.7116C14.3933 12.769 14.3765 12.8136 14.3629 12.8348C14.0762 12.9568 13.6694 13.2435 13.8257 13.6747C13.5796 13.7259 13.3525 13.8444 13.1698 14.0169C12.9477 14.236 12.7249 14.455 12.5013 14.674C12.34 14.8634 12.1165 14.9893 11.8709 15.0291C11.7525 15.0291 11.6891 14.9485 11.6808 14.7873C11.6864 14.5285 11.7516 14.2748 11.8708 14.0458C11.8645 14.0955 11.8672 14.1204 11.8789 14.1204C11.8888 14.1211 11.9064 14.1016 11.9318 14.0618C12.0117 13.8988 12.0535 13.7198 12.0538 13.5382C12.0576 13.4688 12.0595 13.3969 12.0595 13.3226C12.0577 13.2241 12.054 13.1077 12.0486 12.9735C12.0751 12.9475 12.1001 12.9197 12.1234 12.8903C12.5082 12.5055 12.7547 12.2694 12.8629 12.1819C12.9823 12.0787 13.1196 11.9982 13.2679 11.9443C13.5452 11.9295 13.8233 11.9454 14.0972 11.9914C14.2505 12.0223 14.4099 11.9932 14.5424 11.9101C14.6749 11.827 14.7705 11.6962 14.8094 11.5447C14.8907 11.2487 14.7046 11.1506 14.512 11.0491L14.5116 11.0489C14.4767 11.0305 14.4416 11.012 14.4078 10.9922C14.0759 10.7967 13.9991 10.5739 14.4185 10.361C14.5409 10.877 14.8885 10.9458 15.2348 10.5667C15.2366 10.5647 15.2387 10.5632 15.2412 10.5622C15.2436 10.5613 15.2462 10.5608 15.2488 10.561C15.2514 10.5612 15.2539 10.562 15.2562 10.5633C15.2585 10.5646 15.2604 10.5664 15.2618 10.5686C15.5143 10.9325 16.0748 10.4754 15.7767 9.93132ZM11.5994 12.1268C11.6789 12.1052 11.7569 12.0788 11.8328 12.0477C11.845 12.326 11.8566 12.5777 11.8675 12.8029C11.746 12.882 11.6085 12.9356 11.4633 12.9591C11.3449 12.9591 11.2815 12.8784 11.2732 12.7169C11.278 12.4957 11.3263 12.2782 11.4147 12.0766C11.4636 12.1101 11.5252 12.1268 11.5994 12.1268ZM13.866 11.1139C13.7101 11.1139 13.3573 11.5914 13.6827 11.5914C13.9257 11.5914 14.0554 11.1139 13.866 11.1139ZM14.1436 11.2599C14.3523 11.2926 14.6519 11.4466 14.6519 11.5283C14.6519 11.6101 14.2421 11.7922 13.9295 11.65C14.0259 11.5355 14.0987 11.4027 14.1436 11.2599ZM14.274 13.1835C14.1181 13.1835 13.7652 13.661 14.0907 13.661V13.6603C14.3337 13.6603 14.4629 13.1827 14.274 13.1835ZM15.0599 13.5979C15.0599 13.5162 14.7603 13.3622 14.5515 13.3295L14.5512 13.3291C14.5065 13.4721 14.4338 13.6049 14.3375 13.7196C14.65 13.8618 15.0599 13.6797 15.0599 13.5979Z" fill="#045453"/>
<path d="M14.5086 9.29785C14.5283 9.25633 14.5411 9.2119 14.5466 9.16629C14.5497 9.13207 14.5204 9.09202 14.4588 9.04614C14.385 8.99753 14.3176 8.93992 14.258 8.87465C14.2066 8.95988 14.1616 9.04885 14.1234 9.14081C14.1211 9.16616 14.1694 9.2142 14.2683 9.28492C14.3168 9.32436 14.3697 9.35792 14.4261 9.38492C14.4531 9.38758 14.4805 9.35831 14.5086 9.29785Z" fill="#045453"/>
<path d="M9.96214 13.8071C9.95663 13.8527 9.94379 13.8971 9.92411 13.9386C9.89598 13.9991 9.8686 14.0283 9.84161 14.0257C9.78526 13.9987 9.73229 13.9651 9.6838 13.9257C9.58494 13.855 9.53666 13.8069 9.53894 13.7816C9.57711 13.6896 9.62211 13.6007 9.67354 13.5154C9.73312 13.5807 9.80055 13.6383 9.8743 13.6869C9.9359 13.7328 9.96518 13.7728 9.96214 13.8071Z" fill="#045453"/>
<path d="M14.5531 8.97314C14.62 8.90293 14.6609 8.81198 14.6691 8.71534C14.6718 8.68568 14.6361 8.65006 14.5618 8.60849C14.4876 8.56708 14.4172 8.51911 14.3516 8.46515C14.2811 8.64842 14.2459 8.73714 14.2459 8.73131C14.2436 8.75818 14.2628 8.78619 14.3037 8.81534C14.3876 8.86807 14.4707 8.92066 14.5531 8.97314Z" fill="#045453"/>
<path d="M14.9588 9.08037C14.9505 9.12198 14.937 9.16236 14.9185 9.20052C14.8979 9.25345 14.8675 9.30197 14.8287 9.34348C14.772 9.3052 14.7153 9.26719 14.6588 9.22942C14.5827 9.17416 14.5457 9.13474 14.5477 9.11116C14.5621 9.0692 14.5801 9.0286 14.6017 8.98987C14.6403 8.91382 14.6669 8.8758 14.6816 8.8758C14.8687 8.98023 14.9611 9.04843 14.9588 9.08037Z" fill="#045453"/>
<path d="M13.2435 13.0253C13.2632 12.9838 13.2761 12.9393 13.2816 12.8937C13.2841 12.8585 13.2548 12.8184 13.1937 12.7736C13.12 12.725 13.0525 12.6674 12.993 12.6021C12.9415 12.6873 12.8965 12.7763 12.8584 12.8683C12.8561 12.8936 12.9044 12.9416 13.0032 13.0124C13.0517 13.0518 13.1047 13.0854 13.161 13.1124C13.1879 13.1149 13.2154 13.0859 13.2435 13.0253Z" fill="#045453"/>
<path d="M13.6926 12.8048C13.6844 12.8464 13.6709 12.8868 13.6523 12.9249C13.6318 12.9778 13.6013 13.0263 13.5626 13.0679C13.5058 13.0296 13.4491 12.9916 13.3926 12.9538C13.3166 12.8988 13.2796 12.8594 13.2816 12.8356C13.2959 12.7936 13.314 12.753 13.3356 12.7143C13.3741 12.6382 13.4009 12.6002 13.4158 12.6002C13.6031 12.7046 13.6954 12.7728 13.6926 12.8048Z" fill="#045453"/>
<path d="M11.3246 13.9591C11.3245 13.9237 11.3224 13.8883 11.3181 13.8531C11.2937 13.7339 11.2528 13.6187 11.1964 13.5108C11.1219 13.3534 11.0839 13.2718 11.0824 13.266C11.1091 13.2722 11.1366 13.2751 11.1641 13.2747C11.175 13.2769 11.1861 13.2784 11.1972 13.2793C11.2075 13.2793 11.2128 13.2755 11.2128 13.2683C11.1515 13.1843 11.0844 13.1048 11.012 13.0302C10.9606 12.9729 10.9341 12.9443 10.9325 12.9443C10.9249 12.9443 10.92 12.9496 10.917 12.9599C10.9026 13.0571 10.8805 13.153 10.8508 13.2466C10.8594 13.2565 10.8691 13.2654 10.8797 13.2732C10.9223 13.4015 10.9583 13.5036 10.9877 13.5797C11.0259 13.6771 11.0701 13.7721 11.12 13.8641C11.1596 13.926 11.1894 13.9938 11.2082 14.0648C11.2083 14.0704 11.2067 14.0758 11.2036 14.0804C10.9989 14.3333 10.7404 14.5375 10.447 14.6782C10.1424 14.8792 9.79315 15.0026 9.42986 15.0375C8.86204 15.0375 8.57813 14.7742 8.57813 14.2477C8.5784 14.1484 8.5895 14.0493 8.61122 13.9523C8.62545 13.9066 8.62767 13.858 8.61768 13.8112C8.60741 13.7861 8.59334 13.7907 8.57585 13.8287C8.56179 13.8591 8.55146 13.891 8.54506 13.9238C8.51547 14.0578 8.50067 14.1946 8.50095 14.3318C8.49011 14.5783 8.55058 14.8226 8.6751 15.0356C8.74172 15.1425 8.83582 15.2296 8.94758 15.2878C9.05933 15.346 9.18465 15.3731 9.31047 15.3664C9.70581 15.3495 10.0895 15.2277 10.4223 15.0135C10.7322 14.8442 11.0046 14.6138 11.223 14.3363C11.2867 14.2206 11.3215 14.0912 11.3246 13.9591Z" fill="#045453"/>
<path fill-rule="evenodd" clip-rule="evenodd" d="M11.9972 3.19476C11.7619 2.70425 11.2087 2.06233 9.95184 2.25745C9.55817 1.41234 8.50941 1.3875 8.02725 1.37609L8.02634 1.37607H8.02406C7.9045 1.37268 7.78799 1.33754 7.68649 1.27426C7.585 1.21099 7.50216 1.12184 7.44649 1.01598C7.48221 1.13007 7.48695 1.25161 7.46023 1.36814C7.4335 1.48467 7.37626 1.59199 7.29439 1.67911L7.29281 1.68078C6.95939 2.03134 6.23709 2.79078 6.55636 3.66393C5.52649 4.4173 5.59304 5.26558 5.77443 5.77832C5.2612 5.59647 4.41465 5.53298 3.66241 6.56131C2.78612 6.24159 2.02652 6.9664 1.67776 7.29918C1.59064 7.38106 1.48315 7.43846 1.36662 7.46518C1.25009 7.49191 1.12855 7.48717 1.01446 7.45144C1.12032 7.50712 1.20946 7.58995 1.27274 7.69145C1.33602 7.79295 1.37116 7.90946 1.37454 8.02902V8.0313C1.38557 8.51191 1.41028 9.56326 2.25593 9.9568C2.06063 11.2145 2.7043 11.7676 3.19473 12.0028C2.70422 12.238 2.06233 12.7913 2.25744 14.0481C1.41233 14.4418 1.3875 15.4906 1.37608 15.9727L1.37606 15.9736V15.9759C1.37271 16.0955 1.33759 16.212 1.27431 16.3135C1.21103 16.415 1.12186 16.4978 1.01598 16.5535C1.13007 16.5178 1.25161 16.513 1.36814 16.5397C1.48466 16.5665 1.59199 16.6237 1.67911 16.7056L1.68078 16.7072C2.03134 17.0406 2.79078 17.7629 3.66393 17.4436C4.4173 18.4731 5.2656 18.4069 5.77833 18.2255C5.59647 18.7388 5.53297 19.5853 6.56132 20.3376C6.24159 21.2139 6.9664 21.9735 7.29918 22.3222C7.38106 22.4093 7.43846 22.5168 7.46519 22.6334C7.49191 22.7499 7.48717 22.8714 7.45145 22.9855C7.50712 22.8797 7.58996 22.7905 7.69145 22.7272C7.79295 22.664 7.90946 22.6288 8.02902 22.6254H8.0313C8.51192 22.6144 9.56326 22.5897 9.9568 21.7441C11.2145 21.9394 11.7676 21.2957 12.0028 20.8053C12.238 21.2958 12.7913 21.9377 14.0481 21.7425C14.4418 22.5877 15.4906 22.6125 15.9727 22.6239L15.9736 22.6239H15.9759C16.0955 22.6273 16.212 22.6624 16.3135 22.7257C16.415 22.789 16.4978 22.8781 16.5535 22.984C16.5178 22.8699 16.513 22.7484 16.5397 22.6318C16.5665 22.5153 16.6237 22.408 16.7056 22.3209L16.7072 22.3192C17.0406 21.9686 17.7629 21.2092 17.4436 20.3361C18.4732 19.5827 18.4069 18.7344 18.2255 18.2216C18.7387 18.4035 19.5853 18.4671 20.3376 17.4387C21.2139 17.7584 21.9735 17.0336 22.3223 16.7008C22.4094 16.6189 22.5169 16.5615 22.6334 16.5348C22.7499 16.5081 22.8715 16.5128 22.9856 16.5485C22.8797 16.4929 22.7906 16.41 22.7273 16.3085C22.664 16.207 22.6289 16.0905 22.6255 15.971V15.9687C22.6145 15.4881 22.5897 14.4367 21.7441 14.0432C21.9394 12.7854 21.2957 12.2324 20.8053 11.9972C21.2958 11.7619 21.9377 11.2087 21.7426 9.95186C22.5877 9.55818 22.6125 8.50942 22.6239 8.02726L22.624 8.02636V8.02408C22.6274 7.90452 22.6625 7.78801 22.7258 7.68651C22.789 7.58501 22.8782 7.50218 22.984 7.4465C22.87 7.48223 22.7484 7.48697 22.6319 7.46024C22.5154 7.43352 22.408 7.37628 22.3209 7.29441L22.3193 7.29282C21.9687 6.95941 21.2093 6.2371 20.3361 6.55637C19.5827 5.52647 18.7344 5.59306 18.2217 5.77447C18.4035 5.26123 18.467 4.41467 17.4387 3.66242C17.7584 2.78613 17.0336 2.02653 16.7008 1.67778C16.6189 1.59066 16.5615 1.48315 16.5348 1.36662C16.5081 1.2501 16.5128 1.12856 16.5486 1.01447C16.4929 1.12035 16.4101 1.20952 16.3086 1.2728C16.2071 1.33608 16.0905 1.3712 15.971 1.37455H15.9687C15.4881 1.38557 14.4367 1.41029 14.0432 2.25593C12.7854 2.06063 12.2324 2.70433 11.9972 3.19476ZM13.0417 5.82671C13.7607 6.37196 14.0249 7.1119 13.8021 7.64955C14.0249 7.11152 14.7348 6.77539 15.6223 6.89593L15.6626 6.90145C16.087 6.95974 16.6168 7.0325 17.1013 6.8965C16.9667 7.38001 17.0391 7.90851 17.097 8.33188L17.1026 8.37275C17.225 9.26516 16.8881 9.97506 16.3505 10.1979C16.8885 9.97506 17.6281 10.2393 18.1718 10.9534L18.1968 10.9864C18.4552 11.3269 18.7775 11.7514 19.2144 11.998C18.7773 12.2449 18.4551 12.6699 18.1968 13.0107L18.1733 13.0416C17.6281 13.7607 16.8881 14.0249 16.3505 13.8021C16.8885 14.0249 17.2246 14.7348 17.1041 15.6223L17.0986 15.6625C17.0403 16.087 16.9675 16.6168 17.1035 17.1013C16.62 16.9667 16.0915 17.039 15.6681 17.097L15.6272 17.1025C14.7348 17.225 14.0249 16.8881 13.8021 16.3504C14.0249 16.8885 13.7607 17.628 13.0466 18.1718L13.0136 18.1968C12.6731 18.4552 12.2485 18.7774 12.002 19.2144C11.755 18.7773 11.3301 18.4551 10.9892 18.1967L10.9583 18.1733C10.2393 17.628 9.97506 16.8881 10.1979 16.3504C9.97506 16.8885 9.26516 17.2246 8.37769 17.1041L8.33743 17.0985C7.913 17.0403 7.38317 16.9675 6.89868 17.1035C7.03331 16.62 6.96097 16.0915 6.90303 15.6681L6.89744 15.6272C6.775 14.7348 7.11189 14.0249 7.64954 13.8021C7.11151 14.0249 6.37196 13.7607 5.82822 13.0466L5.80319 13.0136C5.54477 12.6731 5.22256 12.2485 4.78561 12.002C5.22269 11.755 5.54489 11.3301 5.80327 10.9892L5.8267 10.9583C6.37196 10.2393 7.1119 9.97505 7.64955 10.1979C7.11152 9.97505 6.77539 9.26516 6.89592 8.37769L6.90144 8.33744C6.95973 7.91301 7.03249 7.38318 6.89651 6.89869C7.38001 7.03331 7.9085 6.96098 8.33187 6.90303L8.37273 6.89744C9.26514 6.77501 9.97504 7.1119 10.1979 7.64955C9.97504 7.11152 10.2393 6.37196 10.9534 5.82823L10.9864 5.80319C11.3269 5.54477 11.7514 5.22255 11.998 4.78559C12.2449 5.22268 12.6699 5.54488 13.0108 5.80327L13.0417 5.82671ZM15.7466 6.09933C15.306 6.02379 14.8544 6.04258 14.4215 6.15447C14.1945 5.76907 13.8879 5.43625 13.5226 5.17803C12.801 4.64342 12.407 4.30691 12.6979 3.60462C13.0299 2.80575 13.8938 3.03047 14.2189 3.11526L14.5542 3.18902L14.7177 2.79396C14.9284 2.28559 15.2485 2.19813 15.9896 2.18102L16.0683 2.17912L16.1227 2.23616C16.6345 2.77229 16.7991 3.06051 16.5885 3.56888L16.425 3.96394L16.714 4.14912C17.0037 4.31908 17.7733 4.77118 17.4425 5.56967C17.1516 6.27196 16.6349 6.23128 15.7466 6.09933ZM9.57851 6.15438C9.80545 5.76919 10.1115 5.43654 10.4766 5.17841C11.199 4.6438 11.5918 4.30691 11.3013 3.605C10.9705 2.80651 10.1066 3.03084 9.78036 3.11564L9.44499 3.1894L9.28149 2.79434C9.07084 2.28596 8.74916 2.19851 8.00961 2.1814L7.9309 2.1795L7.87653 2.23654C7.36474 2.77267 7.20009 3.06088 7.41074 3.56926L7.57424 3.96432L7.28526 4.14949C6.99553 4.31946 6.22593 4.77156 6.55673 5.57005C6.84761 6.27234 7.36435 6.23165 8.25258 6.09971C8.69345 6.02389 9.14538 6.04253 9.57851 6.15438ZM6.09933 8.25335C6.02378 8.69399 6.04257 9.14564 6.15446 9.57847C5.76906 9.80549 5.43625 10.1121 5.17803 10.4773C4.64342 11.199 4.30691 11.593 3.60462 11.3021C2.80575 10.9701 3.03046 10.1062 3.11525 9.78114L3.18902 9.44577L2.79396 9.28226C2.28558 9.07162 2.19813 8.75146 2.18102 8.01038C2.17912 7.98302 2.17912 7.95679 2.17912 7.93171L2.23615 7.8773C2.77228 7.36551 3.0605 7.20087 3.56887 7.41151L3.96394 7.57502L4.14911 7.28604C4.31908 6.9963 4.77117 6.2267 5.56967 6.55751C6.27196 6.84839 6.23127 7.36513 6.09933 8.25335ZM5.1784 13.5234C5.43654 13.8884 5.76919 14.1945 6.15438 14.4215C6.04252 14.8546 6.02389 15.3065 6.09971 15.7474C6.23165 16.6356 6.27234 17.1524 5.57004 17.4432C4.77155 17.774 4.31945 17.0044 4.14949 16.7147L3.96432 16.4257L3.56925 16.5892C3.06088 16.7999 2.77266 16.6352 2.23653 16.1234L2.1795 16.0691C2.1814 16.044 2.1814 16.0178 2.1814 15.9904C2.19851 15.2508 2.28596 14.9291 2.79433 14.7185L3.1894 14.555L3.11563 14.2196C3.03084 13.8934 2.8065 13.0295 3.60499 12.6987C4.30691 12.4078 4.64379 12.801 5.1784 13.5234ZM8.25373 17.9007C8.69437 17.9762 9.14602 17.9574 9.57885 17.8455C9.80619 18.2303 10.1126 18.5624 10.4777 18.8201C11.1994 19.3547 11.5933 19.6912 11.3025 20.3935C10.9705 21.1923 10.1066 20.9676 9.78152 20.8828L9.44615 20.8091L9.28265 21.2041C9.072 21.7125 8.75184 21.8 8.01077 21.8171L7.93206 21.819L7.87768 21.7619C7.36589 21.2277 7.20125 20.9395 7.4119 20.4311L7.5754 20.0361L7.28642 19.8509C6.99668 19.6809 6.22709 19.2288 6.55789 18.4303C6.84877 17.728 7.36551 17.7687 8.25373 17.9007ZM13.5234 18.8212C13.8884 18.5632 14.1945 18.2307 14.4215 17.8456C14.8545 17.958 15.3064 17.9771 15.7474 17.9018C16.6356 17.7699 17.1523 17.7292 17.4432 18.4315C17.774 19.23 17.0044 19.682 16.7147 19.852L16.4257 20.0372L16.5892 20.4323C16.7999 20.9387 16.6352 21.2269 16.1234 21.7631L16.0691 21.8201L15.9903 21.8182C15.2508 21.8011 14.9291 21.7136 14.7185 21.2053L14.555 20.8102L14.2196 20.884C13.8934 20.9688 13.0295 21.1931 12.6987 20.3946C12.4078 19.6927 12.801 19.3558 13.5234 18.8212ZM17.9007 15.7466C17.9762 15.306 17.9575 14.8543 17.8456 14.4215C18.2303 14.1943 18.5624 13.8877 18.8201 13.5226C19.3547 12.801 19.6912 12.407 20.3935 12.6979C21.1924 13.0299 20.9677 13.8937 20.8829 14.2188L20.8091 14.5542L21.2042 14.7177C21.7125 14.9284 21.8 15.2485 21.8171 15.9896C21.819 16.017 21.819 16.0432 21.819 16.0683L21.762 16.1227C21.2277 16.6345 20.9395 16.7991 20.4312 16.5885L20.0361 16.425L19.8509 16.7139C19.681 17.0037 19.2289 17.7733 18.4304 17.4425C17.7281 17.1516 17.7688 16.6348 17.9007 15.7466ZM18.8212 10.4766C18.5632 10.1116 18.2307 9.8055 17.8456 9.57852C17.958 9.14551 17.9772 8.69357 17.9018 8.2526C17.7699 7.36437 17.7292 6.84763 18.4315 6.55675C19.23 6.22595 19.6821 6.99554 19.8521 7.28528L20.0372 7.57426L20.4323 7.41076C20.9388 7.20011 21.227 7.36475 21.7631 7.87655L21.8201 7.93092C21.8182 7.95601 21.8182 7.98225 21.8182 8.00963C21.8011 8.74918 21.7137 9.07086 21.2053 9.28151L20.8102 9.44501L20.884 9.78038C20.9688 10.1066 21.1931 10.9705 20.3947 11.3013C19.6927 11.5918 19.3559 11.199 18.8212 10.4766Z" fill="#045453"/>
</svg>
