<svg width="24" height="24" viewBox="0 0 24 24" fill="none" xmlns="http://www.w3.org/2000/svg">
<path fill-rule="evenodd" clip-rule="evenodd" d="M3.65512 5.70398C3.18438 5.8306 2.83789 6.2604 2.83789 6.77113V8.01014C2.83789 8.13442 2.85841 8.2539 2.89624 8.3654C2.9718 8.58808 3.11644 8.77888 3.30463 8.91227C3.40247 8.98162 3.51208 9.03545 3.62988 9.07018V10.0155C3.51208 10.0503 3.40247 10.1041 3.30463 10.1734C3.11644 10.3068 2.9718 10.4976 2.89624 10.7203C2.85841 10.8318 2.83789 10.9513 2.83789 11.0756V12.3146C2.83789 12.8161 3.17205 13.2396 3.62988 13.3746V16.2096C3.62988 18.7298 3.62988 19.9899 4.12035 20.9525C4.55178 21.7993 5.2402 22.4877 6.08693 22.9191C7.04953 23.4096 8.30965 23.4096 10.8299 23.4096H13.1654C15.6856 23.4096 16.9458 23.4096 17.9084 22.9191C18.7551 22.4877 19.4435 21.7993 19.8749 20.9525C20.3654 19.9899 20.3654 18.7298 20.3654 16.2096V10.5466C20.8138 10.4789 21.1575 10.092 21.1575 9.62471V7.30397C21.1575 6.83409 20.8099 6.44541 20.3579 6.38097C20.3351 4.91396 20.2434 4.02294 19.8749 3.29982C19.4435 2.45309 18.7551 1.76467 17.9084 1.33324C16.9458 0.842773 15.6856 0.842773 13.1654 0.842773H10.8299C8.30965 0.842773 7.04953 0.842773 6.08693 1.33324C5.2402 1.76467 4.55178 2.45309 4.12035 3.29982C3.81232 3.90437 3.69774 4.62627 3.65512 5.70398Z" fill="#F28E3D"/>
<path fill-rule="evenodd" clip-rule="evenodd" d="M11.2447 19.6309C10.6522 19.6309 10.1719 20.1112 10.1719 20.7037C10.1719 21.2961 10.6522 21.7764 11.2447 21.7764H12.7545C13.347 21.7764 13.8273 21.2961 13.8273 20.7037C13.8273 20.1112 13.347 19.6309 12.7545 19.6309H11.2447Z" fill="#525282"/>
<rect x="5.32227" y="2.5625" width="13.3551" height="15.8615" rx="3" fill="#F3B889"/>
</svg>
