<svg width="24" height="24" viewBox="0 0 24 24" fill="none" xmlns="http://www.w3.org/2000/svg">
<path d="M12.8418 11.7852C12.8421 11.5989 12.8423 11.4127 12.8423 11.2265C12.8423 11.074 12.8421 10.9214 12.842 10.7689C12.8414 10.1585 12.8409 9.54731 12.8495 8.93414C12.8495 8.79445 12.8029 8.74073 12.6632 8.74431H11.4633C11.3057 8.74073 11.2556 8.79803 11.2556 8.95205C11.2592 10.46 11.2592 11.9715 11.2556 13.4794C11.2556 13.6298 11.3057 13.68 11.4526 13.6764C11.8466 13.6692 12.2406 13.6656 12.6345 13.6764C12.8029 13.6836 12.8459 13.6191 12.8459 13.4615C12.8405 12.9027 12.8412 12.3439 12.8418 11.7852Z" fill="#228AC6"/>
<path d="M17.6562 13.6764C17.4573 13.6764 17.2587 13.6766 17.0602 13.6768C16.4649 13.6775 15.8706 13.6782 15.2743 13.6728C15.1489 13.6728 15.0701 13.7122 14.9914 13.8161C14.5759 14.3605 13.992 14.5611 13.3366 14.6112C13.2291 14.6184 13.1861 14.5718 13.1861 14.4644C13.1876 14.3957 13.1867 14.3265 13.1859 14.2572C13.1846 14.1529 13.1833 14.0482 13.1897 13.945C13.1933 13.8841 13.2327 13.8053 13.2828 13.7695C13.5945 13.526 13.7306 13.2036 13.7306 12.8168C13.7306 12.6198 13.7308 12.4228 13.731 12.2258C13.7317 11.6349 13.7324 11.0437 13.727 10.4528C13.7234 10.2773 13.7807 10.2272 13.9526 10.2307C14.2213 10.2384 14.4899 10.237 14.7586 10.2355C14.866 10.2349 14.9735 10.2343 15.0809 10.2343C15.3137 10.2343 15.3173 10.2379 15.3173 10.4779V12.609C15.3173 12.8598 15.3209 12.8633 15.5644 12.8633C15.6024 12.8633 15.6403 12.8627 15.6782 12.8622C15.7726 12.8607 15.8664 12.8592 15.9584 12.8669C16.1196 12.8812 16.1626 12.8132 16.1626 12.6592C16.1572 12.1138 16.1579 11.5665 16.1586 11.0201C16.1588 10.8381 16.159 10.656 16.159 10.4743C16.159 10.3537 16.159 10.2937 16.189 10.2639C16.2187 10.2343 16.2778 10.2343 16.3954 10.2343C16.5028 10.2343 16.6103 10.2349 16.7177 10.2355C16.9864 10.237 17.255 10.2384 17.5237 10.2307C17.6992 10.2236 17.7457 10.2916 17.7457 10.46C17.7404 11.0024 17.741 11.5429 17.7417 12.0843C17.7419 12.2649 17.7421 12.446 17.7421 12.6269C17.7421 12.8633 17.7457 12.8633 17.982 12.8669C17.9998 12.8669 18.0177 12.8668 18.0354 12.8667C18.0606 12.8664 18.0857 12.8661 18.1107 12.8657C18.2168 12.8643 18.3227 12.8628 18.4298 12.8705C18.591 12.8812 18.6483 12.8239 18.6447 12.6556C18.6394 12.1236 18.64 11.5896 18.6407 11.0566L18.6409 10.9471C18.6409 10.8675 18.641 10.7878 18.6411 10.7083C18.6411 10.647 18.6412 10.5857 18.6412 10.5244C18.6412 10.3824 18.6412 10.3107 18.677 10.2746C18.7134 10.2379 18.7868 10.2379 18.9349 10.2379C19.9485 10.2379 20.9657 10.2379 21.9794 10.2415C22.4271 10.2415 22.8462 10.3525 23.2187 10.5961C23.7416 10.9328 24.0389 11.4163 23.9959 12.0539C23.9493 12.7022 23.584 13.1606 23.0073 13.4185C22.6993 13.5546 22.3483 13.6227 22.0116 13.6728C21.8373 13.6991 21.6566 13.6935 21.4759 13.6879C21.3856 13.6851 21.2952 13.6824 21.2057 13.6836C21.0947 13.6836 21.0409 13.6442 21.0445 13.526C21.0481 13.3576 21.0481 13.1929 21.0445 13.0245C21.0409 12.9171 21.0983 12.8741 21.1985 12.8741C21.3311 12.8741 21.46 12.8741 21.5925 12.8705C22.1656 12.8633 22.5095 12.5016 22.488 11.9213C22.4665 11.3447 22.1477 11.0295 21.571 11.0295C21.5123 11.0295 21.4536 11.0296 21.395 11.0297L21.2838 11.0299C20.9975 11.0306 20.7122 11.0313 20.4249 11.0259C20.2852 11.0223 20.2386 11.0725 20.2386 11.2121C20.24 11.4942 20.2398 11.7762 20.2396 12.0583C20.2394 12.5284 20.2391 12.9985 20.2458 13.4687C20.2458 13.6334 20.1992 13.6836 20.0309 13.6836C19.4005 13.675 18.7656 13.6755 18.1315 13.6761H18.1304C18.0586 13.6762 17.9867 13.6762 17.9149 13.6763C17.8286 13.6764 17.7424 13.6764 17.6562 13.6764Z" fill="#228AC6"/>
<path d="M7.82424 13.6764C7.61645 13.6764 7.40889 13.6766 7.20143 13.6768C6.57926 13.6775 5.9581 13.6782 5.33492 13.6728C5.19881 13.6728 5.10569 13.7086 5.01972 13.8232C4.60424 14.3713 4.02041 14.5647 3.36495 14.6112C3.24675 14.6184 3.20377 14.5647 3.21093 14.4536C3.21452 14.3999 3.2181 14.3462 3.21093 14.2925C3.1787 14.0167 3.23242 13.8018 3.47957 13.6155C3.71596 13.44 3.76969 13.1391 3.77327 12.8562C3.77972 12.5231 3.77843 12.19 3.77714 11.8569C3.77628 11.6348 3.77542 11.4127 3.77685 11.1907C3.77685 11.0689 3.73745 11.0187 3.61209 11.0223C3.44305 11.0237 3.27344 11.0229 3.10372 11.022C2.84908 11.0207 2.59418 11.0194 2.34057 11.0259C1.79972 11.0438 1.5096 11.3984 1.51676 12.0037C1.52392 12.5016 1.86061 12.8454 2.35847 12.8633C2.76643 12.8776 2.77038 12.8778 2.7668 13.2931C2.76644 13.3364 2.76658 13.3747 2.7667 13.4087C2.76718 13.5454 2.76742 13.6117 2.73441 13.6439C2.70334 13.6742 2.64283 13.6744 2.52538 13.6748C2.48522 13.6749 2.43811 13.675 2.38355 13.6764C1.94299 13.6836 1.51318 13.6513 1.10486 13.4687C0.49954 13.1964 0.080474 12.7666 0.00883871 12.0789C-0.0520512 11.4915 0.205836 11.0366 0.653556 10.682C1.00815 10.3955 1.43438 10.2558 1.8821 10.2486C2.56101 10.2376 3.23992 10.2375 3.91967 10.2373C4.34446 10.2372 4.76958 10.2371 5.19523 10.2343C5.35283 10.2343 5.36357 10.3203 5.36357 10.4385C5.36119 10.9233 5.36198 11.4098 5.36278 11.8957C5.36318 12.1385 5.36357 12.3811 5.36357 12.6234C5.36357 12.8633 5.36357 12.8669 5.59997 12.8669H6.33423C6.57421 12.8669 6.57779 12.8669 6.57779 12.6305C6.57779 12.4489 6.57801 12.267 6.57824 12.085C6.57891 11.5385 6.57958 10.9911 6.57421 10.4456C6.57421 10.2809 6.62435 10.2272 6.78911 10.2307C7.19027 10.2415 7.58785 10.2379 7.989 10.2307C8.13586 10.2272 8.186 10.2809 8.186 10.4277C8.18466 10.7031 8.18483 10.9784 8.18499 11.2538C8.18527 11.7127 8.18555 12.1716 8.17884 12.6305C8.17526 12.806 8.22182 12.8705 8.40807 12.8669L8.4291 12.8666C8.6855 12.8633 8.81456 12.8616 8.87951 12.7962C8.94534 12.7299 8.94534 12.5983 8.94534 12.3332C8.94534 12.1746 8.94556 12.0163 8.94578 11.858C8.94646 11.3837 8.94712 10.9102 8.94175 10.4349C8.93817 10.2773 8.98832 10.2272 9.14591 10.2307C9.55065 10.2379 9.95897 10.2379 10.3637 10.2307C10.5034 10.2272 10.55 10.2773 10.55 10.417C10.5464 11.4378 10.5428 12.4586 10.55 13.4794C10.55 13.6442 10.4855 13.6764 10.3386 13.6764C9.77826 13.674 9.22106 13.6748 8.66387 13.6756H8.66158C8.3826 13.676 8.10362 13.6764 7.82424 13.6764Z" fill="#228AC6"/>
<path d="M16.8176 14.8403C16.8176 15.0696 16.6385 15.2523 16.4128 15.2558C16.1872 15.2594 16.0009 15.0767 15.9973 14.8547C15.9938 14.6147 16.1728 14.4356 16.4092 14.4356C16.642 14.4356 16.8176 14.6075 16.8176 14.8403Z" fill="#C5891D"/>
<path d="M9.00215 9.15967C8.99857 8.93402 8.8159 8.7621 8.58308 8.76568C8.34669 8.76568 8.1676 8.94118 8.16402 9.16325C8.16402 9.37816 8.37892 9.5859 8.59741 9.57874C8.81948 9.57158 9.00573 9.38174 9.00215 9.15967Z" fill="#C5891D"/>
<path d="M14.4751 8.76568C14.7222 8.76568 14.8834 8.91611 14.887 9.15609C14.8906 9.38174 14.7115 9.57158 14.4894 9.57874C14.2602 9.5859 14.0632 9.39249 14.0632 9.16684C14.0668 8.93402 14.2351 8.76568 14.4751 8.76568Z" fill="#C5891D"/>
<path d="M5.929 9.16684C5.929 8.92686 5.76782 8.76568 5.52426 8.76568C5.29144 8.7621 5.10877 8.93402 5.10161 9.15967C5.09803 9.38533 5.29503 9.58232 5.52426 9.58232C5.74275 9.58232 5.929 9.39249 5.929 9.16684Z" fill="#C5891D"/>
<path d="M15.0911 14.8368C15.0947 14.6039 15.2702 14.432 15.503 14.432C15.7287 14.4356 15.9078 14.6183 15.9042 14.8475C15.9042 15.0696 15.7108 15.2558 15.4923 15.2558C15.2702 15.2523 15.0911 15.0624 15.0911 14.8368Z" fill="#C5891D"/>
<path d="M6.84593 9.15967C6.84593 8.93044 6.67042 8.7621 6.43044 8.76568C6.19405 8.76568 6.02929 8.9376 6.02929 9.174C6.03287 9.39607 6.22628 9.5859 6.44477 9.58232C6.66684 9.57874 6.84593 9.3889 6.84593 9.15967Z" fill="#C5891D"/>
</svg>
