<svg width="24" height="24" viewBox="0 0 24 24" fill="none" xmlns="http://www.w3.org/2000/svg">
<path opacity="0.6" d="M17.6172 6.77637C18.6328 6.77637 19.4561 7.59968 19.4561 8.6153V19.6231C19.4561 20.6387 18.6328 21.462 17.6172 21.462V6.77637Z" fill="#1187C3"/>
<path fill-rule="evenodd" clip-rule="evenodd" d="M14.9256 5.61957V0.901118C14.9256 0.639676 14.7136 0.427734 14.4522 0.427734C14.3394 0.427734 14.2326 0.477965 14.1606 0.564764L13.803 0.996152C13.7058 1.11347 13.5293 1.12328 13.4196 1.01746L12.9258 0.540821C12.8506 0.468276 12.7502 0.427734 12.6458 0.427734C12.5413 0.427734 12.4409 0.468276 12.3658 0.540821L11.932 0.959434C11.7851 1.10122 11.5523 1.10122 11.4054 0.959434L10.9717 0.540821C10.8965 0.468277 10.7961 0.427734 10.6917 0.427734C10.5872 0.427734 10.4868 0.468276 10.4117 0.540821L9.91782 1.01746C9.80817 1.12328 9.63167 1.11347 9.53442 0.996152L9.17685 0.564765C9.1049 0.477966 8.99802 0.427734 8.88528 0.427734C8.62384 0.427734 8.4119 0.639677 8.4119 0.901119V5.61957L14.9256 5.61957ZM9.69525 3.20087C9.69525 2.86931 9.96403 2.60053 10.2956 2.60053L13.0419 2.60053C13.3735 2.60053 13.6422 2.86931 13.6422 3.20087C13.6422 3.53242 13.3735 3.8012 13.0419 3.8012L10.2956 3.8012C9.96403 3.8012 9.69525 3.53242 9.69525 3.20087Z" fill="#1187C3"/>
<path fill-rule="evenodd" clip-rule="evenodd" d="M6.16649 4.6428C6.41402 4.4802 6.6878 4.36233 7.00658 4.27689L7.00685 5.65693H6.76461C6.37801 5.65693 6.06461 5.97033 6.06461 6.35693C6.06461 6.74353 6.37801 7.05693 6.76461 7.05693L16.4675 7.0569C16.8541 7.0569 17.1675 6.7435 17.1675 6.3569C17.1675 5.97031 16.8541 5.6569 16.4675 5.6569H16.3249L16.3252 4.35474C16.5396 4.43033 16.7331 4.52478 16.9128 4.6428C17.3238 4.91281 17.6752 5.26417 17.9452 5.67522C18.5363 6.57508 18.5363 7.82195 18.5363 10.3157V17.3302C18.5363 19.8239 18.5363 21.0708 17.9452 21.9707C17.6752 22.3817 17.3238 22.7331 16.9128 23.0031C16.0129 23.5942 14.7661 23.5942 12.2723 23.5942H10.807C8.31322 23.5942 7.06634 23.5942 6.16649 23.0031C5.75544 22.7331 5.40407 22.3817 5.13406 21.9707C4.54297 21.0708 4.54297 19.8239 4.54297 17.3302V10.3157C4.54297 7.82195 4.54297 6.57508 5.13406 5.67522C5.40407 5.26417 5.75544 4.91281 6.16649 4.6428ZM6.7977 10.849C6.7977 10.1121 6.7977 9.74358 6.96358 9.4729C7.05639 9.32143 7.18374 9.19409 7.3352 9.10128C7.60589 8.93541 7.97437 8.93542 8.71132 8.93543H14.368C15.105 8.93542 15.4734 8.93541 15.7441 9.10128C15.8956 9.19409 16.0229 9.32143 16.1157 9.4729C16.2816 9.74358 16.2816 10.1121 16.2816 10.849V11.6717C16.2816 12.4086 16.2816 12.7771 16.1158 13.0478C16.0229 13.1992 15.8956 13.3266 15.7441 13.4194C15.4735 13.5853 15.105 13.5853 14.3681 13.5853H8.71127C7.97434 13.5853 7.60587 13.5853 7.33519 13.4194C7.18373 13.3266 7.05639 13.1992 6.96357 13.0478C6.7977 12.7771 6.7977 12.4086 6.7977 11.6717V10.849ZM10.536 15.4229C10.536 15.1742 10.7376 14.9727 10.9862 14.9727H12.0932C12.3419 14.9727 12.5434 15.1742 12.5434 15.4229V16.0234C12.5434 16.2721 12.3419 16.4737 12.0932 16.4737H10.9862C10.7376 16.4737 10.536 16.2721 10.536 16.0234V15.4229ZM10.536 18.1231C10.536 17.8744 10.7376 17.6729 10.9862 17.6729H12.0932C12.3419 17.6729 12.5434 17.8744 12.5434 18.1231V18.7236C12.5434 18.9723 12.3419 19.1739 12.0932 19.1739H10.9862C10.7376 19.1739 10.536 18.9723 10.536 18.7236V18.1231ZM10.536 20.8231C10.536 20.5744 10.7376 20.3728 10.9862 20.3728H12.0932C12.3419 20.3728 12.5434 20.5744 12.5434 20.8231V21.4236C12.5434 21.6722 12.3419 21.8738 12.0932 21.8738H10.9862C10.7376 21.8738 10.536 21.6722 10.536 21.4236V20.8231ZM14.0648 15.4229C14.0648 15.1742 14.2664 14.9727 14.515 14.9727H15.622C15.8707 14.9727 16.0723 15.1742 16.0723 15.4229V16.0234C16.0723 16.2721 15.8707 16.4737 15.622 16.4737H14.515C14.2664 16.4737 14.0648 16.2721 14.0648 16.0234V15.4229ZM14.0648 18.1231C14.0648 17.8744 14.2664 17.6729 14.515 17.6729H15.622C15.8707 17.6729 16.0723 17.8744 16.0723 18.1231V18.7236C16.0723 18.9723 15.8707 19.1739 15.622 19.1739H14.515C14.2664 19.1739 14.0648 18.9723 14.0648 18.7236V18.1231ZM14.0648 20.8231C14.0648 20.5744 14.2664 20.3728 14.515 20.3728H15.622C15.8707 20.3728 16.0723 20.5744 16.0723 20.8231V21.4236C16.0723 21.6722 15.8707 21.8738 15.622 21.8738H14.515C14.2664 21.8738 14.0648 21.6722 14.0648 21.4236V20.8231ZM6.99194 15.4229C6.99194 15.1742 7.19353 14.9727 7.44219 14.9727H8.54916C8.79782 14.9727 8.99941 15.1742 8.99941 15.4229V16.0234C8.99941 16.2721 8.79782 16.4737 8.54916 16.4737H7.44219C7.19353 16.4737 6.99194 16.2721 6.99194 16.0234V15.4229ZM6.99194 18.1231C6.99194 17.8744 7.19353 17.6729 7.44219 17.6729H8.54916C8.79782 17.6729 8.99941 17.8744 8.99941 18.1231V18.7236C8.99941 18.9723 8.79782 19.1739 8.54916 19.1739H7.44219C7.19353 19.1739 6.99194 18.9723 6.99194 18.7236V18.1231ZM6.99194 20.8231C6.99194 20.5744 7.19353 20.3728 7.44219 20.3728H8.54916C8.79782 20.3728 8.99941 20.5744 8.99941 20.8231V21.4236C8.99941 21.6722 8.79782 21.8738 8.54916 21.8738H7.44219C7.19353 21.8738 6.99194 21.6722 6.99194 21.4236V20.8231Z" fill="#1187C3"/>
<path fill-rule="evenodd" clip-rule="evenodd" d="M14.9258 5.61957V0.901118C14.9258 0.639676 14.7138 0.427734 14.4524 0.427734C14.3397 0.427734 14.2328 0.477965 14.1608 0.564764L13.8033 0.996152C13.706 1.11347 13.5295 1.12328 13.4199 1.01746L12.926 0.540821C12.8508 0.468276 12.7505 0.427734 12.646 0.427734C12.5415 0.427734 12.4411 0.468276 12.366 0.540821L11.9323 0.959434C11.7853 1.10122 11.5525 1.10122 11.4056 0.959434L10.9719 0.540821C10.8967 0.468277 10.7964 0.427734 10.6919 0.427734C10.5874 0.427734 10.487 0.468276 10.4119 0.540821L9.91803 1.01746C9.80838 1.12328 9.63188 1.11347 9.53463 0.996152L9.17706 0.564765C9.10511 0.477966 8.99823 0.427734 8.88549 0.427734C8.62405 0.427734 8.41211 0.639677 8.41211 0.901119V5.61957L14.9258 5.61957ZM9.69546 3.20087C9.69546 2.86931 9.96424 2.60053 10.2958 2.60053L13.0421 2.60053C13.3737 2.60053 13.6424 2.86931 13.6424 3.20087C13.6424 3.53242 13.3737 3.8012 13.0421 3.8012L10.2958 3.8012C9.96424 3.8012 9.69546 3.53242 9.69546 3.20087Z" fill="#525282"/>
</svg>
