<svg width="24" height="24" viewBox="0 0 24 24" fill="none" xmlns="http://www.w3.org/2000/svg">
<g clip-path="url(#clip0_7460_1635)">
<path d="M3.50972 6.01666C3.14535 5.75338 3.05817 5.2442 3.33462 4.89939C3.33462 4.89939 3.33724 4.89462 3.34146 4.8905C3.34381 4.88818 3.34663 4.88612 3.34985 4.88522C3.62905 4.54955 4.14019 4.5243 4.47067 4.83666L8.3562 8.54706C8.49641 8.68553 8.71144 8.68437 8.84862 8.55673L8.85762 8.55428C8.99487 8.42663 9.01755 8.21268 8.90158 8.05747L5.58913 3.81986C5.31349 3.46242 5.38443 2.95814 5.75115 2.7165C5.75632 2.71509 5.76148 2.71367 5.76611 2.71045C5.76954 2.708 5.77269 2.70465 5.77538 2.69976C6.14209 2.45812 6.64371 2.59375 6.86183 2.987L9.5046 7.66036C9.59635 7.83219 9.81004 7.89067 9.98199 7.81261L9.99098 7.81003C10.1629 7.73198 10.248 7.53014 10.1743 7.35316L8.24634 2.35997C8.08855 1.9398 8.30171 1.48434 8.7254 1.36506L8.74345 1.36004C9.16708 1.24064 9.61192 1.51087 9.70669 1.94882L10.8865 7.1526C10.9241 7.33976 11.1094 7.46548 11.298 7.44203L11.3071 7.43959C11.4957 7.41614 11.6336 7.25861 11.623 7.06386L11.2248 1.7587C11.1869 1.31457 11.5417 0.937941 11.9773 0.953656C11.9807 0.952754 11.9844 0.953141 11.9882 0.953785L11.9924 0.954557C11.9975 0.955459 12.0027 0.95649 12.0071 0.955201C12.4517 0.968469 12.7954 1.35605 12.7646 1.79966L12.3631 7.08292C12.3529 7.27368 12.4834 7.44448 12.6797 7.47823L12.6888 7.47565C12.876 7.51185 13.0577 7.40146 13.0977 7.21224L14.2873 2.07286C14.3895 1.63878 14.8339 1.39508 15.2579 1.53277L15.2696 1.53934C15.6963 1.68605 15.9097 2.1598 15.7512 2.57018L13.8179 7.45427C13.7452 7.63292 13.8273 7.83721 13.9987 7.91746L14.0105 7.92403C14.1846 8.01342 14.392 7.95507 14.491 7.79857L17.1419 3.27604C17.3684 2.89593 17.8662 2.79533 18.2369 3.04676L18.2486 3.05333C18.6131 3.31661 18.6912 3.82836 18.412 4.16403L15.1115 8.22698C14.9889 8.37021 15.0168 8.5897 15.1542 8.71915L15.1571 8.72817C15.2973 8.86663 15.5151 8.87449 15.6523 8.74697L19.5346 5.24189C19.8575 4.95323 20.3791 4.99419 20.6548 5.3515C20.656 5.35549 20.6567 5.35768 20.6581 5.35949C20.6598 5.36181 20.6627 5.36348 20.6694 5.36722C20.9451 5.72452 20.8651 6.23151 20.4984 6.47315L15.8195 9.55008L13.4105 10.8609C12.5398 11.3433 11.4626 11.3105 10.5965 10.7833L8.19251 9.32467C8.19533 9.33382 3.50972 6.01666 3.50972 6.01666Z" fill="black"/>
<path d="M16.5155 11.1532C16.5559 11.3495 16.7322 11.4778 16.9208 11.4544L22.1665 10.8079C22.6007 10.7548 23.0144 11.0833 23.0432 11.5298C23.046 11.539 23.0488 11.548 23.0426 11.5597C23.0714 12.0063 22.7201 12.3622 22.2755 12.349L16.97 12.1918C16.782 12.1853 16.6206 12.3297 16.6104 12.5204L16.6132 12.5295C16.6029 12.7203 16.7245 12.8936 16.9208 12.9273L22.1638 13.8732C22.6009 13.9577 22.8989 14.3879 22.7938 14.8129C22.7948 14.8162 22.7946 14.8199 22.794 14.8233C22.7928 14.829 22.7904 14.8336 22.7904 14.8336C22.6854 15.2587 22.241 15.5024 21.8143 15.3555L16.7557 13.6361C16.569 13.57 16.3818 13.6622 16.3092 13.8409L16.303 13.8526C16.2303 14.0311 16.3123 14.2354 16.4747 14.3182L21.2454 16.7613C21.641 16.9663 21.8031 17.4643 21.5767 17.8445L21.5704 17.8562C21.353 18.2337 20.8433 18.3277 20.4817 18.0736L16.114 14.9636C15.9522 14.8509 15.7456 14.8795 15.6257 15.0318C15.6257 15.0318 15.6167 15.0343 15.6195 15.0434C15.4969 15.1867 15.5158 15.4087 15.6532 15.538L19.5298 19.2512C19.8512 19.566 19.8607 20.0773 19.5315 20.3776C19.527 20.3789 19.5255 20.3817 19.524 20.3845C19.5223 20.3875 19.5208 20.3904 19.5162 20.3917C19.1933 20.6804 18.6779 20.6278 18.4023 20.2704L15.1079 16.0278C14.9919 15.8726 14.7775 15.844 14.6139 15.9493L14.6049 15.9519C14.4503 16.0547 14.395 16.2581 14.4868 16.43L17.1178 21.0967C17.3359 21.4901 17.1907 21.9758 16.7865 22.1587L16.7685 22.1639C16.3643 22.3468 15.8883 22.1349 15.7305 21.7147L13.8142 16.7281C13.7496 16.5485 13.5428 16.4486 13.3625 16.4993L13.3445 16.5045C13.1642 16.5552 13.0527 16.7349 13.0903 16.9219L14.2673 22.1167C14.3621 22.5547 14.0809 22.9798 13.6377 23.0354L13.6197 23.0404C13.1766 23.096 12.7781 22.7534 12.7403 22.3094C12.7403 22.3094 12.3292 16.642 12.3382 16.6395L12.3578 13.8857C12.3534 12.8786 12.8873 11.9671 13.7608 11.4938C13.7608 11.4938 14.827 10.9099 15.5392 10.5163C15.8988 10.3174 16.1682 10.1669 16.1643 10.1647L21.2593 7.84056C21.6635 7.65753 22.1485 7.86697 22.3064 8.28726L22.312 8.30542C22.4698 8.72559 22.2448 9.17448 21.8211 9.29376L16.7641 10.7175C16.5775 10.7799 16.4778 10.9662 16.5155 11.1532Z" fill="black"/>
<path d="M10.3485 22.9729C10.7828 23.0484 11.1868 22.7368 11.2176 22.2932C11.2176 22.2932 11.6452 16.6468 11.6362 16.6493L11.6502 13.8773C11.6458 12.8703 11.1143 11.9325 10.2482 11.4053L7.84425 9.94668L2.74595 7.32894C2.34139 7.12659 1.854 7.29339 1.69554 7.70377L1.6893 7.71549C1.52803 8.11672 1.75044 8.5879 2.17716 8.73474L7.23921 10.4334C7.42586 10.4995 7.52311 10.6896 7.48304 10.8789C7.47405 10.8813 7.47687 10.8904 7.47687 10.8904C7.4368 11.0797 7.25794 11.1992 7.07062 11.163L1.83937 10.2237C1.39608 10.1507 0.989229 10.4531 0.958423 10.8968C0.959833 10.9014 0.958222 10.9044 0.956678 10.9073C0.955135 10.9102 0.953591 10.913 0.955 10.9175C0.924195 11.3611 1.27688 11.7462 1.72152 11.7595L7.00961 11.8919C7.2066 11.8958 7.36143 12.05 7.37197 12.2447L7.37479 12.2537C7.39438 12.4459 7.25928 12.6125 7.07062 12.6359L1.83669 13.289C1.40252 13.342 1.10957 13.7606 1.20426 14.1986L1.20983 14.2167C1.3046 14.6547 1.75843 14.9223 2.18212 14.8031L7.57553 13.2945L7.57828 13.3036C7.61445 13.422 7.64788 13.5312 7.69029 13.6379C7.75492 13.8174 7.67882 14.0167 7.50687 14.0949L2.74112 16.2471C2.33689 16.4302 2.18273 16.9185 2.40085 17.3117C2.40984 17.3093 2.41266 17.3183 2.41542 17.3274C2.63361 17.7208 3.14139 17.8447 3.50811 17.6031L7.88345 14.75C8.03801 14.6472 8.25513 14.685 8.3711 14.84L8.37392 14.8492C8.4899 15.0044 8.4762 15.2158 8.33895 15.3434L4.46295 18.8369C4.131 19.128 4.13147 19.642 4.45288 19.9568C4.45483 19.9631 4.45966 19.9637 4.46342 19.9665C4.46516 19.9678 4.46664 19.9696 4.46751 19.9725C4.79792 20.2847 5.30631 20.2503 5.58551 19.9146L8.88601 15.8517C9.00587 15.6994 9.21527 15.68 9.37702 15.7926L9.38883 15.7991C9.55051 15.9118 9.60554 16.1237 9.50923 16.2892L6.86465 20.8002C6.6382 21.1803 6.79122 21.6808 7.1868 21.8859L7.19861 21.8925C7.59412 22.0974 8.07875 21.9214 8.23721 21.5111L10.1762 16.6451C10.2488 16.4665 10.4415 16.3925 10.6254 16.4495C10.6282 16.4586 10.6372 16.456 10.6372 16.456C10.8211 16.513 10.9274 16.7005 10.8873 16.8897L9.70393 22.0175C9.60172 22.4516 9.89065 22.8843 10.3277 22.9688C10.3322 22.9675 10.3351 22.9692 10.3381 22.9708C10.3411 22.9725 10.344 22.9742 10.3485 22.9729Z" fill="black"/>
</g>
<defs>
<clipPath id="clip0_7460_1635">
<rect width="24" height="24" fill="white"/>
</clipPath>
</defs>
</svg>
