<svg width="24" height="24" viewBox="0 0 24 24" fill="none" xmlns="http://www.w3.org/2000/svg">
<g clip-path="url(#clip0_7460_5739)">
<path fill-rule="evenodd" clip-rule="evenodd" d="M3.9881 1.48572C5.31516 1.21921 6.68847 1.21779 8.01668 1.48454C9.28345 1.73895 10.2684 2.73883 10.517 3.99977C10.7763 5.31499 10.7772 6.68255 10.5178 7.99856C10.268 9.26582 9.27778 10.2643 8.00737 10.5174C6.68477 10.7809 5.31485 10.7787 3.99406 10.5155C2.7399 10.2657 1.74539 9.28585 1.49006 8.02569C1.21934 6.68955 1.21953 5.312 1.49021 3.97601C1.74501 2.71845 2.73387 1.73761 3.9881 1.48572Z" fill="#2B73E3"/>
<path fill-rule="evenodd" clip-rule="evenodd" d="M3.9881 13.4857C5.31516 13.2192 6.68847 13.2178 8.01668 13.4845C9.28345 13.7389 10.2684 14.7388 10.517 15.9998C10.7763 17.315 10.7772 18.6826 10.5178 19.9986C10.268 21.2658 9.27778 22.2643 8.00737 22.5174C6.68477 22.7809 5.31485 22.7787 3.99406 22.5155C2.7399 22.2657 1.74539 21.2858 1.49006 20.0257C1.21934 18.6896 1.21953 17.312 1.49021 15.976C1.74501 14.7185 2.73387 13.7376 3.9881 13.4857Z" fill="#2B73E3"/>
<path fill-rule="evenodd" clip-rule="evenodd" d="M15.9881 1.48572C17.3152 1.21921 18.6885 1.21779 20.0167 1.48454C21.2835 1.73895 22.2684 2.73883 22.517 3.99977C22.7763 5.31499 22.7772 6.68255 22.5178 7.99856C22.268 9.26582 21.2778 10.2643 20.0074 10.5174C18.6848 10.7809 17.3148 10.7787 15.9941 10.5155C14.7399 10.2657 13.7454 9.28585 13.4901 8.02569C13.2193 6.68955 13.2195 5.312 13.4902 3.97601C13.745 2.71845 14.7339 1.73761 15.9881 1.48572Z" fill="#2B73E3"/>
<path fill-rule="evenodd" clip-rule="evenodd" d="M15.9881 13.4857C17.3152 13.2192 18.6885 13.2178 20.0167 13.4845C21.2835 13.7389 22.2684 14.7388 22.517 15.9998C22.7763 17.315 22.7772 18.6826 22.5178 19.9986C22.268 21.2658 21.2778 22.2643 20.0074 22.5174C18.6848 22.7809 17.3148 22.7787 15.9941 22.5155C14.7399 22.2657 13.7454 21.2858 13.4901 20.0257C13.2193 18.6895 13.2195 17.312 13.4902 15.976C13.745 14.7184 14.7339 13.7376 15.9881 13.4857Z" fill="#525282"/>
</g>
<defs>
<clipPath id="clip0_7460_5739">
<rect width="24" height="24" fill="white"/>
</clipPath>
</defs>
</svg>
