<svg width="24" height="24" viewBox="0 0 24 24" fill="none" xmlns="http://www.w3.org/2000/svg">
<path fill-rule="evenodd" clip-rule="evenodd" d="M5.22816 2.24902C2.71611 2.24902 0.679688 4.28544 0.679688 6.7975V16.996C0.679688 19.3257 2.44007 21.2788 4.75731 21.52L4.8867 21.5335C7.26566 21.781 9.66101 21.8181 12.0449 21.6446C11.374 20.8296 11.1934 19.8861 11.1226 19.2303L10.6983 16.1694L10.6959 16.1472C10.625 15.4824 10.511 13.9241 11.601 12.6722L11.6047 12.668C12.025 12.1891 12.5327 11.8576 13.0843 11.6355C13.3079 9.68356 14.7478 7.88107 16.7077 7.43501C16.4742 7.08162 16.1933 6.75712 15.8693 6.47162L12.7233 3.69922C11.6628 2.76465 10.2978 2.24902 8.88427 2.24902H5.22816ZM8.84741 14.8113C8.84741 15.0004 8.69409 15.1537 8.50496 15.1537H6.73751C6.54838 15.1537 6.39506 15.0004 6.39506 14.8113V12.7831C6.39506 12.5893 6.55577 12.4337 6.74919 12.4455C6.96721 12.4588 7.18498 12.4774 7.40231 12.5013C8.22475 12.5917 8.84741 13.2865 8.84741 14.1139V14.8113ZM5.09914 18.8034C5.29259 18.8153 5.45334 18.6597 5.45334 18.4658V16.4379C5.45334 16.2488 5.30002 16.0954 5.1109 16.0954H3.34633C3.1572 16.0954 3.00388 16.2488 3.00388 16.4379V17.1352C3.00388 17.9626 3.62654 18.6575 4.44898 18.7478C4.66533 18.7716 4.88211 18.7901 5.09914 18.8034ZM6.39506 18.466C6.39506 18.6598 6.55577 18.8154 6.74919 18.8036C6.96721 18.7903 7.18498 18.7717 7.40231 18.7478C8.22475 18.6575 8.84741 17.9626 8.84741 17.1352V16.4379C8.84741 16.2488 8.69409 16.0954 8.50496 16.0954H6.73751C6.54838 16.0954 6.39506 16.2488 6.39506 16.4379V18.466ZM5.45334 12.7833C5.45334 12.5895 5.29259 12.4339 5.09914 12.4457C4.88211 12.459 4.66533 12.4775 4.44898 12.5013C3.62654 12.5917 3.00388 13.2865 3.00388 14.1139V14.8113C3.00388 15.0004 3.1572 15.1537 3.34633 15.1537H5.1109C5.30002 15.1537 5.45334 15.0004 5.45334 14.8113V12.7833Z" fill="#F28E3D"/>
<path fill-rule="evenodd" clip-rule="evenodd" d="M17.3653 8.75831C18.2805 8.67001 19.165 8.9697 19.8427 9.60739C20.5139 10.2322 20.893 11.1254 20.893 12.0501L20.893 12.7208C21.668 12.8406 22.2737 13.1223 22.6954 13.6028C23.3526 14.3654 23.3256 15.3719 23.2581 15.9985L22.8347 19.064C22.769 19.6867 22.6087 20.3732 22.0858 20.8993C21.5585 21.4298 20.7095 21.7513 19.3699 21.7513H15.9913C14.6518 21.7513 13.8027 21.4299 13.2753 20.8983C12.7525 20.3715 12.5923 19.6834 12.5265 19.0577L12.1022 15.9968C12.0349 15.3662 12.0026 14.3646 12.6674 13.601C13.0891 13.1205 13.6932 12.8406 14.4683 12.7208L14.4683 12.1626C14.4683 10.4848 15.771 8.91657 17.3653 8.75831ZM18.9277 10.627C18.534 10.2593 18.0319 10.0901 17.4993 10.1393C17.0722 10.1815 16.6535 10.4302 16.3374 10.8085C16.0217 11.1862 15.8251 11.674 15.8251 12.1626L15.8251 12.6515H19.5362L19.5362 12.0501C19.5362 11.507 19.3156 10.9888 18.9277 10.627ZM16.1218 16.1113C15.7551 15.9765 15.3485 16.1645 15.2137 16.5313C15.0789 16.898 15.2669 17.3046 15.6337 17.4394L15.7441 17.48C16.9521 17.924 18.2786 17.924 19.4866 17.48L19.597 17.4394C19.9638 17.3046 20.1518 16.898 20.017 16.5313C19.8822 16.1645 19.4756 15.9765 19.1089 16.1113L18.9984 16.1519C18.1056 16.48 17.1251 16.48 16.2323 16.1519L16.1218 16.1113Z" fill="#525282"/>
</svg>
