<svg width="24" height="24" viewBox="0 0 24 24" fill="none" xmlns="http://www.w3.org/2000/svg">
<path d="M1.85942 5.35497C1 6.53786 1 8.22524 1 11.6L1 12.4C1 15.7748 1 17.4621 1.85942 18.645C2.13698 19.0271 2.47294 19.363 2.85497 19.6406C4.03786 20.5 5.72524 20.5 9.1 20.5L14.9 20.5C15.8776 20.5 16.7136 20.5 17.4368 20.4791C17.4001 20.324 17.3809 20.1621 17.3816 19.9959L17.3819 19.9339L13.0293 17.8433C12.0353 17.3546 11.6071 16.1665 12.0606 15.1561L12.9996 13.0642C13.2956 12.4048 13.9599 11.9889 14.6823 12.0106L16.9878 12.0797C18.0984 12.1131 18.9816 13.0227 18.9823 14.1338L22.9276 15.9645C23 15.0341 23 13.8791 23 12.4V11.6C23 8.22524 23 6.53786 22.1406 5.35497C21.863 4.97294 21.5271 4.63698 21.145 4.35942C19.9621 3.5 18.2748 3.5 14.9 3.5L9.1 3.5C5.72524 3.5 4.03786 3.5 2.85497 4.35942C2.47294 4.63698 2.13698 4.97294 1.85942 5.35497Z" fill="#1187C3"/>
<path fill-rule="evenodd" clip-rule="evenodd" d="M3.30078 14.3254C3.30078 13.8836 3.65895 13.5254 4.10078 13.5254L7.67402 13.5254C8.11585 13.5254 8.47402 13.8836 8.47402 14.3254C8.47402 14.7672 8.11585 15.1254 7.67402 15.1254L4.10078 15.1254C3.65895 15.1254 3.30078 14.7672 3.30078 14.3254Z" fill="#F5F6FC"/>
<path d="M22.9242 7.99316L1.07566 7.99316C1.03554 8.4901 1.01668 9.05159 1.00781 9.69316L22.9921 9.69316C22.9832 9.05159 22.9644 8.4901 22.9242 7.99316Z" fill="#484878"/>
<path d="M17.4861 14.0638L17.491 18.31L13.6481 16.5037C13.5345 16.4506 13.4461 16.3551 13.4019 16.2377C13.3577 16.1203 13.3612 15.9903 13.4115 15.8754C13.6598 15.31 14.0912 14.3272 14.3138 13.8147C14.352 13.7266 14.4157 13.6519 14.4968 13.6004C14.5779 13.5488 14.6726 13.5228 14.7686 13.5256C15.3271 13.5414 16.4001 13.568 17.0173 13.583C17.1428 13.5861 17.262 13.6382 17.3496 13.728C17.4372 13.8179 17.4862 13.9383 17.4861 14.0638Z" fill="#008BD2"/>
<path d="M22.7222 17.5216L18.8792 15.7153L18.8843 19.9615C18.8841 20.087 18.9331 20.2075 19.0206 20.2974C19.1082 20.3872 19.2275 20.4393 19.3529 20.4423C19.9699 20.4575 21.0433 20.4841 21.6017 20.4999C21.6977 20.5027 21.7924 20.4766 21.8735 20.4251C21.9546 20.3735 22.0184 20.2988 22.0566 20.2107C22.2792 19.6983 22.7104 18.7154 22.9587 18.1501C23.009 18.0352 23.0125 17.9052 22.9683 17.7878C22.9241 17.6704 22.8358 17.5747 22.7222 17.5216Z" fill="#5BC5F2"/>
</svg>
