<svg width="24" height="24" viewBox="0 0 24 24" fill="none" xmlns="http://www.w3.org/2000/svg">
<path d="M11.1526 4.77178L11.1647 15.1796L1.74549 10.7523C1.46694 10.6221 1.25035 10.3881 1.14198 10.1004C1.03361 9.81262 1.04207 9.49391 1.16554 9.21232C1.77409 7.82637 2.83142 5.41746 3.377 4.16131C3.47063 3.94524 3.62691 3.76221 3.82565 3.63588C4.02438 3.50955 4.25643 3.44573 4.49181 3.45266C5.86071 3.49143 8.49071 3.5566 10.0037 3.59345C10.3112 3.60106 10.6034 3.72861 10.8181 3.94883C11.0328 4.16906 11.1528 4.46451 11.1526 4.77206" fill="#008BD2"/>
<path d="M22.2554 13.2476L12.8359 8.82031L12.8483 19.2281C12.8479 19.5357 12.9679 19.8312 13.1825 20.0514C13.3972 20.2717 13.6895 20.3992 13.9969 20.4067C15.5094 20.4438 18.1402 20.509 19.5088 20.5478C19.7443 20.5547 19.9764 20.4908 20.1752 20.3644C20.3739 20.2381 20.5302 20.055 20.6239 19.8389C21.1695 18.583 22.2266 16.1738 22.8351 14.7881C22.9585 14.5066 22.9669 14.1879 22.8586 13.9002C22.7503 13.6125 22.5338 13.3785 22.2554 13.2482" fill="#5BC5F2"/>
</svg>
