<svg width="24" height="24" viewBox="0 0 24 24" fill="none" xmlns="http://www.w3.org/2000/svg">
<path d="M11.977 2C12.5728 2 13.1683 2.05 13.7539 2.15802C14.016 2.20636 14.2772 2.25874 14.5341 2.32258C15.8234 2.63226 17.0101 3.19355 18.1263 3.90969C18.1968 3.95485 18.2546 4.01291 18.2995 4.14195C18.2815 4.14005 18.2635 4.13829 18.2453 4.13659C18.2313 4.13528 18.2172 4.134 18.203 4.13271C18.1111 4.12436 18.0175 4.11586 17.9274 4.09679C17.5642 4.01923 17.2017 3.93781 16.8391 3.85639C16.0557 3.68044 15.2721 3.50447 14.4828 3.36775C12.212 2.98065 9.97333 3.20001 7.7603 3.79356C7.18964 3.94631 6.62557 4.1223 6.06338 4.29772C5.84219 4.36673 5.62064 4.43586 5.39974 4.50324C5.30191 4.53057 5.19949 4.55327 5.10027 4.57526L5.04693 4.58711L5.00844 4.50969C5.03824 4.48187 5.06733 4.45333 5.09618 4.42502C5.15427 4.36803 5.21145 4.31194 5.27144 4.26453C6.87509 3.04517 8.684 2.34194 10.6725 2.05807C10.6917 2.05549 10.7109 2.05283 10.73 2.05013C10.748 2.04759 10.766 2.04502 10.784 2.04244C10.9324 2.02121 11.0805 2 11.2305 2H11.977Z" fill="#FF9800"/>
<path d="M20.1212 6.76128C20.0721 6.74558 20.0223 6.73144 19.9722 6.71724C19.8783 6.69057 19.7835 6.66368 19.6914 6.6258C18.1904 6.00644 16.6637 5.44515 15.0665 5.10966C12.3147 4.52256 9.60129 4.71611 6.93282 5.54192C6.18546 5.77682 5.45215 6.05695 4.71802 6.33741C4.34319 6.4806 3.96806 6.6239 3.59081 6.76128C3.42296 6.82381 3.25511 6.8924 3.05806 6.97292L3.03916 6.98064C3.29575 6.07096 7.43315 4.1032 9.76165 3.73546C13.6745 3.1161 17.0743 4.29675 20.1469 6.6387C20.1437 6.65805 20.1388 6.67902 20.134 6.69999C20.1316 6.71048 20.1292 6.72097 20.127 6.73125C20.1248 6.74153 20.1228 6.75161 20.1212 6.76128Z" fill="#FF9800"/>
<path d="M10.634 5.2903C7.38184 5.56127 4.52093 6.82579 2 8.87097C2.00641 8.89355 2.01443 8.91452 2.02245 8.93548C2.03047 8.95645 2.03849 8.97742 2.0449 9C2.09301 8.98064 2.13952 8.9629 2.18602 8.94516C2.23253 8.92742 2.27903 8.90968 2.32715 8.89032C2.77332 8.71804 3.21702 8.53828 3.66055 8.3586C4.64537 7.95962 5.62936 7.56098 6.63774 7.24515C9.88994 6.22579 13.187 6.12902 16.4649 7.11612C17.4084 7.4021 18.3319 7.76095 19.2562 8.12012C19.7081 8.2957 20.1602 8.47137 20.6151 8.63871C20.7034 8.67325 20.7955 8.69646 20.8884 8.7199C20.917 8.72711 20.9457 8.73435 20.9743 8.74194C20.9775 8.72258 20.9824 8.70483 20.9872 8.68708C20.992 8.66934 20.9968 8.65161 21 8.63226C17.9402 6.29676 14.5469 4.96772 10.634 5.2903Z" fill="#FF9800"/>
<path d="M21.8258 10.5954C21.884 10.6085 21.9423 10.6216 22 10.6371V10.5671C21.791 10.4254 21.5843 10.2792 21.3775 10.1329C20.9893 9.85825 20.6003 9.58305 20.1956 9.33797C17.4163 7.64396 14.4217 6.77149 11.1485 7.0517C7.91328 7.33191 5.03896 8.53554 2.47486 10.5098C2.39466 10.5734 2.32291 10.6456 2.25209 10.7169C2.21672 10.7524 2.18148 10.7879 2.14564 10.8218C2.1583 10.8473 2.17729 10.8791 2.19629 10.9046L4.05763 10.064C4.06713 10.0767 4.07663 10.091 4.08612 10.1054C4.09562 10.1197 4.10512 10.134 4.11461 10.1468C3.39287 10.8982 2.68378 11.6497 2.15197 12.554C2.21528 12.5668 2.2596 12.5604 2.29125 12.5349C2.39888 12.4458 2.50651 12.3566 2.60781 12.2674C3.62712 11.3568 4.69707 10.5161 5.86833 9.80923C7.66637 8.7266 9.53404 8.51644 11.465 9.38892C12.3217 9.77846 13.1512 10.2227 13.9787 10.6659L14.1748 10.7709C14.3193 10.848 14.4635 10.9257 14.6077 11.0034C15.6069 11.5418 16.6057 12.08 17.7012 12.4139C18.9864 12.8088 20.2843 12.9043 21.5885 12.4776C21.6638 12.4508 21.7361 12.4147 21.8096 12.378L21.8486 12.3586C21.8672 12.3493 21.886 12.3401 21.905 12.3311C21.8987 12.2993 21.8924 12.2738 21.886 12.2483H21.5632C21.4151 12.2483 21.2665 12.2518 21.1179 12.2552C20.7707 12.2632 20.423 12.2713 20.0817 12.2356C18.7775 12.1019 17.6125 11.5478 16.4919 10.8982C15.1244 10.1086 13.7569 9.31249 12.3894 8.51007C12.3404 8.48322 12.3071 8.42808 12.2741 8.37336C12.2601 8.3502 12.2462 8.32711 12.2311 8.30628C12.264 8.2918 12.2969 8.27328 12.3296 8.25487C12.3975 8.21667 12.4646 8.17891 12.5287 8.17891C13.7759 8.21712 15.0105 8.34449 16.226 8.6247C18.0304 9.04502 19.7461 9.72008 21.4365 10.4779C21.5599 10.5355 21.6926 10.5654 21.8258 10.5954Z" fill="#13A89E"/>
<path d="M3.74009 17.3506L3.73564 17.365L3.72838 17.3877C3.73471 17.3972 3.74263 17.4052 3.75055 17.4131L3.75627 17.419L3.76195 17.425C3.7658 17.4293 3.76946 17.4337 3.7727 17.4386C3.83284 17.3941 3.89296 17.3511 3.95309 17.3081C4.01309 17.2652 4.07357 17.222 4.13357 17.1775C4.41893 16.9741 4.70147 16.7667 4.98388 16.5595C5.64746 16.0724 6.31076 15.5856 7.0079 15.1523C8.16016 14.4327 9.43905 14.1334 10.7686 14.5665C11.3777 14.766 11.9633 15.0401 12.5498 15.3145C12.768 15.4166 12.9863 15.5188 13.2061 15.6172C13.2525 15.6385 13.282 15.6937 13.3116 15.7489C13.3263 15.7765 13.3411 15.8041 13.358 15.8274C13.3315 15.8356 13.3044 15.8464 13.2771 15.8573C13.2194 15.8804 13.1606 15.9038 13.1048 15.9038C12.8965 15.906 12.6882 15.9014 12.4801 15.8967C12.0875 15.8879 11.6957 15.8791 11.3067 15.9166C8.88824 16.1395 6.73566 17.0565 4.82999 18.5595C4.77573 18.605 4.70531 18.6342 4.63489 18.6634C4.60672 18.6751 4.57856 18.6868 4.55143 18.6996C4.57044 18.7251 4.58945 18.7522 4.60846 18.7792C4.62736 18.8062 4.64648 18.8334 4.66539 18.8588C7.04588 17.9226 9.45171 17.1266 12.0411 17.0565C14.6559 16.9928 17.0744 17.7761 19.4802 18.6805C19.5055 18.6423 19.5245 18.5977 19.5435 18.5532L19.5387 18.5495C19.1735 18.2772 18.8066 18.0035 18.3659 17.6743C18.4292 17.6693 18.4919 17.6646 18.5541 17.66C19.2949 17.6044 19.9602 17.5545 20.5501 17.1902C20.4742 17.1393 20.4045 17.1266 20.3349 17.1266C20.1689 17.1225 20.003 17.1236 19.8374 17.1248C19.4854 17.1272 19.1344 17.1296 18.7901 17.082C17.6948 16.9291 16.7262 16.426 15.7828 15.872C15.4692 15.6872 15.1575 15.4987 14.8457 15.3101C14.0183 14.8096 13.1905 14.3088 12.326 13.8787C10.6989 13.0635 9.02752 12.9807 7.3751 13.8787C5.89362 14.6875 4.76669 15.8784 3.79169 17.2285C3.76689 17.2634 3.75375 17.3061 3.74009 17.3506Z" fill="#13A89E"/>
<path d="M21.7657 14.057C21.2023 14.3244 20.5945 14.4327 19.9677 14.4582C18.3089 14.5219 16.8211 13.9423 15.384 13.1845C14.6326 12.7911 13.8843 12.3855 13.137 11.9804L13.1343 11.979C12.8059 11.8009 12.477 11.6227 12.1488 11.4459C9.73662 10.1468 7.40043 10.2869 5.17822 11.8853C4.53006 12.3492 3.90918 12.8488 3.28872 13.348C2.96372 13.6095 2.63884 13.8709 2.31022 14.127C2.25993 14.1692 2.20687 14.2085 2.13267 14.2636C2.09477 14.2917 2.05136 14.3239 2 14.3627C2.01117 14.3132 2.01839 14.2741 2.02418 14.2428C2.0348 14.1853 2.04058 14.154 2.05698 14.1334C3.20291 12.5349 4.53244 11.1275 6.2735 10.1659C8.24881 9.07686 10.2494 9.2106 12.1931 10.185C13.1785 10.6782 14.1275 11.2558 15.0732 11.8315C15.373 12.014 15.6725 12.1963 15.9728 12.3757C17.0934 13.0444 18.233 13.6749 19.5372 13.8787C19.9715 13.9455 20.4121 13.9469 20.8545 13.9482C21.044 13.9488 21.234 13.9494 21.4238 13.9551C21.4956 13.9593 21.5674 13.9579 21.6391 13.9565C21.675 13.9558 21.7109 13.9551 21.7467 13.9551C21.755 13.9759 21.7579 13.9995 21.7606 14.0222C21.7621 14.0342 21.7635 14.046 21.7657 14.057Z" fill="#13A89E"/>
<path d="M21.3252 15.7042C21.3687 15.6879 21.4121 15.6715 21.4555 15.6555C21.4519 15.6336 21.4462 15.6116 21.4408 15.5909C21.4368 15.5756 21.4329 15.5608 21.4302 15.5472C21.392 15.5472 21.3538 15.5451 21.3158 15.543C21.2406 15.5387 21.1662 15.5345 21.0947 15.5472C20.2336 15.681 19.3916 15.5345 18.5686 15.2925C17.4163 14.9554 16.406 14.3328 15.3956 13.7102L15.1624 13.5667C14.9824 13.4563 14.8034 13.3449 14.6246 13.2335C13.7092 12.6632 12.7986 12.096 11.7816 11.7071C10.1608 11.0893 8.55907 11.0256 6.96996 11.8217C5.18459 12.7133 3.86771 14.1271 2.70912 15.7192C2.69108 15.7419 2.68589 15.7775 2.67982 15.8191L2.67814 15.8306C2.67722 15.8367 2.67627 15.8429 2.67523 15.8493L2.67336 15.8602L2.67113 15.872C2.68546 15.8706 2.69849 15.8695 2.71029 15.8685C2.75066 15.865 2.77673 15.8628 2.79142 15.8529C2.91172 15.7574 3.03834 15.6555 3.15863 15.5536C4.1906 14.6684 5.24156 13.8278 6.43181 13.1654C7.88797 12.3566 9.40744 12.0955 10.9965 12.6878C11.6857 12.9455 12.3572 13.274 13.0224 13.5995L13.0985 13.6367C13.5727 13.8693 14.0426 14.1132 14.5127 14.3572C15.3165 14.7745 16.1208 15.1919 16.9478 15.5536C18.2014 16.1013 19.5309 16.235 20.8794 15.8593C21.0308 15.8151 21.1785 15.7595 21.3252 15.7042Z" fill="#13A89E"/>
<path d="M18.3787 19.9672L18.7268 20.0688C16.6122 18.343 14.2317 17.4259 11.4967 17.7125C9.35042 17.9354 7.45742 18.776 5.83032 20.2153C7.93225 19.5593 10.0278 18.9097 12.2564 18.8524C14.3809 18.7983 16.3753 19.3814 18.3787 19.9672Z" fill="#13A89E"/>
<path d="M16.2889 20.9189C15.0058 20.667 13.724 20.4153 12.402 20.4509C10.7898 20.4947 9.2326 20.8833 7.65227 21.2777L7.57141 21.2979C7.76135 20.6738 9.98356 19.572 11.3891 19.3619C13.6113 19.0307 15.5613 19.6612 17.2707 21.1068C16.943 21.0474 16.6157 20.9831 16.2889 20.9189Z" fill="#13A89E"/>
<path d="M9.57203 21.8137C10.5154 20.5337 14.4407 20.5337 15.6816 21.8137C15.3143 22.0621 10.0215 22.0621 9.57203 21.8137Z" fill="#13A89E"/>
</svg>
