<svg width="24" height="24" viewBox="0 0 24 24" fill="none" xmlns="http://www.w3.org/2000/svg">
<path d="M9.05352 4.06222L8.3385 6.16623H12.605L11.9995 4.08748C11.9249 3.83137 11.6902 3.65527 11.4234 3.65527H9.62161C9.36464 3.65527 9.1362 3.81891 9.05352 4.06222Z" fill="#525282"/>
<path d="M19.9501 16.7522C19.9501 15.8133 19.1889 15.0522 18.2501 15.0522C18.1914 15.0522 18.1334 15.0552 18.0762 15.061C17.219 15.148 16.5501 15.872 16.5501 16.7522C16.55 17.6911 17.3112 18.4522 18.25 18.4522C19.1889 18.4522 19.9501 17.6911 19.9501 16.7522Z" fill="#525282"/>
<path d="M7.95006 16.7522C7.95006 16.0409 7.51327 15.4317 6.89329 15.1781C6.69487 15.0969 6.47767 15.0522 6.25004 15.0522C5.78061 15.0522 5.35561 15.2425 5.04798 15.5501C4.74034 15.8577 4.55005 16.2827 4.55005 16.7522C4.55005 17.6911 5.31116 18.4522 6.25005 18.4522C7.18893 18.4522 7.95006 17.6911 7.95006 16.7522Z" fill="#525282"/>
<path d="M1.50604 9.12203C0.781546 9.24145 0.25 9.86779 0.25 10.6021L0.250029 14.1906C0.250029 15.1083 0.874594 15.9083 1.76493 16.1309L3.26006 16.5047C3.3859 14.9636 4.67648 13.7521 6.25 13.7521C7.90685 13.7521 9.25 15.0953 9.25 16.7521H15.25C15.25 15.0953 16.5931 13.7521 18.25 13.7521C19.9069 13.7521 21.25 15.0953 21.25 16.7521L21.75 16.7521C22.8546 16.7521 23.75 15.8567 23.75 14.7521V13.0343C23.75 11.6858 22.8502 10.503 21.5506 10.1431L16.7038 8.80089C16.4079 8.71894 16.1427 8.55143 15.9416 8.31938L15.8223 8.18177C12.8474 4.74918 7.55136 4.65837 4.46053 7.98696C3.99994 8.48298 3.38758 8.81189 2.7197 8.92198L1.50604 9.12203Z" fill="#FFC40D"/>
<path d="M22.1766 11.7324V10.3949C22.7363 10.6973 23.181 11.1685 23.4529 11.7324H22.1766Z" fill="#343464"/>
<path d="M20.5925 11.7324H22.1766V13.3164H20.5925V11.7324Z" fill="#343464"/>
<path d="M19.0085 11.7324V10.1483H20.5925V11.7324H19.0085Z" fill="#343464"/>
<path d="M17.4245 11.7324H19.0085V13.3164H17.4245V11.7324Z" fill="#343464"/>
<path d="M15.8404 11.7324V10.1483H17.4245V11.7324H15.8404Z" fill="#343464"/>
<path d="M14.2564 11.7324H15.8404V13.3164H14.2564V11.7324Z" fill="#343464"/>
<path d="M12.6723 11.7324V10.1483H14.2564V11.7324H12.6723Z" fill="#343464"/>
<path d="M11.0883 11.7324H12.6723V13.3164H11.0883V11.7324Z" fill="#343464"/>
<path d="M9.50425 11.7324V10.1483H11.0883V11.7324H9.50425Z" fill="#343464"/>
<path d="M7.92021 11.7324H9.50425V13.3164H7.92021L7.92021 11.7324Z" fill="#343464"/>
<path d="M6.33617 11.7324V10.1483H7.92021V11.7324H6.33617Z" fill="#343464"/>
<path d="M4.75213 11.7324H6.33617V13.3164H4.75213V11.7324Z" fill="#343464"/>
<path d="M4.75213 11.7324V10.1483H3.16809V11.7323L4.75213 11.7324Z" fill="#343464"/>
<path d="M0.25 10.9539H1.86688C2.3144 10.9539 2.67718 11.3166 2.67718 11.7642C2.67718 12.2117 2.3144 12.5745 1.86688 12.5745H0.25V10.9539Z" fill="#E2263F"/>
</svg>
