<svg width="24" height="24" viewBox="0 0 24 24" fill="none" xmlns="http://www.w3.org/2000/svg">
<path d="M7 12.6488C7 12.0123 7.4752 11.476 8.10705 11.3995C9.36442 11.2471 10.6356 11.2471 11.8929 11.3995C12.5248 11.476 13 12.0123 13 12.6488V17.6912C13 18.3277 12.5248 18.864 11.8929 18.9406C10.6356 19.093 9.36442 19.093 8.10705 18.9406C7.4752 18.864 7 18.3277 7 17.6912L7 12.6488Z" fill="#8E8D8D"/>
<path fill-rule="evenodd" clip-rule="evenodd" d="M7.00156 2.06953C5.28948 2.06953 3.90156 3.45745 3.90156 5.16953L3.90156 18.6208C3.90156 20.1825 5.07581 21.4945 6.62793 21.6669C10.1994 22.0637 13.8038 22.0637 17.3752 21.6669C18.9273 21.4945 20.1016 20.1825 20.1016 18.6208L20.1016 9.57265C20.1016 8.32714 19.5354 7.14916 18.5628 6.37109L14.035 2.74884C13.4853 2.3091 12.8024 2.06953 12.0984 2.06953L7.00156 2.06953ZM2.10156 5.16953C2.10156 2.46334 4.29537 0.269531 7.00156 0.269531L12.0984 0.269531C13.2111 0.269531 14.2906 0.648207 15.1594 1.34327L19.6873 4.96553C21.0868 6.08518 21.9016 7.78033 21.9016 9.57265L21.9016 18.6208C21.9016 21.0997 20.0377 23.1822 17.574 23.4559C13.8704 23.8674 10.1327 23.8674 6.42916 23.4559C3.96545 23.1822 2.10156 21.0997 2.10156 18.6208L2.10156 5.16953Z" fill="#FC4F00"/>
</svg>
