<svg width="92" height="92" viewBox="0 0 92 92" fill="none" xmlns="http://www.w3.org/2000/svg">
<rect width="92" height="92" rx="46" fill="#2B73E3" fill-opacity="0.1"/>
<path d="M56.7738 47.2463C56.8008 45.7058 57.2158 44.197 57.9802 42.8593C58.7446 41.5216 59.8338 40.3982 61.1472 39.5928C60.3181 38.4092 59.2208 37.4384 57.945 36.7598C56.6692 36.0812 55.2509 35.7139 53.8061 35.6879C50.6822 35.3755 47.7145 37.5622 46.1526 37.5622C44.5906 37.5622 42.0915 35.6879 39.5924 35.8441C37.9224 35.9056 36.2967 36.3983 34.8735 37.2741C33.4502 38.1499 32.2779 39.3792 31.4704 40.8423C27.8779 46.9339 30.5332 55.9931 33.9695 60.9913C35.6876 63.4904 37.7181 66.1457 40.2172 65.9895C42.7163 65.8333 43.6535 64.4276 46.7774 64.4276C49.745 64.4276 50.6822 65.9895 53.3375 65.9895C55.9928 65.9895 57.7109 63.4904 59.4291 61.1475C60.6905 59.4537 61.6423 57.55 62.2405 55.5245C62.0812 55.2122 56.93 53.1816 56.7738 47.2463ZM51.7756 32.4079C52.5269 31.5316 53.0939 30.5129 53.4428 29.4126C53.7917 28.3123 53.9152 27.153 53.8061 26.0039C51.5536 26.3087 49.466 27.3525 47.8707 28.9716C47.1436 29.8006 46.5895 30.7664 46.2408 31.8125C45.8921 32.8585 45.7559 33.9637 45.8402 35.0631C46.9734 35.1593 48.1125 34.9661 49.1506 34.5016C50.1888 34.0372 51.092 33.3168 51.7756 32.4079Z" fill="#2B73E3"/>
</svg>
