<svg width="64" height="64" viewBox="0 0 64 64" fill="none" xmlns="http://www.w3.org/2000/svg">
<rect x="10" y="10" width="44" height="44" rx="22" fill="#2C7EFD" fill-opacity="0.15"/>
<rect x="5" y="5" width="54" height="54" rx="27" stroke="#2B73E3" stroke-opacity="0.05" stroke-width="10"/>
<path fill-rule="evenodd" clip-rule="evenodd" d="M31.6268 26.132C32.039 24.7184 33.3445 23.6855 34.8912 23.6855C36.4379 23.6855 37.7434 24.7184 38.1557 26.132H40.1095C40.6066 26.132 41.0095 26.5349 41.0095 27.032C41.0095 27.529 40.6066 27.932 40.1095 27.932H38.185C37.8088 29.4002 36.4768 30.4855 34.8912 30.4855C33.3057 30.4855 31.9736 29.4002 31.5974 27.932L23.8883 27.932C23.3912 27.932 22.9883 27.529 22.9883 27.032C22.9883 26.5349 23.3912 26.132 23.8883 26.132H31.6268ZM34.8912 25.4855C34.0076 25.4855 33.2912 26.2019 33.2912 27.0855C33.2912 27.9692 34.0076 28.6855 34.8912 28.6855C35.7749 28.6855 36.4912 27.9692 36.4912 27.0855C36.4912 26.2019 35.7749 25.4855 34.8912 25.4855Z" fill="#2B73E3"/>
<path fill-rule="evenodd" clip-rule="evenodd" d="M25.9229 35.9816C26.3284 34.5575 27.6391 33.5146 29.1933 33.5146C30.7475 33.5146 32.0581 34.5575 32.4637 35.9816L40.1095 35.9816C40.6066 35.9816 41.0095 36.3846 41.0095 36.8816C41.0095 37.3787 40.6066 37.7816 40.1095 37.7816L32.4817 37.7816C32.0984 39.2394 30.7714 40.3146 29.1933 40.3146C27.6151 40.3146 26.2881 39.2394 25.9048 37.7816H23.8883C23.3912 37.7816 22.9883 37.3787 22.9883 36.8816C22.9883 36.3846 23.3912 35.9816 23.8883 35.9816H25.9229ZM29.1933 35.3146C28.3096 35.3146 27.5933 36.031 27.5933 36.9146C27.5933 37.7983 28.3096 38.5146 29.1933 38.5146C30.0769 38.5146 30.7933 37.7983 30.7933 36.9146C30.7933 36.031 30.0769 35.3146 29.1933 35.3146Z" fill="#2B73E3"/>
</svg>
