<svg width="24" height="24" viewBox="0 0 24 24" fill="none" xmlns="http://www.w3.org/2000/svg">
<path d="M7 12.6488C7 12.0123 7.4752 11.476 8.10705 11.3995V11.3995C9.36442 11.2471 10.6356 11.2471 11.8929 11.3995V11.3995C12.5248 11.476 13 12.0123 13 12.6488V17.6912C13 18.3277 12.5248 18.864 11.8929 18.9406V18.9406C10.6356 19.093 9.36442 19.093 8.10705 18.9406V18.9406C7.4752 18.864 7 18.3277 7 17.6912L7 12.6488Z" fill="#FF9800"/>
<path fill-rule="evenodd" clip-rule="evenodd" d="M7.0001 2.06953C5.28802 2.06953 3.9001 3.45745 3.9001 5.16953L3.9001 18.6208C3.9001 20.1825 5.07434 21.4945 6.62647 21.6669C10.1979 22.0637 13.8023 22.0637 17.3737 21.6669C18.9259 21.4945 20.1001 20.1825 20.1001 18.6208L20.1001 9.57265C20.1001 8.32714 19.5339 7.14916 18.5613 6.37109L14.0335 2.74884C13.4839 2.3091 12.8009 2.06953 12.097 2.06953L7.0001 2.06953ZM2.1001 5.16953C2.1001 2.46334 4.2939 0.269531 7.0001 0.269531L12.097 0.269531C13.2096 0.269531 14.2891 0.648207 15.158 1.34327L19.6858 4.96553C21.0854 6.08518 21.9001 7.78033 21.9001 9.57265L21.9001 18.6208C21.9001 21.0997 20.0362 23.1822 17.5725 23.4559C13.869 23.8674 10.1312 23.8674 6.42769 23.4559C3.96398 23.1822 2.1001 21.0997 2.1001 18.6208L2.1001 5.16953Z" fill="#13A89E"/>
</svg>
