<svg width="14" height="17" viewBox="0 0 14 17" fill="none" xmlns="http://www.w3.org/2000/svg">
<path opacity="0.8" d="M13.5621 5.68981C13.4857 5.73438 11.6671 6.67491 11.6671 8.76028C11.7528 11.1385 13.9621 11.9725 14 11.9725C13.9621 12.0171 13.6665 13.1087 12.7907 14.253C12.0956 15.2386 11.3242 16.2324 10.1528 16.2324C9.0385 16.2324 8.6385 15.5755 7.35278 15.5755C5.97203 15.5755 5.58135 16.2324 4.5242 16.2324C3.35277 16.2324 2.52419 15.1854 1.79127 14.209C0.839096 12.931 0.0297778 10.9255 0.00120634 8.99989C-0.0180484 7.97949 0.19189 6.97645 0.72481 6.12448C1.47699 4.93507 2.81985 4.12766 4.28631 4.10104C5.40992 4.06573 6.40992 4.81989 7.09563 4.81989C7.75278 4.81989 8.98135 4.10104 10.3714 4.10104C10.9714 4.10162 12.5714 4.27004 13.5621 5.68981ZM7.0006 3.8973C6.8006 2.96546 7.35278 2.03361 7.86706 1.43919C8.52421 0.72034 9.5621 0.232422 10.4571 0.232422C10.5143 1.16427 10.1522 2.07818 9.50496 2.74378C8.92421 3.46263 7.92421 4.0038 7.0006 3.8973Z" fill="white"/>
</svg>
