<svg width="52" height="52" viewBox="0 0 52 52" fill="none" xmlns="http://www.w3.org/2000/svg">
<path d="M25.6722 25.7585L14.1055 38.0349C14.1065 38.0369 14.1065 38.0403 14.1077 38.0423C14.4629 39.3754 15.6796 40.3564 17.1245 40.3564C17.7025 40.3564 18.2446 40.2 18.7096 39.9262L18.7465 39.9044L31.7658 32.3921L25.6722 25.7585Z" fill="#EB3131"/>
<path d="M37.3747 23.669L37.3638 23.6613L31.7427 20.4032L25.4102 26.0383L31.7654 32.3916L37.356 29.1662C38.3359 28.6358 39.002 27.6028 39.002 26.412C39.002 25.2278 38.3457 24.2003 37.3747 23.669Z" fill="#F6B60B"/>
<path d="M14.1065 14.7353C14.0369 14.9916 14 15.2611 14 15.5392V37.2323C14 37.5104 14.0369 37.7797 14.1076 38.0352L26.0708 26.0728L14.1065 14.7353Z" fill="#5778C5"/>
<path d="M25.7581 26.3857L31.744 20.4007L18.74 12.8612C18.2674 12.5777 17.7155 12.4147 17.1256 12.4147C15.6808 12.4147 14.4618 13.3979 14.1065 14.732C14.1065 14.7331 14.1055 14.7342 14.1055 14.7354L25.7581 26.3857Z" fill="#3BAD49"/>
</svg>
