<svg width="104" height="32" viewBox="0 0 104 32" fill="none" xmlns="http://www.w3.org/2000/svg">
<g opacity="0.6">
<path d="M65.051 24.1021C64.8956 24.1021 64.7498 24.0724 64.6136 24.0129C64.4773 23.9534 64.3574 23.8728 64.2538 23.7712C64.1522 23.6676 64.0716 23.5467 64.0121 23.4086C63.9546 23.2704 63.9258 23.1237 63.9258 22.9683C63.9258 22.8129 63.9546 22.6671 64.0121 22.5309C64.0716 22.3946 64.1522 22.2757 64.2538 22.174C64.3574 22.0704 64.4773 21.9898 64.6136 21.9323C64.7498 21.8728 64.8956 21.8431 65.051 21.8431C65.2064 21.8431 65.3531 21.8728 65.4913 21.9323C65.6294 21.9898 65.7493 22.0704 65.851 22.174C65.9546 22.2757 66.0361 22.3946 66.0956 22.5309C66.1551 22.6671 66.1848 22.8129 66.1848 22.9683C66.1848 23.1237 66.1551 23.2704 66.0956 23.4086C66.0361 23.5467 65.9546 23.6676 65.851 23.7712C65.7493 23.8728 65.6294 23.9534 65.4913 24.0129C65.3531 24.0724 65.2064 24.1021 65.051 24.1021ZM65.051 22.4532C64.98 22.4532 64.9128 22.4666 64.8495 22.4935C64.7881 22.5203 64.7344 22.5577 64.6884 22.6057C64.6423 22.6517 64.6059 22.7064 64.579 22.7697C64.5522 22.8311 64.5387 22.8973 64.5387 22.9683C64.5387 23.0393 64.5522 23.1064 64.579 23.1697C64.6059 23.233 64.6423 23.2887 64.6884 23.3366C64.7344 23.3827 64.7881 23.4201 64.8495 23.4489C64.9128 23.4757 64.98 23.4891 65.051 23.4891C65.122 23.4891 65.1891 23.4757 65.2524 23.4489C65.3157 23.4201 65.3714 23.3827 65.4193 23.3366C65.4673 23.2887 65.5047 23.233 65.5316 23.1697C65.5603 23.1064 65.5747 23.0393 65.5747 22.9683C65.5747 22.8973 65.5603 22.8311 65.5316 22.7697C65.5047 22.7064 65.4673 22.6517 65.4193 22.6057C65.3714 22.5577 65.3157 22.5203 65.2524 22.4935C65.1891 22.4666 65.122 22.4532 65.051 22.4532Z" fill="#919AAF"/>
<path d="M69.5309 20.4129C69.5367 20.4301 69.5491 20.4733 69.5683 20.5424C69.5875 20.6095 69.6076 20.6901 69.6287 20.7841C69.6518 20.8781 69.671 20.9798 69.6863 21.0891C69.7036 21.1966 69.7122 21.2973 69.7122 21.3913C69.7122 21.5812 69.6805 21.7462 69.6172 21.8863C69.5558 22.0263 69.4753 22.1424 69.3755 22.2345C69.2757 22.3265 69.1626 22.3946 69.0359 22.4388C68.9093 22.4829 68.7827 22.505 68.6561 22.505C68.516 22.505 68.3865 22.4848 68.2676 22.4445C68.1486 22.4023 68.0402 22.3505 67.9424 22.2891C67.9808 22.6421 68.0038 22.974 68.0115 23.2848C68.0191 23.5956 68.023 23.8757 68.023 24.1251V24.3381C68.0191 24.388 68.0172 24.4426 68.0172 24.5021C68.0172 24.5616 68.0172 24.6134 68.0172 24.6575H67.3956V24.0043C67.3956 23.7779 67.3908 23.5342 67.3812 23.2733C67.3736 23.0105 67.3544 22.7361 67.3237 22.4503C67.293 22.1625 67.2479 21.8642 67.1884 21.5553C67.129 21.2464 67.0484 20.9299 66.9467 20.6057L67.5453 20.4129L67.6719 20.7985C67.6719 20.8004 67.6805 20.8292 67.6978 20.8848C67.7151 20.9385 67.741 21.0057 67.7755 21.0862C67.81 21.1649 67.8542 21.2512 67.9079 21.3452C67.9616 21.4373 68.0249 21.5227 68.0978 21.6014C68.1707 21.68 68.2532 21.7462 68.3453 21.7999C68.4374 21.8517 68.541 21.8776 68.6561 21.8776C68.681 21.8776 68.7175 21.8738 68.7654 21.8661C68.8134 21.8565 68.8614 21.8354 68.9093 21.8028C68.9573 21.7702 68.9995 21.7222 69.0359 21.6589C69.0724 21.5937 69.0906 21.5045 69.0906 21.3913C69.0906 21.3299 69.0849 21.2618 69.0733 21.187C69.0618 21.1102 69.0474 21.0354 69.0302 20.9625C69.0129 20.8877 68.9947 20.8186 68.9755 20.7553C68.9582 20.692 68.9439 20.6421 68.9323 20.6057L69.5309 20.4129Z" fill="#919AAF"/>
<path d="M70.7825 24.6517C70.7825 24.5846 70.7825 24.5079 70.7825 24.4215C70.7825 24.3333 70.7844 24.2508 70.7883 24.174V24.1769C70.7902 24.0848 70.7912 23.9899 70.7912 23.892C70.7931 23.7923 70.794 23.6877 70.794 23.5784C70.794 23.3673 70.7902 23.1448 70.7825 22.9107C70.7768 22.6767 70.7605 22.434 70.7336 22.1827C70.7087 21.9313 70.6713 21.6723 70.6214 21.4057C70.5734 21.139 70.5063 20.8685 70.4199 20.5942L71.0127 20.4013C71.1067 20.7025 71.1806 20.997 71.2343 21.2848C71.29 21.5707 71.3312 21.8479 71.3581 22.1165C71.3868 22.3831 71.4051 22.6402 71.4127 22.8877C71.4204 23.1333 71.4243 23.3664 71.4243 23.587C71.4243 23.6963 71.4233 23.8009 71.4214 23.9007C71.4214 24.0004 71.4204 24.0963 71.4185 24.1884C71.4147 24.2652 71.4127 24.3457 71.4127 24.4302C71.4127 24.5146 71.4127 24.5884 71.4127 24.6517H70.7825Z" fill="#919AAF"/>
<path d="M76.6631 22.364C76.7341 22.575 76.8108 22.7774 76.8933 22.9712C76.9777 23.1649 77.066 23.3491 77.1581 23.5237C77.2502 23.6983 77.3442 23.8604 77.4401 24.01C77.5379 24.1597 77.6377 24.2949 77.7394 24.4158L77.2531 24.8187C77.1437 24.6863 77.0353 24.5309 76.9279 24.3525C76.8204 24.174 76.7159 23.9822 76.6142 23.7769C76.5144 23.5697 76.4185 23.3529 76.3264 23.1265C76.2343 22.9002 76.148 22.6728 76.0674 22.4445C76.0521 22.4004 76.0387 22.363 76.0271 22.3323C76.0176 22.3016 76.008 22.2728 75.9984 22.246C75.9907 22.2172 75.9821 22.1884 75.9725 22.1596C75.9629 22.1289 75.9514 22.0915 75.9379 22.0474C75.9168 22.1146 75.8948 22.1817 75.8717 22.2488C75.8487 22.316 75.8257 22.3812 75.8027 22.4445C75.724 22.669 75.6386 22.8944 75.5466 23.1208C75.4564 23.3472 75.3605 23.564 75.2588 23.7712C75.159 23.9784 75.0554 24.1721 74.948 24.3525C74.8425 24.5309 74.735 24.6853 74.6257 24.8158L74.1336 24.4158C74.2334 24.2987 74.3312 24.1644 74.4271 24.0129C74.525 23.8613 74.6199 23.6973 74.712 23.5208C74.8041 23.3443 74.8924 23.1592 74.9768 22.9654C75.0612 22.7697 75.1398 22.5692 75.2127 22.364C75.2722 22.1894 75.3269 22.0148 75.3768 21.8402C75.4267 21.6637 75.4698 21.4939 75.5063 21.3309C75.5427 21.1678 75.5705 21.0153 75.5897 20.8733C75.6108 20.7313 75.6214 20.6066 75.6214 20.4992H76.2487C76.2487 20.6085 76.2583 20.7342 76.2775 20.8762C76.2986 21.0162 76.3274 21.1668 76.3638 21.328C76.4003 21.4891 76.4435 21.658 76.4933 21.8345C76.5451 22.009 76.6017 22.1855 76.6631 22.364Z" fill="#919AAF"/>
<path d="M80.864 21.9927C80.9791 21.9927 81.0904 21.9879 81.1978 21.9783C81.3072 21.9687 81.4194 21.9534 81.5345 21.9323L81.6784 22.4992C81.5863 22.5261 81.4942 22.55 81.4022 22.5711C81.312 22.5903 81.217 22.6066 81.1173 22.6201C81.0194 22.6335 80.9139 22.6441 80.8007 22.6517C80.6875 22.6594 80.5628 22.6632 80.4266 22.6632C80.2175 22.6632 80.0055 22.646 79.7906 22.6114C79.5758 22.5769 79.3724 22.5136 79.1805 22.4215C79.194 22.5807 79.2045 22.7256 79.2122 22.856C79.2218 22.9865 79.2285 23.1093 79.2323 23.2244C79.2381 23.3395 79.2419 23.4508 79.2439 23.5582C79.2458 23.6637 79.2467 23.7731 79.2467 23.8863C79.2467 23.9975 79.2458 24.1155 79.2439 24.2402C79.2439 24.3649 79.2439 24.5031 79.2439 24.6546H78.6165C78.6165 24.3534 78.6156 24.0724 78.6136 23.8114C78.6117 23.5486 78.605 23.3011 78.5935 23.069C78.5839 22.8349 78.5695 22.6134 78.5503 22.4042C78.5311 22.1932 78.5052 21.9879 78.4726 21.7884C78.44 21.5889 78.3988 21.3922 78.3489 21.1985C78.3009 21.0028 78.2434 20.8042 78.1762 20.6028L78.7834 20.41C78.8314 20.5654 78.8726 20.7198 78.9072 20.8733C78.9436 21.0268 78.9839 21.186 79.028 21.351C79.0472 21.4316 79.0722 21.5006 79.1028 21.5582C79.1335 21.6157 79.1681 21.6647 79.2064 21.705C79.2448 21.7452 79.287 21.7788 79.3331 21.8057C79.381 21.8325 79.4328 21.8565 79.4885 21.8776C79.4616 21.8105 79.4405 21.7366 79.4252 21.656C79.4117 21.5755 79.405 21.4862 79.405 21.3884C79.405 21.2196 79.4376 21.068 79.5029 20.9337C79.57 20.7975 79.6563 20.6824 79.7618 20.5884C79.8674 20.4925 79.9863 20.4196 80.1187 20.3697C80.253 20.3179 80.3882 20.292 80.5244 20.292C80.6338 20.292 80.7316 20.3045 80.818 20.3294C80.9043 20.3543 80.9858 20.387 81.0626 20.4272C81.1412 20.4675 81.217 20.5126 81.2899 20.5625C81.3647 20.6105 81.4444 20.6584 81.5288 20.7064L81.2324 21.2359C81.1307 21.1764 81.0444 21.1265 80.9734 21.0862C80.9043 21.046 80.8429 21.0133 80.7892 20.9884C80.7355 20.9635 80.6875 20.9462 80.6453 20.9366C80.605 20.927 80.5647 20.9222 80.5244 20.9222C80.465 20.9222 80.4026 20.9328 80.3374 20.9539C80.2741 20.975 80.2156 21.0057 80.1619 21.046C80.1081 21.0862 80.0631 21.1352 80.0266 21.1927C79.9921 21.2503 79.9748 21.3155 79.9748 21.3884C79.9748 21.5074 80.0017 21.6062 80.0554 21.6848C80.1091 21.7615 80.1782 21.8229 80.2626 21.869C80.347 21.915 80.442 21.9476 80.5475 21.9668C80.6549 21.9841 80.7604 21.9927 80.864 21.9927Z" fill="#919AAF"/>
<path d="M83.5308 24.1021C83.3754 24.1021 83.2296 24.0724 83.0934 24.0129C82.9572 23.9534 82.8373 23.8728 82.7337 23.7712C82.632 23.6676 82.5514 23.5467 82.4919 23.4086C82.4344 23.2704 82.4056 23.1237 82.4056 22.9683C82.4056 22.8129 82.4344 22.6671 82.4919 22.5309C82.5514 22.3946 82.632 22.2757 82.7337 22.174C82.8373 22.0704 82.9572 21.9898 83.0934 21.9323C83.2296 21.8728 83.3754 21.8431 83.5308 21.8431C83.6862 21.8431 83.8329 21.8728 83.9711 21.9323C84.1092 21.9898 84.2291 22.0704 84.3308 22.174C84.4344 22.2757 84.5159 22.3946 84.5754 22.5309C84.6349 22.6671 84.6646 22.8129 84.6646 22.9683C84.6646 23.1237 84.6349 23.2704 84.5754 23.4086C84.5159 23.5467 84.4344 23.6676 84.3308 23.7712C84.2291 23.8728 84.1092 23.9534 83.9711 24.0129C83.8329 24.0724 83.6862 24.1021 83.5308 24.1021ZM83.5308 22.4532C83.4598 22.4532 83.3927 22.4666 83.3293 22.4935C83.268 22.5203 83.2142 22.5577 83.1682 22.6057C83.1222 22.6517 83.0857 22.7064 83.0588 22.7697C83.032 22.8311 83.0186 22.8973 83.0186 22.9683C83.0186 23.0393 83.032 23.1064 83.0588 23.1697C83.0857 23.233 83.1222 23.2887 83.1682 23.3366C83.2142 23.3827 83.268 23.4201 83.3293 23.4489C83.3927 23.4757 83.4598 23.4891 83.5308 23.4891C83.6018 23.4891 83.6689 23.4757 83.7322 23.4489C83.7955 23.4201 83.8512 23.3827 83.8991 23.3366C83.9471 23.2887 83.9845 23.233 84.0114 23.1697C84.0401 23.1064 84.0545 23.0393 84.0545 22.9683C84.0545 22.8973 84.0401 22.8311 84.0114 22.7697C83.9845 22.7064 83.9471 22.6517 83.8991 22.6057C83.8512 22.5577 83.7955 22.5203 83.7322 22.4935C83.6689 22.4666 83.6018 22.4532 83.5308 22.4532Z" fill="#919AAF"/>
<path d="M87.9273 22.364C87.9983 22.575 88.075 22.7774 88.1575 22.9712C88.2419 23.1649 88.3302 23.3491 88.4222 23.5237C88.5143 23.6983 88.6083 23.8604 88.7043 24.01C88.8021 24.1597 88.9019 24.2949 89.0035 24.4158L88.5172 24.8187C88.4079 24.6863 88.2995 24.5309 88.192 24.3525C88.0846 24.174 87.98 23.9822 87.8783 23.7769C87.7786 23.5697 87.6827 23.3529 87.5906 23.1265C87.4985 22.9002 87.4122 22.6728 87.3316 22.4445C87.3162 22.4004 87.3028 22.363 87.2913 22.3323C87.2817 22.3016 87.2721 22.2728 87.2625 22.246C87.2548 22.2172 87.2462 22.1884 87.2366 22.1596C87.227 22.1289 87.2155 22.0915 87.2021 22.0474C87.181 22.1146 87.1589 22.1817 87.1359 22.2488C87.1129 22.316 87.0899 22.3812 87.0668 22.4445C86.9882 22.669 86.9028 22.8944 86.8107 23.1208C86.7205 23.3472 86.6246 23.564 86.5229 23.7712C86.4232 23.9784 86.3196 24.1721 86.2121 24.3525C86.1066 24.5309 85.9992 24.6853 85.8898 24.8158L85.3978 24.4158C85.4975 24.2987 85.5954 24.1644 85.6913 24.0129C85.7891 23.8613 85.8841 23.6973 85.9762 23.5208C86.0683 23.3443 86.1565 23.1592 86.2409 22.9654C86.3253 22.7697 86.404 22.5692 86.4769 22.364C86.5364 22.1894 86.591 22.0148 86.6409 21.8402C86.6908 21.6637 86.734 21.4939 86.7704 21.3309C86.8069 21.1678 86.8347 21.0153 86.8539 20.8733C86.875 20.7313 86.8855 20.6066 86.8855 20.4992H87.5129C87.5129 20.6085 87.5225 20.7342 87.5417 20.8762C87.5628 21.0162 87.5915 21.1668 87.628 21.328C87.6644 21.4891 87.7076 21.658 87.7575 21.8345C87.8093 22.009 87.8659 22.1855 87.9273 22.364Z" fill="#919AAF"/>
<path d="M90.8015 24.1021C90.6461 24.1021 90.5003 24.0724 90.3641 24.0129C90.2279 23.9534 90.108 23.8728 90.0044 23.7712C89.9027 23.6676 89.8222 23.5467 89.7627 23.4086C89.7051 23.2704 89.6763 23.1237 89.6763 22.9683C89.6763 22.8129 89.7051 22.6671 89.7627 22.5309C89.8222 22.3946 89.9027 22.2757 90.0044 22.174C90.108 22.0704 90.2279 21.9898 90.3641 21.9323C90.5003 21.8728 90.6461 21.8431 90.8015 21.8431C90.9569 21.8431 91.1037 21.8728 91.2418 21.9323C91.38 21.9898 91.4999 22.0704 91.6015 22.174C91.7051 22.2757 91.7867 22.3946 91.8462 22.5309C91.9056 22.6671 91.9354 22.8129 91.9354 22.9683C91.9354 23.1237 91.9056 23.2704 91.8462 23.4086C91.7867 23.5467 91.7051 23.6676 91.6015 23.7712C91.4999 23.8728 91.38 23.9534 91.2418 24.0129C91.1037 24.0724 90.9569 24.1021 90.8015 24.1021ZM90.8015 22.4532C90.7306 22.4532 90.6634 22.4666 90.6001 22.4935C90.5387 22.5203 90.485 22.5577 90.4389 22.6057C90.3929 22.6517 90.3565 22.7064 90.3296 22.7697C90.3027 22.8311 90.2893 22.8973 90.2893 22.9683C90.2893 23.0393 90.3027 23.1064 90.3296 23.1697C90.3565 23.233 90.3929 23.2887 90.4389 23.3366C90.485 23.3827 90.5387 23.4201 90.6001 23.4489C90.6634 23.4757 90.7306 23.4891 90.8015 23.4891C90.8725 23.4891 90.9397 23.4757 91.003 23.4489C91.0663 23.4201 91.1219 23.3827 91.1699 23.3366C91.2178 23.2887 91.2553 23.233 91.2821 23.1697C91.3109 23.1064 91.3253 23.0393 91.3253 22.9683C91.3253 22.8973 91.3109 22.8311 91.2821 22.7697C91.2553 22.7064 91.2178 22.6517 91.1699 22.6057C91.1219 22.5577 91.0663 22.5203 91.003 22.4935C90.9397 22.4666 90.8725 22.4532 90.8015 22.4532Z" fill="#919AAF"/>
</g>
<g opacity="0.6">
<path d="M2.96673 21.7017L2.3645 21.8084C2.33932 21.7313 2.29932 21.658 2.2445 21.5884C2.19117 21.5187 2.11857 21.4617 2.02672 21.4172C1.93487 21.3728 1.82005 21.3506 1.68227 21.3506C1.49412 21.3506 1.33708 21.3928 1.21116 21.4773C1.08523 21.5602 1.02227 21.6676 1.02227 21.7995C1.02227 21.9136 1.06449 22.0054 1.14893 22.075C1.23338 22.1447 1.36968 22.2017 1.55783 22.2461L2.10006 22.3706C2.41413 22.4432 2.64821 22.555 2.80229 22.7062C2.95636 22.8573 3.0334 23.0536 3.0334 23.295C3.0334 23.4995 2.97414 23.6817 2.85562 23.8417C2.73858 24.0002 2.57488 24.1247 2.3645 24.2151C2.15561 24.3054 1.91339 24.3506 1.63783 24.3506C1.2556 24.3506 0.943746 24.2691 0.702262 24.1062C0.460778 23.9417 0.312628 23.7084 0.257812 23.4062L0.900042 23.3084C0.940042 23.4758 1.02227 23.6025 1.14671 23.6884C1.27116 23.7728 1.43338 23.8151 1.63338 23.8151C1.85116 23.8151 2.02524 23.7699 2.15561 23.6795C2.28598 23.5876 2.35117 23.4758 2.35117 23.3439C2.35117 23.2373 2.31117 23.1476 2.23117 23.075C2.15265 23.0025 2.03191 22.9476 1.86894 22.9106L1.29116 22.7839C0.972635 22.7113 0.737077 22.5958 0.584483 22.4373C0.43337 22.2787 0.357814 22.078 0.357814 21.835C0.357814 21.6335 0.414111 21.4573 0.526704 21.3061C0.639298 21.155 0.794856 21.0372 0.993376 20.9528C1.1919 20.8669 1.41931 20.8239 1.67561 20.8239C2.0445 20.8239 2.33487 20.9039 2.54673 21.0639C2.75858 21.2224 2.89858 21.435 2.96673 21.7017Z" fill="#919AAF"/>
<path d="M5.92621 22.8662V20.8684H6.59288V24.2817H5.93954V23.6906H5.90399C5.82547 23.8728 5.69954 24.0247 5.52621 24.1462C5.35435 24.2662 5.14028 24.3262 4.88398 24.3262C4.66471 24.3262 4.47064 24.278 4.30175 24.1817C4.13434 24.0839 4.00248 23.9395 3.90619 23.7484C3.81137 23.5573 3.76396 23.321 3.76396 23.0395V20.8684H4.42842V22.9595C4.42842 23.1921 4.49286 23.3773 4.62175 23.5151C4.75064 23.6528 4.91805 23.7217 5.12398 23.7217C5.24842 23.7217 5.37213 23.6906 5.49509 23.6284C5.61954 23.5662 5.7225 23.4721 5.80399 23.3462C5.88695 23.2202 5.92769 23.0602 5.92621 22.8662Z" fill="#919AAF"/>
<path d="M7.48567 25.5617V20.8684H8.13457V21.4217H8.19012C8.22864 21.3506 8.2842 21.2684 8.35679 21.175C8.42939 21.0817 8.53013 21.0002 8.65902 20.9306C8.78791 20.8595 8.95828 20.8239 9.17013 20.8239C9.44569 20.8239 9.69162 20.8935 9.90792 21.0328C10.1242 21.1721 10.2939 21.3728 10.4168 21.635C10.5413 21.8973 10.6035 22.2128 10.6035 22.5817C10.6035 22.9506 10.542 23.2669 10.419 23.5306C10.2961 23.7928 10.1272 23.9951 9.91237 24.1373C9.69755 24.278 9.45236 24.3484 9.1768 24.3484C8.96939 24.3484 8.79976 24.3136 8.66791 24.2439C8.53753 24.1743 8.43531 24.0928 8.36124 23.9995C8.28716 23.9062 8.23012 23.8232 8.19012 23.7506H8.15012V25.5617H7.48567ZM8.13679 22.575C8.13679 22.815 8.17161 23.0254 8.24124 23.2062C8.31087 23.3869 8.41161 23.5284 8.54346 23.6306C8.67531 23.7313 8.8368 23.7817 9.02791 23.7817C9.22643 23.7817 9.39236 23.7291 9.52569 23.6239C9.65903 23.5173 9.75977 23.3728 9.82792 23.1906C9.89755 23.0084 9.93237 22.8032 9.93237 22.575C9.93237 22.3499 9.89829 22.1476 9.83014 21.9684C9.76348 21.7891 9.66273 21.6476 9.52792 21.5439C9.39458 21.4402 9.22791 21.3884 9.02791 21.3884C8.83532 21.3884 8.67235 21.438 8.53902 21.5373C8.40716 21.6365 8.30716 21.775 8.23901 21.9528C8.17086 22.1306 8.13679 22.338 8.13679 22.575Z" fill="#919AAF"/>
<path d="M11.3479 25.5617V20.8684H11.9968V21.4217H12.0524C12.0909 21.3506 12.1465 21.2684 12.2191 21.175C12.2917 21.0817 12.3924 21.0002 12.5213 20.9306C12.6502 20.8595 12.8205 20.8239 13.0324 20.8239C13.308 20.8239 13.5539 20.8935 13.7702 21.0328C13.9865 21.1721 14.1561 21.3728 14.2791 21.635C14.4035 21.8973 14.4658 22.2128 14.4658 22.5817C14.4658 22.9506 14.4043 23.2669 14.2813 23.5306C14.1583 23.7928 13.9894 23.9951 13.7746 24.1373C13.5598 24.278 13.3146 24.3484 13.0391 24.3484C12.8317 24.3484 12.662 24.3136 12.5302 24.2439C12.3998 24.1743 12.2976 24.0928 12.2235 23.9995C12.1494 23.9062 12.0924 23.8232 12.0524 23.7506H12.0124V25.5617H11.3479ZM11.9991 22.575C11.9991 22.815 12.0339 23.0254 12.1035 23.2062C12.1731 23.3869 12.2739 23.5284 12.4057 23.6306C12.5376 23.7313 12.6991 23.7817 12.8902 23.7817C13.0887 23.7817 13.2546 23.7291 13.388 23.6239C13.5213 23.5173 13.622 23.3728 13.6902 23.1906C13.7598 23.0084 13.7946 22.8032 13.7946 22.575C13.7946 22.3499 13.7606 22.1476 13.6924 21.9684C13.6257 21.7891 13.525 21.6476 13.3902 21.5439C13.2568 21.4402 13.0902 21.3884 12.8902 21.3884C12.6976 21.3884 12.5346 21.438 12.4013 21.5373C12.2694 21.6365 12.1694 21.775 12.1013 21.9528C12.0331 22.1306 11.9991 22.338 11.9991 22.575Z" fill="#919AAF"/>
<path d="M16.648 24.3506C16.328 24.3506 16.0487 24.2773 15.8102 24.1306C15.5717 23.9839 15.3865 23.7788 15.2546 23.5151C15.1228 23.2513 15.0569 22.9432 15.0569 22.5906C15.0569 22.2365 15.1228 21.9269 15.2546 21.6617C15.3865 21.3965 15.5717 21.1906 15.8102 21.0439C16.0487 20.8972 16.328 20.8239 16.648 20.8239C16.968 20.8239 17.2473 20.8972 17.4858 21.0439C17.7243 21.1906 17.9095 21.3965 18.0413 21.6617C18.1732 21.9269 18.2391 22.2365 18.2391 22.5906C18.2391 22.9432 18.1732 23.2513 18.0413 23.5151C17.9095 23.7788 17.7243 23.9839 17.4858 24.1306C17.2473 24.2773 16.968 24.3506 16.648 24.3506ZM16.6502 23.7928C16.8576 23.7928 17.0295 23.738 17.1658 23.6284C17.3021 23.5188 17.4028 23.3728 17.468 23.1906C17.5347 23.0084 17.568 22.8076 17.568 22.5884C17.568 22.3706 17.5347 22.1706 17.468 21.9884C17.4028 21.8047 17.3021 21.6573 17.1658 21.5461C17.0295 21.435 16.8576 21.3795 16.6502 21.3795C16.4413 21.3795 16.268 21.435 16.1302 21.5461C15.9939 21.6573 15.8924 21.8047 15.8258 21.9884C15.7606 22.1706 15.728 22.3706 15.728 22.5884C15.728 22.8076 15.7606 23.0084 15.8258 23.1906C15.8924 23.3728 15.9939 23.5188 16.1302 23.6284C16.268 23.738 16.4413 23.7928 16.6502 23.7928Z" fill="#919AAF"/>
<path d="M18.9808 24.2817V20.8684H19.623V21.4106H19.6586C19.7208 21.2269 19.8304 21.0824 19.9875 20.9772C20.146 20.8706 20.3253 20.8172 20.5253 20.8172C20.5667 20.8172 20.6156 20.8187 20.6719 20.8217C20.7297 20.8247 20.7749 20.8284 20.8075 20.8328V21.4684C20.7808 21.461 20.7334 21.4528 20.6653 21.4439C20.5971 21.4335 20.529 21.4284 20.4608 21.4284C20.3038 21.4284 20.1638 21.4617 20.0408 21.5284C19.9193 21.5935 19.823 21.6847 19.7519 21.8017C19.6808 21.9173 19.6453 22.0491 19.6453 22.1973V24.2817H18.9808Z" fill="#919AAF"/>
<path d="M23.1775 20.8684V21.4017H21.313V20.8684H23.1775ZM21.8131 20.0506H22.4775V23.2795C22.4775 23.4084 22.4968 23.5054 22.5353 23.5706C22.5738 23.6343 22.6234 23.678 22.6842 23.7017C22.7464 23.7239 22.8138 23.7351 22.8864 23.7351C22.9397 23.7351 22.9864 23.7313 23.0264 23.7239C23.0664 23.7165 23.0975 23.7106 23.1197 23.7062L23.2397 24.2551C23.2012 24.2699 23.1464 24.2847 23.0753 24.2995C23.0042 24.3158 22.9153 24.3247 22.8086 24.3262C22.6338 24.3291 22.4708 24.298 22.3197 24.2328C22.1686 24.1677 22.0464 24.0669 21.9531 23.9306C21.8597 23.7943 21.8131 23.6232 21.8131 23.4173V20.0506Z" fill="#919AAF"/>
<path d="M24.057 24.2817L26.0437 20.3528V20.3195H23.7459V19.7306H26.7548V20.3395L24.7748 24.2817H24.057Z" fill="#919AAF"/>
<path d="M27.5276 24.2817V23.7839L29.0676 22.1884C29.232 22.015 29.3676 21.8632 29.4743 21.7328C29.5824 21.601 29.6631 21.4758 29.7165 21.3572C29.7698 21.2387 29.7965 21.1128 29.7965 20.9795C29.7965 20.8284 29.7609 20.698 29.6898 20.5884C29.6187 20.4772 29.5217 20.3921 29.3987 20.3328C29.2757 20.2721 29.1372 20.2417 28.9831 20.2417C28.8202 20.2417 28.6779 20.275 28.5565 20.3417C28.435 20.4083 28.3416 20.5024 28.2765 20.6239C28.2113 20.7454 28.1787 20.8876 28.1787 21.0506H27.5231C27.5231 20.7735 27.5868 20.5313 27.7142 20.3239C27.8416 20.1165 28.0165 19.9558 28.2387 19.8417C28.4609 19.7261 28.7135 19.6683 28.9965 19.6683C29.2824 19.6683 29.5343 19.7254 29.752 19.8395C29.9713 19.952 30.1424 20.1061 30.2654 20.3017C30.3883 20.4958 30.4498 20.715 30.4498 20.9595C30.4498 21.1284 30.418 21.2935 30.3543 21.455C30.292 21.6165 30.1831 21.7965 30.0276 21.995C29.872 22.1921 29.6557 22.4313 29.3787 22.7128L28.4742 23.6595V23.6928H30.5232V24.2817H27.5276Z" fill="#919AAF"/>
<path d="M31.172 23.3928V22.8373L33.1387 19.7306H33.5765V20.5484H33.2987L31.8921 22.775V22.8106H34.5876V23.3928H31.172ZM33.3298 24.2817V23.2239L33.3343 22.9706V19.7306H33.9854V24.2817H33.3298Z" fill="#919AAF"/>
<path d="M38.111 25.5195C37.6518 25.5195 37.2443 25.4566 36.8888 25.3306C36.5347 25.2062 36.2362 25.0225 35.9932 24.7795C35.7503 24.538 35.5658 24.2417 35.4399 23.8906C35.3139 23.5395 35.251 23.1388 35.251 22.6884C35.251 22.2499 35.3147 21.8558 35.4421 21.5061C35.5695 21.1565 35.7547 20.8587 35.9977 20.6128C36.2421 20.3654 36.5392 20.1765 36.8888 20.0461C37.2384 19.9158 37.6355 19.8506 38.0799 19.8506C38.5051 19.8506 38.8799 19.9172 39.2044 20.0506C39.5288 20.1839 39.8014 20.3669 40.0221 20.5995C40.2444 20.8321 40.4118 21.0987 40.5244 21.3995C40.637 21.7002 40.6933 22.018 40.6933 22.3528C40.6933 22.5869 40.6785 22.8158 40.6488 23.0395C40.6192 23.2617 40.5644 23.4632 40.4844 23.6439C40.4059 23.8232 40.2918 23.9669 40.1422 24.0751C39.994 24.1817 39.8014 24.2373 39.5644 24.2417C39.4384 24.2462 39.3162 24.2314 39.1977 24.1973C39.0792 24.1632 38.9784 24.1084 38.8955 24.0328C38.8125 23.9558 38.7621 23.858 38.7444 23.7395H38.7177C38.6821 23.8269 38.6229 23.9084 38.5399 23.9839C38.4569 24.058 38.351 24.1173 38.2221 24.1617C38.0947 24.2047 37.9466 24.2225 37.7777 24.2151C37.591 24.2077 37.4229 24.1654 37.2732 24.0884C37.1236 24.0114 36.9954 23.9047 36.8888 23.7684C36.7836 23.6321 36.7029 23.4706 36.6466 23.2839C36.5903 23.0973 36.5621 22.8899 36.5621 22.6617C36.5621 22.4424 36.594 22.2461 36.6577 22.0728C36.7214 21.898 36.808 21.7476 36.9177 21.6217C37.0288 21.4943 37.1562 21.3935 37.2999 21.3195C37.4436 21.2454 37.5955 21.1987 37.7555 21.1795C37.911 21.1617 38.054 21.1661 38.1844 21.1928C38.3147 21.2195 38.4229 21.2602 38.5088 21.315C38.5962 21.3698 38.651 21.4298 38.6732 21.495H38.7021V21.2461H39.2488V23.3084C39.2488 23.4254 39.2792 23.5247 39.3399 23.6062C39.4021 23.6876 39.4903 23.7284 39.6044 23.7284C39.7392 23.7284 39.8444 23.6788 39.9199 23.5795C39.997 23.4802 40.051 23.3276 40.0821 23.1217C40.1147 22.9158 40.131 22.6521 40.131 22.3306C40.131 22.1054 40.1007 21.8936 40.0399 21.695C39.9807 21.495 39.8925 21.3143 39.7755 21.1528C39.6599 20.9898 39.5177 20.8498 39.3488 20.7328C39.1799 20.6158 38.9873 20.5254 38.771 20.4617C38.5562 20.398 38.3184 20.3661 38.0577 20.3661C37.7036 20.3661 37.3888 20.4209 37.1132 20.5306C36.8377 20.6387 36.6051 20.795 36.4154 20.9995C36.2273 21.2039 36.0843 21.4491 35.9865 21.735C35.8903 22.0195 35.8421 22.3387 35.8421 22.6928C35.8421 23.0617 35.8917 23.3891 35.991 23.6751C36.0903 23.9595 36.2369 24.1995 36.431 24.3951C36.6251 24.5906 36.8651 24.7388 37.151 24.8395C37.4369 24.9417 37.7666 24.9928 38.1399 24.9928C38.3058 24.9928 38.4688 24.978 38.6288 24.9484C38.7888 24.9203 38.931 24.8877 39.0555 24.8506C39.1814 24.8151 39.2755 24.7862 39.3377 24.764L39.4933 25.2506C39.4014 25.2936 39.2792 25.3358 39.1266 25.3773C38.9755 25.4188 38.811 25.4529 38.6332 25.4795C38.4569 25.5062 38.2829 25.5195 38.111 25.5195ZM37.9066 23.6706C38.0992 23.6706 38.254 23.6321 38.371 23.5551C38.4895 23.478 38.5747 23.3632 38.6266 23.2106C38.6799 23.0565 38.7066 22.8639 38.7066 22.6328C38.7051 22.4076 38.6762 22.2284 38.6199 22.095C38.5651 21.9602 38.4792 21.8639 38.3621 21.8061C38.2466 21.7469 38.0977 21.7173 37.9155 21.7173C37.7481 21.7173 37.6051 21.758 37.4866 21.8395C37.3695 21.921 37.2799 22.0313 37.2177 22.1706C37.1569 22.3099 37.1258 22.4647 37.1243 22.635C37.1258 22.8143 37.151 22.9832 37.1999 23.1417C37.2503 23.2988 37.3317 23.4262 37.4443 23.5239C37.5584 23.6217 37.7125 23.6706 37.9066 23.6706Z" fill="#919AAF"/>
<path d="M43.985 21.7017L43.3827 21.8084C43.3576 21.7313 43.3176 21.658 43.2627 21.5884C43.2094 21.5187 43.1368 21.4617 43.045 21.4172C42.9531 21.3728 42.8383 21.3506 42.7005 21.3506C42.5124 21.3506 42.3553 21.3928 42.2294 21.4773C42.1035 21.5602 42.0405 21.6676 42.0405 21.7995C42.0405 21.9136 42.0827 22.0054 42.1672 22.075C42.2516 22.1447 42.3879 22.2017 42.5761 22.2461L43.1183 22.3706C43.4324 22.4432 43.6664 22.555 43.8205 22.7062C43.9746 22.8573 44.0516 23.0536 44.0516 23.295C44.0516 23.4995 43.9924 23.6817 43.8739 23.8417C43.7568 24.0002 43.5931 24.1247 43.3827 24.2151C43.1739 24.3054 42.9316 24.3506 42.6561 24.3506C42.2738 24.3506 41.962 24.2691 41.7205 24.1062C41.479 23.9417 41.3309 23.7084 41.2761 23.4062L41.9183 23.3084C41.9583 23.4758 42.0405 23.6025 42.165 23.6884C42.2894 23.7728 42.4516 23.8151 42.6516 23.8151C42.8694 23.8151 43.0435 23.7699 43.1739 23.6795C43.3042 23.5876 43.3694 23.4758 43.3694 23.3439C43.3694 23.2373 43.3294 23.1476 43.2494 23.075C43.1709 23.0025 43.0501 22.9476 42.8872 22.9106L42.3094 22.7839C41.9909 22.7113 41.7553 22.5958 41.6027 22.4373C41.4516 22.2787 41.3761 22.078 41.3761 21.835C41.3761 21.6335 41.4324 21.4573 41.5449 21.3061C41.6575 21.155 41.8131 21.0372 42.0116 20.9528C42.2101 20.8669 42.4375 20.8239 42.6938 20.8239C43.0627 20.8239 43.3531 20.9039 43.565 21.0639C43.7768 21.2224 43.9168 21.435 43.985 21.7017Z" fill="#919AAF"/>
<path d="M46.2533 24.3506C45.917 24.3506 45.6274 24.2788 45.3844 24.1351C45.1429 23.9899 44.9563 23.7862 44.8244 23.5239C44.6941 23.2602 44.6289 22.9513 44.6289 22.5973C44.6289 22.2476 44.6941 21.9395 44.8244 21.6728C44.9563 21.4061 45.14 21.198 45.3755 21.0484C45.6126 20.8987 45.8896 20.8239 46.2067 20.8239C46.3993 20.8239 46.5859 20.8558 46.7667 20.9195C46.9474 20.9832 47.1096 21.0832 47.2533 21.2195C47.397 21.3558 47.5104 21.5328 47.5933 21.7506C47.6763 21.9669 47.7178 22.2299 47.7178 22.5395V22.775H45.0044V22.2773H47.0667C47.0667 22.1024 47.0311 21.9476 46.96 21.8128C46.8889 21.6765 46.7889 21.5691 46.66 21.4906C46.5326 21.4121 46.383 21.3728 46.2111 21.3728C46.0244 21.3728 45.8615 21.4187 45.7222 21.5106C45.5844 21.601 45.4778 21.7195 45.4022 21.8661C45.3281 22.0113 45.2911 22.1691 45.2911 22.3395V22.7284C45.2911 22.9565 45.3311 23.1506 45.4111 23.3106C45.4926 23.4706 45.6059 23.5928 45.7511 23.6773C45.8963 23.7602 46.0659 23.8017 46.26 23.8017C46.3859 23.8017 46.5007 23.7839 46.6044 23.7484C46.7082 23.7113 46.7978 23.6565 46.8733 23.5839C46.9489 23.5113 47.0067 23.4217 47.0467 23.315L47.6756 23.4284C47.6252 23.6136 47.5348 23.7758 47.4045 23.9151C47.2756 24.0528 47.1133 24.1602 46.9178 24.2373C46.7237 24.3128 46.5022 24.3506 46.2533 24.3506Z" fill="#919AAF"/>
<path d="M48.455 25.5617V20.8684H49.1039V21.4217H49.1595C49.198 21.3506 49.2535 21.2684 49.3261 21.175C49.3987 21.0817 49.4995 21.0002 49.6284 20.9306C49.7573 20.8595 49.9276 20.8239 50.1395 20.8239C50.415 20.8239 50.661 20.8935 50.8773 21.0328C51.0936 21.1721 51.2632 21.3728 51.3862 21.635C51.5106 21.8973 51.5728 22.2128 51.5728 22.5817C51.5728 22.9506 51.5114 23.2669 51.3884 23.5306C51.2654 23.7928 51.0965 23.9951 50.8817 24.1373C50.6669 24.278 50.4217 24.3484 50.1462 24.3484C49.9387 24.3484 49.7691 24.3136 49.6373 24.2439C49.5069 24.1743 49.4047 24.0928 49.3306 23.9995C49.2565 23.9062 49.1995 23.8232 49.1595 23.7506H49.1195V25.5617H48.455ZM49.1061 22.575C49.1061 22.815 49.141 23.0254 49.2106 23.2062C49.2802 23.3869 49.381 23.5284 49.5128 23.6306C49.6447 23.7313 49.8061 23.7817 49.9973 23.7817C50.1958 23.7817 50.3617 23.7291 50.495 23.6239C50.6284 23.5173 50.7291 23.3728 50.7973 23.1906C50.8669 23.0084 50.9017 22.8032 50.9017 22.575C50.9017 22.3499 50.8676 22.1476 50.7995 21.9684C50.7328 21.7891 50.6321 21.6476 50.4973 21.5439C50.3639 21.4402 50.1973 21.3884 49.9973 21.3884C49.8047 21.3884 49.6417 21.438 49.5084 21.5373C49.3765 21.6365 49.2765 21.775 49.2084 21.9528C49.1402 22.1306 49.1061 22.338 49.1061 22.575Z" fill="#919AAF"/>
<path d="M52.7551 24.3239C52.6336 24.3239 52.5291 24.281 52.4417 24.1951C52.3543 24.1077 52.3106 24.0025 52.3106 23.8795C52.3106 23.758 52.3543 23.6543 52.4417 23.5684C52.5291 23.481 52.6336 23.4373 52.7551 23.4373C52.8766 23.4373 52.981 23.481 53.0684 23.5684C53.1558 23.6543 53.1995 23.758 53.1995 23.8795C53.1995 23.961 53.1788 24.0358 53.1373 24.1039C53.0973 24.1706 53.044 24.2239 52.9773 24.2639C52.9106 24.3039 52.8366 24.3239 52.7551 24.3239Z" fill="#919AAF"/>
<path d="M54.0895 24.2817V20.8684H54.754V24.2817H54.0895ZM54.4251 20.3417C54.3095 20.3417 54.2103 20.3032 54.1273 20.2261C54.0458 20.1476 54.0051 20.0543 54.0051 19.9461C54.0051 19.8365 54.0458 19.7432 54.1273 19.6661C54.2103 19.5876 54.3095 19.5483 54.4251 19.5483C54.5406 19.5483 54.6392 19.5876 54.7206 19.6661C54.8036 19.7432 54.8451 19.8365 54.8451 19.9461C54.8451 20.0543 54.8036 20.1476 54.7206 20.2261C54.6392 20.3032 54.5406 20.3417 54.4251 20.3417Z" fill="#919AAF"/>
<path d="M55.6479 24.2817V20.8684H56.2901V21.4106H56.3257C56.3879 21.2269 56.4975 21.0824 56.6546 20.9772C56.8131 20.8706 56.9923 20.8172 57.1923 20.8172C57.2338 20.8172 57.2827 20.8187 57.339 20.8217C57.3968 20.8247 57.442 20.8284 57.4746 20.8328V21.4684C57.4479 21.461 57.4005 21.4528 57.3323 21.4439C57.2642 21.4335 57.196 21.4284 57.1279 21.4284C56.9709 21.4284 56.8309 21.4617 56.7079 21.5284C56.5864 21.5935 56.4901 21.6847 56.419 21.8017C56.3479 21.9173 56.3123 22.0491 56.3123 22.1973V24.2817H55.6479Z" fill="#919AAF"/>
</g>
<path d="M85.994 14.819V7.29297H88.2624C88.8631 7.29297 89.379 7.38837 89.81 7.57917C90.2482 7.76997 90.5838 8.04204 90.817 8.39537C91.0502 8.7487 91.1668 9.16917 91.1668 9.65677C91.1668 9.96064 91.1103 10.2468 90.9972 10.5154C90.8912 10.7768 90.7358 11.0136 90.5308 11.2256C90.333 11.4376 90.0927 11.6107 89.81 11.745L91.559 14.819H90.128L88.6758 12.0842C88.5981 12.0912 88.5098 12.0983 88.4108 12.1054C88.319 12.1054 88.2236 12.1054 88.1246 12.1054C87.8773 12.1054 87.5911 12.0806 87.266 12.0312V14.819H85.994ZM87.7324 10.9606C87.8879 10.9747 88.0434 10.9818 88.1988 10.9818C88.7218 10.9818 89.1281 10.8687 89.4178 10.6426C89.7076 10.4164 89.8524 10.102 89.8524 9.69917C89.8524 9.29637 89.7111 8.9819 89.4284 8.75577C89.1458 8.52964 88.75 8.41657 88.2412 8.41657H87.266V10.9076C87.4144 10.9358 87.5699 10.9535 87.7324 10.9606Z" fill="url(#paint0_linear_7811_12138)"/>
<path d="M80.1458 14.819V7.29297H81.439V14.819H80.1458Z" fill="url(#paint1_linear_7811_12138)"/>
<path d="M74.179 14.0558C74.179 13.9074 74.2144 13.7731 74.285 13.653C74.3628 13.5258 74.4617 13.4268 74.5818 13.3562C74.702 13.2855 74.8362 13.2502 74.9846 13.2502C75.133 13.2502 75.2673 13.2855 75.3874 13.3562C75.5076 13.4268 75.603 13.5258 75.6736 13.653C75.7514 13.7731 75.7902 13.9074 75.7902 14.0558C75.7902 14.2042 75.7514 14.342 75.6736 14.4692C75.603 14.5893 75.5076 14.6847 75.3874 14.7554C75.2673 14.826 75.133 14.8614 74.9846 14.8614C74.8362 14.8614 74.702 14.826 74.5818 14.7554C74.4617 14.6847 74.3628 14.5893 74.285 14.4692C74.2144 14.342 74.179 14.2042 74.179 14.0558Z" fill="url(#paint2_linear_7811_12138)"/>
<path d="M64.6518 13.2184V12.2326L67.9272 7.50497H69.2734V12.169H70.1426V13.2184H69.2734V14.819H68.065V13.2184H64.6518ZM65.8708 12.169H68.065V9.02077L65.8708 12.169Z" fill="url(#paint3_linear_7811_12138)"/>
<path d="M55.7624 9.35997C55.8543 8.95717 56.0168 8.60384 56.25 8.29997C56.4903 7.9961 56.7836 7.7629 57.1298 7.60037C57.4832 7.43077 57.8648 7.34597 58.2746 7.34597C58.6209 7.34597 58.9389 7.40604 59.2286 7.52617C59.5184 7.63924 59.7692 7.80177 59.9812 8.01377C60.2003 8.2187 60.3664 8.4625 60.4794 8.74517C60.5996 9.02077 60.6596 9.32464 60.6596 9.65677C60.6596 9.96064 60.6031 10.2574 60.49 10.5472C60.377 10.8369 60.1968 11.1372 59.9494 11.4482C59.7092 11.7591 59.3982 12.1018 59.0166 12.4764C58.6209 12.865 58.1651 13.2749 57.6492 13.706H60.7868V14.819H55.8048V13.8862C56.1652 13.5894 56.4797 13.3244 56.7482 13.0912C57.0238 12.8509 57.2676 12.6318 57.4796 12.434C57.6916 12.2361 57.8895 12.0453 58.0732 11.8616C58.3912 11.5436 58.6456 11.2644 58.8364 11.0242C59.0343 10.7839 59.1792 10.5578 59.271 10.3458C59.3629 10.1338 59.4088 9.9147 59.4088 9.68857C59.4088 9.44124 59.3594 9.2257 59.2604 9.04197C59.1615 8.85824 59.0237 8.7169 58.847 8.61797C58.6774 8.51197 58.476 8.45897 58.2428 8.45897C57.9248 8.45897 57.6492 8.56144 57.416 8.76637C57.1828 8.96424 57.0203 9.23984 56.9284 9.59317L55.7624 9.35997Z" fill="url(#paint4_linear_7811_12138)"/>
<path d="M47.7302 14.819L50.412 8.63917H46.755V7.50497H51.7794V8.45897L49.1082 14.819H47.7302Z" fill="url(#paint5_linear_7811_12138)"/>
<path d="M41.7285 14.0558C41.7285 13.9074 41.7639 13.7731 41.8345 13.653C41.9123 13.5258 42.0112 13.4268 42.1313 13.3562C42.2515 13.2855 42.3857 13.2502 42.5341 13.2502C42.6825 13.2502 42.8168 13.2855 42.9369 13.3562C43.0571 13.4268 43.1525 13.5258 43.2231 13.653C43.3009 13.7731 43.3397 13.9074 43.3397 14.0558C43.3397 14.2042 43.3009 14.342 43.2231 14.4692C43.1525 14.5893 43.0571 14.6847 42.9369 14.7554C42.8168 14.826 42.6825 14.8614 42.5341 14.8614C42.3857 14.8614 42.2515 14.826 42.1313 14.7554C42.0112 14.6847 41.9123 14.5893 41.8345 14.4692C41.7639 14.342 41.7285 14.2042 41.7285 14.0558Z" fill="url(#paint6_linear_7811_12138)"/>
<path d="M28.4222 7.29297H29.8002L31.3478 13.1018L32.9378 7.29297H34.1886L35.7892 13.1018L37.3262 7.29297H38.6724L36.4464 14.819H35.132L33.5526 9.09497L31.9732 14.819H30.6482L28.4222 7.29297Z" fill="url(#paint7_linear_7811_12138)"/>
<path d="M14.4377 7.29297H15.8157L17.3633 13.1018L18.9533 7.29297H20.2041L21.8047 13.1018L23.3417 7.29297H24.6879L22.4619 14.819H21.1475L19.5681 9.09497L17.9887 14.819H16.6637L14.4377 7.29297Z" fill="url(#paint8_linear_7811_12138)"/>
<path d="M0.453125 7.29297H1.83113L3.37873 13.1018L4.96873 7.29297H6.21953L7.82013 13.1018L9.35713 7.29297H10.7033L8.47733 14.819H7.16293L5.58353 9.09497L4.00413 14.819H2.67913L0.453125 7.29297Z" fill="url(#paint9_linear_7811_12138)"/>
<defs>
<linearGradient id="paint0_linear_7811_12138" x1="0.453125" y1="11.0772" x2="91.559" y2="11.0772" gradientUnits="userSpaceOnUse">
<stop stop-color="#E83388"/>
<stop offset="1" stop-color="#B341C4"/>
</linearGradient>
<linearGradient id="paint1_linear_7811_12138" x1="0.453125" y1="11.0772" x2="91.559" y2="11.0772" gradientUnits="userSpaceOnUse">
<stop stop-color="#E83388"/>
<stop offset="1" stop-color="#B341C4"/>
</linearGradient>
<linearGradient id="paint2_linear_7811_12138" x1="0.453125" y1="11.0772" x2="91.559" y2="11.0772" gradientUnits="userSpaceOnUse">
<stop stop-color="#E83388"/>
<stop offset="1" stop-color="#B341C4"/>
</linearGradient>
<linearGradient id="paint3_linear_7811_12138" x1="0.453125" y1="11.0772" x2="91.559" y2="11.0772" gradientUnits="userSpaceOnUse">
<stop stop-color="#E83388"/>
<stop offset="1" stop-color="#B341C4"/>
</linearGradient>
<linearGradient id="paint4_linear_7811_12138" x1="0.453125" y1="11.0772" x2="91.559" y2="11.0772" gradientUnits="userSpaceOnUse">
<stop stop-color="#E83388"/>
<stop offset="1" stop-color="#B341C4"/>
</linearGradient>
<linearGradient id="paint5_linear_7811_12138" x1="0.453125" y1="11.0772" x2="91.559" y2="11.0772" gradientUnits="userSpaceOnUse">
<stop stop-color="#E83388"/>
<stop offset="1" stop-color="#B341C4"/>
</linearGradient>
<linearGradient id="paint6_linear_7811_12138" x1="0.453125" y1="11.0772" x2="91.559" y2="11.0772" gradientUnits="userSpaceOnUse">
<stop stop-color="#E83388"/>
<stop offset="1" stop-color="#B341C4"/>
</linearGradient>
<linearGradient id="paint7_linear_7811_12138" x1="0.453125" y1="11.0772" x2="91.559" y2="11.0772" gradientUnits="userSpaceOnUse">
<stop stop-color="#E83388"/>
<stop offset="1" stop-color="#B341C4"/>
</linearGradient>
<linearGradient id="paint8_linear_7811_12138" x1="0.453125" y1="11.0772" x2="91.559" y2="11.0772" gradientUnits="userSpaceOnUse">
<stop stop-color="#E83388"/>
<stop offset="1" stop-color="#B341C4"/>
</linearGradient>
<linearGradient id="paint9_linear_7811_12138" x1="0.453125" y1="11.0772" x2="91.559" y2="11.0772" gradientUnits="userSpaceOnUse">
<stop stop-color="#E83388"/>
<stop offset="1" stop-color="#B341C4"/>
</linearGradient>
</defs>
</svg>
