<svg width="24" height="24" viewBox="0 0 24 24" fill="none" xmlns="http://www.w3.org/2000/svg">
<path d="M3.90266 0.780274H20.0973C21.8084 0.780274 23.2197 2.19174 23.2197 3.90248V20.0974C23.2197 21.8082 21.8084 23.2196 20.0973 23.2196H3.90266C2.19164 23.2196 0.780322 21.8082 0.780322 20.0974V3.90291C0.778831 3.0751 1.10716 2.2807 1.6929 1.69491C2.27864 1.10911 3.07367 0.780043 3.90266 0.780274Z" fill="#E7A918"/>
<path d="M22.2847 11.0651V19.9089C22.2861 20.5388 22.039 21.1434 21.598 21.5892C21.1569 22.0349 20.5582 22.2852 19.934 22.2847H4.06558C3.44155 22.2851 2.84302 22.0348 2.40209 21.5892C1.96115 21.1435 1.71406 20.5391 1.71532 19.9093V16.22C2.5821 6.76911 11.5164 16.3381 15.6669 16.3381C18.9676 16.3206 20.9343 13.7606 22.2847 11.0651" fill="#6E2616"/>
<path d="M4.08054 1.71533H19.936C21.2351 1.71533 22.2847 2.76893 22.2847 4.07301V7.61798C21.5516 17.4159 12.5082 7.63448 8.32771 7.63448C5.04663 7.63448 3.0811 10.2596 1.71532 12.935V4.07301C1.73221 2.78542 2.7979 1.71577 4.08054 1.71577" fill="#6E2616"/>
</svg>
