<svg width="24" height="24" viewBox="0 0 24 24" fill="none" xmlns="http://www.w3.org/2000/svg">
<g clip-path="url(#clip0_7732_108462)">
<path d="M0 8.5C0 5.22657 0 3.58985 0.736799 2.38751C1.14908 1.71473 1.71473 1.14908 2.38751 0.736799C3.58985 0 5.22657 0 8.5 0H15.5C18.7734 0 20.4101 0 21.6125 0.736799C22.2853 1.14908 22.8509 1.71473 23.2632 2.38751C24 3.58985 24 5.22657 24 8.5V15.5C24 18.7734 24 20.4101 23.2632 21.6125C22.8509 22.2853 22.2853 22.8509 21.6125 23.2632C20.4101 24 18.7734 24 15.5 24H8.5C5.22657 24 3.58985 24 2.38751 23.2632C1.71473 22.8509 1.14908 22.2853 0.736799 21.6125C0 20.4101 0 18.7734 0 15.5V8.5Z" fill="url(#paint0_linear_7732_108462)"/>
<path d="M4.063 8.04968C8.99583 8.04968 12.9947 12.0485 12.9947 16.9814V18.671H4.063V8.04968Z" fill="url(#paint1_radial_7732_108462)"/>
<path d="M4.13717 18.6872C3.73748 15.9835 4.642 13.2502 6.57565 11.3187L12.4839 5.41699C15.9968 8.92996 15.9181 14.6494 12.3097 18.0643L11.6516 18.6872L4.13717 18.6872Z" fill="url(#paint2_linear_7732_108462)"/>
<path d="M4.13717 18.6872C3.73748 15.9835 4.642 13.2502 6.57565 11.3187L12.4839 5.41699C15.9968 8.92996 15.9181 14.6494 12.3097 18.0643L11.6516 18.6872L4.13717 18.6872Z" fill="url(#paint3_radial_7732_108462)"/>
<path d="M4.03423 18.6872C4.03423 13.7033 8.07446 9.66309 13.0584 9.66309H21.1217C21.1217 14.647 17.0815 18.6872 12.0976 18.6872H4.03423Z" fill="url(#paint4_linear_7732_108462)"/>
</g>
<defs>
<linearGradient id="paint0_linear_7732_108462" x1="12" y1="0" x2="12" y2="24" gradientUnits="userSpaceOnUse">
<stop stop-color="#069D50"/>
<stop offset="0.0001" stop-color="#0AB05E"/>
<stop offset="1" stop-color="#06914A"/>
</linearGradient>
<radialGradient id="paint1_radial_7732_108462" cx="0" cy="0" r="1" gradientUnits="userSpaceOnUse" gradientTransform="translate(9.06661 13.8824) rotate(-137.534) scale(9.06066 19.588)">
<stop stop-color="#83C4A1"/>
<stop offset="0.301503" stop-color="#5C9C7A"/>
<stop offset="0.534058" stop-color="#B4CFC1"/>
<stop offset="1" stop-color="#BCD9CB"/>
</radialGradient>
<linearGradient id="paint2_linear_7732_108462" x1="4.04428" y1="12.0521" x2="15.0681" y2="12.0521" gradientUnits="userSpaceOnUse">
<stop stop-color="#FAFCFB"/>
<stop offset="1" stop-color="#CCEBDC"/>
</linearGradient>
<radialGradient id="paint3_radial_7732_108462" cx="0" cy="0" r="1" gradientUnits="userSpaceOnUse" gradientTransform="translate(11.6155 14.902) rotate(-111.542) scale(11.4115 17.0434)">
<stop stop-color="#83C4A1"/>
<stop offset="0.362713" stop-color="#47916A"/>
<stop offset="0.499995" stop-color="#C3E0D2"/>
<stop offset="1" stop-color="#C1DED0"/>
</radialGradient>
<linearGradient id="paint4_linear_7732_108462" x1="4.03423" y1="14.1751" x2="21.1217" y2="14.1751" gradientUnits="userSpaceOnUse">
<stop stop-color="#FAFCFB"/>
<stop offset="1" stop-color="#BEE6D3"/>
</linearGradient>
<clipPath id="clip0_7732_108462">
<rect width="24" height="24" fill="white"/>
</clipPath>
</defs>
</svg>
