<svg width="24" height="25" viewBox="0 0 24 25" fill="none" xmlns="http://www.w3.org/2000/svg">
<path fill-rule="evenodd" clip-rule="evenodd" d="M12.7311 22.822C12.5372 23.0159 12.2742 23.1249 12 23.1249C11.7258 23.1248 11.4628 23.0159 11.2689 22.822C10.491 22.0441 9.37102 20.9242 9.37102 20.9242C9.37102 20.9242 10.5704 20.9242 11.3424 20.9242C11.7498 20.9242 12.1406 20.7623 12.4288 20.4742C13.7017 19.2012 17.2367 15.6662 17.2367 15.6662L17.258 18.2952C17.258 18.2952 14.1758 21.3773 12.7311 22.822ZM5.66732 18.0292C5.95493 18.3168 6.34501 18.4783 6.75175 18.4783C8.55101 18.4783 13.5523 18.4783 13.5523 18.4783L11.7084 20.3523H4.27257V16.6344C4.27257 16.6344 5.12149 17.4833 5.66732 18.0292ZM19.7274 20.3523H16.0095C16.0095 20.3523 16.8584 19.5034 17.4043 18.9576C17.6919 18.6699 17.8534 18.2799 17.8534 17.8731C17.8534 16.0739 17.8534 11.0725 17.8534 11.0725L19.7274 12.9165V20.3523ZM1.80284 13.3559C1.60894 13.162 1.49996 12.8991 1.5 12.6249C1.50004 12.3507 1.60894 12.0877 1.80284 11.8938C2.58076 11.1159 3.70071 9.9959 3.70071 9.9959C3.70071 9.9959 3.70071 11.1953 3.70071 11.9672C3.70071 12.3747 3.86259 12.7655 4.15073 13.0536C5.42368 14.3266 8.95868 17.8616 8.95868 17.8616L6.32969 17.8828C6.32969 17.8828 3.24755 14.8007 1.80284 13.3559ZM22.1972 11.8938C22.3911 12.0877 22.5 12.3507 22.5 12.6249C22.5 12.8991 22.3911 13.162 22.1972 13.3559C21.4192 14.1339 20.2993 15.2539 20.2993 15.2539C20.2993 15.2539 20.2993 14.0545 20.2993 13.2825C20.2993 12.875 20.1374 12.4843 19.8493 12.1961C18.5763 10.9231 15.0413 7.38818 15.0413 7.38818L17.6703 7.36692C17.6703 7.36692 20.7525 10.4491 22.1972 11.8938ZM4.27257 4.89745H7.99049C7.99049 4.89745 7.14156 5.74637 6.59569 6.2922C6.30813 6.57981 6.14656 6.96988 6.14656 7.37663C6.14656 9.17589 6.14656 14.1772 6.14656 14.1772L4.27257 12.3333V4.89745ZM14.629 4.32559C14.629 4.32559 13.4296 4.32559 12.6576 4.32559C12.2502 4.32559 11.8594 4.48747 11.5712 4.7756C10.2983 6.04855 6.7633 9.58355 6.7633 9.58355L6.74204 6.95457C6.74204 6.95457 9.82423 3.87243 11.2689 2.42772C11.4628 2.23382 11.7258 2.12488 12 2.12488C12.2742 2.12488 12.5372 2.23382 12.7311 2.42772C13.509 3.20563 14.629 4.32559 14.629 4.32559ZM19.7274 4.89745V8.61537C19.7274 8.61537 18.8785 7.76644 18.3327 7.22057C18.0451 6.933 17.655 6.77143 17.2482 6.77143C15.449 6.77143 10.4477 6.77143 10.4477 6.77143L12.2916 4.89745H19.7274Z" fill="#001B49"/>
<path d="M12 17.0028C14.4179 17.0028 16.3779 15.0427 16.3779 12.6249C16.3779 10.207 14.4179 8.24695 12 8.24695C9.58214 8.24695 7.62207 10.207 7.62207 12.6249C7.62207 15.0427 9.58214 17.0028 12 17.0028Z" fill="#001B49"/>
</svg>
