<svg width="24" height="24" viewBox="0 0 24 24" fill="none" xmlns="http://www.w3.org/2000/svg">
<path d="M16.246 1L16.246 2.59594C16.2461 5.0586 18.5526 6.87077 20.9453 6.28799L23 5.78753V3.5C23 2.11929 21.8807 1 20.5 1H16.246Z" fill="#FF8E01"/>
<path d="M1 3.96711V3.5C1 2.11929 2.11929 1 3.5 1H15.559V2.5385C15.559 5.06429 13.1947 6.92384 10.7401 6.32868L1 3.96711Z" fill="#FF8E01"/>
<path d="M5.77876 23H3.5C2.11929 23 1 21.8807 1 20.5V4.6806L9.90703 6.74389C12.607 7.36933 13.8681 10.4844 12.3637 12.812L5.77876 23Z" fill="#FF8E01"/>
<path d="M23 19.5953V20.5C23 21.8807 21.8807 23 20.5 23H6.64095L12.6914 13.5053C14.1831 11.1644 17.5996 11.1608 19.0963 13.4984L23 19.5953Z" fill="#FF8E01"/>
<path d="M23 6.43068V18.3734L19.2974 12.4996C17.92 10.3145 19.0771 7.42149 21.5815 6.78896L23 6.43068Z" fill="#FF8E01"/>
</svg>
