<svg width="24" height="24" viewBox="0 0 24 24" fill="none" xmlns="http://www.w3.org/2000/svg">
<path fill-rule="evenodd" clip-rule="evenodd" d="M15.6149 9.28373H15.4596C15.4259 9.50922 15.3084 9.7399 15.1069 9.97578C15.0396 9.97578 14.9589 9.96053 14.8651 9.93006C14.7744 9.90118 14.6998 9.86706 14.6412 9.82774C14.8314 9.75073 14.9774 9.66968 15.0793 9.58464C15.1707 9.5084 15.2494 9.4081 15.3152 9.28373C15.0504 9.28373 14.8775 9.24605 14.7964 9.17063C14.7964 8.9901 14.8354 8.83724 14.9132 8.71205C14.9654 8.6286 15.0251 8.56844 15.0925 8.53152C15.172 8.53152 15.2442 8.56324 15.3091 8.62662C15.3878 8.70281 15.4379 8.81197 15.4596 8.95395H15.6498C15.6803 8.95395 15.7268 8.89778 15.7894 8.7855C15.8672 8.64588 15.9302 8.55159 15.9783 8.50264C16.1404 8.50264 16.2568 8.54196 16.3274 8.62061C16.3932 8.69521 16.426 8.81476 16.426 8.97927C16.3554 9.15176 16.2824 9.26568 16.207 9.32103C16.0746 9.32103 15.9426 9.25606 15.811 9.12606C15.7533 9.23118 15.6879 9.28373 15.6149 9.28373ZM6.66624 8.34906L6.51564 8.67548C6.46838 8.65834 6.42395 8.64977 6.38247 8.64977C6.24309 8.64977 6.13109 8.74882 6.04648 8.94688C6.05062 8.97619 6.09749 9.00352 6.18711 9.02874L6.43103 9.09723C6.51814 9.13063 6.5617 9.17178 6.5617 9.22068C6.5617 9.33562 6.52642 9.48641 6.45591 9.673C6.15227 9.8507 5.84068 9.93954 5.52124 9.93954C5.37358 9.93954 5.2574 9.90653 5.17279 9.84049C5.08072 9.76796 5.03466 9.66078 5.03466 9.51899C5.03466 9.42851 5.05704 9.3193 5.10184 9.19137C5.13919 9.08376 5.18275 8.98884 5.23252 8.9065C5.27482 8.90327 5.30596 8.91795 5.32589 8.95053C5.25952 9.07196 5.22631 9.19219 5.22631 9.31117C5.22631 9.5084 5.3578 9.60702 5.62082 9.60702C5.7295 9.60702 5.86474 9.58825 6.02655 9.55075C6.20078 9.51004 6.32938 9.46398 6.41236 9.41262C6.34266 9.36454 6.23644 9.32503 6.09374 9.29403C5.9776 9.26876 5.90127 9.22925 5.86474 9.17549C5.86474 9.13145 5.88178 9.04997 5.91581 8.93095C6.03445 8.5153 6.21989 8.30748 6.47208 8.30748C6.5335 8.30748 6.59823 8.32134 6.66624 8.34906ZM7.36426 9.19599C7.36426 9.29379 7.3207 9.42745 7.23354 9.59696C7.14974 9.75997 7.06388 9.88467 6.97595 9.97107C6.91868 9.97107 6.84196 9.95148 6.7457 9.9124C6.64944 9.87327 6.58057 9.83375 6.53908 9.79381C6.68929 9.72614 6.82328 9.64749 6.9411 9.55783C7.07967 9.45271 7.16178 9.35776 7.18753 9.273C7.15018 9.17116 7.07341 9.08188 6.95727 9.00531L7.129 8.67889C7.19041 8.73102 7.24494 8.81009 7.29269 8.91603C7.34038 9.02201 7.36426 9.11533 7.36426 9.19599ZM8.32838 9.67546L8.12802 9.86128L7.93136 9.66814L8.13548 9.48477L8.32838 9.67546ZM9.14605 9.28306C9.07886 9.28306 9.0162 9.25413 8.9581 9.19623C8.9042 9.14247 8.8706 9.08173 8.85732 9.01411C8.84736 9.07687 8.81208 9.13675 8.75153 9.19383C8.68848 9.25332 8.62543 9.28306 8.56234 9.28306H8.46281C8.39557 9.28306 8.33295 9.25413 8.27486 9.19623C8.22096 9.14247 8.18731 9.08173 8.17408 9.01411C8.16412 9.07687 8.12884 9.13675 8.06829 9.19383C8.00519 9.25332 7.94214 9.28306 7.87909 9.28306H7.843C7.68456 9.28306 7.58122 9.21866 7.53314 9.08987C7.50075 9.00271 7.47919 8.80831 7.46841 8.50678C7.4634 8.35763 7.45719 8.2541 7.44973 8.19625C7.43563 8.08377 7.40906 7.98395 7.37008 7.89674L7.59783 7.66202C7.63599 7.72151 7.65962 7.81319 7.66877 7.93708C7.67209 7.98188 7.67377 8.07684 7.67377 8.22191V8.58254C7.67377 8.69015 7.68162 8.76836 7.69741 8.81726C7.72561 8.90447 7.78202 8.94808 7.86668 8.94808C7.95047 8.94808 8.01641 8.9114 8.06454 8.83806C8.10352 8.77857 8.12301 8.71133 8.12301 8.63635H8.2288C8.2288 8.72356 8.24748 8.79488 8.28482 8.85028C8.32795 8.9155 8.39186 8.94808 8.47647 8.94808H8.54992C8.63371 8.94808 8.69965 8.9114 8.74778 8.83806C8.78681 8.77857 8.8063 8.71133 8.8063 8.63635H8.91209C8.91209 8.72356 8.93072 8.79488 8.96807 8.85028C9.01124 8.9155 9.07511 8.94808 9.15972 8.94808H9.25184C9.27422 8.94808 9.32028 8.94442 9.38997 8.93706C9.29044 8.87757 9.24062 8.792 9.24062 8.68034C9.24062 8.56791 9.30203 8.45827 9.42481 8.35152C9.53767 8.2529 9.63889 8.20357 9.72851 8.20357C9.87039 8.20357 9.98653 8.27937 10.077 8.43098C10.0919 8.45625 10.0931 8.46886 10.0807 8.46886C10.0741 8.46886 10.0629 8.46602 10.0471 8.46029C9.99899 8.4432 9.93922 8.43464 9.86789 8.43464C9.71604 8.43464 9.5949 8.46847 9.50447 8.53609C9.52189 8.69502 9.61526 8.80995 9.78448 8.88084L10.2537 8.76105L10.1093 9.06912C9.94586 9.10498 9.72933 9.15633 9.45966 9.22314C9.2979 9.26309 9.19336 9.28306 9.14605 9.28306ZM9.18465 8.15467L9.01287 8.32336L8.83865 8.17301L8.67934 8.33073L8.4964 8.17301L8.66812 8.00066L8.8424 8.15347L9.00166 7.99329L9.18465 8.15467ZM10.4912 7.66077C10.5128 7.76511 10.5236 7.91465 10.5236 8.10943C10.5236 8.43055 10.4937 8.78223 10.4339 9.16447L10.3083 9.3503L10.307 8.89061C10.307 8.46356 10.2701 8.13758 10.1962 7.91263L10.4912 7.66077ZM13.1848 9.28373H13.1209C13.0535 9.28373 12.9925 9.25486 12.938 9.1971C12.8882 9.14334 12.8573 9.08154 12.8453 9.01175C12.8316 9.07995 12.8 9.14012 12.7502 9.19229C12.6916 9.25327 12.6222 9.28373 12.542 9.28373C12.4136 9.28373 12.3318 9.20268 12.2965 9.04063C12.2307 9.20191 12.14 9.28253 12.0245 9.28253C11.9563 9.28253 11.8981 9.25486 11.8499 9.19951C11.8147 9.1586 11.7894 9.11003 11.7741 9.05387C11.7084 9.20711 11.6129 9.28373 11.4877 9.28373H11.4239C11.2843 9.28373 11.1892 9.1674 11.1386 8.9347C11.113 9.02937 11.0768 9.10883 11.0304 9.17304C10.7776 9.17304 10.6103 9.11644 10.5285 9.00333C10.5613 8.88055 10.5903 8.7843 10.6151 8.71446C10.713 8.62701 10.8534 8.54918 11.0364 8.48099C11.0299 8.45047 11.0163 8.40715 10.9954 8.35099L11.1386 8.13676C11.1812 8.19856 11.2133 8.30445 11.235 8.45451C11.2638 8.65348 11.2823 8.76702 11.2903 8.79512C11.3208 8.90101 11.3714 8.95395 11.442 8.95395H11.4612V8.95515H11.5082C11.582 8.95515 11.6402 8.92026 11.6827 8.85047C11.718 8.79272 11.7356 8.7289 11.7356 8.65911H11.8439C11.8439 8.85649 11.9078 8.95515 12.0353 8.95515C12.1204 8.95515 12.1826 8.91665 12.2218 8.83964C12.2491 8.7867 12.2628 8.72649 12.2628 8.65911H12.3711C12.3711 8.75056 12.3799 8.81717 12.3976 8.8589C12.4249 8.92387 12.4774 8.95636 12.5552 8.95636C12.6435 8.95636 12.7097 8.91747 12.7538 8.83964C12.7851 8.7843 12.8008 8.72332 12.8008 8.6567H12.9091C12.9091 8.85649 12.9785 8.95636 13.1173 8.95636H13.1534L13.0861 8.95395H13.2077C13.2887 8.95395 13.3485 8.91424 13.387 8.83483C13.4135 8.78025 13.4267 8.72129 13.4267 8.65791H13.5338C13.5338 8.8561 13.6076 8.95515 13.7552 8.95515C13.8531 8.95515 13.9237 8.91708 13.9671 8.84085C13.9968 8.78868 14.0116 8.7277 14.0116 8.65791H14.1199C14.1199 8.85529 14.1845 8.95395 14.3137 8.95395C14.4092 8.95395 14.4854 8.9295 14.5424 8.88055C14.5424 8.8589 14.491 8.77385 14.3883 8.62542L14.5737 8.38227C14.6026 8.41279 14.6314 8.46371 14.6603 8.53513C14.6924 8.61377 14.7085 8.67957 14.7085 8.73251C14.7085 8.76302 14.6944 8.82116 14.6663 8.90703C14.6535 8.94635 14.6314 9.0041 14.6001 9.08034C14.5721 9.13569 14.5307 9.18266 14.4762 9.22116C14.4176 9.26289 14.359 9.28373 14.3004 9.28373C14.2371 9.28373 14.1813 9.25808 14.1332 9.20673C14.0874 9.15937 14.0594 9.1032 14.0489 9.03823C14.004 9.20191 13.9045 9.28373 13.7504 9.28373C13.6373 9.28373 13.5482 9.2023 13.4833 9.03943C13.4006 9.2023 13.3011 9.28373 13.1848 9.28373ZM11.1278 8.88777L11.0749 8.62061C10.9513 8.64708 10.8358 8.70883 10.7282 8.80595C10.7756 8.86453 10.8739 8.89379 11.0231 8.89379C11.0608 8.89379 11.0957 8.89177 11.1278 8.88777ZM15.2911 8.99732C15.2686 8.94837 15.239 8.90423 15.2021 8.86491C15.1563 8.81596 15.1114 8.79151 15.0672 8.79151C15.0448 8.79151 15.0203 8.81154 14.9938 8.85168C14.9714 8.88537 14.9573 8.91588 14.9517 8.94312C14.9605 8.96964 14.9922 8.99048 15.0468 9.00574C15.0869 9.01695 15.1266 9.02258 15.1659 9.02258C15.2165 9.02258 15.2582 9.01416 15.2911 8.99732ZM16.2431 9.08034C16.2447 9.06431 16.2455 9.04905 16.2455 9.03462C16.2455 8.88296 16.1645 8.78988 16.0024 8.75537C15.9567 8.7867 15.9254 8.8332 15.9085 8.89499C15.9711 8.98167 16.0826 9.04342 16.2431 9.08034Z" fill="#313C4C"/>
<path fill-rule="evenodd" clip-rule="evenodd" d="M8.40561 15.2308H7.65114C7.3512 15.2308 7.10805 14.9876 7.10805 14.6877V14.6871C7.10805 14.6271 7.15666 14.5785 7.21663 14.5785C7.54665 14.5785 8.5359 14.5785 8.8806 14.5785C8.94692 14.5785 9.00063 14.6322 9.00063 14.6985C9.00063 14.8158 9.00063 15.8264 9.00063 15.8264C9.00068 15.8867 8.95178 15.9356 8.89148 15.9356H8.89056C8.62272 15.9356 8.40561 15.7185 8.40561 15.4506V15.2308ZM13.6928 12.9373C13.6738 13.4484 13.9848 13.6576 14.2747 13.4937C14.5378 13.345 14.8032 12.4453 15.0079 11.6803C15.1013 11.3312 15.185 11.0103 15.2392 10.8014C15.2766 10.6566 15.4072 10.5555 15.5567 10.5555C15.7461 10.5555 16.0025 10.5555 16.1849 10.5555C16.2376 10.5555 16.2871 10.5807 16.3181 10.6233C16.3491 10.6659 16.3578 10.7208 16.3414 10.7709C16.171 11.292 15.7201 12.6374 15.346 13.4527C15.0411 14.1174 14.6707 14.2224 14.2174 14.2152C14.1791 14.2145 13.8907 14.1888 13.7392 13.9804C13.5878 13.7719 13.5004 13.4621 13.5801 13.2171C13.5833 13.2071 13.5866 13.197 13.5898 13.1868C13.5502 13.28 13.5111 13.3691 13.4728 13.4527C13.1678 14.1174 12.7974 14.2224 12.3441 14.2152C12.3058 14.2145 12.0174 14.1888 11.8659 13.9804C11.7524 13.8241 11.6749 13.6109 11.6767 13.4107C11.6699 13.4248 11.663 13.4388 11.6562 13.4527C11.3827 14.0051 10.9808 14.2224 10.5275 14.2152C10.4892 14.2145 10.0547 14.2634 9.7374 13.9688C9.55282 13.7976 9.38812 13.3947 9.35005 13.0999C9.29812 13.2249 9.24662 13.3435 9.19657 13.4527C8.89157 14.1174 8.52122 14.2224 8.06794 14.2152C8.02958 14.2145 7.76135 14.1726 7.58973 13.9804C7.43826 13.8107 7.34504 13.5132 7.31216 13.2498C7.2818 13.3203 7.25171 13.3881 7.22212 13.4527C6.91712 14.1174 6.54677 14.2224 6.09348 14.2152C6.05513 14.2145 5.7869 14.1726 5.61527 13.9804C5.43758 13.7813 5.34002 13.4063 5.32611 13.1169C5.2762 13.2364 5.22677 13.3501 5.17864 13.455C4.8737 14.1197 4.63392 14.5468 3.90976 15.0451C2.3216 16.1377 0.623694 15.3226 0.460199 13.8925C0.373133 13.1306 0.800039 12.0382 1.50003 11.1004C1.63431 10.9205 2.07262 11.0244 2.07262 11.0244C2.01756 11.4413 0.48537 12.8639 1.10999 14.2564C1.30395 14.6888 2.24093 14.7941 2.93457 14.4886C3.35998 14.3013 3.73443 13.9265 4.01108 13.4709C4.1868 13.1814 4.5378 12.4476 4.74245 11.6826C4.83582 11.3336 4.91961 11.0127 4.97376 10.8037C5.01115 10.659 5.14173 10.5578 5.29122 10.5578C5.50607 10.5578 5.81101 10.5578 6.01749 10.5578C6.07019 10.5578 6.11971 10.583 6.15071 10.6256C6.18171 10.6683 6.19037 10.7232 6.17405 10.7733C6.05426 11.1396 5.7958 11.9133 5.52291 12.6238C5.46501 13.3795 5.84437 13.6669 6.15081 13.4937C6.41383 13.345 6.67927 12.4453 6.88391 11.6803C6.97728 11.3312 7.06107 11.0103 7.11522 10.8014C7.15266 10.6566 7.28319 10.5555 7.43273 10.5555C7.62217 10.5555 7.87855 10.5555 8.06096 10.5555C8.11366 10.5555 8.16319 10.5807 8.19413 10.6233C8.22513 10.6659 8.23379 10.7208 8.21747 10.7709C8.0868 11.1704 7.79129 12.0545 7.49193 12.8126C7.50579 13.4266 7.84582 13.6516 8.12526 13.4937C8.38829 13.345 8.65372 12.4453 8.85836 11.6803C8.95178 11.3312 9.03558 11.0103 9.08972 10.8014C9.12712 10.6566 9.25769 10.5555 9.40718 10.5555C9.59662 10.5555 9.85305 10.5555 10.0354 10.5555C10.0881 10.5555 10.1376 10.5807 10.1686 10.6233C10.1996 10.6659 10.2083 10.7208 10.192 10.7709C10.0683 11.1489 9.79722 11.9604 9.51485 12.6888C9.50243 13.2351 9.81883 13.6562 10.4727 13.4828C10.8531 13.3819 11.1133 12.4453 11.318 11.6803C11.4114 11.3312 11.4952 11.0103 11.5493 10.8014C11.5867 10.6566 11.7173 10.5555 11.8668 10.5555C12.0575 10.5555 12.316 10.5555 12.4985 10.5555C12.5509 10.5554 12.6001 10.5802 12.6312 10.6223C12.6623 10.6644 12.6715 10.7188 12.656 10.7687C12.5157 11.2177 12.1716 12.2856 11.824 13.0882C11.8655 13.4882 12.1419 13.6404 12.4014 13.4937C12.6645 13.345 12.9299 12.4453 13.1346 11.6803C13.228 11.3312 13.3118 11.0103 13.3659 10.8014C13.4033 10.6566 13.5339 10.5555 13.6834 10.5555C13.8728 10.5555 14.1292 10.5555 14.3116 10.5555C14.3643 10.5555 14.4138 10.5807 14.4448 10.6233C14.4758 10.6659 14.4844 10.7208 14.4681 10.7709C14.3302 11.1926 14.0087 12.1539 13.6928 12.9373ZM6.8624 14.6985C6.8624 14.6322 6.80868 14.5785 6.74236 14.5785C6.37995 14.5785 5.30027 14.5785 4.9534 14.5785C4.92457 14.5785 4.89694 14.5899 4.87659 14.6103C4.85618 14.6307 4.84477 14.6583 4.84477 14.6871V14.6877C4.84477 14.9876 5.08792 15.2308 5.38786 15.2308C5.85101 15.2308 6.48189 15.2308 6.74236 15.2308C6.80868 15.2308 6.8624 15.1771 6.8624 15.1108C6.8624 14.9935 6.8624 14.8158 6.8624 14.6985ZM22.9571 9.16079C23.0927 9.19659 23.2364 9.1464 23.3203 9.03397C23.4537 8.82648 23.5241 8.57178 23.5502 8.27247C23.555 8.22126 23.5382 8.17034 23.5039 8.13198C23.4697 8.09357 23.421 8.07114 23.3696 8.06999C22.9583 8.06084 21.9804 8.06325 21.3947 8.25018C20.6239 8.49622 19.6115 8.86893 18.9363 9.55126C18.5104 9.98163 18.1884 10.4634 17.9307 11.0042C17.9007 11.0686 17.907 11.144 17.9474 11.2024C17.9877 11.2609 18.056 11.2935 18.1268 11.2882C18.7743 11.2143 20.1521 11.1598 20.4732 11.8734C20.6225 12.2052 19.9187 13.2837 18.5923 13.3069C17.6066 13.3241 17.1695 12.4466 17.303 11.5616C17.442 10.6401 18.2489 9.32337 19.2526 8.14781C19.2781 8.1184 19.2842 8.07696 19.2684 8.04145C19.2526 8.00588 19.2177 7.98268 19.1789 7.98186C18.9642 7.97719 18.6294 7.97007 18.3739 7.96463C18.1489 7.95967 17.9384 8.07528 17.8217 8.26775C17.2481 9.20646 16.9624 9.79821 16.699 10.586C16.4033 11.4701 16.1464 12.3537 16.436 13.2609C16.7208 14.1531 17.7876 14.2608 17.9518 14.2592C18.5692 14.2531 19.6832 14.0331 20.4018 12.9015C20.9315 12.0672 21.4287 10.2276 18.8545 10.4971C19.2493 9.92902 19.9267 9.42516 20.8813 9.24761C21.7255 9.09057 22.5268 9.08898 22.9571 9.16079ZM4.22992 10.874C4.25976 10.792 4.24773 10.7006 4.19767 10.6291C4.14762 10.5576 4.06585 10.515 3.97859 10.515C3.86101 10.515 3.72952 10.515 3.60438 10.515C3.29309 10.515 3.01504 10.7098 2.90858 11.0023C2.86724 11.1158 2.82281 11.2379 2.78017 11.3551C2.73161 11.4886 2.7512 11.6373 2.83263 11.7536C2.91407 11.8699 3.04714 11.9392 3.18913 11.9392C3.24366 11.9392 3.29833 11.9392 3.35161 11.9392C3.64621 11.9392 3.90933 11.7549 4.01007 11.4781C4.08139 11.2822 4.16326 11.0572 4.22992 10.874Z" fill="#FDB816"/>
</svg>
