<svg width="24" height="24" viewBox="0 0 24 24" fill="none" xmlns="http://www.w3.org/2000/svg">
<path d="M4.51891 10.5783C3.45392 10.5783 2.5065 11.1191 1.97437 12.0476C1.45182 12.9594 1.43758 14.0785 1.97388 14.9881C2.49349 15.8695 3.47429 16.3362 4.47891 16.3362C7.58592 16.3362 9.60272 13.1778 11.2361 10.6199C11.6088 10.0362 11.9616 9.48378 12.3028 9.00728C12.4935 8.74094 12.6918 8.48245 12.8999 8.2345C13.1805 7.90023 13.4787 7.58484 13.8 7.2957C14.9906 6.22323 16.5276 5.50764 18.5999 5.50028L18.5999 9.00728C17.6601 9.00728 16.7662 9.3521 15.8936 9.9066C15.4864 10.1653 15.0839 10.4697 14.6836 10.8059C13.7646 11.5779 12.9259 12.4354 12.0871 13.293C11.1909 14.2093 10.2946 15.1258 9.29997 15.9382C8.98874 16.1923 8.67285 16.4316 8.35107 16.6509C8.11446 16.8123 7.87466 16.9631 7.63118 17.1007C6.67099 17.6441 5.61336 18 4.50002 18C3.52559 17.9978 2.57915 17.6858 1.79986 17.1007C1.61749 16.9638 1.44568 16.8132 1.28638 16.6509C0.490647 15.8399 0 14.7289 0 13.5036C0 13.0335 0.0721613 12.5805 0.20593 12.1545C0.491138 11.2479 1.05616 10.4648 1.79961 9.9066C2.57719 9.32291 3.52731 9.00728 4.50002 9.00728C5.70197 9.01047 6.84182 9.35676 7.90117 9.9066C8.37954 10.1548 8.84466 10.4437 9.29997 10.7598C9.32206 10.775 9.34415 10.7905 9.36624 10.8059C9.38558 10.8195 9.40851 10.8334 9.43385 10.8487C9.46156 10.8655 9.49214 10.884 9.52406 10.9057L9.84658 11.1247L9.85247 11.1289L9.00224 12.3578C7.72641 11.4311 6.13886 10.5783 4.51891 10.5783Z" fill="#0091AB"/>
<path d="M18.5999 9.00728L18.5999 12.468C19.6681 12.4716 20.535 13.3482 20.535 14.4027C20.535 15.4693 19.6676 16.324 18.6078 16.3372L18.5999 16.3375L18.6029 16.3372C18.5978 16.3356 18.5918 16.3358 18.586 16.3361C18.5839 16.3362 18.5801 16.3362 18.5801 16.3362V16.3375C18.462 16.3375 18.3439 16.3301 18.2264 16.3198C16.6302 16.0157 14.714 14.3743 13.4298 13.2736L13.3933 13.2425L12.2858 14.3492C14.2209 16.0542 16.7777 17.9863 19.4764 18H19.5233C20.5274 17.9948 21.4537 17.6611 22.2001 17.1007C22.3825 16.9638 22.5541 16.8132 22.7134 16.6509C23.5094 15.8399 24 14.7289 24 13.5034C24 13.0337 23.9278 12.5805 23.7941 12.1545C23.5089 11.2479 22.9438 10.4648 22.2001 9.9066C21.4537 9.34621 20.5274 9.01243 19.5233 9.00728H18.5999Z" fill="#0091AB"/>
</svg>
