<svg width="24" height="24" viewBox="0 0 24 24" fill="none" xmlns="http://www.w3.org/2000/svg">
<path fill-rule="evenodd" clip-rule="evenodd" d="M4.72759 1.98584C6.41906 1.98584 7.79229 3.35907 7.79229 5.05055C7.79229 6.74202 6.41906 8.11525 4.72759 8.11525C3.03612 8.11525 1.66288 6.74202 1.66288 5.05055C1.66288 3.35907 3.03612 1.98584 4.72759 1.98584Z" fill="url(#paint0_linear_3775_100775)"/>
<path fill-rule="evenodd" clip-rule="evenodd" d="M19.1955 15.8392C20.887 15.8392 22.2602 17.2125 22.2602 18.9039C22.2602 20.5954 20.887 21.9686 19.1955 21.9686C17.504 21.9686 16.1308 20.5954 16.1308 18.9039C16.1308 17.2125 17.504 15.8392 19.1955 15.8392Z" fill="url(#paint1_linear_3775_100775)"/>
<path d="M10.4227 4.06382C11.0426 2.81107 12.3193 2.01831 13.717 2.01831H22.4586L13.5773 19.9685C12.9574 21.2212 11.6807 22.014 10.283 22.014H1.54138L10.4227 4.06382Z" fill="url(#paint2_linear_3775_100775)"/>
<path d="M13.0873 20.7147L16.7046 2.01831H22.4586L13.5773 19.9685C13.443 20.2399 13.2778 20.4898 13.0873 20.7147Z" fill="url(#paint3_radial_3775_100775)"/>
<path d="M10.8174 3.43506L7.11987 22.0141H1.54138L10.4227 4.06395C10.5341 3.83882 10.6667 3.62855 10.8174 3.43506Z" fill="url(#paint4_linear_3775_100775)"/>
<defs>
<linearGradient id="paint0_linear_3775_100775" x1="1.66288" y1="1.98584" x2="7.7923" y2="8.11525" gradientUnits="userSpaceOnUse">
<stop stop-color="#948BC2"/>
<stop offset="1" stop-color="#603794"/>
</linearGradient>
<linearGradient id="paint1_linear_3775_100775" x1="16.1308" y1="15.8392" x2="22.2602" y2="21.9686" gradientUnits="userSpaceOnUse">
<stop offset="0.0955543" stop-color="#5E3593"/>
<stop offset="0.907612" stop-color="#948BC2"/>
</linearGradient>
<linearGradient id="paint2_linear_3775_100775" x1="15.3446" y1="2.01831" x2="8.64657" y2="22.014" gradientUnits="userSpaceOnUse">
<stop stop-color="#643D98"/>
<stop offset="1" stop-color="#938AC1"/>
</linearGradient>
<radialGradient id="paint3_radial_3775_100775" cx="0" cy="0" r="1" gradientUnits="userSpaceOnUse" gradientTransform="translate(19.1068 20.7147) rotate(-93.6872) scale(20.7407 19.542)">
<stop stop-color="#623A96"/>
<stop offset="1" stop-color="#9992C6"/>
</radialGradient>
<linearGradient id="paint4_linear_3775_100775" x1="10.8174" y1="12.7246" x2="1.54138" y2="14.0834" gradientUnits="userSpaceOnUse">
<stop stop-color="#65409A"/>
<stop offset="1" stop-color="#9992C6"/>
</linearGradient>
</defs>
</svg>
