<svg width="24" height="25" viewBox="0 0 24 25" fill="none" xmlns="http://www.w3.org/2000/svg">
<path fill-rule="evenodd" clip-rule="evenodd" d="M0 9.85498C3.83065 9.11468 8.0619 8.98628 12.9398 9.55023C17.0362 13.9359 18.9922 17.6304 20.3841 21.2705C15.2788 15.8281 8.8778 11.6414 0 9.85498Z" fill="#4DA2E7"/>
<path fill-rule="evenodd" clip-rule="evenodd" d="M4.85915 6.08141C8.77555 5.54171 11.3585 5.69146 15.3067 6.28051C17.6044 8.25991 21.2648 12.1998 22.6567 15.84C17.5514 10.3975 14.1386 7.65411 4.85915 6.08141Z" fill="#82BEEE"/>
<path fill-rule="evenodd" clip-rule="evenodd" d="M7.31587 3.62488C11.3058 3.71158 13.5939 3.98243 17.5422 4.57148C19.407 6.27453 21.3403 8.18563 23.6933 11.3585C17.5893 6.06493 16.5953 5.19753 7.31587 3.62488Z" fill="#A6D0F3"/>
</svg>
