<svg width="24" height="24" viewBox="0 0 24 24" fill="none" xmlns="http://www.w3.org/2000/svg">
<path fill-rule="evenodd" clip-rule="evenodd" d="M2.15515 15.7328L6 22.3923H8.86695L5.0371 15.7896L5.7677 14.5242L10.3103 22.3923H18L19.4353 19.9063L11.7916 19.9094L7.2251 12L8.8877 9.12022H5.97295L2.15515 15.7328ZM20.1551 18.6594L24 12L22.5665 9.51712L18.7634 16.1352H17.3022L21.8448 8.26712L18 1.60767H15.1294L18.954 8.22572L14.3874 16.1352H11.0622L12.5196 18.6594H20.1551ZM12.93 5.34052L12.1995 4.07507L4.56655 4.09052L6 1.60767H13.6897L17.5075 8.22027L16.0501 10.7445L14.3875 7.86477H5.2544L1.4353 14.486L0 12L3.84485 5.34052H12.93Z" fill="#B11116"/>
<path fill-rule="evenodd" clip-rule="evenodd" d="M12.0001 9.13025C13.6085 9.13025 14.9144 10.4361 14.9144 12.0446C14.9144 13.653 13.6085 14.9589 12.0001 14.9589C10.3916 14.9589 9.08574 13.653 9.08574 12.0446C9.08574 10.4361 10.3916 9.13025 12.0001 9.13025Z" fill="#00A1BF"/>
</svg>
