<svg width="24" height="24" viewBox="0 0 24 24" fill="none" xmlns="http://www.w3.org/2000/svg">
<path d="M5.40592 4.36131H18.2527L14.3182 0.793213H2.301C1.16746 0.793213 0.937469 2.38361 0.937469 2.38361V13.6894C0.937469 13.6894 1.24139 19.0704 8.65048 19.0704C16.0596 19.0704 15.156 14.0685 15.156 14.0685C15.156 14.0685 14.4743 17.101 10.3919 17.101C6.30947 17.101 5.40592 13.6153 5.40592 13.6153V4.36131Z" fill="#007D3D"/>
<path d="M18.5941 19.6386H5.74726L9.6818 23.2067H21.699C22.8325 23.2067 23.0625 21.6163 23.0625 21.6163V10.3187C23.0625 10.3187 22.7586 4.92947 15.3495 4.92947C7.94042 4.92947 8.84397 9.9314 8.84397 9.9314C8.84397 9.9314 9.52573 6.89893 13.6081 6.89893C17.6905 6.89893 18.5941 10.3846 18.5941 10.3846V19.6386Z" fill="#007D3D"/>
<path d="M12.1946 15.376C14.1801 15.376 15.7897 13.7624 15.7897 11.7719C15.7897 9.78136 14.1801 8.16772 12.1946 8.16772C10.2092 8.16772 8.59961 9.78136 8.59961 11.7719C8.59961 13.7624 10.2092 15.376 12.1946 15.376Z" fill="#FFF400"/>
</svg>
