<svg width="24" height="25" viewBox="0 0 24 25" fill="none" xmlns="http://www.w3.org/2000/svg">
<path fill-rule="evenodd" clip-rule="evenodd" d="M15.6198 17.7114C5.2418 26.4995 -5.06127 13.1563 3.82225 4.16416C-0.314411 13.9132 7.29489 21.2911 15.6198 17.7114ZM17.0503 8.86754C25.9868 19.1251 12.8519 29.6759 3.73667 20.9199C13.5277 24.9046 20.7586 17.1536 17.0503 8.86754ZM8.34215 7.48056C18.6633 -1.37454 29.0522 11.9016 20.2268 20.9512C24.3005 11.1755 16.6438 3.84705 8.34215 7.48056ZM6.61602 15.804C-1.31047 4.7432 12.7628 -4.51168 21.0092 5.07122C11.639 0.173902 3.70782 7.20281 6.61602 15.804Z" fill="#4C2A93"/>
<path fill-rule="evenodd" clip-rule="evenodd" d="M12 16.9576C14.3864 16.9576 16.3327 15.0113 16.3327 12.625C16.3327 10.2386 14.3864 8.29224 12 8.29224C9.61364 8.29224 7.66731 10.2386 7.66731 12.625C7.66731 15.0113 9.61364 16.9576 12 16.9576Z" fill="#F10B7C"/>
</svg>
