<svg width="24" height="24" viewBox="0 0 24 24" fill="none" xmlns="http://www.w3.org/2000/svg">
<path fill-rule="evenodd" clip-rule="evenodd" d="M18.5872 18.8529C16.9313 20.446 14.7207 21.3368 12.4229 21.3368C8.75344 21.3368 5.44444 19.065 4.12594 15.6406C4.10089 15.5729 4.04294 15.5225 3.97249 15.5072C3.90254 15.4895 3.82819 15.5086 3.77559 15.558L0.071141 18.9386C0.027191 18.9777 0.00149098 19.0333 0.000190984 19.0921C-0.00240902 19.1507 0.019441 19.2079 0.060541 19.2498C2.44039 21.7626 5.75299 23.1878 9.21394 23.1878C13.0423 23.1878 16.6695 21.4439 19.0603 18.4538C19.065 18.4482 19.0676 18.4411 19.0676 18.4337C19.0676 18.4166 19.0536 18.4026 19.0365 18.4026C19.0273 18.4026 19.0186 18.4066 19.0127 18.4136C18.8765 18.5618 18.7346 18.7082 18.5872 18.8529ZM13.874 7.1065C17.6664 8.2028 20.2957 11.6998 20.2957 15.6475C20.2957 17.6813 19.5979 19.6548 18.3194 21.2364C18.273 21.292 18.2582 21.3676 18.2802 21.4365C18.2999 21.506 18.3539 21.5608 18.4231 21.5815L23.203 23.0982C23.2241 23.1048 23.2462 23.1082 23.2683 23.1082C23.3648 23.1082 23.4504 23.0445 23.4782 22.9521C23.8242 21.7869 24 20.5777 24 19.3621C24 13.1583 19.4218 7.83005 13.2887 6.8959C13.2731 6.89315 13.2579 6.90285 13.2538 6.9181C13.253 6.9208 13.2527 6.9236 13.2527 6.9264C13.2527 6.94105 13.2628 6.95385 13.2771 6.95725C13.4775 6.9996 13.6764 7.04935 13.874 7.1065ZM6.05864 17.062C5.88624 16.3643 5.79909 15.6482 5.79909 14.9294C5.79909 10.0521 9.81249 6.0387 14.6898 6.0387C15.1521 6.0387 15.6136 6.07475 16.0702 6.1465C16.0809 6.1481 16.0916 6.14885 16.1023 6.14885C16.2231 6.14885 16.3225 6.0495 16.3225 5.9287C16.3225 5.9137 16.321 5.89875 16.3179 5.88405L15.2415 0.986698C15.2295 0.929348 15.1942 0.879498 15.1441 0.849098C15.0947 0.817048 15.034 0.807048 14.9769 0.821598C9.32279 2.17295 5.30139 7.2687 5.30139 13.0821C5.30139 14.6524 5.59484 16.2091 6.16659 17.6717C6.17244 17.6863 6.18834 17.6945 6.20364 17.6907C6.21714 17.6872 6.22664 17.675 6.22664 17.661C6.22664 17.6574 6.22604 17.6539 6.22479 17.6505C6.16339 17.4579 6.10729 17.2599 6.05864 17.062Z" fill="#962575"/>
<path fill-rule="evenodd" clip-rule="evenodd" d="M12.1321 10.0017C14.5271 9.61125 16.7885 11.2386 17.179 13.6336C17.5695 16.0286 15.9421 18.29 13.5471 18.6805C11.1521 19.071 8.89069 17.4436 8.50024 15.0486C8.10974 12.6536 9.73714 10.3922 12.1321 10.0017Z" fill="#FAA61A"/>
</svg>
