<svg width="24" height="24" viewBox="0 0 24 24" fill="none" xmlns="http://www.w3.org/2000/svg">
<path fill-rule="evenodd" clip-rule="evenodd" d="M12.9539 23.8H11.0463V22.3535H10.1775V20.5683L6.33166 20.5643L6.33608 16.0149H5.42994L5.42699 15.6147H4.30796V15.0031H3.60585V14.0915H4.30796V13.2901H5.40044L5.08577 12.8053H3.26169C3.00799 12.8053 2.84229 13.12 2.84229 13.12L2.52959 13.0217C2.55841 12.8924 2.59892 12.766 2.65054 12.6441C2.69971 12.5049 2.81132 12.232 2.81132 12.232L2.82607 12.1952C2.85114 12.1352 2.87524 12.0757 2.90523 12.0177C3.05273 11.6638 3.31474 11.3694 3.64912 11.1818C3.69381 11.1601 3.73998 11.1416 3.78728 11.1263C3.87229 11.0992 3.9603 11.0828 4.04934 11.0771C4.07638 11.0771 4.10342 11.0771 4.13046 11.0771L4.13784 11.0589L4.14915 11.0324C4.18169 10.9594 4.22334 10.8909 4.27305 10.8283C4.30535 10.7898 4.34085 10.7541 4.37925 10.7216C4.53393 10.5825 4.72219 10.4861 4.92549 10.4419L4.91615 8.73333L5.83704 8.73628L5.83458 7.5258L6.73581 7.52039L6.73925 6.71356L7.28844 6.7111L6.65124 5.60829H5.79574L7.22158 4.17902L9.67549 4.18197V1.47779H11.0659V0.199951H12.9343V1.47829H14.3227V4.18246L16.7766 4.17951L18.2044 5.60829H17.3489L16.7098 6.71209L17.259 6.71454L17.2624 7.52137L18.1636 7.52678L18.1597 8.7353L19.0811 8.73235L19.0717 10.4409C19.2762 10.4849 19.4656 10.5817 19.6209 10.7216C19.6602 10.7556 19.6964 10.7929 19.7291 10.8332C19.7788 10.8958 19.8205 10.9643 19.853 11.0373L19.8643 11.0638L19.8712 11.082C19.8982 11.082 19.9253 11.082 19.9523 11.082C20.0414 11.0877 20.1294 11.1042 20.2144 11.1312C20.2617 11.1465 20.3078 11.165 20.3525 11.1868C20.6869 11.3743 20.9489 11.6687 21.0964 12.0226C21.1245 12.0811 21.1505 12.1406 21.1756 12.2001L21.1903 12.237C21.1903 12.237 21.3019 12.5103 21.3511 12.649C21.4027 12.7709 21.4433 12.8973 21.4721 13.0266L21.1594 13.1249C21.1594 13.1249 20.9937 12.8102 20.74 12.8102H18.9159L18.6012 13.295H19.6937V14.0964H20.3963V14.9991H19.6908V15.6108H18.5752L18.5722 16.011H17.6666L17.671 20.5604L13.8252 20.5643V22.3496H12.9539V23.8Z" fill="#E8C06A"/>
<path fill-rule="evenodd" clip-rule="evenodd" d="M12.5532 23.4068H11.4469V21.9603H10.5796V20.5644H11.4489V21.3649H12.5517V20.5644H13.421V21.9603H12.5532V23.4068ZM17.2585 20.1711H6.74218V15.7952H17.258L17.2585 20.1711ZM15.5263 19.6455C15.5308 19.6698 15.529 19.6949 15.5209 19.7183C15.5107 19.7487 15.4977 19.7782 15.4821 19.8063C15.4636 19.8401 15.4393 19.8704 15.4103 19.8958C15.3987 19.9098 15.3825 19.9194 15.3646 19.9228C15.346 19.9166 15.3292 19.9061 15.3154 19.8923C15.2947 19.8752 15.2731 19.8577 15.2505 19.8397C15.2332 19.8267 15.2168 19.8125 15.2013 19.7974C15.1903 19.7892 15.1827 19.7771 15.1802 19.7635C15.1939 19.7345 15.2048 19.7119 15.2116 19.6961C15.2352 19.6463 15.2528 19.6102 15.2642 19.588C15.2852 19.5552 15.3064 19.5203 15.3277 19.4832L15.3488 19.4528C15.3553 19.459 15.3624 19.4646 15.37 19.4695L15.398 19.4862C15.4336 19.5122 15.4665 19.5417 15.4963 19.5742C15.5127 19.5947 15.5236 19.6191 15.5278 19.645L15.5263 19.6455ZM12.8929 19.1578C13.0516 19.1582 13.2098 19.1429 13.3654 19.112C13.5033 19.0851 13.639 19.0484 13.7715 19.0019C13.8914 18.9588 14.0049 18.8996 14.1088 18.8259C14.2071 18.7581 14.2957 18.6774 14.3724 18.586C14.3934 18.5588 14.4261 18.516 14.4707 18.4576C14.4918 18.4281 14.5071 18.4085 14.5164 18.3967C14.5258 18.3849 14.5282 18.3873 14.5307 18.3898C14.5335 18.3936 14.5347 18.3983 14.5341 18.4031L14.5307 18.4404C14.5284 18.4607 14.5232 18.5042 14.5149 18.5707C14.5073 18.6291 14.5032 18.6879 14.5027 18.7467C14.4998 18.8345 14.5146 18.922 14.5464 19.0039C14.5717 19.0687 14.6367 19.1099 14.7062 19.1052C14.7554 19.1052 14.8034 19.0686 14.8503 18.9955C14.9059 18.8996 14.9451 18.7951 14.9663 18.6863L14.9752 18.6425C14.9782 18.6291 14.9799 18.6154 14.9806 18.6017C14.9806 18.5791 14.9747 18.5678 14.9629 18.5678C14.9511 18.5678 14.9457 18.5781 14.9402 18.5982C14.9348 18.6184 14.9289 18.6366 14.9245 18.6523C14.8989 18.7221 14.8696 18.7571 14.8365 18.7571C14.7979 18.7581 14.7598 18.7475 14.7273 18.7266C14.6709 18.6795 14.6418 18.6069 14.6502 18.5338V18.4812C14.6502 18.4406 14.6537 18.3803 14.661 18.3003C14.6688 18.2114 14.6793 18.1229 14.6924 18.0348L14.7662 17.6798C14.7695 17.6625 14.7729 17.645 14.7765 17.6277L14.8586 17.5721L15.1871 17.3234C15.2811 17.2627 15.3749 17.2014 15.4683 17.1395C15.5493 17.0857 15.6289 17.0303 15.7072 16.9733C15.8337 16.8808 15.9286 16.8104 15.9919 16.7619C16.0761 16.6963 16.136 16.6491 16.1714 16.6203C16.2068 16.5914 16.2413 16.5598 16.2751 16.5254C16.3174 16.4851 16.3579 16.4433 16.3966 16.4C16.4312 16.3601 16.4629 16.3177 16.4915 16.2731C16.52 16.2345 16.5425 16.1917 16.5583 16.1463C16.563 16.1381 16.5654 16.1287 16.5652 16.1193C16.5652 16.1232 16.4773 16.1976 16.3017 16.3425C16.2102 16.4198 16.1176 16.4962 16.0239 16.5716C15.9232 16.6516 15.8202 16.7291 15.7146 16.8041C15.5652 16.9084 15.4152 17.012 15.2647 17.1149C15.1196 17.2178 14.9805 17.3292 14.8483 17.4482C14.8169 17.4753 14.7895 17.5067 14.7672 17.5417C14.7629 17.5475 14.759 17.5535 14.7554 17.5598C14.7393 17.5868 14.7249 17.6148 14.7121 17.6434L14.6964 17.6744C14.6666 17.73 14.6408 17.7877 14.6192 17.847L14.57 18.0397C14.5455 18.129 14.5062 18.2136 14.454 18.29C14.3815 18.386 14.2893 18.4655 14.1836 18.523C13.8941 18.6829 13.5718 18.7743 13.2415 18.79C13.1619 18.7969 13.0553 18.8003 12.9219 18.8003C12.7614 18.8223 12.5982 18.7864 12.4617 18.699C12.4327 18.6668 12.4154 18.6258 12.4126 18.5825C12.4091 18.5383 12.4037 18.5166 12.3968 18.5166C12.3782 18.5166 12.3636 18.555 12.3531 18.6317C12.3428 18.7056 12.3376 18.7802 12.3374 18.8549C12.332 18.9231 12.3514 18.991 12.3919 19.0462C12.4489 19.0975 12.521 19.1289 12.5974 19.1356C12.6788 19.1484 12.761 19.1541 12.8433 19.1528L12.8929 19.1578ZM9.28213 18.2442C9.27987 18.2897 9.27392 18.3349 9.26443 18.3795C9.25263 18.4424 9.24083 18.4976 9.22903 18.5451L9.18675 18.7108C9.16315 18.7738 9.14447 18.82 9.1307 18.8495C9.11339 18.8855 9.09402 18.9204 9.07268 18.9542C9.05808 18.9779 9.03964 18.999 9.01811 19.0167C8.98822 19.0379 8.95645 19.0566 8.92322 19.0722L8.79686 19.1214C8.76977 19.1298 8.74219 19.1365 8.71426 19.1415C8.68712 19.1482 8.65949 19.1528 8.63166 19.1553C8.61986 19.1553 8.61298 19.1514 8.61052 19.1435C8.6086 19.1335 8.61111 19.123 8.6174 19.115C8.64189 19.0821 8.67183 19.0537 8.7059 19.0309C8.75408 18.9949 8.80163 18.96 8.84848 18.9262C8.90222 18.8786 8.94205 18.8415 8.96796 18.8146C9.00823 18.7726 9.04358 18.726 9.07318 18.6759C9.08512 18.6537 9.0952 18.6305 9.10317 18.6066C9.11595 18.5718 9.13645 18.515 9.16463 18.436L9.20691 18.3141C9.21148 18.296 9.21856 18.2741 9.22805 18.2482C9.23739 18.2226 9.24919 18.2093 9.26345 18.2093C9.27225 18.2189 9.27835 18.2306 9.28115 18.2433L9.28213 18.2442ZM11.8531 18.6273V18.6302C11.9022 18.582 11.9314 18.5525 11.9406 18.5417C11.9772 18.5002 12.007 18.4531 12.0286 18.4021C12.057 18.3311 12.0776 18.2572 12.09 18.1818C12.1047 18.112 12.1135 18.0411 12.1161 17.9699C12.1161 17.9109 12.1161 17.8489 12.1161 17.784C12.1161 17.7191 12.1202 17.6536 12.1284 17.5874C12.1284 17.5259 12.1318 17.489 12.1318 17.4723C12.1318 17.4694 12.1318 17.4664 12.1318 17.464C12.1392 17.46 12.1486 17.4541 12.1594 17.4473L12.2631 17.3765L12.5144 17.2063C12.6127 17.1431 12.7097 17.0791 12.8054 17.0146C12.8893 16.9585 12.9713 16.9005 13.0513 16.8405C13.1824 16.7422 13.2807 16.6681 13.3463 16.6183C13.4341 16.5504 13.4964 16.5013 13.5331 16.4708C13.5698 16.4403 13.6062 16.4065 13.6422 16.3695C13.6868 16.3266 13.7296 16.282 13.7706 16.2358C13.8077 16.1925 13.8417 16.1466 13.8723 16.0986C13.9033 16.0562 13.9281 16.0097 13.9461 15.9604C13.9513 15.9513 13.9542 15.941 13.9544 15.9305C13.9544 15.935 13.8625 16.0139 13.6786 16.1669C13.5829 16.2489 13.4862 16.3298 13.3885 16.4098C13.2837 16.4944 13.1763 16.5764 13.0665 16.6557C12.9115 16.7648 12.7559 16.8731 12.5999 16.9807C12.48 17.0603 12.365 17.1471 12.2557 17.2408C12.2226 17.2694 12.1936 17.3025 12.1697 17.3391C12.1461 17.3757 12.1253 17.414 12.1073 17.4536L12.1014 17.4674V17.4704L11.9824 17.7462C11.9713 17.7739 11.9653 17.8034 11.9647 17.8332C11.9624 17.8716 11.9612 17.916 11.9612 17.9664L11.9647 18.1867C11.968 18.2586 11.9561 18.3302 11.9298 18.3972C11.9188 18.4199 11.9053 18.4414 11.8894 18.4611C11.8783 18.476 11.8647 18.4887 11.8491 18.4989L11.828 18.5088C11.8113 18.5107 11.7945 18.5085 11.7788 18.5024C11.767 18.5201 11.7552 18.5363 11.7434 18.5515C11.7247 18.5762 11.699 18.5945 11.6697 18.6041C11.6558 18.6117 11.6384 18.6091 11.6274 18.5978C11.6112 18.613 11.5959 18.6287 11.5817 18.644C11.5596 18.6675 11.5293 18.6815 11.4971 18.6833C11.4653 18.6834 11.4336 18.6812 11.4022 18.6764C11.3504 18.7115 11.2999 18.7466 11.2508 18.7816C11.2089 18.8085 11.1599 18.8222 11.1102 18.821C11.0266 18.8282 10.9455 18.7891 10.8992 18.7192C10.8712 18.6679 10.8579 18.6099 10.8609 18.5515C10.8609 18.525 10.8609 18.4827 10.8678 18.4232C10.8737 18.3528 10.8819 18.2826 10.8923 18.2128L10.9523 17.8116L10.9666 17.726C10.9707 17.7088 10.9719 17.691 10.97 17.6734L10.9558 17.6798C10.9348 17.7215 10.9068 17.7827 10.8717 17.8637C10.8366 17.9447 10.818 17.9896 10.8156 17.9984C10.7993 18.1059 10.7781 18.261 10.7522 18.4635C10.7263 18.6661 10.7134 18.7808 10.7134 18.8077C10.7139 18.838 10.7162 18.8682 10.7203 18.8982C10.7227 18.9268 10.7284 18.955 10.7375 18.9822C10.762 19.0843 10.8542 19.1567 10.9592 19.1563C11.0563 19.1517 11.1443 19.0968 11.1913 19.0117C11.2568 18.9154 11.3096 18.8672 11.3496 18.8672L11.3988 18.8721C11.4121 18.8739 11.4257 18.8739 11.4391 18.8721C11.4644 18.8624 11.4876 18.8478 11.5074 18.8293C11.5275 18.8116 11.5486 18.7952 11.5708 18.7802C11.5859 18.7717 11.6028 18.7667 11.62 18.7654C11.635 18.7644 11.6495 18.7599 11.6623 18.7521C11.681 18.7344 11.6967 18.7207 11.7115 18.7108C11.7234 18.7015 11.7364 18.6937 11.7503 18.6877C11.7631 18.6823 11.7896 18.6695 11.8295 18.6499L11.8506 18.6332L11.8531 18.6273ZM8.94485 17.3027C8.94731 17.2952 8.94603 17.287 8.94141 17.2806C8.93472 17.2725 8.92631 17.2659 8.91683 17.2614C8.87341 17.2708 8.83187 17.2875 8.79391 17.3106C8.74872 17.3336 8.70516 17.3597 8.66362 17.3887C8.61902 17.4196 8.58264 17.4466 8.55447 17.4699C8.4907 17.5263 8.43076 17.5869 8.37501 17.6513C8.30032 17.7352 8.23759 17.829 8.18867 17.9301C8.15012 18.0025 8.12731 18.0822 8.1218 18.1641C8.11983 18.1982 8.12972 18.2319 8.14982 18.2595C8.17161 18.285 8.19929 18.3047 8.23046 18.317C8.24624 18.3243 8.26271 18.3301 8.27962 18.3342C8.29374 18.3375 8.31714 18.3439 8.34993 18.3534C8.38273 18.3629 8.3991 18.3771 8.3991 18.3962C8.39689 18.4349 8.3841 18.4723 8.36223 18.5043C8.33199 18.5515 8.296 18.5949 8.25504 18.6332C8.20371 18.6817 8.14432 18.721 8.07952 18.7492C7.98807 18.7913 7.8886 18.8131 7.78796 18.8131C7.68815 18.8192 7.58898 18.793 7.50525 18.7384C7.44099 18.6916 7.40406 18.6157 7.40692 18.5363C7.41872 18.41 7.45318 18.287 7.50869 18.173L7.55097 18.084C7.57915 18.0246 7.60029 17.9822 7.6144 17.9566C7.63997 17.9075 7.65717 17.873 7.66357 17.8529C7.66996 17.8327 7.68274 17.8067 7.697 17.7747C7.70216 17.7638 7.70452 17.7518 7.70388 17.7398C7.70388 17.7206 7.69552 17.7113 7.6793 17.7113C7.67242 17.7113 7.66357 17.7196 7.65275 17.7368C7.64193 17.7541 7.6321 17.7708 7.62276 17.786L7.54212 17.9424L7.44035 18.143C7.39787 18.2263 7.36139 18.3125 7.3312 18.4011C7.31291 18.4547 7.29875 18.5095 7.28892 18.5653C7.27938 18.6205 7.27461 18.6764 7.27466 18.7325C7.2752 18.7804 7.28228 18.828 7.2958 18.8741C7.31079 18.9256 7.33587 18.9738 7.36955 19.0157C7.45033 19.1106 7.57241 19.1605 7.69651 19.1494C7.81613 19.1519 7.93408 19.121 8.03723 19.0604C8.08935 19.0302 8.13773 18.9939 8.18129 18.9522C8.22308 18.9128 8.26188 18.8702 8.29732 18.8249C8.3667 18.7262 8.42014 18.6172 8.45564 18.5019C8.49237 18.3956 8.51263 18.2844 8.51562 18.172C8.5229 18.1187 8.50156 18.0654 8.45957 18.0318C8.44832 18.0236 8.43588 18.0172 8.4227 18.0127L8.37894 17.9969L8.31552 17.9679C8.30116 17.9534 8.29246 17.9342 8.29093 17.9138C8.29993 17.8824 8.31684 17.8538 8.3401 17.8308C8.38228 17.7799 8.42993 17.7339 8.48219 17.6936C8.52541 17.6551 8.57394 17.623 8.62625 17.5982C8.66126 17.5801 8.69956 17.5693 8.73884 17.5662C8.74695 17.5666 8.75482 17.5694 8.76146 17.5741L8.78801 17.5918C8.80227 17.5918 8.81849 17.579 8.83718 17.5535C8.84209 17.5471 8.85537 17.522 8.87749 17.4787C8.89559 17.4456 8.91201 17.4117 8.92666 17.3769C8.93605 17.3528 8.94313 17.3277 8.9478 17.3022L8.94485 17.3027ZM10.4125 18.6686L10.3633 18.7934C10.3424 18.8382 10.317 18.8807 10.2876 18.9203C10.2679 18.9498 10.2437 18.976 10.2158 18.998C10.1824 19.0169 10.1472 19.0322 10.1106 19.0437L10.0368 19.0707C9.99913 19.0825 9.96162 19.095 9.92425 19.1081C9.88777 19.1204 9.85001 19.1283 9.81166 19.1317L9.7974 19.1248C9.7974 19.1091 9.83954 19.0753 9.92376 19.0235L10.0609 18.9291C10.0842 18.9134 10.11 18.8942 10.1381 18.8716C10.1708 18.845 10.2016 18.8161 10.2301 18.7851C10.2591 18.7553 10.2813 18.7196 10.295 18.6804C10.2953 18.6735 10.2965 18.6668 10.2984 18.6602L10.207 18.6671C10.1682 18.6685 10.1303 18.6545 10.1017 18.6282C10.0757 18.6077 10.0623 18.575 10.0663 18.5422C10.0698 18.5201 10.0757 18.4985 10.084 18.4778C10.0934 18.4532 10.1145 18.408 10.1475 18.3426C10.1656 18.3049 10.1869 18.2687 10.2109 18.2344C10.2414 18.1936 10.2709 18.1734 10.2989 18.1734C10.3463 18.1737 10.3912 18.1948 10.4218 18.231C10.4568 18.2685 10.4757 18.3183 10.4744 18.3696C10.4744 18.3968 10.4721 18.4239 10.4675 18.4507L10.4553 18.5215C10.4518 18.5417 10.4464 18.5663 10.4395 18.5943C10.4336 18.6193 10.4254 18.6436 10.4149 18.6671L10.4125 18.6686ZM9.88295 18.2177C9.88064 18.2632 9.87474 18.3084 9.86525 18.3529C9.85345 18.4158 9.84165 18.4711 9.82985 18.5186L9.78757 18.6867C9.76397 18.75 9.74529 18.7962 9.73152 18.8254C9.71421 18.8614 9.69484 18.8963 9.6735 18.9301C9.6588 18.9537 9.64036 18.9748 9.61893 18.9926C9.58898 19.0139 9.55722 19.0324 9.52403 19.0481L9.39768 19.0973C9.37059 19.1057 9.343 19.1124 9.31508 19.1174C9.28794 19.1241 9.2603 19.1287 9.23248 19.1312C9.22068 19.1312 9.21379 19.1273 9.21133 19.1194C9.20942 19.1094 9.21192 19.099 9.21822 19.0909C9.2429 19.0577 9.27319 19.0291 9.3077 19.0063C9.35588 18.9703 9.40343 18.9354 9.45028 18.9016C9.50402 18.8544 9.54385 18.8172 9.56976 18.79C9.61003 18.748 9.64538 18.7014 9.67498 18.6513C9.68692 18.6291 9.69695 18.606 9.70497 18.582C9.71775 18.547 9.73825 18.4901 9.76643 18.4114L9.80871 18.2895C9.81363 18.2713 9.82051 18.2497 9.82985 18.2236C9.83919 18.1975 9.85099 18.1848 9.86525 18.1848C9.87386 18.194 9.87995 18.2054 9.88295 18.2177ZM15.3257 18.4852C15.3257 18.4581 15.3257 18.4144 15.3326 18.3534C15.3385 18.281 15.3467 18.2088 15.3572 18.1371L15.4172 17.7246L15.4314 17.6365C15.4356 17.6188 15.4368 17.6006 15.4349 17.5825L15.4206 17.5893C15.3996 17.6323 15.3714 17.6954 15.336 17.7786C15.3006 17.8619 15.282 17.9081 15.28 17.9173C15.2636 18.0278 15.2425 18.1872 15.2166 18.3957C15.1906 18.6041 15.1777 18.7215 15.1777 18.7477C15.1748 18.8355 15.1897 18.923 15.2215 19.0049C15.2468 19.0697 15.3118 19.1109 15.3813 19.1061C15.4304 19.1061 15.4785 19.0696 15.5253 18.9965C15.581 18.9006 15.6202 18.796 15.6414 18.6872L15.6502 18.6435C15.6532 18.6301 15.655 18.6164 15.6556 18.6027C15.6556 18.5801 15.6497 18.5687 15.6379 18.5687C15.6261 18.5687 15.6212 18.5791 15.6153 18.5992L15.5996 18.6533C15.5737 18.7231 15.5444 18.758 15.5116 18.758C15.473 18.7591 15.4349 18.7485 15.4024 18.7276C15.346 18.6805 15.3169 18.6079 15.3252 18.5348V18.4857L15.3257 18.4852ZM9.4434 17.4787C9.44792 17.5031 9.44606 17.5281 9.43799 17.5515C9.42772 17.5819 9.41474 17.6114 9.39915 17.6395C9.38071 17.6733 9.35642 17.7037 9.32737 17.729C9.31576 17.7431 9.29959 17.7527 9.28164 17.756C9.26311 17.7498 9.24624 17.7394 9.23248 17.7255C9.21084 17.7075 9.18857 17.69 9.16561 17.6729C9.14835 17.6599 9.13193 17.6458 9.11644 17.6306C9.10538 17.6224 9.09781 17.6103 9.0953 17.5967C9.10941 17.5676 9.11988 17.5451 9.12677 17.5294C9.15037 17.4802 9.16758 17.4438 9.17938 17.4212C9.20052 17.3873 9.22166 17.3524 9.2428 17.3165L9.26394 17.286C9.27043 17.2924 9.27751 17.2981 9.28508 17.3032L9.31311 17.3199C9.34876 17.3459 9.3817 17.3754 9.41144 17.4079C9.42801 17.4284 9.43902 17.4528 9.4434 17.4787ZM11.2857 17.0293C11.2815 17.0034 11.2706 16.979 11.2542 16.9585C11.2244 16.926 11.1915 16.8965 11.1559 16.8705L11.1279 16.8538C11.1203 16.8489 11.1132 16.8433 11.1067 16.8371L11.0856 16.8676C11.0646 16.9036 11.0434 16.9385 11.0221 16.9723C11.0103 16.9949 10.9928 17.031 10.9695 17.0805C10.9627 17.0962 10.9518 17.1188 10.9381 17.1478C10.9406 17.1614 10.9481 17.1735 10.9592 17.1817C10.9747 17.1968 10.9911 17.211 11.0084 17.224C11.031 17.2408 11.0533 17.2581 11.0752 17.2761C11.089 17.2901 11.1058 17.3005 11.1244 17.3066C11.1424 17.3033 11.1586 17.2938 11.1701 17.2796C11.1993 17.2543 11.2238 17.224 11.2424 17.1901C11.258 17.162 11.271 17.1326 11.2813 17.1021C11.2893 17.0787 11.2912 17.0536 11.2867 17.0293H11.2857ZM11.6475 17.0092C11.6521 17.0335 11.6502 17.0585 11.6421 17.0819C11.6319 17.1124 11.6189 17.1419 11.6033 17.17C11.5849 17.2038 11.5606 17.2342 11.5315 17.2594C11.52 17.2736 11.5037 17.2831 11.4858 17.2865C11.4673 17.2802 11.4504 17.2698 11.4366 17.256C11.415 17.2379 11.3927 17.2204 11.3698 17.2034C11.3525 17.1904 11.3361 17.1762 11.3206 17.1611C11.3095 17.1528 11.302 17.1407 11.2994 17.1272C11.3137 17.0982 11.324 17.0751 11.3309 17.0598C11.348 17.0234 11.3655 16.9874 11.3835 16.9516C11.4016 16.9159 11.4227 16.881 11.4469 16.8469L11.4681 16.8164C11.4745 16.8227 11.4816 16.8283 11.4892 16.8332L11.5173 16.8504C11.5529 16.8764 11.5858 16.9059 11.6156 16.9384C11.6323 16.9588 11.6435 16.9832 11.648 17.0092H11.6475ZM14.8763 16.9841C14.8808 17.0084 14.8789 17.0335 14.8709 17.0569C14.8607 17.0874 14.8477 17.1168 14.8321 17.1449C14.8136 17.1787 14.7893 17.209 14.7603 17.2344C14.7487 17.2485 14.7325 17.2581 14.7146 17.2614C14.696 17.2552 14.6792 17.2447 14.6654 17.2309C14.6438 17.2129 14.6215 17.1954 14.5985 17.1783C14.5812 17.1653 14.5648 17.1512 14.5494 17.136C14.5383 17.1278 14.5307 17.1157 14.5282 17.1021C14.5423 17.0729 14.5528 17.0505 14.5597 17.0347C14.5833 16.9856 14.6005 16.9492 14.6123 16.9266C14.6334 16.8927 14.6546 16.8577 14.6757 16.8218L14.6969 16.7914C14.7034 16.7978 14.7104 16.8035 14.718 16.8086L14.746 16.8253C14.7817 16.8513 14.8147 16.8807 14.8444 16.9133C14.8612 16.9337 14.8719 16.9581 14.8763 16.9841ZM11.4646 16.5908C11.4603 16.5648 11.4493 16.5404 11.4327 16.52C11.403 16.4873 11.37 16.4579 11.3344 16.432L11.3063 16.4152C11.2987 16.4104 11.2916 16.4048 11.2852 16.3985L11.264 16.429C11.2429 16.4649 11.2218 16.4998 11.2006 16.5337C11.1888 16.5563 11.1711 16.5922 11.148 16.6419C11.1411 16.6576 11.1303 16.6802 11.1161 16.7093C11.1186 16.7228 11.1261 16.735 11.1372 16.7432C11.1515 16.7569 11.1682 16.7712 11.1864 16.7874L11.2532 16.84C11.2672 16.8532 11.2841 16.863 11.3024 16.8686C11.3203 16.8652 11.3365 16.8556 11.3481 16.8415C11.3772 16.8162 11.4015 16.7859 11.4199 16.752C11.4355 16.724 11.4485 16.6945 11.4587 16.664C11.4668 16.6406 11.4686 16.6156 11.4642 16.5913L11.4646 16.5908ZM9.8092 4.55081L10.4341 5.63248V10.7611L11.8034 11.7572V15.4039H10.2089V12.0448L8.63559 10.4715V6.68023L7.71617 5.08772H6.87641L7.41724 4.54688L9.8092 4.55081ZM8.44089 10.8333L9.81756 12.21V15.4058H8.52448L6.57796 12.4126H3.17317C3.44457 11.706 3.891 11.2817 4.4515 11.5644C4.4574 11.1151 4.61965 10.8353 5.3778 10.8353L8.44089 10.8333ZM6.36409 12.8039L8.05493 15.4039H7.25057L5.56365 12.8039H6.36409ZM13.7912 15.4039H12.1967V11.7572L13.566 10.7616V5.63297L14.1909 4.55131H16.5814L17.1223 5.09214H16.2825L15.3631 6.68465V10.4759L13.7897 12.0492L13.7912 15.4039ZM17.4222 12.4106L15.4757 15.4039H14.1845V12.208L15.5612 10.8314H18.6228C19.381 10.8314 19.5437 11.1111 19.5491 11.5605C20.1111 11.2763 20.5575 11.7021 20.8275 12.4086L17.4222 12.4106ZM15.9472 15.4039L17.638 12.8039H18.4389L16.7496 15.4039H15.9472ZM6.32525 14.7003H5.37928V14.2529H6.03467L6.32525 14.7003ZM18.6214 14.7003H17.6749L17.9655 14.2529H18.6209L18.6214 14.7003ZM12.5306 1.87172H13.9176L13.922 4.23172L13.1727 5.52972V10.5629L12.1967 11.2709V10.1037L12.5468 9.84902V2.57775H11.4533V9.84853L11.8034 10.1032V11.2704L10.8274 10.5605V5.52776L10.0781 4.23172L10.0826 1.87172H11.4696V0.593384H12.5311L12.5306 1.87172ZM7.05488 10.44H7.44822V9.26738H7.05488V10.44ZM7.85138 10.44H8.24472V6.78839L7.49148 5.48351H7.04554L7.85138 6.87935V10.44ZM16.5539 10.44H16.9472V9.26738H16.5539V10.44ZM16.1507 10.44H15.7574V6.78839L16.5106 5.48351H16.9566L16.1507 6.87935V10.44Z" fill="#1F261A"/>
</svg>
