<svg width="24" height="24" viewBox="0 0 24 24" fill="none" xmlns="http://www.w3.org/2000/svg">
<path d="M20.3847 5.54389L22.8954 4.60248V3.02107L20.2749 4.33209L22.8954 2.22627V2.10291C22.8954 1.55062 22.4477 1.10291 21.8954 1.10291H21.8492L19.5026 3.64664L21.0621 1.10291H19.5869L18.2591 3.52522C19.203 3.9082 19.9596 4.63689 20.3847 5.54389Z" fill="#F29200"/>
<path d="M22.8954 9.8393L20.4436 8.80957C20.6094 8.41931 20.7155 7.99607 20.7497 7.5501C20.7987 6.9157 20.6968 6.3044 20.4747 5.75129L22.8954 5.16585V6.22272L21.4512 6.61414L22.8954 6.89063V7.95036L21.7547 7.9949L22.8954 8.41724V9.8393Z" fill="#F29200"/>
<path d="M1.10283 12.8359L12.8632 8.22932C13.1011 9.16619 13.6714 9.98008 14.4498 10.5267L7.16483 22.8955H4.09487L10.6289 13.4206L2.80808 21.2007C2.17737 21.8281 1.10283 21.3814 1.10283 20.4917V18.1456L9.26273 11.759L1.10283 15.8635V12.8359Z" fill="#F29200"/>
<path d="M9.53052 22.8955L14.6777 10.6755C15.1973 10.9899 15.7964 11.191 16.4433 11.2407C16.863 11.273 17.2726 11.2394 17.6621 11.1486L20.7612 22.8955H18.3576L16.7052 14.9744L16.5968 22.8955H14.142L14.7119 15.1346L12.5046 22.8955H9.53052Z" fill="#F29200"/>
<path d="M17.9657 11.065L21.9339 20.588C22.1441 21.0925 22.8954 20.9422 22.8954 20.3957V17.4252L20.2603 12.8816L22.8954 15.3262V13.45L21.2466 11.2432L22.8954 12.063V10.6188L20.3181 9.07736C19.8307 10.0232 18.9809 10.7419 17.9657 11.065Z" fill="#F29200"/>
<path d="M18.9713 1.10291L18.0699 3.45405C17.7506 3.34301 17.4121 3.2708 17.0593 3.24366C16.4798 3.19899 15.9195 3.28002 15.4054 3.46366L14.8354 1.10291H16.0051L16.2759 2.10848L16.3137 1.10291H17.3884L17.3103 2.39679L17.7111 1.10291H18.9713Z" fill="#F29200"/>
<path d="M15.2021 3.54223L14.2468 1.10291H12.86L13.3681 2.24302L12.4506 1.10291H10.6186L12.133 2.75964L9.79714 1.10291H6.18757L13.308 5.1852C13.7476 4.45079 14.4135 3.87339 15.2021 3.54223Z" fill="#F29200"/>
<path d="M3.71046 1.10291L13.1902 5.39558C12.9491 5.86012 12.7954 6.3796 12.7527 6.93427C12.725 7.29322 12.7458 7.64465 12.8091 7.98244L1.10283 11.131V8.35126L8.75157 7.32128L1.10283 6.83284V4.53793L9.28598 5.60091L1.10283 3.24366V2.10291C1.10283 1.55062 1.55054 1.10291 2.10282 1.10291H3.71046Z" fill="#F29200"/>
</svg>
