<svg width="24" height="24" viewBox="0 0 24 24" fill="none" xmlns="http://www.w3.org/2000/svg">
<path d="M23.4222 9.98661C19.396 5.1781 16.5692 2.05257 15.0188 0.694878C14.7029 0.420047 14.3168 0.238464 13.9036 0.170409C13.4904 0.102353 13.0665 0.150506 12.6791 0.309492C7.75915 2.40558 3.54161 5.86555 0.52436 10.281C0.28608 10.6332 0.149242 11.0443 0.12882 11.4691C0.108398 11.8939 0.205173 12.3161 0.408562 12.6896C2.17021 15.9195 5.54765 20.5689 8.09864 23.2763C8.27262 23.4603 8.48226 23.6069 8.71478 23.7072C8.94729 23.8075 9.19781 23.8594 9.45103 23.8597C9.7028 23.8604 9.95198 23.8088 10.1828 23.7083C10.4136 23.6077 10.621 23.4603 10.7919 23.2754C14.1146 19.715 20.5062 14.758 23.1005 12.7913C23.3113 12.6322 23.4875 12.4319 23.6184 12.2025C23.7492 11.9731 23.832 11.7194 23.8616 11.457C23.8912 11.1945 23.867 10.9288 23.7906 10.676C23.7141 10.4232 23.587 10.1887 23.4169 9.98661H23.4222ZM20.0536 11.7102C17.1579 6.37139 15.9549 4.27032 15.2867 3.38287C15.1004 3.1404 14.845 2.95998 14.5543 2.86532C14.2635 2.77066 13.9509 2.7662 13.6576 2.85252C10.1529 3.86814 6.74006 5.95065 3.78866 8.87288C3.54161 9.11115 3.36547 9.41326 3.2798 9.74563C3.19414 10.078 3.2023 10.4276 3.30339 10.7556C4.13957 13.4171 6.02232 17.2489 7.36057 19.418C7.49072 19.629 7.67285 19.803 7.88953 19.9234C8.1062 20.0438 8.35017 20.1066 8.59805 20.1057C8.89323 20.1066 9.18107 20.0137 9.4201 19.8405C11.6856 18.2 15.3565 16.1113 17.8712 14.6997C15.2274 16.3632 11.7466 18.6189 9.54295 20.4257C9.42 20.5267 9.2774 20.6012 9.12417 20.6442C8.97095 20.6873 8.81045 20.698 8.65285 20.6758C8.49056 20.6535 8.33454 20.5983 8.19439 20.5134C8.05424 20.4286 7.93292 20.316 7.83789 20.1826C6.2707 17.9684 3.99991 13.9731 2.91358 11.1189C2.81006 10.84 2.78558 10.5379 2.84282 10.2459C2.90006 9.95392 3.0368 9.68343 3.23798 9.46422C5.27541 7.18813 8.71826 4.14215 13.5259 2.55552C13.662 2.51102 13.8043 2.48835 13.9475 2.48835C14.138 2.48704 14.3265 2.52678 14.5002 2.60488C14.674 2.68297 14.8288 2.79759 14.9543 2.94091C15.7587 3.87698 17.3409 6.26709 20.599 11.4672C20.7801 11.7654 20.8363 12.123 20.7554 12.4625C20.7223 12.6198 20.6584 12.7691 20.5674 12.9017C20.4763 13.0342 20.36 13.1475 20.2251 13.235L19.9113 13.4242C20.0949 13.1813 20.2057 12.8912 20.2309 12.5878C20.2561 12.2844 20.1946 11.9801 20.0536 11.7102ZM19.213 12.146C17.3011 7.89438 16.2819 5.71729 15.6773 4.60533C16.4313 5.82867 17.6379 7.99161 19.7434 11.8791C20.0386 12.4236 19.8406 13.1837 19.327 13.4701L19.0513 13.6257C19.2003 13.4125 19.2932 13.1651 19.3214 12.9066C19.3497 12.648 19.3124 12.3864 19.213 12.146ZM18.3715 12.588C17.2525 9.35373 16.4667 7.19609 15.931 5.8817C16.5586 7.15631 17.4805 9.15838 18.8904 12.2945C18.9508 12.4339 18.981 12.5846 18.9788 12.7365C18.9788 13.1431 18.771 13.5559 18.4369 13.7212L18.2053 13.8361C18.3222 13.652 18.3976 13.4447 18.4263 13.2286C18.455 13.0124 18.4363 12.7926 18.3715 12.5844V12.588ZM17.53 13.0299C16.8883 10.2341 16.4048 8.377 16.0477 7.1457C16.5445 8.45213 17.1968 10.273 18.0374 12.7038C18.1974 13.1669 17.9578 13.7875 17.553 13.9572L17.3524 14.0394C17.5332 13.7344 17.5964 13.3738 17.53 13.0255V13.0299ZM4.02644 10.2757C4.58507 12.603 5.93216 15.9716 6.99286 18.0957C5.76686 15.908 4.34111 12.8717 3.64017 10.6566C3.55937 10.3903 3.55367 10.1068 3.6237 9.83749C3.69373 9.56813 3.83677 9.32334 4.03704 9.1301C4.12013 9.04789 4.20322 8.96745 4.2863 8.88613C4.14886 9.08615 4.05474 9.31269 4.00998 9.55122C3.96523 9.78975 3.97084 10.035 4.02644 10.2712V10.2757ZM4.75125 9.78596C5.04029 11.628 5.78101 14.1967 6.4846 16.1634C5.63958 14.2294 4.78484 11.9206 4.37028 10.1926C4.31201 9.93881 4.3249 9.67389 4.40756 9.427C4.49022 9.18011 4.63943 8.96083 4.83875 8.79332L4.96073 8.68991C4.76719 9.01877 4.69318 9.40439 4.75125 9.78154V9.78596ZM14.1552 4.1289C11.34 4.64687 8.93571 5.87905 7.30488 6.89202C9.47932 5.41146 11.7183 4.387 13.9891 3.8372C14.066 3.81818 14.1449 3.80868 14.2242 3.80892C14.3888 3.8074 14.5512 3.84703 14.6966 3.92422C14.842 4.0014 14.9658 4.11368 15.0568 4.25087C15.0842 4.2933 15.1116 4.33927 15.1452 4.387C15.0099 4.27282 14.8509 4.19011 14.6797 4.14487C14.5084 4.09962 14.3293 4.09296 14.1552 4.12536V4.1289ZM15.1382 4.95889C14.9278 4.80478 14.6671 4.73565 14.408 4.76531C12.5085 4.97745 10.7389 5.57763 9.30961 6.20698C9.12045 6.29007 8.93836 6.37316 8.76157 6.45625C10.2448 5.66072 12.1205 4.8652 14.2189 4.47716C14.3934 4.44466 14.5737 4.4684 14.7338 4.54497C14.8939 4.62154 15.0256 4.74698 15.1099 4.9032L15.1382 4.95889ZM13.9007 3.49336C11.0103 4.19431 8.17377 5.64658 5.45661 7.8166C8.01997 5.62183 10.8538 4.03785 13.7522 3.19725C13.8596 3.16599 13.9709 3.15022 14.0828 3.1504C14.2597 3.14947 14.4345 3.18943 14.5935 3.26716C14.7525 3.34489 14.8914 3.45831 14.9994 3.59855C15.0551 3.67191 15.1134 3.75412 15.1762 3.84693C15.0128 3.68325 14.81 3.5644 14.5874 3.50185C14.3648 3.43931 14.1298 3.43516 13.9051 3.48982L13.9007 3.49336ZM5.63428 8.45655L5.65726 8.43976C5.51675 8.70174 5.45245 8.99785 5.47164 9.29451C5.56003 10.6416 5.87735 12.6534 6.27423 14.4416C5.76775 12.8328 5.30811 11.0827 5.09597 9.73028C5.05962 9.48802 5.09108 9.24043 5.18688 9.01497C5.28268 8.78951 5.43907 8.595 5.6387 8.45302L5.63428 8.45655ZM8.5512 17.8119C8.44174 17.8677 8.32185 17.9 8.19918 17.9069C8.07651 17.9137 7.95377 17.895 7.83877 17.8517C7.7202 17.809 7.61181 17.742 7.52051 17.6551C7.42921 17.5682 7.35698 17.4633 7.30842 17.347C7.27572 17.2692 7.24389 17.1879 7.21118 17.1057C7.27296 17.1538 7.33962 17.1952 7.41006 17.2294C7.57174 17.308 7.74916 17.3488 7.92892 17.3488C8.07444 17.3489 8.21869 17.3216 8.35409 17.2683C9.92923 16.6496 12.2089 15.9354 14.0801 15.3635C12.1779 16.1396 10.0724 17.0305 8.55474 17.8084L8.5512 17.8119ZM15.3406 15.2335C13.1767 16.3013 10.6187 17.6007 8.87737 18.6808C8.76386 18.7516 8.63684 18.7978 8.50443 18.8167C8.37201 18.8356 8.23711 18.8266 8.10836 18.7904C7.97626 18.7535 7.85317 18.6898 7.74673 18.6032C7.64029 18.5167 7.55277 18.4092 7.48962 18.2875C7.43069 18.1737 7.37176 18.0559 7.31283 17.9339C7.54382 18.1446 7.84524 18.2612 8.15786 18.261C8.35323 18.2612 8.54588 18.2151 8.72003 18.1266C10.5259 17.1958 13.1935 16.1015 15.3441 15.23L15.3406 15.2335ZM8.01467 19.1343C8.12985 19.1661 8.24875 19.1824 8.36824 19.1829C8.61275 19.1829 8.85231 19.1139 9.05945 18.984C11.0925 17.7218 14.2445 16.1555 16.5727 15.0196C14.1667 16.3818 11.1632 18.1328 9.19823 19.5559C9.08002 19.6412 8.94532 19.701 8.80273 19.7315C8.66013 19.7619 8.51277 19.7623 8.37001 19.7327C8.2223 19.7034 8.08219 19.644 7.95841 19.5582C7.83463 19.4725 7.72982 19.3622 7.6505 19.2341C7.54531 19.0636 7.4357 18.8806 7.32433 18.6914C7.50464 18.9061 7.74705 19.0595 8.0182 19.1307L8.01467 19.1343ZM14.7377 14.7934C12.7533 15.3988 10.0362 16.2271 8.22768 16.9395C8.12165 16.9804 8.00834 16.999 7.89479 16.9942C7.78125 16.9893 7.66992 16.9612 7.56775 16.9114C7.46557 16.8616 7.37474 16.7914 7.30092 16.7049C7.22711 16.6185 7.17189 16.5178 7.1387 16.4092C6.53322 14.362 5.94365 11.1613 5.82521 9.27417C5.81142 9.04539 5.86077 8.81721 5.96786 8.61456C6.07495 8.41191 6.23567 8.24259 6.43246 8.12508C7.49316 7.48424 10.7221 5.53521 14.4434 5.11977C14.594 5.10214 14.7462 5.13525 14.8759 5.21386C15.0056 5.29247 15.1053 5.41208 15.1594 5.55377C15.4944 6.44476 16.1184 8.47865 17.1818 13.1121C17.2702 13.4975 17.0501 14.0756 16.6673 14.1994C16.1838 14.3496 15.5156 14.5538 14.7413 14.7898L14.7377 14.7934ZM21.0958 12.5402C21.1981 12.1092 21.126 11.6552 20.8951 11.2771C17.6246 6.06202 16.0336 3.65954 15.2186 2.70844C14.9986 2.45869 14.7101 2.27905 14.3889 2.19183C14.0677 2.10462 13.728 2.11367 13.4119 2.21787C8.52734 3.82925 5.03763 6.91854 2.97015 9.22733C2.72575 9.49469 2.55994 9.82436 2.491 10.18C2.42206 10.5356 2.45268 10.9033 2.57947 11.2427C3.67641 14.1225 5.96575 18.1522 7.54619 20.385C7.66959 20.5587 7.82747 20.7051 8.00996 20.815C8.19246 20.925 8.39566 20.9962 8.60689 21.0241C8.67601 21.0336 8.74571 21.0383 8.81549 21.0382C9.16314 21.0388 9.50011 20.9182 9.76836 20.697C12.2946 18.626 16.5268 15.9504 19.2165 14.2745C16.023 16.4542 12.2407 19.1449 9.87619 21.2946C9.74804 21.4112 9.59716 21.5 9.43304 21.5555C9.26891 21.6111 9.09508 21.6321 8.92245 21.6172C8.74562 21.6024 8.5737 21.5516 8.41727 21.4678C8.26084 21.3841 8.12322 21.2691 8.0129 21.1302C5.9631 18.5429 3.40327 14.3496 2.18435 11.5838C2.05779 11.2924 2.01409 10.9716 2.05807 10.6569C2.10205 10.3422 2.232 10.0457 2.43362 9.80011C4.10776 7.72113 7.7433 3.9309 13.2916 1.91468C13.4598 1.85476 13.6373 1.82484 13.8158 1.82629C14.0182 1.82579 14.2185 1.86617 14.4049 1.945C14.5913 2.02383 14.7598 2.13949 14.9004 2.28504C15.9019 3.32807 17.9225 6.03285 21.452 11.0535C21.5575 11.2068 21.6317 11.3794 21.6704 11.5614C21.709 11.7434 21.7114 11.9313 21.6774 12.1142C21.6455 12.2932 21.5785 12.4642 21.4803 12.6171C21.3844 12.767 21.259 12.8958 21.1117 12.9955L20.7581 13.2324C20.9245 13.0321 21.0404 12.7947 21.0958 12.5402ZM22.0203 12.1752C22.0627 11.9464 22.0596 11.7116 22.011 11.4841C21.9625 11.2565 21.8695 11.0408 21.7375 10.8493C18.1965 5.81099 16.1688 3.0956 15.1514 2.03932C14.8998 1.77983 14.5783 1.59888 14.226 1.51839C13.8736 1.43791 13.5054 1.46135 13.1661 1.58587C7.53735 3.63125 3.85053 7.47363 2.1543 9.58266C1.91179 9.87842 1.75566 10.2354 1.7031 10.6142C1.65054 10.9931 1.70359 11.3791 1.85642 11.7297C3.08506 14.5185 5.6661 18.7462 7.73092 21.3529C7.87158 21.5295 8.04685 21.6755 8.24597 21.7819C8.4451 21.8883 8.66388 21.9529 8.88886 21.9716C8.93483 21.9716 8.97725 21.9769 9.02586 21.9769C9.42688 21.9783 9.81372 21.8287 10.1095 21.558C12.9787 18.9486 18.2115 15.3705 20.645 13.7318C15.7976 17.2568 12.2893 20.0907 10.205 22.1661C10.0696 22.2991 9.90843 22.403 9.73133 22.4712C9.55422 22.5395 9.36501 22.5707 9.17537 22.5629C8.98573 22.5551 8.79971 22.5085 8.6288 22.426C8.4579 22.3434 8.30574 22.2267 8.18173 22.083C5.89504 19.4631 2.93745 15.0576 1.44893 12.0532C1.30007 11.7488 1.23783 11.4094 1.26901 11.072C1.30019 10.7346 1.4236 10.4123 1.62572 10.1404C3.30516 7.84223 7.01761 3.64451 13.053 1.27738C13.3535 1.1595 13.6813 1.12948 13.9983 1.19082C14.3152 1.25217 14.6081 1.40236 14.8429 1.62388C16.0892 2.80567 18.5289 5.75265 22.3014 10.6336C22.4233 10.7935 22.5121 10.976 22.5625 11.1706C22.6129 11.3652 22.6239 11.5679 22.5949 11.7668C22.5671 11.9638 22.5 12.1531 22.3978 12.3237C22.2962 12.4922 22.1615 12.6383 22.0018 12.7533L21.5775 13.0591C21.8087 12.8143 21.9627 12.5069 22.0203 12.1752ZM23.5133 11.4186C23.4902 11.6331 23.4234 11.8407 23.317 12.0285C23.2106 12.2162 23.0668 12.3802 22.8945 12.5102L22.3589 12.9186C22.6784 12.6319 22.8863 12.2415 22.9458 11.8163C22.9819 11.5704 22.9683 11.3198 22.9057 11.0793C22.8432 10.8388 22.7329 10.6133 22.5816 10.4162C18.7984 5.52018 16.3465 2.55994 15.0869 1.36489C14.8031 1.09758 14.4493 0.916308 14.0666 0.84214C13.6838 0.767973 13.2879 0.803961 12.9248 0.945913C6.80635 3.34663 3.04086 7.60534 1.34551 9.93004C1.10541 10.2544 0.959183 10.6386 0.922856 11.0405C0.88653 11.4424 0.961505 11.8466 1.13956 12.2088C2.64222 15.2353 5.61837 19.6743 7.92274 22.3128C8.07959 22.4933 8.27168 22.6398 8.48723 22.7433C8.70277 22.8469 8.93722 22.9052 9.17614 22.9148H9.24507C9.47076 22.9156 9.69439 22.8718 9.90311 22.7859C10.1118 22.7001 10.3015 22.5738 10.4613 22.4145C11.2383 21.6402 12.4519 20.5335 14.3329 19.0008C16.1891 17.4893 18.695 15.5641 22.0725 13.1395C19.1158 15.4015 13.5665 19.7884 10.5418 23.0341C10.3933 23.1932 10.0998 23.3152 9.85852 23.3947C9.61451 23.4783 9.35254 23.4947 9.1 23.4423C8.84747 23.3899 8.61366 23.2706 8.42304 23.0969C8.40094 23.0757 8.37973 23.0553 8.3594 23.0332C5.82521 20.3452 2.47074 15.7277 0.722357 12.5208C0.549648 12.204 0.467445 11.8457 0.48475 11.4852C0.502056 11.1248 0.618201 10.776 0.82047 10.4772C2.17375 8.4592 6.0506 3.46066 12.8179 0.635657C13.1437 0.502533 13.5 0.462456 13.8473 0.519886C14.1945 0.577317 14.519 0.730001 14.7846 0.960938C16.3217 2.30626 19.1361 5.41941 23.15 10.2138C23.2897 10.3791 23.3941 10.5713 23.4565 10.7785C23.519 10.9857 23.5383 11.2036 23.5133 11.4186Z" fill="url(#paint0_linear_3922_29114)"/>
<defs>
<linearGradient id="paint0_linear_3922_29114" x1="23.8739" y1="10.9804" x2="0.126144" y2="11.1113" gradientUnits="userSpaceOnUse">
<stop stop-color="#005D52"/>
<stop offset="1" stop-color="#189B41"/>
</linearGradient>
</defs>
</svg>
