<svg width="88" height="24" viewBox="0 0 88 24" fill="none" xmlns="http://www.w3.org/2000/svg">
<g clip-path="url(#clip0_3775_100860)">
<path d="M75.547 0.16319C75.6227 0.0915615 75.7321 -0.0685497 75.8456 0.0325731C76.7247 1.08594 77.3767 2.34154 77.6417 3.69406C77.894 3.59294 78.1128 3.42861 78.3567 3.31906C79.9677 2.50587 81.6964 1.95391 83.4462 1.50728C83.5008 1.49464 83.5597 1.48621 83.6186 1.482C83.5934 2.29941 83.4924 3.11682 83.341 3.92159C83.1601 4.91596 82.8952 5.90191 82.504 6.8373C82.4535 6.9637 82.3862 7.08589 82.3652 7.22493C84.3168 7.26707 86.218 7.83167 88.0014 8.59852C88.0056 8.60695 88.014 8.6238 88.0183 8.63223C86.7943 10.1912 85.4693 11.6912 83.9172 12.9342C83.7238 13.0943 83.5135 13.2291 83.3284 13.3976C84.5229 14.4047 85.36 15.7782 85.932 17.2192C84.1528 17.9734 82.3105 18.6097 80.3925 18.8962C80.4556 19.4355 80.4808 19.9833 80.4345 20.5268C80.3757 21.0872 80.2705 21.6476 80.1149 22.1869C80.0728 22.3133 80.056 22.4523 79.9803 22.5661C78.9414 22.4734 77.9024 22.3386 76.8888 22.0816C76.5733 22.0015 76.2578 21.9172 75.955 21.795C75.8877 21.7698 75.8162 21.7571 75.7447 21.7445C75.4418 22.3596 75.038 22.9158 74.5585 23.4004C74.3524 23.6026 74.159 23.8175 73.9234 23.986C73.8645 24.0197 73.7972 23.986 73.7468 23.9523C72.9854 23.4551 72.2325 22.9285 71.6058 22.2627C71.5175 22.1743 71.4376 22.0816 71.3408 22.0015C70.7309 22.4228 70.0285 22.6883 69.3135 22.8653C69.2293 22.8821 69.1452 22.8905 69.0611 22.899C68.691 22.2964 68.3503 21.6729 68.1189 21.0029C68.0474 20.8428 68.0306 20.6574 67.9339 20.5057C67.2188 20.5816 66.4911 20.4804 65.8055 20.274C65.6962 19.6462 65.6962 19.0015 65.7256 18.3695C65.7466 18.2094 65.7466 18.0493 65.7971 17.8934C66.1757 18.0156 66.5668 18.0998 66.9664 18.083C67.3029 18.0998 67.631 18.0451 67.9633 17.9987C67.8203 18.8203 67.7446 19.6799 67.9717 20.4973C68.7709 20.4172 69.4481 19.9453 70.0874 19.4945C70.3272 20.3246 70.6721 21.1377 71.2062 21.8203C71.2609 21.8877 71.3366 21.9847 71.4334 21.9257C71.8288 21.6602 72.119 21.2684 72.3713 20.8681C72.6027 20.5352 72.7583 20.1602 72.935 19.7979C73.6879 20.5605 74.5585 21.2304 75.5554 21.6434C75.6227 21.6729 75.6984 21.6813 75.7699 21.6897C75.976 21.2094 76.1022 20.6995 76.1148 20.1771C76.1359 19.6335 76.119 19.0858 76.0265 18.5465C77.444 18.8878 78.9203 19.1111 80.3715 18.8836C80.2411 18.0451 79.812 17.2867 79.3157 16.6125C79.0549 16.2459 78.7479 15.9215 78.4492 15.5844C79.24 15.378 80.0139 15.1083 80.771 14.7965C81.6627 14.4299 82.5166 13.9707 83.2989 13.3976C82.8489 12.9637 82.2811 12.6687 81.7132 12.4201C80.8425 12.0746 79.9382 11.8007 79.0087 11.6701C79.0087 11.6533 79.0129 11.6196 79.0171 11.6027C79.5344 11.1055 80.0392 10.5999 80.4934 10.0437C81.0655 9.36537 81.6081 8.65329 82.0161 7.86538C82.1254 7.6547 82.2516 7.44825 82.3231 7.22072C81.8731 7.19123 81.423 7.23336 80.9771 7.27971C80.2915 7.35555 79.6228 7.53673 78.9582 7.71369C78.3231 7.89487 77.6963 8.1224 77.0822 8.36678C77.3641 7.51987 77.5575 6.64769 77.6795 5.76708C77.73 5.29939 77.7721 4.82327 77.7216 4.35136C77.7005 4.14069 77.6921 3.92159 77.6206 3.71934C76.9434 4.11119 76.2915 4.55782 75.711 5.08871C74.9834 5.7123 74.3104 6.39488 73.6921 7.12381C73.5491 6.67297 73.4397 6.2137 73.2336 5.78393C72.9518 5.13928 72.6111 4.46934 72.018 4.06063C71.6058 4.65894 71.2693 5.29939 70.9875 5.96932C70.7057 6.63926 70.4618 7.32606 70.2893 8.0297C69.5743 7.46089 68.7372 6.93842 67.795 6.92578C67.6773 7.41454 67.6478 7.92015 67.6604 8.42155C67.6689 9.04093 67.7488 9.65609 67.8539 10.267C67.08 10.2375 66.2598 10.2881 65.57 10.6757C65.4859 10.7052 65.5069 10.8064 65.5195 10.8738C65.7046 11.5901 66.1042 12.2263 66.5416 12.8162C66.5879 12.892 66.7141 12.9679 66.651 13.0648C65.9948 13.4398 65.3218 13.8695 64.918 14.5353C65.1662 14.8091 65.4354 15.0704 65.7635 15.2473C66.0873 15.4538 66.4449 15.6013 66.7982 15.7487C66.3355 16.385 65.9275 17.1013 65.8097 17.8892C65.3218 17.6996 64.876 17.4046 64.4638 17.0844C64.3039 16.9664 64.1693 16.8147 64.0095 16.7052C64.1778 15.9383 64.4932 15.2052 64.9054 14.5353C64.7666 14.3162 64.59 14.1266 64.4596 13.899C64.1567 13.4229 63.9128 12.9089 63.7109 12.3822C63.8244 12.2094 63.959 12.0493 64.0978 11.9019C64.3923 11.5943 64.6867 11.2825 65.0316 11.0297C65.1704 10.9286 65.3176 10.8359 65.4564 10.7347C65.4522 10.5536 65.4017 10.3766 65.3723 10.1954C65.2167 9.33587 65.2083 8.45526 65.2335 7.58308C65.3387 7.54937 65.4396 7.50302 65.5405 7.45667C66.243 7.13224 67.0085 6.93842 67.7866 6.92156C68.0516 5.53955 68.5774 4.22496 69.1284 2.93564C69.8308 2.99042 70.5206 3.20109 71.16 3.49182C71.4712 3.63929 71.7572 3.83311 72.0306 4.03956C72.3882 3.56344 72.7331 3.0789 73.1327 2.63227C73.6122 2.0466 74.1548 1.51992 74.6847 0.9806C74.9665 0.706725 75.2442 0.424424 75.547 0.16319Z" fill="#7CD0F5"/>
<path d="M75.711 5.08873C76.2914 4.55784 76.9434 4.11121 77.6206 3.71936C77.6921 3.92161 77.7005 4.13649 77.7215 4.35138C77.772 4.82328 77.7299 5.2994 77.6795 5.7671C77.5575 6.65192 77.364 7.52411 77.0822 8.3668C77.6963 8.12242 78.3188 7.89489 78.9581 7.71371C79.6227 7.53675 80.2915 7.35557 80.9771 7.27973C81.4229 7.23338 81.873 7.19546 82.3231 7.22074C82.2516 7.44826 82.1296 7.65472 82.016 7.8654C81.6038 8.65331 81.0654 9.36538 80.4934 10.0437C80.0391 10.5999 79.5302 11.1055 79.017 11.6027C79.017 11.6196 79.0128 11.6533 79.0086 11.6701C79.9382 11.8008 80.8425 12.0746 81.7132 12.4201C82.281 12.6687 82.8488 12.9637 83.2989 13.3977C82.5207 13.9707 81.6669 14.43 80.771 14.7965C80.0139 15.1041 79.2399 15.378 78.4492 15.5844C78.7478 15.9215 79.0549 16.2459 79.3157 16.6125C79.8162 17.2867 80.241 18.0409 80.3714 18.8836C78.9203 19.1111 77.4397 18.892 76.0264 18.5465C76.119 19.0858 76.1358 19.6336 76.1148 20.1771C76.1021 20.6996 75.976 21.2136 75.7699 21.6897C75.6984 21.6771 75.6226 21.6729 75.5553 21.6434C74.5585 21.2305 73.6878 20.5605 72.9349 19.7979C72.7583 20.1602 72.6026 20.5352 72.3713 20.8681C72.1189 21.2642 71.8287 21.656 71.4333 21.9257C71.3366 21.9805 71.2567 21.8878 71.2062 21.8203C70.672 21.1378 70.3271 20.3246 70.0873 19.4945C69.448 19.9411 68.7708 20.4173 67.9716 20.4973C67.7445 19.6841 67.816 18.8204 67.9632 17.9987C67.6309 18.0451 67.3029 18.0999 66.9664 18.083C66.5668 18.1041 66.1756 18.0156 65.7971 17.8934V17.885C65.919 17.0971 66.3228 16.3808 66.7855 15.7445C66.4322 15.5971 66.0747 15.4496 65.7508 15.2431C65.4227 15.0662 65.1493 14.8092 64.9054 14.5311C65.3091 13.8696 65.9821 13.4398 66.6383 13.0606C66.6972 12.9637 66.5752 12.8878 66.5289 12.812C66.0915 12.2263 65.6919 11.5859 65.5068 10.8696C65.4942 10.8022 65.4732 10.701 65.5573 10.6716C66.2471 10.2839 67.0673 10.2334 67.8413 10.2628C67.7403 9.6519 67.6562 9.03674 67.6478 8.41736C67.6309 7.91596 67.6604 7.41034 67.7824 6.92158C68.7245 6.93422 69.5616 7.45248 70.2766 8.02551C70.4491 7.32186 70.693 6.63507 70.9748 5.96513C71.2524 5.2994 71.5931 4.65475 72.0054 4.05644C72.5984 4.46514 72.9391 5.13508 73.2209 5.77974C73.427 6.2053 73.5364 6.66878 73.6794 7.11962C74.3061 6.39069 74.9833 5.70811 75.711 5.08873ZM72.8886 8.16455C72.6783 8.47635 72.4638 8.78814 72.2872 9.121C72.0979 9.40752 71.9717 9.73196 71.8035 10.0311C71.6268 9.74038 71.4964 9.42437 71.2903 9.1505C71.0043 8.74179 70.6804 8.35416 70.285 8.04657C70.0369 8.98196 69.9023 9.95105 69.9443 10.9201C69.8728 10.8991 69.8055 10.8696 69.7424 10.8359C69.2251 10.5452 68.6488 10.3724 68.06 10.3008C67.9927 10.2881 67.9254 10.2923 67.8581 10.3008C67.938 10.5536 67.9885 10.8148 68.0768 11.0676C68.2324 11.5732 68.4596 12.0536 68.7288 12.5086C68.182 12.5381 67.6436 12.6687 67.1346 12.8583C66.9958 12.9215 66.8444 12.9595 66.7266 13.0606C67.0547 13.4103 67.3912 13.7516 67.7992 14.0044C67.9674 14.1224 68.1525 14.2066 68.3208 14.3246C67.7403 14.6996 67.2398 15.1884 66.8107 15.7277C66.8612 15.7572 66.9159 15.7867 66.9748 15.7993C67.3449 15.8962 67.7235 15.9847 68.1104 15.9974C68.3166 16.0016 68.5227 15.9974 68.7245 15.9931C68.6068 16.2628 68.4469 16.5156 68.3418 16.7979C68.1988 17.1856 68.0305 17.5774 67.9927 17.9903C68.5227 17.9018 69.0274 17.708 69.4985 17.4468C69.6163 17.3752 69.7298 17.2993 69.8602 17.2445C69.8434 17.7923 69.8434 18.3442 69.9612 18.8794C70.0032 19.0732 70.0243 19.2796 70.1084 19.4608C70.2724 19.326 70.4322 19.1785 70.5795 19.0268C70.958 18.6687 71.2482 18.2305 71.509 17.7839C71.6142 17.8892 71.6562 18.0409 71.732 18.1673C72.0432 18.7403 72.4302 19.2754 72.8886 19.7389C72.9517 19.8021 72.9896 19.6926 73.0064 19.6504C73.2504 18.9383 73.427 18.1926 73.4018 17.4384C73.4144 17.4257 73.4354 17.4046 73.4481 17.392C74.2262 17.9187 75.1095 18.2853 76.0138 18.5381C76.0264 18.3485 75.9591 18.1631 75.9171 17.9819C75.8035 17.5058 75.6226 17.0549 75.4165 16.6125C75.3114 16.3892 75.1684 16.1912 75.0674 15.9679C76.1947 16.0395 77.3219 15.8794 78.4113 15.6055C78.3987 15.5634 78.3777 15.5254 78.344 15.5002C77.6374 14.8134 76.8088 14.2488 75.896 13.8864C75.9213 13.8106 76.0012 13.7853 76.0643 13.7474C76.9644 13.2881 77.793 12.6982 78.5543 12.0325C78.6973 11.9187 78.853 11.8134 78.9623 11.6659C78.1421 11.5395 77.3093 11.4932 76.4849 11.5648C76.1358 11.5774 75.7993 11.6575 75.4544 11.6828C75.5175 11.548 75.61 11.43 75.6942 11.3078C75.9045 10.9876 76.1064 10.6631 76.2704 10.3134C76.5017 9.90049 76.6952 9.46651 76.8719 9.02409C76.9392 8.81342 77.0485 8.61539 77.0738 8.39629C76.5943 8.60696 76.119 8.82185 75.6647 9.07887C75.0464 9.4328 74.4365 9.8078 73.8981 10.2797C73.8813 10.1112 73.9065 9.94684 73.9276 9.78252C73.978 8.9946 73.9318 8.19405 73.7635 7.42298C73.7467 7.3345 73.7341 7.24181 73.6836 7.16596C73.385 7.47355 73.1494 7.83169 72.8886 8.16455Z" fill="#02AAE8"/>
<path d="M72.8888 8.16455C73.1496 7.83168 73.3852 7.47775 73.6628 7.15753C73.7132 7.23337 73.7259 7.32607 73.7427 7.41455C73.9109 8.18561 73.953 8.98617 73.9067 9.77408C73.8899 9.93841 73.8605 10.1069 73.8773 10.2713C74.4157 9.79937 75.0256 9.42437 75.6439 9.07044C76.0981 8.81342 76.5776 8.59432 77.0529 8.38786C77.0277 8.60696 76.9183 8.80499 76.851 9.01566C76.6786 9.45808 76.4809 9.88785 76.2495 10.305C76.0897 10.6505 75.8836 10.9791 75.6733 11.2994C75.5892 11.4215 75.4966 11.5395 75.4336 11.6744C75.7785 11.6491 76.1192 11.569 76.4641 11.5564C77.2927 11.4847 78.1255 11.5311 78.9415 11.6575C78.8321 11.805 78.6765 11.9103 78.5335 12.0241C77.7722 12.6898 76.9436 13.2797 76.0434 13.7389C75.9804 13.7769 75.9004 13.8021 75.8752 13.878C76.7921 14.2403 77.6208 14.8092 78.3232 15.4917C78.3568 15.517 78.3779 15.5549 78.3905 15.5971C77.3011 15.8709 76.1696 16.0311 75.0466 15.9594C75.1475 16.1827 75.2905 16.3808 75.3957 16.6041C75.5976 17.0465 75.7827 17.5016 75.8962 17.9735C75.9383 18.1589 76.0014 18.34 75.993 18.5296C75.0886 18.2768 74.2096 17.9103 73.4272 17.3836C73.4146 17.3962 73.3936 17.4173 73.381 17.4299C73.4062 18.1841 73.2295 18.9341 72.9856 19.642C72.9687 19.6883 72.9267 19.7979 72.8678 19.7305C72.4093 19.267 72.0224 18.7319 71.7111 18.1589C71.6354 18.0324 71.5933 17.8808 71.4882 17.7754C71.2274 18.2221 70.9372 18.6645 70.5586 19.0184C70.4114 19.1743 70.2516 19.3176 70.0875 19.4524C70.0034 19.267 69.9866 19.0647 69.9403 18.8709C69.8267 18.3316 69.8225 17.7796 69.8394 17.2361C69.7132 17.2909 69.5954 17.3667 69.4776 17.4384C69.0065 17.6954 68.5018 17.8934 67.9718 17.9819C68.0097 17.569 68.1779 17.1771 68.3209 16.7895C68.4261 16.5114 68.5817 16.2586 68.7037 15.9847C68.4976 15.9847 68.2915 15.9931 68.0896 15.9889C67.7026 15.9763 67.3283 15.8836 66.9539 15.7909C66.8951 15.774 66.8404 15.7445 66.7899 15.7193C67.2189 15.1799 67.7237 14.6912 68.2999 14.3162C68.1317 14.1982 67.9466 14.1139 67.7783 13.996C67.3704 13.7432 67.0297 13.4019 66.7058 13.0521C66.8236 12.951 66.975 12.9131 67.1138 12.8499C67.6269 12.6603 68.1653 12.5297 68.7079 12.5002C68.4429 12.0451 68.2116 11.5648 68.056 11.0592C67.9676 10.8106 67.9172 10.5451 67.8372 10.2923C67.9045 10.2797 67.9718 10.2797 68.0391 10.2923C68.628 10.364 69.2042 10.5367 69.7216 10.8274C69.7847 10.8654 69.852 10.8906 69.9235 10.9117C69.8814 9.94262 70.016 8.97353 70.2642 8.03814C70.6638 8.34573 70.9834 8.73336 71.2695 9.14207C71.4756 9.41594 71.606 9.73195 71.7826 10.0227C71.9509 9.72352 72.077 9.4033 72.2663 9.11257C72.464 8.78814 72.6785 8.47634 72.8888 8.16455ZM71.7994 10.1069C71.4966 10.7811 71.2947 11.4974 71.2274 12.2347C70.9708 11.8471 70.6638 11.4847 70.2894 11.2067C70.1843 11.1308 70.0875 11.0339 69.9613 10.996C69.9866 11.5395 70.0917 12.0831 70.2936 12.5887C70.3231 12.6729 70.3609 12.7572 70.4156 12.8331C70.3904 12.8288 70.3399 12.8204 70.3147 12.8162C69.8267 12.6055 69.2926 12.5044 68.7626 12.5297C69.0528 12.9889 69.423 13.4061 69.8856 13.6926C69.8898 13.7052 69.8983 13.7347 69.9067 13.7516C69.3557 13.819 68.8257 14.0339 68.3546 14.3204C68.8467 14.5395 69.3767 14.6912 69.9151 14.687C69.894 14.7122 69.873 14.7375 69.8478 14.7586C69.4145 15.0915 69.0528 15.5086 68.7668 15.9679C69.3262 15.9299 69.873 15.7445 70.3651 15.4749C70.0917 16.0016 69.9193 16.5914 69.8814 17.1855C70.3693 16.8569 70.7984 16.4313 71.1096 15.9299C71.1265 16.5367 71.261 17.135 71.4966 17.6954C71.5092 17.6869 71.5344 17.6743 71.5471 17.6659C71.8121 17.1181 72.0097 16.5325 72.0518 15.9215C72.3799 16.4777 72.8468 16.9496 73.3767 17.3204C73.3725 16.6715 73.2253 16.0226 72.9519 15.437C73.5913 15.7445 74.2937 15.9089 74.9961 15.9468C74.6218 15.3695 74.117 14.8724 73.524 14.5226C74.2979 14.4552 75.0508 14.2108 75.749 13.878C75.749 13.8696 75.7532 13.8527 75.7574 13.8401C75.0718 13.5746 74.3315 13.4314 73.5955 13.4566C74.2937 12.9974 74.8615 12.3738 75.3747 11.7207C74.7311 11.826 74.1086 12.0451 73.5282 12.3359C73.3852 12.3991 73.2632 12.5002 73.1118 12.5465C73.4861 11.8597 73.7301 11.1013 73.8226 10.326C73.2043 10.8359 72.6575 11.4342 72.2369 12.1168C72.2158 11.43 72.0897 10.739 71.7994 10.1069Z" fill="#006FB8"/>
<path d="M15.0054 4.41054C15.4512 4.19565 15.8887 3.96812 16.3345 3.74902C16.3387 5.21531 16.3345 6.67737 16.3345 8.13944C16.3345 8.35854 16.3219 8.58185 16.406 8.78831C16.5154 9.09168 16.7846 9.32764 17.1 9.39926C17.2809 9.4414 17.466 9.42033 17.6468 9.42455C17.8698 9.42033 18.1053 9.44983 18.3114 9.35292C18.4628 9.28972 18.5722 9.16331 18.6858 9.04955C19.2284 8.46809 19.7541 7.86978 20.2967 7.29254C20.5239 7.0313 20.8393 6.85012 21.18 6.78692C21.5796 6.71951 21.9876 6.88805 22.2904 7.14507C22.4461 7.28411 22.5975 7.43158 22.7447 7.58327C22.934 7.77287 23.1401 7.94141 23.2999 8.1563C23.6406 8.59871 23.7542 9.20545 23.607 9.74477C23.485 10.2209 23.1569 10.6338 22.7321 10.8782C22.2189 11.1689 21.567 11.1942 21.037 10.933C20.6627 10.7686 20.4103 10.44 20.1243 10.1661C20.0107 10.0524 19.8971 9.93859 19.7836 9.82904C19.691 9.92595 19.5985 10.0271 19.5102 10.1282C19.1064 10.579 18.4923 10.815 17.895 10.7771C17.3524 10.7518 16.7888 10.8571 16.2714 10.6464C15.5269 10.3726 14.9886 9.61415 14.9886 8.81781C15.0054 7.34731 14.9886 5.88103 15.0054 4.41054ZM21.2431 8.33326C21.0707 8.39646 20.9739 8.565 20.8477 8.68719C20.8099 8.74197 20.7089 8.79253 20.7426 8.87258C20.9949 9.13382 21.2557 9.38241 21.5081 9.64364C21.7226 9.84168 22.1012 9.79533 22.2526 9.54673C22.3746 9.37398 22.3619 9.12118 22.2231 8.96528C22.0928 8.81781 21.9413 8.68298 21.8067 8.53972C21.6595 8.38804 21.4492 8.26585 21.2431 8.33326ZM24.3262 4.42318C24.7763 4.20829 25.2137 3.96391 25.6722 3.76166C25.6722 5.32064 25.6722 6.87962 25.6722 8.4386C25.6638 8.94842 26.097 9.4119 26.6102 9.42876C29.075 9.42876 31.5398 9.43297 34.0046 9.42876C34.0172 9.8796 34.0172 10.3304 34.0046 10.7813C31.4136 10.7771 28.8184 10.7813 26.2274 10.7771C25.4745 10.7518 24.7637 10.2504 24.4819 9.55095C24.3725 9.29393 24.322 9.01163 24.322 8.73354C24.3262 7.29675 24.3304 5.85996 24.3262 4.42318ZM43.6703 4.41896C44.1204 4.20407 44.562 3.96391 45.0163 3.75745C45.0079 5.30379 45.0163 6.85012 45.0121 8.39646C44.9869 8.82623 45.2813 9.24758 45.6935 9.3782C45.8744 9.44561 46.0678 9.42455 46.2529 9.42455C47.397 9.42455 48.5369 9.42455 49.6809 9.42455C49.6851 9.87539 49.6809 10.322 49.6809 10.7729C48.4696 10.7729 47.254 10.7729 46.0426 10.7729C45.7608 10.7686 45.4706 10.7939 45.1972 10.7181C44.7429 10.617 44.3559 10.3347 44.0657 9.98072C43.704 10.2799 43.3002 10.5369 42.8459 10.6591C42.358 10.815 41.8407 10.7644 41.3401 10.7729C39.3422 10.7729 37.3443 10.7729 35.3464 10.7729C35.3464 10.322 35.3464 9.87539 35.3464 9.42455C37.5966 9.42455 39.8469 9.42455 42.093 9.42455C42.5305 9.41612 42.9679 9.20966 43.2413 8.85994C43.5442 8.49759 43.6493 8.00883 43.6703 7.54956C43.6703 6.50884 43.6619 5.4639 43.6703 4.41896ZM50.3371 4.41475C50.7872 4.19986 51.2288 3.97655 51.6705 3.74902C51.6915 5.32486 51.6704 6.9049 51.6789 8.48073C51.6915 8.96949 52.1121 9.40769 52.6 9.42455C53.6221 9.42876 54.6484 9.42455 55.6705 9.42455V10.7729C54.5348 10.7729 53.3992 10.7729 52.2593 10.7729C51.4517 10.7602 50.6946 10.1914 50.438 9.42876C50.2866 9.01584 50.3329 8.56922 50.3245 8.13944C50.3371 6.90069 50.3245 5.65772 50.3371 4.41475ZM12.6668 5.35435C13.1126 5.12682 13.5543 4.89508 14.0043 4.6802C14.0001 5.75041 14.0043 6.82063 14.0001 7.89085C13.9791 8.64506 13.651 9.38662 13.1084 9.91331C12.6457 10.3726 12.0274 10.6759 11.3797 10.756C11.1567 10.7855 10.9338 10.7729 10.7109 10.7771C9.96641 10.7771 9.22192 10.7771 8.48163 10.7771C8.12411 10.7729 7.75817 10.8108 7.40906 10.6928C6.64775 10.4695 6.0715 9.7532 6 8.96107V6.08328C6.45006 5.86839 6.8875 5.63665 7.33756 5.42177C7.33756 6.42457 7.33335 7.43158 7.33756 8.43438C7.33335 8.94 7.76238 9.41191 8.27132 9.42455C9.11256 9.42455 9.95379 9.42455 10.795 9.42455C10.9801 9.42455 11.1652 9.43718 11.346 9.39084C11.9054 9.27286 12.3892 8.8473 12.57 8.30377C12.6583 8.0636 12.671 7.80236 12.6668 7.54534C12.6668 6.82063 12.6668 6.08749 12.6668 5.35435ZM39.359 5.19424C39.624 5.06783 39.8806 4.91615 40.1582 4.8066C40.1582 5.06783 40.154 5.32485 40.1624 5.58609C39.8932 5.72092 39.6324 5.85996 39.359 5.98215C39.603 5.98215 39.8764 5.98637 40.0699 6.16333C40.4232 6.4667 40.3559 7.11136 39.9437 7.33889C39.5735 7.52849 39.1992 7.7181 38.8206 7.88664C38.8206 7.6254 38.8206 7.36417 38.8206 7.10293C39.0898 6.98074 39.3464 6.82484 39.6198 6.71951C39.3843 6.71108 39.1193 6.71108 38.93 6.54676C38.5935 6.29395 38.5935 5.72935 38.9048 5.45547C39.0267 5.32486 39.2076 5.28272 39.359 5.19424ZM9.89911 5.4639C9.93696 5.40912 10.0043 5.42598 10.0631 5.42177C10.366 5.72092 10.6646 6.02429 10.9675 6.32766C11.039 6.39086 11.0095 6.50462 10.9422 6.56361C10.6815 6.82484 10.4207 7.08186 10.1641 7.3431C10.122 7.39366 10.0589 7.41894 10.0001 7.44844C9.94117 7.41894 9.88228 7.38523 9.84022 7.33467C9.58365 7.07344 9.32286 6.8122 9.06208 6.55518C8.98637 6.49198 8.98217 6.36979 9.05788 6.3108C9.33548 6.0285 9.61309 5.7462 9.89911 5.4639ZM47.5779 5.4639C47.6157 5.41334 47.6788 5.42598 47.7377 5.42177C48.0405 5.71249 48.335 6.01165 48.6294 6.3108C48.7051 6.374 48.6925 6.49198 48.621 6.55518C48.3434 6.83748 48.0658 7.11979 47.7798 7.39366C47.7545 7.4063 47.7083 7.43158 47.683 7.44422C47.5526 7.41052 47.4811 7.29675 47.3886 7.20827C47.1699 6.98917 46.9553 6.77428 46.7366 6.55518C46.6693 6.50041 46.6399 6.38243 46.7156 6.31923C47.0058 6.04114 47.2876 5.75041 47.5779 5.4639ZM53.2688 11.7883C53.3235 11.7841 53.395 11.7672 53.4412 11.8136C53.66 12.0158 53.8619 12.2349 54.0764 12.4414C54.1647 12.5383 54.2699 12.6183 54.3414 12.7321C54.3582 12.7953 54.3414 12.8669 54.2867 12.9049C54.0007 13.1787 53.7273 13.4652 53.4454 13.7433C53.3866 13.8023 53.294 13.8065 53.2393 13.7433C52.9575 13.4652 52.6799 13.1829 52.4023 12.9006C52.3308 12.8459 52.3182 12.7405 52.3855 12.6773C52.6715 12.3782 52.9744 12.0874 53.2688 11.7883ZM10.5679 15.7826C10.7445 15.218 11.2956 14.8009 11.8886 14.7798C12.5237 14.7714 13.1589 14.7798 13.7898 14.7756C13.5501 15.0327 13.2977 15.2728 13.0495 15.5214C12.6752 15.5256 12.3008 15.5214 11.9265 15.5214C11.6489 15.5214 11.3965 15.711 11.2871 15.9638C11.1567 16.263 11.2619 16.6464 11.5353 16.8276C11.8171 17.0383 12.1915 16.9413 12.5153 16.9624C12.9906 16.9287 13.487 17.1015 13.794 17.4722C14.2188 17.9526 14.2651 18.7236 13.895 19.2503C13.6636 19.6042 13.2682 19.8402 12.8476 19.8908H10.8539C10.8539 19.6422 10.8539 19.3978 10.8539 19.1534C11.4638 19.1576 12.0737 19.1534 12.6836 19.1576C13.0453 19.1661 13.3734 18.8627 13.4028 18.5045C13.4533 18.1253 13.1463 17.7461 12.7635 17.7166C12.4438 17.6998 12.12 17.7293 11.8003 17.6998C11.4386 17.6661 11.0979 17.4849 10.8581 17.2152C10.5132 16.8402 10.4038 16.2714 10.5679 15.7826ZM47.3591 18.593C47.3591 17.3248 47.3549 16.0565 47.3633 14.7841C47.6157 14.7883 47.8681 14.7883 48.1162 14.7841C48.1162 15.7995 48.1162 16.8192 48.1162 17.8346C48.7682 17.1815 49.4202 16.5242 50.0763 15.8711C50.4254 15.8711 50.7703 15.8669 51.1194 15.8711C50.4717 16.5411 49.7987 17.1815 49.1552 17.8557C49.8366 18.5298 50.5138 19.2166 51.1952 19.895H50.1436C49.4664 19.2208 48.7976 18.5425 48.1162 17.8725C48.1162 18.5467 48.1162 19.2208 48.1162 19.895H47.3675C47.3465 19.4652 47.3633 19.027 47.3591 18.593ZM34.4883 19.8992C34.4799 18.2222 34.4799 16.5495 34.4883 14.8725C35.0982 14.8768 35.7123 14.8725 36.3222 14.8725C36.768 14.881 37.1971 15.1127 37.4494 15.4793C37.8238 15.9891 37.7901 16.7433 37.3863 17.2236C37.6513 17.409 37.8827 17.6576 37.9836 17.9736C38.1603 18.4498 38.0593 19.0186 37.7228 19.402C37.4873 19.6759 37.1508 19.8571 36.7933 19.8992H34.4883ZM35.2118 15.6057C35.216 16.0776 35.216 16.5495 35.2118 17.0214C35.5819 17.0298 35.9562 17.0256 36.3306 17.0256C36.7176 17.0045 37.0372 16.6253 36.9868 16.2377C36.9531 15.8922 36.6376 15.6057 36.2927 15.6057C35.9268 15.6015 35.5693 15.6015 35.2118 15.6057ZM35.2118 17.7545C35.216 18.2264 35.2118 18.6984 35.2118 19.1703C35.6955 19.1703 36.1792 19.1703 36.6629 19.1703C36.9868 19.1661 37.277 18.909 37.3317 18.593C37.42 18.1885 37.0793 17.7588 36.6629 17.7545C36.1792 17.7503 35.6955 17.7503 35.2118 17.7545ZM15.7793 15.8753C16.2504 15.8711 16.7215 15.8753 17.1926 15.8753C17.4786 15.8711 17.773 15.9596 17.9833 16.1576C18.2231 16.3641 18.3535 16.6759 18.3493 16.9919C18.3493 17.961 18.3493 18.9301 18.3493 19.8992H15.8298C15.4975 19.8613 15.182 19.6885 14.9717 19.4231C14.5848 18.9554 14.6016 18.2054 15.0222 17.763C15.2578 17.4933 15.6111 17.3332 15.9728 17.3374C16.5196 17.3374 17.0664 17.3332 17.6132 17.3416C17.6132 17.2026 17.6216 17.0551 17.5543 16.9245C17.4702 16.7391 17.2725 16.6169 17.0706 16.6211C16.3976 16.6211 15.7246 16.6211 15.0516 16.6211C15.2788 16.3641 15.5396 16.1281 15.7793 15.8753ZM15.7961 18.1085C15.5816 18.1843 15.4176 18.4034 15.4302 18.6352C15.4302 18.9132 15.6826 19.1703 15.9644 19.1618C16.5112 19.1618 17.058 19.1661 17.6048 19.1576C17.6048 18.7953 17.609 18.4329 17.6048 18.0706C17.1421 18.079 16.6836 18.0706 16.221 18.0748C16.078 18.079 15.9349 18.0621 15.7961 18.1085ZM19.7878 15.8753C20.8561 15.8753 21.9245 15.8753 22.9929 15.8753C23.1821 15.8753 23.3756 15.8964 23.5439 15.9849C23.9098 16.1576 24.1664 16.5453 24.1706 16.9498C24.1706 17.9315 24.1706 18.9175 24.1706 19.8992H23.4345C23.4345 19.0565 23.4345 18.2138 23.4345 17.3711C23.4345 17.2152 23.4471 17.0509 23.3672 16.9119C23.2789 16.7475 23.098 16.6211 22.9088 16.6253C22.6017 16.6253 22.2947 16.6253 21.9876 16.6253C21.9834 17.7166 21.9876 18.8079 21.9876 19.9034H21.2473C21.2473 18.8121 21.2473 17.7208 21.2473 16.6296C20.7636 16.6253 20.2799 16.6296 19.8004 16.6253C19.7962 17.7166 19.8004 18.8079 19.8004 19.9034H19.0643C19.0643 18.8037 19.0643 17.7082 19.0643 16.6085C19.3041 16.3599 19.5438 16.1155 19.7878 15.8753ZM25.8741 15.8753C26.3578 15.8711 26.8415 15.8711 27.3294 15.8753C27.5944 15.8753 27.8594 15.9554 28.0655 16.1281C28.3347 16.343 28.4735 16.6928 28.4651 17.034C28.4693 17.9905 28.4651 18.9427 28.4651 19.8992H25.954C25.3525 19.8486 24.8436 19.3262 24.8057 18.7236C24.7342 18.0411 25.2978 17.3753 25.9834 17.3416C26.5597 17.3332 27.1401 17.3416 27.7164 17.3374C27.7164 17.1942 27.729 17.0425 27.6533 16.9119C27.565 16.7307 27.3631 16.6085 27.1612 16.6211C26.4966 16.6211 25.8278 16.6211 25.1632 16.6211C25.3862 16.3599 25.6385 16.1239 25.8741 15.8753ZM25.5544 18.513C25.4745 18.8248 25.7437 19.1618 26.0634 19.1618C26.6144 19.1618 27.1654 19.1661 27.7122 19.1576C27.708 18.7953 27.7122 18.4371 27.7122 18.0748C27.1738 18.079 26.6396 18.0748 26.1012 18.0748C25.8489 18.0706 25.6007 18.2559 25.5544 18.513ZM29.9078 15.8711C30.4209 15.8711 30.9341 15.8711 31.4472 15.8711C31.6954 15.8711 31.952 15.8585 32.1833 15.968C32.5577 16.1366 32.8311 16.5284 32.8269 16.9456C32.8269 17.9273 32.8269 18.9132 32.8269 19.895H32.0908C32.0866 18.9807 32.0908 18.0706 32.0908 17.1562C32.095 16.8824 31.8552 16.6211 31.5776 16.6169C31.0224 16.6127 30.4672 16.6169 29.912 16.6169C29.9162 17.7082 29.912 18.7995 29.912 19.8908H29.1717C29.1801 18.7953 29.1591 17.6998 29.1801 16.6085C29.4073 16.3557 29.668 16.1239 29.9078 15.8711ZM39.6703 15.9133C39.7166 15.8543 39.7965 15.8796 39.8596 15.8753C40.3222 15.8796 40.7849 15.8669 41.2476 15.8838C41.7986 15.9091 42.2655 16.4062 42.2697 16.954C42.2697 17.9357 42.2697 18.9175 42.2697 19.9034H39.7544C39.3296 19.8613 38.9384 19.5874 38.7491 19.1998C38.5557 18.8121 38.5683 18.3149 38.808 17.9484C39.0309 17.5692 39.4684 17.3332 39.9058 17.3416C40.4484 17.3458 40.991 17.3374 41.5336 17.3458C41.542 17.1689 41.5336 16.9793 41.42 16.836C41.3191 16.7138 41.1635 16.6211 40.9994 16.6296C40.3222 16.6296 39.645 16.6338 38.9679 16.6253C39.1992 16.3852 39.4347 16.145 39.6703 15.9133ZM39.3548 18.6352C39.3464 18.9217 39.6156 19.1745 39.9016 19.1576C40.4442 19.1576 40.9868 19.1618 41.5294 19.1534C41.5252 18.7911 41.5378 18.4287 41.5252 18.0663C40.97 18.079 40.4148 18.0663 39.8596 18.0748C39.582 18.0916 39.3338 18.3529 39.3548 18.6352ZM43.7082 15.8753C44.3055 15.8753 44.9027 15.8753 45.5 15.8753C45.7734 15.8711 46.051 15.9596 46.2571 16.1408C46.5011 16.3515 46.6441 16.6675 46.6399 16.9877C46.6441 17.9568 46.6399 18.9259 46.6399 19.895H45.8954C45.8954 18.9807 45.8954 18.0706 45.8954 17.1562C45.908 16.8697 45.6556 16.6169 45.3738 16.6169C44.8228 16.6169 44.2676 16.6169 43.7166 16.6169C43.7208 17.7082 43.7166 18.7995 43.7166 19.8908H42.9889C42.9721 18.7911 42.9805 17.6913 42.9847 16.5874C43.2287 16.3599 43.4684 16.1197 43.7082 15.8753Z" fill="#024B8F"/>
</g>
<defs>
<clipPath id="clip0_3775_100860">
<rect width="88" height="24" fill="white"/>
</clipPath>
</defs>
</svg>
