<svg width="24" height="24" viewBox="0 0 24 24" fill="none" xmlns="http://www.w3.org/2000/svg">
<path fill-rule="evenodd" clip-rule="evenodd" d="M11.6082 0.5945L5.99391 3.81931L5.96254 3.83705C5.41775 4.1565 5.05218 4.74599 5.05218 5.42061V16.7786L8.07989 15.0397L8.0623 15.0002L8.06135 14.9974L8.0421 14.9518L8.02403 14.9068L8.02142 14.9002L8.00335 14.8541L7.986 14.8078L7.98553 14.8059L7.98505 14.8054L7.96794 14.7581L7.9513 14.7096L7.95083 14.7082L7.93466 14.6602L7.91874 14.6103L7.9185 14.6094L7.91802 14.6084L7.91374 14.5945L7.90947 14.581C7.90257 14.5578 7.89568 14.5339 7.88903 14.5103L7.88855 14.5096L7.87476 14.4597L7.86122 14.4088L7.86074 14.4072V14.4065L7.85361 14.3779L7.84624 14.3495C7.83436 14.3013 7.82366 14.2525 7.81344 14.2036L7.8132 14.2029L7.80298 14.1511L7.79371 14.1012V14.0998L7.79324 14.0979V14.0967L7.78397 14.0454L7.77588 13.9941C7.76495 13.9227 7.75568 13.8518 7.74879 13.7815L7.74855 13.7794L7.74356 13.7283L7.73904 13.6739L7.73524 13.6198L7.73239 13.5682L7.73215 13.5663V13.5656L7.72953 13.511L7.72787 13.458V13.4569L7.72692 13.4015L7.72644 13.3472L7.72692 13.2944L7.72787 13.2419L7.72906 13.2065L7.72953 13.1963L7.73167 13.1367L7.73381 13.1003L7.73453 13.0922L7.735 13.0861L7.73833 13.0329L7.74712 12.9293L7.75235 12.8806L7.75877 12.8251L7.76471 12.7794L7.77256 12.7231L7.77992 12.6761L7.7892 12.6203L7.79728 12.5761L7.80797 12.5195L7.817 12.4741C7.82223 12.4486 7.8258 12.4328 7.82936 12.4174L7.83863 12.377L7.8529 12.319L7.86383 12.276L7.87667 12.2287L7.88071 12.2136L7.88974 12.1809L7.89877 12.1502L7.90852 12.1188L7.92206 12.0743L7.93609 12.0301L7.95035 11.987L7.95629 11.9703C7.96485 11.9457 7.97341 11.9213 7.98363 11.8932L7.99717 11.8575L7.99741 11.8565L7.99979 11.8501C8.00502 11.8367 8.01049 11.8218 8.01952 11.7988L8.03782 11.7537L8.05541 11.7106L8.08132 11.651L8.09653 11.6165L8.11768 11.5702L8.13718 11.5283L8.16023 11.481L8.18234 11.4373L8.20563 11.3919L8.22655 11.3522L8.23986 11.3278L8.25269 11.3039L8.27456 11.2654L8.27646 11.2618C8.28359 11.2493 8.29049 11.2368 8.3019 11.2178L8.32352 11.1812L8.32376 11.1805L8.3278 11.1736L8.35181 11.1344L8.37415 11.0987L8.40648 11.0476L8.41456 11.0358L8.44166 10.9946L8.46947 10.954C8.51677 10.8847 8.56621 10.8173 8.61707 10.752L8.65154 10.7078L8.6746 10.6799L8.69052 10.66L8.71191 10.634L8.73402 10.608L8.75446 10.5841L8.77347 10.5621L8.7932 10.5402L8.82006 10.5101L8.84074 10.4874L8.86142 10.465L8.88448 10.4404L8.90801 10.4155L8.93178 10.391L8.94818 10.3744L8.97551 10.3467L9.00309 10.3195L9.01354 10.3094L9.04183 10.2822L9.07059 10.2552L9.08556 10.2413L9.11456 10.2143L9.14451 10.1874L9.1495 10.1831L9.1823 10.1538L9.21629 10.1247L9.21986 10.1216L9.22057 10.1212C9.24196 10.1027 9.26264 10.0855 9.28071 10.0708C9.29854 10.0561 9.31898 10.0398 9.34179 10.0216C9.44757 9.93814 9.55667 9.85963 9.66981 9.7868L9.67432 9.78349L9.71212 9.75961L9.74967 9.73596L9.7549 9.73289L9.79198 9.71043L9.82859 9.68844L9.83976 9.68205L9.84998 9.67614L9.86044 9.67023C9.87874 9.65959 9.89609 9.64966 9.91154 9.64115L9.92366 9.63453L9.95884 9.61514L9.99473 9.59598L10.0111 9.58747L10.0482 9.56832L10.0848 9.54964L10.0908 9.5468L10.1324 9.52646L10.1735 9.5066L10.1749 9.50613C10.211 9.4891 10.2476 9.47231 10.2845 9.45647C10.3197 9.4411 10.357 9.4255 10.3962 9.40989C10.5885 9.33257 10.7874 9.26849 10.9918 9.21978L10.9954 9.21883L11.0406 9.20819L11.0853 9.19826L11.0929 9.1966L11.1387 9.18715L11.1856 9.17816L11.1882 9.17769L11.2331 9.16918L11.279 9.16137L11.2909 9.15924L11.3351 9.15215L11.38 9.14577L11.3857 9.14458L11.4321 9.13844L11.4775 9.13252L11.4813 9.13205L11.5233 9.12661L11.5231 9.08452V4.53176C11.5231 4.45326 11.5393 4.3906 11.5656 4.34354C11.5885 4.30311 11.6191 4.27308 11.655 4.25369C11.6914 4.23406 11.7332 4.22413 11.7772 4.22413C11.8347 4.22413 11.8958 4.24092 11.9533 4.2726L18.945 8.2931V5.42061C18.945 4.76656 18.6008 4.19197 18.0827 3.86661L12.399 0.60254C12.2495 0.517415 12.1254 0.472961 12.0006 0.471069C11.9978 0.471069 11.9949 0.471069 11.9921 0.471069C11.8699 0.471069 11.7498 0.511977 11.6082 0.5945ZM12.4779 9.11172L12.5212 9.11645L12.5242 9.11692L12.5732 9.1233L12.6217 9.12992L12.6286 9.13134L12.6778 9.13867L12.727 9.14671L12.7287 9.14719L12.7793 9.15617L12.8297 9.16586L12.8311 9.1661L12.881 9.17651L12.9321 9.18738L12.9343 9.18809L12.9485 9.1914L12.9623 9.19448C12.9863 9.19991 13.0103 9.20606 13.0343 9.21197H13.035L13.0857 9.22498L13.1365 9.23869L13.1382 9.23917L13.1387 9.23964L13.1674 9.24744L13.1955 9.25548C13.2433 9.26967 13.2913 9.28457 13.3388 9.30017L13.3402 9.30065L13.3899 9.31743L13.4382 9.33446L13.4394 9.33493L13.4413 9.33588L13.4422 9.33611L13.4914 9.35409L13.5401 9.37253L13.5406 9.37277C13.6084 9.39901 13.6742 9.42668 13.7386 9.45529L13.7407 9.456L13.7878 9.47775L13.8372 9.50093L13.8862 9.52481L13.9326 9.54798L13.9345 9.54869L13.9352 9.54916L13.9839 9.57423L14.0307 9.59953L14.0317 9.6L14.0806 9.62672L14.1282 9.65344L14.1736 9.68016L14.219 9.70735L14.258 9.73147L14.3086 9.76363L14.3395 9.78349L14.3459 9.78775L14.3507 9.7913L14.3571 9.79532L14.3956 9.82085L14.435 9.84781L14.4814 9.8802L14.5213 9.90905L14.5665 9.94263L14.6031 9.97029L14.6483 10.0055L14.6856 10.0353L14.7295 10.071L14.764 10.1001L14.8077 10.1375L14.8427 10.1682C14.8622 10.1855 14.8743 10.1963 14.8859 10.2072L14.9166 10.2351L14.9599 10.2767L14.992 10.3075L15.0264 10.342L15.0618 10.3772L15.0842 10.4004L15.1063 10.4245L15.1386 10.4583L15.1697 10.4926L15.2002 10.5264L15.2118 10.5402C15.2289 10.5598 15.246 10.5792 15.2653 10.6021L15.2895 10.6317L15.2903 10.6321L15.2945 10.6376C15.304 10.6489 15.3138 10.661 15.3295 10.6801L15.3597 10.7184L15.3882 10.7553L15.4215 10.7998L15.4272 10.8074L15.4497 10.8376L15.4795 10.879L15.5061 10.9168L15.5356 10.9601L15.5629 11.0013L15.5907 11.0438L15.6147 11.0819L15.6297 11.1055L15.6437 11.1285L15.6663 11.1665L15.6684 11.1701C15.6758 11.1824 15.6832 11.1947 15.6941 11.2138L15.7152 11.251L15.7155 11.2514L15.7195 11.2583L15.7419 11.2985L15.7616 11.3358L15.7759 11.3623L15.7901 11.3893L15.7961 11.4016L15.7963 11.402L15.7968 11.4023L15.8184 11.4458L15.84 11.4902C15.8766 11.5659 15.9106 11.6421 15.942 11.7184L15.9501 11.7378L15.9632 11.7704L15.9762 11.8038L15.9972 11.8591L16.0088 11.8913L16.0193 11.9206L16.029 11.948L16.0385 11.9762L16.0511 12.0142L16.0606 12.0436L16.0699 12.0726L16.0894 12.137L16.0989 12.1701L16.1053 12.1923L16.1255 12.267L16.1291 12.2812L16.1388 12.3195L16.1476 12.3573L16.1524 12.377L16.1614 12.4157L16.1697 12.4552L16.1709 12.4616L16.1799 12.5047L16.1885 12.5482L16.1894 12.5529V12.5538C16.1947 12.5815 16.1994 12.608 16.2032 12.6307C16.207 12.6534 16.2113 12.6792 16.2154 12.708C16.2351 12.8407 16.2489 12.9743 16.2562 13.1079L16.2565 13.1135L16.2586 13.1582L16.26 13.2022L16.2603 13.2084L16.2612 13.2516L16.2619 13.2939V13.3304C16.2622 13.3516 16.2619 13.3715 16.2617 13.389L16.2607 13.4427L16.2593 13.4833L16.2588 13.5016L16.2546 13.5841L16.2543 13.5905L16.2512 13.6368L16.2479 13.6817V13.6834C16.2443 13.7231 16.2405 13.7628 16.236 13.8028C16.2318 13.8409 16.2265 13.8806 16.2208 13.9222C16.1918 14.1265 16.1481 14.3299 16.0887 14.5304L16.0875 14.5339L16.0739 14.5779L16.0604 14.6217L16.058 14.629L16.0433 14.6732L16.0278 14.7181L16.0271 14.7205L16.0119 14.7633L15.9955 14.807L15.9914 14.8182L15.9755 14.86L15.9589 14.9019L15.957 14.9075L15.9392 14.9501L15.9216 14.9927L15.9201 14.996L15.9037 15.035L15.9406 15.056L19.9041 17.3322C19.9725 17.3714 20.0187 17.4164 20.0467 17.4632C20.0705 17.5027 20.0809 17.5443 20.08 17.585C20.0793 17.6259 20.0664 17.6668 20.0446 17.7048C20.0156 17.7545 19.9709 17.7987 19.9145 17.8325L12.9913 21.8038L12.9183 21.8455L12.9913 21.8875L15.4191 23.2817C15.9888 23.6092 16.6608 23.5997 17.2032 23.316L22.8864 20.0514C23.0354 19.9651 23.1362 19.8805 23.2001 19.7738C23.2643 19.667 23.2902 19.5412 23.2888 19.374V12.8889C23.2831 12.2599 22.9527 11.6499 22.3656 11.3127L12.4779 5.63366V9.11172ZM1.63323 11.3136C1.06372 11.6409 0.735706 12.2247 0.711224 12.8336L0.711937 19.3622C0.71265 19.5336 0.735943 19.6629 0.796555 19.7712C0.857404 19.88 0.954144 19.9649 1.10032 20.0477L6.71483 23.2722L6.74573 23.2902C7.29622 23.5997 7.99266 23.6201 8.57976 23.2829L18.3947 17.6457L18.4672 17.6036L15.4773 15.8865L15.4395 15.865L15.4139 15.8997L15.4136 15.9002L15.412 15.9021L15.3818 15.9413L15.3518 15.9794L15.3473 15.9848L15.3162 16.0236L15.2846 16.0617L15.2834 16.0631L15.2831 16.0636L15.2503 16.1021L15.2166 16.1407L15.2156 16.1418L15.1819 16.1799L15.1465 16.2185L15.1455 16.2189L15.1448 16.2199L15.135 16.2305L15.1253 16.2409C15.1087 16.2587 15.0915 16.2762 15.0742 16.2941L15.0735 16.2946L15.0374 16.3315L14.9996 16.3686L14.9984 16.3698L14.9979 16.37L14.9767 16.3908L14.9556 16.4112C14.9195 16.4455 14.8826 16.479 14.8448 16.5124L14.8443 16.5128L14.8044 16.5476L14.7654 16.5807L14.7645 16.5814L14.7628 16.5826L14.7621 16.5833L14.7217 16.6169L14.6813 16.6498C14.6247 16.6949 14.5672 16.738 14.5099 16.7791L14.5085 16.7803L14.4659 16.8103L14.421 16.8413L14.3756 16.8718L14.3324 16.8999L14.3309 16.9011L14.3302 16.9014L14.2839 16.9309L14.2385 16.9588L14.2375 16.9593L14.19 16.9881L14.1429 17.0156L14.0968 17.0418L14.0505 17.0671L14.0191 17.0837L14.0103 17.0884L13.9568 17.1163L13.924 17.1326L13.9169 17.1359L13.9116 17.1385L13.9048 17.1421L13.8634 17.1624L13.7688 17.2066L13.7239 17.2267L13.6297 17.2664L13.5763 17.2877L13.5318 17.305L13.4786 17.3251L13.4363 17.3402L13.3816 17.3591L13.3376 17.374C13.3127 17.3823 13.2972 17.3868 13.2818 17.3918L13.2423 17.4041L13.1845 17.4208L13.1418 17.4327L13.0942 17.4454L13.079 17.4495L13.046 17.458L13.0146 17.4655L12.9825 17.4729L12.9369 17.4837L12.8912 17.4934L12.8468 17.5027L12.8292 17.506C12.8038 17.5112 12.7781 17.5159 12.7484 17.5209L12.7106 17.527L12.7099 17.5273L12.703 17.5284C12.6885 17.5308 12.673 17.5336 12.6486 17.5372L12.5998 17.5443L12.5535 17.5504L12.4983 17.557L12.4888 17.558L12.451 17.562L12.4002 17.5672L12.3541 17.5712L12.3015 17.5748L12.2521 17.5779L12.2012 17.5805L12.1558 17.5823L12.1009 17.5838L12.0565 17.5845L12.0524 17.5842C12.0377 17.5845 12.0234 17.5847 12.0016 17.5847L11.9588 17.5842H11.95L11.9039 17.5833L11.8618 17.5819L11.8007 17.5795L11.7874 17.5783H11.7867L11.7862 17.5786L11.7372 17.5757L11.6878 17.5719C11.6039 17.5658 11.5205 17.557 11.4382 17.5459L11.4176 17.5431L11.3826 17.5381L11.347 17.5325L11.3215 17.5287L11.2882 17.523L11.2545 17.5171L11.2236 17.5114L11.1951 17.5057L11.1658 17.5001L11.1264 17.492L11.066 17.4788L11.033 17.4715L11.0002 17.4634L10.9667 17.4551L10.9441 17.4495L10.9063 17.4395L10.869 17.4294L10.8547 17.4256L10.8167 17.4147L10.7791 17.4038L10.7596 17.3977L10.7214 17.3861L10.6831 17.3738L10.6769 17.3719L10.6348 17.3577L10.5928 17.3433L10.588 17.3419L10.5873 17.3416C10.5604 17.3322 10.5352 17.323 10.5136 17.3147C10.4917 17.3069 10.4675 17.2974 10.4402 17.2865C10.3147 17.2376 10.1918 17.1825 10.0717 17.1217L10.0665 17.1191L10.0271 17.0988L9.9876 17.0782L9.98213 17.0751L9.9441 17.0546L9.90679 17.0338L9.89561 17.0271L9.88516 17.0215L9.87517 17.0156C9.8564 17.0052 9.83904 16.995 9.82407 16.9862L9.81219 16.9791L9.77772 16.9583L9.74325 16.9371L9.69239 16.9049L9.65769 16.8824L9.65246 16.8789L9.61371 16.8531L9.57592 16.8276L9.57473 16.8269C9.54169 16.8042 9.50913 16.7808 9.4768 16.7571C9.4459 16.7344 9.41358 16.7101 9.3803 16.6843C9.21677 16.5573 9.06179 16.4178 8.91704 16.2662L8.91466 16.2634L8.88281 16.2298L8.85168 16.1962L8.84621 16.1906L8.81531 16.1556L8.78417 16.1201L8.78227 16.118L8.75232 16.0834L8.72261 16.048L8.715 16.0385L8.68672 16.004L8.65843 15.9685L8.65487 15.9643L8.62611 15.9274L8.5983 15.891L8.59616 15.8884L8.57025 15.8548L4.57014 18.1524C4.50192 18.1915 4.43965 18.209 4.38522 18.2099C4.33887 18.2104 4.29727 18.1988 4.26209 18.1775C4.22715 18.1565 4.19792 18.1253 4.17557 18.0872C4.14681 18.0378 4.13065 17.9768 4.12946 17.9113L4.13374 9.87737L1.63323 11.3136Z" fill="#BA0B22"/>
<path fill-rule="evenodd" clip-rule="evenodd" d="M8.63737 13.3049C8.63737 15.1616 10.1431 16.6675 11.9997 16.6675C13.8569 16.6675 15.3626 15.1616 15.3626 13.3049C15.3626 11.4481 13.8569 9.94226 11.9997 9.94226C10.1431 9.94226 8.63737 11.4481 8.63737 13.3049Z" fill="#FFC730"/>
</svg>
