<svg width="24" height="24" viewBox="0 0 24 24" fill="none" xmlns="http://www.w3.org/2000/svg">
<path fill-rule="evenodd" clip-rule="evenodd" d="M8.34037 5.63582C8.0231 5.98895 7.92707 6.19767 7.91018 6.5701C7.89087 6.9991 7.91541 7.06508 8.38733 7.85648C8.76278 8.48627 8.84175 8.53969 9.11743 8.35146C9.18384 8.30611 9.33192 8.20467 9.44634 8.12612C9.94953 7.78062 10.6229 7.51741 11.2699 7.41357C11.8299 7.32364 11.8359 7.30704 11.6188 6.432C11.4332 5.68296 11.3918 5.58884 11.133 5.32684C10.7819 4.97168 10.2838 4.83396 9.64962 4.91724C9.13538 4.98476 8.72104 5.21221 8.34037 5.63582ZM12.4014 6.38905C12.1672 7.29492 12.1765 7.32289 12.7411 7.41357C13.492 7.53418 14.2279 7.8493 14.8177 8.30281C15.0509 8.48224 15.2418 8.47534 15.3689 8.28322C16.1584 7.08962 16.2861 6.53 15.9041 5.93867C15.4063 5.16833 14.6278 4.80602 13.7132 4.91903C12.9665 5.01162 12.6722 5.34134 12.4014 6.38905ZM5.06728 10.7738C5.27444 11.2133 5.55146 11.3852 6.39808 11.5992C7.28539 11.8235 7.34312 11.8082 7.40774 11.3342C7.50751 10.6025 7.8131 9.86167 8.27454 9.23321C8.56951 8.83146 8.54753 8.78658 7.85064 8.36985C6.9943 7.85768 6.71803 7.78556 6.23832 7.94895C5.20623 8.30074 4.5958 9.77323 5.06728 10.7738ZM16.1604 8.36985C15.4665 8.78493 15.4409 8.83596 15.7306 9.22798C16.1879 9.8467 16.493 10.5868 16.6043 11.3479C16.6715 11.807 16.7264 11.8208 17.6051 11.6005C18.5852 11.3548 18.9073 11.1006 19.0484 10.4617C19.3562 9.06982 18.2185 7.62949 17.0414 7.92051C16.8495 7.96779 16.734 8.02675 16.1604 8.36985ZM5.33787 12.8668C4.14796 14.0625 5.55714 16.5831 7.10754 16.0318C7.2957 15.9648 8.32122 15.3643 8.38239 15.2852C8.48785 15.1487 8.45867 15.0095 8.27244 14.7594C7.82671 14.1611 7.50167 13.3694 7.40579 12.6487C7.34462 12.189 7.27253 12.1696 6.43369 12.3856C5.66574 12.5834 5.58437 12.6191 5.33787 12.8668ZM16.6062 12.6295C16.4948 13.4058 16.1949 14.1379 15.7272 14.7755C15.4382 15.1695 15.4609 15.2126 16.1852 15.6443C17.2684 16.2896 17.716 16.283 18.4215 15.6112C19.3721 14.7058 19.3239 13.0495 18.3343 12.6081C18.2197 12.5571 16.9666 12.2215 16.9059 12.2257C16.8981 12.2261 16.8571 12.2417 16.8149 12.2601C16.6882 12.3153 16.6388 12.4028 16.6062 12.6295ZM8.14606 16.5434C7.73486 17.2592 7.81923 17.8386 8.42412 18.4507C9.34059 19.3784 10.9376 19.3093 11.3979 18.3221C11.4643 18.1793 11.7687 17.0149 11.7686 16.9039C11.7683 16.7346 11.6441 16.6468 11.3357 16.5976C10.5592 16.4734 9.84169 16.1779 9.24817 15.7375C9.02619 15.5729 8.88407 15.5317 8.75828 15.5955C8.70444 15.6229 8.43759 16.036 8.14606 16.5434ZM12.716 16.5893C12.1832 16.6682 12.1723 16.7014 12.3932 17.5755C12.5806 18.3168 12.6313 18.431 12.8844 18.6821C13.8978 19.6871 16.107 18.7708 16.1104 17.3439C16.1113 16.9844 15.9747 16.6809 15.405 15.7764C15.2412 15.5162 15.0822 15.4939 14.8204 15.6945C14.2318 16.1458 13.4415 16.4819 12.716 16.5893Z" fill="#FF7F31"/>
<path d="M12 0.629761C9.0805 0.629761 6.6621 2.79228 6.26067 5.60154C7.78033 4.22165 9.79333 3.38098 12 3.38098C14.2067 3.38098 16.2197 4.22165 17.7393 5.60154C17.3379 2.79228 14.9195 0.629761 12 0.629761Z" fill="#37389A"/>
<path d="M5.60973 6.25945C4.25451 7.78411 3.43022 9.79598 3.43022 12C3.43022 14.2039 4.25451 16.2158 5.60973 17.7405C2.79651 17.3426 0.629803 14.9223 0.629803 12C0.629803 9.07762 2.79651 6.65735 5.60973 6.25945Z" fill="#37389A"/>
<path d="M23.3702 12C23.3702 9.07762 21.2035 6.65735 18.3903 6.25945C19.7456 7.78411 20.5699 9.79598 20.5699 12C20.5699 14.2039 19.7456 16.2158 18.3903 17.7405C21.2035 17.3426 23.3702 14.9223 23.3702 12Z" fill="#37389A"/>
<path fill-rule="evenodd" clip-rule="evenodd" d="M11.6301 7.74906C8.95739 7.94865 7.13055 10.6629 7.92242 13.2578C8.98384 16.7353 13.6909 17.3567 15.6071 14.2722C17.4632 11.2844 15.1477 7.48627 11.6301 7.74906ZM11.6629 14.2867C11.6854 14.3456 11.6796 15.3312 11.6566 15.3455C11.5898 15.3868 10.7994 14.3397 10.8434 14.2681C10.868 14.2283 11.6474 14.246 11.6629 14.2867ZM14.7068 14.2741C14.7669 14.3714 13.9989 14.9688 13.5052 15.2089C13.1189 15.3966 13.1011 15.3899 13.2891 15.1283C13.4667 14.8808 13.6561 14.5689 13.7404 14.3843L13.802 14.2494H14.2468C14.5308 14.2494 14.6971 14.2584 14.7068 14.2741ZM10.0638 14.2494H9.68024C9.37106 14.2494 9.29655 14.2557 9.29655 14.2817C9.29655 14.4323 10.4488 15.2882 10.6514 15.2882C10.6827 15.2882 10.6496 15.2289 10.4608 14.9456C10.3492 14.7781 10.2141 14.553 10.1608 14.4453L10.0638 14.2494ZM12.6775 14.2494H12.3372V14.7326C12.3372 15.1103 12.3436 15.2132 12.3667 15.2031C12.4561 15.1644 13.0591 14.316 13.0304 14.2694C13.0236 14.2584 12.8648 14.2494 12.6775 14.2494ZM11.6657 12.3664C11.6728 12.3956 11.6757 12.6798 11.6721 12.998L11.6655 13.5765L10.5004 13.5891L10.4406 13.3924C10.3317 13.0351 10.2168 12.3926 10.2516 12.3363C10.2602 12.3222 10.5362 12.3133 10.9592 12.3133H11.6527L11.6657 12.3664ZM9.30672 13.5883C9.57332 13.5883 9.79139 13.5804 9.79139 13.5706C9.79139 13.5608 9.76001 13.4288 9.72182 13.2772C9.65915 13.029 9.59085 12.6278 9.57388 12.4078L9.56752 12.3251L9.0356 12.3188C8.74312 12.3153 8.49647 12.3197 8.48756 12.3286C8.41997 12.3965 8.57229 13.0451 8.74327 13.4171L8.82204 13.5883H9.30672ZM13.3683 13.5883L13.4437 13.33C13.5407 12.9973 13.606 12.6721 13.6149 12.4786L13.6219 12.3251L12.9956 12.3188C12.6512 12.3154 12.3621 12.3198 12.3532 12.3286C12.3445 12.3375 12.3372 12.6245 12.3372 12.9665V13.5883H13.3683ZM15.1846 13.5883L15.2692 13.3858C15.3998 13.0735 15.557 12.432 15.5249 12.3428C15.513 12.3098 14.329 12.2983 14.3095 12.331C14.3037 12.3408 14.2917 12.4177 14.2828 12.5022C14.2546 12.7699 14.1751 13.2249 14.1275 13.3916C14.1021 13.4802 14.0815 13.5606 14.0815 13.5704C14.0815 13.5804 14.3297 13.5883 14.6331 13.5883H15.1846ZM11.6629 10.3438C11.6707 10.3643 11.6772 10.6556 11.6772 10.9912C11.6772 11.3266 11.6707 11.6179 11.6629 11.6384C11.646 11.6828 10.2785 11.6964 10.2513 11.6526C10.1947 11.5608 10.4621 10.383 10.5527 10.3252C10.6144 10.286 11.6474 10.3032 11.6629 10.3438ZM9.33289 10.3064H8.87268L8.78102 10.4894C8.61739 10.8161 8.4324 11.5162 8.47823 11.6359C8.49252 11.6733 8.53989 11.6761 9.02994 11.6703L9.56609 11.6641L9.59355 11.4162C9.62621 11.1207 9.67982 10.8487 9.75943 10.5734C9.79154 10.4623 9.81232 10.3568 9.8054 10.3389C9.7955 10.3129 9.70188 10.3064 9.33289 10.3064ZM13.3557 10.4009C13.4617 10.6182 13.6622 11.5436 13.6245 11.6421C13.6132 11.6714 13.5163 11.6757 12.9802 11.6703L12.349 11.6641L12.3428 11.0151C12.3392 10.6581 12.3416 10.3524 12.348 10.3358C12.357 10.3122 12.4654 10.3068 12.8375 10.3119L13.3154 10.3183L13.3557 10.4009ZM15.5311 11.6641L15.5235 11.5696C15.5003 11.2853 15.3537 10.7697 15.2179 10.4951L15.1305 10.3183L14.0525 10.3055L14.0654 10.3708C14.0724 10.4068 14.1057 10.5425 14.1391 10.6724C14.1951 10.8895 14.2426 11.1612 14.288 11.5224L14.3057 11.6641H15.5311ZM11.6772 9.12532C11.6772 9.38329 11.6707 9.61108 11.6629 9.63162C11.6465 9.67426 10.9145 9.68886 10.8886 9.64693C10.8501 9.58473 11.597 8.60683 11.6553 8.64294C11.6676 8.65046 11.6772 8.86197 11.6772 9.12532ZM14.2006 9.66889C14.4785 9.66889 14.6263 9.66024 14.6367 9.64323C14.6905 9.55611 13.9206 8.95986 13.5267 8.78348L13.5112 8.77653C13.2963 8.68026 13.1931 8.63405 13.175 8.65653C13.1582 8.67727 13.2138 8.75652 13.3208 8.90891L13.3291 8.92076C13.4309 9.06595 13.5742 9.29376 13.6474 9.42692L13.7804 9.66889H14.2006ZM10.0973 9.66889L10.183 9.49775C10.2608 9.34276 10.5517 8.88549 10.6313 8.79353C10.6492 8.773 10.6636 8.74382 10.6636 8.72852C10.6636 8.68601 10.6469 8.69225 10.3642 8.84028C9.96776 9.04783 9.31153 9.5741 9.35707 9.64791C9.36413 9.65953 9.53358 9.66889 9.73369 9.66889H10.0973ZM12.5101 8.93634C12.7159 9.1868 13.004 9.62439 12.9793 9.64905C12.9676 9.6608 12.8209 9.66746 12.6535 9.66378L12.349 9.65712L12.342 9.17328C12.3382 8.91401 12.3365 8.80404 12.3664 8.79469C12.3884 8.78781 12.4275 8.83551 12.4953 8.91833L12.5101 8.93634Z" fill="#37389A"/>
<path d="M17.7393 18.3984C17.3379 21.2077 14.9195 23.3702 12 23.3702C9.0805 23.3702 6.6621 21.2077 6.26067 18.3984C7.78033 19.7784 9.79333 20.619 12 20.619C14.2067 20.619 16.2197 19.7784 17.7393 18.3984Z" fill="#37389A"/>
</svg>
