<svg width="24" height="24" viewBox="0 0 24 24" fill="none" xmlns="http://www.w3.org/2000/svg">
<path fill-rule="evenodd" clip-rule="evenodd" d="M23.5038 3.72035C21.693 4.45446 20.0285 5.42262 18.7438 7.00003C15.955 9.96404 14.0273 14.0951 12.9289 19.3351C12.9069 19.441 12.6766 19.2731 12.6487 19.3788C10.2767 18.3415 8.53867 15.0578 7.6817 11.5165C7.40083 10.356 7.08379 9.12229 6.59578 7.96451C8.50642 7.43724 10.532 8.63934 12.6963 11.9284C13.2205 10.1136 16.795 4.81243 16.795 4.81243L16.8329 4.67199C15.0989 3.11859 12.8105 2.17383 10.3021 2.17383C4.88741 2.17383 0.496201 6.5741 0.496201 12C0.496201 17.4259 4.88741 21.8261 10.3021 21.8261C16.9121 21.8261 19.3397 17.0034 21.0361 11.7905C21.8586 9.10055 22.5235 6.21293 23.5038 3.72035Z" fill="#209B1C"/>
</svg>
