<svg width="24" height="24" viewBox="0 0 24 24" fill="none" xmlns="http://www.w3.org/2000/svg">
<path fill-rule="evenodd" clip-rule="evenodd" d="M15.6926 22.5824C15.6926 22.4558 15.6424 22.3343 15.5529 22.2447C15.4635 22.1551 15.3421 22.1048 15.2156 22.1048C13.9213 22.1048 10.3542 22.1048 9.05992 22.1048C8.93342 22.1048 8.81209 22.1551 8.72261 22.2447C8.63314 22.3343 8.5829 22.4558 8.5829 22.5824C8.5829 22.7633 8.5829 22.9692 8.5829 23.1501C8.5829 23.2767 8.63314 23.3982 8.72261 23.4878C8.81209 23.5774 8.93342 23.6278 9.05992 23.6277C10.3542 23.6277 13.9213 23.6277 15.2156 23.6277C15.3421 23.6278 15.4635 23.5774 15.5529 23.4878C15.6424 23.3982 15.6926 23.2767 15.6926 23.1501C15.6926 22.9692 15.6926 22.7633 15.6926 22.5824ZM12.3535 15.3882C12.3535 15.3882 14.5989 12.858 16.7271 11.6625C19.2382 10.2519 23.0222 10.5795 23.0222 10.5795C23.0222 10.5795 20.0127 11.4866 18.1977 14.1472C16.5715 16.5311 15.5627 21.4619 15.5627 21.4619C15.5627 21.4619 14.0435 17.7602 12.3535 15.3882ZM14.6857 21.4089H8.59712C8.59712 21.4089 7.74939 20.2906 7.43726 18.7514C7.09927 17.0846 6.54904 15.1051 5.69827 14.0148C4.08777 11.9508 0.977898 10.6672 0.977898 10.6672C0.977898 10.6672 6.83384 9.69762 10.4083 14.204C12.1423 16.3901 14.6836 21.4043 14.6857 21.4089Z" fill="#002263"/>
<path fill-rule="evenodd" clip-rule="evenodd" d="M12 7.52959C13.6085 7.52959 14.9143 8.85681 14.9143 10.4916C14.9143 12.1263 13.6085 13.4535 12 13.4535C10.3915 13.4535 9.0856 12.1263 9.0856 10.4916C9.0856 8.85681 10.3915 7.52959 12 7.52959ZM15.4542 9.34458C16.5728 8.68036 18.9062 7.34721 20.1656 7.00534C20.2715 6.97659 20.3779 6.96304 20.4826 6.9633L20.49 6.96336C21.0203 6.96816 21.5044 7.32854 21.6483 7.87248C21.8212 8.5263 21.4376 9.19933 20.7923 9.37451C19.6525 9.6839 17.3501 9.73575 15.962 9.73644H15.9139C15.786 9.73639 15.6664 9.73596 15.5567 9.73521C15.5295 9.60223 15.4951 9.47186 15.4542 9.34458ZM8.44321 9.73521C7.14691 9.7438 4.46732 9.71644 3.20767 9.37451C2.56228 9.19933 2.17874 8.5263 2.35166 7.87248C2.52458 7.21871 3.18892 6.83016 3.83431 7.00534C5.0937 7.34721 7.42708 8.68036 8.54573 9.34458C8.50482 9.47186 8.47048 9.60223 8.44321 9.73521ZM8.87019 8.61624C7.63928 8.20192 5.11265 7.30379 4.02892 6.57011C3.47347 6.19405 3.32382 5.43183 3.69504 4.86906C4.0663 4.3063 4.81868 4.15475 5.37419 4.53082C6.45771 5.26439 8.24286 7.28507 9.09186 8.2789C9.01214 8.38692 8.93806 8.49953 8.87019 8.61624ZM14.8863 8.24972C15.7321 7.25488 17.5148 5.22705 18.5976 4.49028C19.1522 4.11293 19.9049 4.26272 20.2775 4.82458C20.65 5.38649 20.5021 6.14903 19.9475 6.52643C18.8654 7.26272 16.3407 8.16683 15.1108 8.58407C15.0419 8.46832 14.9669 8.35673 14.8863 8.24972ZM9.63757 7.68701C8.60507 6.88969 6.50558 5.21152 5.71613 4.16216C5.31111 3.62383 5.41373 2.85366 5.94512 2.4434C6.47651 2.03309 7.23674 2.13706 7.6417 2.67539C8.43084 3.72433 9.47092 6.21842 9.95634 7.43891C9.84556 7.51567 9.73914 7.59856 9.63757 7.68701ZM14.0264 7.42707C14.5105 6.21117 15.5564 3.70512 16.3487 2.65331C16.754 2.11524 17.5143 2.01181 18.0454 2.42244C18.5766 2.83307 18.6787 3.60329 18.2734 4.14136C17.4813 5.1928 15.3723 6.87523 14.3421 7.66951C14.2414 7.58309 14.1361 7.50212 14.0264 7.42707ZM10.6479 7.06353C9.92159 5.97129 8.46743 3.70347 8.05246 2.4545C7.83937 1.813 8.18041 1.11687 8.81363 0.900995C9.44686 0.685064 10.134 1.03057 10.3471 1.67207C10.762 2.92077 10.9573 5.61688 11.0308 6.9321C10.9001 6.9688 10.7723 7.01281 10.6479 7.06353ZM12.9685 6.93188C13.0417 5.61666 13.2366 2.92056 13.6513 1.6718C13.8643 1.03025 14.5513 0.684637 15.1846 0.900409C15.8178 1.11623 16.159 1.81225 15.9461 2.45381C15.5313 3.70288 14.0776 5.97091 13.3514 7.06332C13.227 7.01259 13.0992 6.96864 12.9685 6.93188ZM11.7977 6.80466C11.4532 5.53436 10.7894 2.91618 10.7894 1.59872C10.7894 0.921853 11.3318 0.372314 12 0.372314C12.6681 0.372314 13.2105 0.921853 13.2105 1.59872C13.2105 2.91618 12.5468 5.53436 12.2023 6.80466C12.1353 6.80093 12.0678 6.79901 12 6.79901C11.9321 6.79901 11.8646 6.80093 11.7977 6.80466Z" fill="#0BBBB9"/>
</svg>
