<svg width="24" height="24" viewBox="0 0 24 24" fill="none" xmlns="http://www.w3.org/2000/svg">
<path fill-rule="evenodd" clip-rule="evenodd" d="M22.0635 23.588H12.3665V14.1044C12.4963 12.576 12.7262 11.1684 13.2901 10.1636C13.6253 10.3517 14.2236 11.1835 14.4021 12.7929C14.8395 12.003 15.3722 11.1174 16.3388 10.5558C16.4039 12.299 16.3001 12.9623 15.8116 14.1759C15.1258 15.8796 13.2384 16.2763 13.2384 16.2763V22.7161H21.1916C21.1916 17.4749 21.2905 12.2327 21.1908 6.99238C21.1891 6.9398 21.1861 6.88741 21.1818 6.83498C21.1577 6.58192 21.0979 6.33413 20.9987 6.09981C20.7549 5.52321 20.2888 5.05322 19.7164 4.80258L19.7157 4.80224C19.8884 4.5376 20.065 4.29942 20.2397 4.08595C20.5525 4.245 20.8398 4.45339 21.0882 4.70176C21.4392 5.05269 21.7103 5.48154 21.8752 5.94975C22.0006 6.30564 22.0611 6.67931 22.0635 7.05626V23.588ZM11.6334 23.588H1.9364V7.05626C1.93877 6.67931 1.99931 6.30564 2.12466 5.94975C2.2896 5.48154 2.56071 5.05269 2.91168 4.70176C3.16005 4.45339 3.44743 4.245 3.76022 4.08595C3.9349 4.29942 4.11148 4.5376 4.28424 4.80224L4.28346 4.80258C3.71111 5.05322 3.24503 5.52321 3.00115 6.09981C2.90202 6.33413 2.8422 6.58192 2.81811 6.83498C2.81376 6.88741 2.81082 6.9398 2.80913 6.99238C2.70942 12.2327 2.80831 17.4749 2.80831 22.7161H10.7615V16.2763C10.7615 16.2763 8.87412 15.8796 8.1883 14.1759C7.69977 12.9623 7.596 12.299 7.66114 10.5558C8.62768 11.1174 9.16039 12.003 9.59784 12.7929C9.7763 11.1835 10.3746 10.3517 10.7098 10.1636C11.2737 11.1684 11.5036 12.576 11.6334 14.1044V23.588ZM15.6645 1.00513C15.6565 1.08446 15.6456 1.16355 15.6317 1.2423C15.6123 1.35262 15.5875 1.46189 15.5576 1.5698C15.3116 2.45803 14.7399 3.21362 14.1197 3.87766C14.0045 4.00093 13.8869 4.12183 13.7681 4.24157C13.6562 4.35431 13.5432 4.46599 13.4304 4.57772C13.6148 5.11879 13.8276 5.65005 14.0663 6.16939C14.1637 6.38106 14.2656 6.59047 14.3712 6.79799C14.6708 6.33457 15.002 5.89152 15.3604 5.4727C15.6335 5.15355 15.923 4.84777 16.228 4.55846C15.9969 4.11961 15.8644 3.63354 15.78 3.14602C15.658 2.4404 15.6343 1.72045 15.6645 1.00513ZM8.33542 1.00513C8.34343 1.08446 8.3543 1.16355 8.36815 1.2423C8.38756 1.35262 8.41243 1.46189 8.44232 1.5698C8.68827 2.45803 9.25995 3.21362 9.8802 3.87766C9.99536 4.00093 10.113 4.12183 10.2318 4.24157C10.3437 4.35431 10.4567 4.46599 10.5695 4.57772C10.3851 5.11879 10.1723 5.65005 9.93355 6.16939C9.83622 6.38106 9.73434 6.59047 9.62869 6.79799C9.32909 6.33457 8.99787 5.89152 8.63951 5.4727C8.36637 5.15355 8.07691 4.84777 7.77185 4.55846C8.00299 4.11961 8.13552 3.63354 8.21988 3.14602C8.34189 2.4404 8.3656 1.72045 8.33542 1.00513Z" fill="#B27D53"/>
<path fill-rule="evenodd" clip-rule="evenodd" d="M21.165 2.61139C19.6333 3.71525 17.8416 6.12759 17.6305 8.66605C17.4585 10.7337 17.1052 11.6371 16.8414 12.024C16.9583 11.3269 16.9576 10.3789 16.8267 9.61463C16.5339 9.74418 16.0481 10.0427 15.6033 10.485C15.548 10.3041 15.0941 9.37495 13.5988 9.787C13.6707 9.55548 13.7501 9.32648 13.8383 9.10046C14.0495 8.55983 14.3051 8.03668 14.5991 7.53588C14.6011 7.53264 14.603 7.52941 14.6048 7.52613C14.9214 6.98815 15.2822 6.4761 15.6798 5.99597C16.018 5.58759 16.3838 5.20118 16.7754 4.84316C16.7871 4.83408 16.7982 4.82399 16.8085 4.81298C17.0938 4.55428 17.3928 4.31064 17.7045 4.08457C18.5773 3.45162 19.5629 2.94687 20.619 2.70806C20.7996 2.66726 20.9817 2.63549 21.165 2.61139ZM2.83503 2.61139C4.36677 3.71525 6.15843 6.12759 6.36957 8.66605C6.54151 10.7337 6.8948 11.6371 7.15862 12.024C7.04173 11.3269 7.04245 10.3789 7.17335 9.61463C7.46609 9.74418 7.95192 10.0427 8.39676 10.485C8.45204 10.3041 8.90596 9.37495 10.4012 9.787C10.3293 9.55548 10.25 9.32648 10.1617 9.10046C9.95057 8.55983 9.69496 8.03668 9.40091 7.53588C9.39893 7.53264 9.39705 7.52941 9.39521 7.52613C9.07867 6.98815 8.7178 6.4761 8.32018 5.99597C7.98205 5.58759 7.61625 5.20118 7.22463 4.84316C7.21289 4.83408 7.20184 4.82399 7.1915 4.81298C6.9062 4.55428 6.60727 4.31064 6.29556 4.08457C5.42273 3.45162 4.43717 2.94687 3.38106 2.70806C3.20044 2.66726 3.01836 2.63549 2.83503 2.61139ZM12.926 10.0137C12.7583 9.8911 12.493 9.67083 11.9939 9.67238C11.4947 9.67397 11.2358 9.8954 11.074 10.0137C10.9495 9.22957 10.4344 8.28896 9.98191 7.37954C10.1851 6.99544 10.7925 5.65992 10.9546 5.15429C11.3851 3.81167 11.7607 2.16588 12 1.27848C12.23 2.16834 12.6059 3.87087 13.0454 5.15429C13.2174 5.65664 13.8149 6.99544 14.0181 7.37954C13.5656 8.28896 13.0506 9.22957 12.926 10.0137ZM16.3121 1.97029C16.4279 1.05087 17.4666 0.983032 18.1071 1.19751C19.0274 1.50575 19.3449 2.36549 18.6056 2.84291C18.2489 3.07332 17.8656 3.26129 17.5187 3.50338C17.2273 3.70675 16.9462 3.92471 16.6759 4.15541L16.6716 4.14589C16.3603 3.14517 16.2474 2.48368 16.3121 1.97029ZM7.68796 1.97029C7.57212 1.05087 6.53345 0.983032 5.89297 1.19751C4.97259 1.50575 4.65512 2.36549 5.39439 2.84291C5.75116 3.07332 6.13443 3.26129 6.48135 3.50338C6.77274 3.70675 7.0538 3.92471 7.32409 4.15541L7.32844 4.14589C7.63972 3.14517 7.75266 2.48368 7.68796 1.97029ZM12.704 1.54124C12.5974 0.814957 13.3575 0.341151 13.9012 0.420674C14.2586 0.472917 15.2284 0.720563 14.9558 1.55239C14.8495 1.87671 14.6914 2.18326 14.5058 2.4693C14.1808 2.97 13.7734 3.4087 13.3555 3.8322C13.3145 3.87333 13.2733 3.91437 13.2322 3.95537C13.0706 3.41058 12.9373 2.8575 12.8311 2.29924C12.7832 2.04744 12.7413 1.79473 12.704 1.54124ZM11.296 1.54124C11.4026 0.814957 10.6425 0.341151 10.0988 0.420674C9.74145 0.472917 8.77163 0.720563 9.04424 1.55239C9.15051 1.87671 9.30864 2.18326 9.49424 2.4693C9.81919 2.97 10.2267 3.4087 10.6445 3.8322C10.6855 3.87333 10.7267 3.91437 10.7678 3.95537C10.9294 3.41058 11.0627 2.8575 11.1689 2.29924C11.2168 2.04744 11.2588 1.79473 11.296 1.54124Z" fill="black"/>
</svg>
