<svg width="24" height="24" viewBox="0 0 24 24" fill="none" xmlns="http://www.w3.org/2000/svg">
<path fill-rule="evenodd" clip-rule="evenodd" d="M1.8108 23.6448H22.1892V23.4299H1.8108V23.6448ZM1.8108 23.3344H22.1892V22.8229H1.8108V23.3344ZM13.9753 5.95953L12.5181 15.1783C12.5181 15.1783 12.4177 16.8054 13.2587 17.7261C13.6653 18.1713 14.1633 18.2949 14.6256 18.5606C15.0336 18.7951 15.4981 19.2208 15.5698 19.7253C15.6825 20.5192 14.8421 20.6254 14.3952 20.4559C13.9198 20.2756 13.5589 20.2101 13.0837 20.2302C12.0263 20.2748 11.7879 21.0391 11.7914 21.318C11.8033 22.2712 12.7035 22.6229 12.7035 22.6229C12.7035 22.6229 11.8164 22.6278 11.1285 22.634C7.08022 22.6706 5.69298 19.8934 5.1759 16.6883L3.44495 5.95953H13.9753ZM20.9331 22.6126H13.8547C13.8547 22.6126 12.3447 22.5835 12.3631 21.5058C12.378 20.6324 13.3389 20.3512 14.4646 20.7273C14.7699 20.8293 15.2594 20.8311 15.8619 20.9098C16.4725 20.9895 17.2013 20.8814 18.1197 21.2851C18.1918 21.3167 18.3568 21.2834 18.5515 21.2895C18.728 21.2951 18.9364 21.3426 18.9836 21.3264C19.2485 21.2357 19.3839 21.0948 19.6427 21.1005C19.7435 21.1028 19.8322 21.1877 19.8917 21.2603C19.9668 21.1988 20.0136 21.1523 20.1077 21.1519C20.3276 21.1509 20.4133 21.4767 20.5501 21.6802C20.9236 21.7642 21.199 22.2216 21.2595 22.4589C21.2718 22.5073 21.1468 22.5741 21.1085 22.5422C20.9325 22.3961 20.213 21.4489 20.104 21.4496C20.0558 21.45 20.1788 21.7027 20.204 21.7875C20.0118 21.6643 19.6669 21.1848 19.5285 21.3253C19.3582 21.4983 19.9525 21.9164 19.704 22.0011C19.5697 22.0469 19.2799 21.7746 18.9301 21.6627C18.6405 21.5701 18.0518 21.6238 17.9698 21.5734C17.303 21.163 15.6329 21.2212 14.404 21.1269C14.1951 21.1108 13.9484 20.9869 13.6446 20.9606C13.2359 20.9254 12.813 21.0702 12.8175 21.5481C12.8197 21.7846 13.0377 22.237 13.6779 22.2563C15.2545 22.3039 17.9191 22.2345 17.9191 22.2345L17.5805 21.9865C17.5805 21.9865 14.544 21.9671 13.8547 21.937C13.5343 21.923 13.4506 21.5739 13.4848 21.47C13.5613 21.2368 13.9285 21.3024 13.9285 21.3024C13.9285 21.3024 14.3226 21.3511 14.5246 21.3617C15.1554 21.3945 16.8897 21.5325 17.6959 21.7721C17.9267 21.8408 18.3372 21.8133 18.6204 21.865C19.1383 21.9595 19.3514 22.0745 19.7397 22.3755L20.0458 22.3736C20.0458 22.3736 19.9989 22.0986 20.0395 22.0353C20.08 21.9719 20.1474 21.9899 20.22 22.017C20.2926 22.044 20.3664 22.143 20.4254 22.1596C20.4844 22.1762 20.5052 22.0954 20.5705 22.1084C20.706 22.1355 20.8132 22.3158 20.8898 22.4377C20.9241 22.4922 20.933 22.6109 20.9331 22.6126ZM10.5763 20.9777C10.4892 21.2641 10.6058 21.4484 10.8453 21.5517L9.47895 21.9505C9.29724 22.0035 9.10699 21.8993 9.05396 21.7176C9.01 21.567 9.09617 21.4098 9.24629 21.3659L10.5763 20.9777ZM11.7753 20.6342C11.7449 20.8872 11.7028 21.1093 11.6673 21.3118L11.1107 21.4743C10.9473 21.4421 10.7774 21.3631 10.7526 21.1756C10.7362 21.0518 10.8115 20.9539 10.9091 20.8806L11.7753 20.6342ZM10.5844 20.2014C10.4066 20.4447 10.4919 20.667 10.7923 20.7932L9.4296 21.191C9.2479 21.244 9.0576 21.1397 9.00457 20.958C8.96061 20.8074 9.04678 20.6502 9.1969 20.6064L10.5844 20.2014ZM15.7279 11.4816C15.0087 11.8171 13.9823 12.8692 13.5652 13.6986C13.5356 13.7575 13.4678 13.8869 13.4146 13.9862C13.3124 14.1769 13.1212 14.6248 13.0747 14.7827C12.953 15.196 12.924 15.3142 12.8783 15.5808C12.741 16.3827 12.8607 17.0191 13.2267 17.4329C13.4969 17.7383 13.7162 17.8654 14.6669 18.2672C14.7882 18.3185 14.8806 18.3646 15.0864 18.4765C15.8409 18.887 16.1523 19.7504 15.847 20.5252C15.798 20.6493 15.7728 20.6546 16.4127 20.708C17.1444 20.7689 17.7035 20.8658 17.9023 20.9647C17.8189 19.9071 17.6093 17.0543 17.5387 16.396C17.5291 16.3066 17.4823 16.295 17.4335 16.2942C17.2741 16.2916 16.9888 16.2877 16.8188 16.1976C16.8896 16.1084 16.9591 16.048 17.0751 15.9766L16.7583 15.9636C16.2928 15.9176 16.1845 15.7053 16.6159 15.4841C16.6159 15.4841 16.015 15.5567 16.0159 15.0438C16.016 14.9459 16.0295 14.9097 16.1163 14.9318C16.1981 14.9527 16.3885 14.9491 16.3876 14.9266C16.3856 14.8729 16.2744 14.8466 16.217 14.8238C16.0832 14.771 16.0216 14.6722 15.9819 14.5533C15.9425 14.4354 15.9916 14.4066 16.1651 14.3281C16.397 14.2232 16.405 14.1279 16.2025 14.1279C15.7811 14.1279 15.7875 13.4746 16.1781 13.1351C16.3735 12.9652 16.386 12.9077 16.2523 12.8641C16.0528 12.799 15.7753 12.4624 15.7894 12.152C15.8097 11.7 16.8373 11.4626 17.0041 11.8762C17.0481 11.9854 17.2415 12.007 17.2363 11.87C17.2336 11.8 17.3635 11.6781 17.5132 11.6148C17.5795 11.5868 17.4032 11.4711 17.2749 11.4079C17.0611 11.3026 16.6019 11.2697 16.2637 11.3325C15.9364 11.3933 15.8712 11.4148 15.7279 11.4816ZM11.8151 19.8422C11.8204 20.0842 11.8093 20.3026 11.7897 20.5021L11.0854 20.7077C10.7155 20.6646 10.5863 20.4123 10.7909 20.1411L11.8151 19.8422ZM12.0496 20.5034C12.0496 20.5034 12.1612 18.611 11.5422 17.2989C10.8772 15.8894 9.36182 14.3873 8.49157 13.395C8.40205 13.2929 8.27648 13.01 8.29487 12.795C8.37449 11.8649 9.6935 12.0804 9.6935 12.0804C9.6935 12.0804 9.72854 12.3825 9.78433 12.5221C10.2195 13.6108 11.566 14.9637 12.203 16.2208C12.8529 17.5034 13.5417 20.0966 13.5417 20.0966C12.809 20.0091 12.3054 20.1389 12.0496 20.5034ZM10.4607 19.4612C10.3624 19.8061 10.519 19.9461 10.7058 20.0422L9.34663 20.4389C9.16498 20.4919 8.97468 20.3876 8.92165 20.2059C8.87769 20.0553 8.96386 19.8981 9.11398 19.8542L10.4607 19.4612ZM11.7494 19.0851C11.7834 19.3131 11.8027 19.5238 11.8112 19.7195L11.0699 19.9359C10.9074 19.9319 10.7778 19.8795 10.7084 19.7868C10.627 19.6779 10.6284 19.5089 10.7745 19.3696L11.7494 19.0851ZM10.2985 18.7369C10.1484 18.9552 10.2632 19.2154 10.5417 19.3184L9.15023 19.7246C9.06299 19.75 8.9692 19.7398 8.88948 19.6961C8.80981 19.6524 8.75071 19.5788 8.72524 19.4916L8.72509 19.4911C8.68128 19.341 8.76745 19.1838 8.91757 19.1399L10.2985 18.7369ZM11.6026 18.3562C11.6573 18.5741 11.6996 18.7787 11.7315 18.9711L10.8322 19.2336C10.4728 19.2024 10.3913 18.9851 10.5116 18.6747L11.6026 18.3562ZM10.0488 18.0358C9.94062 18.4417 10.1317 18.5357 10.351 18.6001L8.92941 19.015C8.74775 19.068 8.55746 18.9638 8.50442 18.7821C8.46046 18.6314 8.54664 18.4742 8.69676 18.4304L10.0488 18.0358ZM11.3933 17.6434C11.4635 17.8538 11.5231 18.0535 11.5735 18.2433L10.5523 18.5413C10.3805 18.4976 10.2679 18.3462 10.2417 18.2504C10.2065 18.1216 10.256 18.0242 10.319 17.9569L11.3933 17.6434ZM9.75493 17.3706C9.63577 17.6089 9.746 17.8647 10.0238 17.9216L8.6168 18.3323C8.53004 18.3576 8.43679 18.3475 8.35751 18.304C8.27827 18.2606 8.21951 18.1874 8.19419 18.1006C8.17294 18.0278 8.18167 17.9501 8.21825 17.8844C8.25479 17.8187 8.31622 17.7704 8.38866 17.7502L9.75493 17.3706ZM11.1002 16.9583C11.2017 17.1464 11.2884 17.338 11.3558 17.5329L10.268 17.8503C10.126 17.8348 9.95794 17.7686 9.91597 17.5497C9.89675 17.4638 9.94479 17.3684 10.007 17.295L11.1002 16.9583ZM9.35687 16.7279C9.26585 17.0325 9.42315 17.1998 9.64746 17.2575L8.23184 17.6707C8.05877 17.7212 7.8773 17.6231 7.82476 17.4506C7.80346 17.3807 7.81112 17.3056 7.84591 17.2419C7.88065 17.1781 7.9396 17.131 8.00947 17.1111L9.35687 16.7279ZM10.6874 16.3095C10.8159 16.4864 10.9349 16.667 11.0404 16.8509L9.90263 17.183C9.64838 17.1611 9.4673 16.9447 9.56784 16.6632L10.6874 16.3095ZM8.80015 16.1178C8.88298 16.4291 8.98011 16.5876 9.1052 16.6418L7.78172 17.0281C7.69914 17.0522 7.61039 17.0425 7.53495 17.0012C7.45955 16.9598 7.4036 16.8902 7.37954 16.8076C7.35984 16.7401 7.3677 16.6679 7.40132 16.6066C7.43495 16.5452 7.49157 16.4998 7.55877 16.4802L8.80015 16.1178ZM10.2081 15.7069C10.3469 15.8688 10.4818 16.0342 10.6087 16.203L9.41063 16.5527C9.19879 16.5109 8.98875 16.2745 9.13994 16.0186L10.2081 15.7069ZM8.24038 15.5174C8.26561 15.5295 8.28909 15.5426 8.30617 15.5558C8.4414 15.6604 8.2626 15.8514 8.65881 16.0148L7.25237 16.4253C7.07891 16.4759 6.8972 16.3763 6.84659 16.2029C6.82665 16.1346 6.83461 16.0614 6.86867 15.9993C6.90273 15.9371 6.96008 15.8911 7.02811 15.8712L8.24038 15.5174ZM16.5079 13.952C16.5968 13.935 16.5969 14.0684 16.5171 14.2724C16.431 14.4924 16.1431 14.513 16.1703 14.5575C16.2893 14.7523 16.6673 14.6751 16.7688 14.7081C16.8423 14.732 16.7292 14.99 16.4878 15.1484C16.3114 15.2642 16.3697 15.3186 16.6023 15.3352C16.7089 15.3429 16.8591 15.2371 17.0018 15.2385C17.0525 15.239 17.0413 15.5081 16.8958 15.6182C16.5552 15.876 16.8321 15.8653 17.2586 15.745C17.4968 15.6778 17.4539 15.7522 17.3627 15.9261C17.3076 16.0313 17.1956 16.0859 17.229 16.1186C17.2736 16.1623 17.6306 16.2185 17.8968 15.882C17.9463 15.8195 17.9595 15.7287 17.827 15.6298C17.3608 15.282 17.1707 14.8656 17.0145 14.2391C16.9621 14.0284 16.9339 13.1882 16.9765 12.9994C17.0029 12.882 16.9727 12.8856 16.6781 13.0345C15.9673 13.3938 15.846 14.0789 16.5079 13.952ZM18.4462 14.4247C17.4638 14.4334 17.2048 15.0855 17.9619 15.5455C18.0809 15.6177 18.0551 15.6398 18.0551 15.7396C18.0552 15.8814 18.1943 15.9686 18.3104 15.9787C18.5697 16.0013 18.7113 15.9068 18.759 15.5841C18.7823 15.426 18.8269 15.3434 18.9878 15.1273C19.0642 15.0247 19.099 14.9579 19.0786 14.9504C19.0406 14.9365 18.9409 14.9594 18.8619 15.093C18.5971 15.5414 17.9191 15.4379 17.7668 15.114C17.6609 14.8887 17.8494 14.5814 18.5291 14.5789C19.008 14.5772 19.0256 14.5965 19.0698 14.7581C19.1051 14.8872 19.1876 14.8347 19.3611 14.5726C19.647 14.1406 19.6095 14.0662 19.3176 14.2252C19.0411 14.3758 18.8008 14.4216 18.4462 14.4247ZM9.6626 15.1023C9.8117 15.2615 9.96167 15.4247 10.1082 15.5918L8.94887 15.9301C8.83727 15.9026 8.7314 15.8367 8.65168 15.7313C8.58463 15.6427 8.58924 15.4998 8.68768 15.3869L9.6626 15.1023ZM7.87604 14.862C7.79919 15.1495 7.88274 15.2775 8.1641 15.3685L6.75212 15.7807C6.6694 15.8048 6.58051 15.7951 6.50501 15.7537C6.42947 15.7123 6.37347 15.6426 6.34931 15.5599C6.32922 15.491 6.33757 15.4175 6.37241 15.3553C6.4072 15.2931 6.46552 15.2475 6.53427 15.2287L7.87604 14.862ZM9.0839 14.4901C9.22917 14.6449 9.38162 14.8042 9.5363 14.968L8.40913 15.297C8.11107 15.2363 8.01626 14.9917 8.15707 14.7767L9.0839 14.4901ZM7.31496 14.2576C7.29346 14.5794 7.50467 14.6841 7.72316 14.7233L6.27459 15.1461C6.08284 15.2021 5.88129 15.0959 5.81894 14.9061C5.81122 14.8826 5.80361 14.8594 5.79618 14.8368C5.7777 14.7805 5.78381 14.719 5.81302 14.6675C5.84223 14.616 5.89182 14.5792 5.94955 14.5661L7.31496 14.2576ZM18.2201 14.8383C18.4115 14.837 18.5786 14.8501 18.7567 15.035C18.7734 15.0524 18.7939 14.9939 18.8067 14.9667C18.8356 14.9054 18.8927 14.8404 18.8333 14.7985C18.7162 14.7157 18.3803 14.695 18.1234 14.7735C17.9702 14.8203 18.0377 14.8395 18.2201 14.8383ZM8.54562 13.8876C8.67114 14.0399 8.81253 14.1979 8.96367 14.3612L7.96284 14.6533C7.56906 14.6432 7.50011 14.3266 7.52971 14.1469L7.66648 14.0623L8.54562 13.8876ZM6.9054 13.6108C6.95537 13.8467 7.1004 13.9581 7.25392 14.0543L5.73781 14.4326C5.62161 14.4616 5.49997 14.4127 5.43612 14.3114C5.39487 14.2459 5.3464 14.1689 5.29963 14.0946C5.25882 14.0298 5.25441 13.9485 5.28798 13.8797C5.32156 13.8109 5.38832 13.7643 5.46455 13.7566L6.9054 13.6108ZM18.2064 13.9773C18.1577 14.0582 18.0861 14.1674 17.9679 14.2695C17.8862 14.3401 18.8159 14.2617 19.0544 14.1251C19.2218 14.0292 19.4065 14.0463 19.4538 14.0585C19.5232 14.0764 19.5113 13.9744 19.4482 13.7891C19.319 13.4105 19.0947 13.2967 18.7838 13.4043C18.5824 13.474 18.4101 13.6389 18.2064 13.9773ZM18.177 13.1844C18.0878 13.2663 17.9634 13.3892 17.8742 13.4515C17.5123 13.7039 17.3501 13.9538 17.4897 14.0919C17.7278 14.3274 18.1715 13.9318 18.1782 13.4581C18.1811 13.2586 18.3526 13.0655 18.8266 13.0091C18.9531 12.9941 18.9883 12.9452 18.849 12.9477C18.7076 12.9502 18.5736 12.9529 18.5513 12.9604C18.4073 13.0089 18.3187 13.0544 18.177 13.1844ZM8.13713 13.2985C8.21423 13.4462 8.31927 13.6007 8.44479 13.7618L7.46842 14.0007C7.26644 13.9013 6.98478 13.5843 7.22146 13.3756L7.22175 13.3736L8.13713 13.2985ZM18.6856 13.1999C18.816 13.1829 19.0075 13.1597 19.1401 13.2099C19.4277 13.3187 19.6295 13.5939 19.6386 13.7924C19.6435 13.8979 19.7081 13.9472 19.7384 13.8268C19.7586 13.7461 19.8449 13.5432 19.8491 13.3477C19.8499 13.3111 19.8451 13.2476 19.8141 13.2281C19.7812 13.2073 19.6435 13.2206 19.5811 13.2094C19.499 13.1945 19.3689 13.164 19.2999 13.1278C19.1423 13.045 18.8291 13.0706 18.6575 13.12C18.6182 13.1313 18.555 13.2169 18.6856 13.1999ZM6.85101 13.5152L5.33301 13.5575C5.19507 13.5613 5.07537 13.4632 5.05208 13.3272C5.04369 13.2784 5.03456 13.2251 5.02525 13.1706C5.00385 13.0458 5.04228 12.9182 5.12898 12.8259C5.21574 12.7336 5.34073 12.6874 5.46664 12.701C5.93049 12.7511 6.31142 12.7949 6.54363 12.8209C6.57862 13.1801 6.76377 13.4203 6.85101 13.5152ZM17.338 13.3474C17.4866 13.4946 17.7645 13.447 17.8748 13.3049C18.1711 12.9228 18.4091 12.8236 18.7764 12.822C18.9006 12.8215 18.844 12.7651 18.7313 12.6591C18.5813 12.5181 18.4868 12.505 18.3055 12.5152C18.1671 12.5229 18.1193 12.5142 18.1193 12.4724C18.1195 12.3031 17.8256 12.1988 17.6241 12.3234C17.2697 12.5423 17.1121 13.1237 17.338 13.3474ZM18.5563 12.7042C18.5681 12.7224 18.2573 12.8105 18.1316 12.8993C18.0791 12.9364 18.0486 12.9743 18.0001 13.0004C17.9897 13.006 17.8023 13.0025 17.7315 12.9209C17.6548 12.8324 17.6984 12.6292 17.8408 12.6312C17.9272 12.6324 17.8772 12.7037 17.8451 12.7844C17.8273 12.8294 17.8346 12.8878 17.8632 12.8965C18.1248 12.9761 18.0455 12.5629 17.8895 12.5364C17.7749 12.5169 17.552 12.6017 17.5389 12.7807C17.5328 12.8644 17.5424 12.9435 17.645 13.0225C17.7315 13.0892 17.8376 13.0708 17.9244 13.0639C17.8091 13.1838 17.6895 13.284 17.5526 13.2766C17.3705 13.2668 17.3479 12.9385 17.4655 12.704C17.5346 12.5662 17.7031 12.4109 17.8362 12.4174C18.0177 12.4263 17.9982 12.5462 18.081 12.6292C18.129 12.6775 18.4889 12.6005 18.5563 12.7042ZM8.12723 13.1542L7.00986 13.2017C6.70234 12.9762 6.68876 12.0934 6.84257 11.9794C7.16251 12.3551 7.61685 12.4919 8.08138 12.5636C8.06503 12.6405 8.05455 12.7254 8.05066 12.8189C8.04703 12.9069 8.05367 13.0645 8.12723 13.1542ZM17.1667 12.1827C17.0739 12.2684 17.0418 12.2639 16.937 12.1072C16.8267 11.9423 16.6832 11.8723 16.5511 11.8707C16.2459 11.8667 15.9866 12.1501 15.9649 12.1933C15.9464 12.23 16.0007 12.2433 16.0184 12.3099C16.0768 12.5304 16.3013 12.8393 16.6028 12.8561C16.8344 12.869 17.0334 12.7871 17.1903 12.5361C17.3439 12.2902 17.4959 12.1266 17.6603 12.0677C17.8916 11.9847 18.1118 12.0767 18.3186 12.2877C18.3515 12.3212 18.4522 12.3365 18.4842 12.3351C18.547 12.3323 18.6951 12.4418 18.7694 12.5314C18.9215 12.715 18.9905 12.7222 18.9542 12.6026C18.9272 12.5137 18.614 12.179 18.4386 12.1219C18.2797 12.0702 18.1048 11.7903 17.8392 11.7352C17.723 11.711 17.6256 11.7887 17.5293 11.8718C17.4055 11.9785 17.2026 12.1496 17.1667 12.1827ZM6.53359 12.6725C6.29895 12.6315 5.64383 12.5178 5.17784 12.4425C5.08959 12.4283 5.01069 12.3795 4.95849 12.307C4.90623 12.2345 4.88498 12.1442 4.89944 12.056C4.91186 11.9799 4.9252 11.8985 4.93796 11.8204C4.9532 11.7272 5.0106 11.6462 5.09347 11.6009C5.17634 11.5556 5.27551 11.5511 5.36217 11.5886C5.77964 11.7693 6.30705 12.0052 6.53451 12.1073C6.5153 12.2831 6.52597 12.5408 6.53359 12.6725ZM8.11059 12.4528C7.69278 12.3902 7.41787 12.2863 6.96518 11.9168C6.71748 11.6266 7.27177 10.8992 7.53247 11.0963C7.6938 11.6447 7.98235 11.8509 8.32209 12.1025C8.2313 12.1894 8.15819 12.3035 8.11059 12.4528ZM8.39807 12.0389C8.12539 11.7979 7.85105 11.4498 7.761 11.1367C7.74077 11.0664 7.73252 10.95 7.7626 10.9009C7.96774 10.5655 8.48851 10.6079 8.67332 10.6343C8.70937 10.6395 8.73116 10.678 8.72796 10.7039C8.68055 11.0844 8.74867 11.3746 8.84659 11.6208C8.85294 11.6368 8.8789 11.8595 8.84402 11.8653C8.68065 11.8927 8.5264 11.9449 8.39807 12.0389ZM6.56217 11.9574L5.33971 11.3147C5.25033 11.2677 5.18333 11.1871 5.15349 11.0906C5.1237 10.9942 5.1335 10.8897 5.1808 10.8006C5.18609 10.7905 5.19143 10.7805 5.19682 10.7703C5.25766 10.6555 5.36727 10.5745 5.49487 10.55C5.62243 10.5254 5.75431 10.56 5.85339 10.6441L6.77342 11.4244C6.69361 11.559 6.6088 11.7672 6.56217 11.9574ZM9.07638 11.8415C8.91961 11.6273 8.8756 11.0619 8.89996 10.7221C8.90462 10.6571 8.95124 10.6354 8.96886 10.6362C9.30301 10.6506 9.55411 10.7428 9.81301 10.9798C9.84314 11.0075 9.85013 11.0792 9.83664 11.0981C9.67657 11.3227 9.61151 11.5765 9.62499 11.8547C9.45614 11.8449 9.26536 11.8325 9.07638 11.8415ZM6.84324 11.3164C6.60914 11.1218 5.94305 10.5635 5.87789 10.4576C5.78041 9.87834 6.32258 9.53691 6.68036 9.66767C6.77905 9.80949 7.13199 10.56 7.26309 10.8413C7.06192 11.0009 6.92573 11.1922 6.84324 11.3164ZM9.62999 10.5448C9.82077 10.3168 10.2591 9.79862 10.4432 9.62604C10.5764 9.50115 10.8145 9.43899 10.9276 9.53002C11.0309 9.61318 11.2092 9.79731 11.2415 9.94103C11.2875 10.1457 11.2368 10.2873 11.074 10.3924C10.8833 10.5156 10.2936 10.8393 10.0455 10.9746C9.92965 10.7798 9.79656 10.6403 9.62999 10.5448ZM7.38842 10.748C7.24082 10.4571 6.86343 9.70935 6.77566 9.49775C6.74912 9.43375 6.73514 9.33477 6.79123 9.27092C6.99817 9.03516 7.47958 8.86801 7.73499 8.89392C7.84654 8.90523 7.88579 8.96258 7.88924 9.05161C7.90142 9.36718 7.92383 10.1768 7.93145 10.4571C7.73849 10.5219 7.54809 10.6349 7.38842 10.748ZM8.86784 10.3724C8.98647 10.0573 9.24101 9.38315 9.32378 9.17631C9.3478 9.11634 9.39544 8.95481 9.48137 8.90862C9.57706 8.85719 9.80597 8.8341 9.96255 8.87291C10.1192 8.91173 10.2902 9.04375 10.3447 9.14787C10.3993 9.252 10.3706 9.37281 10.3066 9.47179C10.1831 9.66301 9.72834 10.2383 9.52587 10.4926C9.34751 10.4153 9.13334 10.3787 8.86784 10.3724ZM8.06037 10.4216C8.05503 10.0995 8.04363 9.1914 8.07847 8.93788C8.09516 8.81668 8.18249 8.71852 8.30011 8.68475C8.45095 8.64132 8.85319 8.63943 9.00564 8.69101C9.13009 8.73312 9.23543 8.84424 9.21621 8.97422C9.18074 9.21473 8.86925 10.0352 8.73897 10.3715C8.56837 10.3732 8.37803 10.3853 8.16454 10.4055C8.13004 10.4087 8.09525 10.4142 8.06037 10.4216ZM13.996 5.82867H3.42385L3.40041 5.68355H14.019L13.996 5.82867ZM14.0625 5.40815H3.35602L3.30633 5.10029C3.34258 5.0918 3.37838 5.08141 3.41366 5.0688C3.52938 5.02751 3.63622 4.96399 3.72831 4.88267C3.8155 4.80567 3.88881 4.71397 3.94985 4.61514C3.99536 4.54148 4.03428 4.4638 4.06805 4.38408C4.07513 4.3673 4.08158 4.35017 4.08799 4.33304V4.03498C4.07882 4.03736 4.06984 4.04046 4.06111 4.0442C4.00914 4.06657 3.97207 4.11067 3.94694 4.16021C3.93049 4.19253 3.91943 4.22722 3.90623 4.26089C3.90007 4.27651 3.89357 4.29194 3.88721 4.30742C3.8712 4.34386 3.8548 4.37991 3.83695 4.41552C3.79202 4.50174 3.74034 4.58423 3.67596 4.65744C3.57081 4.7771 3.43525 4.86385 3.28091 4.90451L3.27499 4.90601L2.65718 1.07681H14.7471L14.1385 4.92722C14.0994 4.92217 14.0604 4.91455 14.0224 4.90451C13.8681 4.86385 13.7326 4.7771 13.6274 4.65744C13.563 4.58423 13.5113 4.50174 13.4664 4.41552C13.4485 4.37991 13.4321 4.34386 13.4161 4.30742C13.4097 4.29194 13.4032 4.27651 13.3971 4.26089C13.3839 4.22722 13.3728 4.19253 13.3564 4.16021C13.3312 4.11067 13.2942 4.06657 13.2422 4.0442C13.2335 4.04046 13.2245 4.03736 13.2153 4.03498V4.33304C13.2217 4.35017 13.2282 4.3673 13.2353 4.38408C13.2691 4.4638 13.308 4.54148 13.3535 4.61514C13.4146 4.71397 13.4878 4.80567 13.575 4.88267C13.6671 4.96399 13.774 5.02751 13.8897 5.0688C13.9606 5.09412 14.0337 5.11057 14.108 5.12062L14.0625 5.40815ZM7.51898 4.93561C7.51898 4.93561 7.60554 4.93474 7.63014 4.93333C7.69123 4.92984 7.75241 4.92008 7.81156 4.90451C7.9659 4.86385 8.10142 4.7771 8.20661 4.65744C8.27095 4.58423 8.32267 4.50174 8.3676 4.41552C8.3854 4.37991 8.4018 4.34386 8.41786 4.30742C8.42417 4.29194 8.43072 4.27651 8.43684 4.26089C8.45008 4.22722 8.46114 4.19253 8.47754 4.16021C8.50268 4.11067 8.53979 4.06657 8.59171 4.0442C8.60045 4.04046 8.60947 4.03736 8.61864 4.03498V4.33304C8.61224 4.35017 8.60578 4.3673 8.59865 4.38408C8.56488 4.4638 8.52597 4.54148 8.48045 4.61514C8.41942 4.71397 8.3461 4.80567 8.25891 4.88267C8.16687 4.96399 8.05998 5.02751 7.94426 5.0688C7.84678 5.10363 7.74523 5.12164 7.64222 5.12935C7.6117 5.13081 7.51292 5.13221 7.51292 5.13221C7.4808 5.13226 7.42437 5.13071 7.39579 5.12935C7.29278 5.12164 7.19123 5.10363 7.09375 5.0688C6.97803 5.02751 6.87114 4.96399 6.7791 4.88267C6.69191 4.80567 6.6186 4.71397 6.55756 4.61514C6.51205 4.54148 6.47313 4.4638 6.43936 4.38408C6.43223 4.3673 6.42578 4.35017 6.41937 4.33304V4.03498C6.42854 4.03736 6.43757 4.04046 6.4463 4.0442C6.49822 4.06657 6.53534 4.11067 6.56047 4.16021C6.57687 4.19253 6.58793 4.22722 6.60118 4.26089C6.60729 4.27651 6.61384 4.29194 6.62015 4.30742C6.63621 4.34386 6.65261 4.37991 6.67042 4.41552C6.71535 4.50174 6.76707 4.58423 6.83141 4.65744C6.9366 4.7771 7.07211 4.86385 7.22646 4.90451C7.2856 4.92008 7.34679 4.92984 7.40787 4.93333C7.43412 4.93483 7.49268 4.93381 7.51898 4.93561ZM12.0496 5.13216C12.0496 5.13216 11.955 5.13071 11.9264 5.12935C11.8234 5.12164 11.7218 5.10363 11.6244 5.0688C11.5086 5.02751 11.4018 4.96399 11.3097 4.88267C11.2225 4.80567 11.1492 4.71397 11.0882 4.61514C11.0427 4.54148 11.0037 4.4638 10.97 4.38408C10.9629 4.3673 10.9564 4.35017 10.95 4.33304V4.03498C10.9592 4.03736 10.9682 4.04046 10.9769 4.0442C11.0289 4.06657 11.0659 4.11067 11.0911 4.16021C11.1075 4.19253 11.1186 4.22722 11.1318 4.26089C11.1379 4.27651 11.1444 4.29194 11.1508 4.30742C11.1668 4.34386 11.1832 4.37991 11.2011 4.41552C11.246 4.50174 11.2977 4.58423 11.3621 4.65744C11.4672 4.7771 11.6028 4.86385 11.7571 4.90451C11.8163 4.92008 11.8774 4.92984 11.9385 4.93333C11.9648 4.93483 12.0233 4.93381 12.0496 4.93561C12.0496 4.93561 12.1361 4.93474 12.1608 4.93333C12.2218 4.92984 12.283 4.92008 12.3422 4.90451C12.4965 4.86385 12.632 4.7771 12.7372 4.65744C12.8015 4.58423 12.8533 4.50174 12.8982 4.41552C12.9161 4.37991 12.9325 4.34386 12.9485 4.30742C12.9548 4.29194 12.9613 4.27651 12.9674 4.26089C12.9807 4.22722 12.9917 4.19253 13.0082 4.16021C13.0333 4.11067 13.0704 4.06657 13.1224 4.0442C13.1311 4.04046 13.1401 4.03736 13.1492 4.03498V4.33304C13.1428 4.35017 13.1364 4.3673 13.1293 4.38408C13.0955 4.4638 13.0566 4.54148 13.0111 4.61514C12.95 4.71397 12.8768 4.80567 12.7896 4.88267C12.6975 4.96399 12.5906 5.02751 12.4749 5.0688C12.3774 5.10363 12.2758 5.12164 12.1729 5.12935C12.1424 5.13081 12.0802 5.1325 12.0496 5.13216ZM9.78962 4.93532C9.81781 4.93396 9.87084 4.93474 9.89549 4.93333C9.95653 4.92984 10.0177 4.92008 10.0769 4.90451C10.2312 4.86385 10.3667 4.7771 10.4719 4.65744C10.5362 4.58423 10.588 4.50174 10.6329 4.41552C10.6508 4.37991 10.6672 4.34386 10.6832 4.30742C10.6895 4.29194 10.696 4.27651 10.7021 4.26089C10.7154 4.22722 10.7264 4.19253 10.7428 4.16021C10.768 4.11067 10.8051 4.06657 10.857 4.0442C10.8657 4.04046 10.8748 4.03736 10.8839 4.03498V4.33304C10.8775 4.35017 10.8711 4.3673 10.864 4.38408C10.8302 4.4638 10.7913 4.54148 10.7458 4.61514C10.6847 4.71397 10.6115 4.80567 10.5243 4.88267C10.4322 4.96399 10.3253 5.02751 10.2096 5.0688C10.1121 5.10363 10.0105 5.12164 9.90757 5.12935C9.87706 5.13081 9.8149 5.1325 9.78433 5.13216C9.75377 5.1325 9.69161 5.13081 9.66109 5.12935C9.55808 5.12164 9.45653 5.10363 9.35906 5.0688C9.24334 5.02751 9.13645 4.96399 9.0444 4.88267C8.95721 4.80567 8.8839 4.71397 8.82286 4.61514C8.77735 4.54148 8.73844 4.4638 8.70467 4.38408C8.69753 4.3673 8.69108 4.35017 8.68468 4.33304V4.03498C8.69389 4.03736 8.70287 4.04046 8.7116 4.0442C8.76357 4.06657 8.80064 4.11067 8.82577 4.16021C8.84217 4.19253 8.85328 4.22722 8.86648 4.26089C8.87259 4.27651 8.87914 4.29194 8.88545 4.30742C8.90151 4.34386 8.91791 4.37991 8.93577 4.41552C8.98065 4.50174 9.03237 4.58423 9.09671 4.65744C9.2019 4.7771 9.33742 4.86385 9.49181 4.90451C9.5509 4.92008 9.61209 4.92984 9.67317 4.93333C9.69942 4.93483 9.78962 4.93532 9.78962 4.93532ZM5.14252 4.93333C5.16882 4.93483 5.34019 4.93474 5.36484 4.93333C5.42593 4.92984 5.48711 4.92008 5.54621 4.90451C5.7006 4.86385 5.83612 4.7771 5.94131 4.65744C6.00564 4.58423 6.05737 4.50174 6.10225 4.41552C6.1201 4.37991 6.1365 4.34386 6.15256 4.30742C6.15887 4.29194 6.16542 4.27651 6.17153 4.26089C6.18473 4.22722 6.19584 4.19253 6.21224 4.16021C6.23738 4.11067 6.27444 4.06657 6.32641 4.0442C6.33514 4.04046 6.34412 4.03736 6.35334 4.03498V4.33304C6.34693 4.35017 6.34048 4.3673 6.33335 4.38408C6.29958 4.4638 6.26066 4.54148 6.21515 4.61514C6.15412 4.71397 6.0808 4.80567 5.99361 4.88267C5.90152 4.96399 5.79468 5.02751 5.67896 5.0688C5.58148 5.10363 5.47993 5.12164 5.37692 5.12935C5.3464 5.13081 5.15907 5.13071 5.13044 5.12935C5.02748 5.12164 4.92593 5.10363 4.82845 5.0688C4.71273 5.02751 4.60584 4.96399 4.51375 4.88267C4.42656 4.80567 4.3533 4.71397 4.29226 4.61514C4.2467 4.54148 4.20783 4.4638 4.17406 4.38408C4.16693 4.3673 4.16048 4.35017 4.15407 4.33304V4.03498C4.16324 4.03736 4.17222 4.04046 4.181 4.0442C4.23292 4.06657 4.27004 4.11067 4.29517 4.16021C4.31157 4.19253 4.32263 4.22722 4.33588 4.26089C4.34199 4.27651 4.34854 4.29194 4.35485 4.30742C4.37086 4.34386 4.38726 4.37991 4.40511 4.41552C4.45004 4.50174 4.50177 4.58423 4.5661 4.65744C4.6713 4.7771 4.80681 4.86385 4.96115 4.90451C5.0203 4.92008 5.08148 4.92984 5.14252 4.93333ZM4.05752 3.94551C4.02457 3.97438 3.98935 4.00529 3.98013 4.01339C3.97862 4.0147 3.97668 4.01533 3.97469 4.01519C3.95776 4.01344 3.93428 4.00417 3.92084 3.98219C3.91836 3.97783 3.91943 3.97234 3.92326 3.96919C3.94946 3.94609 4.05791 3.85061 4.10216 3.81164C4.11298 3.80213 4.12918 3.80213 4.14 3.81164C4.18944 3.85522 4.31885 3.96919 4.31885 3.96919C4.32273 3.97234 4.32375 3.97783 4.32132 3.98219C4.30783 4.00417 4.28435 4.01344 4.26741 4.01519C4.26547 4.01533 4.26348 4.0147 4.26198 4.01339C4.24689 4.00014 4.16213 3.92581 4.13185 3.89922C4.12569 3.89379 4.11647 3.89379 4.11026 3.89922C4.09216 3.91514 4.05752 3.94551 4.05752 3.94551ZM6.32282 3.94551C6.28992 3.97438 6.25465 4.00529 6.24543 4.01339C6.24393 4.0147 6.24198 4.01533 6.24 4.01519C6.22311 4.01344 6.19963 4.00417 6.18614 3.98219C6.18371 3.97783 6.18473 3.97234 6.18856 3.96919C6.21481 3.94609 6.32321 3.85061 6.36746 3.81164C6.37828 3.80213 6.39448 3.80213 6.4053 3.81164C6.45475 3.85522 6.58415 3.96919 6.58415 3.96919C6.58803 3.97234 6.58905 3.97783 6.58662 3.98219C6.57313 4.00417 6.54965 4.01344 6.53277 4.01519C6.53078 4.01533 6.52879 4.0147 6.52733 4.01339C6.51219 4.00014 6.42748 3.92581 6.39715 3.89922C6.39099 3.89379 6.38177 3.89379 6.37561 3.89922C6.35746 3.91514 6.32282 3.94551 6.32282 3.94551ZM8.58812 3.94551C8.55522 3.97438 8.52 4.00529 8.51073 4.01339C8.50923 4.0147 8.50729 4.01533 8.5053 4.01519C8.48841 4.01344 8.46493 4.00417 8.45144 3.98219C8.44901 3.97783 8.45003 3.97234 8.45391 3.96919C8.48012 3.94609 8.58851 3.85061 8.63276 3.81164C8.64358 3.80213 8.65978 3.80213 8.6706 3.81164C8.7201 3.85522 8.84945 3.96919 8.84945 3.96919C8.85333 3.97234 8.85435 3.97783 8.85192 3.98219C8.83844 4.00417 8.81495 4.01344 8.79807 4.01519C8.79608 4.01533 8.79414 4.0147 8.79263 4.01339C8.77749 4.00014 8.69278 3.92581 8.66245 3.89922C8.65629 3.89379 8.64707 3.89379 8.64091 3.89922C8.62276 3.91514 8.58812 3.94551 8.58812 3.94551ZM10.8535 3.94551C10.8205 3.97438 10.7853 4.00529 10.776 4.01339C10.7746 4.0147 10.7726 4.01533 10.7706 4.01519C10.7537 4.01344 10.7302 4.00417 10.7167 3.98219C10.7143 3.97783 10.7153 3.97234 10.7192 3.96919C10.7454 3.94609 10.8539 3.85061 10.8981 3.81164C10.9089 3.80213 10.9251 3.80213 10.9359 3.81164C10.9854 3.85522 11.1148 3.96919 11.1148 3.96919C11.1186 3.97234 11.1197 3.97783 11.1172 3.98219C11.1037 4.00417 11.0803 4.01344 11.0634 4.01519C11.0614 4.01533 11.0594 4.0147 11.0579 4.01339C11.0428 4.00014 10.9581 3.92581 10.9278 3.89922C10.9216 3.89379 10.9124 3.89379 10.9062 3.89922C10.8881 3.91514 10.8535 3.94551 10.8535 3.94551ZM13.1188 3.94551C13.0858 3.97438 13.0506 4.00529 13.0414 4.01339C13.0399 4.0147 13.0379 4.01533 13.0359 4.01519C13.019 4.01344 12.9955 4.00417 12.982 3.98219C12.9796 3.97783 12.9806 3.97234 12.9845 3.96919C13.0107 3.94609 13.1192 3.85061 13.1634 3.81164C13.1742 3.80213 13.1904 3.80213 13.2012 3.81164C13.2507 3.85522 13.3801 3.96919 13.3801 3.96919C13.3839 3.97234 13.385 3.97783 13.3825 3.98219C13.3691 4.00417 13.3456 4.01344 13.3287 4.01519C13.3267 4.01533 13.3247 4.0147 13.3232 4.01339C13.3081 4.00014 13.2234 3.92581 13.1931 3.89922C13.1869 3.89379 13.1777 3.89379 13.1715 3.89922C13.1534 3.91514 13.1188 3.94551 13.1188 3.94551ZM13.1823 2.88307L13.5024 2.58598C13.5024 2.58598 13.8887 2.20325 13.9914 2.11286C14.0502 2.06109 14.1113 2.06391 14.1113 2.06391C14.1113 2.06391 13.7262 2.77967 13.7277 3.20248C13.7293 3.66453 13.4243 3.92198 13.4243 3.92198L13.1823 3.70893L12.9404 3.92198C12.9404 3.92198 12.6353 3.66453 12.637 3.20248C12.6385 2.77967 12.2533 2.06391 12.2533 2.06391C12.2533 2.06391 12.3145 2.06109 12.3733 2.11286C12.4759 2.20325 12.8622 2.58598 12.8622 2.58598L13.1823 2.88307ZM4.12108 2.88307L4.44116 2.58598C4.44116 2.58598 4.82748 2.20325 4.9301 2.11286C4.98891 2.06109 5.05009 2.06391 5.05009 2.06391C5.05009 2.06391 4.66494 2.77967 4.66644 3.20248C4.66809 3.66453 4.363 3.92198 4.363 3.92198L4.12108 3.70893L3.87916 3.92198C3.87916 3.92198 3.57406 3.66453 3.57571 3.20248C3.57722 2.77967 3.19207 2.06391 3.19207 2.06391C3.19207 2.06391 3.25325 2.06109 3.31206 2.11286C3.41468 2.20325 3.80099 2.58598 3.80099 2.58598L4.12108 2.88307ZM6.38638 2.88307L6.70647 2.58598C6.70647 2.58598 7.09278 2.20325 7.1954 2.11286C7.25421 2.06109 7.31539 2.06391 7.31539 2.06391C7.31539 2.06391 6.93024 2.77967 6.93175 3.20248C6.93339 3.66453 6.6283 3.92198 6.6283 3.92198L6.38638 3.70893L6.14446 3.92198C6.14446 3.92198 5.83937 3.66453 5.84102 3.20248C5.84252 2.77967 5.45737 2.06391 5.45737 2.06391C5.45737 2.06391 5.5186 2.06109 5.57736 2.11286C5.67998 2.20325 6.06629 2.58598 6.06629 2.58598L6.38638 2.88307ZM8.65168 2.88307L8.97177 2.58598C8.97177 2.58598 9.35808 2.20325 9.4607 2.11286C9.51951 2.06109 9.58069 2.06391 9.58069 2.06391C9.58069 2.06391 9.19559 2.77967 9.19705 3.20248C9.1987 3.66453 8.8936 3.92198 8.8936 3.92198L8.65168 3.70893L8.40976 3.92198C8.40976 3.92198 8.10472 3.66453 8.10632 3.20248C8.10782 2.77967 7.72272 2.06391 7.72272 2.06391C7.72272 2.06391 7.7839 2.06109 7.84271 2.11286C7.94533 2.20325 8.33164 2.58598 8.33164 2.58598L8.65168 2.88307ZM10.917 2.88307L11.2371 2.58598C11.2371 2.58598 11.6234 2.20325 11.726 2.11286C11.7848 2.06109 11.846 2.06391 11.846 2.06391C11.846 2.06391 11.4609 2.77967 11.4624 3.20248C11.464 3.66453 11.159 3.92198 11.159 3.92198L10.917 3.70893L10.6751 3.92198C10.6751 3.92198 10.37 3.66453 10.3717 3.20248C10.3731 2.77967 9.98802 2.06391 9.98802 2.06391C9.98802 2.06391 10.0492 2.06109 10.108 2.11286C10.2106 2.20325 10.5969 2.58598 10.5969 2.58598L10.917 2.88307ZM8.38133 2.53207C8.22034 2.38278 8.02568 2.20209 7.91098 2.09544C7.88444 2.07084 7.86973 2.03601 7.87061 1.99981C7.87148 1.96361 7.88788 1.92955 7.91559 1.90626C7.94363 1.88186 7.98021 1.87157 8.01617 1.87705C8.05217 1.88254 8.08405 1.90321 8.1037 1.93382L8.42718 2.43508C8.40603 2.46371 8.39026 2.49656 8.38133 2.53207ZM12.9119 2.53207C12.751 2.38278 12.5563 2.20209 12.4416 2.09544C12.415 2.07084 12.4003 2.03601 12.4012 1.99981C12.4021 1.96361 12.4185 1.92955 12.4462 1.90626C12.4743 1.88186 12.5109 1.87157 12.5468 1.87705C12.5828 1.88254 12.6147 1.90321 12.6343 1.93382L12.9578 2.43508C12.9367 2.46371 12.9209 2.49656 12.9119 2.53207ZM6.11603 2.53207C5.95504 2.38278 5.76033 2.20209 5.64567 2.09544C5.61909 2.07084 5.60438 2.03601 5.60531 1.99981C5.60618 1.96361 5.62258 1.92955 5.65028 1.90626C5.67833 1.88186 5.71491 1.87157 5.75087 1.87705C5.78682 1.88254 5.8187 1.90321 5.8384 1.93382L6.16183 2.43508C6.14072 2.46371 6.12495 2.49656 6.11603 2.53207ZM10.6466 2.53207C10.4857 2.38278 10.291 2.20209 10.1763 2.09544C10.1497 2.07084 10.135 2.03601 10.1359 1.99981C10.1368 1.96361 10.1532 1.92955 10.1809 1.90626C10.2089 1.88186 10.2455 1.87157 10.2815 1.87705C10.3175 1.88254 10.3493 1.90321 10.369 1.93382L10.6925 2.43508C10.6714 2.46371 10.6556 2.49656 10.6466 2.53207ZM3.85068 2.53207C3.68974 2.38278 3.49502 2.20209 3.38032 2.09544C3.35378 2.07084 3.33908 2.03601 3.33995 1.99981C3.34088 1.96361 3.35723 1.92955 3.38498 1.90626C3.41303 1.88186 3.44961 1.87157 3.48556 1.87705C3.52152 1.88254 3.55339 1.90321 3.57305 1.93382L3.89653 2.43508C3.87542 2.46371 3.85965 2.49656 3.85068 2.53207ZM4.34534 2.43469C4.45907 2.25852 4.58954 2.05653 4.66882 1.93407C4.68847 1.90364 4.7202 1.88312 4.75601 1.87769C4.79182 1.87225 4.82821 1.88249 4.85596 1.90573C4.88488 1.92912 4.90133 1.96337 4.9022 1.99976C4.90303 2.0361 4.88823 2.07109 4.86149 2.09578L4.39134 2.53164C4.38236 2.49612 4.36649 2.46332 4.34534 2.43469ZM13.4066 2.43469C13.5203 2.25852 13.6508 2.05653 13.7301 1.93407C13.7497 1.90364 13.7815 1.88312 13.8173 1.87769C13.8531 1.87225 13.8895 1.88249 13.9172 1.90573C13.9461 1.92912 13.9626 1.96337 13.9634 1.99976C13.9643 2.0361 13.9495 2.07109 13.9228 2.09578L13.4526 2.53164C13.4436 2.49612 13.4277 2.46332 13.4066 2.43469ZM11.1412 2.43469C11.255 2.25852 11.3855 2.05653 11.4648 1.93407C11.4844 1.90364 11.5162 1.88312 11.552 1.87769C11.5877 1.87225 11.6242 1.88249 11.6519 1.90573C11.6808 1.92912 11.6973 1.96337 11.6981 1.99976C11.699 2.0361 11.6841 2.07109 11.6574 2.09578L11.1873 2.53164C11.1783 2.49612 11.1624 2.46332 11.1412 2.43469ZM8.87594 2.43469C8.98972 2.25852 9.12019 2.05653 9.19947 1.93407C9.21908 1.90364 9.25086 1.88312 9.28662 1.87769C9.32242 1.87225 9.35881 1.88249 9.38657 1.90573C9.41548 1.92912 9.43193 1.96337 9.43281 1.99976C9.43368 2.0361 9.41883 2.07109 9.3921 2.09578L8.92199 2.53164C8.91296 2.49612 8.89715 2.46332 8.87594 2.43469ZM6.61064 2.43469C6.72437 2.25852 6.85484 2.05653 6.93412 1.93407C6.95377 1.90364 6.98551 1.88312 7.02131 1.87769C7.05712 1.87225 7.09351 1.88249 7.12126 1.90573C7.15018 1.92912 7.16663 1.96337 7.1675 1.99976C7.16833 2.0361 7.15353 2.07109 7.1268 2.09578L6.65669 2.53164C6.64766 2.49612 6.63184 2.46332 6.61064 2.43469ZM10.7214 2.40175C10.6272 2.2181 10.5209 2.01068 10.4559 1.88365C10.4394 1.85144 10.4375 1.81369 10.4507 1.77997C10.4639 1.74624 10.491 1.71985 10.525 1.70743C10.5597 1.69409 10.5976 1.697 10.6295 1.71442C10.6614 1.73188 10.6843 1.76221 10.6923 1.79768L10.816 2.34037C10.7803 2.3543 10.7482 2.37531 10.7214 2.40175ZM8.45605 2.40175C8.36192 2.2181 8.25556 2.01068 8.1906 1.88365C8.1741 1.85144 8.17216 1.81369 8.1854 1.77997C8.1986 1.74624 8.22563 1.71985 8.25964 1.70743C8.29438 1.69409 8.33227 1.697 8.3642 1.71442C8.39613 1.73188 8.41898 1.76221 8.42699 1.79768L8.55066 2.34037C8.515 2.3543 8.48288 2.37531 8.45605 2.40175ZM6.19075 2.40175C6.09657 2.2181 5.99026 2.01068 5.92529 1.88365C5.90875 1.85144 5.90686 1.81369 5.9201 1.77997C5.9333 1.74624 5.96033 1.71985 5.99434 1.70743C6.02908 1.69409 6.06692 1.697 6.09885 1.71442C6.13078 1.73188 6.15368 1.76221 6.16168 1.79768L6.28536 2.34037C6.24965 2.3543 6.21753 2.37531 6.19075 2.40175ZM12.9867 2.40175C12.8925 2.2181 12.7862 2.01068 12.7212 1.88365C12.7047 1.85144 12.7028 1.81369 12.716 1.77997C12.7292 1.74624 12.7563 1.71985 12.7903 1.70743C12.825 1.69409 12.8629 1.697 12.8948 1.71442C12.9267 1.73188 12.9496 1.76221 12.9576 1.79768L13.0813 2.34037C13.0456 2.3543 13.0135 2.37531 12.9867 2.40175ZM3.92545 2.40175C3.83127 2.2181 3.72496 2.01068 3.65999 1.88365C3.64345 1.85144 3.64156 1.81369 3.65475 1.77997C3.668 1.74624 3.69502 1.71985 3.72904 1.70743C3.76373 1.69409 3.80162 1.697 3.83355 1.71442C3.86548 1.73188 3.88838 1.76221 3.89638 1.79768L4.02001 2.34037C3.98435 2.3543 3.95223 2.37531 3.92545 2.40175ZM6.48696 2.34018C6.53136 2.14547 6.58031 1.93106 6.61088 1.79777C6.61894 1.76245 6.64174 1.73232 6.67352 1.715C6.7053 1.69768 6.743 1.69481 6.77706 1.70719L6.77803 1.7068C6.81224 1.71927 6.83941 1.74581 6.85266 1.77967C6.8659 1.81359 6.86391 1.85153 6.84722 1.88385L6.58167 2.40136C6.55479 2.37502 6.52267 2.35401 6.48696 2.34018ZM13.2829 2.34018C13.3273 2.14547 13.3763 1.93106 13.4068 1.79777C13.4149 1.76245 13.4377 1.73232 13.4695 1.715C13.5013 1.69768 13.539 1.69481 13.573 1.70719L13.574 1.7068C13.6081 1.71927 13.6353 1.74581 13.6486 1.77967C13.6618 1.81359 13.6599 1.85153 13.6432 1.88385L13.3776 2.40136C13.3507 2.37502 13.3186 2.35401 13.2829 2.34018ZM4.22161 2.34018C4.26606 2.14547 4.31501 1.93106 4.34558 1.79777C4.35364 1.76245 4.37644 1.73232 4.40822 1.715C4.44 1.69768 4.4777 1.69481 4.51171 1.70719L4.51273 1.7068C4.54689 1.71927 4.57406 1.74581 4.58731 1.77967C4.60055 1.81359 4.59861 1.85153 4.58192 1.88385L4.31637 2.40136C4.28949 2.37502 4.25732 2.35401 4.22161 2.34018ZM8.75226 2.34018C8.79666 2.14547 8.84562 1.93106 8.87618 1.79777C8.88424 1.76245 8.90704 1.73232 8.93887 1.715C8.97065 1.69768 9.00835 1.69481 9.04237 1.70719L9.04334 1.7068C9.07754 1.71927 9.10471 1.74581 9.11796 1.77967C9.13121 1.81359 9.12922 1.85153 9.11257 1.88385L8.84698 2.40136C8.82014 2.37502 8.78797 2.35401 8.75226 2.34018ZM11.0176 2.34018C11.062 2.14547 11.111 1.93106 11.1415 1.79777C11.1495 1.76245 11.1724 1.73232 11.2042 1.715C11.236 1.69768 11.2737 1.69481 11.3077 1.70719L11.3087 1.7068C11.3428 1.71927 11.37 1.74581 11.3833 1.77967C11.3965 1.81359 11.3945 1.85153 11.3779 1.88385L11.1123 2.40136C11.0854 2.37502 11.0533 2.35401 11.0176 2.34018ZM13.131 2.3262C13.1039 2.08317 13.0725 1.80185 13.0546 1.64013C13.0506 1.60408 13.0621 1.56793 13.0863 1.54086C13.1105 1.51379 13.1451 1.49831 13.1814 1.49826C13.2191 1.49758 13.2539 1.5132 13.2782 1.54042C13.3025 1.56764 13.314 1.60394 13.3098 1.64018L13.2331 2.32611C13.2166 2.32305 13.1997 2.3215 13.1823 2.3215C13.1648 2.3215 13.1476 2.3231 13.131 2.3262ZM10.8657 2.3262C10.8386 2.08317 10.8072 1.80185 10.7893 1.64013C10.7853 1.60408 10.7968 1.56793 10.821 1.54086C10.8452 1.51379 10.8798 1.49831 10.9161 1.49826C10.9538 1.49758 10.9886 1.5132 11.0129 1.54042C11.0371 1.56764 11.0487 1.60394 11.0445 1.64018L10.9678 2.32611C10.9513 2.32305 10.9344 2.3215 10.917 2.3215C10.8995 2.3215 10.8823 2.3231 10.8657 2.3262ZM6.33509 2.3262C6.30792 2.08317 6.27658 1.80185 6.25868 1.64013C6.25465 1.60408 6.26615 1.56793 6.29036 1.54086C6.31457 1.51379 6.34917 1.49831 6.38546 1.49826C6.42316 1.49758 6.45795 1.5132 6.48221 1.54042C6.50652 1.56764 6.51801 1.60394 6.51389 1.64018L6.43713 2.32611C6.42068 2.32305 6.4037 2.3215 6.38638 2.3215C6.36887 2.3215 6.35169 2.3231 6.33509 2.3262ZM4.06974 2.3262C4.04262 2.08317 4.01123 1.80185 3.99337 1.64013C3.98935 1.60408 4.00085 1.56793 4.02506 1.54086C4.04927 1.51379 4.08382 1.49831 4.12016 1.49826C4.15786 1.49758 4.1926 1.5132 4.21691 1.54042C4.24121 1.56764 4.25271 1.60394 4.24859 1.64018L4.17183 2.32611C4.15538 2.32305 4.1384 2.3215 4.12108 2.3215C4.10356 2.3215 4.08639 2.3231 4.06974 2.3262ZM8.6004 2.3262C8.57323 2.08317 8.54188 1.80185 8.52398 1.64013C8.51995 1.60408 8.5315 1.56793 8.55566 1.54086C8.57987 1.51379 8.61447 1.49831 8.65076 1.49826C8.68851 1.49758 8.72325 1.5132 8.74751 1.54042C8.77182 1.56764 8.78337 1.60394 8.77924 1.64018L8.70248 2.32611C8.68599 2.32305 8.66905 2.3215 8.65168 2.3215C8.63417 2.3215 8.61704 2.3231 8.6004 2.3262ZM14.7906 0.801415H2.61274L2.54078 0.355225H14.8612L14.7906 0.801415Z" fill="#FFB219"/>
</svg>
