<svg width="24" height="25" viewBox="0 0 24 25" fill="none" xmlns="http://www.w3.org/2000/svg">
<path fill-rule="evenodd" clip-rule="evenodd" d="M13.5111 0.728516C19.3897 1.47265 23.9608 6.51234 23.9608 12.585C23.9608 19.1675 18.5901 24.5362 12.0051 24.5362C5.42016 24.5362 0.049324 19.1675 0.049324 12.585C0.049324 10.8736 0.412397 9.2442 1.06548 7.76988L1.68345 8.56424L1.7194 8.60851C1.7194 8.60851 1.83687 8.74707 1.97651 8.86777C2.10421 8.97668 2.26786 9.0748 2.3831 9.12219C2.4711 9.15759 2.55849 9.18804 2.65034 9.20579C3.05489 9.28515 3.46998 9.28041 3.77044 9.2667C4.00943 9.25591 4.17975 9.24259 4.17975 9.24259C5.74198 9.16969 6.33965 9.87365 6.74603 10.3527C7.11859 10.7908 10.7644 15.6465 10.7644 15.6465L12.577 13.8321C12.577 13.8321 11.055 11.8923 10.3798 11.0226C9.62492 10.0509 9.07808 9.35251 8.74441 9.07076C8.0155 8.45654 6.40345 8.38374 6.03444 8.32031C6.03444 8.32031 4.67363 8.15402 3.86158 7.32149C3.67039 7.12545 3.53783 6.95231 3.53783 6.95231L2.37168 5.52048C2.67033 5.11492 2.99394 4.72875 3.3402 4.36429L4.59788 5.98364C4.84325 6.29654 4.97722 6.47806 5.22512 6.72512C5.85651 7.35507 6.74857 7.44028 6.74857 7.44028C8.60912 7.77506 9.62512 7.8633 10.2148 8.54629C10.9224 9.36532 11.0591 9.55268 11.6505 10.3149C11.8685 10.5958 13.5785 12.8309 13.5785 12.8309L15.335 11.0713C15.335 11.0713 14.2104 9.62296 13.5573 8.76461C13.2377 8.34421 12.7314 7.68804 12.3581 7.42021C11.5884 6.86922 10.9033 6.951 10.2053 6.87708C9.60568 6.81305 9.05257 6.80085 8.33338 6.45859C8.33338 6.45859 8.02239 6.38942 7.38046 5.56283C6.73773 4.73695 6.55758 4.49745 6.55758 4.49745L5.17976 2.78186C5.58537 2.49859 6.00923 2.23979 6.44918 2.00761L7.80689 3.76807L8.48497 4.65154C9.46188 5.89843 10.0935 5.91275 10.7445 5.98928C11.7774 6.1117 12.75 6.04636 13.5911 6.68034C14.0779 7.047 14.3323 7.43604 14.6824 7.8869C15.2111 8.56727 16.3508 10.0493 16.3508 10.0493L18.1088 8.28915C18.1088 8.28915 17.0967 6.98145 16.7035 6.48461C16.5731 6.32034 16.349 6.11221 16.0171 5.89691C15.4926 5.55577 14.9689 5.4509 13.6256 5.25265C12.2827 5.05459 11.8462 4.82155 11.2117 4.12777C10.9084 3.79591 10.7404 3.56044 10.5361 3.29725L8.77759 1.07747C9.32594 0.923221 9.89004 0.80725 10.4668 0.732639L11.665 2.38606C12.0671 2.87372 12.4258 3.50861 13.4468 3.9633C14.6755 4.51036 15.6035 4.38209 16.4446 4.5994C16.4446 4.5994 16.6737 4.65517 16.9261 4.76589C17.1937 4.88397 17.3679 5.06024 17.5353 5.24912C17.8134 5.56283 18.0569 5.86868 18.1126 5.94068C18.1241 5.9549 19.1555 7.24031 19.1555 7.24031L20.8929 5.50162C20.8929 5.50162 20.4918 4.98925 20.1736 4.5871C19.9766 4.33833 19.8908 4.24868 19.7256 4.14774C19.5948 4.06817 19.4309 3.98891 19.2096 3.93658C18.957 3.87769 18.6122 3.83402 18.0173 3.81002C16.4508 3.7477 15.8721 3.62317 14.8752 2.42982L14.1356 1.53295L13.5111 0.728516Z" fill="#14763E"/>
</svg>
