<svg width="24" height="24" viewBox="0 0 24 24" fill="none" xmlns="http://www.w3.org/2000/svg">
<path fill-rule="evenodd" clip-rule="evenodd" d="M3.27233 20.2974C2.39202 20.0842 1.54347 19.5233 0.882718 18.3902C-0.281201 16.3941 0.838807 14.4242 1.62195 13.0756C-0.776814 18.0781 2.46493 19.6088 6.30319 16.2397C6.30319 16.2397 11.0033 11.5339 12.3167 10.2189C12.9239 9.61092 13.8287 9.20794 14.7288 9.31275C16.0721 9.46925 16.975 10.2354 17.5182 10.4683C17.8746 10.6211 18.1978 10.3977 18.0751 10.1016C17.9502 9.80019 17.6843 9.47856 17.1809 8.9745C15.6877 7.47918 13.8553 5.73554 13.8553 5.73554C12.7898 4.71015 12.3654 3.77659 12.4236 2.85917C12.516 1.40521 13.8666 0.539961 14.7779 0.501709C14.2242 1.16072 14.2721 1.72369 14.5964 2.13389C14.5964 2.13389 19.7138 7.25839 19.8401 7.38483C20.4875 8.03313 21.3199 10.7373 18.9528 11.4439C18.6677 11.5289 18.3836 11.5235 18.0605 11.43C17.2184 11.1863 15.9435 10.9545 15.0746 11.8091C13.5067 13.3511 8.4774 18.4359 8.03917 18.8543C7.60093 19.2728 6.27903 20.3124 4.38948 20.3984C4.84206 22.0006 7.03071 21.7898 9.59655 19.5376C9.59655 19.5376 14.2966 14.8318 15.61 13.5169C16.2173 12.9088 17.1161 12.597 18.0221 12.6107C18.6865 12.6207 19.1702 12.7977 19.5391 13.0637C20.2884 13.6039 20.5557 14.1183 20.6635 14.692C19.7916 14.186 19.2369 14.2524 18.3679 15.107C17.1102 16.344 13.7986 19.6739 12.5375 20.943C12.5443 21.0763 12.5877 21.1962 12.6973 21.28C13.0841 21.5758 13.9739 21.5816 14.3942 21.1608C15.8891 19.664 18.1575 17.3929 19.0075 16.5419C19.6147 15.9339 20.4028 15.5742 21.3088 15.5879C21.9732 15.598 22.222 15.7483 22.591 16.0143C23.3402 16.5545 23.5115 17.2566 23.6194 17.8302C22.8324 17.2744 22.4004 17.5075 21.7654 18.132C20.8467 19.0356 18.8321 21.0558 17.3213 22.5739C16.7958 23.1019 15.4263 23.7816 13.8777 23.2329C13.0053 22.9239 12.4152 21.9952 12.0388 21.4499C11.9343 21.8268 6.87338 25.8215 3.95158 21.5175C3.66581 21.0965 3.46054 20.7099 3.27233 20.2974ZM5.12228 10.7175C4.97616 10.4508 4.89304 10.1446 4.89304 9.81919C4.89304 8.78605 5.73065 7.94727 6.76235 7.94727C7.79405 7.94727 8.63166 8.78605 8.63166 9.81919C8.63166 10.8523 7.79405 11.6911 6.76235 11.6911C6.43739 11.6911 6.13166 11.6079 5.86529 11.4616C6.0114 11.7283 6.09453 12.0345 6.09453 12.3599C6.09453 13.393 5.25692 14.2318 4.22522 14.2318C3.19351 14.2318 2.35591 13.393 2.35591 12.3599C2.35591 11.3267 3.19351 10.4879 4.22522 10.4879C4.55022 10.4879 4.8559 10.5712 5.12228 10.7175Z" fill="#00BBE6"/>
</svg>
