<svg width="24" height="24" viewBox="0 0 24 24" fill="none" xmlns="http://www.w3.org/2000/svg">
<path d="M17.141 9.16772L9.48224 13.5903C8.99588 13.8709 8.56959 14.2447 8.22771 14.6901C7.88583 15.1356 7.63507 15.6441 7.48975 16.1865C7.34442 16.7289 7.30739 17.2946 7.38077 17.8513C7.45414 18.408 7.63648 18.9448 7.91737 19.431L9.0517 21.3969C9.08244 21.4508 9.13061 21.4926 9.18829 21.5155C9.24597 21.5384 9.30973 21.541 9.36906 21.5228C9.4284 21.5046 9.47978 21.4668 9.51476 21.4155C9.54973 21.3643 9.56621 21.3026 9.56149 21.2408C9.50884 20.4571 9.67304 19.6741 10.0361 18.9776C10.3991 18.2811 10.947 17.6981 11.6196 17.2925L16.3887 14.5389C16.8216 14.2891 17.201 13.9565 17.5053 13.56C17.8096 13.1636 18.0329 12.711 18.1623 12.2283C18.2916 11.7455 18.3247 11.242 18.2594 10.7465C18.1942 10.251 18.032 9.77322 17.7821 9.34041C17.7193 9.23323 17.6169 9.15504 17.4969 9.12273C17.377 9.09042 17.2491 9.10658 17.141 9.16772Z" fill="url(#paint0_linear_3775_100825)"/>
<path d="M19.49 0.652023C19.4271 0.545042 19.3245 0.467104 19.2046 0.43502C19.0847 0.402935 18.957 0.419274 18.849 0.480513L6.13957 7.81399C5.65234 8.09489 5.2253 8.46911 4.88288 8.91525C4.54046 9.36139 4.28939 9.87068 4.14404 10.414C3.99868 10.9572 3.9619 11.5239 4.0358 12.0814C4.1097 12.6389 4.29283 13.1764 4.5747 13.663L5.7102 15.6277C5.74092 15.6815 5.78898 15.7232 5.84652 15.7461C5.90406 15.769 5.96767 15.7716 6.02692 15.7536C6.08616 15.7356 6.13753 15.698 6.17261 15.647C6.20769 15.5959 6.2244 15.5345 6.22 15.4728C6.16707 14.6891 6.33116 13.9059 6.69424 13.2094C7.05732 12.5129 7.60534 11.9299 8.2781 11.5245L18.0955 5.85524C18.529 5.60543 18.909 5.2726 19.2137 4.8758C19.5185 4.479 19.742 4.02601 19.8715 3.54275C20.001 3.05949 20.034 2.55543 19.9686 2.05941C19.9031 1.56339 19.7405 1.08514 19.49 0.652023Z" fill="url(#paint1_linear_3775_100825)"/>
<path d="M12.8178 19.3564C12.4 19.3564 11.9915 19.4803 11.6441 19.7125C11.2967 19.9446 11.026 20.2745 10.8661 20.6605C10.7062 21.0465 10.6643 21.4713 10.7459 21.8811C10.8274 22.2909 11.0286 22.6673 11.324 22.9627C11.6194 23.2582 11.9959 23.4594 12.4056 23.5409C12.8154 23.6224 13.2402 23.5806 13.6262 23.4207C14.0122 23.2608 14.3421 22.99 14.5743 22.6426C14.8064 22.2952 14.9303 21.8868 14.9303 21.469C14.9303 20.9087 14.7077 20.3714 14.3115 19.9752C13.9154 19.579 13.3781 19.3564 12.8178 19.3564Z" fill="url(#paint2_linear_3775_100825)"/>
<defs>
<linearGradient id="paint0_linear_3775_100825" x1="4.61257" y1="2.24941" x2="20.4446" y2="25.8325" gradientUnits="userSpaceOnUse">
<stop offset="0.3" stop-color="#1E3D90"/>
<stop offset="0.66" stop-color="#D0056D"/>
</linearGradient>
<linearGradient id="paint1_linear_3775_100825" x1="7.39217" y1="0.383522" x2="23.2242" y2="23.9666" gradientUnits="userSpaceOnUse">
<stop offset="0.3" stop-color="#1E3D90"/>
<stop offset="0.66" stop-color="#D0056D"/>
</linearGradient>
<linearGradient id="paint2_linear_3775_100825" x1="1.37519" y1="4.42335" x2="17.2072" y2="28.0052" gradientUnits="userSpaceOnUse">
<stop offset="0.3" stop-color="#1E3D90"/>
<stop offset="0.66" stop-color="#D0056D"/>
</linearGradient>
</defs>
</svg>
