<svg width="24" height="24" viewBox="0 0 24 24" fill="none" xmlns="http://www.w3.org/2000/svg">
<path fill-rule="evenodd" clip-rule="evenodd" d="M12.0185 1.78986C13.2028 1.78986 14.164 2.76111 14.164 3.95921C14.164 5.15744 13.2027 6.12868 12.0185 6.12868C10.8323 6.12868 9.87099 5.15744 9.87099 3.95921C9.87099 2.76111 10.8323 1.78986 12.0185 1.78986ZM17.0144 0.365967C18.2008 0.365967 19.1615 1.33734 19.1615 2.53544C19.1616 3.73367 18.2008 4.70505 17.0143 4.70505C15.8298 4.70505 14.8685 3.73367 14.8685 2.53544C14.8685 1.33734 15.8299 0.365967 17.0144 0.365967ZM7.43995 4.00952C8.62558 4.00952 9.58664 4.98116 9.58664 6.17978C9.58664 7.37761 8.62558 8.34912 7.43995 8.34912C6.25445 8.34912 5.29326 7.37761 5.29326 6.17978C5.29326 4.98116 6.25445 4.00952 7.43995 4.00952ZM12.0051 14.1528C12.1472 14.146 13.5785 14.0896 14.4583 14.5331C14.7805 14.6953 14.8136 14.9044 14.8131 15.1258C14.8126 16.1549 12.0326 17.6244 11.7593 17.7638C8.23894 19.5601 3.27445 19.8655 3.27445 19.8655L3.32111 23.6341C5.44518 23.3397 9.27733 22.9065 13.9018 20.401C16.1891 19.1617 18.6646 17.1216 18.2029 14.2016C17.7567 11.3845 14.8064 10.5907 12.0279 10.7123L11.9952 14.1406C11.8544 14.1476 10.4223 14.2041 9.54232 13.7607C9.22002 13.5985 9.18753 13.3895 9.18753 13.1679C9.18779 12.1386 11.9675 10.6691 12.2411 10.5302C15.7618 8.73347 20.7255 8.42807 20.7255 8.42807L20.679 4.65934C18.5543 4.95436 14.7227 5.38718 10.0985 7.89253C7.81085 9.13174 5.33615 11.172 5.79829 14.092C6.24431 16.9097 9.19467 17.7028 11.9723 17.5809L12.0051 14.1528Z" fill="#D8262C"/>
</svg>
