<svg width="24" height="24" viewBox="0 0 24 24" fill="none" xmlns="http://www.w3.org/2000/svg">
<path fill-rule="evenodd" clip-rule="evenodd" d="M8.2185 4.19046L8.2184 4.19036C9.15055 2.82196 10.4788 1.44376 11.922 0.146362C12.7575 1.14811 13.4879 2.40341 13.7497 3.85231C14.7839 3.25806 15.9489 2.76376 17.1771 2.35181C17.9856 2.08066 18.8198 1.84556 19.66 1.64051C19.556 3.51911 19.1998 5.51411 18.3852 7.30526V7.30531L18.3852 7.30526C20.3052 7.34481 22.2396 7.90856 24 8.67556C22.5941 10.4826 21.017 12.1743 19.3445 13.3778L19.3445 13.3779L19.3446 13.3779C20.5452 14.3696 21.3744 15.7561 21.933 17.1472C20.0408 17.9418 18.1373 18.5704 16.4489 18.7898L16.4487 18.7899L16.4489 18.7898C16.6665 19.9954 16.4489 21.2779 16.0822 22.4067C15.4803 22.3567 14.8858 22.2878 14.3139 22.1947C13.4383 22.0531 12.6129 21.8533 11.8904 21.5745L11.8897 21.5743L11.8904 21.5746C11.4815 22.4722 10.7724 23.2465 10.0497 23.8537C9.10135 23.2638 8.19725 22.5859 7.55545 21.8422L7.55525 21.842L7.5555 21.8423C6.8938 22.3168 6.07385 22.5953 5.31285 22.7531C4.84225 22.0008 4.4229 21.1762 4.21795 20.3763C3.782 20.4324 3.32405 20.4079 2.8792 20.3347C2.60815 20.2907 2.34025 20.2291 2.08405 20.1568C1.97955 19.3811 1.9427 18.544 2.0764 17.7986V17.7983L2.07635 17.7985C1.4385 17.554 0.8247 17.1003 0.2963 16.6162C0.4958 15.8827 0.7843 15.1121 1.20305 14.4969L1.2031 14.4968C0.7131 13.9274 0.3153 13.1558 0 12.3804C0.48895 11.7601 1.09175 11.1429 1.75915 10.7574L1.7538 10.7362C1.52875 9.83561 1.47335 8.74986 1.50325 7.67731C1.7984 7.53351 2.1084 7.40411 2.42825 7.29611C2.95495 7.12031 3.5008 7.00966 4.0303 7.01901H4.0304C4.25175 5.79441 4.7592 4.41896 5.3665 3.07546C6.3615 3.20536 7.4111 3.52251 8.21835 4.19036L8.2185 4.19046Z" fill="#7DCDF1"/>
<path fill-rule="evenodd" clip-rule="evenodd" d="M9.85116 7.23215V7.2321C10.4519 6.51625 11.1722 5.78545 12.0126 5.0683C12.5323 4.61904 13.1181 4.21749 13.7496 3.85229C13.8515 4.41815 13.8807 5.0058 13.8154 5.60705C13.7082 6.60015 13.4935 7.5582 13.1951 8.45075C14.1162 8.0631 15.1447 7.73575 16.2595 7.49675C16.9545 7.34905 17.6664 7.28965 18.3851 7.3053C18.0771 7.98085 17.7058 8.6205 17.2651 9.2066C16.5546 10.1522 15.8027 10.9765 15.0464 11.6753C15.9505 11.8155 16.8821 12.0684 17.8031 12.4452C18.3684 12.6771 18.8811 12.9953 19.3445 13.3778C18.7255 13.822 18.0942 14.1995 17.4504 14.4934C16.4213 14.9631 15.4404 15.3061 14.53 15.5396V15.5397L14.5301 15.5396C15.0751 16.082 15.5655 16.7147 15.9657 17.4248C16.2058 17.8483 16.3618 18.3101 16.4489 18.7897C15.8204 18.8719 15.2177 18.898 14.6497 18.8552C13.7305 18.7876 12.8971 18.6434 12.1556 18.4412C12.2645 19.0826 12.2872 19.7547 12.2149 20.4287C12.1718 20.8245 12.0565 21.2088 11.8903 21.5746C11.44 21.4004 11.0257 21.1971 10.6614 20.954C10.0604 20.5539 9.54131 20.1217 9.10551 19.6737L9.10216 19.6709L9.10546 19.6743C8.89436 20.1958 8.61466 20.6948 8.26831 21.1531C8.07006 21.4187 7.82641 21.6463 7.55536 21.8422C7.30531 21.554 7.09216 21.252 6.92836 20.9369C6.65171 20.4107 6.44621 19.8811 6.30346 19.3617V19.3616C5.92246 19.6754 5.50066 19.9407 5.04756 20.1458C4.78701 20.266 4.50736 20.3379 4.21791 20.3762C4.13636 20.0575 4.08821 19.7406 4.08376 19.4295C4.07491 18.9015 4.12341 18.3895 4.22091 17.9051V17.905L4.22086 17.9051C3.78081 17.9906 3.32521 18.0181 2.86756 17.9842C2.60161 17.9648 2.33641 17.8992 2.07631 17.7984C2.13181 17.4967 2.21446 17.2068 2.33201 16.9416C2.53591 16.485 2.78501 16.0636 3.07131 15.6858V15.6858C2.65226 15.5421 2.23921 15.3393 1.84496 15.0762C1.61356 14.9216 1.40016 14.7251 1.20296 14.4969C1.37526 14.2447 1.56826 14.0182 1.78636 13.8306C2.16416 13.5064 2.57066 13.24 2.99286 13.0325L2.99296 13.0324L2.99286 13.0325C2.67156 12.6583 2.37706 12.2251 2.12121 11.7336C1.96916 11.4424 1.84976 11.113 1.75906 10.7567C2.03556 10.5987 2.32141 10.4794 2.61291 10.4172C3.11856 10.309 3.62546 10.2781 4.11806 10.3186C3.99101 9.726 3.91806 9.0725 3.90726 8.36545C3.89901 7.9395 3.94461 7.48785 4.03026 7.01895C4.37791 7.02615 4.71481 7.0868 5.02966 7.2161C5.56886 7.43555 6.06241 7.74115 6.49971 8.11275L6.49991 8.11285L6.49976 8.1127C6.69316 7.3651 6.97121 6.5655 7.34586 5.72895C7.57551 5.2147 7.87106 4.70125 8.21826 4.19034C8.54396 4.4582 8.82536 4.781 9.04171 5.16435C9.40746 5.8113 9.67601 6.5129 9.85111 7.2321L9.85116 7.23215Z" fill="#00AAE7"/>
<path fill-rule="evenodd" clip-rule="evenodd" d="M7.99588 10.1207C7.98443 10.1466 8.00738 10.147 7.99588 10.1207L7.99628 10.1198L7.99588 10.1189C8.39918 9.20436 9.01968 8.22206 9.85133 7.23206C10.1024 8.27736 10.1504 9.34356 10.0105 10.3334C9.99188 10.3489 9.99068 10.3676 10.0025 10.3893C10.0052 10.3707 10.0079 10.3521 10.0106 10.3334C10.8543 9.63136 11.9299 8.98201 13.1953 8.45066C12.7751 9.70596 12.198 10.816 11.5334 11.7136L11.5333 11.7137H11.5334C11.7359 11.6734 11.9426 11.6407 12.1557 11.6141C13.0503 11.5038 14.028 11.5172 15.0465 11.6757C14.0047 12.6359 12.949 13.3591 11.9591 13.8325C12.8602 14.1854 13.7469 14.7623 14.5303 15.5396C13.5183 15.7986 12.5817 15.9212 11.751 15.924C11.5524 15.9244 11.3594 15.9178 11.1732 15.9051L11.1731 15.905L11.1732 15.9051C11.653 16.6198 11.9953 17.4899 12.1557 18.441C11.1193 18.1565 10.2456 17.7519 9.56343 17.267V17.2665L9.56338 17.2669C9.57973 18.0556 9.42473 18.8834 9.10563 19.6736C8.47958 19.0317 8.01093 18.3446 7.71178 17.6572C7.69978 17.6295 7.72063 17.6406 7.71178 17.6572C7.36883 18.2981 6.88708 18.8826 6.30363 19.3616C6.09518 18.5953 6.02378 17.8389 6.08593 17.1367L6.08598 17.1367H6.08593V17.1367C5.53308 17.5126 4.89488 17.7752 4.22098 17.9051C4.36858 17.1764 4.63013 16.5019 4.98743 15.9266C5.00913 15.9246 5.00298 15.9015 4.98748 15.9266C4.86053 15.938 4.73413 15.9441 4.60588 15.9441C4.09658 15.9453 3.57828 15.8602 3.07143 15.6858C3.50593 15.109 4.02293 14.6318 4.58653 14.2878C4.01298 14.0109 3.47093 13.5855 2.99303 13.0325C3.51018 12.7779 4.04933 12.6146 4.58133 12.5489C4.71378 12.5318 4.84708 12.5224 4.98018 12.5186C4.99488 12.5415 5.00828 12.5178 4.98013 12.5186C4.59683 11.923 4.30108 11.1783 4.11933 10.3187C4.86723 10.3817 5.57183 10.6112 6.17123 10.9841V10.9841C6.17263 11.0097 6.19343 10.9979 6.17123 10.9841V10.9841C6.12273 10.1415 6.22823 9.16821 6.49988 8.11271C7.15248 8.66826 7.66403 9.36151 7.99588 10.1189L7.99548 10.1198L7.99588 10.1207Z" fill="#006FBA"/>
<path fill-rule="evenodd" clip-rule="evenodd" d="M10.0119 10.322C10.0114 10.3258 10.0109 10.3296 10.0103 10.3334C9.33283 10.8976 8.79583 11.5038 8.42123 12.1222C8.42548 11.4513 8.27933 10.7684 7.99568 10.1207C7.66578 10.8703 7.47418 11.5875 7.43013 12.2436C7.12758 11.7371 6.69373 11.3091 6.17103 10.9842C6.21033 11.6904 6.35878 12.3186 6.61168 12.8389C6.12048 12.6049 5.56338 12.5007 4.97993 12.5187C4.97333 12.5084 4.96028 12.5098 4.94233 12.5199C4.95488 12.5195 4.96738 12.519 4.97993 12.5187C5.30708 13.029 5.70433 13.4386 6.15593 13.7189C5.62098 13.7822 5.08613 13.9821 4.58638 14.2878C5.08613 14.5305 5.61528 14.6596 6.14323 14.657C5.69288 14.9819 5.30163 15.4179 4.98728 15.9266C5.54293 15.8765 6.07968 15.7143 6.56018 15.4412C6.29883 15.9495 6.14103 16.5263 6.08578 17.1367C6.57993 16.8022 7.00093 16.382 7.31673 15.895C7.32098 16.4755 7.45743 17.0713 7.71158 17.6573C8.01453 17.0903 8.20153 16.4881 8.25238 15.8918C8.55493 16.4004 8.99993 16.866 9.56318 17.2669C9.54948 16.5835 9.40738 15.9414 9.13718 15.3906C9.69913 15.6761 10.3869 15.8508 11.1729 15.9051C10.7677 15.3024 10.2711 14.8193 9.71623 14.4933C10.4054 14.4347 11.1655 14.2122 11.9588 13.8325C11.2216 13.544 10.4802 13.4108 9.78358 13.438C10.4007 13.0239 10.9953 12.44 11.5332 11.7137C10.6839 11.8817 9.92668 12.1673 9.29788 12.5557C9.65228 11.9102 9.89463 11.1538 10.0103 10.3334C10.0133 10.3309 10.0137 10.3271 10.0119 10.322Z" fill="white"/>
</svg>
