<svg width="24" height="24" viewBox="0 0 24 24" fill="none" xmlns="http://www.w3.org/2000/svg">
<path d="M7.24607 8.33181V15.1111C11.5897 15.0289 15.9333 13.3674 20.2772 8.18117L20.2586 0.422729C16.3237 5.1534 12.0606 8.17638 7.24607 8.33181Z" fill="#3F3D8A"/>
<path d="M16.4862 20.6941C16.4862 22.3005 15.176 23.6107 13.5695 23.6107C11.9631 23.6107 10.6529 22.3005 10.6529 20.6941C10.6529 19.0875 11.9631 17.7773 13.5695 17.7773C15.176 17.7773 16.4862 19.0875 16.4862 20.6941Z" fill="#3F3D8A"/>
<path fill-rule="evenodd" clip-rule="evenodd" d="M16.3604 8.92224V15.7015C11.546 15.8569 7.28279 18.8799 3.34785 23.6106L3.32927 15.8522C7.67318 10.6659 12.0168 9.00438 16.3604 8.92224Z" fill="#AFB2AE"/>
</svg>
