<svg width="24" height="24" viewBox="0 0 24 24" fill="none" xmlns="http://www.w3.org/2000/svg">
<path d="M16.1601 23.5L23.198 23.5V6.29878C23.198 5.41205 23.0828 4.50834 22.6371 3.74166C19.7809 -1.17187 12.2176 0.0390415 11.198 3.79341C12.8641 2.76822 14.2753 2.79939 15.2511 3.65332C16.0473 4.35005 16.1601 5.50448 16.1601 6.56229V23.5Z" fill="#2D2A68"/>
<path d="M7.9549 0.500013L0.917019 0.500001L0.917017 17.7012C0.917017 18.5879 1.03225 19.4917 1.47792 20.2583C4.33416 25.1719 11.8974 23.961 12.917 20.2066C11.2509 21.2318 9.83973 21.2006 8.8639 20.3467C8.0677 19.6499 7.9549 18.4955 7.9549 17.4377L7.9549 0.500013Z" fill="#2D2A68"/>
<circle cx="12.0201" cy="12.1069" r="3.99105" fill="#2D2A68"/>
</svg>
