<svg width="24" height="24" viewBox="0 0 24 24" fill="none" xmlns="http://www.w3.org/2000/svg">
<path fill-rule="evenodd" clip-rule="evenodd" d="M11.9402 21.1023C10.9494 21.1068 9.98905 21.339 9.0475 21.7656C9.00566 22.2472 8.63681 22.5378 7.93984 22.6369C7.40914 22.6298 6.87679 22.5103 6.34168 22.2786C6.00697 22.1774 5.73226 21.6148 5.39314 20.9219C5.05501 20.2309 4.66326 19.4095 4.31573 18.7837C4.23868 18.6472 4.23494 18.4813 4.30578 18.3415C4.5129 17.9292 4.85278 17.7644 5.24883 17.8647C5.35152 17.8905 5.43818 17.9591 5.4868 18.0532C5.54506 18.1657 5.61995 18.3105 5.61995 18.3105C6.04385 18.4497 6.47601 18.562 6.92633 18.6166L6.98194 18.5703C6.96983 18.5632 6.95826 18.5549 6.9467 18.5478C4.38404 16.9336 2.65707 14.1218 2.59981 10.905C2.50898 5.80806 6.64117 1.57582 11.7984 1.48391C11.8536 1.48292 11.9087 1.48242 11.9636 1.48242L12.0048 1.48253C12.0461 1.4827 12.0873 1.48319 12.1287 1.48391C17.286 1.57582 21.4182 5.80806 21.3274 10.905C21.2701 14.1218 19.5431 16.9336 16.9805 18.5478C16.9689 18.5549 16.9573 18.5632 16.9452 18.5703L17.0008 18.6166C17.4512 18.562 17.8833 18.4497 18.3072 18.3105C18.3072 18.3105 18.3821 18.1657 18.4403 18.0532C18.489 17.9591 18.5756 17.8905 18.6783 17.8647C19.0744 17.7644 19.4142 17.9292 19.6214 18.3415C19.6922 18.4813 19.6885 18.6472 19.6114 18.7837C19.2639 19.4095 18.8722 20.2309 18.534 20.9219C18.1949 21.6148 17.9202 22.1774 17.5855 22.2786C17.0504 22.5103 16.518 22.6298 15.9873 22.6369C15.2904 22.5378 14.9215 22.2472 14.8797 21.7656C13.9307 21.3357 12.9626 21.1032 11.9636 21.1022L11.9402 21.1023ZM5.75648 18.6754C5.75648 18.6754 6.00461 19.3597 6.13805 19.6983C6.31064 20.1362 6.79201 21.3028 6.79201 21.3028C6.90486 21.5791 7.13388 21.7877 6.54372 22.0981C6.55088 22.119 6.55804 22.1393 6.56575 22.1668C6.92744 22.2852 7.25444 22.3969 7.59356 22.3909C7.6343 22.3694 7.67559 22.3546 7.71027 22.3403L6.0934 19.0062C5.92329 18.6556 5.8776 18.6369 5.75648 18.6754ZM18.1707 18.6754C18.1707 18.6754 17.9226 19.3597 17.7891 19.6983C17.6165 20.1362 17.1352 21.3028 17.1352 21.3028C17.0223 21.5791 16.7933 21.7877 17.3834 22.0981C17.3763 22.119 17.3691 22.1393 17.3614 22.1668C16.9997 22.2852 16.6727 22.3969 16.3336 22.3909C16.2929 22.3694 16.2516 22.3546 16.2169 22.3403L17.8338 19.0062C18.0039 18.6556 18.0496 18.6369 18.1707 18.6754ZM15.9743 18.3005C14.8382 17.6838 13.4051 17.4408 11.9636 17.4814L11.9148 17.4801C9.84955 17.4311 7.80822 17.9666 6.64007 19.3512C6.61804 19.5328 7.67944 21.5532 7.90185 21.846C8.0004 21.9413 8.03508 21.9544 8.11877 21.9666C9.09798 21.1361 10.5277 20.7847 11.9636 20.8044L11.9972 20.804C13.4218 20.7902 14.8368 21.1426 15.8084 21.9666C15.8921 21.9544 15.9268 21.9413 16.0253 21.846C16.2477 21.5532 17.3091 19.5328 17.2871 19.3512C16.932 18.9303 16.4962 18.5879 16.0035 18.3165C15.9958 18.3281 15.9795 18.3458 15.9545 18.3697C15.8896 18.4311 15.8177 18.4879 15.7391 18.5397C15.66 18.5921 15.5793 18.6338 15.497 18.6661L15.2921 18.7504C15.2229 18.7712 15.1527 18.7925 15.0819 18.8137C15.0116 18.8355 14.941 18.8536 14.8699 18.8686C14.8649 18.87 14.8601 18.8713 14.8556 18.8725C14.8535 18.8761 14.851 18.8799 14.8481 18.8837C14.8362 18.9025 14.8244 18.9198 14.8131 18.936C14.8018 18.9523 14.7906 18.969 14.7792 18.9863C14.7457 19.0398 14.7133 19.0933 14.6813 19.1474L14.6291 19.2423C14.5914 19.3082 14.5577 19.3763 14.5286 19.4472C14.4995 19.5182 14.4725 19.5888 14.4471 19.6594L14.4466 19.6604C14.4146 19.7492 14.4021 19.8195 14.409 19.8714C14.4159 19.9234 14.4452 19.9588 14.4969 19.9774C14.5156 19.9842 14.5331 19.9847 14.5494 19.9791C14.5656 19.9734 14.5806 19.9646 14.5946 19.9529C14.6086 19.9411 14.6214 19.9276 14.6331 19.9124C14.6448 19.8971 14.6548 19.883 14.663 19.8701C14.6778 19.8488 14.6892 19.8405 14.6972 19.8452C14.7053 19.8498 14.7059 19.8616 14.6992 19.8804C14.6807 19.9215 14.6562 19.9685 14.6258 20.0212C14.5952 20.0739 14.561 20.1222 14.523 20.166C14.4851 20.2098 14.4454 20.2437 14.404 20.2678C14.3626 20.2917 14.3215 20.2965 14.2808 20.2817C14.237 20.2659 14.2069 20.2413 14.1905 20.208C14.1743 20.1747 14.1659 20.1376 14.1656 20.0968C14.1653 20.056 14.1708 20.0151 14.1821 19.974C14.1934 19.9329 14.2044 19.8976 14.2151 19.8678L14.2154 19.8674C14.2339 19.8208 14.255 19.7727 14.2783 19.7221C14.3018 19.6713 14.3246 19.6215 14.3458 19.5722C14.3568 19.5518 14.3617 19.5373 14.361 19.53C14.3598 19.5225 14.3453 19.5292 14.3171 19.5488C14.2398 19.606 14.1635 19.6547 14.0886 19.6962C14.0138 19.7372 13.9335 19.7696 13.849 19.7939C13.7239 19.8303 13.5956 19.8483 13.464 19.8478C13.3323 19.8473 13.2003 19.8326 13.0668 19.8041C12.9635 19.7824 12.8589 19.7543 12.7541 19.7188C12.6488 19.684 12.5412 19.64 12.431 19.588C12.3822 19.5652 12.3398 19.5406 12.3028 19.5153C12.2662 19.4895 12.2367 19.4597 12.2148 19.4251C12.1928 19.3905 12.1785 19.3499 12.1723 19.3035C12.1662 19.257 12.1709 19.2022 12.1865 19.1389C12.1973 19.0986 12.2125 19.0574 12.2313 19.0152C12.2495 18.9736 12.2703 18.9338 12.2931 18.896C12.3136 18.8624 12.3301 18.848 12.3419 18.8522C12.3532 18.8564 12.3537 18.879 12.3429 18.9188C12.3332 18.9562 12.3305 18.9906 12.3348 19.0223C12.339 19.054 12.3523 19.0835 12.3746 19.1113C12.4302 19.1774 12.497 19.2288 12.5749 19.2656C12.6529 19.3023 12.7315 19.336 12.8108 19.3666C13.0977 19.4789 13.4147 19.5402 13.7615 19.55C13.8317 19.5523 13.9006 19.5488 13.9681 19.54C14.0362 19.5307 14.1021 19.5128 14.1669 19.4866C14.2658 19.4478 14.3486 19.3941 14.4149 19.3254C14.4811 19.2562 14.4978 19.2429 14.5526 19.1512C14.5641 19.1291 14.5771 19.1104 14.5915 19.0948C14.6058 19.0797 14.6196 19.0652 14.634 19.0507C14.6671 19.0166 14.7001 18.9836 14.7321 18.9506C14.7563 18.9264 14.7812 18.9026 14.8072 18.8792C14.8028 18.8758 14.8122 18.8622 14.8358 18.8381C14.8664 18.8118 14.897 18.7849 14.9273 18.757C14.958 18.7291 14.9921 18.7066 15.0295 18.6901C15.0612 18.6769 15.1029 18.66 15.1553 18.64C15.2012 18.6222 15.4295 18.5412 15.4974 18.514C15.6333 18.4592 15.7679 18.3985 15.9017 18.332C15.9168 18.3249 15.9333 18.3173 15.9526 18.3088C15.9605 18.3054 15.9677 18.3026 15.9743 18.3005ZM6.46009 21.9213C6.5394 21.8836 6.65658 21.8196 6.65383 21.6814C6.47986 21.6292 6.25856 21.6192 6.17323 21.8972C6.25841 21.9597 6.39751 21.951 6.46009 21.9213ZM17.4671 21.9213C17.3877 21.8836 17.2706 21.8196 17.2733 21.6814C17.4473 21.6292 17.6686 21.6192 17.7539 21.8972C17.6687 21.9597 17.5297 21.951 17.4671 21.9213ZM5.1922 18.0766C4.79168 17.95 4.49029 18.2648 4.57067 18.5846L6.07444 21.6881C6.22425 21.5039 6.37225 21.4852 6.51895 21.4762L5.1922 18.0766ZM18.735 18.0766C19.1355 17.95 19.4369 18.2648 19.3565 18.5846L17.8527 21.6881C17.7029 21.5039 17.5549 21.4852 17.4082 21.4762L18.735 18.0766ZM14.6186 20.8753C14.6271 20.8518 14.6642 20.8103 14.7298 20.7508C14.7956 20.6913 14.8348 20.6639 14.8473 20.6684C14.888 20.6831 14.9202 20.7164 14.944 20.7684C14.9677 20.8203 14.9728 20.865 14.9592 20.9026C14.9468 20.937 14.9135 20.9742 14.8593 21.014C14.8051 21.0536 14.7679 21.0698 14.7475 21.0625C14.7381 21.0591 14.7128 21.0288 14.6715 20.9714C14.6573 20.9521 14.643 20.9328 14.6287 20.9135C14.618 20.899 14.6147 20.8862 14.6186 20.8753ZM8.86951 20.914C8.86825 20.9058 8.88416 20.8599 8.91724 20.7763C8.95039 20.6927 8.9718 20.65 8.98171 20.6485C9.00962 20.6441 9.04524 20.6561 9.08857 20.6846C9.13217 20.7148 9.15639 20.7454 9.16134 20.7768C9.16707 20.8129 9.15545 20.862 9.1265 20.9239C9.09726 20.9841 9.07442 21.0156 9.05801 21.0182C9.04975 21.0194 9.03638 21.0144 9.01766 21.003C8.99905 20.9917 8.98033 20.9798 8.96151 20.9677C8.93993 20.9593 8.91967 20.9512 8.90067 20.9432C8.88174 20.9352 8.87133 20.9255 8.86951 20.914ZM8.64055 20.6343C8.63846 20.6211 8.65558 20.5695 8.69186 20.4795C8.7282 20.3895 8.75126 20.3437 8.76112 20.3421C8.78253 20.3387 8.81611 20.3486 8.86192 20.3716C8.90607 20.395 8.93767 20.4186 8.95661 20.4426C8.97389 20.4028 8.992 20.3628 9.01094 20.3228C9.03742 20.2663 9.05394 20.2376 9.06049 20.2365C9.09011 20.2318 9.12914 20.2442 9.17764 20.2736C9.22664 20.3063 9.25389 20.3398 9.25939 20.3743C9.26567 20.4139 9.25113 20.4658 9.2159 20.5304C9.18144 20.5898 9.15518 20.621 9.13712 20.6239C9.12391 20.626 9.10139 20.6169 9.06957 20.5966C9.02438 20.5667 8.98727 20.5456 8.95837 20.5333C8.91273 20.6603 8.87106 20.7267 8.83318 20.7327C8.82663 20.7337 8.79305 20.7188 8.73249 20.688C8.67199 20.6571 8.64132 20.6392 8.64055 20.6343ZM15.4585 19.1257C15.4605 19.1237 15.4626 19.1218 15.4646 19.1199C15.4727 19.1121 15.4792 19.1075 15.4843 19.1057C15.4893 19.104 15.4915 19.1066 15.4908 19.1134C15.49 19.1203 15.4834 19.1338 15.4708 19.154C15.3945 19.2822 15.3229 19.4143 15.2561 19.5504C15.0768 19.9154 15.2072 19.6477 15.1148 19.8764C15.0826 19.9656 15.0699 20.0363 15.0768 20.0883C15.0837 20.1403 15.113 20.1757 15.1647 20.1944C15.1835 20.2011 15.201 20.2017 15.2172 20.196C15.2334 20.1904 15.2485 20.1816 15.2625 20.1699C15.2764 20.1581 15.2893 20.1446 15.301 20.1294C15.3127 20.1141 15.3226 20.1 15.3308 20.0871C15.3456 20.0658 15.357 20.0575 15.365 20.0622C15.3731 20.0669 15.3738 20.0786 15.367 20.0974C15.3486 20.1385 15.3241 20.1855 15.2936 20.2382C15.2631 20.2909 15.2288 20.3392 15.1909 20.383C15.1529 20.4267 15.1132 20.4607 15.0719 20.4847C15.0304 20.5087 14.9894 20.5134 14.9487 20.4987C14.9048 20.4829 14.8747 20.4583 14.8584 20.425C14.8421 20.3917 14.8338 20.3546 14.8335 20.3138C14.8332 20.273 14.8387 20.232 14.8499 20.191C14.8612 20.1499 14.8722 20.1145 14.883 20.0847L14.8869 20.0812C14.914 20.0068 14.9565 19.9126 15.014 19.7989C15.144 19.5418 14.9509 19.9123 15.205 19.4271C15.2271 19.3855 15.2538 19.3456 15.2854 19.3074C15.3038 19.2858 15.3262 19.2606 15.3524 19.2321C15.3786 19.2034 15.4079 19.1738 15.4403 19.143C15.4423 19.141 15.4444 19.1391 15.4464 19.1372L15.4585 19.1257ZM10.0309 19.3392C10.1712 19.3204 10.3074 19.2962 10.4393 19.2669C10.5712 19.2375 10.7011 19.1959 10.8291 19.1419C10.9428 19.0935 11.0523 19.0369 11.1576 18.9722C11.2627 18.9075 11.3636 18.8389 11.46 18.7663C11.5955 18.6639 11.7222 18.5566 11.8401 18.4444C11.958 18.3322 12.0788 18.2191 12.2023 18.1051C12.239 18.0706 12.2759 18.0378 12.3132 18.0067C12.3503 17.9754 12.3904 17.9464 12.4334 17.9193C12.4732 17.8945 12.5016 17.887 12.5183 17.8969C12.535 17.9069 12.5356 17.9318 12.52 17.9713C12.5096 18.0016 12.4985 18.0329 12.4868 18.0651C12.475 18.0973 12.4613 18.1273 12.4454 18.155C12.4377 18.1697 12.429 18.1816 12.4195 18.1907C12.41 18.1998 12.3975 18.209 12.3821 18.2182C12.3604 18.2301 12.3297 18.2543 12.2899 18.2909C12.2502 18.3276 12.1997 18.3752 12.1381 18.4338C12.0664 18.5025 11.9949 18.5724 11.9235 18.6435C11.8522 18.7147 11.7794 18.7848 11.7053 18.8538C11.6311 18.923 11.5557 18.9901 11.4792 19.0553C11.4027 19.1205 11.3235 19.1815 11.2415 19.2383C10.8971 19.48 10.5127 19.6345 10.0884 19.7017C9.97963 19.7172 9.88638 19.73 9.8087 19.7397C9.73097 19.7495 9.6649 19.7529 9.61046 19.7497C9.55078 19.7456 9.4916 19.739 9.43281 19.7298C9.37401 19.7206 9.31692 19.706 9.26148 19.6862C9.23996 19.6777 9.22284 19.6712 9.21034 19.6664C9.19779 19.6617 9.18645 19.6593 9.17632 19.6592C9.16619 19.6591 9.15672 19.6632 9.14791 19.6712C9.13905 19.6794 9.12771 19.6931 9.11389 19.712C9.10145 19.7292 9.08851 19.749 9.07524 19.7713C9.06192 19.7936 9.04596 19.8206 9.0274 19.8521C8.99212 19.9066 8.94769 19.9479 8.89396 19.9758C8.84023 20.0035 8.78055 20.0126 8.71493 20.0028C8.67854 19.9968 8.64551 19.9902 8.61567 19.9832C8.58594 19.9761 8.55236 19.9772 8.51504 19.9865C8.48101 19.9952 8.44837 20.0072 8.41704 20.0222C8.38572 20.0373 8.35544 20.0589 8.32615 20.0872C8.28206 20.1279 8.25299 20.1464 8.2389 20.1428C8.2248 20.139 8.23212 20.1105 8.2607 20.0571C8.29296 19.9947 8.33094 19.9339 8.37465 19.8748C8.41842 19.8155 8.46775 19.7623 8.52252 19.7148C8.55065 19.6901 8.58121 19.6672 8.61402 19.6459C8.64694 19.6247 8.68256 19.6127 8.72087 19.61C8.75269 19.6084 8.7844 19.6117 8.81611 19.6202C8.84777 19.6287 8.87986 19.6345 8.91246 19.6378C8.94851 19.6422 8.98033 19.6381 9.00781 19.6252C9.03528 19.6125 9.05966 19.5934 9.08097 19.5681C9.10552 19.5423 9.12732 19.5153 9.14648 19.4869C9.16558 19.4586 9.18463 19.4303 9.20384 19.402C9.23148 19.3639 9.2578 19.3383 9.28262 19.325C9.30751 19.3119 9.34522 19.3105 9.39581 19.321C9.51037 19.3416 9.61723 19.3538 9.71643 19.3574C9.81564 19.3611 9.92051 19.355 10.0309 19.3392ZM14.883 19.1133C14.891 19.0914 14.9277 19.0506 14.9935 18.9911C15.0592 18.9317 15.0983 18.9042 15.1109 18.9087C15.1516 18.9234 15.1838 18.9567 15.2076 19.0086C15.2313 19.0606 15.2364 19.1053 15.2228 19.1429C15.2104 19.1773 15.1772 19.214 15.1233 19.253C15.0695 19.292 15.0323 19.3078 15.012 19.3004C15.0026 19.2971 14.9772 19.2667 14.936 19.2093C14.9211 19.1916 14.9066 19.1731 14.8923 19.1537C14.8821 19.1377 14.8791 19.1242 14.883 19.1133ZM12.007 1.98721C12.0505 1.98737 12.094 1.98781 12.1376 1.98858C14.5802 2.03206 16.7801 3.05793 18.359 4.67818C19.9373 6.29793 20.8946 8.51141 20.8517 10.9303C20.8236 12.4883 20.3838 13.9473 19.6367 15.206C18.893 16.4591 17.9301 17.4778 16.6881 18.2318C16.6595 18.2495 16.6309 18.2676 16.6017 18.2852L16.7014 18.3677C16.7278 18.3512 16.7537 18.3342 16.7806 18.3177C19.2805 16.7596 20.9684 14.0277 21.024 10.8994C21.1121 5.96772 17.1137 1.87301 12.1232 1.78391C12.0832 1.78319 12.0433 1.78275 12.0035 1.78253L11.9636 1.78248C11.9105 1.78248 11.8572 1.78297 11.8039 1.78391C6.81348 1.87301 2.81506 5.96772 2.90315 10.8994C2.95875 14.0277 4.64664 16.7596 7.14654 18.3177C7.17352 18.3342 7.19939 18.3512 7.22576 18.3677L7.32546 18.2852C7.29628 18.2676 7.26766 18.2495 7.23903 18.2318C5.99706 17.4778 5.0342 16.4591 4.29045 15.206C3.5434 13.9473 3.10354 12.4883 3.07546 10.9303C3.03252 8.51141 3.98987 6.29793 5.56821 4.67818C7.14709 3.05793 9.34698 2.03206 11.7896 1.98858C11.8477 1.98754 11.9057 1.9871 11.9636 1.98715L12.007 1.98721ZM17.375 4.53145C17.3815 4.51791 17.3881 4.50448 17.3951 4.49127L17.398 4.48572L17.442 4.40613C17.4647 4.42622 17.4874 4.44637 17.5101 4.46651C17.5355 4.48962 17.5597 4.51428 17.5829 4.53965C17.6119 4.57141 17.6395 4.60448 17.6655 4.63872C17.7696 4.77575 17.8509 4.93349 17.886 5.10261L17.8892 5.09601L17.892 5.09039L17.9338 5.00966C17.957 5.02914 17.9802 5.04862 18.0034 5.0681C18.0295 5.09056 18.0544 5.1145 18.0783 5.13921C18.1081 5.17019 18.1366 5.2025 18.1636 5.23602C18.2561 5.35104 18.3322 5.4817 18.377 5.62264L18.3753 5.62121L18.4459 5.6785C18.4724 5.70052 18.4976 5.72402 18.522 5.74834C18.5524 5.77878 18.5814 5.81059 18.6089 5.84367C18.7298 5.9889 18.8243 6.16029 18.861 6.34697C18.862 6.35214 18.863 6.35731 18.8639 6.36249L18.8823 6.32963C18.9049 6.34988 18.9274 6.37014 18.95 6.39044C18.9753 6.41378 18.9993 6.43849 19.0223 6.46408C19.0512 6.496 19.0785 6.52924 19.1043 6.56364C19.2177 6.71488 19.3034 6.89088 19.3305 7.07916C19.3475 7.1971 19.3416 7.31719 19.3193 7.43414L19.3197 7.43348C19.3498 7.38455 19.3829 7.33744 19.4193 7.29314L19.4233 7.2883L19.4827 7.21939C19.5007 7.24372 19.5188 7.26804 19.5369 7.29237C19.5571 7.32022 19.5757 7.34922 19.5933 7.37883C19.6152 7.41581 19.6354 7.45384 19.6539 7.49264C19.7351 7.66331 19.7843 7.85274 19.7737 8.04261C19.771 8.08961 19.7649 8.13617 19.7556 8.18213L19.8275 8.11735C19.8423 8.14377 19.8572 8.17019 19.8721 8.1966C19.8885 8.22682 19.9033 8.25797 19.9169 8.28956C19.9339 8.32907 19.9492 8.36936 19.9626 8.4102C20.0214 8.58978 20.046 8.78394 20.0112 8.97096C20.0016 9.0228 19.9876 9.0736 19.9699 9.12313C19.9803 9.11482 19.9909 9.10667 20.0017 9.09869L20.0068 9.09501L20.081 9.04256C20.0927 9.07051 20.1043 9.09853 20.1159 9.12649C20.1288 9.15846 20.1398 9.1911 20.1496 9.22406C20.1619 9.26529 20.1723 9.30706 20.1808 9.34922C20.2181 9.53446 20.2198 9.73017 20.1633 9.91179C20.1387 9.99104 20.1036 10.0665 20.0608 10.1374C20.0788 10.1254 20.0971 10.1139 20.1156 10.103L20.1211 10.0998L20.2003 10.0553C20.209 10.0844 20.2177 10.1134 20.2264 10.1424C20.2358 10.1755 20.2434 10.2091 20.2498 10.243C20.2578 10.2853 20.2638 10.3279 20.2678 10.3707C20.2857 10.5588 20.2672 10.7537 20.1922 10.9285C20.1462 11.0356 20.0807 11.133 20.003 11.2197L20.0058 11.2181C20.06 11.1871 20.1162 11.1596 20.1743 11.1368L20.1801 11.1346L20.2656 11.1033C20.2695 11.1334 20.2734 11.1634 20.2773 11.1935C20.2814 11.2276 20.2835 11.262 20.2843 11.2965C20.2854 11.3395 20.2845 11.3825 20.2817 11.4254C20.2693 11.614 20.2198 11.8033 20.1178 11.9639C20.0532 12.0655 19.9696 12.1536 19.8754 12.2283C19.9272 12.2101 19.98 12.1948 20.0336 12.1834L20.0398 12.1822L20.1292 12.1653C20.1281 12.1956 20.1271 12.2259 20.126 12.2561C20.1244 12.2905 20.1208 12.3248 20.1161 12.3589C20.1102 12.4015 20.1022 12.4438 20.0924 12.4857C20.0494 12.6697 19.9695 12.8484 19.8426 12.9902C19.7274 13.1189 19.5779 13.2138 19.4189 13.2793C19.3806 13.2951 19.3415 13.3094 19.3018 13.3218C19.3017 13.3362 19.3013 13.3507 19.3007 13.3651C19.3771 13.327 19.4578 13.2973 19.5399 13.2749C19.6168 13.254 19.6958 13.2389 19.7753 13.2322L19.7816 13.2318L19.8724 13.2262C19.8675 13.2561 19.8627 13.286 19.8579 13.316C19.852 13.3499 19.8441 13.3834 19.8352 13.4167C19.8239 13.4582 19.8107 13.4992 19.7958 13.5395C19.73 13.7166 19.6285 13.8839 19.4848 14.0087C19.3544 14.122 19.1943 14.1975 19.0283 14.2427C18.9771 14.2566 18.9249 14.268 18.8723 14.2759C18.868 14.3007 18.863 14.3252 18.8572 14.3496C18.9394 14.3266 19.0242 14.3127 19.1091 14.3063C19.1386 14.304 19.1681 14.3029 19.1977 14.3024C19.2089 14.3023 19.22 14.3022 19.2311 14.3023C19.2703 14.3028 19.3094 14.3047 19.3484 14.3089L19.3546 14.3096L19.4448 14.3214C19.4337 14.3518 19.4228 14.3823 19.4113 14.4126C19.3822 14.4869 19.3453 14.5583 19.3032 14.626C19.2092 14.7775 19.0858 14.9138 18.9325 15.0067C18.7793 15.0997 18.6014 15.1463 18.4236 15.1598C18.3934 15.1621 18.363 15.1635 18.3325 15.1638C18.3298 15.1713 18.3269 15.1786 18.3239 15.186C18.3698 15.1802 18.4163 15.1772 18.4625 15.1763C18.4727 15.1762 18.4829 15.1762 18.4931 15.1763C18.5126 15.1765 18.5322 15.177 18.5516 15.178C18.6016 15.1805 18.6514 15.1857 18.7007 15.1934C18.7394 15.1995 18.7779 15.2072 18.8158 15.2169L18.8219 15.2186L18.9094 15.2433C18.894 15.2718 18.8788 15.3004 18.8631 15.3287C18.8235 15.398 18.7765 15.4632 18.7251 15.5242C18.6102 15.6604 18.4682 15.7773 18.303 15.8471C18.1761 15.9007 18.0388 15.925 17.9013 15.9278C17.9546 15.9322 18.0077 15.9397 18.0601 15.9501C18.1133 15.9608 18.1659 15.9742 18.2173 15.9915L18.2233 15.9936L18.3087 16.0246C18.2912 16.0519 18.2741 16.0794 18.2563 16.1064C18.2118 16.1726 18.1602 16.2343 18.1045 16.2914C17.9799 16.4188 17.8299 16.5251 17.6601 16.5827C17.5869 16.6075 17.511 16.6229 17.4342 16.6304C17.4318 16.6298 17.5048 16.6484 17.5429 16.6612L17.5488 16.6633L17.6343 16.6943C17.6169 16.7216 17.5996 16.7491 17.5818 16.7762C17.5373 16.8424 17.4858 16.904 17.4301 16.961C17.3055 17.0885 17.1554 17.1948 16.9857 17.2524C16.8159 17.31 16.6321 17.3169 16.4557 17.2915C16.4186 17.2862 16.3816 17.2795 16.3449 17.2712C16.3389 17.2849 16.3327 17.2984 16.3262 17.3118C16.3403 17.311 16.3544 17.3105 16.3685 17.3102C16.3795 17.3101 16.3905 17.31 16.4014 17.3101C16.4874 17.311 16.573 17.3202 16.6574 17.337C16.7105 17.3476 16.7631 17.3611 16.8145 17.3784L16.8204 17.3804L16.9059 17.4114C16.8885 17.4387 16.8713 17.4662 16.8535 17.4933C16.809 17.5595 16.7575 17.6211 16.7017 17.6782C16.5772 17.8057 16.427 17.9119 16.2573 17.9695C16.1737 17.9979 16.0866 18.014 15.9987 18.0199C16.1293 18.0828 16.2632 18.1495 16.4019 18.2202C16.4547 18.1895 16.5065 18.1576 16.5588 18.1256C17.7716 17.3821 18.79 16.354 19.5145 15.1333C20.2489 13.8961 20.6816 12.4608 20.7091 10.9275C20.7515 8.54773 19.8096 6.37052 18.2566 4.77669C16.7036 3.18346 14.5389 2.17405 12.1348 2.13118C12.0919 2.13041 12.0491 2.12997 12.0063 2.12981L11.9636 2.12975C11.9066 2.1297 11.8495 2.13014 11.7924 2.13118C9.38827 2.17405 7.22361 3.18346 5.67055 4.77669C4.11754 6.37052 3.17565 8.54773 3.21804 10.9275C3.24557 12.4608 3.67828 13.8961 4.41267 15.1333C5.13715 16.354 6.15561 17.3821 7.3684 18.1256C7.42064 18.1576 7.47245 18.1895 7.5253 18.2202C7.63748 18.163 7.74657 18.1084 7.85325 18.0564C7.78192 18.0413 7.7117 18.0211 7.64331 17.995C7.40195 17.9032 7.19009 17.7445 7.01446 17.557C6.97555 17.5155 6.93832 17.4724 6.90289 17.4278C6.86692 17.3826 6.83283 17.3359 6.80138 17.2875L6.76502 17.2281C6.68326 17.2026 6.60367 17.1703 6.52751 17.1306C6.32128 17.0231 6.1457 16.8635 6.00265 16.6814C5.979 16.6513 5.95621 16.6205 5.93426 16.5892C5.89775 16.537 5.86358 16.4832 5.83195 16.4279C5.8068 16.3839 5.78316 16.339 5.76216 16.293L5.75984 16.2877L5.72539 16.208C5.74057 16.2049 5.75573 16.2018 5.77091 16.1987C5.64408 16.1398 5.52457 16.0656 5.41852 15.9741C5.24243 15.8222 5.10809 15.6266 5.01058 15.4166C4.99446 15.3818 4.97933 15.3467 4.96515 15.3111C4.94157 15.252 4.92064 15.1917 4.90253 15.1307C4.88812 15.0822 4.87541 15.0331 4.86553 14.9834L4.86447 14.9778L4.84912 14.8922C4.87808 14.8931 4.90703 14.894 4.93599 14.8949C4.9427 14.8952 4.94941 14.8955 4.95612 14.8959C4.7868 14.7876 4.6337 14.6526 4.51595 14.4892C4.37998 14.3006 4.29478 14.0791 4.24877 13.8522C4.24116 13.8147 4.23461 13.777 4.2291 13.7391C4.21992 13.6761 4.21355 13.6127 4.21012 13.5491C4.2074 13.4985 4.20644 13.4478 4.20838 13.3972L4.20866 13.3915L4.21362 13.3048C4.24156 13.3123 4.2695 13.3199 4.29744 13.3275C4.34345 13.3404 4.38865 13.3564 4.4332 13.3736C4.47271 13.3888 4.51176 13.4053 4.55026 13.423C4.53543 13.4132 4.52074 13.4033 4.50617 13.3931C4.47475 13.3713 4.4439 13.3486 4.41373 13.325C4.2312 13.1825 4.07114 13.0074 3.96305 12.8015C3.85496 12.5956 3.80171 12.3645 3.78806 12.1332C3.7858 12.0951 3.78463 12.0568 3.78449 12.0185C3.78426 11.9548 3.78688 11.8911 3.79243 11.8277C3.79684 11.7772 3.80303 11.7269 3.81207 11.6771L3.81315 11.6714L3.83027 11.5862C3.85687 11.5977 3.88347 11.6091 3.91007 11.6206C3.9538 11.6399 3.99628 11.662 4.03796 11.6853C4.09 11.7144 4.1831 11.7725 4.1796 11.7691C4.15204 11.7425 4.12519 11.7153 4.09913 11.6872C3.9415 11.5175 3.81125 11.3192 3.73719 11.0988C3.66313 10.8784 3.64722 10.6417 3.6704 10.4113C3.67424 10.3733 3.67915 10.3352 3.68508 10.2974C3.69495 10.2345 3.70764 10.1721 3.72318 10.1103C3.73553 10.0612 3.74962 10.0125 3.76645 9.96468L3.76841 9.95928L3.79881 9.87805C3.82326 9.89352 3.8477 9.90898 3.87215 9.92445C3.91227 9.95042 3.95073 9.97899 3.98819 10.0087C4.03932 10.049 4.08851 10.0919 4.13565 10.1369C4.15511 10.1555 4.17422 10.1744 4.19294 10.1937L4.19548 10.188C4.15921 10.1409 4.12497 10.0922 4.09283 10.0422C4.07214 10.01 4.05232 9.97717 4.03344 9.94388C3.91926 9.74244 3.83829 9.51944 3.8171 9.28791C3.79592 9.05631 3.83509 8.82236 3.91085 8.60354C3.92337 8.56738 3.93692 8.53155 3.95142 8.49611C3.97556 8.43722 4.00232 8.37932 4.0317 8.32286C4.05506 8.27789 4.08002 8.23375 4.10743 8.19116L4.11058 8.18631L4.15896 8.11422C4.17916 8.13496 4.19936 8.15566 4.21956 8.17641C4.25262 8.21086 4.28343 8.24757 4.31304 8.28505C4.31692 8.28994 4.32077 8.29484 4.32459 8.2998C4.27009 8.1179 4.24281 7.92742 4.25594 7.73766C4.27198 7.50569 4.348 7.28098 4.4577 7.07701C4.47583 7.04333 4.49492 7.01015 4.51489 6.97745C4.54812 6.92313 4.58378 6.8703 4.62179 6.81917C4.65203 6.77856 4.68372 6.73893 4.71757 6.70123L4.72143 6.69705L4.78067 6.63348C4.79732 6.65715 4.81397 6.68087 4.83063 6.70459C4.85775 6.74394 4.88231 6.78505 4.90556 6.82677L4.90645 6.82836C4.89755 6.65175 4.91393 6.47377 4.96437 6.30398C5.03059 6.08109 5.15374 5.87828 5.30526 5.70316C5.33031 5.67421 5.35617 5.64598 5.38278 5.61846C5.42705 5.57267 5.47337 5.52886 5.52162 5.48725C5.55998 5.45418 5.59955 5.42242 5.6408 5.39303L5.64549 5.38973L5.71717 5.34058C5.72825 5.36739 5.73933 5.39413 5.75041 5.42088C5.75417 5.43024 5.7578 5.43959 5.76132 5.44901C5.78435 5.31191 5.82392 5.17779 5.88351 5.05192C5.98301 4.84174 6.1357 4.66018 6.31219 4.51021C6.34136 4.48544 6.37124 4.4615 6.40174 4.43833C6.45249 4.39986 6.50496 4.36365 6.55898 4.32991C6.60195 4.30305 6.64589 4.27774 6.69115 4.25495L6.6963 4.25248L6.77465 4.21489C6.78151 4.24301 6.78836 4.27113 6.79522 4.29926C6.80614 4.34576 6.81402 4.39304 6.82048 4.44031C6.82928 4.50487 6.83501 4.56987 6.83777 4.63497C6.83891 4.66189 6.83953 4.68874 6.83963 4.71566C6.84272 4.71444 6.84579 4.71318 6.84888 4.71191L6.85228 4.71059C6.88855 4.61978 6.93569 4.53349 6.99528 4.45583C7.01264 4.43321 7.03105 4.41136 7.05042 4.39039C7.16149 4.27025 7.30222 4.17994 7.45201 4.11566C7.52551 4.08412 7.60179 4.05814 7.67982 4.04042L7.68599 4.0391L7.77512 4.021C7.7745 4.05127 7.77388 4.08159 7.77326 4.11186C7.77213 4.14637 7.76905 4.18076 7.76475 4.215C7.75938 4.25781 7.75204 4.30036 7.74281 4.34246C7.70362 4.52132 7.63 4.69568 7.51199 4.83712C7.43377 4.93084 7.33784 5.008 7.23282 5.06992L7.23135 5.0752C7.25609 5.07267 7.28087 5.07063 7.30568 5.06898C7.34411 5.06645 7.38258 5.06513 7.42109 5.06453C7.43678 5.06442 7.43674 5.06442 7.45246 5.06442C7.5081 5.06486 7.56372 5.06695 7.61908 5.07267L7.62476 5.07333L7.71098 5.0839C7.70098 5.11312 7.69119 5.14235 7.68092 5.17146C7.6636 5.21907 7.64357 5.26568 7.62195 5.31147C7.59616 5.36607 7.56798 5.41956 7.53759 5.47173C7.5185 5.50454 7.49853 5.53679 7.47767 5.56849C7.34841 5.76496 7.18389 5.94124 6.98365 6.06656C6.90991 6.11268 6.83207 6.15142 6.75149 6.18351C6.74411 6.21637 6.73545 6.24895 6.72613 6.28125C6.70808 6.34383 6.68704 6.40563 6.66323 6.46628C6.64937 6.50162 6.63457 6.53656 6.6188 6.57107C6.51718 6.79342 6.3745 7.00002 6.1853 7.15676C6.11866 7.21196 6.04707 7.26061 5.97194 7.3031C5.97149 7.31268 5.97097 7.3222 5.97038 7.33172C5.96641 7.39677 5.95934 7.46166 5.94933 7.52605C5.94351 7.56353 5.93667 7.60084 5.92881 7.63794C5.8781 7.87712 5.78388 8.10981 5.6334 8.30403C5.57366 8.38108 5.50594 8.45142 5.43241 8.51515C5.43761 8.5479 5.44157 8.58081 5.44485 8.61372C5.4513 8.67855 5.45466 8.74371 5.45505 8.80887C5.45528 8.84679 5.45449 8.88477 5.45264 8.92263C5.44074 9.16683 5.38487 9.41157 5.26732 9.62726C5.21739 9.71889 5.15721 9.8043 5.08942 9.88339L5.11293 9.9338C5.13273 9.97728 5.14969 10.0221 5.16527 10.0672C5.18653 10.1288 5.20484 10.1914 5.22027 10.2548C5.22925 10.2916 5.23725 10.3287 5.2442 10.366C5.28901 10.6063 5.29116 10.8574 5.22659 11.0944C5.19843 11.1978 5.15824 11.2973 5.10878 11.392L5.13663 11.4331C5.16306 11.4729 5.18692 11.5145 5.20946 11.5566C5.24021 11.614 5.26823 11.6729 5.2935 11.733C5.30822 11.768 5.322 11.8034 5.33478 11.8391C5.41714 12.0692 5.45908 12.3168 5.43291 12.561C5.40913 12.7828 5.3312 12.9963 5.22255 13.1903C5.20385 13.2236 5.18419 13.2565 5.16366 13.2888L5.16027 13.2941C5.1695 13.3029 5.17864 13.3118 5.1877 13.3208C5.19363 13.3069 5.1997 13.2931 5.20592 13.2794C5.23217 13.2214 5.26103 13.1645 5.29243 13.1091C5.31742 13.0651 5.34396 13.0218 5.3729 12.9802L5.37621 12.9756L5.42714 12.9052C5.44659 12.9266 5.46604 12.9481 5.48549 12.9696C5.51727 13.0052 5.54673 13.043 5.57497 13.0815C5.6135 13.1341 5.64952 13.1885 5.68299 13.2444C5.70248 13.2769 5.7211 13.31 5.73877 13.3436C5.85269 13.5599 5.92899 13.7991 5.93741 14.0446C5.93959 14.1084 5.9373 14.172 5.93103 14.2354L5.93665 14.2218C5.96055 14.2381 5.98445 14.2545 6.00835 14.2708C6.04755 14.2981 6.08498 14.3281 6.12139 14.3589C6.17109 14.4012 6.21878 14.4457 6.26433 14.4923C6.29084 14.5194 6.31664 14.5473 6.34163 14.5758C6.5027 14.7598 6.6325 14.9747 6.69775 15.2115C6.7098 15.2553 6.71965 15.2995 6.72743 15.3441C6.7662 15.3602 6.80414 15.3784 6.84149 15.3975C6.89952 15.4271 6.95615 15.4595 7.01116 15.4945C7.04319 15.5148 7.07468 15.536 7.10555 15.5581C7.3007 15.6975 7.47347 15.8728 7.59115 16.083C7.61554 16.1266 7.63747 16.1714 7.65705 16.2172C7.68588 16.2256 7.71446 16.235 7.74279 16.2448C7.80436 16.2663 7.8649 16.2906 7.9242 16.3177C7.95872 16.3335 7.99282 16.3501 8.02643 16.3678C8.24297 16.4813 8.4416 16.635 8.58781 16.8324C8.7228 17.0146 8.81083 17.2283 8.86197 17.4483C8.87056 17.4852 8.8781 17.5224 8.88465 17.5598C8.88752 17.5759 8.8901 17.592 8.89258 17.6081L8.89737 17.6064C9.72942 17.307 10.5549 17.1753 11.7858 17.1735C11.845 17.1713 11.9043 17.1698 11.9636 17.1691L12.008 17.1698C12.0525 17.1706 12.0969 17.1719 12.1414 17.1735C13.5211 17.1755 14.3915 17.3407 15.3327 17.7224C15.3214 17.6843 15.3118 17.6457 15.3039 17.607C15.2677 17.4324 15.2636 17.2486 15.3107 17.0758C15.3578 16.9029 15.4548 16.7466 15.5745 16.6146C15.6281 16.5555 15.6865 16.5003 15.7499 16.4518L15.7549 16.4481L15.8284 16.3945C15.8405 16.4223 15.8525 16.4502 15.8646 16.478C15.8778 16.5097 15.8893 16.5422 15.8997 16.5751C15.9126 16.6161 15.9236 16.6577 15.9327 16.6998C15.9476 16.7686 15.9576 16.839 15.9615 16.9097C15.9836 16.8972 16.0062 16.8855 16.0291 16.8743C15.9959 16.7045 15.9933 16.5264 16.0391 16.3586C16.0862 16.1857 16.1832 16.0295 16.3029 15.8975C16.3565 15.8384 16.4149 15.7832 16.4783 15.7347L16.4833 15.731L16.5568 15.6774C16.5688 15.7052 16.5809 15.733 16.593 15.7609C16.6063 15.7926 16.6178 15.8251 16.6281 15.8579C16.641 15.899 16.652 15.9406 16.6611 15.9827C16.676 16.0515 16.686 16.1219 16.6898 16.1926C16.6933 16.1906 16.6967 16.1888 16.7001 16.1868C16.6702 16.0224 16.6693 15.8508 16.7135 15.6889C16.7606 15.516 16.8576 15.3598 16.9773 15.2277C17.0309 15.1686 17.0892 15.1134 17.1527 15.065L17.1577 15.0613L17.2312 15.0077C17.2433 15.0355 17.2553 15.0633 17.2673 15.0911C17.2718 15.1017 17.276 15.1123 17.2801 15.1231C17.283 15.09 17.2876 15.057 17.294 15.0243C17.3285 14.8485 17.4138 14.6856 17.5236 14.5452C17.5728 14.4824 17.627 14.4231 17.6867 14.3702L17.6915 14.366L17.7608 14.3073C17.7749 14.3342 17.789 14.361 17.803 14.3879C17.8067 14.3953 17.8104 14.4028 17.8139 14.4102C17.8133 14.3866 17.8135 14.3629 17.8146 14.3392C17.8232 14.1602 17.884 13.9867 17.9723 13.8319C18.0117 13.7626 18.0568 13.696 18.1082 13.6351L18.1123 13.6303L18.1725 13.5621C18.1903 13.5866 18.2081 13.6112 18.2258 13.6357C18.2457 13.6638 18.2639 13.6931 18.2812 13.7228C18.3026 13.7601 18.3224 13.7984 18.3404 13.8374C18.3699 13.9014 18.3949 13.968 18.414 14.0362C18.4268 14.0247 18.4398 14.0135 18.453 14.0026C18.3641 13.8665 18.2982 13.7137 18.2751 13.5522C18.2496 13.3748 18.2764 13.1929 18.3338 13.0242C18.3595 12.9487 18.3911 12.8748 18.43 12.8051L18.4332 12.7997L18.4794 12.7213C18.5014 12.7421 18.5236 12.7628 18.5456 12.7835C18.5705 12.8074 18.5939 12.8326 18.6164 12.8587C18.6446 12.8912 18.6712 12.925 18.6963 12.9599C18.7374 13.0172 18.7745 13.0779 18.8062 13.1412L18.8072 13.1399C18.8119 13.1337 18.8168 13.1275 18.8217 13.1213L18.8234 13.1191C18.7157 12.9938 18.6292 12.8482 18.5852 12.6883C18.5378 12.5156 18.5417 12.3317 18.5775 12.1571C18.5935 12.079 18.6157 12.0018 18.6456 11.9278L18.648 11.922L18.684 11.8385C18.7085 11.8564 18.733 11.8741 18.7576 11.8919C18.7852 11.9125 18.8117 11.9346 18.8373 11.9576C18.8692 11.9864 18.8999 12.0166 18.9291 12.0482C18.941 12.061 18.9614 12.0842 18.9601 12.0827C18.9079 12.0179 18.8629 11.9476 18.8279 11.8718C18.7529 11.7091 18.7266 11.5271 18.7334 11.349C18.7364 11.2693 18.7456 11.1895 18.763 11.1116L18.7645 11.1055L18.7863 11.0173C18.8134 11.0308 18.8406 11.0444 18.8676 11.0579C18.8954 11.0722 18.9224 11.088 18.9489 11.1046C18.9332 11.0849 18.9183 11.0647 18.9042 11.0438C18.8041 10.8952 18.7491 10.7197 18.7272 10.5429C18.7174 10.4637 18.7138 10.3834 18.7185 10.3038L18.7189 10.2975L18.7263 10.2069C18.7553 10.216 18.7842 10.225 18.8131 10.234C18.8459 10.2447 18.878 10.2572 18.9096 10.2708C18.9491 10.2879 18.9878 10.3068 19.0256 10.3273C19.0876 10.361 19.1474 10.3994 19.2035 10.4427C19.2055 10.4326 19.2077 10.4226 19.21 10.4126C19.0908 10.3477 18.9815 10.2641 18.8942 10.1599C18.7792 10.0225 18.7063 9.85362 18.6663 9.68003C18.6484 9.60232 18.6364 9.52285 18.6328 9.44316L18.6326 9.43689L18.6306 9.34597C18.6604 9.35197 18.6901 9.35797 18.7198 9.36396C18.7469 9.3698 18.7738 9.37684 18.8004 9.38477C18.7935 9.37866 18.7867 9.37244 18.78 9.36611C18.6496 9.24311 18.5575 9.08394 18.4974 8.91625C18.4704 8.84118 18.4492 8.76369 18.4364 8.68493L18.4354 8.67872L18.4228 8.58862C18.453 8.59115 18.4832 8.59363 18.5134 8.59611C18.5477 8.5993 18.5818 8.60447 18.6156 8.61086C18.6228 8.61218 18.6299 8.61361 18.637 8.61504C18.6255 8.60744 18.6141 8.59958 18.603 8.59143C18.4579 8.48604 18.3462 8.33997 18.2652 8.18125C18.2289 8.1102 18.198 8.03607 18.1751 7.95957L18.1494 7.86584C18.1818 7.86435 18.2142 7.86254 18.2465 7.86144C18.2591 7.86116 18.2716 7.86105 18.2841 7.86116C18.2971 7.86138 18.31 7.86171 18.323 7.86226C18.3123 7.85786 18.3018 7.85329 18.2912 7.8485C18.1283 7.77382 17.9899 7.65269 17.8791 7.51312C17.8295 7.45071 17.7846 7.38411 17.7471 7.31367L17.7442 7.30805L17.7034 7.22688C17.7348 7.21901 17.7662 7.21081 17.7977 7.20332C17.8333 7.19529 17.898 7.18153 17.898 7.18153C17.8741 7.17316 17.8505 7.16375 17.8274 7.15346C17.6754 7.08571 17.5431 6.97861 17.4336 6.85428C17.381 6.79446 17.3327 6.73023 17.2917 6.66183L17.2885 6.65638L17.2436 6.57735C17.2746 6.56788 17.3054 6.55814 17.3365 6.54906C17.3493 6.54548 17.362 6.54218 17.3749 6.5391C17.2178 6.46915 17.0822 6.35676 16.9713 6.22649C16.9196 6.16573 16.8724 6.10074 16.8325 6.03161L16.8295 6.02611L16.7859 5.94636C16.8053 5.94075 16.8248 5.93508 16.8443 5.92947L16.8553 5.92633C16.6942 5.85247 16.557 5.73337 16.4465 5.59606C16.3965 5.53393 16.3511 5.46761 16.3132 5.39738L16.3102 5.39182L16.2689 5.31087C16.2753 5.30921 16.2729 5.30982 16.2778 5.30855C16.1569 5.24603 16.0487 5.1593 15.9555 5.06045C15.9008 5.00245 15.8504 4.93987 15.807 4.87289L15.8037 4.86755L15.7561 4.79012C15.7867 4.77961 15.8173 4.76882 15.848 4.75869C15.896 4.7435 15.9449 4.73162 15.9944 4.72226C16.0695 4.70806 16.1457 4.69991 16.2222 4.69799C16.2356 4.69771 16.2489 4.69766 16.2623 4.69771C16.2683 4.69782 16.2743 4.69793 16.2803 4.6981C16.2536 4.64053 16.2314 4.58087 16.2132 4.52033C16.1903 4.44394 16.1732 4.36546 16.1645 4.28616L16.1638 4.27988L16.156 4.18935C16.186 4.19337 16.2161 4.19744 16.2461 4.20146C16.2802 4.20652 16.314 4.21345 16.3474 4.2216C16.3892 4.23178 16.4305 4.24389 16.4712 4.25776C16.5537 4.28599 16.6343 4.32188 16.7098 4.36612C16.7119 4.28082 16.7234 4.19562 16.7421 4.11268C16.7597 4.03486 16.7833 3.95809 16.8146 3.88473L16.8548 3.79618C16.879 3.81445 16.9032 3.83277 16.9273 3.85105C16.9545 3.87212 16.9805 3.89474 17.0057 3.91824C17.0371 3.94763 17.0672 3.97845 17.0958 4.01054C17.2215 4.15159 17.3219 4.31973 17.3648 4.50498C17.3674 4.51599 17.375 4.53145 17.375 4.53145ZM8.19695 17.894C8.02847 17.8435 7.86707 17.7689 7.72462 17.6653C7.56002 17.5457 7.42451 17.3901 7.3164 17.2182C7.19771 17.2265 7.07989 17.246 6.96469 17.2756L6.9608 17.2767C7.01361 17.3497 7.072 17.4187 7.13455 17.4836C7.15775 17.5077 7.18158 17.5311 7.20601 17.5539C7.35971 17.6974 7.53931 17.8164 7.73963 17.8833C7.8488 17.9198 7.96268 17.9408 8.0774 17.9492C8.06816 17.9535 8.14823 17.9161 8.19695 17.894ZM15.6805 17.8612C15.7108 17.8672 15.7412 17.872 15.7719 17.8758C15.9271 17.8951 16.0885 17.8862 16.236 17.8311C16.3599 17.7847 16.471 17.7083 16.5668 17.6179C16.5879 17.598 16.6083 17.5773 16.628 17.556C16.649 17.5333 16.6691 17.5097 16.6885 17.4856L16.6889 17.485C16.6624 17.4783 16.6356 17.4727 16.6086 17.4678C16.5399 17.4553 16.4702 17.4484 16.4003 17.4476C16.3954 17.4476 16.3906 17.4476 16.3857 17.4476C16.3371 17.448 16.2885 17.4515 16.2405 17.4587C16.2146 17.4959 16.1862 17.5313 16.1551 17.5645C16.0372 17.6908 15.8858 17.7825 15.7254 17.8446C15.7115 17.85 15.6974 17.8552 15.6833 17.8602L15.6805 17.8612ZM8.66632 17.6936C8.61165 17.5727 8.5452 17.457 8.46588 17.3505C8.38704 17.2448 8.29521 17.1482 8.19001 17.0683C8.06834 16.976 7.92974 16.9077 7.78502 16.8598C7.71051 16.8351 7.63429 16.8157 7.55721 16.801C7.45711 16.7819 7.35557 16.7708 7.25373 16.7673L7.24973 16.7672C7.25017 16.7685 7.25062 16.7697 7.25106 16.771C7.28461 16.8637 7.32489 16.9538 7.37187 17.0405C7.40905 17.1091 7.45036 17.1754 7.49611 17.2386C7.58525 17.3617 7.69168 17.4731 7.81578 17.5614C7.92994 17.6426 8.05759 17.7037 8.1904 17.7477C8.25949 17.7705 8.33001 17.789 8.40135 17.8033L8.41837 17.7959C8.44099 17.7862 8.46351 17.7766 8.48602 17.7672C8.39943 17.7087 8.3147 17.6473 8.23053 17.5854C8.13551 17.5138 8.04119 17.4411 7.94958 17.3646C7.8577 17.2884 7.76753 17.2097 7.68209 17.1243L7.68247 17.1237C7.79285 17.173 7.89844 17.2293 8.00238 17.288C8.10661 17.3463 8.20807 17.4085 8.30881 17.4718C8.40879 17.5362 8.50821 17.6015 8.60488 17.6706C8.61908 17.6807 8.63329 17.6909 8.64749 17.7011L8.65911 17.6965L8.66632 17.6936ZM15.6839 17.7131C15.6889 17.7111 15.694 17.7091 15.699 17.707C15.8437 17.6476 15.98 17.5607 16.0814 17.4403C16.1666 17.3391 16.2259 17.218 16.2649 17.0922C16.2735 17.0645 16.2811 17.0365 16.2879 17.0082C16.295 16.9781 16.3009 16.9478 16.306 16.9173L16.3061 16.9165C16.3059 16.9166 16.3056 16.9167 16.3054 16.9167C16.2756 16.9251 16.2461 16.9343 16.2169 16.9447C16.1895 16.9544 16.1625 16.965 16.1359 16.9767C16.0077 17.0325 15.8871 17.1103 15.7934 17.215C15.6996 17.3196 15.6354 17.4479 15.5939 17.5814C15.5924 17.5863 15.5909 17.5913 15.5894 17.5962C15.6281 17.5508 15.6684 17.5068 15.7092 17.4632C15.7642 17.4064 15.8202 17.3503 15.8799 17.2974C15.9392 17.2441 16.0007 17.1928 16.0686 17.1469L16.0691 17.1474C16.0347 17.2217 15.9939 17.2907 15.9508 17.3576C15.9079 17.425 15.8616 17.4892 15.8142 17.5526C15.772 17.6072 15.7292 17.6612 15.6839 17.7131ZM15.8254 16.9992C15.8271 16.9295 15.8213 16.8597 15.8101 16.7911C15.8053 16.7625 15.7996 16.734 15.7929 16.7058C15.7858 16.6757 15.7775 16.6458 15.7684 16.6163L15.7681 16.6156C15.7679 16.6157 15.7678 16.6159 15.7676 16.6161C15.7447 16.6369 15.7224 16.6584 15.701 16.6807C15.6809 16.7016 15.6615 16.7233 15.6429 16.7455C15.5533 16.8528 15.4804 16.9764 15.4435 17.1119C15.4065 17.2474 15.4065 17.3909 15.4293 17.5289C15.4335 17.5543 15.4448 17.6023 15.4448 17.6023C15.4455 17.5999 15.4462 17.5975 15.4468 17.595C15.4927 17.4229 15.5713 17.2566 15.6909 17.1232C15.7311 17.0783 15.7754 17.0377 15.8229 17.001L15.8254 16.9992ZM8.73844 17.5275C8.71999 17.4374 8.69506 17.3486 8.66296 17.2624C8.61694 17.1388 8.55583 17.0204 8.47722 16.9143C8.38632 16.7916 8.27242 16.6872 8.1469 16.6007C8.07958 16.5542 8.00885 16.5128 7.93584 16.4759C7.84781 16.4315 7.75644 16.3939 7.66278 16.3631L7.65896 16.3619C7.65904 16.3632 7.65911 16.3646 7.65919 16.3659C7.66543 16.4642 7.67883 16.5621 7.69966 16.6584C7.7022 16.6702 7.70486 16.682 7.70762 16.6937C7.87915 16.7379 8.04496 16.8058 8.19348 16.9026C8.22849 16.9254 8.2624 16.9499 8.29516 16.9758C8.38858 17.0497 8.47215 17.1355 8.54598 17.2289C8.61947 17.3219 8.68344 17.4224 8.73844 17.5275ZM16.4089 17.1441C16.4391 17.1501 16.4696 17.1549 16.5002 17.1587C16.6554 17.1779 16.8169 17.1691 16.9643 17.1139C17.0883 17.0676 17.1994 16.9912 17.2951 16.9008C17.3162 16.8808 17.3366 16.8601 17.3564 16.8388C17.3773 16.8161 17.3974 16.7926 17.4168 16.7685L17.4172 16.7679C17.387 16.7603 17.3565 16.7539 17.3257 16.7486C17.2606 16.7374 17.1947 16.7313 17.1287 16.7305C17.1238 16.7305 17.119 16.7305 17.1141 16.7305C17.0655 16.7309 17.0169 16.7343 16.9688 16.7415C16.9429 16.7788 16.9145 16.8141 16.8835 16.8474C16.7655 16.9736 16.6141 17.0654 16.4538 17.1275C16.4389 17.1333 16.4239 17.1388 16.4089 17.1441ZM6.9573 17.1356C6.99705 17.1258 7.08738 17.1081 7.09528 17.1067C6.92397 17.0321 6.76347 16.9318 6.62858 16.802C6.48194 16.661 6.36904 16.4882 6.28555 16.3032C6.25869 16.3014 6.23181 16.3002 6.20491 16.2994C6.18599 16.2989 6.16709 16.2987 6.14817 16.2988C6.07888 16.2992 6.00975 16.303 5.94085 16.3105L5.92928 16.3118L5.92529 16.3123C5.93166 16.3243 5.93823 16.3361 5.94483 16.3479C6.02958 16.4974 6.13253 16.6371 6.25449 16.7583C6.35102 16.8543 6.45983 16.9385 6.58003 17.0027C6.69831 17.066 6.82661 17.109 6.95796 17.1354L6.9573 17.1356ZM7.43296 16.6428C7.3571 16.4927 7.25902 16.3539 7.13526 16.2396C7.02988 16.1423 6.90795 16.064 6.77861 16.0025C6.62605 15.9299 6.46297 15.8798 6.29684 15.8499L6.28536 15.8479L6.28139 15.8473C6.28167 15.8485 6.28194 15.8499 6.28221 15.8512C6.30271 15.9476 6.33023 16.0425 6.36488 16.1347C6.39229 16.2078 6.42411 16.2791 6.46076 16.348C6.53019 16.4785 6.61731 16.6003 6.72401 16.7029C6.83073 16.8056 6.95574 16.888 7.08881 16.9524C7.12443 16.9696 7.16065 16.9856 7.19737 17.0003C7.17685 16.9568 7.15782 16.9126 7.14034 16.8677C7.12435 16.8267 7.09838 16.7481 7.09916 16.7506C7.029 16.6802 6.95975 16.6088 6.89273 16.5349C6.81213 16.4469 6.73358 16.3566 6.66069 16.2602L6.66113 16.2597C6.76369 16.3237 6.86064 16.3939 6.95549 16.4663C7.02542 16.5192 7.09364 16.574 7.16106 16.6297C7.17007 16.6294 7.17908 16.6292 7.1881 16.6291C7.19673 16.629 7.20535 16.6289 7.21399 16.629C7.28714 16.6295 7.36028 16.6342 7.43296 16.6428ZM16.4331 16.9875C16.5757 16.9282 16.7097 16.842 16.8097 16.7232C16.895 16.622 16.9543 16.5009 16.9933 16.3751C17.0019 16.3474 17.0096 16.3194 17.0162 16.2911C17.0234 16.261 17.0293 16.2307 17.0344 16.2001L17.0345 16.1994C17.0343 16.1994 17.034 16.1995 17.0338 16.1996C17.004 16.2079 16.9745 16.2172 16.9453 16.2276C16.9179 16.2373 16.8909 16.2479 16.8643 16.2595C16.7361 16.3153 16.6155 16.3932 16.5218 16.4978C16.4521 16.5756 16.3987 16.6664 16.3589 16.7628L16.4339 16.7501L16.4375 16.7461C16.4926 16.6892 16.5486 16.6332 16.6083 16.5802C16.6675 16.527 16.7291 16.4757 16.797 16.4298L16.7975 16.4302C16.7631 16.5046 16.7222 16.5735 16.6791 16.6405C16.6363 16.7078 16.59 16.7721 16.5426 16.8354C16.5082 16.88 16.4733 16.9242 16.437 16.9672C16.4358 16.974 16.4345 16.9807 16.4331 16.9875ZM16.1964 16.8061C16.2439 16.6599 16.3164 16.5207 16.4193 16.4059C16.4602 16.3604 16.5054 16.3191 16.5538 16.282C16.5554 16.2124 16.5497 16.1425 16.5385 16.074C16.5337 16.0453 16.528 16.0169 16.5213 15.9887C16.5142 15.9585 16.5059 15.9287 16.4968 15.8992L16.4966 15.8985C16.4963 15.8986 16.4962 15.8988 16.496 15.899C16.4731 15.9198 16.4508 15.9412 16.4294 15.9636C16.4093 15.9845 16.3899 16.0062 16.3713 16.0284C16.2817 16.1357 16.2088 16.2593 16.1719 16.3948C16.1349 16.5303 16.1349 16.6738 16.1576 16.8117L16.1589 16.8193L16.1614 16.8184C16.173 16.8141 16.1846 16.8101 16.1964 16.8061ZM7.51953 16.2463C7.50129 16.206 7.481 16.1666 7.45853 16.1284C7.38377 16.0011 7.28621 15.8882 7.17619 15.7901C7.04722 15.6752 6.90104 15.5795 6.74601 15.5036L6.74239 15.5019C6.74228 15.5032 6.74218 15.5045 6.74206 15.5059C6.73448 15.6075 6.73458 15.7096 6.74275 15.8111C6.74345 15.8198 6.74421 15.8285 6.74504 15.8373C6.93892 15.9169 7.12054 16.0285 7.26894 16.1773C7.37824 16.2869 7.46802 16.4142 7.54031 16.5508L7.53876 16.5403C7.53343 16.5029 7.52909 16.4654 7.52579 16.4278C7.52135 16.3773 7.51953 16.2463 7.51953 16.2463ZM17.1038 16.4783C17.1273 16.4825 17.151 16.4861 17.1746 16.489C17.3299 16.5082 17.4913 16.4993 17.6388 16.4442C17.7627 16.3979 17.8738 16.3215 17.9696 16.231C17.9907 16.2111 18.0111 16.1904 18.0307 16.1691C18.0518 16.1464 18.0719 16.1229 18.0912 16.0987L18.0917 16.0982C18.0615 16.0905 18.0309 16.0843 18.0001 16.0789C17.935 16.0677 17.8692 16.0615 17.803 16.0608C17.7982 16.0608 17.7934 16.0608 17.7885 16.0608C17.7399 16.0611 17.6913 16.0646 17.6433 16.0718C17.6174 16.109 17.589 16.1444 17.5579 16.1777C17.4399 16.3039 17.2885 16.3956 17.1282 16.4578C17.1216 16.4603 17.1151 16.4628 17.1084 16.4653C17.1069 16.4696 17.1053 16.4739 17.1038 16.4783ZM17.1528 16.0346C17.1948 15.9921 17.2377 15.9504 17.2826 15.9105C17.3419 15.8572 17.4035 15.8059 17.4714 15.76L17.4719 15.7605C17.4374 15.8348 17.3966 15.9038 17.3535 15.9708C17.3107 16.0381 17.2644 16.1024 17.217 16.1657C17.2013 16.186 17.1855 16.2063 17.1696 16.2264C17.1657 16.2498 17.1613 16.2731 17.1562 16.2963C17.2804 16.2382 17.3956 16.1587 17.4842 16.0534C17.5694 15.9523 17.6286 15.8312 17.6677 15.7054C17.6763 15.6777 17.684 15.6496 17.6906 15.6214C17.6978 15.5913 17.7037 15.5609 17.7088 15.5304L17.7089 15.5297C17.7086 15.5297 17.7084 15.5298 17.7082 15.5299C17.6784 15.5382 17.6488 15.5474 17.6197 15.5578C17.5923 15.5676 17.5653 15.5782 17.5387 15.5898C17.4105 15.6456 17.29 15.7235 17.1962 15.8281C17.1362 15.8951 17.0882 15.9718 17.0505 16.0534L17.0549 16.0524C17.0671 16.0497 17.1528 16.0346 17.1528 16.0346ZM6.094 16.1621C5.897 16.036 5.71961 15.8747 5.59221 15.6774C5.48181 15.5064 5.41151 15.3123 5.37265 15.113C5.26269 15.0791 5.14949 15.0555 5.03546 15.0414L5.02388 15.04L5.01988 15.0396C5.02023 15.0408 5.02057 15.0422 5.02091 15.0434C5.04663 15.1386 5.07929 15.2318 5.11891 15.3221C5.15025 15.3935 5.18592 15.4631 5.22625 15.5298C5.30269 15.6564 5.39631 15.7732 5.50844 15.8699C5.61769 15.9642 5.74331 16.0382 5.87583 16.0948C5.93775 16.1212 6.06892 16.163 6.06892 16.163C6.07728 16.1626 6.08564 16.1624 6.094 16.1621ZM16.8816 16.1043C16.929 15.9698 16.9984 15.8426 17.0937 15.7363C17.1346 15.6907 17.1798 15.6494 17.2281 15.6123C17.2298 15.5427 17.2241 15.4728 17.2128 15.4043C17.2081 15.3756 17.2024 15.3472 17.1957 15.3189C17.1886 15.2888 17.1803 15.259 17.1712 15.2294L17.1709 15.2287C17.1707 15.2289 17.1706 15.2291 17.1704 15.2292C17.1475 15.25 17.1252 15.2715 17.1038 15.2938C17.0837 15.3148 17.0643 15.3364 17.0457 15.3587C16.9561 15.4659 16.8832 15.5896 16.8462 15.7251C16.8108 15.855 16.8094 15.9922 16.8293 16.1249L16.8343 16.1228C16.8434 16.119 16.8526 16.1153 16.8618 16.1118C16.8684 16.1092 16.875 16.1067 16.8816 16.1043ZM6.41806 15.7341C6.4118 15.7062 6.40483 15.6784 6.39717 15.6509C6.36179 15.5238 6.31094 15.4007 6.24158 15.2882C6.16139 15.1582 6.05672 15.0446 5.93901 14.9477C5.87587 14.8958 5.80891 14.8484 5.73928 14.8056C5.65533 14.7538 5.56748 14.7086 5.47677 14.67L5.47308 14.6685C5.47304 14.6698 5.47301 14.6711 5.47297 14.6724C5.47084 14.771 5.47591 14.8696 5.48849 14.9674C5.49844 15.0447 5.51306 15.1216 5.53295 15.197C5.57169 15.3439 5.63079 15.4862 5.71472 15.6133C5.79401 15.7333 5.89422 15.8386 6.00575 15.9292C6.06585 15.9779 6.1937 16.0586 6.1937 16.0586C6.1809 16.0167 6.1694 15.9745 6.15925 15.9319C6.154 15.9098 6.14909 15.8877 6.14463 15.8655C6.12729 15.8387 6.11008 15.8119 6.09294 15.7851C6.03012 15.6841 5.96836 15.5823 5.91055 15.4779C5.85231 15.3737 5.79654 15.2679 5.74765 15.1573L5.7482 15.157C5.83337 15.2428 5.9116 15.3333 5.98735 15.4255C6.06099 15.5144 6.13097 15.6057 6.19978 15.6977L6.11894 15.6908L6.20551 15.6982C6.25307 15.7027 6.30037 15.7103 6.34727 15.7193C6.37095 15.7238 6.39455 15.7287 6.41806 15.7341ZM17.7981 15.7495C17.7949 15.7599 17.7915 15.7703 17.788 15.7807L17.7857 15.7872C17.7945 15.7879 17.8033 15.7884 17.8121 15.7888C17.9683 15.7967 18.1286 15.7762 18.2717 15.7105C18.3919 15.6553 18.4972 15.571 18.5862 15.4739C18.6058 15.4524 18.6246 15.4304 18.6427 15.4076C18.662 15.3835 18.6803 15.3586 18.6979 15.3331L18.6983 15.3325C18.6346 15.3212 18.5701 15.3156 18.5055 15.314C18.4941 15.3139 18.4828 15.3138 18.4714 15.3139C18.3968 15.3147 18.322 15.3223 18.2491 15.3387C18.226 15.3777 18.2002 15.4151 18.1717 15.4505C18.0718 15.5744 17.9414 15.6711 17.8001 15.7431L17.7981 15.7495ZM6.60636 15.4768C6.59913 15.3995 6.58568 15.3229 6.56506 15.248C6.52349 15.0971 6.45249 14.9556 6.36364 14.8271C6.31927 14.763 6.27044 14.7019 6.21814 14.644C6.15204 14.5709 6.08039 14.5029 6.00413 14.4404L6.001 14.4379C6.00059 14.4392 6.00018 14.4405 5.99976 14.4417C5.9701 14.5357 5.94732 14.6318 5.93201 14.7292C5.93013 14.7411 5.92837 14.753 5.92672 14.7649C6.09717 14.887 6.24839 15.0371 6.35873 15.216C6.46367 15.3861 6.53017 15.5775 6.56661 15.7736C6.57874 15.7773 6.59085 15.7811 6.60292 15.7851C6.60197 15.77 6.6012 15.7549 6.60059 15.7399C6.59799 15.6762 6.59824 15.6125 6.60142 15.5489C6.60262 15.5248 6.60423 15.5008 6.60636 15.4768ZM17.8568 15.4498C17.8544 15.4841 17.8501 15.5184 17.8447 15.5523L17.8435 15.5597C17.9379 15.4986 18.023 15.4232 18.0892 15.332C18.1668 15.2249 18.2171 15.0998 18.2469 14.9715C18.2535 14.9432 18.2591 14.9147 18.2637 14.8861C18.2686 14.8555 18.2724 14.8248 18.2752 14.794L18.2752 14.7933C18.275 14.7934 18.2748 14.7934 18.2746 14.7936C18.2454 14.804 18.2167 14.8154 18.1883 14.8278C18.1618 14.8396 18.1356 14.8521 18.1099 14.8656C17.986 14.9305 17.8714 15.017 17.7855 15.1281C17.7214 15.2111 17.6746 15.3062 17.6419 15.4057C17.6666 15.3982 17.6915 15.3915 17.7166 15.3856L17.7196 15.3818C17.7703 15.3211 17.8222 15.2612 17.8779 15.2041C17.933 15.1467 17.9907 15.091 18.0551 15.0403L18.0557 15.0407C18.0267 15.1174 17.991 15.189 17.9528 15.2591C17.9233 15.3141 17.8914 15.3674 17.8584 15.4199L17.8568 15.4498ZM17.4822 15.4643C17.5187 15.3132 17.5813 15.1673 17.6767 15.044C17.7135 14.9964 17.7548 14.9526 17.7995 14.9126L17.8017 14.9106C17.7984 14.841 17.7876 14.7717 17.7713 14.7042C17.7646 14.6759 17.7568 14.648 17.7481 14.6203C17.7388 14.5908 17.7284 14.5616 17.7171 14.5329L17.7168 14.5322C17.7166 14.5324 17.7165 14.5325 17.7163 14.5327C17.695 14.5551 17.6743 14.5781 17.6546 14.602C17.6361 14.6243 17.6183 14.6473 17.6014 14.6709C17.5198 14.7844 17.4561 14.913 17.4291 15.0508C17.4021 15.1886 17.4125 15.3318 17.4452 15.4677C17.4461 15.4717 17.4471 15.4757 17.4481 15.4797C17.4594 15.4744 17.4708 15.4693 17.4822 15.4643ZM12.7332 13.9715C13.3426 14.1944 13.9944 14.2952 14.6506 14.2632C13.8799 14.5136 13.0911 14.5434 12.3512 14.3876L12.345 14.5401L11.9636 15.0651L11.582 14.5401L11.576 14.3876C10.8361 14.5434 10.0472 14.5136 9.27646 14.2632C9.93268 14.2952 10.5845 14.1944 11.194 13.9715C10.1959 13.4487 9.39322 12.55 9.01722 11.3937C8.46004 9.68042 8.98694 7.79985 10.3533 6.62484C8.86858 8.82131 9.40313 11.7877 11.5331 13.3337L11.385 9.67271V6.7927C11.6157 6.68208 11.8149 6.51477 11.9636 6.30668C12.1122 6.51477 12.3115 6.68208 12.5421 6.7927V9.67271L12.3941 13.3337C14.524 11.7877 15.0585 8.82131 13.5739 6.62484C14.9402 7.79985 15.467 9.68042 14.9099 11.3937C14.534 12.55 13.7313 13.4487 12.7332 13.9715ZM18.3756 15.0249C18.3966 15.0239 18.4175 15.0224 18.4383 15.0204C18.594 15.0056 18.7496 14.962 18.8817 14.8762C18.9926 14.8041 19.0845 14.7054 19.1584 14.5964C19.1747 14.5724 19.1901 14.5478 19.2048 14.5227C19.2204 14.4959 19.2348 14.4686 19.2485 14.4409L19.2489 14.4402C19.2359 14.4398 19.2229 14.4398 19.2099 14.4398C19.1838 14.4401 19.1577 14.4409 19.1316 14.4426C19.0208 14.4499 18.9094 14.4713 18.8054 14.5114L18.8043 14.5142C18.7873 14.5552 18.7676 14.5951 18.7449 14.6335C18.6572 14.7823 18.5292 14.9046 18.3862 15.0001L18.3808 15.0036C18.3791 15.0107 18.3774 15.0178 18.3756 15.0249ZM4.67142 13.6412C4.65959 13.6342 4.6477 13.6274 4.63573 13.6206C4.54396 13.5691 4.44802 13.5253 4.34923 13.4891L4.34546 13.4877C4.34548 13.489 4.34552 13.4904 4.34554 13.4917C4.34845 13.5902 4.35854 13.6884 4.37609 13.7855C4.38998 13.8622 4.4085 13.9381 4.43221 14.0124C4.47714 14.1533 4.54103 14.2887 4.62761 14.4088C4.71198 14.5258 4.81691 14.6271 4.93268 14.7128C5.00179 14.764 5.07477 14.81 5.15054 14.8508C5.14175 14.8419 5.13304 14.833 5.12442 14.824C4.96431 14.6566 4.83113 14.4603 4.75384 14.2409C4.6862 14.049 4.66291 13.844 4.67142 13.6412ZM5.5421 14.5482C5.55138 14.3551 5.52985 14.1597 5.46356 13.9777C5.41305 13.839 5.33752 13.7102 5.24703 13.5939C5.14094 13.4576 5.01448 13.337 4.87571 13.2343L4.87247 13.232C4.87212 13.2333 4.87177 13.2346 4.87143 13.2358C4.84644 13.3312 4.82844 13.4283 4.81795 13.5264C4.80965 13.6039 4.80601 13.6819 4.80783 13.7599C4.81126 13.9077 4.83443 14.0556 4.88364 14.1952C4.93286 14.3349 5.00755 14.4646 5.09754 14.5819C5.14302 14.6412 5.19246 14.6974 5.24494 14.7505C5.2751 14.7811 5.30627 14.8106 5.33838 14.839L5.33787 14.8303C5.33723 14.8183 5.33606 14.7894 5.33606 14.7894C5.2929 14.6815 5.25389 14.5719 5.21583 14.4621C5.17817 14.3492 5.14179 14.2359 5.1098 14.1209C5.07738 14.0061 5.04776 13.8902 5.0259 13.7713L5.02651 13.771C5.08943 13.8742 5.14448 13.9805 5.19673 14.0877C5.24947 14.1948 5.29775 14.3036 5.34482 14.4129C5.35512 14.4376 5.36537 14.4623 5.37553 14.4871L5.43335 14.506C5.47019 14.5184 5.50639 14.5328 5.5421 14.5482ZM18.4169 14.7029C18.4171 14.7374 18.4153 14.7718 18.4123 14.8061L18.412 14.8096C18.5067 14.7312 18.589 14.6374 18.6461 14.5282C18.7073 14.411 18.7389 14.2799 18.7498 14.1486C18.7522 14.1196 18.7536 14.0906 18.754 14.0616C18.7545 14.0307 18.7537 13.9998 18.752 13.9689L18.7519 13.9682C18.7517 13.9683 18.7515 13.9684 18.7513 13.9685C18.724 13.9831 18.6971 13.9985 18.6709 14.015C18.6463 14.0304 18.6223 14.0467 18.5988 14.0637C18.4857 14.146 18.3849 14.2481 18.3161 14.3705C18.2641 14.4629 18.2315 14.5648 18.2136 14.6691C18.2348 14.6613 18.2566 14.6539 18.2781 14.6473L18.2876 14.6311C18.329 14.5637 18.3716 14.4969 18.4184 14.4323C18.4647 14.3675 18.5137 14.304 18.57 14.2445L18.5706 14.2448C18.5531 14.3249 18.5281 14.401 18.5006 14.4758C18.4754 14.5455 18.4465 14.6132 18.4165 14.6802L18.4169 14.7029ZM18.0661 14.7334C18.0814 14.5833 18.122 14.4349 18.1961 14.3031C18.2261 14.2498 18.2613 14.1997 18.3006 14.1529C18.2871 14.0846 18.2664 14.0176 18.2405 13.9532C18.2296 13.9263 18.2179 13.8997 18.2053 13.8736C18.1918 13.8457 18.1772 13.8184 18.1619 13.7916L18.1615 13.7909C18.1614 13.7911 18.1612 13.7913 18.1611 13.7915C18.1432 13.8168 18.1261 13.8426 18.1101 13.869C18.095 13.8938 18.0808 13.9191 18.0674 13.9449C18.0032 14.069 17.9588 14.2055 17.9521 14.3458C17.9454 14.4852 17.9761 14.6245 18.0277 14.7535C18.0399 14.7468 18.0523 14.7404 18.0647 14.7341L18.0661 14.7334ZM5.69841 14.6236C5.7206 14.5639 5.73968 14.5031 5.75524 14.4414C5.78852 14.3094 5.80543 14.1729 5.79936 14.0368C5.79275 13.8884 5.75858 13.7422 5.70584 13.6037C5.64308 13.4388 5.55473 13.2838 5.44903 13.1428L5.44198 13.1335L5.43952 13.1303C5.43882 13.1315 5.43813 13.1326 5.43743 13.1338C5.38673 13.2183 5.34224 13.3065 5.30471 13.3976C5.30012 13.4088 5.29563 13.42 5.29126 13.4312C5.4287 13.5894 5.54087 13.7707 5.60663 13.9702C5.67451 14.1762 5.69251 14.3961 5.67599 14.6117C5.67309 14.6102 5.68808 14.618 5.69841 14.6236ZM18.9267 14.126C18.9569 14.1194 18.9868 14.1117 19.0164 14.1031C19.1665 14.059 19.311 13.9867 19.4244 13.8775C19.5197 13.7857 19.5913 13.6715 19.6433 13.5504C19.6547 13.5238 19.6652 13.4967 19.6748 13.4693C19.6851 13.4401 19.6941 13.4105 19.7023 13.3807L19.7025 13.38C19.7022 13.38 19.702 13.3801 19.7018 13.3801C19.6712 13.3853 19.6409 13.3914 19.6108 13.3987C19.5826 13.4056 19.5546 13.4133 19.5269 13.4221C19.4409 13.4493 19.3571 13.486 19.2805 13.5339C19.2715 13.5783 19.2595 13.6222 19.2442 13.6651C19.1862 13.8278 19.0838 13.9721 18.9614 14.0928C18.95 14.1041 18.9385 14.1151 18.9267 14.126ZM18.7754 13.8044C18.7818 13.786 18.7883 13.7676 18.7948 13.7493C18.8227 13.6753 18.8518 13.6016 18.8855 13.5293C18.9187 13.4569 18.9548 13.3854 18.9988 13.3162L18.9995 13.3165C18.9974 13.3984 18.9874 13.4779 18.9744 13.5565C18.962 13.6352 18.945 13.7126 18.9268 13.7896C18.9144 13.838 18.9017 13.8864 18.8876 13.9343C18.8883 13.9432 18.8889 13.9521 18.8894 13.9609C18.8896 13.9637 18.8897 13.9665 18.8899 13.9694C18.9957 13.8589 19.083 13.7277 19.1272 13.5804C19.1652 13.4537 19.1714 13.319 19.1572 13.188C19.1541 13.1592 19.1499 13.1304 19.1449 13.1019C19.1394 13.0714 19.1328 13.0412 19.1253 13.0112L19.1252 13.0105C19.125 13.0106 19.1248 13.0107 19.1246 13.0109C19.1006 13.0304 19.0771 13.0506 19.0545 13.0718C19.0333 13.0915 19.0127 13.1121 18.9929 13.1332C18.8975 13.2354 18.8178 13.3548 18.7733 13.4881C18.7373 13.5963 18.7252 13.7112 18.7301 13.825C18.7447 13.818 18.7593 13.8113 18.7742 13.8049L18.7799 13.8025L18.7754 13.8044ZM18.5972 13.8987C18.5829 13.7462 18.5942 13.5903 18.6428 13.4445C18.6621 13.3865 18.6872 13.3307 18.7169 13.2773C18.6908 13.2128 18.6577 13.1509 18.6201 13.0925C18.6044 13.0681 18.5878 13.0443 18.5705 13.021C18.552 12.9962 18.5325 12.9722 18.5123 12.9487L18.5119 12.9481C18.5118 12.9483 18.5117 12.9485 18.5116 12.9488C18.4988 12.977 18.4869 13.0056 18.4762 13.0346C18.466 13.0618 18.4568 13.0893 18.4486 13.1171C18.4091 13.2512 18.3913 13.3936 18.4113 13.5326C18.4312 13.6715 18.4882 13.803 18.5638 13.9204L18.5644 13.92C18.5752 13.9128 18.5862 13.9057 18.5972 13.8987ZM7.56437 8.29187C6.5294 10.0816 7.14213 12.3711 8.93244 13.4058C8.92969 13.4025 8.92693 13.3986 8.92418 13.3948C7.29737 11.2319 7.73283 8.15978 9.89695 6.53348C8.91317 6.77949 8.07195 7.41405 7.56437 8.29187ZM15.003 13.3948C15.0003 13.3986 14.9975 13.4025 14.9947 13.4058C16.785 12.3711 17.3978 10.0816 16.3628 8.29187C15.8552 7.41405 15.014 6.77949 14.0302 6.53348C16.1943 8.15978 16.6298 11.2319 15.003 13.3948ZM4.87155 13.0648C4.89914 13.082 4.94803 13.1167 4.94591 13.1151C5.00388 12.8877 5.02168 12.6463 4.97051 12.4159C4.94025 12.2795 4.88679 12.149 4.81829 12.0276C4.73349 11.8772 4.62601 11.7397 4.50395 11.6178L4.49565 11.6096L4.49277 11.6068C4.49225 11.6081 4.49172 11.6093 4.49119 11.6105C4.45306 11.7014 4.42159 11.7951 4.39742 11.8907C4.37831 11.9663 4.36373 12.043 4.35457 12.1205C4.33719 12.2673 4.33934 12.417 4.36845 12.5621C4.39755 12.7073 4.45325 12.8462 4.52586 12.975C4.56417 13.0429 4.60722 13.1082 4.654 13.1706C4.67648 13.2006 4.69982 13.2299 4.72398 13.2585L4.72532 13.2528C4.7275 13.2435 4.72974 13.2343 4.73205 13.2251L4.73382 13.2181C4.70579 13.1038 4.68231 12.9884 4.65985 12.8729C4.63838 12.7559 4.61829 12.6386 4.60276 12.5203C4.5868 12.402 4.57381 12.2831 4.56891 12.1624L4.56951 12.1622C4.61724 12.2733 4.65688 12.3861 4.69349 12.4997C4.73065 12.6131 4.76318 12.7276 4.7944 12.8424C4.81227 12.9112 4.82977 12.98 4.84614 13.0491L4.87155 13.0648ZM4.23623 11.9836C4.14638 11.9118 4.04973 11.8483 3.94887 11.7933L3.9386 11.7878L3.93505 11.7859C3.93489 11.7873 3.93474 11.7886 3.93458 11.7899C3.92322 11.8911 3.91952 11.9932 3.92391 12.095C3.92713 12.1696 3.93467 12.244 3.94715 12.3177C3.97255 12.4676 4.01864 12.6145 4.09082 12.7487C4.15721 12.872 4.24463 12.9832 4.3442 13.0815C4.40544 13.1419 4.47124 13.1976 4.54054 13.2487C4.53307 13.2386 4.5257 13.2286 4.51842 13.2184C4.38344 13.0303 4.2792 12.8171 4.2335 12.5892C4.19351 12.3897 4.19931 12.1832 4.23623 11.9836ZM19.3037 13.1761C19.3327 13.1659 19.3614 13.1545 19.3896 13.1423C19.5331 13.0798 19.6675 12.99 19.7663 12.8675C19.8494 12.7646 19.9061 12.6423 19.9425 12.5156C19.9505 12.4878 19.9575 12.4596 19.9636 12.4312C19.9701 12.4009 19.9754 12.3705 19.9798 12.3399L19.9799 12.3391C19.9796 12.3392 19.9794 12.3392 19.9792 12.3394C19.9496 12.3483 19.9202 12.3582 19.8913 12.3692C19.8642 12.3795 19.8374 12.3907 19.811 12.4028C19.7291 12.4406 19.6505 12.4875 19.5805 12.5446C19.5771 12.5898 19.5707 12.6348 19.5609 12.6793C19.5237 12.8479 19.4401 13.004 19.3338 13.139C19.324 13.1516 19.3139 13.164 19.3037 13.1761ZM5.07271 13.1743C5.12017 13.0955 5.16196 13.0134 5.19677 12.9282C5.24827 12.8023 5.2842 12.6695 5.29733 12.5339C5.31164 12.3861 5.29833 12.2365 5.2656 12.0919C5.22665 11.9199 5.16097 11.754 5.07615 11.5995L5.07048 11.5893L5.0685 11.5859C5.06765 11.5869 5.0668 11.5879 5.06595 11.5889C5.00388 11.6656 4.94741 11.7466 4.89743 11.8315C4.89133 11.8419 4.88532 11.8524 4.8794 11.8629C4.99323 12.0389 5.07882 12.2341 5.11587 12.4409C5.15584 12.6641 5.13973 12.8946 5.0878 13.1145C5.08307 13.1345 5.07804 13.1544 5.07271 13.1743ZM18.9465 12.9844C18.9146 12.8372 18.9072 12.6838 18.9366 12.5356C18.9486 12.4756 18.9665 12.4171 18.9893 12.3605C18.9552 12.2997 18.9148 12.2424 18.8701 12.1892C18.8515 12.1669 18.832 12.1454 18.8119 12.1244C18.7905 12.1022 18.7682 12.0807 18.7452 12.0599L18.7447 12.0594C18.7446 12.0597 18.7445 12.0599 18.7444 12.0602C18.7353 12.0897 18.7271 12.1195 18.72 12.1497C18.7134 12.1779 18.7077 12.2064 18.703 12.2351C18.6805 12.373 18.6807 12.5165 18.718 12.6519C18.7548 12.7861 18.8269 12.9086 18.9156 13.015C18.921 13.0096 18.9264 13.0041 18.9319 12.9987C18.9367 12.9939 18.9416 12.9892 18.9465 12.9844ZM19.2647 13.0017C19.3474 12.8845 19.4105 12.7518 19.4342 12.6099C19.456 12.4794 19.4454 12.345 19.4149 12.2168C19.4082 12.1886 19.4005 12.1606 19.3919 12.1329C19.3827 12.1034 19.3724 12.0742 19.3611 12.0454L19.3608 12.0447C19.3607 12.0449 19.3605 12.045 19.3604 12.0452C19.3389 12.0676 19.3182 12.0905 19.2984 12.1143C19.2799 12.1366 19.262 12.1595 19.245 12.1831C19.1631 12.2963 19.099 12.4247 19.0716 12.5625C19.0507 12.6673 19.0516 12.7753 19.0674 12.8809C19.0833 12.8689 19.0995 12.8572 19.116 12.846L19.1202 12.8432C19.122 12.8351 19.1237 12.8271 19.1256 12.819C19.144 12.7421 19.1637 12.6654 19.1881 12.5894C19.2119 12.5134 19.2388 12.4379 19.2739 12.3638L19.2745 12.364C19.2827 12.4455 19.2827 12.5257 19.2798 12.6052C19.2772 12.6849 19.27 12.7638 19.2616 12.8425C19.2575 12.8749 19.2533 12.9073 19.2486 12.9396C19.2522 12.9521 19.2555 12.9647 19.2587 12.9773C19.2608 12.9854 19.2627 12.9935 19.2647 13.0017ZM19.6165 12.2356C19.6434 12.2207 19.6699 12.2048 19.6958 12.1881C19.827 12.103 19.945 11.9924 20.0224 11.8554C20.0875 11.7402 20.1234 11.6103 20.1386 11.4795C20.142 11.4506 20.1443 11.4217 20.1457 11.3927C20.1472 11.3618 20.1474 11.3309 20.1467 11.3V11.2992C20.1465 11.2993 20.1463 11.2994 20.1461 11.2995C20.1183 11.3132 20.0909 11.3277 20.0642 11.3433C20.0391 11.358 20.0145 11.3734 19.9905 11.3897C19.9159 11.4403 19.846 11.4993 19.7863 11.5672C19.7904 11.6123 19.7914 11.6578 19.789 11.7033C19.7799 11.8758 19.7229 12.0433 19.6402 12.194C19.6325 12.208 19.6245 12.2219 19.6165 12.2356ZM18.9895 12.1176C19.0147 12.1487 19.0386 12.1809 19.0608 12.2142C19.0635 12.2096 19.0662 12.205 19.069 12.2004C19.0412 12.174 19.0146 12.1464 18.9895 12.1176ZM19.3884 11.8344C19.3929 11.7815 19.3986 11.7285 19.4064 11.6756C19.4176 11.5967 19.4317 11.5178 19.4542 11.439H19.4549C19.4763 11.5181 19.4894 11.5972 19.4995 11.6762C19.51 11.7553 19.5158 11.8342 19.5203 11.9132C19.5228 11.9737 19.5246 12.0341 19.5241 12.0946C19.5257 12.0998 19.5273 12.1051 19.5289 12.1104L19.5314 12.1056C19.604 11.9671 19.6525 11.8129 19.6527 11.6555C19.6528 11.5232 19.6204 11.3924 19.5693 11.2709C19.5581 11.2441 19.5459 11.2178 19.5329 11.1919C19.519 11.1642 19.504 11.1372 19.4882 11.1106L19.4879 11.1099C19.4877 11.1101 19.4876 11.1104 19.4875 11.1105C19.47 11.1361 19.4533 11.1621 19.4376 11.1888C19.423 11.2139 19.4091 11.2394 19.3962 11.2654C19.3339 11.3905 19.2917 11.5277 19.2872 11.6681C19.2847 11.7462 19.2939 11.8241 19.3119 11.9001C19.3183 11.8942 19.3884 11.8344 19.3884 11.8344ZM19.2012 12.016C19.1653 11.9022 19.1458 11.7832 19.1496 11.6637C19.1516 11.6025 19.1597 11.5418 19.1729 11.4823C19.1294 11.4279 19.0801 11.378 19.0273 11.3328C19.0053 11.3139 18.9826 11.2958 18.9593 11.2784C18.9345 11.2599 18.909 11.2424 18.8829 11.2257L18.8823 11.2253C18.8823 11.2255 18.8822 11.2258 18.8822 11.226C18.878 11.2567 18.8748 11.2875 18.8728 11.3183C18.8709 11.3473 18.8699 11.3763 18.87 11.4053C18.8703 11.5451 18.8941 11.6866 18.9529 11.8142C18.9997 11.9155 19.0676 12.0058 19.1469 12.0843L19.1496 12.0806C19.1555 12.0728 19.1616 12.0649 19.1677 12.0572C19.1786 12.0433 19.1898 12.0296 19.2012 12.016ZM4.77357 11.6429C4.793 11.6199 4.81188 11.5965 4.83019 11.5725C4.95798 11.4057 5.05893 11.2153 5.10601 11.0095C5.13714 10.8734 5.14481 10.7325 5.13504 10.5935C5.12293 10.4212 5.08481 10.251 5.02684 10.0885L5.02285 10.0776L5.02145 10.0738C5.02045 10.0747 5.01944 10.0756 5.01844 10.0765C4.945 10.1422 4.8764 10.2133 4.81358 10.2893C4.8059 10.2986 4.79831 10.3079 4.7908 10.3174C4.87529 10.5092 4.92884 10.7155 4.9326 10.9255C4.93666 11.1522 4.88418 11.3773 4.79803 11.5861C4.79017 11.6052 4.78201 11.6241 4.77357 11.6429ZM4.1366 10.3346C4.0593 10.2495 3.97398 10.1715 3.88309 10.1012L3.87382 10.0941L3.87062 10.0917C3.87025 10.093 3.86989 10.0943 3.86952 10.0956C3.84314 10.1905 3.82371 10.2874 3.81178 10.3852C3.80234 10.4626 3.79756 10.5406 3.79823 10.6186C3.7995 10.7664 3.8205 10.9146 3.86766 11.055C3.91482 11.1954 3.98758 11.3262 4.07583 11.4448C4.1224 11.5073 4.17333 11.5667 4.2276 11.6227C4.23048 11.6257 4.2357 11.6305 4.2357 11.6305C4.23017 11.6199 4.22474 11.6092 4.21939 11.5985C4.11597 11.3914 4.04683 11.1644 4.03787 10.9321C4.03003 10.7288 4.06848 10.5259 4.1366 10.3346ZM4.65348 11.5744C4.6899 11.4917 4.72045 11.4065 4.74397 11.3193C4.7794 11.1879 4.79854 11.0517 4.79471 10.9155C4.79053 10.767 4.75869 10.6203 4.70823 10.4809C4.68151 10.4072 4.64959 10.3353 4.61344 10.2657C4.56649 10.1752 4.51239 10.0886 4.45208 10.0065L4.44968 10.0033C4.44897 10.0044 4.44825 10.0055 4.44754 10.0067C4.39372 10.0932 4.34646 10.1837 4.30662 10.2774C4.27594 10.3497 4.24963 10.4238 4.22869 10.4994C4.1891 10.6423 4.16869 10.791 4.17595 10.9394C4.18299 11.083 4.21553 11.2247 4.26534 11.3593C4.29198 11.4314 4.32345 11.5016 4.35909 11.5697L4.36197 11.5627C4.37544 11.5306 4.38983 11.4989 4.40544 11.4678L4.40806 11.4626L4.42007 11.4398C4.41755 11.3865 4.41559 11.3331 4.41383 11.2798C4.41124 11.1609 4.40998 11.0419 4.41344 10.9226C4.41642 10.8033 4.42242 10.6838 4.43673 10.5637H4.43739C4.4669 10.6809 4.4881 10.7987 4.50626 10.9166C4.52492 11.0345 4.53891 11.1527 4.55151 11.271C4.55848 11.3441 4.56506 11.4172 4.57034 11.4904C4.58719 11.5064 4.60367 11.5227 4.61988 11.5392C4.63122 11.5508 4.64242 11.5625 4.65348 11.5744ZM19.7408 11.2768C19.7651 11.2578 19.7887 11.2379 19.8115 11.2172C19.9274 11.1122 20.0262 10.9843 20.0807 10.8366C20.1265 10.7126 20.1412 10.5785 20.1353 10.4469C20.1339 10.418 20.1316 10.389 20.1283 10.3602C20.1249 10.3294 20.1201 10.2989 20.1145 10.2684L20.1144 10.2677C20.1142 10.2678 20.114 10.268 20.1138 10.2681C20.0886 10.2861 20.0639 10.3048 20.04 10.3244C20.0176 10.3429 19.9958 10.362 19.9747 10.382C19.9091 10.4439 19.8496 10.5133 19.8015 10.5898C19.8128 10.6337 19.821 10.6784 19.8259 10.7237C19.8445 10.8954 19.8151 11.07 19.7576 11.2319C19.7522 11.247 19.7467 11.2619 19.7408 11.2768ZM19.3048 11.144C19.2463 11.0324 19.2046 10.912 19.1884 10.7869C19.1806 10.7262 19.1788 10.665 19.1824 10.6041C19.1307 10.5574 19.074 10.516 19.0147 10.4798C18.99 10.4647 18.9646 10.4504 18.9389 10.437C18.9115 10.4227 18.8834 10.4096 18.8551 10.3972L18.8544 10.3969C18.8544 10.3971 18.8544 10.3974 18.8544 10.3976C18.8553 10.4286 18.857 10.4594 18.8599 10.4903C18.8626 10.5192 18.8664 10.5479 18.8711 10.5766C18.8938 10.7145 18.9399 10.8504 19.0184 10.9669C19.0843 11.0647 19.1715 11.1465 19.2684 11.2133C19.2783 11.1932 19.2886 11.1734 19.2993 11.1538C19.3011 11.1506 19.3029 11.1473 19.3048 11.144ZM19.6079 11.0425C19.6226 11.0673 19.6366 11.0925 19.6498 11.1182C19.6896 10.9825 19.7062 10.8386 19.6837 10.6984C19.6628 10.5678 19.6097 10.4438 19.5399 10.3321C19.5246 10.3075 19.5083 10.2834 19.4913 10.2599C19.4732 10.2348 19.4541 10.2105 19.4342 10.1867L19.4337 10.1862C19.4336 10.1864 19.4335 10.1866 19.4334 10.1869C19.4203 10.2149 19.408 10.2433 19.3968 10.2721C19.3863 10.2992 19.3768 10.3266 19.3681 10.3543C19.3267 10.4878 19.307 10.6299 19.325 10.7692C19.3355 10.8514 19.3591 10.9312 19.3919 11.0072L19.4525 10.9309C19.448 10.8734 19.4447 10.8157 19.4438 10.7576C19.4422 10.678 19.4435 10.5979 19.4531 10.5165L19.4538 10.5164C19.4876 10.591 19.5132 10.6669 19.5357 10.7434C19.5588 10.8197 19.5772 10.8968 19.5943 10.974C19.599 10.9968 19.6035 11.0196 19.6079 11.0425ZM19.7505 10.305C19.7727 10.2836 19.7941 10.2614 19.8146 10.2384C19.9191 10.122 20.004 9.98449 20.0429 9.83199C20.0757 9.70387 20.0764 9.56903 20.0569 9.43876C20.0526 9.41008 20.0472 9.38152 20.041 9.35318C20.0343 9.32296 20.0265 9.29308 20.0177 9.26341L20.0175 9.2627C20.0173 9.26286 20.0171 9.26303 20.017 9.26319C19.9938 9.28367 19.9712 9.3048 19.9495 9.32682C19.929 9.34745 19.9093 9.36881 19.8904 9.39077C19.8316 9.45918 19.7796 9.53446 19.7397 9.61553C19.7554 9.65802 19.7683 9.70161 19.7779 9.74613C19.8142 9.91498 19.803 10.0916 19.7625 10.2587C19.7588 10.2742 19.7547 10.2896 19.7505 10.305ZM19.2828 10.1866C19.2229 10.0902 19.1765 9.98554 19.1504 9.87497C19.1365 9.81636 19.1285 9.75675 19.1255 9.69682L19.1254 9.69379C19.0692 9.65268 19.0085 9.6174 18.9458 9.58757C18.9196 9.57508 18.893 9.56352 18.8659 9.55285C18.8371 9.54151 18.808 9.53127 18.7785 9.52192L18.7777 9.5217C18.7777 9.52192 18.7778 9.52219 18.7778 9.52241C18.7818 9.55312 18.7867 9.58367 18.7928 9.61399C18.7985 9.64244 18.8053 9.67068 18.8129 9.69869C18.8498 9.83347 18.9097 9.96391 18.9998 10.0716C19.0693 10.1546 19.1552 10.2224 19.2488 10.2766C19.2507 10.271 19.2526 10.2653 19.2546 10.2597C19.263 10.2362 19.2719 10.2129 19.2815 10.1899L19.2828 10.1866ZM19.3318 9.25285C19.3217 9.28207 19.3123 9.31157 19.3043 9.3414C19.2966 9.36941 19.2899 9.39765 19.2842 9.4261C19.2568 9.56314 19.252 9.70662 19.2843 9.84327C19.3003 9.91085 19.3252 9.9758 19.3566 10.0375L19.4043 9.9589L19.4259 9.97976C19.4163 9.92665 19.4078 9.87332 19.4014 9.81938C19.3915 9.7403 19.3845 9.6605 19.3856 9.57855L19.3863 9.57838C19.4276 9.64916 19.4609 9.72203 19.4913 9.79566C19.5222 9.86919 19.5485 9.94393 19.5735 10.019C19.5941 10.0848 19.6141 10.1509 19.6308 10.2177C19.632 10.2124 19.6332 10.2071 19.6345 10.2018C19.6683 10.0491 19.6747 9.88763 19.6337 9.73568C19.5994 9.60794 19.5338 9.49016 19.4528 9.38625C19.4349 9.36336 19.4163 9.34107 19.397 9.3195C19.3763 9.29644 19.3548 9.2742 19.3326 9.25263L19.3321 9.25213L19.3318 9.25285ZM5.30611 8.61053C5.30611 8.61053 5.18682 8.6944 5.12406 8.72929C5.0914 8.74746 5.05823 8.76474 5.02461 8.78114C5.06078 8.984 5.06434 9.19335 5.02025 9.39511C4.97187 9.61663 4.86883 9.82351 4.73681 10.0068C4.72476 10.0236 4.71245 10.0401 4.6999 10.0565C4.72411 10.0385 4.7479 10.0201 4.77122 10.0011C4.9341 9.86809 5.07627 9.70623 5.1696 9.5168C5.23132 9.39154 5.2713 9.25631 5.29391 9.11873C5.32146 8.95103 5.32406 8.77938 5.30611 8.61053ZM4.59407 9.96831L4.59563 9.96627C4.7409 9.77514 4.85371 9.55439 4.89551 9.31647C4.92032 9.17525 4.92016 9.03034 4.90189 8.88835C4.88034 8.72082 4.83422 8.55659 4.76945 8.40073L4.76491 8.39L4.76332 8.38631C4.76236 8.38725 4.76141 8.38818 4.76045 8.38912C4.69046 8.45857 4.62557 8.53304 4.56671 8.61212C4.52014 8.6747 4.47731 8.74008 4.43923 8.80816C4.36706 8.93716 4.31185 9.07629 4.28324 9.22159C4.25463 9.36683 4.25298 9.51652 4.27085 9.66325C4.28028 9.74068 4.29512 9.8174 4.31449 9.89297C4.3185 9.9086 4.3227 9.92417 4.3271 9.93969C4.34562 9.90986 4.365 9.88058 4.38552 9.85208L4.38892 9.84745L4.39032 9.84558C4.40368 9.77024 4.41847 9.69517 4.43368 9.62016C4.45861 9.50381 4.48487 9.38774 4.51581 9.27244C4.54626 9.15709 4.57962 9.04223 4.62129 8.92874L4.62195 8.92885C4.62361 9.04971 4.61705 9.16914 4.60748 9.28807C4.59845 9.40711 4.58474 9.52533 4.56971 9.64333C4.55843 9.72434 4.5467 9.80524 4.5333 9.88587C4.55148 9.90898 4.56893 9.9327 4.58591 9.9567C4.58864 9.96055 4.59136 9.9644 4.59407 9.96831ZM4.17971 9.92137C4.17667 9.90937 4.17374 9.89737 4.17093 9.88532C4.11599 9.65081 4.10226 9.40403 4.15388 9.16765C4.1953 8.97794 4.27659 8.79908 4.38216 8.63639C4.32476 8.53232 4.25725 8.4337 4.18202 8.34184L4.17946 8.33871C4.1788 8.33992 4.17815 8.34107 4.1775 8.34223C4.12991 8.42858 4.08864 8.51829 4.05444 8.61075C4.02738 8.68389 4.00472 8.75874 3.98736 8.83474C3.95447 8.97888 3.94068 9.12792 3.95416 9.27536C3.96765 9.4228 4.00826 9.56688 4.06674 9.70265C4.09761 9.77425 4.13347 9.84371 4.17335 9.91074C4.17546 9.91432 4.17758 9.91784 4.17971 9.92137ZM19.1627 9.33903C19.0948 9.25241 19.0387 9.15665 19.0009 9.05312C18.9803 8.99655 18.9653 8.93826 18.9553 8.8791L18.9548 8.87613C18.8942 8.84184 18.8299 8.81394 18.764 8.79165C18.7366 8.78229 18.7088 8.77398 18.6807 8.76655C18.6507 8.75863 18.6206 8.75191 18.5902 8.74608L18.5894 8.74591C18.5895 8.74619 18.5896 8.74641 18.5896 8.74663C18.5972 8.77668 18.6056 8.8064 18.6153 8.83584C18.6243 8.86342 18.6342 8.89066 18.6451 8.91757C18.6976 9.04712 18.7723 9.16969 18.8745 9.26606C18.9522 9.33942 19.0441 9.39605 19.142 9.43876C19.1474 9.40684 19.1539 9.37514 19.1615 9.34377L19.1627 9.33903ZM19.6474 9.40986C19.6669 9.38598 19.6855 9.36138 19.7033 9.33623C19.7933 9.20832 19.8615 9.06182 19.8823 8.90579C19.8998 8.7747 19.8847 8.64074 19.85 8.51366C19.8423 8.48571 19.8337 8.45797 19.8242 8.43056C19.814 8.40134 19.8027 8.37255 19.7905 8.3441L19.7903 8.34338C19.7901 8.3436 19.7899 8.34377 19.7898 8.34393C19.7691 8.36699 19.7492 8.39066 19.7302 8.41509C19.7124 8.43799 19.6953 8.46144 19.679 8.48554C19.6287 8.56033 19.5859 8.64118 19.5557 8.72638C19.5763 8.76672 19.5943 8.80849 19.609 8.85158C19.6649 9.01504 19.6745 9.19176 19.6539 9.36242C19.652 9.37827 19.6498 9.39407 19.6474 9.40986ZM19.5249 9.25676C19.5314 9.12148 19.5152 8.98422 19.4647 8.85808C19.4155 8.73529 19.3366 8.62599 19.244 8.53227C19.2236 8.51163 19.2024 8.49176 19.1807 8.47255C19.1574 8.45208 19.1335 8.43254 19.1089 8.41372L19.1083 8.41322C19.1083 8.4135 19.1082 8.41372 19.1082 8.41399C19.1015 8.44421 19.0957 8.47459 19.0912 8.50519C19.0869 8.53386 19.0836 8.5627 19.0812 8.59165C19.0701 8.731 19.0821 8.87398 19.1302 9.00596C19.1518 9.06501 19.1803 9.12115 19.2141 9.17398L19.2147 9.17233C19.222 9.15373 19.2296 9.13529 19.2377 9.11707L19.2403 9.11135L19.2793 9.02918L19.2666 9.05599C19.2585 9.02704 19.2507 8.99787 19.2437 8.96848C19.2246 8.89115 19.2084 8.81267 19.1998 8.73117L19.2004 8.73095C19.2498 8.79633 19.2914 8.86485 19.3302 8.93441C19.3695 9.00381 19.4044 9.07492 19.438 9.14657C19.4424 9.15654 19.4469 9.16655 19.4514 9.17651C19.474 9.19941 19.4958 9.22307 19.5168 9.2474C19.5195 9.25048 19.5222 9.25362 19.5249 9.25676ZM18.9542 8.4906C18.8862 8.41961 18.8273 8.34025 18.7821 8.2528C18.7544 8.19936 18.7321 8.14344 18.7147 8.08604L18.7138 8.08312C18.6493 8.05687 18.5819 8.03739 18.5138 8.02368C18.4854 8.0179 18.4567 8.01317 18.4279 8.00943C18.3972 8.00536 18.3664 8.00255 18.3355 8.00062L18.3347 8.00057C18.3348 8.00084 18.335 8.00106 18.335 8.00128C18.3464 8.03007 18.3586 8.05852 18.3718 8.08642C18.3843 8.11262 18.3977 8.13843 18.4119 8.16375C18.4805 8.28554 18.5703 8.39754 18.6839 8.48015C18.7621 8.537 18.8501 8.57888 18.9421 8.60844L18.9422 8.60634C18.9439 8.57888 18.9464 8.55153 18.9497 8.52429C18.951 8.51306 18.9525 8.50183 18.9542 8.4906ZM5.33305 8.41911C5.40649 8.35643 5.47386 8.28675 5.53223 8.20981C5.62199 8.09149 5.68917 7.9572 5.73719 7.81691C5.79434 7.65004 5.82547 7.47437 5.83435 7.29837L5.83487 7.28675L5.83501 7.28274C5.83375 7.28318 5.83248 7.28362 5.83122 7.28406C5.73817 7.31669 5.64757 7.35604 5.56043 7.40216C5.54978 7.40783 5.53918 7.41356 5.52864 7.41939C5.53316 7.62891 5.50355 7.83992 5.42654 8.03546C5.34991 8.22996 5.22939 8.4048 5.08595 8.55621L5.09577 8.54988C5.12588 8.53039 5.15647 8.51174 5.18753 8.49391C5.23145 8.46864 5.33305 8.41911 5.33305 8.41911ZM19.4687 8.52434C19.485 8.49814 19.5003 8.47134 19.5148 8.44415C19.5878 8.30585 19.6368 8.15186 19.6375 7.99446C19.6381 7.86221 19.606 7.73122 19.5555 7.60959C19.5443 7.58279 19.5322 7.55643 19.5193 7.53045C19.5055 7.50277 19.4906 7.47564 19.4749 7.449L19.4745 7.44834C19.4744 7.44856 19.4743 7.44878 19.4741 7.44894C19.4565 7.47448 19.4398 7.50046 19.424 7.5271C19.4093 7.55208 19.3954 7.57756 19.3823 7.60349C19.3419 7.68406 19.3098 7.76969 19.2907 7.85802C19.3164 7.89545 19.3394 7.93458 19.3595 7.97547C19.4358 8.13051 19.4678 8.30453 19.4691 8.47641C19.4692 8.49237 19.4691 8.50833 19.4687 8.52434ZM4.95212 8.49655C5.00539 8.44322 5.0554 8.38664 5.10143 8.32693C5.1845 8.21911 5.25438 8.10062 5.30302 7.97332C5.35602 7.83458 5.38289 7.68686 5.38969 7.53876C5.39778 7.36259 5.37846 7.18521 5.33767 7.01378L5.3349 7.0025L5.33391 6.99859C5.33282 6.99936 5.33173 7.00013 5.33063 7.0009C5.25045 7.05825 5.17451 7.12148 5.10378 7.19017C5.04782 7.24449 4.99511 7.30222 4.94664 7.36336C4.85221 7.48246 4.77379 7.61504 4.72237 7.75841C4.6738 7.8938 4.64957 8.03711 4.64396 8.18059C4.64226 8.22412 4.64221 8.26771 4.64375 8.31124C4.67126 8.28334 4.69963 8.25626 4.72898 8.23029L4.80688 8.16507L4.80939 8.1698L4.81159 8.16397C4.85475 8.05313 4.89923 7.94272 4.94817 7.83381C4.99656 7.72484 5.04793 7.61675 5.10716 7.51135L5.10777 7.51158C5.09015 7.63111 5.06455 7.74801 5.0362 7.86391C5.00824 7.97998 4.97581 8.09446 4.94217 8.2086C4.92759 8.25604 4.91285 8.30337 4.89767 8.35059C4.9007 8.35786 4.90368 8.36512 4.90662 8.37244C4.9231 8.41328 4.93827 8.45472 4.95212 8.49655ZM19.33 8.42368C19.3226 8.27679 19.2892 8.12941 19.2172 8.00029C19.1528 7.88477 19.0605 7.78642 18.9568 7.7053C18.9339 7.68741 18.9104 7.67035 18.8864 7.65412C18.8607 7.63673 18.8344 7.62044 18.8077 7.60486L18.807 7.60453C18.807 7.60475 18.807 7.60503 18.807 7.60525C18.8042 7.63607 18.8023 7.66694 18.8017 7.69787C18.8011 7.72687 18.8015 7.75593 18.8029 7.78488C18.8096 7.92451 18.8397 8.06485 18.9043 8.18956C18.9285 8.23623 18.9572 8.28026 18.9895 8.32153L19.0298 8.19803L19.0381 8.20304C19.0291 8.18152 19.0204 8.15984 19.0121 8.13799C18.9833 8.06369 18.9572 7.98796 18.9383 7.90816L18.9389 7.90789C18.9962 7.96644 19.0462 8.02908 19.0936 8.09314C19.1414 8.15698 19.1851 8.22313 19.2275 8.28983C19.2451 8.31851 19.2625 8.34724 19.2795 8.37624C19.2834 8.37976 19.2874 8.38334 19.2913 8.38692C19.3044 8.39891 19.3172 8.41113 19.33 8.42368ZM4.91771 7.18472C4.87894 7.07641 4.83001 6.97173 4.77301 6.87201L4.76716 6.86188L4.76512 6.85847C4.7643 6.85951 4.76346 6.86056 4.76263 6.8616C4.69984 6.94185 4.64313 7.02677 4.59344 7.1157C4.55702 7.18092 4.52436 7.24828 4.49633 7.31752C4.44086 7.4545 4.40346 7.59947 4.39324 7.74713C4.38302 7.89484 4.40011 8.04355 4.43618 8.18692C4.45522 8.26254 4.47953 8.33683 4.5082 8.40937C4.50971 8.41317 4.51123 8.41697 4.51277 8.42082C4.51292 8.42247 4.51083 8.39792 4.50986 8.38394C4.49307 8.14366 4.5189 7.89787 4.60759 7.67266C4.67875 7.49204 4.78753 7.32847 4.91771 7.18472ZM18.6638 7.71213C18.5643 7.64955 18.4737 7.57294 18.4 7.48114C18.3623 7.4342 18.3294 7.38384 18.3009 7.331C18.3009 7.331 18.2495 7.31989 18.2244 7.31697C18.1892 7.31295 18.1538 7.31086 18.1184 7.30987C18.1052 7.30965 18.0919 7.30959 18.0786 7.30965C18.0539 7.31003 18.0293 7.31086 18.0047 7.31257C17.9738 7.31466 17.943 7.31796 17.9124 7.3222L17.9117 7.32231C17.9393 7.36579 17.97 7.40745 18.0028 7.44713C18.1024 7.56766 18.2258 7.67206 18.3709 7.7332C18.4645 7.77266 18.5647 7.79402 18.6659 7.80183C18.6647 7.77949 18.6638 7.71961 18.6638 7.71213ZM18.8858 6.64284C18.8798 6.6599 18.821 6.95885 18.8205 6.99358C18.853 7.02523 18.8834 7.05907 18.9112 7.09518C19.0166 7.23205 19.0825 7.39633 19.1177 7.56457C19.121 7.58015 19.124 7.59584 19.1268 7.61158C19.1376 7.58268 19.1473 7.5534 19.1561 7.52385C19.2003 7.37388 19.2178 7.21323 19.1874 7.0588C19.1619 6.92902 19.1045 6.80701 19.0309 6.69776C19.0147 6.67371 18.9976 6.65021 18.9798 6.62732C18.9607 6.60294 18.9408 6.57927 18.9202 6.55621L18.9197 6.55566C18.9196 6.55594 18.9194 6.55616 18.9193 6.55638C18.9072 6.58483 18.8959 6.61361 18.8858 6.64284ZM18.9723 7.54619C18.9363 7.40156 18.874 7.26149 18.7766 7.14762C18.6906 7.04713 18.5807 6.96892 18.4629 6.90993C18.437 6.89694 18.4105 6.88483 18.3838 6.87366C18.3552 6.86171 18.3263 6.85087 18.2969 6.84097L18.2962 6.84069C18.2963 6.84097 18.2963 6.84119 18.2963 6.84146C18.2997 6.87223 18.304 6.90283 18.3095 6.93332C18.3146 6.96188 18.3208 6.99022 18.3279 7.0184C18.362 7.1539 18.4193 7.28549 18.5073 7.39501C18.5555 7.455 18.6122 7.50745 18.6741 7.55291L18.6911 7.45362C18.6606 7.41103 18.6309 7.36771 18.6028 7.32308C18.5598 7.25599 18.5192 7.18692 18.485 7.11246L18.4855 7.11202C18.5532 7.15814 18.6147 7.20959 18.6738 7.26309C18.7333 7.31614 18.7891 7.37234 18.844 7.42941C18.8689 7.45626 18.8936 7.48318 18.9179 7.51058C18.9363 7.52203 18.9545 7.53386 18.9723 7.54619ZM5.4776 7.00772C5.49026 7.06353 5.5123 7.17415 5.5123 7.17415C5.68717 7.05742 5.84423 6.90987 5.95528 6.73029C6.02872 6.61152 6.08147 6.4807 6.11715 6.34592C6.16133 6.17905 6.18026 6.00558 6.17787 5.83315L6.17763 5.82149L6.17752 5.81747C6.17629 5.81802 6.17505 5.81851 6.17382 5.81901C6.08307 5.85759 5.99519 5.90266 5.91119 5.95429C5.84473 5.99512 5.78071 6.04003 5.72009 6.08912C5.60523 6.18219 5.50233 6.29088 5.42188 6.41521C5.34142 6.53954 5.28437 6.6779 5.24654 6.82077C5.23901 6.84922 5.23223 6.87784 5.22617 6.90662L5.22658 6.90635C5.25859 6.88285 5.29135 6.86034 5.32492 6.83909L5.41223 6.78714L5.4249 6.82451C5.48764 6.73134 5.55151 6.63888 5.61901 6.54862C5.69003 6.45274 5.76369 6.35847 5.84445 6.26854L5.845 6.26887C5.80173 6.38175 5.7513 6.49022 5.69834 6.59716C5.64577 6.70437 5.58918 6.80905 5.53148 6.91306C5.51358 6.94449 5.4956 6.9758 5.47745 7.00706L5.4776 7.00772ZM5.96942 7.10172C5.97067 7.13062 5.9712 7.14295 5.9712 7.14295C6.0291 7.10574 6.08417 7.06419 6.13552 7.01796C6.2449 6.9195 6.33591 6.80184 6.41012 6.67503C6.49548 6.52913 6.55971 6.37085 6.60368 6.20778L6.60469 6.20393C6.60337 6.20409 6.60204 6.2042 6.6007 6.20437C6.49951 6.21631 6.39926 6.2359 6.30111 6.26331C6.29268 6.26568 6.28426 6.2681 6.27586 6.27058C6.23462 6.47603 6.15974 6.67558 6.04196 6.84961C5.96148 6.96848 5.86282 7.07382 5.75288 7.1659C5.79461 7.15054 5.83687 7.13656 5.87974 7.12473L5.96942 7.10172ZM18.1792 6.9845C18.0953 6.93233 18.0181 6.86975 17.9522 6.79584C17.9116 6.75016 17.8757 6.70068 17.8442 6.64851C17.8024 6.64278 17.7602 6.6397 17.7179 6.63877C17.7086 6.63866 17.6992 6.6386 17.6898 6.6386C17.6117 6.63932 17.5339 6.64735 17.4572 6.66193L17.4564 6.6621C17.4863 6.70404 17.519 6.7441 17.5538 6.78208C17.6594 6.89738 17.788 6.99534 17.936 7.049C18.0233 7.08065 18.1152 7.09694 18.2079 7.10156L18.2076 7.10046C18.1975 7.06617 18.1792 6.9845 18.1792 6.9845ZM5.7307 5.90861C5.72816 5.88835 5.7253 5.86821 5.72213 5.84807C5.70674 5.75071 5.6839 5.65462 5.65418 5.56062L5.65295 5.55682C5.65191 5.55765 5.65086 5.55847 5.64982 5.55935C5.51636 5.66882 5.3961 5.79556 5.29698 5.93701C5.21002 6.06117 5.13954 6.1976 5.0963 6.34317C5.05414 6.48511 5.03839 6.63392 5.04236 6.78169C5.04445 6.85968 5.05199 6.9375 5.06416 7.01449C5.06481 7.01857 5.06546 7.02264 5.06614 7.02671L5.06629 7.02556C5.06787 7.01367 5.06955 7.00184 5.07134 6.99C5.10594 6.76105 5.17998 6.53568 5.30633 6.34047C5.41689 6.16964 5.56494 6.02589 5.7307 5.90861ZM18.7339 6.66601C18.7475 6.55522 18.7443 6.4424 18.7171 6.33392C18.685 6.20564 18.6216 6.0867 18.5424 5.98136C18.525 5.95814 18.5067 5.93558 18.4878 5.91362C18.4675 5.89017 18.4464 5.86761 18.4246 5.84559L18.4241 5.8451C18.424 5.84532 18.4239 5.84554 18.4238 5.84581C18.4131 5.87482 18.4033 5.90415 18.3947 5.93387C18.3865 5.96172 18.3793 5.98984 18.3732 6.01824C18.3539 6.10635 18.344 6.19727 18.3474 6.28758L18.3495 6.28945C18.3828 6.31884 18.4141 6.35043 18.4431 6.38434C18.5553 6.51565 18.6295 6.67641 18.6733 6.84262C18.6766 6.85517 18.6797 6.86777 18.6827 6.88043L18.6866 6.88318C18.6884 6.87751 18.6924 6.86138 18.6924 6.86138C18.7011 6.79529 18.7153 6.72985 18.7339 6.66601ZM17.8161 6.16227C17.821 6.19281 17.8269 6.22314 17.8339 6.2533C17.8405 6.28153 17.8481 6.3096 17.8566 6.33734C17.8977 6.47096 17.9616 6.59941 18.055 6.70431C18.0856 6.7386 18.119 6.77008 18.1546 6.79881L18.1545 6.79666C18.1538 6.78422 18.1527 6.66205 18.1527 6.66205L18.175 6.66705C18.1655 6.65407 18.1559 6.64097 18.1466 6.6277C18.1004 6.56282 18.0563 6.49595 18.0183 6.4233L18.0188 6.42286C18.0888 6.46546 18.1528 6.51372 18.2146 6.56408C18.2767 6.61416 18.3353 6.66738 18.393 6.72159L18.4059 6.73414C18.4244 6.74141 18.4428 6.74906 18.461 6.75704C18.4775 6.7643 18.4938 6.77184 18.5101 6.77977C18.4663 6.6561 18.4018 6.5391 18.3113 6.44361C18.2203 6.34757 18.1067 6.27509 17.986 6.22215C17.9594 6.21048 17.9324 6.19975 17.9051 6.18995C17.876 6.17944 17.8465 6.17014 17.8167 6.16172L17.816 6.1615L17.8161 6.16227ZM17.2033 6.01521C17.1734 6.01576 17.1435 6.01703 17.1136 6.01956C17.0749 6.02281 17.0363 6.02792 16.998 6.03453L16.9973 6.03469C17.0264 6.07718 17.0585 6.11774 17.0926 6.15632C17.1963 6.27344 17.3232 6.37349 17.4703 6.42974C17.5642 6.46557 17.664 6.48356 17.7643 6.48813C17.7499 6.45274 17.7371 6.4167 17.7258 6.38026L17.7244 6.37575C17.6376 6.32088 17.558 6.25484 17.4908 6.17685C17.4515 6.13117 17.4169 6.08197 17.3867 6.03013L17.3853 6.02765C17.3653 6.02462 17.2617 6.00795 17.2033 6.01521ZM12.949 6.26326C12.6297 6.4878 12.1882 6.4113 11.9636 6.09155C11.739 6.4113 11.2975 6.4878 10.9782 6.26326C10.7101 6.07504 10.6066 5.72721 10.7282 5.42286C10.7964 5.78555 11.1461 6.0244 11.5089 5.95561C11.6999 5.91984 11.8662 5.80206 11.9636 5.63365C12.061 5.80206 12.2273 5.91984 12.4183 5.95561C12.7811 6.0244 13.1307 5.78555 13.199 5.42286C13.3206 5.72721 13.2171 6.07504 12.949 6.26326ZM18.2809 5.83679C18.2775 5.80024 18.2718 5.76392 18.2634 5.72804C18.2335 5.5992 18.1721 5.47922 18.0948 5.37251C18.0777 5.349 18.0599 5.32611 18.0413 5.30388C18.0214 5.2801 18.0007 5.25715 17.9793 5.23481L17.9788 5.23426C17.9787 5.23453 17.9786 5.23475 17.9785 5.23497C17.9673 5.26386 17.957 5.29298 17.9478 5.32253C17.9392 5.35027 17.9315 5.37828 17.9249 5.40652C17.9041 5.4943 17.8927 5.58505 17.8945 5.67537C17.9281 5.70586 17.9596 5.7386 17.9886 5.77372C18.0853 5.89094 18.1522 6.03035 18.1948 6.17586C18.2002 6.17916 18.2057 6.18252 18.2111 6.18599C18.216 6.10079 18.2304 6.01604 18.2519 5.9337C18.2601 5.90239 18.2809 5.83679 18.2809 5.83679ZM17.3655 5.54102C17.3699 5.57168 17.3752 5.60211 17.3818 5.63238C17.3879 5.66073 17.3949 5.68891 17.403 5.71675C17.4418 5.85104 17.5035 5.98065 17.5951 6.08709C17.6207 6.11686 17.6485 6.1446 17.678 6.17041C17.674 6.14284 17.6709 6.11521 17.6688 6.08747L17.6635 5.99045L17.6746 5.99232C17.6344 5.93282 17.5963 5.87146 17.5632 5.80547L17.5637 5.80503C17.633 5.84878 17.6961 5.89815 17.757 5.94955C17.787 5.97465 17.8162 6.00041 17.8448 6.02671C17.8478 6.02754 17.8508 6.02837 17.8538 6.02919C17.8952 6.0408 17.9361 6.05429 17.9763 6.06959C17.9898 6.07471 18.0033 6.0801 18.0168 6.08566C17.9771 5.9927 17.9243 5.90547 17.8558 5.83073C17.7665 5.73321 17.6541 5.6588 17.5343 5.60382C17.5079 5.59171 17.4811 5.58054 17.454 5.57025C17.4251 5.5593 17.3957 5.54945 17.3661 5.54053L17.3654 5.54031L17.3655 5.54102ZM6.68852 6.05924L6.69185 6.05913C6.76009 6.03249 6.82626 6.00063 6.88919 5.96304C7.02031 5.88467 7.13544 5.78164 7.234 5.66535C7.28473 5.60547 7.3312 5.54207 7.37364 5.47608C7.42874 5.39039 7.47699 5.30035 7.51821 5.20723L7.51981 5.20355C7.49719 5.20256 7.47456 5.20217 7.45191 5.20201C7.43725 5.20201 7.43728 5.20201 7.42262 5.20212C7.38662 5.20267 7.35065 5.20393 7.31471 5.2063C7.27127 5.20911 7.22789 5.2134 7.18471 5.21912C7.11256 5.41593 7.00806 5.60167 6.86507 5.75566C6.73205 5.89892 6.56955 6.01218 6.39472 6.09881L6.40221 6.09727C6.44509 6.08835 6.48824 6.08076 6.5316 6.07459C6.58175 6.06739 6.63219 6.06199 6.6828 6.05946L6.68852 6.05924ZM6.31219 5.98604C6.36132 5.96249 6.40935 5.93673 6.45606 5.90866C6.56914 5.84069 6.67432 5.75886 6.7642 5.66205C6.86812 5.55016 6.94976 5.41901 7.01178 5.27977C7.04369 5.20806 7.07053 5.13415 7.09278 5.05891C7.12167 4.96122 7.14276 4.86133 7.15625 4.76034L7.15675 4.75638C7.15545 4.75671 7.15416 4.75704 7.15286 4.75737C7.05729 4.78159 6.96354 4.81274 6.87264 4.85093C6.80072 4.88115 6.73059 4.91571 6.66318 4.95495C6.53544 5.02936 6.41711 5.1211 6.31861 5.23167C6.22263 5.33943 6.14655 5.46381 6.08794 5.5954C6.06817 5.63981 6.0503 5.68505 6.03429 5.73095C6.0465 5.72512 6.05878 5.7194 6.0711 5.71378C6.11724 5.69287 6.16415 5.6735 6.21202 5.65693L6.21744 5.65511L6.25268 5.64361C6.33096 5.55875 6.41034 5.47476 6.49304 5.39364C6.57793 5.30976 6.66514 5.22782 6.75867 5.15132L6.75916 5.1517C6.69916 5.25666 6.63277 5.35616 6.56406 5.45374C6.49574 5.55165 6.42384 5.64647 6.35085 5.74047C6.33868 5.75577 6.32649 5.77107 6.31426 5.78637C6.31525 5.81015 6.31568 5.83392 6.31576 5.8577C6.3159 5.90052 6.3147 5.94334 6.31219 5.98604ZM17.2932 5.82539C17.1695 5.75781 17.0562 5.67025 16.9671 5.56078C16.9285 5.51329 16.8948 5.46221 16.8657 5.40861C16.8407 5.40404 16.8156 5.40041 16.7904 5.39771C16.7552 5.39386 16.7199 5.39199 16.6845 5.39122C16.6711 5.39111 16.6711 5.39111 16.6577 5.39111C16.6326 5.39138 16.6075 5.39221 16.5824 5.39386C16.5476 5.39612 16.513 5.39991 16.4785 5.40492L16.4778 5.40503C16.5057 5.44829 16.5366 5.48979 16.5697 5.52925C16.6701 5.64917 16.7942 5.75275 16.9396 5.81301C17.0255 5.84856 17.1169 5.86893 17.2094 5.87762C17.2145 5.87757 17.2197 5.87751 17.2248 5.87757C17.2546 5.87779 17.2844 5.87889 17.3141 5.88109C17.3067 5.86271 17.2998 5.84416 17.2932 5.82539ZM6.70136 4.77807C6.70471 4.6631 6.69727 4.54774 6.68055 4.43415L6.67878 4.42265L6.67814 4.41868C6.67698 4.41934 6.67583 4.42 6.67467 4.42072C6.5898 4.47086 6.50863 4.52716 6.43218 4.5894C6.37169 4.63866 6.31413 4.69155 6.26052 4.74824C6.15604 4.85864 6.06634 4.9839 6.00258 5.1222C5.94237 5.2528 5.90571 5.39347 5.88758 5.53591C5.8772 5.61747 5.87269 5.6998 5.87353 5.78203L5.87397 5.78054C5.87734 5.76909 5.88082 5.75764 5.88439 5.7462C5.95634 5.51637 6.06998 5.29683 6.23466 5.11945C6.36679 4.97718 6.52772 4.86453 6.70136 4.77807ZM17.4725 5.43051C17.4383 5.35644 17.3951 5.2867 17.3415 5.22479C17.255 5.12485 17.1446 5.04741 17.0264 4.98913C17.0004 4.9763 16.9739 4.96436 16.947 4.95335C16.9184 4.94158 16.8894 4.93095 16.86 4.92121L16.8593 4.92099C16.8593 4.92121 16.8594 4.92149 16.8594 4.92171C16.8629 4.95247 16.8674 4.98307 16.8731 5.01345C16.8785 5.04202 16.8848 5.07036 16.8921 5.09843C16.9271 5.23376 16.9852 5.36497 17.0739 5.47394C17.1222 5.53332 17.1789 5.58516 17.2408 5.63002C17.2311 5.58004 17.2241 5.52947 17.2204 5.47872C17.2028 5.45346 17.1855 5.42749 17.1688 5.4014C17.1255 5.33453 17.0844 5.26574 17.0497 5.19149L17.0502 5.19105C17.1183 5.23673 17.18 5.28781 17.2395 5.34091C17.2537 5.35341 17.2677 5.36612 17.2815 5.37894C17.2815 5.37894 17.2755 5.37784 17.3053 5.3834C17.339 5.39017 17.3724 5.39881 17.4054 5.40866C17.4279 5.41538 17.4503 5.4227 17.4725 5.43051ZM17.735 5.55555C17.7694 5.41785 17.7802 5.27295 17.7518 5.13332C17.7255 5.00377 17.6673 4.88208 17.593 4.77333C17.5766 4.74939 17.5594 4.726 17.5414 4.70322C17.5222 4.67895 17.5021 4.65539 17.4813 4.6325L17.4808 4.63195C17.4807 4.63217 17.4806 4.63239 17.4805 4.63261C17.4686 4.66117 17.4574 4.69001 17.4475 4.71934C17.4381 4.74681 17.4297 4.77454 17.4223 4.80261C17.3991 4.88979 17.3851 4.98021 17.3845 5.07058C17.3845 5.07058 17.4483 5.13635 17.4758 5.17146C17.5539 5.27152 17.6107 5.38648 17.6498 5.50712C17.6788 5.52215 17.7073 5.53827 17.735 5.55555ZM16.7796 5.20487C16.6655 5.14923 16.5596 5.07647 16.4718 4.98445C16.4303 4.94086 16.3933 4.89342 16.3605 4.84323L16.3588 4.8407L16.3575 4.84059C16.3278 4.83756 16.2981 4.83596 16.2683 4.83541C16.261 4.8353 16.2538 4.8353 16.2466 4.8353C16.1543 4.83591 16.0625 4.84708 15.9725 4.86739L15.9717 4.86755C16.003 4.9085 16.037 4.94747 16.0731 4.98423C16.1827 5.0959 16.3144 5.18935 16.4642 5.23805C16.4896 5.24631 16.5154 5.2533 16.5414 5.25902C16.575 5.25616 16.6087 5.25445 16.6423 5.25368C16.6571 5.25352 16.6718 5.25352 16.6866 5.25368C16.724 5.25445 16.7614 5.25644 16.7986 5.26023C16.7924 5.2435 16.7866 5.22661 16.7811 5.20966L16.7796 5.20487ZM16.9637 4.81202C16.9241 4.74196 16.8762 4.67686 16.8188 4.62022C16.7246 4.52732 16.6085 4.45875 16.4861 4.40993C16.4591 4.3992 16.4318 4.3894 16.4042 4.38049C16.3747 4.37102 16.3449 4.36271 16.3148 4.35528L16.3141 4.35512C16.3142 4.35534 16.3142 4.35561 16.3143 4.35583C16.3202 4.38621 16.3271 4.41632 16.3352 4.4462C16.3427 4.47421 16.3512 4.50201 16.3607 4.52941C16.4063 4.66156 16.4745 4.78781 16.5715 4.88951C16.6202 4.94059 16.6754 4.98472 16.7349 5.02259L16.7342 5.01901C16.7265 4.97476 16.7209 4.93013 16.7178 4.88533L16.7176 4.88219C16.6981 4.85847 16.679 4.83442 16.6604 4.80982C16.6119 4.74653 16.5657 4.68115 16.5252 4.60982L16.5257 4.60938C16.5971 4.64956 16.6627 4.69568 16.7261 4.74394L16.7295 4.74648L16.8035 4.76249C16.8371 4.7702 16.8702 4.77977 16.9029 4.7905C16.9234 4.79722 16.9436 4.80437 16.9637 4.81202ZM17.2316 4.94857C17.2603 4.79964 17.2627 4.64345 17.2206 4.49689C17.1842 4.36976 17.1167 4.25303 17.034 4.15044C17.0158 4.12782 16.9968 4.10586 16.9771 4.08456C16.9561 4.06183 16.9342 4.03998 16.9116 4.01874L16.9112 4.01824C16.911 4.01852 16.911 4.01874 16.9109 4.01896C16.9012 4.04835 16.8924 4.07801 16.8847 4.10801C16.8776 4.13608 16.8714 4.16447 16.8661 4.19298C16.8499 4.2817 16.8431 4.37295 16.8496 4.4631C16.8846 4.49183 16.9177 4.52292 16.9484 4.55655C17.0404 4.6571 17.1093 4.77669 17.1586 4.90355C17.1834 4.91769 17.2078 4.93272 17.2316 4.94857ZM7.30275 4.67476C7.30011 4.72248 7.29436 4.77003 7.28722 4.81725C7.28441 4.83585 7.28134 4.8544 7.27802 4.87289C7.33116 4.83101 7.37973 4.78351 7.42162 4.73002C7.50344 4.62562 7.55854 4.50217 7.59324 4.37471C7.60088 4.34664 7.60753 4.31824 7.61324 4.28973C7.61933 4.2593 7.62422 4.22864 7.62819 4.19788L7.62832 4.19689C7.62798 4.197 7.62765 4.19705 7.62732 4.19716C7.59774 4.20658 7.56848 4.21692 7.53962 4.22831C7.51256 4.23905 7.48585 4.25071 7.45959 4.26326C7.33307 4.32369 7.21501 4.40608 7.12475 4.51422C7.09023 4.55561 7.06016 4.6003 7.03413 4.64725L7.0383 4.64604C7.09371 4.62963 7.14978 4.61555 7.20651 4.60459L7.23248 4.60014C7.28822 4.54659 7.34631 4.49491 7.41053 4.44807L7.41102 4.44846C7.38009 4.52176 7.343 4.59028 7.30357 4.65688L7.30275 4.67476Z" fill="#4F4F4F"/>
<path fill-rule="evenodd" clip-rule="evenodd" d="M6.45954 2.05567C8.13515 1.00061 10.0772 0.445917 12.0573 0.456823C14.0374 0.467729 15.9732 1.04378 17.6371 2.11723C19.3009 3.19069 20.6237 4.71692 21.4499 6.51645C22.2761 8.31598 22.5712 10.314 22.3007 12.2755C22.0382 14.1785 21.2486 15.9666 20.0317 17.4486L20.1766 17.6636C20.5773 18.2581 20.6295 19.0215 20.3133 19.665L19.409 21.5053C18.6707 23.0077 17.0041 23.8142 15.3678 23.4608L15.2846 23.4429C14.9688 23.3747 14.6727 23.2349 14.4192 23.0345L14.1005 22.7824C13.7589 22.5122 13.3689 22.3055 12.9534 22.1738C12.2981 21.9659 11.5912 21.9659 10.9368 22.1752C10.5269 22.3063 10.144 22.5102 9.80644 22.7772L9.48282 23.0331C9.22822 23.2345 8.93085 23.3748 8.61355 23.4433L8.53252 23.4608C6.89627 23.8142 5.22965 23.0077 4.49139 21.5053L3.55816 19.6062C3.2597 18.9988 3.28422 18.2825 3.62352 17.697L3.62826 17.6888L3.8807 17.3241C2.68117 15.8308 1.92574 14.0676 1.68428 12.162C1.43537 10.1976 1.75252 8.20294 2.59845 6.41262C3.44439 4.6223 4.78392 3.11073 6.45954 2.05567ZM12.0547 0.927669C10.1643 0.917257 8.31016 1.44683 6.71042 2.45412C5.11068 3.4614 3.8318 4.90452 3.02418 6.61377C2.21655 8.32302 1.91376 10.2273 2.1514 12.1028C2.38896 13.9777 3.1474 15.7076 4.35619 17.1619L4.47046 17.2993L4.02637 17.941C3.77026 18.389 3.75299 18.9351 3.98075 19.3985L4.91398 21.2977C5.55688 22.606 7.00822 23.3083 8.43313 23.0006L8.51416 22.9831C8.76112 22.9298 8.99257 22.8205 9.19074 22.6638L9.51435 22.4079C9.89628 22.1058 10.3295 21.875 10.7933 21.7267C11.5411 21.4875 12.3479 21.4878 13.0958 21.7249C13.5653 21.8738 14.0061 22.1074 14.3926 22.4131L14.7113 22.6652C14.9084 22.821 15.1385 22.9296 15.384 22.9826L15.4672 23.0006C16.8921 23.3083 18.3435 22.606 18.9864 21.2977L19.8907 19.4573C20.1325 18.9653 20.0926 18.3814 19.7862 17.9268L19.4425 17.417L19.5582 17.281C20.7829 15.8402 21.5761 14.0834 21.8343 12.2112C22.0925 10.3385 21.8107 8.43095 21.022 6.7129C20.2332 4.99486 18.9703 3.53774 17.3818 2.51289C15.7932 1.48805 13.9451 0.938081 12.0547 0.927669Z" fill="#E8651D"/>
</svg>
