<svg width="24" height="25" viewBox="0 0 24 25" fill="none" xmlns="http://www.w3.org/2000/svg">
<path fill-rule="evenodd" clip-rule="evenodd" d="M15.6341 13.126C15.6341 11.1092 13.9955 9.47058 12.0039 9.47058C9.9871 9.47058 8.3485 11.084 8.3485 13.1008C8.3485 15.1176 9.98709 16.731 11.9787 16.7562C14.0207 16.7814 15.6341 15.1428 15.6341 13.126Z" fill="#CDCCCC"/>
<path d="M10.8442 8.48733C10.5165 8.58818 10.1887 8.38648 10.0627 8.08398L8.24759 3.52103C8.17194 3.31933 8.24759 3.09243 8.42404 2.96638L10.7181 1.30253C11.4996 0.722726 12.5584 0.722726 13.3147 1.30253L15.6088 2.99158C15.7853 3.09243 15.8357 3.31933 15.7853 3.52103L13.9702 8.08398C13.8441 8.41173 13.5164 8.58818 13.1635 8.51253C12.8105 8.41173 12.4072 8.36128 12.0038 8.36128C11.6257 8.36128 11.2223 8.41173 10.8442 8.48733Z" fill="#51B5D1"/>
<path d="M14.8778 9.34448C15.508 9.82348 16.0122 10.4537 16.3147 11.1596C16.466 11.4621 16.8693 11.6386 17.1718 11.5377L21.8357 10.126C22.0373 10.0756 22.1634 9.84868 22.1634 9.64698L22.0625 6.79828C22.0121 5.84033 21.3567 5.03358 20.4491 4.78148L17.7012 4.02518C17.4744 3.97478 17.2727 4.05043 17.1718 4.22688L14.7013 8.48733C14.5752 8.71423 14.6257 9.14278 14.8778 9.34448Z" fill="#51B5D1"/>
<path d="M6.81064 11.5629L2.12159 10.2016C1.91994 10.1008 1.79389 9.92428 1.81909 9.72263L1.91994 6.87393C1.94514 5.91593 2.60059 5.10923 3.48294 4.83193L6.23079 4.05043C6.43249 3.99998 6.63414 4.07563 6.76019 4.25208L9.23079 8.48733C9.40724 8.76463 9.33159 9.16798 9.07949 9.36968C8.44929 9.84868 7.97029 10.4789 7.64254 11.21C7.49129 11.5125 7.11314 11.6638 6.81064 11.5629Z" fill="#51B5D1"/>
<path d="M23.802 14.3864L22.6676 11.7898C22.592 11.5881 22.3903 11.4621 22.1886 11.5125L17.3483 12.294C16.9954 12.3444 16.7433 12.647 16.7685 12.9999V13.1511C16.7685 13.9074 16.592 14.6385 16.2643 15.2688C16.113 15.5713 16.2139 15.9494 16.4912 16.1259L20.55 18.8738C20.7264 18.9998 20.9785 18.9746 21.1298 18.8234L23.2474 16.9326C23.9785 16.2772 24.2054 15.2688 23.802 14.3864Z" fill="#51B5D1"/>
<path d="M7.21399 13.1259C7.21399 13.8822 7.41564 14.6133 7.74339 15.2436C7.86944 15.5713 7.79379 15.9494 7.49129 16.1511L3.45774 18.899C3.25604 19.025 3.05439 18.9998 2.87789 18.8486L0.76029 16.983C0.0291902 16.3528 -0.19771 15.3192 0.18044 14.4368L1.31489 11.8402C1.39054 11.6638 1.59219 11.5629 1.79389 11.5629L6.63414 12.3192C6.98709 12.3696 7.23919 12.6722 7.21399 13.0251V13.1259Z" fill="#51B5D1"/>
<path d="M15.987 16.7561C15.7349 16.5293 15.3567 16.5293 15.0794 16.7309C14.4996 17.2351 13.7937 17.5881 13.0122 17.7645C12.6845 17.815 12.4324 18.1427 12.4576 18.4956L12.861 23.3863C12.8862 23.588 13.0626 23.7645 13.2643 23.7897L16.0878 24.2687C17.0206 24.4451 17.9533 23.9662 18.4071 23.109L19.718 20.588C19.8189 20.4116 19.7937 20.1595 19.6424 20.0082L15.987 16.7561Z" fill="#51B5D1"/>
<path d="M11.0207 17.7898C10.2391 17.6133 9.50809 17.2603 8.92824 16.7814C8.67614 16.5545 8.27279 16.6049 8.04589 16.8066L4.41569 20.1595C4.26444 20.3107 4.23924 20.5376 4.34009 20.7141L5.67619 23.2351C6.12994 24.067 7.08794 24.5208 8.02069 24.3443L10.8442 23.8401C11.0459 23.7897 11.1971 23.6132 11.2223 23.4115L11.5753 18.5208C11.6005 18.1679 11.3484 17.8402 11.0207 17.7898Z" fill="#51B5D1"/>
</svg>
