<svg width="24" height="24" viewBox="0 0 24 24" fill="none" xmlns="http://www.w3.org/2000/svg">
<path fill-rule="evenodd" clip-rule="evenodd" d="M21.2853 9.34529C21.8822 10.6413 22.215 12.0834 22.215 13.6026C22.215 14.8157 22.0027 15.9796 21.6134 17.0593C21.4561 17.0341 21.2948 17.021 21.1305 17.021C19.4586 17.021 18.1013 18.3773 18.1013 20.0479C18.1013 20.5732 18.2355 21.0674 18.4715 21.4981C16.8986 22.7874 14.9341 23.6169 12.7844 23.7803V21.0823C16.57 20.6898 19.5257 17.4884 19.5257 13.6026C19.5257 12.5728 19.3181 11.591 18.9424 10.697L21.2853 9.34529ZM2.68259 9.41543L5.02787 10.7685C4.67096 11.6433 4.47423 12.6002 4.47423 13.6026C4.47423 17.4357 7.35035 20.6028 11.0619 21.0647V23.7675C8.97237 23.5771 7.06388 22.7566 5.52846 21.4981C5.76443 21.0674 5.89863 20.5732 5.89863 20.0479C5.89863 18.3773 4.54133 17.021 2.8695 17.021C2.70514 17.021 2.54383 17.0341 2.38654 17.0593C1.99721 15.9796 1.78501 14.8157 1.78501 13.6026C1.78501 12.1108 2.10592 10.6933 2.68259 9.41543ZM2.8695 17.7679C4.12881 17.7679 5.15121 18.7895 5.15121 20.0479C5.15121 21.3062 4.12881 22.3279 2.8695 22.3279C1.61024 22.3279 0.587837 21.3062 0.587837 20.0479C0.587837 18.7895 1.61024 17.7679 2.8695 17.7679ZM21.1305 17.7679C22.3898 17.7679 23.4122 18.7895 23.4122 20.0479C23.4122 21.3062 22.3898 22.3279 21.1305 22.3279C19.8711 22.3279 18.8488 21.3062 18.8488 20.0479C18.8488 18.7895 19.8711 17.7679 21.1305 17.7679ZM8.83562 17.359C9.03804 17.7454 9.27343 18.1146 9.53986 18.4601C9.84863 18.8606 10.1992 19.2291 10.5864 19.5546C10.7751 19.7132 10.9726 19.8615 11.1777 19.9981C9.7414 19.8152 8.45193 19.1597 7.4706 18.1926C7.88527 17.8673 8.33861 17.591 8.81616 17.3679L8.83562 17.359ZM15.1763 17.3645L15.1838 17.3679C15.6614 17.591 16.1147 17.8673 16.5294 18.1926C15.5522 19.1555 14.2696 19.8096 12.8406 19.9957C13.0445 19.8597 13.2408 19.7122 13.4284 19.5546C13.8592 19.1925 14.2445 18.7771 14.5776 18.3237C14.801 18.0197 15.001 17.6985 15.1763 17.3645ZM12.1982 16.6755C12.4801 16.6835 12.7613 16.7044 13.041 16.7423C13.6538 16.8252 14.2566 16.9829 14.8301 17.2143C14.6288 17.5943 14.3937 17.9567 14.1271 18.2943C13.8308 18.6694 13.4954 19.0139 13.1255 19.3171C12.8361 19.5542 12.5256 19.7659 12.1982 19.9469V16.6755ZM11.8018 16.6755V19.9386C11.4798 19.7595 11.1743 19.5507 10.8893 19.3171C10.5194 19.0139 10.184 18.6694 9.88769 18.2943C9.61988 17.9553 9.384 17.5913 9.18207 17.2094C9.75187 16.9807 10.3505 16.8246 10.959 16.7423C11.2387 16.7044 11.5198 16.6835 11.8018 16.6755ZM18.4492 13.8006C18.4012 15.3879 17.7779 16.8318 16.7807 17.9307C16.3368 17.5788 15.8502 17.2805 15.3369 17.0408C15.8095 16.0271 16.0589 14.9165 16.0853 13.8006H18.4492ZM5.55076 13.8006H7.92948C7.95576 14.9144 8.20436 16.0228 8.67553 17.035L8.6631 17.0408C8.14979 17.2805 7.6632 17.5788 7.21929 17.9307C6.22214 16.8318 5.5988 15.3879 5.55076 13.8006ZM15.709 13.8006C15.6827 14.8649 15.4437 15.9239 14.9917 16.89C14.3825 16.6417 13.7415 16.4726 13.0895 16.3844C12.7937 16.3444 12.4964 16.3224 12.1982 16.3143V13.8006H15.709ZM11.8018 13.8006V16.3143C11.5036 16.3224 11.2063 16.3444 10.9105 16.3844C10.263 16.472 9.62617 16.6394 9.02075 16.885C8.57026 15.9203 8.33198 14.8631 8.30575 13.8006H11.8018ZM5.55076 13.4045C5.5988 11.8172 6.22219 10.3734 7.21939 9.27436C7.66693 9.629 8.1575 9.92876 8.67568 10.1698C8.20471 11.182 7.95586 12.2905 7.92953 13.4045H5.55076ZM8.30575 13.4045C8.33213 12.3418 8.57056 11.2846 9.02085 10.32C9.24474 10.411 9.47296 10.4912 9.70432 10.5605C10.3845 10.7644 11.092 10.8741 11.8018 10.8913V13.4045H8.30575ZM16.0854 13.4045C16.059 12.2885 15.8094 11.1779 15.3365 10.1641C15.8502 9.92404 16.3366 9.62625 16.7806 9.27436C17.7778 10.3734 18.4012 11.8172 18.4492 13.4045H16.0854ZM12.1982 10.8913C12.908 10.8741 13.6155 10.7644 14.2957 10.5605C14.5313 10.4899 14.7637 10.408 14.9916 10.315C15.4434 11.2809 15.6826 12.3399 15.709 13.4045H12.1982V10.8913ZM11.8018 7.26641V10.53C11.1271 10.5129 10.4547 10.4084 9.80811 10.2146C9.59635 10.1512 9.38734 10.0781 9.18211 9.99561C9.19292 9.97509 9.20387 9.95467 9.21493 9.93425C9.39662 9.59842 9.6048 9.27681 9.83797 8.9744C10.1623 8.5538 10.5353 8.1702 10.9504 7.83849C11.2178 7.62477 11.5027 7.43275 11.8018 7.26641ZM12.1982 7.25826C12.5027 7.42647 12.7926 7.62124 13.0644 7.83849C13.4794 8.1702 13.8524 8.5538 14.1768 8.9744C14.41 9.27681 14.6182 9.59842 14.7999 9.93425C14.81 9.953 14.8201 9.9718 14.83 9.9907C14.6209 10.0752 14.4078 10.1499 14.1918 10.2146C13.5453 10.4084 12.8729 10.5129 12.1982 10.53V7.25826ZM11.1775 7.20716C10.9955 7.3283 10.8196 7.45862 10.6506 7.59719C10.2158 7.95354 9.82604 8.36384 9.48814 8.81272C9.24597 9.13447 9.03038 9.47605 8.84279 9.8323L8.83571 9.84585C8.35074 9.621 7.89097 9.34205 7.47074 9.01244C8.45198 8.04553 9.74131 7.39005 11.1775 7.20716ZM12.841 7.20957C14.2698 7.3957 15.5522 8.0497 16.5292 9.01244C16.1124 9.33935 15.6568 9.61643 15.1761 9.84031C14.9744 9.45597 14.74 9.08867 14.4749 8.74488C14.1661 8.34445 13.8156 7.97593 13.4284 7.65049C13.2409 7.49288 13.0448 7.34548 12.841 7.20957ZM3.52099 7.91158C4.86086 5.92301 6.88257 4.43059 9.2501 3.76992C9.73099 4.80673 10.782 5.5266 12 5.5266C13.218 5.5266 14.269 4.80673 14.7499 3.76992C17.0921 4.42353 19.0958 5.89116 20.4357 7.84786L18.0977 9.19671C16.7299 7.31029 14.5073 6.08239 12 6.08239C9.465 6.08239 7.22106 7.33753 5.85722 9.25939L3.52099 7.91158ZM12 0.219727C13.2593 0.219727 14.2817 1.24137 14.2817 2.49971C14.2817 3.75809 13.2593 4.77973 12 4.77973C10.7407 4.77973 9.71832 3.75809 9.71832 2.49971C9.71832 1.24137 10.7407 0.219727 12 0.219727Z" fill="#00920A"/>
</svg>
