<svg width="24" height="24" viewBox="0 0 24 24" fill="none" xmlns="http://www.w3.org/2000/svg">
<path fill-rule="evenodd" clip-rule="evenodd" d="M20.7118 23.8031H3.74436V21.1346L4.07642 20.7452C3.19193 19.9432 2.42949 19.0091 1.82035 17.9741L6.20801 20.4865H6.69283L1.38915 17.172C1.21933 16.8246 1.06609 16.4677 0.930448 16.1022L7.23257 20.4865H7.56601L0.674517 15.3317C0.548224 14.9023 0.445684 14.4628 0.368472 14.0148L8.05884 20.4865H8.40728L0.234015 12.9414C0.209376 12.6308 0.196884 12.3169 0.196884 12C0.196884 11.9304 0.197474 11.8609 0.198753 11.7917L8.74141 20.4865H8.98332L0.249113 10.8839C0.290375 10.4447 0.355784 10.0123 0.443963 9.58839L9.30373 20.4865H9.52449L0.682681 8.6405C0.792204 8.27146 0.919333 7.90999 1.06309 7.55693L9.76724 20.4865H9.97316L1.49596 6.61494C1.68634 6.24467 1.89575 5.88571 2.12291 5.53933L10.2064 20.4865H10.3949L8.3194 16.1981C8.29722 16.1875 8.27523 16.1765 8.2533 16.1654C8.14559 16.108 8.04271 16.0426 7.95448 15.9576C7.87117 15.8772 7.80306 15.7829 7.74616 15.6824C7.67337 15.554 7.6178 15.4166 7.55367 15.2839C7.53365 15.2446 7.51339 15.2059 7.49141 15.1678C7.47882 15.1468 7.46805 15.1309 7.4498 15.1149C7.42118 15.0917 7.39069 15.0711 7.36197 15.0481C7.33452 15.0244 7.30693 14.9991 7.28815 14.9676C7.27285 14.942 7.26346 14.9141 7.25348 14.886L7.25279 14.8858C7.23208 14.8741 7.21492 14.8626 7.20134 14.8424C7.18861 14.8235 7.18133 14.8012 7.18044 14.7784C7.17971 14.759 7.18315 14.7594 7.18403 14.7401C7.18423 14.7351 7.1828 14.7303 7.18305 14.7254C7.18403 14.7037 7.186 14.702 7.19239 14.6816C7.19662 14.6512 7.20144 14.6209 7.20705 14.5907C7.21325 14.5619 7.22008 14.5352 7.2343 14.5094C7.27487 14.4355 7.35301 14.3907 7.42762 14.3554L6.1552 11.7264C6.14472 11.7231 6.13493 11.72 6.11403 11.7132C5.98444 11.6684 5.84777 11.6108 5.76186 11.4983C5.74017 11.4699 5.72143 11.4401 5.70619 11.4077C5.68809 11.3693 5.67535 11.3287 5.66674 11.2872C5.65656 11.2381 5.65287 11.1882 5.6514 11.1381C5.64992 11.0896 5.65302 11.0404 5.64683 10.992C5.64619 10.9882 5.64658 10.9882 5.64437 10.985C5.63581 10.9735 5.62671 10.9631 5.61732 10.952C5.57635 10.907 5.53396 10.8634 5.49348 10.8178C5.46107 10.7794 5.43029 10.7397 5.4057 10.6956C5.36749 10.6271 5.34511 10.5502 5.34767 10.4714C5.34885 10.4361 5.35617 10.4021 5.36621 10.3684C5.3847 10.3164 5.40417 10.2648 5.42271 10.2129L2.74429 4.67859C2.98596 4.37358 3.24233 4.08076 3.51243 3.80123L4.27973 5.60942C4.28101 5.55261 4.2842 5.49463 4.29507 5.43896C4.33068 5.25586 4.4675 5.10316 4.64125 5.03859C4.70567 5.01464 4.78038 5.00028 4.84864 5.01513C4.89792 5.02585 4.94385 5.04503 4.9889 5.0676C5.03006 5.08826 5.06936 5.11216 5.10678 5.13867L4.32886 3.03235C4.60732 2.79388 4.89698 2.56819 5.19698 2.35613L6.23605 5.63194C6.26964 5.60307 6.30219 5.57312 6.33475 5.54307C6.44831 5.43512 6.55719 5.32255 6.67001 5.21381C6.74796 5.14108 6.83087 5.06382 6.92712 5.0139L6.05959 1.80065C6.41285 1.59429 6.77776 1.40578 7.15315 1.23631L8.17417 5.99007C8.18228 5.98215 8.1903 5.97418 8.19831 5.96607C8.22541 5.9369 8.25118 5.90685 8.27317 5.87361C8.29161 5.84572 8.30803 5.81612 8.31999 5.78484C8.34694 5.71422 8.34974 5.63823 8.34816 5.56348C8.34408 5.47456 8.33317 5.38624 8.32761 5.29742C8.32426 5.2176 8.32436 5.13414 8.35692 5.05954C8.40561 4.94785 8.52575 4.88992 8.63651 4.85687C8.65869 4.85023 8.68131 4.84452 8.70393 4.83951C8.73914 4.83169 8.77475 4.82569 8.8105 4.82092L8.81906 4.81979L8.15209 0.839382C8.4929 0.721745 8.8407 0.619303 9.19474 0.532895L9.70813 4.79166C9.77192 4.7889 9.8088 4.78767 9.89678 4.78448C10.0259 4.78054 10.1551 4.777 10.2843 4.77523C10.3742 4.77395 10.4653 4.77597 10.5552 4.77297C10.5715 4.77184 10.5878 4.77051 10.6041 4.76908L10.2779 0.321865C10.6556 0.266538 11.039 0.229161 11.4274 0.210621L11.5624 5.77377C11.5728 5.7843 11.5824 5.79566 11.5913 5.808C11.6141 5.83972 11.6283 5.87833 11.6407 5.91492C11.6715 6.00541 11.6849 6.10097 11.6924 6.19588C11.6957 6.23714 11.6979 6.2785 11.6994 6.31986C11.7019 6.38581 11.7035 6.45181 11.7071 6.51776C11.71 6.55922 11.7137 6.60058 11.7177 6.64199C11.7294 6.75024 11.7419 6.85833 11.7523 6.96672C11.7546 6.99294 11.7567 7.0191 11.7586 7.04531L11.7611 7.04438C11.782 7.03523 11.8022 7.025 11.8221 7.01384C11.9052 6.96495 11.9796 6.90318 12.0523 6.84023C12.1187 6.78274 12.1841 6.72407 12.2511 6.66732C12.2871 6.63771 12.2869 6.63786 12.3235 6.60884C12.3613 6.58027 12.3998 6.55258 12.4395 6.52706L12.6001 0.211948C12.9791 0.230981 13.3533 0.267866 13.7221 0.321865L13.2815 6.32965C13.4609 6.31268 13.6415 6.30122 13.8217 6.31204C13.916 6.3177 14.0117 6.32921 14.1036 6.35375L14.8053 0.532895C15.1593 0.619353 15.5072 0.721794 15.8479 0.839382L14.8386 6.86261C14.9165 6.8574 14.9945 6.85297 15.0724 6.84914C15.1431 6.84633 15.1735 6.84476 15.2443 6.84333C15.3399 6.84141 15.4359 6.84107 15.5314 6.84786C15.567 6.85041 15.6033 6.85356 15.6391 6.85946L16.8469 1.23631C17.2222 1.40578 17.5871 1.59429 17.9404 1.80065L16.4426 7.34821C16.4546 7.35342 16.4664 7.35898 16.4783 7.36464C16.5344 7.39144 16.5888 7.42139 16.6417 7.45419C16.7993 7.55181 16.9379 7.68598 17.0262 7.84999C17.0335 7.86371 17.0405 7.87758 17.0472 7.89165L18.803 2.35613C19.103 2.56819 19.3927 2.79393 19.6711 3.03235L16.8785 10.5939C16.9055 10.6433 16.9227 10.6978 16.9268 10.7548C16.9294 10.7921 16.9246 10.8277 16.9198 10.8646C16.9162 10.8927 16.9133 10.9209 16.9106 10.9491C16.9057 11.0107 16.9058 11.0105 16.9022 11.072C16.8881 11.4262 16.9138 11.7796 16.9527 12.1315L20.4876 3.80123C20.7576 4.08071 21.014 4.37353 21.2557 4.67859L17.5504 12.3347C17.6599 12.3813 17.7581 12.4497 17.8262 12.5505C17.8509 12.5871 17.8708 12.6269 17.885 12.6687C17.9004 12.7142 17.909 12.7618 17.9095 12.8098C17.9098 12.8357 17.9078 12.8615 17.9035 12.8869L21.8771 5.53933C22.1042 5.88566 22.3136 6.24462 22.504 6.61494L17.6119 14.6201C17.6469 14.6485 17.6837 14.6747 17.7212 14.6998C17.8076 14.7559 17.897 14.8071 17.9839 14.8625C17.9919 14.8678 18 14.8732 18.008 14.8786L22.9369 7.55693C23.0807 7.90994 23.2077 8.27146 23.3173 8.6405L18.3577 15.2852C18.367 15.3115 18.3748 15.3384 18.3813 15.3656C18.4078 15.4778 18.4079 15.5924 18.418 15.7066C18.4562 15.725 18.4966 15.7387 18.5357 15.7549L18.5409 15.7573L23.556 9.58839C23.6442 10.0124 23.7096 10.4447 23.7509 10.8839L17.7151 17.5198C17.7142 17.5402 17.7136 17.5605 17.7132 17.5807C17.7123 17.6389 17.7135 17.6969 17.7173 17.7548L17.7329 17.7532C17.7816 17.7494 17.7814 17.7494 17.8303 17.7465C17.8802 17.7446 17.88 17.7442 17.9297 17.7442C17.9373 17.7442 17.9449 17.7444 17.9525 17.7446L23.8012 11.7917L23.8021 11.8437C23.8028 11.8957 23.8031 11.9478 23.8031 12C23.8031 12.3169 23.7906 12.6308 23.766 12.9414L18.3318 17.9579C18.3297 17.9725 18.3273 17.9868 18.3251 18.0006C18.3205 18.0395 18.3196 18.128 18.3182 18.1666C18.3152 18.2452 18.3126 18.3239 18.3097 18.4026C18.3072 18.4378 18.3032 18.469 18.2891 18.5014C18.2865 18.5074 18.2834 18.5131 18.2799 18.5184L23.6315 14.0148L23.6167 14.0987C23.5414 14.5178 23.4439 14.9292 23.3255 15.3317L16.434 20.4865H16.7674L23.0696 16.1022L23.0439 16.1706C22.9147 16.5122 22.77 16.8464 22.6109 17.172L17.3072 20.4865H17.792L22.1796 17.9741L22.1555 18.0148C21.6099 18.9335 20.9433 19.7719 20.1776 20.508L20.7118 21.1346V23.8031ZM20.4168 21.4297H4.03944V23.5081H20.4168V21.4297ZM15.4232 22.857C15.4232 22.9204 15.3955 23.0071 15.3399 23.1171C15.2865 23.2229 15.2318 23.3038 15.1758 23.3598C15.1393 23.3598 15.0904 23.3471 15.029 23.3217C14.9677 23.2963 14.9238 23.2707 14.8974 23.2448C14.9931 23.2009 15.0785 23.1499 15.1535 23.0917C15.2419 23.0235 15.2942 22.9619 15.3106 22.9069C15.2868 22.8408 15.2379 22.7829 15.1639 22.7332L15.2733 22.5215C15.3124 22.5553 15.3472 22.6066 15.3776 22.6753C15.4081 22.744 15.4232 22.8046 15.4232 22.857ZM20.1402 23.1464L20.0125 23.267L19.8872 23.1417L20.0173 23.0227L20.1402 23.1464ZM16.5003 23.1353L16.3726 23.2559L16.2473 23.1306L16.3774 23.0116L16.5003 23.1353ZM6.311 21.887H6.48322V22.6244C6.48322 22.7208 6.47698 22.7949 6.46454 22.8468C6.44781 22.9147 6.41747 22.9691 6.37345 23.0102C6.32949 23.0512 6.2715 23.0717 6.19951 23.0717C6.11506 23.0717 6.05005 23.0396 6.00451 22.9752C5.95897 22.9108 5.93605 22.8164 5.93566 22.6919L6.09849 22.6665C6.10046 22.7332 6.10764 22.7804 6.12013 22.8079C6.13882 22.8498 6.16719 22.8707 6.20536 22.8707C6.24387 22.8707 6.27111 22.8557 6.2871 22.8258C6.30303 22.7959 6.311 22.7338 6.311 22.6395V21.887ZM7.43888 23.0519H7.25087L7.17616 22.7873H6.83407L6.76345 23.0519H6.58011L6.91345 21.887H7.0962L7.43888 23.0519ZM5.83931 22.0841H5.37757V22.3423H5.8072V22.5386H5.37757V22.8556H5.85564V23.0519H5.20475V21.887H5.83931V22.0841ZM7.70391 23.0519H7.53109V21.887H7.89478C7.98625 21.887 8.05269 21.8975 8.09415 21.9184C8.13561 21.9393 8.16881 21.9765 8.19369 22.03C8.21858 22.0835 8.23107 22.1447 8.23107 22.2136C8.23107 22.301 8.21218 22.3731 8.17441 22.4301C8.13669 22.487 8.08023 22.5229 8.00514 22.5378C8.04251 22.5674 8.07335 22.6 8.09764 22.6355C8.12199 22.671 8.15479 22.734 8.196 22.8246L8.30051 23.0519H8.09386L7.96894 22.7984C7.92458 22.7078 7.89424 22.6507 7.87786 22.6271C7.86153 22.6036 7.84422 22.5874 7.82593 22.5787C7.80763 22.57 7.77862 22.5656 7.73893 22.5656H7.70391V23.0519ZM9.16568 23.0519H8.97771L8.90296 22.7873H8.56087L8.49024 23.0519H8.30695L8.64029 21.887H8.82299L9.16568 23.0519ZM9.78741 22.0841H9.53403V23.0519H9.36127V22.0841H9.1073V21.887H9.78741V22.0841ZM10.5229 23.0519H10.2316V21.887H10.5737C10.6415 21.887 10.692 21.8908 10.7252 21.8985C10.7585 21.9062 10.7883 21.9222 10.8146 21.9466C10.8408 21.9709 10.8627 22.0034 10.8802 22.0439C10.8977 22.0844 10.9065 22.1299 10.9065 22.1802C10.9065 22.2347 10.8957 22.2848 10.8741 22.3304C10.8525 22.3759 10.8232 22.4101 10.7862 22.4329C10.8384 22.4535 10.8785 22.4888 10.9065 22.5386C10.9345 22.5883 10.9485 22.6469 10.9485 22.7141C10.9485 22.7671 10.9395 22.8187 10.9214 22.8687C10.9033 22.9188 10.8786 22.9588 10.8472 22.9887C10.8159 23.0186 10.7773 23.037 10.7314 23.0439C10.7026 23.0482 10.6331 23.0508 10.5229 23.0519ZM11.8662 23.0519H11.6783L11.6035 22.7873H11.2614L11.1908 23.0519H11.0075L11.3408 21.887H11.5235L11.8662 23.0519ZM12.1202 23.0519H11.9596V21.887H12.1278L12.478 22.6649V21.887H12.6385V23.0519H12.4652L12.1202 22.2922V23.0519ZM12.9964 23.0519H12.8236V21.887H12.9964V22.4043L13.3455 21.887H13.5779L13.2556 22.3407L13.5954 23.0519H13.3718L13.1365 22.5052L12.9964 22.6998V23.0519ZM5.09326 22.0841H4.83989V23.0519H4.66712V22.0841H4.41315V21.887H5.09326V22.0841ZM19.0163 22.8918H18.9648C18.9061 22.8918 18.8503 22.8712 18.7974 22.83C18.7683 22.8072 18.7308 22.7663 18.6848 22.7071C18.6388 22.6478 18.6021 22.6074 18.5746 22.5857C18.5777 22.6047 18.5793 22.6245 18.5793 22.6452C18.5793 22.6721 18.5764 22.7007 18.5706 22.7308C18.5235 22.7985 18.4472 22.8445 18.3414 22.8688C18.2748 22.8842 18.1833 22.8918 18.0669 22.8918C17.9089 22.8918 17.8023 22.8807 17.7473 22.8585C17.667 22.8263 17.6268 22.7581 17.6268 22.6539C17.6268 22.5603 17.6593 22.4625 17.7243 22.3604C17.7492 22.3583 17.765 22.367 17.7719 22.3866C17.7412 22.4369 17.7259 22.4852 17.7259 22.5317C17.7259 22.5984 17.7637 22.641 17.8393 22.6595C17.8822 22.67 17.9712 22.6753 18.1066 22.6753C18.2314 22.6753 18.3226 22.6706 18.3802 22.661C18.4321 22.6526 18.4762 22.6354 18.5127 22.6095C18.4514 22.5069 18.3446 22.421 18.1923 22.3517C18.1955 22.2444 18.2039 22.1542 18.2176 22.0813C18.4466 21.9523 18.6663 21.865 18.8767 21.8195L18.7816 22.0242C18.7076 22.0422 18.6119 22.0752 18.4945 22.1233C18.4009 22.1614 18.3332 22.1918 18.2914 22.2145C18.3744 22.2457 18.4696 22.3028 18.5769 22.3858C18.6171 22.417 18.6665 22.4627 18.7253 22.523C18.7781 22.5775 18.8167 22.6134 18.841 22.6309C18.8812 22.66 18.9233 22.6745 18.9672 22.6745H19.0481C19.1628 22.6745 19.2202 22.6573 19.2202 22.623C19.2202 22.5992 19.1903 22.5468 19.1306 22.4659L19.2527 22.2994C19.313 22.3797 19.3431 22.4638 19.3431 22.5516C19.3246 22.6637 19.2992 22.7398 19.267 22.78C19.2072 22.8546 19.1237 22.8918 19.0163 22.8918ZM19.8205 22.8918H19.769C19.668 22.8918 19.6022 22.8501 19.5715 22.7665C19.5509 22.71 19.5372 22.5838 19.5303 22.3882C19.5271 22.2914 19.5232 22.2243 19.5184 22.1867C19.5094 22.1138 19.4925 22.049 19.4676 21.9924L19.6128 21.8401C19.6371 21.8787 19.6522 21.9382 19.658 22.0186C19.6601 22.0477 19.6612 22.1093 19.6612 22.2034V22.4374C19.6612 22.5071 19.6662 22.558 19.6762 22.5897C19.6942 22.6462 19.7302 22.6745 19.7841 22.6745H19.8523C19.9671 22.6745 20.0244 22.6573 20.0244 22.623C20.0244 22.5992 19.9945 22.5468 19.9348 22.4659L20.0569 22.2994C20.1172 22.3797 20.1473 22.4638 20.1473 22.5516C20.1289 22.6637 20.1034 22.7398 20.0712 22.78C20.0115 22.8546 19.9279 22.8918 19.8205 22.8918ZM14.8371 22.5183C14.8371 22.5431 14.822 22.5878 14.7919 22.6523C14.7618 22.7168 14.7372 22.7567 14.7182 22.7721C14.6949 22.7906 14.6222 22.8138 14.5 22.8419C14.3546 22.8752 14.2201 22.8918 14.0963 22.8918C13.9303 22.8918 13.8161 22.8593 13.7537 22.7943C13.7141 22.753 13.6942 22.692 13.6942 22.6111C13.6942 22.5011 13.7257 22.3975 13.7886 22.3002C13.7912 22.2997 13.7941 22.2994 13.7973 22.2994C13.8206 22.2994 13.8367 22.3084 13.8457 22.3263C13.8135 22.4025 13.7973 22.4606 13.7973 22.5008C13.7973 22.6177 13.9232 22.6761 14.1748 22.6761C14.4033 22.6761 14.5822 22.6489 14.7118 22.5944C14.6896 22.5368 14.6605 22.4839 14.6246 22.4358L14.7451 22.2724C14.7694 22.3026 14.7914 22.3462 14.8109 22.4033C14.8284 22.454 14.8371 22.4923 14.8371 22.5183ZM15.957 22.8918H15.8484C15.7473 22.8918 15.6815 22.8501 15.6509 22.7665C15.6302 22.71 15.6165 22.5838 15.6096 22.3882C15.6064 22.2914 15.6025 22.2243 15.5977 22.1867C15.5887 22.1138 15.5718 22.049 15.5469 21.9924L15.6921 21.8401C15.7164 21.8787 15.7315 21.9382 15.7373 22.0186C15.7394 22.0477 15.7405 22.1093 15.7405 22.2034V22.4374C15.7405 22.5071 15.7455 22.558 15.7556 22.5897C15.7735 22.6462 15.8095 22.6745 15.8634 22.6745H15.9919C16.0781 22.6745 16.1487 22.6658 16.2037 22.6483C16.2412 22.6367 16.3118 22.605 16.4154 22.5532C16.214 22.4739 16.1003 22.4342 16.0744 22.4342C16.0511 22.4342 16.0323 22.4416 16.0181 22.4564C16.0054 22.4691 15.9879 22.4966 15.9657 22.5389C15.9573 22.5426 15.9496 22.5444 15.9427 22.5444C15.9285 22.5444 15.9171 22.5373 15.9086 22.523C15.9446 22.4294 15.9721 22.3649 15.9911 22.3295C16.0265 22.2629 16.0607 22.2296 16.0934 22.2296C16.1146 22.2296 16.1872 22.2573 16.3111 22.3128C16.4351 22.3684 16.5254 22.3962 16.582 22.3962C16.6444 22.3962 16.7417 22.3835 16.8739 22.3581L16.7898 22.55C16.7205 22.5574 16.6634 22.5659 16.6185 22.5754C16.6502 22.6415 16.7116 22.6745 16.8025 22.6745H16.9706C17.0854 22.6745 17.1427 22.6573 17.1427 22.623C17.1427 22.5992 17.1129 22.5468 17.0531 22.4659L17.1753 22.2994C17.2355 22.3797 17.2657 22.4638 17.2657 22.5516C17.2472 22.6637 17.2218 22.7398 17.1895 22.78C17.1298 22.8546 17.0462 22.8918 16.9389 22.8918H16.8731C16.7837 22.8918 16.7126 22.8651 16.6597 22.8117C16.6174 22.7689 16.5807 22.7002 16.5495 22.6055C16.3803 22.725 16.2796 22.7938 16.2473 22.8117C16.1516 22.8651 16.0548 22.8918 15.957 22.8918ZM10.544 22.5441H10.4045V22.8556H10.5644C10.6267 22.8556 10.6662 22.8532 10.6829 22.8485C10.7086 22.8421 10.7295 22.8266 10.7457 22.802C10.7618 22.7773 10.7699 22.7443 10.7699 22.703C10.7699 22.6681 10.7637 22.6384 10.7512 22.6141C10.7387 22.5897 10.7207 22.5719 10.6972 22.5608C10.6737 22.5497 10.6226 22.5441 10.544 22.5441ZM11.5481 22.591L11.4302 22.1588L11.3146 22.591H11.5481ZM7.12069 22.591L7.00281 22.1588L6.88719 22.591H7.12069ZM8.84754 22.591L8.7296 22.1588L8.61403 22.591H8.84754ZM7.83876 22.0841H7.70391V22.3796H7.83173C7.91465 22.3796 7.96638 22.3749 7.98704 22.3654C8.00765 22.3558 8.02383 22.3394 8.03548 22.3161C8.04719 22.2928 8.05299 22.2636 8.05299 22.2287C8.05299 22.1894 8.04532 22.1578 8.02992 22.1337C8.01458 22.1096 7.99289 22.0944 7.96486 22.088C7.95084 22.0854 7.90879 22.0841 7.83876 22.0841ZM10.5037 22.0809H10.4045V22.3503H10.5177C10.5851 22.3503 10.6269 22.3489 10.6432 22.3463C10.6728 22.3415 10.6961 22.3276 10.713 22.3046C10.7299 22.2815 10.7384 22.2512 10.7384 22.2136C10.7384 22.1775 10.7311 22.1483 10.7165 22.1258C10.7019 22.1032 10.6802 22.0896 10.6514 22.0848C10.6343 22.0822 10.5851 22.0809 10.5037 22.0809ZM14.2502 22.1883L14.1328 22.2994L14.0178 22.1828L14.1375 22.0757L14.2502 22.1883ZM14.5405 22.1733L14.4231 22.2835L14.3081 22.1677L14.4286 22.0599L14.5405 22.1733ZM19.355 22.0646L19.2273 22.1852L19.102 22.0599L19.2321 21.9409L19.355 22.0646ZM17.3783 22.071L17.2689 22.1804L17.1578 22.0828L17.0563 22.1852L16.9397 22.0828L17.0491 21.971L17.1602 22.0701L17.2617 21.9663L17.3783 22.071ZM10.7751 20.4865L10.1598 18.8206L10.1456 18.8183L10.1015 18.81C10.08 18.804 10.0616 18.7973 10.0443 18.7825C10.0056 18.7494 9.99131 18.6942 10.009 18.6464C10.0169 18.6252 10.0298 18.6104 10.0456 18.5947L10.0692 18.5751L9.86654 18.0264C9.84701 18.0393 9.82592 18.0498 9.80354 18.0585C9.77437 18.0698 9.74403 18.0779 9.71329 18.0836C9.69746 18.0866 9.68172 18.0888 9.66569 18.0903C9.63692 18.093 9.60638 18.0935 9.57598 18.0907L10.5926 20.4865H10.7751ZM10.9479 20.4865H11.1045L10.6687 18.8723C10.5892 18.8684 10.5099 18.863 10.4306 18.8556L10.9479 20.4865ZM11.2877 20.4865H11.4443L11.1756 18.8831L11.1034 18.8826L10.9428 18.881L11.2877 20.4865ZM11.6002 20.4865H11.7568L11.6394 18.8865L11.6134 18.8867C11.5446 18.8859 11.4758 18.8852 11.4071 18.8847L11.6002 20.4865ZM12.0843 20.4865L12.1255 18.8693C12.068 18.9058 12.0039 18.8952 11.9398 18.8851C11.9256 18.8835 11.9113 18.8841 11.897 18.884L11.8806 18.8839L11.9195 20.4865H12.0843ZM12.3998 20.4865L12.6673 18.2681C12.663 18.2796 12.6586 18.2912 12.6539 18.3026C12.6427 18.3273 12.631 18.3515 12.616 18.374C12.5654 18.4495 12.4931 18.5101 12.4212 18.5642C12.4083 18.5734 12.3953 18.5825 12.3822 18.5914L12.2432 20.4865H12.3998ZM12.7123 20.4865L13.3119 17.6951C13.298 17.7251 13.2842 17.7551 13.27 17.7849C13.2525 17.8198 13.2525 17.8197 13.2342 17.854C13.1738 17.9584 13.0974 18.0698 12.9739 18.1018C12.9675 18.1035 12.9611 18.1049 12.9546 18.106L12.5557 20.4865H12.7123ZM12.8955 20.4865H13.0521L13.7365 18.3287C13.7255 18.3207 13.7155 18.3115 13.707 18.3007C13.69 18.2795 13.6792 18.2533 13.6716 18.2275C13.6541 18.1685 13.6558 18.1061 13.6646 18.0458C13.6667 18.0315 13.67 18.0126 13.6728 17.9984C13.6792 17.9664 13.6863 17.9345 13.6921 17.9024C13.7021 17.8361 13.7095 17.7694 13.7166 17.7027C13.7247 17.6195 13.7308 17.5361 13.7302 17.4524C13.7301 17.4346 13.7297 17.4168 13.7291 17.399L12.8955 20.4865ZM13.2249 20.4865H13.4074L14.2023 18.6131C14.1888 18.6106 14.1755 18.6071 14.1625 18.6018C14.1074 18.58 14.0653 18.5345 14.0476 18.4779C14.039 18.4505 14.0369 18.4221 14.0359 18.3935L14.0357 18.3846C14.0247 18.3831 14.0136 18.3819 14.0025 18.3809L13.2249 20.4865ZM13.6051 20.4865H13.7936L14.7313 18.7527C14.6677 18.7509 14.6043 18.7456 14.5416 18.7335C14.5152 18.7285 14.4884 18.7231 14.4629 18.7142L13.6051 20.4865ZM14.2328 20.4865L15.4089 18.7393C15.3032 18.741 15.1976 18.7411 15.0919 18.7437L14.0268 20.4865H14.2328ZM14.6963 20.4865L16.1429 18.7071L16.1344 18.7076C16.0194 18.7145 15.9043 18.721 15.7892 18.7264L14.4755 20.4865H14.6963ZM15.2586 20.4865L17.0674 18.6455C16.999 18.6499 16.9306 18.6541 16.8622 18.6587L16.6671 18.672L15.0167 20.4865H15.2586ZM15.9412 20.4865L18.2278 18.5622C18.1925 18.5797 18.1498 18.5864 18.1134 18.5891C18.1045 18.5897 18.0956 18.5901 18.0867 18.5903C18.0697 18.5907 18.052 18.5904 18.035 18.5897C18.0102 18.5887 17.9885 18.5869 17.9632 18.585C17.9329 18.5826 17.9029 18.5796 17.8725 18.5788C17.8229 18.5797 17.7732 18.5841 17.7237 18.5878C17.6964 18.59 17.6691 18.5924 17.6419 18.5948L15.5927 20.4865H15.9412ZM9.8838 17.7151C9.8868 17.7148 9.8898 17.7145 9.89285 17.7143C9.91301 17.7146 9.91286 17.7145 9.93308 17.7162C9.93883 17.7171 9.94458 17.718 9.95029 17.7191L9.95191 17.7194C9.95732 17.7204 9.96273 17.7216 9.96809 17.7228L9.97045 17.7233C9.97567 17.7246 9.98088 17.7259 9.986 17.7273L9.9918 17.7289L9.99745 17.7306L10.005 17.7328L10.0109 17.7348L10.0159 17.7365L10.0224 17.7387L10.0297 17.7413L10.0396 17.7451L10.0483 17.7486L10.0567 17.7521L10.0666 17.7564L10.0735 17.7596L10.0846 17.7649C10.1252 17.7845 10.164 17.8082 10.2015 17.8333C10.2686 17.8783 10.3348 17.9281 10.3857 17.9915C10.4923 18.1243 10.5201 18.2995 10.4734 18.4617C10.4584 18.5137 10.4379 18.5624 10.406 18.6062L10.4054 18.6069C10.4707 18.6136 10.536 18.6187 10.6013 18.6226L10.6102 18.6232L10.6672 18.6263L10.6831 18.627L10.7422 18.6296L10.8124 18.632L10.884 18.6339L10.9372 18.635C11.0029 18.6358 11.0686 18.6364 11.1343 18.6369L11.3774 18.6386C11.4565 18.6391 11.5355 18.6398 11.6145 18.6408L11.6847 18.6402L11.8113 18.6385L11.8164 18.6385C11.8442 18.6382 11.8721 18.638 11.9 18.6381C11.9363 18.6389 11.9361 18.6374 11.972 18.6412L11.981 18.6426C11.9859 18.6267 11.9915 18.6115 11.9978 18.5961C12.0124 18.5669 12.0298 18.542 12.0548 18.5208C12.0814 18.5006 12.1083 18.481 12.1357 18.4617L12.206 18.4143L12.2409 18.3904L12.2756 18.366C12.2959 18.3507 12.3156 18.335 12.335 18.3186L12.3549 18.3003L12.3647 18.291L12.3744 18.2814L12.3839 18.2716L12.3881 18.2669L12.393 18.2614L12.3971 18.2565L12.4016 18.2509L12.4078 18.2427L12.4115 18.2373C12.4242 18.2182 12.4324 18.1959 12.4401 18.1745C12.4496 18.148 12.4588 18.1215 12.4689 18.0952C12.4786 18.0719 12.4785 18.0721 12.4893 18.0493C12.5058 18.0191 12.5235 17.9905 12.5475 17.9656C12.5928 17.9186 12.6512 17.8899 12.7143 17.8774L12.7253 17.8754C12.7294 17.8747 12.7337 17.874 12.7379 17.8735C12.7924 17.8662 12.8478 17.8729 12.9022 17.8657C12.9098 17.8643 12.9176 17.863 12.9243 17.8588L12.9326 17.8521L12.9407 17.8449L12.9434 17.8424L12.951 17.8347L12.9583 17.8268L12.9652 17.8185L12.9721 17.8098L12.9744 17.8067L12.9809 17.7978L12.9868 17.7891L12.9961 17.7745L13.0029 17.7631L13.0098 17.7513L13.0144 17.7431C13.0213 17.7307 13.0279 17.7183 13.0342 17.7064C13.0711 17.6329 13.1037 17.5574 13.1398 17.4836C13.1609 17.4432 13.1846 17.4042 13.2059 17.3639C13.2313 17.3158 13.2557 17.2672 13.282 17.2196C13.2969 17.1941 13.3122 17.1691 13.3289 17.1448C13.3476 17.1189 13.3671 17.0939 13.3891 17.0707C13.408 17.0508 13.4281 17.0321 13.4495 17.0148L13.4597 17.0069L13.4668 17.0013L13.4747 16.9955L13.4846 16.9885L13.49 16.9848L13.5028 16.9762L13.5042 16.9753C13.5099 16.9716 13.5156 16.9679 13.5214 16.9644C13.6014 16.9152 13.6997 16.8663 13.794 16.9035C13.8152 16.9119 13.8351 16.9257 13.8522 16.9405L13.8527 16.9409C13.8704 16.9563 13.8857 16.9743 13.8986 16.9939C13.9182 17.0237 13.9318 17.0571 13.9414 17.0912C13.9594 17.1556 13.9623 17.2226 13.9679 17.2888C13.9736 17.3562 13.9769 17.4234 13.976 17.4911C13.9752 17.5496 13.9719 17.6081 13.967 17.6665L13.9668 17.6685L13.9666 17.6704C13.9656 17.6834 13.9644 17.6963 13.9632 17.7093C13.9616 17.7252 13.96 17.7411 13.9582 17.757L13.9565 17.772L13.954 17.7951L13.9525 17.8068L13.9517 17.8141L13.9504 17.824L13.9488 17.8371L13.9461 17.8584L13.945 17.8677L13.9379 17.9212C13.9307 17.975 13.9166 18.0276 13.908 18.0812C13.906 18.0961 13.9046 18.1107 13.904 18.1258L13.9041 18.1283C13.9407 18.1317 13.9776 18.1325 14.0142 18.1349L14.0332 18.1367L14.0465 18.1381L14.0626 18.1401L14.0711 18.1413L14.0787 18.1425L14.0899 18.1445C14.1074 18.1478 14.1247 18.1522 14.1415 18.1584C14.2014 18.1805 14.2488 18.2252 14.2689 18.2864C14.278 18.3142 14.2805 18.3432 14.2813 18.3724L14.3047 18.3719L14.3092 18.3719L14.3208 18.3718L14.3371 18.3721C14.3877 18.3758 14.4331 18.3889 14.4739 18.4199C14.4859 18.429 14.497 18.4393 14.5078 18.4498C14.5184 18.4603 14.5287 18.4727 14.5413 18.4812L14.5489 18.4835L14.5566 18.4856L14.5718 18.4891C14.5828 18.4913 14.5939 18.4931 14.6048 18.4951C14.6936 18.5089 14.7833 18.5099 14.8732 18.5071L14.8936 18.5064L14.9242 18.5052L15.0485 18.4994L15.0804 18.4981C15.0908 18.4978 15.1013 18.4974 15.1116 18.4972L15.1124 18.4971C15.2068 18.4962 15.3012 18.4957 15.3957 18.4941C15.461 18.4925 15.5263 18.4904 15.5915 18.488L15.6637 18.4853L15.6855 18.4844L15.7773 18.4805L15.7864 18.48L15.8712 18.476L15.8902 18.4751L15.9988 18.4694C16.1173 18.4623 16.2358 18.4548 16.3543 18.447L16.6209 18.4293L16.9054 18.41L17.1371 18.3946C17.2041 18.3895 17.2711 18.3835 17.3381 18.377C17.4053 18.3706 17.4726 18.3639 17.5398 18.3575L17.5628 18.3553L17.5917 18.3526L17.6111 18.3507L17.6337 18.3487L17.6408 18.3481C17.6621 18.3462 17.6834 18.3443 17.7047 18.3426C17.754 18.339 17.8033 18.3359 17.8527 18.3333L17.8659 18.3332H17.8703L17.8791 18.3333L17.8879 18.3335L17.9054 18.3342L17.9231 18.3352C17.9699 18.338 18.0165 18.3432 18.0634 18.3445H18.0653C18.0668 18.2538 18.0722 18.163 18.0757 18.0723L18.0795 17.9858C18.0563 17.9872 18.0331 17.989 18.0099 17.9902L17.9866 17.9912C17.9698 17.9911 17.953 17.9909 17.9361 17.9906L17.9109 17.9904C17.9025 17.9904 17.894 17.9904 17.8856 17.9904L17.8609 17.9915L17.8371 17.9928L17.789 17.996L17.7655 17.9979L17.7382 18.0002L17.7124 18.0026C17.634 18.01 17.5558 18.0192 17.4774 18.0267C17.4292 18.0308 17.4294 18.0308 17.381 18.0339C17.3399 18.0356 17.299 18.0369 17.2578 18.0365L17.2454 18.0362L17.2382 18.036L17.2366 18.0359C17.2322 18.0358 17.2274 18.0356 17.2185 18.035C17.1717 18.0302 17.1277 18.0172 17.0848 17.9982C17.0354 17.9762 16.9893 17.9474 16.9397 17.9256C16.9261 17.9203 16.9131 17.9165 16.8988 17.9128L16.8865 17.9105L16.8742 17.9085L16.8694 17.9077L16.8618 17.9066L16.8569 17.906L16.8495 17.905L16.8402 17.9039L16.8244 17.9022L16.7992 17.8999C16.7665 17.8971 16.7337 17.8949 16.7011 17.8913C16.6732 17.8873 16.6734 17.8873 16.6459 17.8822C16.6161 17.8752 16.5869 17.8674 16.5586 17.8555C16.5286 17.8429 16.4998 17.828 16.4719 17.8119L16.4699 17.8107C16.4621 17.8063 16.4543 17.8016 16.4465 17.7969L16.4456 17.7964L16.43 17.7867L16.4236 17.7827L16.4212 17.7812L16.4183 17.7793L16.4123 17.7755L16.4056 17.7712L16.3964 17.7652L16.3813 17.7553L16.3773 17.7528L16.3729 17.7498L16.3716 17.749L16.334 17.7241L16.3136 17.7109L16.3012 17.7028L16.2949 17.6988L16.2722 17.6846C16.2495 17.6717 16.2266 17.6593 16.2025 17.6487L16.1918 17.6446L16.189 17.6435L16.1833 17.6416L16.1719 17.6379L16.1677 17.6365C16.1345 17.6266 16.1006 17.6209 16.0656 17.6156C16.0269 17.6098 15.988 17.6052 15.9491 17.6015C15.8998 17.5968 15.8502 17.5932 15.8004 17.5911L15.7964 17.5909L15.7684 17.59L15.762 17.5898L15.7398 17.5893L15.7321 17.5892L15.7092 17.5891L15.7034 17.589L15.6748 17.5893L15.6702 17.5894L15.6467 17.59L15.6374 17.5903L15.6183 17.5911L15.6083 17.5916L15.58 17.5933L15.552 17.5955L15.5199 17.5987L15.5104 17.5998L15.4865 17.6026L15.4776 17.6037L15.4463 17.6079L15.3987 17.6149C15.3555 17.6214 15.3125 17.6282 15.2694 17.6338C15.231 17.6383 15.2311 17.6382 15.1924 17.6419C15.1174 17.647 15.0426 17.6486 14.9679 17.6389C14.909 17.6312 14.8548 17.618 14.8031 17.5878L14.7946 17.5826L14.7925 17.5813L14.7912 17.5805L14.7895 17.5794L14.7863 17.5774L14.784 17.5758L14.7795 17.573L14.7719 17.5676L14.7699 17.5663L14.7692 17.5658C14.7644 17.5624 14.7597 17.559 14.755 17.5554L14.754 17.5547L14.7517 17.5528L14.7459 17.5485L14.7405 17.5441L14.7384 17.5426L14.7371 17.5414L14.735 17.5398L14.7315 17.5369L14.7232 17.5301L14.7164 17.5243L14.7137 17.5221L14.711 17.5197L14.7081 17.5173L14.7021 17.512L14.6927 17.5039L14.6784 17.4912C14.6622 17.477 14.6462 17.4628 14.6297 17.4492C14.5644 17.3984 14.494 17.3544 14.4275 17.3052C14.4203 17.2996 14.4132 17.2939 14.4062 17.2882L14.4004 17.2834L14.3949 17.2789L14.3936 17.2778C14.3888 17.2738 14.384 17.2698 14.3793 17.2657L14.3765 17.2633L14.3662 17.2542L14.3648 17.2529L14.3633 17.2516L14.3533 17.2424L14.3504 17.2397L14.348 17.2375L14.3451 17.2346L14.3407 17.2304L14.3362 17.226L14.3331 17.2229L14.3311 17.2208L14.3283 17.218L14.3186 17.2078L14.3175 17.2068C14.3131 17.202 14.3088 17.1972 14.3045 17.1923C14.3003 17.1875 14.2962 17.1827 14.2922 17.1778L14.2911 17.1765L14.2884 17.1731L14.2829 17.1663L14.2803 17.1628L14.2783 17.1604L14.2761 17.1574L14.2726 17.153L14.2685 17.1473L14.266 17.144L14.2646 17.142L14.2627 17.1394L14.2541 17.1271L14.2537 17.1265C14.2502 17.1212 14.2467 17.116 14.2433 17.1107L14.2428 17.11L14.2408 17.1067L14.2349 17.0973L14.2333 17.0946L14.232 17.0926L14.2299 17.0888L14.2263 17.0829L14.2237 17.0781L14.2217 17.0748L14.2202 17.0719L14.2181 17.0683L14.2142 17.0608L14.212 17.0567L14.2111 17.0551L14.2102 17.0534L14.2033 17.0398L14.2027 17.0384L14.202 17.037L14.1955 17.0232L14.1947 17.0216L14.194 17.0198L14.1919 17.0152L14.1887 17.0079L14.1872 17.0042L14.1857 17.001L14.1842 16.997L14.1822 16.9923L14.18 16.9866L14.1781 16.9819L14.1771 16.9792L14.1761 16.9767L14.173 16.968L14.171 16.9626L14.1706 16.9614L14.1704 16.9609C14.1638 16.9421 14.158 16.9229 14.153 16.9036C14.1292 16.8122 14.1216 16.7178 14.1065 16.6248C14.1026 16.6037 14.0982 16.5829 14.0929 16.5621C14.0841 16.533 14.0741 16.5038 14.0544 16.48C14.0369 16.4588 14.0133 16.445 13.9878 16.4357L13.976 16.4317L13.9752 16.4314L13.9637 16.4282L13.9616 16.4277L13.9505 16.4251L13.9355 16.4221C13.9152 16.4184 13.8946 16.4163 13.8741 16.4158L13.8617 16.4157C13.8535 16.4158 13.8453 16.4162 13.837 16.4168C13.7532 16.4234 13.6751 16.4573 13.6009 16.4948L13.5661 16.5135C13.4899 16.5551 13.4157 16.6005 13.3395 16.642C13.2903 16.6676 13.2399 16.6902 13.1885 16.7103L13.1879 16.7106L13.1865 16.7111L13.1799 16.7136L13.1675 16.7184L13.164 16.7197L13.1604 16.7211L13.1541 16.7233L13.1464 16.7262L13.1397 16.7285L13.1341 16.7306L13.1298 16.7321L13.1253 16.7337L13.1144 16.7374L13.1077 16.7397L13.1056 16.7404C13.0978 16.743 13.09 16.7456 13.0822 16.7481L13.0812 16.7485L13.075 16.7504L13.0612 16.7548L13.0579 16.7557L13.0545 16.7568L13.0479 16.7588L13.0397 16.7613L13.0333 16.7632L13.0277 16.7648L13.0228 16.7662L13.0181 16.7676L13.008 16.7704L13.0008 16.7725L12.9981 16.7732L12.9964 16.7737L12.9777 16.7787L12.9738 16.7798L12.9656 16.7819L12.9529 16.7852L12.9504 16.7858L12.9467 16.7868L12.9383 16.7888L12.931 16.7907L12.9283 16.7913C12.9147 16.7946 12.9011 16.7978 12.8875 16.8008L12.8871 16.801L12.8859 16.8012L12.8648 16.8059L12.843 16.8105L12.8373 16.8118C12.7285 16.8343 12.6183 16.8508 12.5089 16.8647C12.4985 16.866 12.4882 16.8674 12.4779 16.8687C12.4412 16.8732 12.4046 16.8776 12.3678 16.882C12.3515 16.8839 12.335 16.8858 12.3185 16.8876L12.3174 16.8877L12.3093 16.8885L12.2963 16.8898L12.2942 16.89L12.2919 16.8902L12.2837 16.891L12.2722 16.892L12.2695 16.8922L12.2665 16.8925L12.2583 16.893L12.2481 16.8938L12.2447 16.8939L12.2409 16.8942L12.233 16.8946L12.224 16.8951L12.2199 16.8952L12.2153 16.8954L12.2078 16.8956L12.1998 16.8959L12.1951 16.8959L12.1897 16.896L12.1828 16.8959L12.1757 16.896C12.1038 16.8956 12.0327 16.8856 11.9655 16.8565C11.915 16.8346 11.8704 16.805 11.8293 16.7709L11.8273 16.7692L11.8214 16.7642L11.8153 16.7589L11.8134 16.7573L11.8122 16.7562C11.8026 16.7477 11.7932 16.739 11.7839 16.7301L11.7825 16.7287L11.7805 16.7268L11.7757 16.7222L11.7693 16.7158L11.7647 16.7112L11.7616 16.708L11.7526 16.6989L11.7458 16.6917L11.743 16.6888L11.7409 16.6865C11.7347 16.68 11.7286 16.6733 11.7225 16.6667L11.7217 16.6658L11.7189 16.6627L11.7094 16.6523L11.7055 16.6478L11.7007 16.6426L11.6829 16.6225L11.6812 16.6205L11.6804 16.6196L11.6799 16.6191L11.6482 16.5829L11.631 16.5634L11.6208 16.5519L11.6159 16.5465L11.597 16.5258C11.5812 16.5096 11.5651 16.494 11.5481 16.479L11.5376 16.4704L11.5339 16.4676L11.5268 16.4622L11.5222 16.459L11.5158 16.4544L11.5107 16.451L11.5047 16.4469L11.4989 16.4433L11.4933 16.4398L11.487 16.436L11.4818 16.433L11.4747 16.429L11.4701 16.4265L11.462 16.4223C11.3651 16.3721 11.2531 16.3512 11.1468 16.3311L11.0758 16.3176L11.0687 16.3162C11.0474 16.3122 11.0262 16.3081 11.0049 16.3038C10.9637 16.2948 10.9229 16.2854 10.8822 16.2744C10.8749 16.2723 10.8676 16.2701 10.8604 16.2678L10.8586 16.2673L10.8534 16.2656L10.8431 16.2623L10.8387 16.2608L10.8353 16.2598L10.8306 16.2581L10.8237 16.2558L10.8169 16.2534L10.8122 16.2517L10.8088 16.2505L10.8045 16.249L10.7948 16.2453L10.7892 16.2433L10.7874 16.2426L10.7855 16.2419L10.7691 16.2355L10.7665 16.2345L10.763 16.2331L10.7478 16.2268L10.7462 16.2261L10.744 16.2252L10.7291 16.2188C10.6597 16.1884 10.5931 16.1519 10.529 16.1099C10.4532 16.0602 10.3819 16.0045 10.3125 15.9463L10.3107 15.9448L10.307 15.9418L10.2914 15.9285L10.2852 15.9233L10.2835 15.9218L10.2804 15.9193L10.2581 15.9001L10.2569 15.8992L10.2161 15.8638L10.204 15.8533L10.2017 15.8514L10.2013 15.851L10.1498 15.8061L10.0961 15.7598L10.0517 15.7229L10.0358 15.7096L10.0076 15.6865L9.91424 15.6098L9.89054 15.5903L9.83733 15.5466L9.82906 15.5397L9.82326 15.535L9.79434 15.5109L9.7877 15.5053L9.77797 15.4973L9.76434 15.4858L9.75151 15.475L9.73292 15.4593C9.65162 15.3891 9.57161 15.3175 9.49562 15.2415C9.44979 15.1957 9.40336 15.1498 9.36594 15.0967C9.302 15.0057 9.26045 14.9004 9.23005 14.7941C9.18983 14.6535 9.16819 14.5075 9.15481 14.362C9.15019 14.3116 9.15019 14.2609 9.1467 14.2104C9.14458 14.1892 9.14217 14.1683 9.13784 14.1475C9.13302 14.1278 9.12742 14.106 9.11237 14.0914C9.10686 14.0869 9.10111 14.0841 9.09427 14.0823C9.07347 14.0784 9.05168 14.0823 9.03117 14.0858C8.9996 14.0912 8.96832 14.0978 8.93665 14.1027C8.92504 14.104 8.91358 14.1052 8.90217 14.106L8.89986 14.1062L8.89445 14.1065L8.8913 14.1067L8.88998 14.1068C8.88535 14.1071 8.88073 14.1073 8.87606 14.1074C8.85255 14.107 8.82934 14.1056 8.80618 14.1009C8.77554 14.0946 8.74504 14.0829 8.71583 14.0728C8.63916 14.0462 8.56313 14.0093 8.51302 13.9431C8.48184 13.9017 8.46757 13.8508 8.44603 13.8045L8.44293 13.7984C8.42985 13.7931 8.41648 13.7886 8.40241 13.7868L8.39671 13.7862L8.39523 13.7861L8.39002 13.786L8.38456 13.7863L8.37723 13.7871L8.37 13.7886L8.36784 13.7891L8.36253 13.7907L8.36071 13.7913L8.35397 13.7939L8.35244 13.7946L8.34728 13.797L8.34507 13.7981L8.3403 13.8007L8.33848 13.8017L8.33262 13.8054L8.32323 13.8118L8.3219 13.8128L8.3129 13.8198C8.30371 13.8272 8.29495 13.8352 8.28649 13.8428C8.24966 13.8796 8.21651 13.9195 8.18095 13.9574C8.1305 14.0085 8.07738 14.0571 8.0284 14.1097C8.01694 14.1226 8.00592 14.1356 7.9953 14.1492C7.97838 14.1727 7.9627 14.197 7.9473 14.2216L7.93953 14.2341L7.93088 14.248L7.91681 14.2708L7.90953 14.2824L7.90525 14.2893L7.90373 14.2917L7.90147 14.2953L7.89311 14.3083L7.88775 14.3167L7.88652 14.3185L7.88578 14.3197L7.88465 14.3213L7.87875 14.3302L7.8696 14.3437C7.85607 14.3623 7.8422 14.3803 7.8276 14.3981C7.80817 14.4201 7.7888 14.4416 7.76529 14.4595C7.72791 14.4879 7.68493 14.5085 7.64244 14.528C7.62183 14.5375 7.60108 14.5467 7.58042 14.5561L7.56813 14.5617L7.53749 14.5759L7.53493 14.5771C7.52323 14.5827 7.51157 14.5884 7.50001 14.5944C7.48531 14.6026 7.4711 14.6111 7.45772 14.6214C7.45403 14.6245 7.45408 14.6244 7.45064 14.6278C7.44695 14.6448 7.44405 14.6619 7.44119 14.6791L7.43849 14.6972C7.44754 14.7123 7.45506 14.7279 7.46239 14.7438C7.47528 14.775 7.48462 14.8075 7.4979 14.8385C7.50665 14.8492 7.51777 14.8579 7.52854 14.8665C7.55514 14.8867 7.58239 14.9059 7.60836 14.9269C7.62498 14.9415 7.62483 14.9414 7.64077 14.9569C7.65749 14.9752 7.65734 14.9751 7.67278 14.9946C7.68916 15.019 7.70396 15.0441 7.71862 15.0696C7.79086 15.1999 7.8483 15.3374 7.91293 15.4716C7.93206 15.5091 7.95143 15.5462 7.97253 15.5827C8.01453 15.6522 8.06199 15.7179 8.11963 15.775L8.13128 15.7862L8.13453 15.7893L8.14609 15.7999C8.23564 15.88 8.3428 15.9389 8.45144 15.9888L8.49354 16.0078L8.50667 16.0136L8.53131 16.0244L8.59278 16.051L8.66537 16.082L8.66759 16.083C8.68991 16.0925 8.71224 16.1022 8.73452 16.1119L8.73673 16.1129C8.76511 16.1253 8.79334 16.1379 8.82142 16.1509C8.85324 16.1661 8.88476 16.1817 8.91609 16.1979C8.96434 16.224 9.01278 16.2502 9.05655 16.2835C9.14901 16.3539 9.22701 16.4437 9.29753 16.5355C9.30977 16.5513 9.32187 16.5674 9.33373 16.5838L9.34076 16.5933L9.34513 16.5995L9.3504 16.6069L9.35669 16.6159L9.36166 16.623L9.36791 16.6321C9.37282 16.6394 9.37769 16.6467 9.38251 16.6541L9.39166 16.6683L9.39909 16.6801C9.40351 16.6873 9.40784 16.6945 9.41207 16.7017L9.41969 16.7149L9.42844 16.7307L9.43381 16.7406L9.4404 16.7533L9.44581 16.7641C9.44822 16.7691 9.45058 16.774 9.45294 16.779C9.48299 16.8433 9.50448 16.9112 9.51967 16.9805C9.52144 16.9887 9.52312 16.9968 9.52474 17.0049L9.52853 17.025L9.52995 17.0329L9.53236 17.0474L9.53428 17.0593L9.53585 17.0698L9.53812 17.0856L9.54166 17.1137L9.54441 17.1386L9.54648 17.1598C9.55405 17.2414 9.55651 17.3234 9.55877 17.4051C9.56079 17.4791 9.56546 17.5529 9.56812 17.6268C9.57008 17.6816 9.56767 17.7365 9.57023 17.7913C9.57156 17.8085 9.57259 17.8258 9.57638 17.8426C9.61641 17.8538 9.66343 17.8442 9.70203 17.8335C9.70852 17.8314 9.70828 17.8314 9.71462 17.8291L9.71821 17.8277C9.72151 17.8193 9.72519 17.8111 9.72947 17.8031C9.73818 17.7894 9.74669 17.7759 9.75913 17.7651C9.76188 17.7627 9.76464 17.7604 9.76749 17.7583L9.77442 17.753L9.78151 17.7482L9.78923 17.7435L9.7971 17.7391L9.80511 17.7352L9.81328 17.7316L9.82159 17.7284L9.83 17.7256L9.8386 17.7231L9.84731 17.7209L9.85867 17.7185L9.86703 17.7171L9.87554 17.716L9.8838 17.7151ZM10.2155 18.1774L10.2484 18.2809C10.2448 18.2446 10.2339 18.2094 10.2155 18.1774ZM7.77704 6.45526C7.74222 6.4406 7.70421 6.43209 7.6684 6.42624L7.64406 6.42265L7.63609 6.42167L7.61947 6.41975L7.61018 6.41881L7.59468 6.41744L7.58509 6.4167L7.56945 6.41572L7.56026 6.41522L7.54295 6.41458L7.53547 6.41434L7.51103 6.41399H7.50478L7.48639 6.41414L7.47626 6.41434L7.46175 6.41478L7.45044 6.41517L7.43721 6.41581L7.42521 6.41645L7.40018 6.41808L7.39029 6.41886C7.37062 6.42044 7.351 6.42231 7.33143 6.42447L7.3087 6.42708C7.28785 6.42958 7.26705 6.43234 7.24644 6.43529L7.22544 6.43863C7.23356 6.37711 7.24079 6.31554 7.24767 6.25382L7.25146 6.21506L7.2553 6.17444L7.26002 6.12251L7.26307 6.0869L7.26474 6.06679L7.26916 6.01003C7.27271 5.95451 7.27605 5.89903 7.27807 5.84341C7.27939 5.80604 7.28033 5.76822 7.28057 5.73084C7.28082 5.69445 7.28048 5.65741 7.27934 5.62102C7.27807 5.58055 7.27659 5.55758 7.27354 5.5174C7.26769 5.44186 7.25766 5.36155 7.22697 5.29157C7.21084 5.25488 7.18659 5.21947 7.14597 5.20939C7.13328 5.20752 7.12222 5.20732 7.10948 5.2084L7.10092 5.21017L7.09817 5.21081L7.09251 5.21224L7.08926 5.21317L7.0842 5.21465L7.08085 5.21573L7.07594 5.2174L7.07264 5.21858L7.06772 5.22045L7.06463 5.22168L7.05941 5.22385L7.05671 5.22503L7.04967 5.22827L7.04894 5.22862L7.03581 5.23531L7.03413 5.23624L7.02292 5.24263L7.01323 5.24858L7.00822 5.25173L6.99523 5.26039L6.99395 5.26127L6.9791 5.27189C6.92933 5.30824 6.88419 5.35029 6.83919 5.39229C6.74112 5.48676 6.64606 5.58423 6.54844 5.6792C6.5026 5.72277 6.45642 5.76581 6.40891 5.80761C6.36952 5.84228 6.3288 5.87558 6.287 5.9073C6.25429 5.93213 6.22075 5.95593 6.18628 5.97826C6.16105 5.99459 6.13538 6.01013 6.10907 6.02464C6.02639 6.07018 5.93718 6.10618 5.84345 6.12049C5.8255 6.12324 5.8074 6.12521 5.78935 6.1261L5.77125 6.12654C5.7472 6.12659 5.72315 6.12437 5.6994 6.11887C5.65996 6.10972 5.62297 6.09246 5.58938 6.07003C5.51429 6.01997 5.45611 5.94723 5.40358 5.87503L5.38081 5.84321L5.37845 5.83987L5.37717 5.83805L5.37245 5.83122C5.32288 5.76045 5.27596 5.68771 5.22624 5.61704C5.1989 5.57961 5.17096 5.54307 5.14175 5.50707C5.07211 5.42524 4.99416 5.35024 4.89925 5.29826C4.87869 5.28699 4.85754 5.27686 4.83585 5.26796C4.82469 5.26339 4.81303 5.25788 4.80084 5.25645C4.77605 5.2535 4.74999 5.26053 4.72697 5.26909C4.67705 5.28768 4.63156 5.31989 4.59723 5.36052C4.57053 5.39209 4.55061 5.42927 4.54028 5.4694C4.53409 5.4934 4.53168 5.51819 4.52956 5.54283C4.52568 5.58822 4.52464 5.63386 4.52519 5.67945C4.52701 5.82812 4.54466 5.97669 4.5694 6.12315C4.58828 6.23468 4.61159 6.34563 4.64007 6.45521L4.64253 6.46435L4.65418 6.50753L4.65581 6.51343L4.6681 6.55652L4.66982 6.56242L4.68064 6.59837L4.68404 6.60939L4.69717 6.6507C4.7249 6.73597 4.75623 6.82032 4.7941 6.90161L4.80708 6.92871L4.81146 6.93746L4.82061 6.95561L4.83167 6.97641L4.83359 6.97986L4.84613 7.00203L4.85361 7.01463L4.85651 7.0193C4.86275 7.02953 4.86925 7.03966 4.87598 7.04954L4.88543 7.06317L4.89389 7.07477L4.90239 7.08603L4.91085 7.09676C4.91602 7.1032 4.92128 7.10949 4.92669 7.11564L4.9407 7.26598L4.94508 7.31152L4.94744 7.33636L4.95452 7.40673C4.97621 7.59268 5.00208 7.78738 5.08888 7.95612C5.11032 7.99773 5.13654 8.03628 5.16427 8.07391C5.20204 8.12515 5.24114 8.17522 5.28122 8.22464L5.33153 8.28612L5.34176 8.29856L5.36803 8.33023L5.44784 8.42628L5.45847 8.43901L5.48547 8.47152L5.50352 8.49336C5.52019 8.51352 5.53676 8.53378 5.55329 8.55405C5.6007 8.61355 5.64712 8.6735 5.69271 8.73439C5.723 8.77609 5.75296 8.81804 5.78158 8.86098C5.8102 8.90386 5.83902 8.94537 5.855 8.9947C5.87418 9.0541 5.88063 9.1173 5.88254 9.17937C5.88486 9.25269 5.88033 9.32617 5.87231 9.39905L5.87182 9.40367L5.87177 9.40436L5.87163 9.40549L5.86784 9.43761C5.83809 9.67574 5.77828 9.91047 5.70653 10.1392C5.68504 10.2077 5.66217 10.2758 5.63778 10.3433C5.62401 10.3814 5.60571 10.4191 5.59627 10.4586C5.59504 10.4656 5.59415 10.4724 5.59366 10.4795C5.59406 10.5494 5.6362 10.6056 5.67948 10.657C5.72704 10.7105 5.77764 10.7611 5.82412 10.8156C5.84035 10.836 5.85677 10.8569 5.86833 10.8805C5.88741 10.9195 5.89208 10.9632 5.89484 11.0059C5.89715 11.0596 5.89641 11.1133 5.89877 11.167L5.90025 11.1843L5.90059 11.1876L5.90241 11.204C5.9059 11.2324 5.91161 11.2604 5.92208 11.2872C5.9363 11.3237 5.95887 11.3533 5.98646 11.3776C5.99689 11.3869 6.00805 11.3954 6.01975 11.4033L6.03244 11.4115L6.04553 11.4192L6.05875 11.4264L6.07075 11.4326L6.07405 11.4342L6.0888 11.441L6.09372 11.4433L6.11098 11.4506L6.12923 11.4578L6.13395 11.4596L6.14275 11.4629L6.16115 11.4695L6.16823 11.472L6.19179 11.48C6.22026 11.4895 6.23339 11.4932 6.26231 11.5019C6.36972 11.5327 6.47801 11.5602 6.58537 11.591C6.59762 11.5946 6.60986 11.5983 6.62206 11.6021L6.65457 11.6122L6.66283 11.6148L6.68899 11.6233L6.70134 11.6274L6.71068 11.6306L6.72322 11.6348L6.73158 11.6377L6.7396 11.6405L6.74776 11.6434L6.75735 11.6468L6.76763 11.6506L6.77771 11.6542L6.78435 11.6568L6.79124 11.6593L6.80338 11.664L6.81548 11.6687L6.82596 11.6729C6.8475 11.6815 6.86894 11.6905 6.89019 11.7001C6.95555 11.7295 7.01908 11.7632 7.07918 11.8023C7.11317 11.8244 7.14602 11.8483 7.17744 11.874C7.20272 11.8946 7.22785 11.9157 7.24807 11.9416C7.31584 12.0283 7.32838 12.146 7.33074 12.2523C7.33128 12.2774 7.33108 12.3029 7.33059 12.3281C7.3298 12.368 7.32813 12.4009 7.32651 12.4425C7.32434 12.4982 7.3241 12.498 7.32282 12.5537C7.32262 12.5883 7.32326 12.6225 7.32513 12.657C7.33123 12.7291 7.34475 12.8105 7.40367 12.8595C7.42487 12.8771 7.45059 12.8856 7.47395 12.8995C7.48605 12.9083 7.48585 12.9082 7.49716 12.918C7.54054 12.9623 7.56685 13.0182 7.58667 13.0764C7.60688 13.1359 7.6209 13.1978 7.63103 13.2598C7.65458 13.4034 7.66536 13.5489 7.6685 13.6946L7.66929 13.7372L7.66944 13.7509V13.7624L7.66963 13.7852L7.66958 13.7978L7.66963 13.8057L7.66954 13.8168L7.66949 13.8331L7.66924 13.8605L7.66909 13.8696L7.66899 13.8811L7.66855 13.9024L7.66835 13.9153L7.66821 13.9217L7.66806 13.929L7.66732 13.957L7.66703 13.9701L7.66688 13.9733C7.66644 13.9905 7.66585 14.0076 7.66526 14.0247L7.66304 14.071L7.7255 14.1142L7.75427 14.0681C7.76396 14.0527 7.7737 14.0374 7.78373 14.0222L7.79494 14.0069L7.8064 13.992L7.81604 13.9798C7.82062 13.974 7.82534 13.9683 7.83016 13.9626C7.88893 13.8964 7.95561 13.8383 8.01606 13.7738C8.04153 13.7453 8.06666 13.7166 8.09282 13.6887C8.11732 13.6643 8.142 13.6403 8.16959 13.6194C8.18735 13.6059 8.20604 13.5937 8.22551 13.5832L8.23382 13.5788L8.24223 13.5746L8.25099 13.5705L8.25935 13.5668L8.26805 13.5633L8.27646 13.5601L8.28881 13.5559L8.29461 13.554L8.30253 13.5517L8.31482 13.5486L8.32185 13.547L8.32923 13.5455L8.34148 13.5434L8.34979 13.5422L8.35653 13.5416C8.36061 13.5411 8.36464 13.5408 8.36872 13.5405C8.37418 13.5402 8.37969 13.5399 8.38515 13.5399L8.40162 13.5401C8.41259 13.5405 8.42351 13.5414 8.43443 13.5428C8.46467 13.5468 8.49438 13.5547 8.5229 13.5655C8.55364 13.577 8.58334 13.5906 8.60793 13.6127C8.64265 13.6437 8.66414 13.6872 8.6818 13.7295C8.69095 13.7513 8.69818 13.7753 8.71018 13.7959C8.71578 13.8022 8.72277 13.8069 8.7298 13.8114C8.75119 13.8238 8.77401 13.8326 8.79727 13.8408C8.80495 13.8434 8.81375 13.8468 8.82295 13.8501L8.83278 13.8534L8.84513 13.8572C8.84995 13.8586 8.85476 13.8597 8.85944 13.8605C8.86863 13.8616 8.87768 13.8615 8.88693 13.8609C8.9306 13.856 8.97344 13.8459 9.01686 13.8392C9.03727 13.837 9.05689 13.8353 9.07735 13.8348C9.10735 13.8355 9.13676 13.8384 9.16568 13.8468C9.18496 13.8524 9.20369 13.8599 9.22135 13.8694C9.24112 13.8802 9.25961 13.893 9.27638 13.908C9.34912 13.973 9.37563 14.0654 9.38866 14.1586C9.39466 14.2191 9.39515 14.2798 9.39977 14.3403C9.41364 14.478 9.43248 14.6161 9.47305 14.7488C9.49858 14.8321 9.53271 14.9136 9.58769 14.9819C9.60171 14.9977 9.61616 15.0131 9.63087 15.0282L9.66947 15.0676L9.70346 15.1005L9.73788 15.133L9.75175 15.1458L9.77265 15.1651L9.78741 15.1784L9.80782 15.1968L9.82282 15.2101L9.84342 15.2283L9.85813 15.2411L9.87942 15.2596L9.89334 15.2715L9.91601 15.2909L9.92831 15.3013L9.94946 15.3192L9.97901 15.3439L10.0289 15.3854L10.0414 15.3957C10.1124 15.4544 10.184 15.5127 10.2549 15.572C10.3332 15.639 10.4104 15.7072 10.4893 15.7734C10.5499 15.8227 10.6122 15.8707 10.6779 15.9129L10.7031 15.9288L10.7286 15.9439L10.7544 15.9584L10.7673 15.9654L10.7804 15.9722L10.7936 15.9787L10.807 15.9851L10.8204 15.9913L10.8339 15.9973L10.8475 16.003L10.8613 16.0086L10.8751 16.0139L10.8891 16.0189L10.9123 16.0267L10.9356 16.034L10.945 16.0368L10.9591 16.0408L10.9693 16.0435L10.9826 16.047L10.9935 16.0498L11.006 16.0529L11.0178 16.0556L11.029 16.0582L11.0424 16.0612L11.0673 16.0665C11.141 16.0817 11.2156 16.0936 11.2889 16.1087C11.3218 16.1162 11.3545 16.1239 11.3871 16.1326C11.4087 16.1388 11.4302 16.1453 11.4515 16.1525L11.4622 16.1561L11.4807 16.1627L11.4991 16.1696L11.5173 16.1769L11.5301 16.1823L11.545 16.1888L11.5532 16.1926L11.5597 16.1957L11.5709 16.2011L11.5744 16.2029L11.5886 16.2102C11.5939 16.213 11.5991 16.2159 11.6043 16.2188L11.6171 16.2262L11.6224 16.2294L11.631 16.2347L11.639 16.2399L11.6446 16.2436L11.6553 16.2509L11.6581 16.2528L11.6713 16.2625L11.6817 16.2704L11.6907 16.2776C11.6962 16.282 11.7016 16.2866 11.7069 16.2912L11.7116 16.2952L11.7174 16.3005L11.726 16.3082L11.7308 16.3125L11.7362 16.3176L11.7433 16.3244L11.7495 16.3304L11.7541 16.3351L11.7602 16.3411L11.7677 16.3487L11.7767 16.358L11.7856 16.3674L11.793 16.3753L11.8089 16.3929L11.8204 16.4058C11.8588 16.4487 11.8959 16.4931 11.9353 16.5348C11.9508 16.5504 11.9667 16.5654 11.9834 16.5797C12.0113 16.6021 12.0412 16.6235 12.0753 16.6355C12.1079 16.647 12.1432 16.65 12.1775 16.6503L12.2013 16.6501L12.2209 16.6493L12.2405 16.6481L12.2601 16.6465L12.2798 16.6445L12.2995 16.6424L12.339 16.6378C12.3751 16.6335 12.4112 16.6291 12.4472 16.6247L12.4905 16.6191L12.5272 16.6141C12.6316 16.5998 12.7357 16.5823 12.8384 16.5591C12.8504 16.5563 12.8624 16.5535 12.8743 16.5506L12.8974 16.5449L12.9156 16.5402L12.9372 16.5344L12.959 16.5283L12.9806 16.522L13.0017 16.5155L13.024 16.5084L13.0461 16.5009L13.0559 16.4974L13.0681 16.4931L13.0778 16.4895L13.09 16.485L13.0995 16.4813L13.1118 16.4764L13.1211 16.4727L13.1336 16.4674L13.1426 16.4637L13.1555 16.458L13.1639 16.4543L13.185 16.4445L13.206 16.4343C13.3017 16.3845 13.3927 16.3264 13.4882 16.2762C13.539 16.2505 13.5909 16.227 13.6446 16.2087L13.6555 16.205L13.6729 16.1995L13.6904 16.1944L13.708 16.1898L13.7257 16.1855L13.7441 16.1817C13.7499 16.1806 13.7557 16.1795 13.7616 16.1785L13.7763 16.1763L13.7912 16.1743L13.8062 16.1727L13.8153 16.1718L13.8214 16.1713L13.8349 16.1705C13.8463 16.1699 13.8577 16.1696 13.8691 16.1696H13.8704L13.8828 16.1697L13.8983 16.1702L13.9075 16.1706L13.9138 16.171L13.9273 16.1721C13.939 16.1732 13.9506 16.1745 13.9622 16.1763L13.9754 16.1784L13.9907 16.1812L14.0058 16.1844L14.0183 16.1875C14.0301 16.1904 14.0418 16.1938 14.0534 16.1976C14.1159 16.2182 14.1736 16.2506 14.2201 16.297C14.2446 16.3214 14.2654 16.3493 14.2825 16.3792C14.3034 16.4159 14.3183 16.4546 14.3296 16.4945L14.3321 16.5035L14.3351 16.5152C14.3365 16.5208 14.3379 16.5265 14.3391 16.5322C14.3409 16.5398 14.3425 16.5475 14.344 16.5551L14.3478 16.5745L14.3492 16.5824L14.3512 16.5946L14.354 16.6118L14.3576 16.6358L14.363 16.6753L14.3652 16.692L14.3705 16.73L14.3734 16.7505L14.3755 16.7642L14.3767 16.7715L14.3807 16.7954C14.3855 16.8184 14.3908 16.8411 14.3972 16.8637L14.4013 16.8759L14.4057 16.888L14.4103 16.8999L14.4153 16.9116L14.4206 16.9233L14.4261 16.9347L14.4319 16.9461L14.4381 16.9572L14.4445 16.9682L14.4512 16.979L14.4582 16.9896L14.4655 17.0001L14.4731 17.0102L14.4811 17.0203L14.4893 17.0301L14.4983 17.04C14.5221 17.0659 14.549 17.088 14.5766 17.1097C14.6392 17.156 14.7045 17.1986 14.7673 17.2447L14.785 17.2589L14.8025 17.2736L14.8112 17.2811C14.8241 17.2923 14.8369 17.3037 14.8499 17.315L14.8551 17.3195L14.8723 17.3342L14.8894 17.3483L14.9068 17.3618C14.9196 17.3707 14.9324 17.3794 14.9471 17.3851C14.9638 17.3908 14.9822 17.3928 14.9996 17.395L15.0125 17.3965L15.0254 17.3978L15.0383 17.3988L15.0512 17.3995L15.0638 17.4L15.0751 17.4003L15.0988 17.4004L15.1077 17.4002C15.2367 17.3975 15.3641 17.3703 15.4918 17.3545C15.5316 17.3504 15.5314 17.3505 15.5714 17.3475C15.5853 17.3468 15.5992 17.3462 15.613 17.3458L15.6209 17.3455C15.6342 17.3451 15.6476 17.3447 15.661 17.3445L15.6829 17.3442L15.7102 17.3441C15.7242 17.3441 15.7383 17.3442 15.7524 17.3444L15.7593 17.3446C15.7731 17.3448 15.7868 17.3452 15.8006 17.3456L15.8061 17.3458C15.8352 17.3468 15.8642 17.3483 15.8932 17.3503L15.8965 17.3505C15.9115 17.3515 15.9264 17.3526 15.9413 17.3539C15.9664 17.356 15.9916 17.3585 16.0167 17.3613C16.1055 17.3713 16.1964 17.3823 16.2803 17.4149L16.3008 17.4233L16.3209 17.4323L16.3289 17.4362L16.3344 17.4388L16.3407 17.4419L16.353 17.4483L16.3602 17.4521L16.3714 17.4583L16.3794 17.4628L16.3896 17.4686L16.3985 17.4739L16.4076 17.4794L16.4173 17.4853L16.4255 17.4904L16.4432 17.5016L16.4622 17.5139L16.473 17.5209L16.5101 17.5454L16.5478 17.5701L16.5657 17.5815L16.584 17.5929L16.6018 17.6028L16.6205 17.6127C16.6313 17.6184 16.6424 17.6238 16.6537 17.6287C16.679 17.6389 16.7053 17.6435 16.7322 17.6474C16.7871 17.6535 16.8423 17.6563 16.8972 17.663C16.9284 17.6678 16.9591 17.6739 16.9891 17.6828L17.0003 17.6862L17.0061 17.688L17.017 17.6919L17.0183 17.6924C17.0234 17.6942 17.0285 17.6962 17.0336 17.6983C17.0856 17.7198 17.1336 17.7497 17.1846 17.7734C17.1958 17.7781 17.2068 17.7824 17.2184 17.786C17.225 17.7876 17.2315 17.7892 17.2383 17.7899C17.2527 17.7907 17.2672 17.7909 17.2816 17.7908L17.325 17.7902C17.3745 17.7881 17.4238 17.7843 17.4731 17.7798C17.4572 17.5523 17.474 17.3226 17.5182 17.0989C17.52 17.0897 17.5219 17.0805 17.5238 17.0713L17.5291 17.0469L17.5349 17.021L17.5376 17.0093C17.5469 16.97 17.5571 16.9311 17.5683 16.8924C17.5862 16.8311 17.6059 16.7707 17.6347 16.7136C17.6967 16.59 17.7887 16.4849 17.8812 16.3834C17.9114 16.3503 17.9418 16.3174 17.9717 16.2842C17.9848 16.2696 17.997 16.2543 18.0113 16.241C18.0182 16.2354 18.0251 16.2308 18.033 16.2267C18.0777 16.2065 18.1274 16.214 18.174 16.2235L18.1773 16.2242C18.2308 16.2364 18.2831 16.2534 18.3367 16.2653C18.3547 16.2688 18.3751 16.2728 18.3949 16.2726L18.4015 16.2724C18.4145 16.2716 18.4271 16.2687 18.4385 16.2621C18.4566 16.2515 18.4716 16.2344 18.4835 16.2173C18.5106 16.1777 18.5253 16.1268 18.5211 16.0787C18.5193 16.0575 18.5134 16.0356 18.4999 16.0187C18.4918 16.0085 18.4818 16.0027 18.4707 15.9961C18.441 15.9812 18.4104 15.9693 18.3795 15.9571C18.3584 15.9486 18.3375 15.9399 18.3167 15.9307C18.2966 15.9211 18.2775 15.9109 18.2585 15.8992C18.2394 15.8862 18.2212 15.8718 18.2079 15.8527C18.1871 15.8226 18.1808 15.7851 18.1755 15.7497C18.1682 15.6883 18.1662 15.6266 18.1618 15.565L18.1605 15.5494L18.1589 15.5301L18.1562 15.5035C18.1478 15.442 18.1352 15.3809 18.1085 15.3244L18.1033 15.3139L18.1015 15.3105L18.0978 15.3035L18.0956 15.2996L18.0919 15.2933L18.0896 15.2893L18.0858 15.2832L18.0834 15.2794L18.0792 15.273L18.0769 15.2696L18.0715 15.2618L18.0703 15.2601L18.0634 15.2508L18.0612 15.248L18.0563 15.2417L18.0534 15.2382L18.0489 15.2327L18.0458 15.2291L18.0413 15.2239L18.0381 15.2203L18.0353 15.2172L18.0221 15.2032L18.0215 15.2025L18.0077 15.189L18.0062 15.1875L17.992 15.1744L17.9898 15.1724L17.9812 15.165L17.9708 15.1561L17.9628 15.1495L17.9527 15.1414L17.9441 15.1347L17.9342 15.1273L17.9252 15.1205L17.9161 15.1139C17.9012 15.1031 17.886 15.0927 17.8707 15.0825L17.8665 15.0797C17.8527 15.0706 17.8389 15.0617 17.8251 15.0529C17.7453 15.0037 17.6643 14.9561 17.5856 14.905C17.544 14.877 17.5032 14.8478 17.4642 14.8165L17.4624 14.8151L17.4588 14.8122L17.4506 14.8055L17.4454 14.8012L17.4422 14.7985L17.4394 14.7961L17.4345 14.7921L17.4262 14.7849L17.4224 14.7816L17.4209 14.7802C17.4149 14.775 17.4089 14.7696 17.403 14.7642L17.4025 14.7637L17.3879 14.75L17.3857 14.7478L17.384 14.7462L17.3804 14.7426L17.3729 14.7353L17.3685 14.7308L17.3655 14.7278L17.3626 14.7249L17.3582 14.7204L17.351 14.7127L17.3474 14.7088L17.3459 14.7072C17.3404 14.7014 17.3351 14.6954 17.3298 14.6894C17.2769 14.6287 17.231 14.5615 17.1959 14.489C17.1926 14.4821 17.1894 14.4752 17.1863 14.4683L17.1857 14.4671L17.1855 14.4665C17.1826 14.4598 17.1797 14.4532 17.177 14.4465L17.1764 14.4449L17.1759 14.4439C17.1733 14.4373 17.1707 14.4307 17.1682 14.424L17.1677 14.4227L17.1672 14.4214L17.1657 14.4173L17.1628 14.409L17.1596 14.4002L17.1586 14.3969L17.1573 14.3931L17.1546 14.3845L17.1524 14.3776L17.1513 14.374L17.1497 14.3687L17.1472 14.3597L17.1458 14.3548L17.1449 14.3514L17.1428 14.3441L17.1405 14.3346L17.1398 14.332L17.1392 14.3296L17.1367 14.3194L17.1345 14.309L17.1314 14.2945C17.0911 14.0949 17.1171 13.8828 17.1499 13.6831C17.1585 13.631 17.1625 13.6098 17.1733 13.5497C17.1764 13.5346 17.18 13.5199 17.1844 13.5051C17.2133 13.4186 17.2658 13.345 17.3257 13.2769C17.3904 13.2032 17.4624 13.1363 17.5294 13.0648C17.5498 13.0422 17.5496 13.0424 17.5693 13.0194C17.6266 12.9475 17.6832 12.8604 17.6569 12.7642C17.651 12.7424 17.6425 12.7216 17.6312 12.7022C17.6172 12.6783 17.5992 12.6569 17.5788 12.6381C17.5483 12.6102 17.5127 12.5884 17.4756 12.5707C17.4696 12.5678 17.4636 12.5651 17.4575 12.5625L17.4431 12.5564L17.429 12.5509L17.4255 12.5495L17.4129 12.5449L17.4078 12.5432L17.396 12.5391L17.3899 12.5372L17.3786 12.5337L17.3718 12.5316L17.3609 12.5285L17.3535 12.5265L17.343 12.5237L17.3253 12.5193L17.3073 12.5152L17.2991 12.5135L17.2887 12.5114L17.2804 12.5098L17.27 12.5078L17.2617 12.5064L17.2512 12.5046L17.2431 12.5033L17.2322 12.5016L17.2245 12.5004L17.2131 12.4988L17.2058 12.4978L17.1687 12.4933L17.1445 12.4908L17.1365 12.49L17.1203 12.4886L17.096 12.4867L17.0858 12.486L17.0717 12.4851L17.0612 12.4845L17.0473 12.4838L17.0367 12.4834L17.0228 12.4829L17.0122 12.4826L16.9983 12.4822L16.9878 12.482L16.9737 12.4818L16.9633 12.4817H16.9397L16.926 12.4819L16.916 12.482L16.8922 12.4825L16.8761 12.483L16.8686 12.4833L16.8514 12.4839L16.8455 12.4842L16.8267 12.4851L16.823 12.4853L16.802 12.4865L16.786 12.4876C16.7776 12.4882 16.769 12.4888 16.7606 12.4895L16.7514 12.4903C16.7216 12.2904 16.6983 12.0894 16.681 11.888C16.6633 11.6817 16.6516 11.4746 16.6517 11.2675C16.6518 11.2359 16.6521 11.2042 16.6528 11.1725L16.6536 11.14L16.6551 11.0974L16.6557 11.0848L16.6565 11.067L16.6571 11.055L16.6576 11.0454L16.6583 11.0321L16.6594 11.0125L16.6604 10.9973L16.6626 10.9668C16.6635 10.9537 16.6645 10.9407 16.6656 10.9277C16.6683 10.896 16.6719 10.8645 16.676 10.833C16.6782 10.8157 16.681 10.7993 16.6817 10.782C16.6813 10.772 16.6803 10.7627 16.6786 10.7528C16.6574 10.6689 16.5763 10.6161 16.5079 10.5723C16.4935 10.5631 16.479 10.554 16.4645 10.5449C16.4357 10.5267 16.4071 10.5086 16.3789 10.4895C16.3589 10.4753 16.359 10.4754 16.3396 10.4606C16.3354 10.4571 16.3311 10.4536 16.3269 10.4499L16.3254 10.4486L16.3229 10.4464L16.3171 10.4414L16.314 10.4385L16.3114 10.4362L16.3073 10.4322L16.3062 10.4312L16.3057 10.4308C16.3025 10.4277 16.2994 10.4246 16.2963 10.4214L16.2956 10.4208L16.2948 10.4199C16.2906 10.4155 16.2866 10.4111 16.2827 10.4064L16.2807 10.4041L16.2803 10.4036L16.2792 10.4023L16.2773 10.3998L16.2762 10.3983L16.2754 10.3973L16.2736 10.3949L16.2722 10.393L16.2717 10.3924L16.2708 10.3911C16.2609 10.3772 16.2528 10.3622 16.2473 10.3457C16.2341 10.306 16.2413 10.264 16.2521 10.2246C16.2784 10.1288 16.3347 10.042 16.3919 9.96226C16.4172 9.92709 16.4435 9.89277 16.4703 9.85883C16.4989 9.82264 16.5256 9.78998 16.5553 9.75349C16.6035 9.69433 16.6517 9.63526 16.6987 9.57516C16.7257 9.53966 16.7521 9.50385 16.7779 9.46741C16.8373 9.37918 16.8951 9.28599 16.9224 9.18202C16.9511 9.07215 16.9656 8.95919 16.9698 8.84578L16.9709 8.8084L16.9711 8.79621L16.9713 8.77088L16.9713 8.75647L16.9711 8.73326L16.9708 8.71816L16.9701 8.69529L16.9696 8.68024L16.9685 8.65678L16.9678 8.64257L16.9661 8.61631L16.9653 8.605L16.9622 8.56801L16.9612 8.55778L16.9584 8.53083L16.9567 8.51559L16.954 8.4937L16.9518 8.47698L16.9489 8.45667L16.9463 8.43916L16.9433 8.41988L16.9403 8.40179L16.937 8.38339L16.9337 8.36471L16.9305 8.34818C16.927 8.33028 16.9232 8.31248 16.9193 8.29472C16.9132 8.26757 16.9067 8.24053 16.8996 8.21362C16.8711 8.10597 16.8356 7.99807 16.7723 7.90542C16.6968 7.79471 16.5908 7.7084 16.4758 7.64117C16.4422 7.62145 16.4075 7.60335 16.3723 7.58653C16.3529 7.57729 16.3336 7.56799 16.3132 7.56116C16.2834 7.55113 16.2525 7.54542 16.2215 7.54055C16.1426 7.53032 16.0631 7.52629 15.9841 7.51749C15.9299 7.50972 15.8611 7.50268 15.8226 7.45847C15.8021 7.43486 15.7908 7.40516 15.7806 7.37605C15.7658 7.32775 15.7538 7.27872 15.7387 7.23052C15.7267 7.19693 15.7126 7.16231 15.686 7.13748L15.6805 7.13271L15.6786 7.13123L15.6748 7.12838L15.6724 7.1268L15.6688 7.12444L15.6662 7.12297L15.6626 7.12095L15.66 7.11957L15.6562 7.1178L15.6535 7.11657L15.6495 7.11495L15.6469 7.11392L15.6424 7.11234L15.6402 7.11156L15.6335 7.10954L15.6318 7.10905L15.6267 7.10772L15.6162 7.10541L15.6076 7.10384L15.6019 7.1028L15.5933 7.10153L15.5873 7.10069L15.5738 7.09892C15.519 7.09189 15.4636 7.08977 15.4084 7.08874C15.2324 7.08535 15.0561 7.0939 14.8803 7.10605L14.7968 7.11205L14.7046 7.11908L14.6709 7.12193C14.6606 7.10477 14.6498 7.0881 14.6387 7.07143C14.6175 7.04108 14.5954 7.01177 14.5725 6.98266C14.4872 6.87889 14.3899 6.78535 14.279 6.70907C14.2314 6.67637 14.1815 6.64465 14.1284 6.62153L14.1159 6.61632L14.1119 6.61475L14.1031 6.6113L14.0988 6.60973L14.0895 6.60643L14.0862 6.60525L14.0737 6.60112L14.0711 6.60029C14.0282 6.58681 13.984 6.57776 13.9397 6.57107C13.849 6.5573 13.7569 6.55352 13.6652 6.55391C13.5279 6.55445 13.3908 6.56483 13.2543 6.57929L13.2365 6.5812L13.181 6.5874L13.1069 6.5962C13.0382 6.60461 12.9695 6.61396 12.9006 6.62163C12.8722 6.62478 12.8441 6.62699 12.8159 6.63112C12.7978 6.63447 12.7801 6.6385 12.7623 6.64322C12.6419 6.67966 12.5384 6.75083 12.4413 6.82922C12.3408 6.91041 12.2465 6.99894 12.1475 7.082C12.1144 7.1089 12.1145 7.1088 12.0809 7.13502C11.9941 7.19969 11.9048 7.25683 11.8017 7.29121L11.7833 7.29667L11.7654 7.30134L11.7652 7.30567C11.7625 7.37614 11.7554 7.44883 11.7399 7.51931C11.7365 7.54926 11.733 7.57921 11.7294 7.60916C11.7233 7.65332 11.7175 7.69744 11.7096 7.74135C11.7044 7.77081 11.6985 7.80012 11.6913 7.82919C11.685 7.8552 11.6776 7.88097 11.6685 7.9062C11.6558 7.94161 11.6393 7.97712 11.6166 8.00756L11.6128 8.01273L11.6097 8.01656L11.609 8.0174L11.608 8.01853L11.6044 8.023L11.6019 8.02566L11.6009 8.02684L11.599 8.02886L11.5954 8.03279L11.5935 8.03461L11.5924 8.03584L11.5895 8.03855L11.5859 8.04209L11.5837 8.044L11.5829 8.04469C11.5801 8.0472 11.5773 8.04961 11.5743 8.05192L11.5738 8.05236L11.5731 8.05281C11.5702 8.05512 11.5672 8.05733 11.5641 8.05945L11.5595 8.0625L11.559 8.06284L11.5585 8.06323L11.5558 8.06491L11.5538 8.06609L11.5531 8.06653L11.5497 8.06845L11.5479 8.06948L11.5419 8.07268C11.5267 8.08035 11.5106 8.08595 11.494 8.08964C11.483 8.09215 11.4724 8.09382 11.4621 8.09427L11.4559 8.09436C11.4355 8.09422 11.4162 8.08871 11.3977 8.07425C11.3774 8.05836 11.3615 8.03673 11.3479 8.01509C11.3415 8.00505 11.3355 7.99487 11.3295 7.98464C11.2803 8.00442 11.2293 8.01991 11.1776 8.03195C11.0543 8.06068 10.9278 8.06899 10.8016 8.07228C10.7126 8.07366 10.6237 8.07248 10.5346 8.07169C10.4583 8.071 10.3818 8.07282 10.3055 8.07061C10.2446 8.06786 10.1843 8.0621 10.1237 8.05502C10.0792 8.04897 10.0348 8.04218 9.99047 8.0351C9.98408 8.03564 9.97773 8.03614 9.97134 8.03658C9.95108 8.038 9.93072 8.03909 9.91036 8.03953L9.89005 8.03982C9.8088 8.04002 9.72834 8.02969 9.65324 7.99517C9.64228 7.99015 9.63156 7.98474 9.62103 7.97904C9.59467 7.97619 9.56831 7.97402 9.54185 7.97314C9.48023 7.97107 9.41851 7.97579 9.35689 7.97614C9.32979 7.9756 9.30319 7.97422 9.27623 7.97166C9.24309 7.96719 9.21019 7.96055 9.17974 7.94624C9.15255 7.93345 9.1284 7.91471 9.10588 7.89509C9.07401 7.8673 9.04479 7.83622 9.01716 7.8043C8.95548 7.73314 8.89755 7.65888 8.83495 7.58855C8.81641 7.56844 8.79757 7.54886 8.77809 7.52968C8.718 7.47396 8.65121 7.42193 8.56697 7.41505L8.55629 7.41475L8.50092 7.39803C8.4869 7.39931 8.47288 7.40049 8.45882 7.40157L8.45292 7.40206L8.42882 7.40373C8.41259 7.40442 8.39636 7.40501 8.38013 7.40516H8.3639C8.34226 7.40496 8.32063 7.40388 8.29908 7.40123C8.26436 7.39695 8.22979 7.38888 8.19797 7.37403C8.15155 7.35224 8.11761 7.31678 8.09194 7.27483L7.92861 7.22565C7.90004 7.15852 7.86655 7.09361 7.83783 7.02658C7.82691 6.99962 7.81653 6.97258 7.80842 6.94464C7.79248 6.88966 7.78334 6.83207 7.77498 6.77551C7.75953 6.67155 7.75078 6.55898 7.77704 6.45526ZM8.8856 16.4637L9.31504 17.4757C9.3142 17.4544 9.31351 17.4332 9.31292 17.4119C9.31145 17.3593 9.30958 17.3067 9.30697 17.2541C9.30407 17.2119 9.30073 17.1701 9.29566 17.1281C9.28499 17.0513 9.26945 16.975 9.23906 16.9032C9.20109 16.8135 9.1407 16.7322 9.08006 16.6567C9.02448 16.5874 8.9634 16.5155 8.88885 16.4658L8.8856 16.4637ZM8.59967 9.10535C9.20143 9.36566 9.68531 9.82977 9.81116 10.7009C9.92413 10.7071 10.0224 10.7461 10.1142 10.8174C10.0575 10.9345 10.0118 11.0567 9.97768 11.1825H9.59669C9.51441 11.5432 9.51441 11.9179 9.59669 12.2786H9.97768C10.0246 12.4515 10.0934 12.6176 10.1825 12.773L9.91306 13.0424C10.11 13.3557 10.3749 13.6206 10.6882 13.8175L10.9576 13.5481C11.1129 13.6372 11.2791 13.706 11.4519 13.7528V14.1339C11.8127 14.2161 12.1873 14.2161 12.5481 14.1339V13.7528C12.7209 13.706 12.8871 13.6372 13.0424 13.5481L13.6488 14.1545C13.1789 14.4749 12.6112 14.6624 12 14.6624C10.3819 14.6624 9.0682 13.3487 9.0682 11.7306C9.0682 11.5065 9.08822 11.2733 9.09894 11.0276C9.10833 10.8128 9.03742 10.4504 8.84163 10.2545C8.49836 9.91091 8.15041 9.68311 8.15041 9.68311L8.59967 9.10535ZM15.4003 14.3558C14.7986 14.0955 14.3147 13.6314 14.1888 12.7602C14.0759 12.754 13.9776 12.715 13.8858 12.6437C13.9425 12.5266 13.9882 12.4044 14.0223 12.2786H14.4033C14.4856 11.9179 14.4856 11.5432 14.4033 11.1825H14.0223C13.9754 11.0096 13.9066 10.8435 13.8175 10.6881L14.0869 10.4187C13.89 10.1055 13.6251 9.84054 13.3118 9.64362L13.0424 9.91303C12.8871 9.82391 12.7209 9.75511 12.5481 9.70824V9.32725C12.1873 9.24497 11.8127 9.24497 11.4519 9.32725V9.70824C11.2791 9.75511 11.1129 9.82391 10.9576 9.91303L10.3512 9.30664C10.8211 8.98619 11.3888 8.79876 12 8.79876C13.6181 8.79876 14.9318 10.1125 14.9318 11.7306C14.9318 11.9546 14.9118 12.1878 14.9011 12.4335C14.8917 12.6483 14.9626 13.0108 15.1584 13.2066C15.5016 13.5502 15.8496 13.778 15.8496 13.778L15.4003 14.3558ZM17.7262 13.2149C17.6629 13.2856 17.5922 13.351 17.529 13.4186C17.5113 13.4382 17.4941 13.4581 17.4775 13.4787C17.4541 13.5098 17.4315 13.5415 17.4191 13.5786C17.4094 13.6117 17.405 13.6502 17.3995 13.6816C17.3942 13.7119 17.391 13.7331 17.3861 13.7634C17.3807 13.799 17.3754 13.8354 17.3708 13.8721L17.7262 13.2149ZM12.3994 9.72246C12.1357 9.66998 11.8643 9.66998 11.6006 9.72246L11.6103 10.0344C11.4212 10.0779 11.2407 10.1527 11.0762 10.2557L10.8625 10.0282C10.639 10.1776 10.447 10.3695 10.2976 10.5931L10.5252 10.8067C10.4221 10.9712 10.3473 11.1518 10.3038 11.3409L9.9919 11.3311C9.93947 11.5948 9.93947 11.8663 9.9919 12.13L10.3038 12.1202C10.3473 12.3094 10.4221 12.4899 10.5252 12.6544L10.2976 12.868C10.447 13.0916 10.639 13.2836 10.8625 13.433L11.0762 13.2054C11.2407 13.3084 11.4212 13.3832 11.6103 13.4267L11.6006 13.7387C11.8643 13.7911 12.1357 13.7911 12.3994 13.7387L12.3897 13.4267C12.5788 13.3832 12.7593 13.3084 12.9238 13.2054L13.1375 13.433C13.361 13.2836 13.553 13.0916 13.7024 12.868L13.4748 12.6544C13.5779 12.4899 13.6527 12.3094 13.6962 12.1202L14.0081 12.13C14.0605 11.8663 14.0605 11.5948 14.0081 11.3311L13.6962 11.3409C13.6527 11.1518 13.5779 10.9712 13.4748 10.8067L13.7024 10.5931C13.553 10.3695 13.361 10.1776 13.1375 10.0282L12.9238 10.2557C12.7593 10.1527 12.5788 10.0779 12.3897 10.0344L12.3994 9.72246ZM11.9113 10.6147V10.4298H12.0887V10.6141C12.2931 10.5758 12.3851 10.4182 12.3825 10.4312C12.349 10.5895 12.2711 10.7608 12.0887 10.8035V11.1833C12.4536 11.1419 12.6175 10.865 12.613 10.8867C12.5561 11.1513 12.4195 11.439 12.0887 11.4841V11.8294C12.5373 11.7896 12.7385 11.4712 12.7332 11.4959C12.6641 11.7962 12.4969 12.1232 12.0887 12.1664V12.5836C12.6621 12.542 12.919 12.123 12.9122 12.1549C12.8205 12.5663 12.5889 13.0169 12 13.0191C11.4098 13.0209 11.1785 12.5672 11.091 12.1531C11.0854 12.1232 11.3383 12.545 11.9113 12.584V12.1672C11.5002 12.1275 11.3328 11.7974 11.2668 11.4944C11.2624 11.4714 11.4612 11.7931 11.9113 11.83V11.485C11.5781 11.4428 11.4414 11.1524 11.387 10.8855C11.3833 10.8651 11.5452 11.145 11.9113 11.1839V10.8045C11.7275 10.7632 11.6495 10.5902 11.6175 10.4304C11.6153 10.4182 11.7063 10.5775 11.9113 10.6147ZM7.01707 12.0602L7.08307 12.2158C7.08179 12.1949 7.07958 12.1741 7.07569 12.1535C7.0719 12.1334 7.06689 12.1122 7.05558 12.0949C7.04559 12.0813 7.03084 12.0706 7.01707 12.0602ZM9.29827 7.7264C9.30569 7.72753 9.31312 7.72817 9.32074 7.72891C9.3865 7.73235 9.4523 7.72748 9.5181 7.72684C9.55046 7.72734 9.55021 7.72734 9.58243 7.72901C9.75908 7.7447 9.93249 7.77829 10.1077 7.8047C10.1542 7.81104 10.2007 7.81645 10.2475 7.82088C10.2849 7.82363 10.3221 7.82535 10.3596 7.82579C10.5052 7.82511 10.6509 7.8287 10.7965 7.82643C10.8957 7.82383 10.9951 7.81837 11.0926 7.79879C11.153 7.78665 11.2126 7.76909 11.2687 7.74322C11.3274 7.71612 11.3898 7.67968 11.4305 7.62824C11.4619 7.58855 11.4809 7.54026 11.4936 7.49167C11.5138 7.4148 11.5196 7.33434 11.5205 7.25516C11.521 7.21188 11.5198 7.16861 11.5175 7.12538C11.5152 7.07989 11.5114 7.03449 11.5075 6.9891C11.4942 6.85169 11.4767 6.71473 11.4648 6.57722C11.4571 6.46917 11.4559 6.36088 11.4499 6.25273C11.4474 6.21644 11.4442 6.18044 11.4401 6.14429C11.4329 6.09344 11.4245 6.04288 11.4079 5.99415C11.4026 5.97856 11.3976 5.95785 11.3866 5.94512C11.3786 5.93705 11.3693 5.93075 11.3598 5.92451C11.3487 5.91772 11.3374 5.91138 11.3259 5.90523C11.2685 5.87666 11.2099 5.85069 11.1528 5.82138C11.0801 5.78208 11.0109 5.73704 10.9538 5.67659C10.9015 5.62146 10.8631 5.55542 10.8266 5.48932C10.785 5.41412 10.7495 5.33563 10.7225 5.25394C10.6979 5.17958 10.6811 5.1035 10.6664 5.02673L10.6645 5.01031C10.6559 5.0111 10.6472 5.01188 10.6386 5.01267L10.6221 5.01419L10.6177 5.01459L10.6062 5.01567L10.6016 5.01601L10.5921 5.0168L10.5875 5.01719L10.5679 5.01857C10.517 5.02029 10.466 5.01941 10.415 5.01975C10.3033 5.02054 10.272 5.02137 10.1602 5.02329L10.1183 5.02432L10.1119 5.02452L10.1074 5.02462L10.0346 5.02673L10.0115 5.02747L10.0017 5.02777L9.99785 5.02792C9.98177 5.02841 9.96568 5.02895 9.9496 5.02949L9.94891 5.02954L9.94478 5.02969L9.90913 5.03091L9.90082 5.03126L9.89614 5.03141L9.85055 5.03313L9.84337 5.03337L9.83723 5.03362L9.82547 5.03406L9.79056 5.03544L9.78938 5.03549C9.77216 5.03618 9.755 5.03687 9.73779 5.0376C9.65551 5.04095 9.57318 5.04454 9.49085 5.04808C9.34105 5.05216 9.1912 5.04631 9.0414 5.04995C8.98111 5.05206 8.92008 5.05491 8.85968 5.06214C8.84704 5.06362 8.83445 5.06534 8.82186 5.06726L8.82098 5.06736L8.82019 5.0675L8.81498 5.06834L8.81134 5.06888L8.8108 5.06898L8.80976 5.06918L8.80558 5.06987L8.80175 5.0705L8.80072 5.0707L8.79934 5.07095L8.7958 5.07159L8.79216 5.07223L8.79063 5.07252L8.78896 5.07282L8.78586 5.07341L8.78257 5.07405L8.7806 5.07444L8.77859 5.07483L8.77303 5.07596L8.77057 5.0765L8.76826 5.07695L8.766 5.07744L8.76349 5.07798L8.76054 5.07867L8.75793 5.07921L8.75606 5.07965L8.75395 5.08014L8.7505 5.08093L8.74765 5.08162L8.74618 5.08196L8.7445 5.08236L8.74047 5.08339L8.73742 5.08413L8.73629 5.08442L8.73501 5.08472L8.73034 5.08595L8.72645 5.08698L8.72562 5.08723L8.71991 5.0888L8.71701 5.08959C8.71377 5.09052 8.71013 5.09155 8.70683 5.09254C8.67447 5.10223 8.64231 5.11432 8.61329 5.13188C8.6037 5.13768 8.59062 5.14422 8.58428 5.15406C8.57906 5.16311 8.57729 5.17403 8.57552 5.18421C8.56957 5.22562 8.57213 5.26767 8.57474 5.30927L8.57552 5.31881C8.57798 5.3498 8.58083 5.38078 8.58359 5.41176C8.58683 5.44796 8.58998 5.48411 8.59234 5.5204C8.59283 5.53068 8.59323 5.54101 8.59347 5.55133C8.59682 5.66818 8.58762 5.78518 8.5411 5.89402C8.51941 5.94477 8.49108 5.99277 8.45877 6.03747C8.42189 6.08847 8.37905 6.13411 8.33395 6.17783L8.32761 6.18369L8.32544 6.18565L8.32136 6.18939L8.3101 6.19957L8.30867 6.20085L8.29539 6.21265L8.28241 6.22396L8.27553 6.22991L8.26958 6.23503L8.26136 6.24211L8.23338 6.26587C8.19468 6.29867 8.15592 6.33132 8.11879 6.36595C8.08196 6.4018 8.04433 6.44114 8.02407 6.48929C7.99933 6.54825 8.00494 6.62188 8.01114 6.68325C8.01492 6.72122 8.02087 6.75899 8.02776 6.79651C8.03342 6.82755 8.03873 6.85887 8.04856 6.88887C8.0613 6.92768 8.0791 6.96461 8.09637 7.00154L8.10625 7.02235L8.59583 7.16984L8.58039 7.16939C8.60405 7.17136 8.60385 7.17131 8.62736 7.17451C8.64988 7.17874 8.64974 7.17869 8.67196 7.18405C8.70624 7.19403 8.73919 7.20608 8.77111 7.22216C8.87655 7.27547 8.96025 7.35711 9.03742 7.44554L9.04957 7.45955L9.06157 7.47362L9.07332 7.48759L9.08468 7.50116L9.09442 7.51291C9.10735 7.52855 9.12019 7.54424 9.13307 7.55988L9.15373 7.58491L9.17192 7.60675L9.18314 7.61998L9.19524 7.63414L9.2065 7.64712L9.21702 7.65898C9.23325 7.67653 9.24968 7.69355 9.26738 7.70958C9.27259 7.71396 9.27997 7.72227 9.28696 7.72424C9.29074 7.72512 9.29448 7.72581 9.29827 7.7264ZM11.4286 0.210571C11.6179 0.201473 11.8084 0.196899 12 0.196899C12.2011 0.196899 12.4014 0.201965 12.6001 0.211948L11.4286 0.210571Z" fill="#2F4A98"/>
</svg>
