<svg width="24" height="24" viewBox="0 0 24 24" fill="none" xmlns="http://www.w3.org/2000/svg">
<path fill-rule="evenodd" clip-rule="evenodd" d="M16.8391 23.6827H7.16089L0.317335 16.8392V7.16094L7.16089 0.317383H16.8391L23.6827 7.16094V16.8392L16.8391 23.6827ZM15.4277 20.2753L20.2752 15.4277V8.57235L15.4277 3.72483H8.57231L3.72478 8.57235V15.4277L8.57231 20.2753H15.4277ZM8.54047 12L14.2563 17.746L11.9704 20.0319L6.25461 14.316L6.25408 14.3166L3.96817 12L6.79727 9.20161H11.369L8.54047 12ZM17.2027 14.7985H12.631L15.4595 12L9.74369 6.25412L12.0296 3.96822L17.7454 9.68406L17.7459 9.68352L20.0318 12L17.2027 14.7985Z" fill="#006D08"/>
</svg>
