<svg width="24" height="24" viewBox="0 0 24 24" fill="none" xmlns="http://www.w3.org/2000/svg">
<path fill-rule="evenodd" clip-rule="evenodd" d="M7.81523 7.09666C7.96014 7.68664 7.59936 8.28238 7.00938 8.4273C5.93173 8.69202 4.96895 9.29898 4.26544 10.1572C3.56193 11.0153 3.15561 12.0785 3.10743 13.1871C3.05925 14.2957 3.3718 15.3901 3.99821 16.3061C4.62461 17.2221 5.53111 17.9103 6.58173 18.2675C7.63235 18.6247 8.77046 18.6316 9.82537 18.2873C10.8803 17.943 11.7951 17.2659 12.4327 16.3576C13.0702 15.4494 13.3961 14.3589 13.3615 13.2498C13.3268 12.1406 12.9335 11.0726 12.2406 10.2059C11.8612 9.73138 11.9383 9.03918 12.4128 8.65981C12.8873 8.28043 13.5795 8.35753 13.9589 8.83203C14.949 10.0704 15.5109 11.5964 15.5604 13.1811C15.6099 14.7658 15.1442 16.3239 14.2333 17.6216C13.3224 18.9193 12.0153 19.8867 10.508 20.3787C9.0008 20.8707 7.37467 20.8608 5.87355 20.3504C4.37244 19.84 3.07725 18.8567 2.18224 17.548C1.28724 16.2392 0.840667 14.6756 0.909508 13.0916C0.978349 11.5076 1.55889 9.98858 2.56406 8.76242C3.56923 7.53626 4.94484 6.66903 6.48458 6.29082C7.07456 6.1459 7.67031 6.50669 7.81523 7.09666Z" fill="#0CC788"/>
<path fill-rule="evenodd" clip-rule="evenodd" d="M15.0808 20.1996C14.6523 19.7689 14.6541 19.0724 15.0848 18.644L19.1154 14.6342C20.0457 13.7002 20.5313 12.8006 20.7752 11.7034C21.016 10.6202 20.899 9.48805 20.4419 8.47688C19.9849 7.4657 19.2123 6.62997 18.24 6.09504C17.2678 5.5601 16.1483 5.35479 15.0495 5.5099C13.9508 5.66501 12.9319 6.17219 12.1457 6.95535C11.3595 7.73852 10.8485 8.75546 10.6892 9.85365C10.5299 10.9518 10.7309 12.0721 11.2621 13.0463C11.5529 13.5797 11.3563 14.2479 10.8229 14.5387C10.2895 14.8295 9.6214 14.6329 9.33058 14.0995C8.57157 12.7075 8.28434 11.1069 8.51196 9.53781C8.73958 7.96873 9.46978 6.51573 10.593 5.39675C11.7163 4.27777 13.1721 3.55312 14.742 3.3315C16.312 3.10988 17.9114 3.40322 19.3006 4.16754C20.6897 4.93185 21.7936 6.12593 22.4466 7.57069C23.0997 9.01545 23.2668 10.633 22.9228 12.1807C22.582 13.7139 21.8769 14.9799 20.6721 16.1888L20.6688 16.1921L16.6364 20.2036C16.2057 20.6321 15.5093 20.6303 15.0808 20.1996Z" fill="#0CC788"/>
</svg>
