<svg width="92" height="92" viewBox="0 0 92 92" fill="none" xmlns="http://www.w3.org/2000/svg">
<rect width="92" height="92" rx="46" fill="#2B73E3" fill-opacity="0.1"/>
<path fill-rule="evenodd" clip-rule="evenodd" d="M39.1497 26C39.0912 26.0006 39.0367 26.0157 38.983 26.0455C38.8065 26.1433 38.7485 26.346 38.8466 26.5229L40.5895 29.6715C37.2362 31.4163 34.9712 34.7322 34.9667 38.5377H57.0335C57.029 34.7322 54.764 31.4163 51.4107 29.6715L53.1537 26.5229C53.2517 26.346 53.1937 26.1433 53.0172 26.0455C52.9635 26.0157 52.909 26.0006 52.8505 26C52.7253 25.9988 52.6066 26.0614 52.5398 26.1819L50.7742 29.3646C49.3298 28.7239 47.7097 28.3643 46.0001 28.3643C44.2905 28.3643 42.6704 28.7239 41.226 29.3646L39.4604 26.1819C39.3936 26.0614 39.2749 25.9988 39.1497 26ZM40.9077 32.6573C40.4039 32.6573 39.987 33.0742 39.987 33.578C39.987 34.0817 40.4039 34.4987 40.9077 34.4987C41.4114 34.4987 41.8284 34.0817 41.8284 33.578C41.8284 33.0742 41.4114 32.6573 40.9077 32.6573ZM51.0924 32.6573C50.5887 32.6573 50.1717 33.0742 50.1717 33.578C50.1717 34.0817 50.5887 34.4987 51.0924 34.4987C51.5961 34.4987 52.0131 34.0817 52.0131 33.578C52.0131 33.0742 51.5961 32.6573 51.0924 32.6573Z" fill="#2B73E3"/>
<path d="M34.9667 39.4091V55.4023C34.9667 56.88 36.1563 58.0697 37.6341 58.0697H39.4036V63.5258C39.4036 64.9037 40.4999 66 41.8777 66C43.2556 66 44.3519 64.9037 44.3519 63.5258V58.0697H47.6483V63.5258C47.6483 64.9037 48.7447 66 50.1225 66C51.5003 66 52.5967 64.9037 52.5967 63.5258V58.0697H54.3661C55.8439 58.0697 57.0335 56.88 57.0335 55.4023V39.4091H34.9667Z" fill="#2B73E3"/>
<path d="M31.5718 38.9849C30.194 38.9849 29.0977 40.0812 29.0977 41.4591V51.765C29.0977 53.1428 30.194 54.2392 31.5718 54.2392C32.9497 54.2392 34.046 53.1428 34.046 51.765V41.4591C34.046 40.0812 32.9497 38.9849 31.5718 38.9849Z" fill="#2B73E3"/>
<path d="M60.4285 38.9849C59.0507 38.9849 57.9543 40.0812 57.9543 41.4591V51.765C57.9543 53.1428 59.0507 54.2392 60.4285 54.2392C61.8063 54.2392 62.9027 53.1428 62.9027 51.765V41.4591C62.9027 40.0812 61.8063 38.9849 60.4285 38.9849Z" fill="#2B73E3"/>
</svg>
