<svg width="64" height="64" viewBox="0 0 64 64" fill="none" xmlns="http://www.w3.org/2000/svg">
<rect x="10" y="10" width="44" height="44" rx="22" fill="#2C7EFD" fill-opacity="0.15"/>
<rect x="5" y="5" width="54" height="54" rx="27" stroke="#2B73E3" stroke-opacity="0.05" stroke-width="10"/>
<path fill-rule="evenodd" clip-rule="evenodd" d="M32.5994 24.5473C32.5994 24.134 32.0489 23.9922 31.8492 24.3541L27.5148 32.2102C27.2942 32.61 27.5834 33.1 28.0401 33.1H30.1994C30.8622 33.1 31.3994 33.6373 31.3994 34.3V38.9527C31.3994 39.366 31.9499 39.5078 32.1496 39.1459L36.484 31.2898C36.7046 30.89 36.4154 30.4 35.9587 30.4H33.7994C33.1367 30.4 32.5994 29.8627 32.5994 29.2V24.5473ZM30.2731 23.4846C31.3714 21.4939 34.3994 22.2738 34.3994 24.5473V28.6H35.9587C37.7855 28.6 38.9426 30.5598 38.0601 32.1594L33.7257 40.0154C32.6274 42.0061 29.5994 41.2262 29.5994 38.9527V34.9H28.0401C26.2133 34.9 25.0563 32.9402 25.9388 31.3406L30.2731 23.4846Z" fill="#2B73E3"/>
</svg>
