<svg width="64" height="64" viewBox="0 0 64 64" fill="none" xmlns="http://www.w3.org/2000/svg">
<rect x="10" y="10" width="44" height="44" rx="22" fill="#2C7EFD" fill-opacity="0.15"/>
<rect x="5" y="5" width="54" height="54" rx="27" stroke="#2B73E3" stroke-opacity="0.05" stroke-width="10"/>
<path d="M31.5807 20.7735C31.5267 20.7728 31.4726 20.7728 31.4185 20.7735C30.6868 20.7832 29.9851 20.963 28.9079 21.2447L28.0099 21.48C26.453 21.8877 25.3021 22.1892 24.4567 22.6713C24.1503 22.846 23.875 23.048 23.6247 23.2917C23.2668 23.6401 22.9628 24.041 22.7226 24.4807C22.3844 25.0995 22.2373 25.7656 22.1674 26.5394C22.0996 27.2887 22.0996 28.2098 22.0996 29.3567V29.3996C22.0996 29.7277 22.0996 30.0414 22.1001 30.3411C22.105 33.1869 22.1461 34.9451 22.7934 36.5257C23.0628 37.1837 23.4068 37.8075 23.8185 38.3844C24.8808 39.873 26.4921 40.8684 29.2433 42.568L29.7398 42.8748C30.1626 43.1361 30.7172 43.0051 30.9785 42.5823C31.2398 42.1595 31.1088 41.6049 30.686 41.3436L30.3772 41.1528C27.3807 39.3012 26.1098 38.4964 25.2837 37.3388C24.953 36.8754 24.6762 36.3736 24.4591 35.8436C23.9707 34.6509 23.9052 33.2716 23.9001 30.338C23.8996 30.04 23.8996 29.7277 23.8996 29.3991C23.8996 28.2 23.9005 27.3603 23.96 26.7015C24.0183 26.0579 24.1276 25.6633 24.3021 25.3438C24.4569 25.0607 24.6519 24.8038 24.8803 24.5814C25.0106 24.4546 25.1607 24.342 25.3485 24.2349C25.961 23.8855 26.8677 23.6401 28.6016 23.1857L29.3633 22.9861C30.4967 22.6897 30.9729 22.5795 31.4423 22.5733C31.4805 22.5728 31.5187 22.5728 31.557 22.5733C32.0624 22.58 32.5673 22.7061 33.8636 23.0457L34.8038 23.2923C36.8535 23.8315 37.6111 24.087 38.1189 24.5814C38.3473 24.8038 38.5424 25.0607 38.6971 25.3438C38.8717 25.6633 38.981 26.0579 39.0392 26.7015C39.0988 27.3603 39.0996 28.2 39.0996 29.3991C39.0996 29.9904 39.0966 31.6669 39.0936 32.1621C39.0906 32.6592 39.4911 33.0645 39.9882 33.0675C40.4852 33.0705 40.8906 32.67 40.8936 32.173C40.8966 31.6713 40.8996 29.9891 40.8996 29.3991V29.3567C40.8996 28.2099 40.8996 27.2887 40.8319 26.5394C40.7619 25.7656 40.6148 25.0995 40.2766 24.4807C40.0364 24.041 39.7324 23.6401 39.3745 23.2917C38.455 22.3966 37.1548 22.0495 35.2617 21.5515L34.2088 21.2754C33.06 20.9742 32.3325 20.7834 31.5807 20.7735Z" fill="#2B73E3"/>
<path d="M31.7469 25.8076C31.5853 25.7614 31.414 25.7614 31.2524 25.8076L27.7524 26.8076C27.2745 26.9441 26.9977 27.4423 27.1343 27.9202C27.2708 28.3981 27.769 28.6749 28.2469 28.5383L31.4997 27.609L34.7524 28.5383C35.2303 28.6749 35.7285 28.3981 35.865 27.9202C36.0016 27.4423 35.7248 26.9441 35.2469 26.8076L31.7469 25.8076Z" fill="#2B73E3"/>
<path d="M39.636 35.0366C39.9875 35.388 39.9875 35.9579 39.636 36.3093L37.2724 38.6729L37.9996 39.4002L42.3632 35.0366C42.7147 34.6851 43.2845 34.6851 43.636 35.0366C43.9875 35.388 43.9875 35.9579 43.636 36.3093L38.636 41.3093C38.2845 41.6608 37.7147 41.6608 37.3632 41.3093L35.9996 39.9457L34.636 41.3093C34.2845 41.6608 33.7147 41.6608 33.3632 41.3093L31.3632 39.3093C31.0117 38.9579 31.0117 38.388 31.3632 38.0366C31.7147 37.6851 32.2845 37.6851 32.636 38.0366L33.9996 39.4002L38.3632 35.0366C38.7147 34.6851 39.2845 34.6851 39.636 35.0366Z" fill="#2B73E3"/>
</svg>
