<svg width="82" height="32" viewBox="0 0 82 32" fill="none" xmlns="http://www.w3.org/2000/svg">
<path d="M29.2827 11.19C28.4326 10.669 27.4934 10.3096 26.5127 10.13C26.0527 10.02 25.5127 9.91 24.9227 9.81C24.1627 9.69 23.2727 9.58 22.2527 9.49H22.1127L21.4627 7.97C21.3427 7.69 21.2327 7.41 21.1127 7.11L21.0627 7C20.65 5.84011 20.067 4.74813 19.3327 3.76C18.9465 3.23188 18.445 2.79883 17.8662 2.49384C17.2874 2.18885 16.6466 2.01995 15.9927 2C15.3404 2.01761 14.7007 2.18343 14.1221 2.4849C13.5434 2.78636 13.0409 3.21557 12.6527 3.74C11.9184 4.72813 11.3353 5.82011 10.9227 6.98L10.8727 7.09C10.7527 7.39 10.6427 7.67 10.5227 7.95L9.87267 9.5H9.73267C8.73267 9.59 7.82267 9.7 7.06267 9.83C6.30267 9.96 5.93267 10.03 5.47267 10.14C4.49326 10.3134 3.55422 10.666 2.70267 11.18C2.63244 11.2351 2.57728 11.3072 2.54232 11.3893C2.50735 11.4715 2.49372 11.5612 2.50267 11.65L2.64267 12.65C2.84267 14.14 3.06267 15.89 3.42267 17.7C3.68843 19.0885 4.05609 20.4555 4.52267 21.79C4.70923 22.3141 4.92285 22.8281 5.16267 23.33C5.95364 24.9243 7.08574 26.325 8.47867 27.4328C9.8716 28.5406 11.4912 29.3283 13.2227 29.74C14.1351 29.9451 15.0674 30.0491 16.0027 30.05C16.9313 30.0491 17.857 29.9451 18.7627 29.74C20.5279 29.3256 22.1776 28.5202 23.5899 27.383C25.0022 26.2459 26.1412 24.8061 26.9227 23.17C27.1027 22.77 27.2727 22.36 27.4227 21.94C28.37 19.0776 29.0005 16.1199 29.3027 13.12L29.4927 11.64C29.5044 11.5528 29.4908 11.464 29.4536 11.3842C29.4164 11.3045 29.3571 11.2371 29.2827 11.19ZM15.9927 9.24C14.7327 9.24 13.5927 9.24 12.5627 9.31C12.6127 9.17 12.6727 9.04 12.7327 8.91C12.8627 8.6 12.9827 8.29 13.1127 7.99C13.3656 7.30473 13.6629 6.63665 14.0027 5.99C14.1526 5.71512 14.3266 5.4541 14.5227 5.21C14.6937 4.97337 14.9134 4.77602 15.1669 4.63116C15.4204 4.48629 15.702 4.39725 15.9927 4.37C16.2834 4.39725 16.5649 4.48629 16.8184 4.63116C17.072 4.77602 17.2916 4.97337 17.4627 5.21C17.6587 5.4541 17.8328 5.71512 17.9827 5.99C18.3224 6.63665 18.6197 7.30473 18.8727 7.99C19.0027 8.29 19.1227 8.6 19.2527 8.91C19.3127 9.04 19.3727 9.17 19.4227 9.31C18.3927 9.26 17.2527 9.24 15.9927 9.24Z" fill="url(#paint0_linear_2692_25)"/>
<path fill-rule="evenodd" clip-rule="evenodd" d="M69.1327 8.46526V20.9912C69.1327 21.7907 69.5716 22.8568 70.0105 23.3898C70.0983 23.5674 70.1861 23.5674 70.2739 23.6563C70.3617 23.7451 70.4494 23.834 70.5372 23.9228C70.8883 24.2781 71.3272 24.6335 71.8539 24.8112C72.2928 24.9888 72.995 25.2553 73.6973 25.2553H78.4374C79.1397 25.2553 79.6663 24.9888 80.0174 24.6335C81.0708 23.7451 81.1586 21.7019 79.4908 20.7247C78.5252 20.1917 74.8384 20.6358 74.224 20.4582C74.0484 20.3693 73.8729 20.2805 73.7851 20.014C73.6973 19.7475 73.7851 11.1304 73.7851 10.4197C73.7851 8.90944 73.9607 7.5769 72.644 6.68853C71.3272 5.80017 69.8349 6.51086 69.3083 7.5769C69.3083 7.75457 69.1327 8.10991 69.1327 8.46526Z" fill="url(#paint1_linear_2692_25)"/>
<path fill-rule="evenodd" clip-rule="evenodd" d="M55.0896 25.0781C55.0896 25.9664 55.2651 26.5883 55.9674 27.1213C56.4063 27.4766 57.0207 27.6543 57.8985 27.6543H61.7608C64.8331 27.6543 66.8521 25.6111 66.8521 22.5018V16.1944C66.8521 15.2172 66.6765 14.8619 66.2376 14.24C65.5354 13.2628 63.8676 13.0852 62.8142 14.1512C62.112 14.8619 62.112 15.3949 62.112 16.3721C62.112 18.1488 62.112 19.9256 62.112 21.6134C62.112 22.6795 61.9364 22.946 60.883 22.946C60.0052 22.946 59.1274 22.946 58.2496 22.946C57.1085 22.946 56.7574 22.8572 56.0551 23.3902C55.6162 23.6567 55.0896 24.2785 55.0896 25.0781Z" fill="url(#paint2_linear_2692_25)"/>
<path fill-rule="evenodd" clip-rule="evenodd" d="M41.043 20.2807C41.043 21.3467 41.3941 22.2351 42.3597 22.6793C42.623 22.7681 42.8863 22.857 43.3252 22.857H48.3287C50.611 22.857 52.8055 20.636 52.8055 18.0598V11.0417C52.8055 10.331 52.5421 9.70916 52.191 9.35382C51.1376 8.28778 49.4698 8.37662 48.6798 9.44265C48.1531 10.0645 48.1531 10.331 48.1531 11.4859C48.1531 13.2626 48.1531 15.0393 48.1531 16.7272C48.1531 17.2603 48.1531 17.4379 47.8898 17.7933C47.6265 18.1486 47.3631 18.0598 46.8364 18.0598C45.9586 18.0598 45.0808 18.0598 44.203 18.0598C42.9741 18.0598 42.0963 18.1486 41.4819 19.2147C41.3063 19.4812 41.043 20.0142 41.043 20.2807Z" fill="url(#paint3_linear_2692_25)"/>
<path fill-rule="evenodd" clip-rule="evenodd" d="M55.0896 6.15515V18.3257C55.0896 20.1913 57.7229 21.3462 59.1274 19.7471C59.5663 19.3029 59.7419 18.7699 59.7419 17.8816V6.5105C59.7419 5.71097 59.4786 5.17795 59.1274 4.73377C57.6352 3.04588 55.0896 4.28959 55.0896 6.15515Z" fill="url(#paint4_linear_2692_25)"/>
<path fill-rule="evenodd" clip-rule="evenodd" d="M66.7649 27.4762C66.7649 28.9865 67.7305 29.9637 69.135 29.9637C71.6806 29.9637 72.2072 26.4102 70.1005 25.433C68.3449 24.6335 66.7649 26.1437 66.7649 27.4762Z" fill="url(#paint5_linear_2692_25)"/>
<path fill-rule="evenodd" clip-rule="evenodd" d="M62.1112 8.55407C62.1112 9.3536 62.2867 9.88662 62.8134 10.3308C64.2179 11.7522 66.8512 10.8638 66.8512 8.64291C66.8512 7.31036 65.7101 6.24433 64.4812 6.24433C63.2523 6.33316 62.1112 7.31036 62.1112 8.55407Z" fill="url(#paint6_linear_2692_25)"/>
<defs>
<linearGradient id="paint0_linear_2692_25" x1="15.9984" y1="2" x2="15.9984" y2="30.05" gradientUnits="userSpaceOnUse">
<stop stop-color="#98D700"/>
<stop offset="1" stop-color="#009856"/>
</linearGradient>
<linearGradient id="paint1_linear_2692_25" x1="60.9121" y1="3.9375" x2="60.9121" y2="29.9637" gradientUnits="userSpaceOnUse">
<stop stop-color="#98D700"/>
<stop offset="1" stop-color="#009856"/>
</linearGradient>
<linearGradient id="paint2_linear_2692_25" x1="60.9121" y1="3.9375" x2="60.9121" y2="29.9637" gradientUnits="userSpaceOnUse">
<stop stop-color="#98D700"/>
<stop offset="1" stop-color="#009856"/>
</linearGradient>
<linearGradient id="paint3_linear_2692_25" x1="60.9121" y1="3.9375" x2="60.9121" y2="29.9637" gradientUnits="userSpaceOnUse">
<stop stop-color="#98D700"/>
<stop offset="1" stop-color="#009856"/>
</linearGradient>
<linearGradient id="paint4_linear_2692_25" x1="60.9121" y1="3.9375" x2="60.9121" y2="29.9637" gradientUnits="userSpaceOnUse">
<stop stop-color="#98D700"/>
<stop offset="1" stop-color="#009856"/>
</linearGradient>
<linearGradient id="paint5_linear_2692_25" x1="60.9121" y1="3.9375" x2="60.9121" y2="29.9637" gradientUnits="userSpaceOnUse">
<stop stop-color="#98D700"/>
<stop offset="1" stop-color="#009856"/>
</linearGradient>
<linearGradient id="paint6_linear_2692_25" x1="60.9121" y1="3.9375" x2="60.9121" y2="29.9637" gradientUnits="userSpaceOnUse">
<stop stop-color="#98D700"/>
<stop offset="1" stop-color="#009856"/>
</linearGradient>
</defs>
</svg>
