<svg width="88" height="32" viewBox="0 0 88 32" fill="none" xmlns="http://www.w3.org/2000/svg">
<path d="M14.9895 16.944C14.9895 15.6836 16.0252 14.6425 17.2788 14.6425H22.021V10.697C22.021 9.16269 20.7673 7.90234 19.2411 7.90234H14.0629V14.4233C14.0629 15.9028 12.8637 17.1084 11.392 17.1084H6.48633V17.9303H11.61C12.9182 17.9303 14.0084 19.0263 14.0084 20.3414V23.4649H14.9895C14.9895 23.4649 14.9895 23.4649 14.9895 23.4101V16.944Z" fill="url(#paint0_linear_2943_5572)"/>
<path d="M9.29756 7.89345H14.0557V5.69415C14.0557 4.20962 12.8525 3 11.3758 3H2.67988C1.20321 3 0 4.20962 0 5.69415V14.4364C0 15.9209 1.20321 17.1305 2.67988 17.1305H6.50829V10.6976C6.50829 9.15805 7.7662 7.89345 9.29756 7.89345Z" fill="url(#paint1_linear_2943_5572)"/>
<path d="M14.0562 14.4375V7.89453H9.29806C7.7667 7.89453 6.50879 9.15913 6.50879 10.6986V17.1316H11.3763C12.853 17.1316 14.0562 15.922 14.0562 14.4375Z" fill="url(#paint2_linear_2943_5572)"/>
<path d="M6.48751 20.6696V17.9297H5.39736C4.08917 17.9297 2.99902 19.0256 2.99902 20.3408V26.5877C2.99902 27.9029 4.08917 28.9988 5.39736 28.9988H11.6112C12.9194 28.9988 14.0096 27.9029 14.0096 26.5877V23.4643H9.2674C7.74119 23.4643 6.48751 22.2039 6.48751 20.6696Z" fill="url(#paint3_linear_2943_5572)"/>
<path d="M11.61 17.9297H6.48633V20.6696C6.48633 22.2039 7.74001 23.4643 9.26622 23.4643H14.0084V20.3956C14.0084 19.0256 12.9182 17.9297 11.61 17.9297Z" fill="url(#paint4_linear_2943_5572)"/>
<path d="M23.6998 14.6406H22.0017V20.6684C22.0017 22.2027 20.7418 23.4631 19.2081 23.4631H14.9355C14.9355 24.7234 15.9763 25.7098 17.2362 25.7098H23.6998C24.9596 25.7098 26.0004 24.6686 26.0004 23.4083V16.8873C26.0004 15.627 24.9596 14.6406 23.6998 14.6406Z" fill="url(#paint5_linear_2943_5572)"/>
<path d="M22.0226 20.6684V14.6406H17.243C15.9794 14.6406 14.9355 15.6818 14.9355 16.9421V23.4083C14.9355 23.4083 14.9355 23.4083 14.9355 23.4631H19.2207C20.759 23.4631 22.0226 22.2027 22.0226 20.6684Z" fill="url(#paint6_linear_2943_5572)"/>
<path d="M82.3621 12.5155V14.3476C84.0887 14.3476 85.5276 15.5331 85.9232 17.1137H75.4917V10.1445H73.6572V18.9458H87.8657V18.0477C87.8657 14.9942 85.3837 12.5514 82.3621 12.5155Z" fill="black"/>
<path d="M71.2092 17.5055C71.2092 18.5832 70.7416 19.5891 69.9502 20.2716L71.1372 21.6367C72.3602 20.5949 73.0437 19.0861 73.0437 17.4696V15.6016H71.2092V17.5055Z" fill="black"/>
<path d="M69.3402 18.0088C69.3402 14.9912 66.8582 12.5125 63.8367 12.5125V14.3446C65.5632 14.3446 67.0021 15.5301 67.3978 17.1107H57.9015V15.7097C57.9015 13.9135 56.4627 12.4766 54.6641 12.4766C52.8656 12.4766 51.4268 13.9135 51.4268 15.7097C51.4268 17.5059 52.8656 18.9428 54.7001 18.9428L55.8871 18.9069C55.6713 19.4457 55.3476 19.9487 54.8799 20.3079L56.067 21.673C56.9303 20.9186 57.5058 19.9487 57.7936 18.871H69.3761V18.0088H69.3402ZM56.067 17.1107L54.6282 17.1466C53.8368 17.1466 53.1893 16.5 53.1893 15.7097C53.1893 14.9194 53.8368 14.2727 54.6282 14.2727C55.4195 14.2727 56.067 14.9194 56.067 15.7097V17.1107Z" fill="black"/>
<path d="M82.451 21.8388C83.0001 21.7498 83.3729 21.2331 83.2838 20.6847C83.1947 20.1364 82.6774 19.764 82.1283 19.853C81.5792 19.942 81.2063 20.4587 81.2954 21.007C81.3846 21.5554 81.9019 21.9277 82.451 21.8388Z" fill="black"/>
<path d="M84.4115 19.8086C83.8359 19.8086 83.4043 20.2756 83.4043 20.8145C83.4043 21.3892 83.8719 21.8203 84.4115 21.8203C84.987 21.8203 85.4187 21.3533 85.4187 20.8145C85.4546 20.2756 84.987 19.8086 84.4115 19.8086Z" fill="black"/>
<path d="M86.5687 19.8086C85.9932 19.8086 85.5615 20.2756 85.5615 20.8145C85.5615 21.3892 86.0291 21.8203 86.5687 21.8203C87.1442 21.8203 87.5759 21.3533 87.5759 20.8145C87.6119 20.2756 87.1442 19.8086 86.5687 19.8086Z" fill="black"/>
<path d="M64.8773 12.1914C65.4528 12.1914 65.8845 11.7244 65.8845 11.1855C65.8845 10.6467 65.4169 10.1797 64.8773 10.1797C64.3018 10.1797 63.8701 10.6467 63.8701 11.1855C63.8701 11.7244 64.3377 12.1914 64.8773 12.1914Z" fill="black"/>
<path d="M48.9801 17.1099L40.7788 17.1459C39.9874 17.1459 39.34 16.4992 39.34 15.7089C39.304 13.9846 37.8652 12.5476 36.1026 12.5476C34.3041 12.5476 32.8652 13.9846 32.8652 15.7808C32.8652 17.5769 34.3041 19.0139 36.1026 19.0139V17.1818C35.3112 17.1818 34.6638 16.5352 34.6638 15.7448C34.6638 14.9545 35.3112 14.3079 36.1026 14.3079C36.894 14.3079 37.5414 14.9545 37.5414 15.7448C37.5774 17.4692 39.0162 18.9061 40.7788 18.9061L50.7786 18.8702V12.5117H48.9801V17.1099Z" fill="black"/>
<path d="M49.7719 10C49.1964 10 48.7646 10.467 48.7646 11.0059C48.7646 11.5806 49.2324 12.0117 49.7719 12.0117C50.3475 12.0117 50.779 11.5447 50.779 11.0059C50.815 10.4311 50.3475 10 49.7719 10Z" fill="black"/>
<defs>
<linearGradient id="paint0_linear_2943_5572" x1="6.4963" y1="15.6929" x2="21.9877" y2="15.6929" gradientUnits="userSpaceOnUse">
<stop offset="0.1135" stop-color="#EF60A3"/>
<stop offset="0.8314" stop-color="#2B3990"/>
</linearGradient>
<linearGradient id="paint1_linear_2943_5572" x1="2.7086" y1="2.54705" x2="11.4077" y2="17.5345" gradientUnits="userSpaceOnUse">
<stop offset="0.1717" stop-color="#27AAE1"/>
<stop offset="0.7863" stop-color="#EC008C"/>
</linearGradient>
<linearGradient id="paint2_linear_2943_5572" x1="7.37576" y1="17.6344" x2="19.5583" y2="-3.35456" gradientUnits="userSpaceOnUse">
<stop offset="0.1135" stop-color="#EF60A3"/>
<stop offset="0.849" stop-color="#ED1C24"/>
</linearGradient>
<linearGradient id="paint3_linear_2943_5572" x1="5.19623" y1="29.2567" x2="11.8825" y2="17.737" gradientUnits="userSpaceOnUse">
<stop offset="0.264" stop-color="#FBB040"/>
<stop offset="0.9566" stop-color="#ED1C24"/>
</linearGradient>
<linearGradient id="paint4_linear_2943_5572" x1="6.4963" y1="20.7146" x2="21.9877" y2="20.7146" gradientUnits="userSpaceOnUse">
<stop offset="0.0678759" stop-color="#FFDE17"/>
<stop offset="0.8329" stop-color="#F8963E"/>
</linearGradient>
<linearGradient id="paint5_linear_2943_5572" x1="14.6304" y1="16.7946" x2="26.2592" y2="23.5058" gradientUnits="userSpaceOnUse">
<stop offset="0.0396813" stop-color="#39B54A"/>
<stop offset="0.836" stop-color="#2B3990"/>
</linearGradient>
<linearGradient id="paint6_linear_2943_5572" x1="8.88484" y1="35.5136" x2="21.1734" y2="14.1744" gradientUnits="userSpaceOnUse">
<stop offset="0.0396813" stop-color="#39B54A"/>
<stop offset="0.2538" stop-color="#3AB24B"/>
<stop offset="0.3864" stop-color="#39AD4F"/>
<stop offset="0.4969" stop-color="#37A656"/>
<stop offset="0.5952" stop-color="#339B61"/>
<stop offset="0.6854" stop-color="#2F8E6E"/>
<stop offset="0.7698" stop-color="#2B7E79"/>
<stop offset="0.8496" stop-color="#276C82"/>
<stop offset="0.9248" stop-color="#26568A"/>
<stop offset="0.9956" stop-color="#2A3B8F"/>
<stop offset="1" stop-color="#2B3990"/>
</linearGradient>
</defs>
</svg>
