<svg width="84" height="32" viewBox="0 0 84 32" fill="none" xmlns="http://www.w3.org/2000/svg">
<g clip-path="url(#clip0_2943_5613)">
<path d="M14 30C21.732 30 28 23.732 28 16C28 8.26801 21.732 2 14 2C6.26801 2 0 8.26801 0 16C0 23.732 6.26801 30 14 30Z" fill="#0091EA"/>
<path d="M7.59335 13.6528C7.59335 12.1757 8.7545 10.9782 10.1869 10.9782C11.6193 10.9782 12.7805 12.1757 12.7805 13.6528V18.4121C12.7805 19.1072 13.3269 19.6707 14.001 19.6707C14.675 19.6707 15.2215 19.1072 15.2215 18.4121V13.6528C15.2215 12.1757 16.3826 10.9782 17.815 10.9782C19.2474 10.9782 20.4086 12.1757 20.4086 13.6528V19.6314C20.4086 20.3265 20.9551 20.89 21.6291 20.89C22.3032 20.89 22.8496 20.3265 22.8496 19.6314V13.6528C22.8496 10.7854 20.5955 8.46094 17.815 8.46094C16.2905 8.46094 14.9242 9.1597 14.001 10.2636C13.0777 9.1597 11.7115 8.46094 10.1869 8.46094C7.4064 8.46094 5.15234 10.7854 5.15234 13.6528V19.6314C5.15234 20.3265 5.69879 20.89 6.37284 20.89C7.0469 20.89 7.59335 20.3265 7.59335 19.6314V13.6528Z" fill="white"/>
<path d="M17.8149 21.4831V21.4925C17.8149 21.5094 17.8096 21.5257 17.7998 21.5392C15.8622 24.2035 11.987 24.2035 10.0494 21.5392C10.0431 21.5304 10.0386 21.5206 10.0362 21.5101C10.0349 21.5045 10.0342 21.4985 10.0342 21.4925V21.4831C10.0342 21.4024 10.1249 21.3576 10.1859 21.4081C12.3693 23.2183 15.4799 23.2183 17.6633 21.4081C17.7243 21.3576 17.8149 21.4024 17.8149 21.4831Z" fill="white"/>
<path d="M39.7852 15.9689C40.173 15.9689 40.5053 15.8305 40.7822 15.5535C40.8653 15.4704 40.9345 15.3735 40.9899 15.2904C41.0453 15.3874 41.1145 15.4704 41.1838 15.5535C41.4607 15.8305 41.7792 15.9689 42.1669 15.9689C42.5546 15.9689 42.8869 15.8305 43.15 15.5535C43.427 15.2766 43.5516 14.9443 43.5516 14.5566C43.5516 14.1688 43.4131 13.8365 43.15 13.5734C42.8869 13.3103 42.5546 13.1719 42.1669 13.1719C41.7792 13.1719 41.4469 13.3103 41.1838 13.5734C41.1007 13.6565 41.0315 13.7396 40.9899 13.8365C40.9345 13.7396 40.8653 13.6565 40.7822 13.5734C40.5053 13.2965 40.173 13.1719 39.7852 13.1719C39.4114 13.1719 39.0652 13.3103 38.8021 13.5873C38.539 13.8642 38.3867 14.1827 38.3867 14.5704C38.3867 14.9581 38.5252 15.2904 38.7883 15.5674C39.0652 15.8305 39.3975 15.9689 39.7852 15.9689Z" fill="#0091EA"/>
<path d="M68.2125 13.587C67.8801 13.587 67.6032 13.6978 67.3955 13.947C67.174 14.1824 67.0632 14.4732 67.0632 14.8055C67.0632 15.0409 67.1324 15.4009 67.2432 15.8717C67.354 16.3287 67.4232 16.6887 67.4232 16.9379C67.4232 17.7826 66.8139 18.2119 65.6093 18.2119H65.18H64.4877H64.1969C63.1168 18.2119 62.0922 17.7411 61.1091 16.7995C59.9598 15.664 59.1982 14.9025 58.7966 14.5009C57.3843 13.1301 56.1796 12.05 55.1688 11.2192C55.0026 11.0807 54.9195 10.9284 54.9195 10.7623C54.9195 10.5961 55.0303 10.4715 55.2242 10.3884C57.2458 9.59912 59.4197 8.93448 61.7183 8.4083C62.4384 8.25598 62.7845 7.86827 62.7845 7.27286C62.7845 6.48359 62.3276 6.08203 61.3998 6.08203C61.2475 6.08203 61.0537 6.10972 60.846 6.15127C57.4673 6.94053 55.0026 7.82673 53.4241 8.78216C52.7179 9.21141 52.3717 9.9176 52.3717 10.8869C52.3717 11.3577 52.4409 11.7315 52.6071 12.0223C52.884 12.507 53.7841 13.4208 55.3211 14.7363C56.6919 15.9133 57.3704 16.7164 57.3704 17.1318C57.3704 17.6995 56.7888 18.0318 55.6257 18.1565C55.3765 18.1842 54.4349 18.1842 52.7871 18.1842H52.4409H52.0394C50.9455 18.1842 50.3224 17.7411 50.1424 16.8549C50.0454 16.3564 49.9901 16.0517 49.9624 15.9271C49.81 15.5671 49.5331 15.3871 49.1177 15.3871C48.7438 15.3871 48.4392 15.6225 48.2315 16.1071C47.8853 16.8826 47.6776 17.3395 47.5669 17.4641C46.8468 18.378 44.936 18.835 41.8481 18.835H40.3527C38.2479 18.835 36.8079 18.5996 36.0325 18.1011C35.5063 17.7688 35.2432 17.2564 35.2432 16.5779C35.2432 16.3841 35.2847 16.0794 35.3678 15.6917C35.4509 15.2902 35.4924 14.9994 35.4924 14.8055C35.4924 14.2101 35.2016 13.9193 34.6062 13.9193C34.0524 13.9193 33.6093 14.404 33.3185 15.3733C33.1108 16.0517 33 16.7579 33 17.4918C33 20.3166 35.4093 21.7289 40.228 21.7289C44.8529 21.7289 47.733 21.0089 48.8131 19.555C49.2839 20.552 50.2116 21.0504 51.5824 21.0504H51.7209H52.4271H52.4548C54.5457 21.0504 56.0134 20.9258 56.8719 20.6627C58.1874 20.2612 58.9905 19.4304 59.2951 18.1842C60.6521 20.095 62.3414 21.0504 64.3492 21.0504H64.4738H65.1662H65.4431C66.8001 21.0504 67.8525 20.6489 68.6279 19.8596C69.4033 19.0704 69.7772 17.9903 69.7772 16.6195C69.7633 14.5978 69.251 13.587 68.2125 13.587Z" fill="#0091EA"/>
<path d="M66.2051 22.5625C65.8312 22.5625 65.4851 22.701 65.222 22.9779C65.042 23.1579 64.9312 23.3656 64.862 23.5872C64.7927 23.3518 64.682 23.1579 64.5019 22.9779C64.225 22.701 63.9065 22.5625 63.5188 22.5625C63.1311 22.5625 62.7988 22.701 62.5219 22.9641C62.2449 23.2271 62.1064 23.5595 62.1064 23.9472C62.1064 24.3349 62.2449 24.6672 62.5219 24.9442C62.7988 25.2211 63.1311 25.3596 63.5188 25.3596C63.9065 25.3596 64.2389 25.2211 64.5019 24.9442C64.682 24.7641 64.7789 24.5564 64.8481 24.321C64.9173 24.5564 65.0143 24.7641 65.1943 24.9442C65.4712 25.2211 65.7897 25.3596 66.1774 25.3596C66.5651 25.3596 66.8974 25.2211 67.1744 24.9442C67.4513 24.6672 67.5898 24.3349 67.5898 23.9472C67.5898 23.5595 67.4513 23.2271 67.1744 22.9641C66.8974 22.701 66.6067 22.5625 66.2051 22.5625Z" fill="#0091EA"/>
<path d="M83.375 15.5543C82.8765 14.765 82.1565 14.3635 81.2288 14.3635C80.4533 14.3635 79.6918 14.7789 78.9163 15.6097C78.764 15.7897 78.3763 16.3159 77.767 17.1882C77.4901 17.5898 77.227 17.8667 76.9639 17.9914C76.7147 18.1298 76.3547 18.1991 75.8839 18.1991H75.5654C74.2777 18.1991 73.6545 17.4098 73.6545 15.8451V7.63393C73.6545 6.54003 73.2391 6 72.4083 6C71.9929 6 71.6606 6.18001 71.439 6.52618C71.2452 6.83081 71.1621 7.20467 71.1621 7.63393L71.439 15.402C71.5083 17.3405 71.716 18.6422 72.0345 19.3483C72.5745 20.4976 73.6545 21.0653 75.2746 21.0653H75.3992H76.0916H76.1608C77.0609 21.0653 77.8224 20.7469 78.4455 20.1238C79.1517 20.9684 80.0518 21.3838 81.1734 21.3838C82.0457 21.3838 82.7519 21.0377 83.2781 20.3315C83.7627 19.6945 83.9981 18.9468 83.9981 18.0467C84.0258 17.0498 83.7904 16.219 83.375 15.5543ZM81.118 19.016C80.841 19.016 80.5641 18.9329 80.2318 18.7806C79.8579 18.5868 79.6779 18.3652 79.6779 18.1298C79.6779 17.8113 79.8302 17.5067 80.1487 17.2298C80.4672 16.9528 80.7857 16.8005 81.0903 16.8005C81.4088 16.8005 81.658 16.9528 81.8519 17.2436C82.0042 17.4929 82.0873 17.7836 82.0873 18.1298C82.0873 18.7252 81.7826 19.016 81.118 19.016Z" fill="#0091EA"/>
</g>
<defs>
<clipPath id="clip0_2943_5613">
<rect width="84" height="32" fill="white"/>
</clipPath>
</defs>
</svg>
