<svg width="50" height="32" viewBox="0 0 50 32" fill="none" xmlns="http://www.w3.org/2000/svg">
<path d="M36.6777 22.4303L38.1174 18.7896H42.2744L40.3012 13.2667L42.7687 7.02734L49.8356 25.7909H44.6241L43.4165 22.4303H36.6777Z" fill="#2D354A"/>
<path d="M32.232 24.7635L39.7972 6L34.7819 6.0004L29.6067 18.1258L25.9264 6.0004H22.0714L18.1202 18.1258L15.3334 12.6002L12.8115 20.3696L15.3722 24.7635H20.308L23.8788 13.8897L27.283 24.7635H32.232Z" fill="#2D354A"/>
<path d="M4.76082 18.322H7.85011C8.78597 18.322 9.61914 18.2177 10.35 18.0087L13.3818 8.66812C13.2119 8.39879 13.0177 8.14345 12.7991 7.90329C11.6527 6.63416 9.97518 6 7.767 6H0V24.7636H4.76082V18.322ZM8.84991 10.3165C9.29786 10.7672 9.52164 11.3706 9.52164 12.1258C9.52164 12.8875 9.32463 13.4913 8.93103 13.9376C8.49906 14.4335 7.70426 14.6817 6.54623 14.6817H4.76082V9.64074H6.55941C7.63873 9.64074 8.40236 9.86572 8.84991 10.3165Z" fill="#2D354A"/>
</svg>
