<svg width="60" height="32" viewBox="0 0 60 32" fill="none" xmlns="http://www.w3.org/2000/svg">
<path d="M36.678 22.4291L38.1177 18.7884H42.2747L40.3015 13.2655L42.769 7.02617L49.8359 25.7897H44.6244L43.4168 22.4291H36.678Z" fill="#2D354A"/>
<path d="M32.2316 24.7635L39.7968 6L34.7815 6.0004L29.6063 18.1258L25.926 6.0004H22.071L18.1198 18.1258L15.333 12.6002L12.8111 20.3696L15.3718 24.7635H20.3076L23.8784 13.8897L27.2826 24.7635H32.2316Z" fill="#2D354A"/>
<path d="M4.76082 18.3228H7.85011C8.78597 18.3228 9.61914 18.2185 10.35 18.0095L13.3818 8.66892C13.2119 8.39959 13.0177 8.14425 12.7991 7.90409C11.6527 6.63496 9.97518 6.0008 7.767 6.0008H0V24.7644H4.76082V18.3228ZM8.84991 10.3173C9.29786 10.768 9.52164 11.3714 9.52164 12.1266C9.52164 12.8883 9.32463 13.4921 8.93103 13.9384C8.49906 14.4343 7.70426 14.6825 6.54623 14.6825H4.76082V9.64154H6.55941C7.63873 9.64154 8.40236 9.86652 8.84991 10.3173Z" fill="#2D354A"/>
</svg>
