<svg width="52" height="52" viewBox="0 0 52 52" fill="none" xmlns="http://www.w3.org/2000/svg">
<path d="M39.2827 20.19C38.4326 19.669 37.4934 19.3096 36.5127 19.13C36.0527 19.02 35.5127 18.91 34.9227 18.81C34.1627 18.69 33.2727 18.58 32.2527 18.49H32.1127L31.4627 16.97C31.3427 16.69 31.2327 16.41 31.1127 16.11L31.0627 16C30.65 14.8401 30.067 13.7481 29.3327 12.76C28.9465 12.2319 28.445 11.7988 27.8662 11.4938C27.2874 11.1888 26.6466 11.0199 25.9927 11C25.3404 11.0176 24.7007 11.1834 24.1221 11.4849C23.5434 11.7864 23.0409 12.2156 22.6527 12.74C21.9184 13.7281 21.3353 14.8201 20.9227 15.98L20.8727 16.09C20.7527 16.39 20.6427 16.67 20.5227 16.95L19.8727 18.5H19.7327C18.7327 18.59 17.8227 18.7 17.0627 18.83C16.3027 18.96 15.9327 19.03 15.4727 19.14C14.4933 19.3134 13.5542 19.666 12.7027 20.18C12.6324 20.2352 12.5773 20.3072 12.5423 20.3893C12.5074 20.4715 12.4937 20.5612 12.5027 20.65L12.6427 21.65C12.8427 23.14 13.0627 24.89 13.4227 26.7C13.6884 28.0885 14.0561 29.4555 14.5227 30.79C14.7092 31.3141 14.9228 31.8281 15.1627 32.33C15.9536 33.9243 17.0857 35.325 18.4787 36.4328C19.8716 37.5406 21.4912 38.3283 23.2227 38.74C24.1351 38.9451 25.0674 39.0491 26.0027 39.05C26.9313 39.0491 27.857 38.9451 28.7627 38.74C30.5279 38.3256 32.1776 37.5202 33.5899 36.383C35.0022 35.2459 36.1412 33.8061 36.9227 32.17C37.1027 31.77 37.2727 31.36 37.4227 30.94C38.37 28.0776 39.0005 25.1199 39.3027 22.12L39.4927 20.64C39.5044 20.5528 39.4908 20.464 39.4536 20.3842C39.4164 20.3045 39.3571 20.2371 39.2827 20.19ZM25.9927 18.24C24.7327 18.24 23.5927 18.24 22.5627 18.31C22.6127 18.17 22.6727 18.04 22.7327 17.91C22.8627 17.6 22.9827 17.29 23.1127 16.99C23.3656 16.3047 23.6629 15.6366 24.0027 14.99C24.1526 14.7151 24.3266 14.4541 24.5227 14.21C24.6937 13.9734 24.9134 13.776 25.1669 13.6312C25.4204 13.4863 25.702 13.3972 25.9927 13.37C26.2834 13.3972 26.5649 13.4863 26.8184 13.6312C27.072 13.776 27.2916 13.9734 27.4627 14.21C27.6587 14.4541 27.8328 14.7151 27.9827 14.99C28.3224 15.6366 28.6197 16.3047 28.8727 16.99C29.0027 17.29 29.1227 17.6 29.2527 17.91C29.3127 18.04 29.3727 18.17 29.4227 18.31C28.3927 18.26 27.2527 18.24 25.9927 18.24Z" fill="url(#paint0_linear_4472_20848)"/>
<defs>
<linearGradient id="paint0_linear_4472_20848" x1="25.9984" y1="11" x2="25.9984" y2="39.05" gradientUnits="userSpaceOnUse">
<stop stop-color="#98D700"/>
<stop offset="1" stop-color="#009856"/>
</linearGradient>
</defs>
</svg>
