<svg width="52" height="52" viewBox="0 0 52 52" fill="none" xmlns="http://www.w3.org/2000/svg">
<circle cx="25.4102" cy="26.3975" r="16" fill="#00AFFF"/>
<path d="M18.3347 23.9799C18.3347 22.4505 19.5746 21.2107 21.104 21.2107C22.6334 21.2107 23.8732 22.4505 23.8732 23.9799V29.1358C23.8732 29.9855 24.562 30.6743 25.4117 30.6743C26.2613 30.6743 26.9501 29.9855 26.9501 29.1358V23.9799C26.9501 22.4505 28.1899 21.2107 29.7193 21.2107C31.2488 21.2107 32.4886 22.4505 32.4886 23.9799V30.3976C32.4886 31.2473 33.1774 31.9361 34.027 31.9361C34.8767 31.9361 35.5655 31.2473 35.5655 30.3976V23.9799C35.5655 20.7512 32.9481 18.1338 29.7193 18.1338C28.0146 18.1338 26.4803 18.8635 25.4117 20.0275C24.343 18.8635 22.8087 18.1338 21.104 18.1338C17.8752 18.1338 15.2578 20.7512 15.2578 23.9799V30.3976C15.2578 31.2473 15.9466 31.9361 16.7963 31.9361C17.6459 31.9361 18.3347 31.2473 18.3347 30.3976V23.9799Z" fill="white"/>
<path d="M29.8234 32.4734C29.9496 32.3078 29.7331 32.1301 29.5648 32.2526C28.3983 33.1022 26.9619 33.6035 25.4084 33.6035C23.8555 33.6035 22.4196 33.1026 21.2534 32.2536C21.0851 32.1311 20.8686 32.3088 20.9949 32.4744C22.0085 33.8031 23.6085 34.6605 25.4087 34.6605C27.2094 34.6605 28.8098 33.8027 29.8234 32.4734Z" fill="white"/>
</svg>
