<svg width="52" height="52" viewBox="0 0 52 52" fill="none" xmlns="http://www.w3.org/2000/svg">
<rect width="52" height="52" rx="11" fill="url(#paint0_linear_175_4466)"/>
<path d="M34.4951 30.1265L35.5351 27.4966H38.5379L37.1129 23.5072L38.8951 19L44.0001 32.554H40.2354L39.363 30.1265H34.4951Z" fill="white"/>
<path d="M31.2829 32.5541L36.7478 19L33.1247 19L29.3864 27.759L26.7281 19H23.9433L21.089 27.759L19.076 23.7677L17.2544 29.3798L19.1039 32.5541H22.6694L25.2487 24.6992L27.708 32.5541H31.2829Z" fill="white"/>
<path d="M11.4391 27.9012H13.6707C14.3467 27.9012 14.9486 27.8257 15.4765 27.6748L16.0537 25.8968L17.6666 20.9275C17.5437 20.7327 17.4034 20.5486 17.2457 20.375C16.4175 19.4583 15.2059 19 13.6106 19H8V32.554H11.4391V27.9012ZM14.393 22.1182C14.7165 22.4438 14.8782 22.8795 14.8782 23.4253C14.8782 23.9753 14.7359 24.4115 14.4515 24.7339C14.1396 25.0921 13.5653 25.2713 12.7287 25.2713H11.4391V21.6299H12.7382C13.5179 21.6299 14.0695 21.7927 14.393 22.1182Z" fill="white"/>
<defs>
<linearGradient id="paint0_linear_175_4466" x1="38.2591" y1="7.00518" x2="4.98445" y2="48.8342" gradientUnits="userSpaceOnUse">
<stop stop-color="#5917D8"/>
<stop offset="1" stop-color="#231C32"/>
</linearGradient>
</defs>
</svg>
