<svg width="24" height="24" viewBox="0 0 24 24" fill="none" xmlns="http://www.w3.org/2000/svg">
<g clip-path="url(#clip0_7460_4458)">
<path d="M22.4118 11.9999C22.4118 17.7497 17.7507 22.4108 12.0008 22.4108C6.251 22.4108 1.58984 17.7497 1.58984 11.9999C1.58984 6.25002 6.251 1.58887 12.0008 1.58887C17.7507 1.58887 22.4118 6.25002 22.4118 11.9999Z" fill="#FFC40D"/>
<path fill-rule="evenodd" clip-rule="evenodd" d="M12.0011 0.737305C5.78081 0.737305 0.738281 5.77983 0.738281 12.0001C0.738281 18.2204 5.78081 23.2629 12.0011 23.2629C18.2213 23.2629 23.2639 18.2204 23.2639 12.0001C23.2639 5.77983 18.2213 0.737305 12.0011 0.737305ZM2.4419 12.0001C2.4419 6.72071 6.72169 2.44092 12.0011 2.44092C17.2805 2.44092 21.5603 6.72071 21.5603 12.0001C21.5603 16.6471 18.2444 20.5196 13.8496 21.3807L9.18737 12.0154L12.131 6.10223H4.47776C4.44974 6.13792 4.42198 6.1738 4.39447 6.20989L7.28422 12.0152L4.40343 17.802C4.77321 18.2855 5.18809 18.7327 5.64179 19.1372L8.23574 13.9266L12.0354 21.5592C12.024 21.5593 12.0125 21.5593 12.0011 21.5593C6.72169 21.5593 2.4419 17.2795 2.4419 12.0001Z" fill="#383838"/>
<path d="M20.7053 15.9562L16.2331 6.97266L13.4808 12.8805L12.6147 11.1482L2.47884 11.1482C2.45406 11.4288 2.44141 11.713 2.44141 12C2.44141 12.2871 2.45406 12.5712 2.47884 12.8518L11.5618 12.8518L13.535 16.7983L16.284 10.8976L19.6723 17.7039C20.0754 17.1626 20.4226 16.5772 20.7053 15.9562Z" fill="#FE0002"/>
</g>
<defs>
<clipPath id="clip0_7460_4458">
<rect width="24" height="24" fill="white"/>
</clipPath>
</defs>
</svg>
