<svg width="24" height="24" viewBox="0 0 24 24" fill="none" xmlns="http://www.w3.org/2000/svg">
<path d="M15.3936 6.2715C15.4028 6.05042 15.3951 5.82895 15.3706 5.60904L15.3489 5.41424C15.1725 3.83168 14.5185 2.34033 13.4737 1.1386C13.2547 0.886632 12.8417 0.995962 12.7761 1.32331L12.4002 3.19676C12.319 3.60155 12.2052 3.99911 12.0598 4.38554C11.7661 5.16618 10.6837 5.22311 10.3098 4.47759L10.2649 4.38803C10.1798 4.21844 10.1069 4.04302 10.0468 3.86308L9.84897 3.27155C9.72713 2.90717 9.21371 2.9017 9.08413 3.26339L9.06346 3.32111C8.7922 4.07827 8.62091 4.86758 8.55391 5.66906L8.53281 5.92153C8.50446 6.26066 8.51572 6.60194 8.56635 6.93846C8.80809 8.54508 10.1676 9.74676 11.7918 9.78937L11.8622 9.79122C13.7377 9.84042 15.3056 8.37562 15.384 6.50116L15.3936 6.2715Z" fill="#ED1B24"/>
<path d="M15.4794 11.9115H8.33948V10.7988H15.4794V11.9115Z" fill="#14489D"/>
<path d="M13.5839 14.1629C14.0278 13.831 14.2771 13.3809 14.2771 12.9116V12.4774H9.54358V12.9116C9.54358 13.3809 9.79294 13.831 10.2368 14.1629C10.3278 14.2309 10.4293 14.2922 10.5378 14.3576C10.8519 14.5471 11.2246 14.772 11.5713 15.3006C11.7185 15.5252 12.0965 15.5225 12.2428 15.2973C12.5831 14.7733 12.96 14.5487 13.2765 14.3601C13.3878 14.2937 13.4917 14.2318 13.5839 14.1629Z" fill="#14489D"/>
<path fill-rule="evenodd" clip-rule="evenodd" d="M0 20.745C0 19.5551 0.964553 18.5906 2.15439 18.5906C2.27989 18.5906 2.40288 18.6013 2.5225 18.6219C2.70239 16.2552 4.63127 14.3552 7.0324 14.3552C9.05275 14.3552 10.7387 15.7003 11.3299 17.5368C11.5145 17.4853 11.7092 17.4578 11.9102 17.4578C12.1143 17.4578 12.3118 17.4861 12.4988 17.5391C13.0972 15.7155 14.777 14.3826 16.7882 14.3826C19.1893 14.3826 21.1182 16.2825 21.2981 18.6492C21.4177 18.6286 21.5407 18.6179 21.6662 18.6179C22.856 18.6179 23.8206 19.5825 23.8206 20.7723C23.8206 21.9621 22.856 22.9267 21.6662 22.9267C21.1362 22.9267 20.6508 22.7353 20.2756 22.4178C19.847 22.7371 19.3157 22.9261 18.7402 22.9261H14.6281V21.1261H16.2857C16.209 20.8822 16.1677 20.6227 16.1677 20.3535V18.9216H17.9677V20.3535C17.9677 20.7802 18.3136 21.1261 18.7402 21.1261C19.1669 21.1261 19.5127 20.7802 19.5127 20.3535V19.0111C19.5127 17.4246 18.2683 16.1826 16.7882 16.1826C15.308 16.1826 14.0645 17.4246 14.0645 19.0111C14.0645 19.0111 14.0646 19.6053 14.0646 19.6121C14.0646 20.802 13.1001 21.7665 11.9102 21.7665C10.7204 21.7665 9.75586 20.802 9.75586 19.6121C9.75586 19.6121 9.75591 18.9925 9.75601 18.9838C9.75601 17.3972 8.51255 16.1552 7.0324 16.1552C5.55225 16.1552 4.30879 17.3972 4.30879 18.9838L4.30781 20.3272C4.30781 20.7538 4.65368 21.0997 5.08033 21.0997C5.50698 21.0997 5.85285 20.7538 5.85285 20.3272V18.8952H7.65285V20.3272C7.65285 20.5963 7.61152 20.8558 7.53484 21.0997H9.19243V22.8997H5.08033C4.50459 22.8997 3.97302 22.7106 3.54437 22.391C3.16919 22.7082 2.68412 22.8993 2.15439 22.8993C0.964553 22.8993 0 21.9348 0 20.745ZM2.15439 20.3906C1.95867 20.3906 1.8 20.5492 1.8 20.745C1.8 20.9407 1.95867 21.0993 2.15439 21.0993C2.35011 21.0993 2.50878 20.9407 2.50878 20.745C2.50878 20.5492 2.35011 20.3906 2.15439 20.3906ZM11.5559 19.613C11.5563 19.8083 11.7148 19.9665 11.9102 19.9665C12.1057 19.9665 12.2642 19.8083 12.2646 19.613L12.2645 19.6039C12.2602 19.412 12.1032 19.2578 11.9102 19.2578C11.718 19.2578 11.5616 19.4108 11.556 19.6016L11.5559 19.613ZM21.6662 20.4179C21.8619 20.4179 22.0206 20.5766 22.0206 20.7723C22.0206 20.968 21.8619 21.1267 21.6662 21.1267C21.4704 21.1267 21.3118 20.968 21.3118 20.7723C21.3118 20.5766 21.4704 20.4179 21.6662 20.4179Z" fill="#14489D"/>
</svg>
