<svg width="24" height="24" viewBox="0 0 24 24" fill="none" xmlns="http://www.w3.org/2000/svg">
<path d="M7.30983 5.64366C8.99575 4.39964 11.1068 3.87631 13.1786 4.18878C13.1815 4.18922 13.1844 4.18964 13.1872 4.19005C13.3056 4.20805 13.4238 4.22876 13.5416 4.25219C14.5599 4.45474 15.5231 4.85491 16.3789 5.42478C16.5812 5.5595 16.6008 5.84437 16.4289 6.01624L11.2226 11.2226C10.793 11.6522 10.793 12.3486 11.2226 12.7782L16.4289 17.9845C16.6008 18.1564 16.5812 18.4413 16.3789 18.576C15.5231 19.1459 14.5599 19.5461 13.5416 19.7486C12.0092 20.0534 10.4207 19.897 8.97719 19.299C8.65679 19.1663 8.34673 19.0132 8.0487 18.841C8.06884 19.2736 7.93387 19.7148 7.63539 20.0742C7.40251 20.3546 7.10242 20.5464 6.77803 20.6455C7.21078 20.9069 7.6643 21.1365 8.13529 21.3316C9.98082 22.096 12.0116 22.296 13.9708 21.9063C15.93 21.5166 17.7297 20.5547 19.1422 19.1422C19.3485 18.9359 19.4644 18.6561 19.4644 18.3644C19.4644 18.0726 19.3485 17.7928 19.1422 17.5865L13.7682 12.2125C13.651 12.0954 13.651 11.9054 13.7682 11.7883L19.1422 6.41425C19.5717 5.98467 19.5717 5.28819 19.1422 4.85862C17.7297 3.44611 15.93 2.48417 13.9708 2.09446C13.1158 1.92439 12.2471 1.86663 11.3862 1.91909C10.2744 1.98683 9.1754 2.23838 8.13529 2.66921C8.05705 2.70162 7.9793 2.73498 7.90205 2.76927C7.6973 2.86017 7.4953 2.958 7.2964 3.06269C6.84834 3.29851 6.41602 3.5691 6.0036 3.87342C5.51476 4.23412 5.41089 4.92282 5.77159 5.41165C6.1323 5.90049 6.82099 6.00436 7.30983 5.64366Z" fill="#033F7A"/>
<path d="M4.85926 4.85742C4.14 5.57656 3.53139 6.40232 3.05621 7.3082C2.34374 8.66645 1.94997 10.1691 1.90478 11.7022C1.85958 13.2354 2.16415 14.7586 2.79537 16.1565C3.4266 17.5544 4.3679 18.7901 5.54786 19.77C6.01524 20.1581 6.70875 20.0938 7.09687 19.6265C7.48498 19.1591 7.42074 18.4656 6.95336 18.0775C6.03042 17.311 5.29416 16.3445 4.80043 15.2511C4.3067 14.1577 4.06847 12.9662 4.10382 11.7671C4.13917 10.5679 4.44717 9.39254 5.00445 8.33014C5.35205 7.66748 5.79094 7.05962 6.30654 6.52354C5.8817 6.4394 5.48574 6.2026 5.20834 5.82665C4.99191 5.53335 4.8777 5.19608 4.85926 4.85742Z" fill="#CE2E51"/>
<path d="M19.3659 15.1445C19.3268 15.1838 19.2632 15.1839 19.2241 15.1446L16.4624 12.3765C16.2699 12.1835 16.2674 11.8718 16.457 11.6758L17.665 10.4264C17.7215 10.368 17.7993 10.335 17.8806 10.335L20.6745 10.335C20.7551 10.335 20.8324 10.3675 20.8888 10.4251L22.114 11.6766C22.3052 11.872 22.3041 12.1847 22.1115 12.3787L19.3659 15.1445Z" fill="#CE2E51"/>
</svg>
