<svg width="24" height="24" viewBox="0 0 24 24" fill="none" xmlns="http://www.w3.org/2000/svg">
<path fill-rule="evenodd" clip-rule="evenodd" d="M7.84757 3.5624C9.24178 3.34427 10.756 3.56315 11.8771 4.20159C11.9537 4.24516 12.0475 4.24516 12.124 4.20159C13.2452 3.56315 14.7594 3.34427 16.1536 3.5624C17.9815 3.8484 19.8598 4.92052 20.7058 7.12553C22.0432 10.6115 20.4128 13.6623 18.3809 15.87C16.3415 18.0857 13.7079 19.679 12.4794 20.3914C12.1833 20.5632 11.8178 20.5632 11.5217 20.3914C10.2933 19.679 7.65963 18.0857 5.62029 15.87C3.58831 13.6623 1.95793 10.6115 3.29536 7.12553C4.14135 4.92052 6.01961 3.8484 7.84757 3.5624ZM9.70816 7.91769C9.70816 7.3667 9.2615 6.92004 8.71051 6.92004H7.90731C7.01195 6.92004 6.28612 7.64587 6.28612 8.54122V9.30995C6.28612 9.86094 6.73279 10.3076 7.28377 10.3076C7.83476 10.3076 8.28143 9.86094 8.28143 9.30995V8.91534H8.71051C9.2615 8.91534 9.70816 8.46868 9.70816 7.91769Z" fill="#F23E56"/>
</svg>
