<svg width="24" height="24" viewBox="0 0 24 24" fill="none" xmlns="http://www.w3.org/2000/svg">
<path d="M2.94316 7.7439C4.35193 6.49118 6.30873 7.56903 7.74862 10.1994C9.36852 13.1585 12.4344 14.8111 16.7552 11.6971C13.8932 8.84115 10.9719 9.98858 9.31466 11.4475C8.89719 11.032 8.527 10.536 8.20657 9.97989C9.40696 8.91052 10.804 8.30923 12.8669 8.30921C15.096 8.3092 16.6919 10.1648 17.3346 11.2566C17.6393 11.0131 17.9499 10.7463 18.2663 10.4551C18.6214 10.1284 19.1418 10.4247 18.958 10.8708C17.9208 13.3877 15.5328 16.8876 11.6671 16.9701C6.28959 17.0848 4.8222 12.5192 4.42138 10.7156C4.09297 9.23772 3.53392 8.79777 2.98701 8.36737L2.98005 8.36189C2.78025 8.20465 2.75317 7.91285 2.94316 7.7439Z" fill="#525282"/>
<path opacity="0.5" d="M19.9433 7.22074L4.23438 7.2207L4.23541 7.22292C5.40972 7.21877 6.71294 8.30754 7.7487 10.1996C9.3686 13.1588 12.4344 14.8113 16.7552 11.6974C13.8933 8.8414 10.9719 9.98883 9.31474 11.4477C8.89727 11.0323 8.52708 10.5362 8.20665 9.98014C9.40704 8.91078 10.804 8.30948 12.867 8.30947C15.0961 8.30945 16.692 10.1651 17.3347 11.2569C17.6394 11.0133 17.95 10.7466 18.2664 10.4554C18.6215 10.1287 19.1419 10.4249 18.958 10.8711C17.9209 13.3879 15.5328 16.8879 11.6672 16.9703C11.5607 16.9726 11.4557 16.9731 11.3522 16.9717L11.3552 16.9741L19.9433 16.9741C20.7323 16.9741 21.3719 16.3345 21.3719 15.5455V8.64933C21.3719 7.86035 20.7323 7.22075 19.9433 7.22074Z" fill="#22B07D"/>
<path fill-rule="evenodd" clip-rule="evenodd" d="M1.10352 9.82063C1.10352 6.76936 1.10352 5.24372 1.69733 4.07828C2.21967 3.05314 3.05314 2.21967 4.07828 1.69733C5.24372 1.10352 6.76936 1.10352 9.82063 1.10352H14.1792C17.2305 1.10352 18.7561 1.10352 19.9215 1.69733C20.9467 2.21967 21.7802 3.05314 22.3025 4.07828C22.8963 5.24372 22.8963 6.76936 22.8963 9.82063V14.1792C22.8963 17.2305 22.8963 18.7561 22.3025 19.9215C21.7802 20.9467 20.9467 21.7802 19.9215 22.3025C18.7561 22.8963 17.2305 22.8963 14.1792 22.8963H9.82063C6.76936 22.8963 5.24372 22.8963 4.07828 22.3025C3.05314 21.7802 2.21967 20.9467 1.69733 19.9215C1.10352 18.7561 1.10352 17.2305 1.10352 14.1792V9.82063ZM11.3513 16.9716C6.23104 16.9052 4.81343 12.4837 4.42055 10.7157C4.09214 9.23787 3.53309 8.79791 2.98618 8.36751L2.97922 8.36203C2.77943 8.20479 2.75234 7.913 2.94234 7.74405C3.33773 7.39244 3.7763 7.22444 4.2345 7.22282L4.23347 7.22059L19.9424 7.22064C20.7314 7.22064 21.371 7.86024 21.371 8.64922V15.5454C21.371 16.3344 20.7314 16.974 19.9424 16.974L11.3543 16.974L11.3513 16.9716Z" fill="#22B07D"/>
<path d="M7.742 13.8528C7.8583 13.7366 8.04686 13.7366 8.16316 13.8528L8.45465 14.1443C8.57095 14.2606 8.57095 14.4492 8.45465 14.5655L8.16316 14.857C8.04686 14.9733 7.8583 14.9733 7.742 14.857L7.45051 14.5655C7.33421 14.4492 7.33421 14.2606 7.45051 14.1443L7.742 13.8528Z" fill="#22B07D"/>
<path d="M8.99437 13.8528C9.11067 13.7366 9.29922 13.7366 9.41552 13.8528L9.70702 14.1443C9.82332 14.2606 9.82332 14.4492 9.70702 14.5655L9.41552 14.857C9.29923 14.9733 9.11067 14.9733 8.99437 14.857L8.70287 14.5655C8.58657 14.4492 8.58657 14.2606 8.70287 14.1443L8.99437 13.8528Z" fill="#22B07D"/>
<path d="M10.2468 13.8528C10.3631 13.7366 10.5516 13.7366 10.6679 13.8528L10.9594 14.1443C11.0757 14.2606 11.0757 14.4492 10.9594 14.5655L10.6679 14.857C10.5516 14.9733 10.3631 14.9733 10.2468 14.857L9.95528 14.5655C9.83898 14.4492 9.83898 14.2606 9.95528 14.1443L10.2468 13.8528Z" fill="#22B07D"/>
</svg>
