<svg width="24" height="24" viewBox="0 0 24 24" fill="none" xmlns="http://www.w3.org/2000/svg">
<path d="M1.50604 9.12209C0.781546 9.24151 0.25 9.86785 0.25 10.6021V10.9522H2.35145C2.79328 10.9522 3.15145 11.3104 3.15145 11.7522C3.15145 12.194 2.79328 12.5522 2.35145 12.5522H0.250012L0.25 14.1907C0.25 15.1084 0.874594 15.9084 1.76493 16.1309L3.26006 16.5047C3.3859 14.9636 4.67648 13.7522 6.25 13.7522C7.90685 13.7522 9.25 15.0954 9.25 16.7522H15.25C15.25 15.0954 16.5931 13.7522 18.25 13.7522C19.9069 13.7522 21.25 15.0954 21.25 16.7522L21.75 16.7522C22.8546 16.7522 23.75 15.8568 23.75 14.7522V13.0343C23.75 11.6858 22.8502 10.503 21.5506 10.1432L16.7038 8.80095C16.4079 8.719 16.1427 8.5515 15.9416 8.31944L15.8223 8.18183C12.8474 4.74924 7.55136 4.65843 4.46053 7.98702C3.99994 8.48304 3.38758 8.81195 2.7197 8.92204L1.50604 9.12209Z" fill="#AC32BF"/>
<path d="M19.9508 16.7518C19.9508 15.8129 19.1897 15.0518 18.2508 15.0518C18.1921 15.0518 18.1341 15.0547 18.077 15.0605C17.2197 15.1476 16.5508 15.8716 16.5508 16.7518C16.5508 17.6906 17.3119 18.4518 18.2508 18.4518C19.1897 18.4518 19.9508 17.6906 19.9508 16.7518Z" fill="#525282"/>
<path d="M7.95079 16.7518C7.95079 16.0405 7.514 15.4313 6.89402 15.1777C6.6956 15.0965 6.4784 15.0518 6.25077 15.0518C5.78134 15.0518 5.35635 15.242 5.04871 15.5497C4.74107 15.8573 4.55078 16.2823 4.55078 16.7518C4.55078 17.6906 5.3119 18.4518 6.25078 18.4518C7.18967 18.4518 7.95079 17.6906 7.95079 16.7518Z" fill="#525282"/>
</svg>
