<svg width="24" height="24" viewBox="0 0 24 24" fill="none" xmlns="http://www.w3.org/2000/svg">
<path d="M1.83588 5.53111C1.08763 6.68829 1.1482 7.81974 1.5877 10.947C2.01013 13.9527 2.22955 15.514 3.16786 16.4353C3.15806 15.8801 3.15808 15.2798 3.1581 14.6351V14.452C3.15805 12.9511 3.15801 11.6908 3.28184 10.6807C3.41249 9.61499 3.69996 8.62957 4.42092 7.7969C4.58311 7.60959 4.75853 7.43416 4.94585 7.27198C5.77852 6.55102 6.76394 6.26355 7.82962 6.1329C8.83974 6.00906 10.1 6.00911 11.6009 6.00916H15.8158C17.1332 6.00911 18.2652 6.00908 19.2054 6.0928C18.921 4.45074 18.7495 3.86636 18.0095 3.22051C17.8762 3.10414 17.7347 2.99749 17.586 2.9014C16.4289 2.15315 14.8653 2.3729 11.738 2.8124L7.74547 3.37352C4.61825 3.81302 3.0611 4.0694 2.15499 5.10763C2.03862 5.24097 1.93197 5.38249 1.83588 5.53111Z" fill="#525282"/>
<path fill-rule="evenodd" clip-rule="evenodd" d="M5.46394 12.7625C5.07689 12.7625 4.88337 12.7625 4.76165 12.8838C4.63993 13.0051 4.63923 13.1972 4.63783 13.5814C4.63672 13.8847 4.63672 14.2048 4.63672 14.543C4.63672 17.7009 4.63672 19.2799 5.53873 20.3217C5.65458 20.4555 5.77988 20.5808 5.91368 20.6966C6.95546 21.5986 8.53444 21.5986 11.6924 21.5986H15.7242C18.8821 21.5986 20.4611 21.5986 21.5029 20.6966C21.6367 20.5808 21.762 20.4555 21.8778 20.3217C22.7799 19.2799 22.7799 17.7009 22.7799 14.543C22.7799 14.2048 22.7799 13.8847 22.7788 13.5814C22.7773 13.1972 22.7766 13.0051 22.6549 12.8838C22.5332 12.7625 22.3397 12.7625 21.9526 12.7625H5.46394ZM7.56633 16.9609C7.56633 16.5526 7.89735 16.2215 8.30568 16.2215H12.3375C12.7458 16.2215 13.0768 16.5526 13.0768 16.9609C13.0768 17.3692 12.7458 17.7002 12.3375 17.7002H8.30568C7.89735 17.7002 7.56633 17.3692 7.56633 16.9609Z" fill="#22B07D"/>
<path d="M4.8219 10.3888C4.74692 10.7847 4.70943 10.9826 4.83417 11.1332C4.9589 11.2838 5.17573 11.2838 5.60939 11.2838H21.8072C22.2408 11.2838 22.4577 11.2838 22.5824 11.1332C22.7071 10.9826 22.6697 10.7847 22.5947 10.3888C22.466 9.70903 22.2477 9.19148 21.8778 8.76427C21.762 8.63047 21.6367 8.50517 21.5029 8.38932C20.4611 7.4873 18.8821 7.4873 15.7242 7.4873H11.6924C8.53444 7.4873 6.95546 7.4873 5.91368 8.38932C5.77988 8.50517 5.65458 8.63047 5.53873 8.76427C5.16883 9.19148 4.95062 9.70903 4.8219 10.3888Z" fill="#22B07D"/>
</svg>
