<svg width="318" height="318" viewBox="0 0 318 318" fill="none" xmlns="http://www.w3.org/2000/svg">
<path fill-rule="evenodd" clip-rule="evenodd" d="M147.403 58.1562C124.137 58.1562 105.277 77.0164 105.277 100.282L105.277 194.734C105.277 216.31 121.581 234.399 143.042 236.633L144.24 236.757C170.149 239.454 196.268 239.454 222.177 236.757L223.375 236.633C244.836 234.399 261.14 216.31 261.14 194.734V130.885C261.14 118.018 255.608 105.771 245.955 97.2634L216.818 71.5871C206.996 62.9317 194.355 58.1562 181.263 58.1562L147.403 58.1562ZM191.675 172.332C193.655 172.332 195.26 170.727 195.26 168.747V161.446C195.26 152.784 188.741 145.509 180.131 144.563C177.856 144.313 175.576 144.119 173.293 143.979C171.268 143.856 169.586 145.485 169.586 147.514V168.747C169.586 170.727 171.191 172.332 173.171 172.332H191.675ZM159.727 207.007C159.727 209.037 158.044 210.666 156.018 210.542C153.746 210.403 151.477 210.209 149.212 209.96C140.601 209.013 134.083 201.739 134.083 193.077V185.776C134.083 183.796 135.688 182.191 137.668 182.191H156.142C158.122 182.191 159.727 183.796 159.727 185.776V207.007ZM173.293 210.544C171.268 210.667 169.586 209.038 169.586 207.009L169.586 185.776C169.586 183.796 171.191 182.191 173.171 182.191H191.675C193.655 182.191 195.26 183.796 195.26 185.776L195.26 193.077C195.26 201.739 188.741 209.013 180.131 209.96C177.856 210.21 175.576 210.404 173.293 210.544ZM156.018 143.981C158.044 143.857 159.727 145.486 159.727 147.515L159.727 168.747C159.727 170.727 158.122 172.332 156.142 172.332H137.668C135.688 172.332 134.083 170.727 134.083 168.747V161.446C134.083 152.784 140.601 145.509 149.212 144.563C151.477 144.314 153.746 144.12 156.018 143.981Z" fill="#2B73E3"/>
<path d="M123.394 65.6641C119.514 72.039 117.279 79.5253 117.279 87.5337V181.986C117.279 203.563 133.583 221.651 155.044 223.885L156.242 224.009C182.151 226.706 208.269 226.706 234.178 224.009L235.377 223.885C242.664 223.126 249.357 220.54 255.018 216.609C248.38 227.518 236.902 235.225 223.375 236.633L222.177 236.758C196.268 239.454 170.149 239.454 144.24 236.758L143.042 236.633C121.581 234.4 105.277 216.311 105.277 194.734V100.282C105.277 85.9399 112.445 73.2716 123.394 65.6641Z" fill="#1C64D4"/>
<path opacity="0.3" d="M115.231 240.058C100.992 229.938 91.8277 213.318 91.8277 194.738V100.286C91.8277 92.5562 93.406 85.1949 96.258 78.5068C78.5436 83.2283 66.2431 100.122 67.8945 119.013L75.404 204.919C77.1195 224.544 93.386 239.699 113.083 240.024L114.183 240.043C114.532 240.048 114.882 240.054 115.231 240.058Z" fill="#2B73E3"/>
<path d="M133.741 139.08L94.9106 139.081C92.5333 139.081 90.4167 140.586 89.6356 142.831L56.5687 222.012C55.2963 225.67 58.0421 229.481 61.9146 229.432L95.2888 229.008C98.5289 228.967 101.124 231.683 100.935 234.918L102.462 273.524C102.13 279.227 109.561 281.691 112.703 276.92L163.629 191.141C166.074 187.427 163.41 182.484 158.964 182.484H133.553C129.651 182.484 126.951 178.585 128.325 174.933L138.969 146.631C140.343 142.979 137.643 139.08 133.741 139.08Z" fill="#FCC443"/>
<path d="M133.741 139.08L94.9106 139.081C92.5333 139.081 90.4167 140.586 89.6356 142.831L56.5687 222.012C55.2963 225.67 58.0421 229.481 61.9146 229.432L95.2888 229.008C98.5289 228.967 101.124 231.683 100.935 234.918L102.462 273.524C102.13 279.227 109.561 281.691 112.703 276.92L163.629 191.141C166.074 187.427 163.41 182.484 158.964 182.484H133.553C129.651 182.484 126.951 178.585 128.325 174.933L138.969 146.631C140.343 142.979 137.643 139.08 133.741 139.08Z" fill="#FCC443"/>
<path d="M94.8558 139.081L85.1098 139.081C82.7325 139.081 80.6159 140.586 79.8348 142.831L46.7679 222.012C45.4955 225.67 48.2413 229.481 52.114 229.432L60.7794 229.322C57.5332 228.698 55.4295 225.298 56.5727 222.012L89.6395 142.831C90.4141 140.605 92.5027 139.108 94.8558 139.084V139.081Z" fill="#ED6F17"/>
<path d="M102.465 273.524L100.939 234.918C101.127 231.683 98.5321 228.967 95.292 229.008L86.668 229.118C89.3327 229.654 91.2988 232.087 91.1339 234.918L92.6606 273.524C92.4612 276.947 95.0588 279.204 97.847 279.429H107.256L107.28 279.383C104.638 278.996 102.275 276.794 102.465 273.524Z" fill="#ED6F17"/>
<path d="M127.876 250.35C125.038 250.312 122.01 249.921 119.563 248.374C111.995 243.588 118.703 232.996 119.183 226.513C120.033 215.022 102.705 217.953 95.4223 217.981C92.5723 217.992 89.6502 217.795 87.0416 216.647C83.3948 215.042 81.3662 211.741 81.3999 207.799C81.438 203.346 83.4078 198.774 84.9577 194.656C86.6339 190.202 88.4968 185.821 90.1707 181.366C93.3779 172.831 94.3309 172.57 96.5526 166.531C97.8763 162.933 99.2979 159.353 101.073 155.95C102.648 152.934 104.525 149.977 107.026 147.638C108.418 146.336 109.736 145.067 111.355 144.037C112.998 142.991 114.761 142.15 116.554 141.396C118.532 140.565 120.558 139.844 122.565 139.08L94.9105 139.081C92.5333 139.081 90.4167 140.586 89.6355 142.831L56.5687 222.011C55.2962 225.669 58.0421 229.48 61.9147 229.431L95.2889 229.008C98.529 228.966 101.124 231.682 100.936 234.917L102.462 273.523C102.13 279.226 109.561 281.691 112.703 276.919L128.478 250.347C128.278 250.348 128.077 250.352 127.876 250.35Z" fill="#F39119"/>
<path d="M117.095 280.632C117.099 280.627 117.104 280.622 117.108 280.617C117.123 280.6 117.135 280.584 117.147 280.569C117.132 280.588 117.114 280.609 117.095 280.632ZM117.095 280.632C117.088 280.64 117.081 280.648 117.073 280.657M117.095 280.632C117.088 280.64 117.082 280.648 117.075 280.656L117.073 280.657M117.073 280.657C117.058 280.675 117.043 280.695 117.024 280.716C117.01 280.732 116.993 280.75 116.974 280.771C117.016 280.723 117.05 280.684 117.073 280.657ZM117.767 279.646V279.648C117.728 279.72 117.695 279.777 117.676 279.811C117.644 279.865 117.616 279.909 117.6 279.937C117.603 279.931 117.608 279.925 117.611 279.919C117.622 279.902 117.634 279.88 117.648 279.854L117.649 279.855L117.491 280.122L117.364 280.29C116.049 282.2 114.289 283.588 112.298 284.391L111.882 284.548C111.557 284.664 111.23 284.763 110.901 284.847L110.727 285.18H108.742C108.316 285.203 107.891 285.203 107.471 285.18H97.6162L97.3848 285.161C92.0635 284.731 86.6783 280.348 86.9053 273.51L85.3887 235.145L85.377 234.885L61.9893 235.183C61.4192 235.19 60.8555 235.153 60.3018 235.078L52.1865 235.182C44.3265 235.281 38.7534 227.546 41.3359 220.122L41.3936 219.957L41.4609 219.795L74.4893 140.708C76.1384 136.281 80.3676 133.33 85.1094 133.33H94.8555L100.606 133.329V133.33L133.742 133.329L134.111 133.335C141.709 133.572 146.93 141.114 144.478 148.309L144.354 148.656L133.793 176.733H158.965C167.916 176.733 173.306 186.602 168.551 194.117L117.671 279.818C117.693 279.781 117.726 279.721 117.767 279.646ZM112.069 282.63C112.091 282.634 112.112 282.64 112.132 282.643C112.244 282.649 112.376 282.65 112.519 282.648C112.382 282.638 112.232 282.624 112.081 282.607L112.069 282.63ZM113.974 282.523C113.871 282.543 113.746 282.564 113.614 282.584C113.706 282.574 113.787 282.566 113.854 282.555C113.89 282.546 113.931 282.535 113.974 282.523ZM114.873 282.245C114.875 282.244 114.878 282.244 114.88 282.243C114.89 282.239 114.901 282.233 114.912 282.228C114.898 282.234 114.885 282.24 114.873 282.245ZM115.448 281.971C115.466 281.961 115.484 281.954 115.498 281.946C115.522 281.933 115.549 281.914 115.579 281.896C115.536 281.921 115.49 281.947 115.448 281.971ZM115.844 281.735C115.863 281.723 115.88 281.714 115.895 281.705C115.907 281.697 115.918 281.687 115.931 281.679C115.903 281.697 115.874 281.716 115.844 281.735ZM116.162 281.515C116.153 281.522 116.143 281.528 116.133 281.535C116.224 281.467 116.301 281.409 116.358 281.361C116.374 281.349 116.387 281.335 116.401 281.323C116.337 281.377 116.257 281.443 116.162 281.515ZM116.87 280.883C116.875 280.878 116.88 280.874 116.885 280.869C116.896 280.857 116.907 280.845 116.917 280.834C116.903 280.849 116.887 280.865 116.87 280.883ZM117.305 280.37C117.295 280.383 117.276 280.408 117.252 280.439C117.255 280.436 117.258 280.432 117.261 280.429C117.287 280.395 117.308 280.366 117.32 280.35C117.334 280.331 117.345 280.316 117.354 280.305L117.305 280.37ZM117.51 280.079C117.509 280.08 117.507 280.08 117.507 280.081L117.508 280.082C117.467 280.144 117.423 280.203 117.382 280.264C117.396 280.243 117.409 280.228 117.416 280.218C117.429 280.199 117.445 280.175 117.464 280.147C117.473 280.134 117.489 280.112 117.507 280.084L117.51 280.079ZM118.058 279.021C118.059 279.016 118.062 279.011 118.063 279.007C118.095 278.926 118.134 278.819 118.175 278.693L118.058 279.021ZM118.27 278.361C118.284 278.306 118.3 278.248 118.314 278.187C118.318 278.169 118.321 278.146 118.326 278.121C118.31 278.193 118.288 278.288 118.27 278.361ZM118.348 278.012C118.362 277.936 118.379 277.856 118.388 277.801C118.392 277.768 118.396 277.724 118.401 277.675C118.386 277.783 118.365 277.916 118.348 278.012ZM118.448 277.024C118.444 277.161 118.435 277.312 118.427 277.434C118.433 277.37 118.442 277.311 118.445 277.264C118.448 277.204 118.448 277.119 118.448 277.024ZM118.367 275.992C118.401 276.228 118.429 276.487 118.443 276.676C118.442 276.609 118.442 276.546 118.439 276.494C118.428 276.375 118.4 276.188 118.367 275.992ZM117.568 273.855C117.815 274.294 118.14 275.078 118.275 275.518C118.265 275.468 118.255 275.421 118.245 275.38C118.133 275.021 117.805 274.263 117.582 273.873C117.578 273.867 117.573 273.862 117.568 273.855ZM115.874 272.144C116.361 272.524 117 273.148 117.383 273.609C117.035 273.175 116.487 272.594 116.134 272.304C116.059 272.254 115.971 272.2 115.874 272.144Z" stroke="white" stroke-width="11.5021"/>
<path d="M141.915 199.017C138.8 204.549 135.926 210.433 134.583 216.494C134.391 217.36 134.247 218.341 134.752 219.07C135.439 220.061 136.944 220.024 138.055 219.555C140.604 218.478 142.144 215.913 143.511 213.507C146.502 208.24 149.494 202.973 152.485 197.706C154.07 194.915 156.863 187.3 151.039 188.058C147.664 188.496 146.395 191.357 144.829 194.001C143.86 195.636 142.876 197.309 141.915 199.017Z" fill="white"/>
<path d="M128.745 226.814C128.405 228.198 128.237 229.83 129.186 230.893C130.138 231.96 131.898 231.956 133.127 231.228C134.357 230.5 135.154 229.225 135.791 227.946C136.562 226.396 137.09 224.321 135.864 223.099C133.032 220.28 129.391 224.19 128.745 226.814Z" fill="white"/>
</svg>
