<svg width="24" height="24" viewBox="0 0 24 24" fill="none" xmlns="http://www.w3.org/2000/svg">
<path opacity="0.5" fill-rule="evenodd" clip-rule="evenodd" d="M5.02344 13.7952C5.02344 13.6348 5.02346 13.4823 5.02374 13.337C5.02464 12.8651 5.60551 12.5656 6.07742 12.5656C7.04759 12.5656 7.83407 11.7791 7.83407 10.8089C7.83407 10.337 8.13363 9.75609 8.60556 9.75518C8.75083 9.75491 8.90336 9.75488 9.06373 9.75488H17.1443C17.3047 9.75488 17.4572 9.75491 17.6025 9.75518C18.0744 9.75609 18.374 10.337 18.374 10.8089C18.374 11.7791 19.1604 12.5656 20.1306 12.5656C20.6025 12.5656 21.1834 12.8651 21.1843 13.337C21.1846 13.4823 21.1846 13.6348 21.1846 13.7952V16.6058C21.1846 16.7662 21.1846 16.9187 21.1843 17.064C21.1834 17.536 20.6025 17.8355 20.1306 17.8355C19.1604 17.8355 18.374 18.622 18.374 19.5922C18.374 20.0641 18.0744 20.6449 17.6025 20.6458C17.4572 20.6461 17.3047 20.6461 17.1443 20.6461H9.06373C8.90334 20.6461 8.7508 20.6461 8.60552 20.6458C8.13362 20.6449 7.83407 20.0641 7.83407 19.5922C7.83407 18.622 7.04759 17.8355 6.07742 17.8355C5.60551 17.8355 5.02464 17.536 5.02374 17.064C5.02346 16.9188 5.02344 16.7662 5.02344 16.6058V13.7952Z" fill="#22B07D"/>
<g opacity="0.5">
<path d="M2.47706 9.04277C2.49509 9.18644 2.51428 9.33725 2.53449 9.49581L2.57648 9.82534C2.69959 9.50493 2.86489 9.1861 3.0887 8.87805C3.31989 8.55985 3.58921 8.27175 3.89037 8.02005C3.74429 8.08258 3.58719 8.12611 3.42173 8.14719C2.95511 8.20665 2.41849 8.57603 2.47706 9.04277Z" fill="#525282"/>
<path d="M4.48633 7.59873C5.16123 7.20544 5.87033 7.05395 6.52267 6.98327C7.21946 6.90778 8.05811 6.90783 8.95786 6.90788H17.2494C17.8522 6.90785 18.4277 6.90781 18.9514 6.9305C18.9508 6.92569 18.9501 6.92089 18.9495 6.9161C18.8892 6.44958 18.2771 6.22658 17.8104 6.28604C16.8511 6.40827 15.9744 5.7297 15.8521 4.77041C15.7927 4.30377 15.4233 3.76712 14.9565 3.82569C14.8129 3.84372 14.662 3.86292 14.5035 3.88312L6.02043 4.99175C5.86185 5.01196 5.71104 5.0312 5.56744 5.04978C5.10091 5.11013 4.8779 5.72226 4.93736 6.1889C5.00543 6.72313 4.82515 7.23176 4.48633 7.59873Z" fill="#525282"/>
</g>
<path d="M14.367 2.48825L5.8043 3.60703C4.86115 3.72719 4.0971 3.82454 3.49392 3.96874C2.86946 4.11803 2.33638 4.33458 1.90026 4.74501C1.64602 4.98427 1.43103 5.26205 1.26318 5.56816C0.97523 6.09327 0.89928 6.66363 0.911363 7.30558C0.923033 7.92564 1.0204 8.68968 1.14059 9.63283L1.50487 12.4916C1.62503 13.4347 1.72238 14.1988 1.86658 14.802C1.94516 15.1307 2.04238 15.434 2.17669 15.7113L2.17669 13.6899C2.17663 12.7901 2.17658 11.9515 2.25207 11.2547C2.30179 10.7958 2.39151 10.3088 2.57726 9.82539L2.53523 9.49558C2.51503 9.33701 2.49583 9.1862 2.47781 9.04253C2.41924 8.57579 2.95585 8.20641 3.42248 8.14695C3.58822 8.12583 3.74559 8.08219 3.89189 8.01949C3.97453 7.95045 4.05956 7.88416 4.14685 7.82073C4.25878 7.73941 4.37213 7.66582 4.48646 7.59916C4.82568 7.23214 5.00622 6.72322 4.93811 6.18867C4.87864 5.72203 5.10165 5.1099 5.56818 5.04955C5.71179 5.03097 5.8626 5.01173 6.02117 4.99152L14.5042 3.88289C14.6628 3.86268 14.8136 3.84349 14.9573 3.82546C15.424 3.76689 15.7934 4.30353 15.8529 4.77017C15.9751 5.72947 16.8519 6.40804 17.8112 6.2858C18.2778 6.22634 18.8899 6.44935 18.9503 6.91586C18.9509 6.92075 18.9515 6.92564 18.9522 6.93055C19.2101 6.94172 19.4554 6.95841 19.6854 6.98332C19.9131 7.00799 20.1477 7.04251 20.3853 7.09371C20.2686 6.17729 20.1723 5.4323 20.0311 4.84158C19.8818 4.21711 19.6652 3.68404 19.2548 3.24791C19.0155 2.99368 18.7377 2.77869 18.4316 2.61083C17.9065 2.32289 17.3362 2.24694 16.6942 2.25902C16.0742 2.27069 15.3101 2.36806 14.367 2.48825Z" fill="#525282"/>
<path d="M15.7386 15.2002C15.7386 16.6555 14.5589 17.8352 13.1036 17.8352C11.6484 17.8352 10.4687 16.6555 10.4687 15.2002C10.4687 13.745 11.6484 12.5653 13.1036 12.5653C14.5589 12.5653 15.7386 13.745 15.7386 15.2002Z" fill="#22B07D"/>
<path fill-rule="evenodd" clip-rule="evenodd" d="M9.02254 8.34961H17.1836C18.1375 8.3496 18.9102 8.34959 19.5287 8.4166C20.1691 8.48598 20.7271 8.63389 21.2132 8.98704C21.4965 9.1929 21.7457 9.44208 21.9516 9.72543C22.3047 10.2115 22.4526 10.7695 22.522 11.4099C22.589 12.0284 22.589 12.8011 22.589 13.7549V16.6461C22.589 17.6 22.589 18.3727 22.522 18.9912C22.4526 19.6316 22.3047 20.1896 21.9516 20.6756C21.7457 20.959 21.4965 21.2082 21.2132 21.414C20.7271 21.7672 20.1691 21.9151 19.5287 21.9845C18.9102 22.0515 18.1375 22.0515 17.1836 22.0515H9.02255C8.0687 22.0515 7.29599 22.0515 6.67743 21.9845C6.03704 21.9151 5.47908 21.7672 4.99301 21.414C4.70966 21.2082 4.46048 20.959 4.25462 20.6756C3.90147 20.1896 3.75356 19.6316 3.68418 18.9912C3.61716 18.3727 3.61717 17.6 3.61719 16.6461V13.755C3.61717 12.8011 3.61716 12.0284 3.68418 11.4099C3.75356 10.7695 3.90147 10.2115 4.25462 9.72543C4.46048 9.44208 4.70966 9.1929 4.99301 8.98704C5.47908 8.63389 6.03704 8.48598 6.67743 8.4166C7.29599 8.34959 8.0687 8.3496 9.02254 8.34961ZM5.02251 13.7952C5.02251 13.6349 5.02253 13.4823 5.02281 13.3371C5.02371 12.8652 5.60458 12.5656 6.07649 12.5656C7.04666 12.5656 7.83314 11.7791 7.83314 10.809C7.83314 10.337 8.1327 9.75613 8.60463 9.75523C8.7499 9.75495 8.90242 9.75493 9.0628 9.75493H17.1434C17.3037 9.75493 17.4563 9.75495 17.6015 9.75523C18.0735 9.75613 18.373 10.337 18.373 10.809C18.373 11.7791 19.1595 12.5656 20.1297 12.5656C20.6016 12.5656 21.1825 12.8652 21.1834 13.3371C21.1836 13.4823 21.1837 13.6349 21.1837 13.7952V16.6059C21.1837 16.7663 21.1836 16.9188 21.1834 17.0641C21.1825 17.536 20.6016 17.8356 20.1297 17.8356C19.1595 17.8356 18.373 18.622 18.373 19.5922C18.373 20.0641 18.0735 20.6449 17.6016 20.6458C17.4563 20.6461 17.3038 20.6461 17.1434 20.6461H9.0628C8.90241 20.6461 8.74987 20.6461 8.60459 20.6458C8.13268 20.6449 7.83314 20.0641 7.83314 19.5922C7.83314 18.622 7.04666 17.8356 6.07649 17.8356C5.60458 17.8356 5.02371 17.536 5.02281 17.0641C5.02253 16.9188 5.02251 16.7663 5.02251 16.6059V13.7952Z" fill="#22B07D"/>
</svg>
