<svg width="24" height="24" viewBox="0 0 24 24" fill="none" xmlns="http://www.w3.org/2000/svg">
<path d="M22.4099 3.93903C22.1273 3.47984 21.5978 3.21259 20.8993 3.11467C20.2001 3.01664 19.3171 3.08565 18.3014 3.31266C16.269 3.76688 13.6836 4.85862 10.9288 6.55402C8.17437 8.24925 5.88982 10.1311 4.42332 11.8057C3.69048 12.6426 3.15812 13.4319 2.87532 14.1239C2.59349 14.8136 2.55192 15.4269 2.83739 15.8908C3.23637 16.5391 4.17383 16.8489 5.42208 16.826C6.67857 16.8029 8.284 16.4432 10.0707 15.7097C10.1667 15.6703 10.1991 15.5751 10.1779 15.4964C10.1567 15.4182 10.0817 15.3524 9.9797 15.3643C8.28307 15.5611 7.12062 15.6843 6.31318 15.648C5.50871 15.6119 5.08692 15.4188 4.83605 15.0112C4.6552 14.7173 4.70884 14.3003 5.00643 13.7663C5.30136 13.2371 5.82061 12.6224 6.50943 11.9603C7.8858 10.6371 9.92021 9.14214 12.127 7.78396C14.3314 6.42728 16.2766 5.6097 17.7561 5.27698C18.4964 5.11052 19.1148 5.06663 19.5886 5.13378C20.0632 5.20105 20.3785 5.37711 20.5384 5.6369C20.5911 5.72242 20.6186 5.84276 20.6156 6.00113C20.6125 6.15895 20.5792 6.34737 20.5176 6.56211C20.3942 6.99161 20.1615 7.51293 19.8536 8.08081C19.2383 9.21576 18.3311 10.5219 17.429 11.6251C17.3602 11.7092 17.382 11.8116 17.4385 11.8704C17.4955 11.9297 17.5981 11.955 17.6841 11.8861C19.4951 10.4354 20.8862 8.80744 21.7216 7.36968C22.1392 6.65104 22.4199 5.97647 22.5432 5.39274C22.666 4.81124 22.6354 4.30554 22.4099 3.93903Z" fill="#FF9019"/>
<path d="M3.29755 16.358C2.33617 16.8177 1.34389 17.4473 0.764442 18.2584C0.545034 18.5656 0.598612 18.958 0.763011 19.2935C0.928365 19.6309 1.21789 19.939 1.52244 20.0987C2.58065 20.6539 4.17601 20.9357 6.12034 20.9293C8.06721 20.9229 10.3738 20.6274 12.8616 20.019C15.3506 19.4104 17.574 18.5475 19.3498 17.5932C21.1234 16.6401 22.4586 15.5914 23.162 14.6068C23.574 14.0299 23.3857 13.2053 22.7633 12.8791C21.9399 12.4475 20.7542 12.183 19.3275 12.0898L19.3101 12.2838C19.9607 12.3575 20.4877 12.4874 20.8663 12.6689C21.2459 12.8509 21.4608 13.0767 21.5202 13.3355C21.5928 13.6519 21.4254 14.051 21.0039 14.5083C20.5868 14.9607 19.9411 15.4476 19.115 15.9323C17.464 16.901 15.1104 17.8505 12.4771 18.4944C9.8438 19.1384 7.43539 19.3533 5.64709 19.2262C4.75233 19.1626 4.01816 19.0138 3.48994 18.7937C2.95806 18.5721 2.65745 18.2885 2.58408 17.9688C2.51209 17.6551 2.66359 17.349 2.97197 17.0539C3.15937 16.8745 3.39796 16.7062 3.66057 16.5516C3.52809 16.4956 3.40678 16.4311 3.29755 16.358Z" fill="#6CC7D9"/>
<path d="M5.90986 15.6121C5.75616 15.5903 5.62046 15.5597 5.50024 15.5197C5.64669 15.4762 5.76778 15.4426 5.8567 15.4188C5.91079 15.4043 5.953 15.3935 5.98177 15.3862L6.01467 15.3781L6.0232 15.376L6.02543 15.3754L6.07458 15.5639L6.07205 15.5646L6.064 15.5669L6.03211 15.5759C6.00408 15.584 5.9623 15.5962 5.90986 15.6121C5.91005 15.612 5.90968 15.6121 5.90986 15.6121Z" fill="#6CC7D9"/>
</svg>
