<svg width="24" height="24" viewBox="0 0 24 24" fill="none" xmlns="http://www.w3.org/2000/svg">
<path d="M5.44224 2.351C5.57185 1.63767 6.19308 1.11914 6.91808 1.11914H9.86841C10.7092 1.11914 11.3858 1.81013 11.3681 2.65073L11.3649 2.79962H5.36073L5.44224 2.351Z" fill="#525282"/>
<path fill-rule="evenodd" clip-rule="evenodd" d="M8.55481 9.22577H11.2296L10.9992 20.1613C10.9763 21.2492 10.0878 22.1191 8.99963 22.1191H6.85387L6.92814 21.5562C6.97148 21.2277 6.74029 20.9262 6.41177 20.8829C6.08324 20.8395 5.78179 21.0707 5.73845 21.3992L5.64609 22.0993L5.64499 22.1082L5.6438 22.1191H4.24667C2.99896 22.1191 2.05584 20.9892 2.27889 19.7616L4.19315 9.22577H7.34441L7.21613 10.1982C7.17279 10.5267 7.40397 10.8282 7.7325 10.8715C8.06102 10.9148 8.36248 10.6837 8.40582 10.3551L8.55481 9.22577ZM7.52003 12.4821C7.84855 12.5254 8.07974 12.8269 8.0364 13.1554L7.85169 14.5555C7.80835 14.8841 7.50689 15.1152 7.17837 15.0719C6.84984 15.0286 6.61866 14.7271 6.662 14.3986L6.84671 12.9984C6.89005 12.6699 7.1915 12.4387 7.52003 12.4821ZM7.48227 17.3558C7.52561 17.0273 7.29442 16.7258 6.9659 16.6825C6.63737 16.6391 6.33592 16.8703 6.29258 17.1988L6.10787 18.599C6.06453 18.9275 6.29571 19.229 6.62424 19.2723C6.95276 19.3156 7.25422 19.0844 7.29756 18.7559L7.48227 17.3558Z" fill="#525282"/>
<path fill-rule="evenodd" clip-rule="evenodd" d="M13.4082 9.22577H16.1385L16.2875 10.3551C16.3308 10.6837 16.6322 10.9148 16.9608 10.8715C17.2893 10.8282 17.5205 10.5267 17.4771 10.1982L17.3489 9.22577H20.4446L22.4061 19.7528C22.6353 20.983 21.6913 22.1191 20.4399 22.1191H19.0495C19.0488 22.1125 19.048 22.1059 19.0472 22.0993L18.9548 21.3992C18.9115 21.0707 18.61 20.8395 18.2815 20.8829C17.953 20.9262 17.7218 21.2277 17.7651 21.5562L17.8394 22.1191H15.6889C14.6043 22.1191 13.7174 21.2547 13.6895 20.1705L13.4082 9.22577ZM16.6569 13.1554C16.6135 12.8269 16.8447 12.5254 17.1732 12.4821C17.5018 12.4387 17.8032 12.6699 17.8466 12.9984L18.0313 14.3986C18.0746 14.7271 17.8434 15.0286 17.5149 15.0719C17.1864 15.1152 16.8849 14.8841 16.8416 14.5555L16.6569 13.1554ZM17.7274 16.6825C17.3988 16.7258 17.1677 17.0273 17.211 17.3558L17.3957 18.7559C17.439 19.0844 17.7405 19.3156 18.069 19.2723C18.3976 19.229 18.6287 18.9275 18.5854 18.599L18.4007 17.1988C18.3574 16.8703 18.0559 16.6391 17.7274 16.6825Z" fill="#525282"/>
<path d="M13.2429 2.79962H19.2471L19.1623 2.34437C19.03 1.63413 18.4102 1.11914 17.6877 1.11914H14.7388C13.8953 1.11914 13.2176 1.81445 13.2393 2.65769L13.2429 2.79962Z" fill="#525282"/>
<path d="M0.868935 5.42484C1.22195 4.81599 1.39845 4.51156 1.66777 4.3161C1.75694 4.25139 1.85268 4.19623 1.95339 4.15155C2.25757 4.0166 2.60947 4.0166 3.31326 4.0166H20.6896C21.3934 4.0166 21.7453 4.0166 22.0495 4.15155C22.1502 4.19623 22.2459 4.25139 22.3351 4.3161C22.6044 4.51156 22.7809 4.81599 23.1339 5.42484C23.7111 6.42035 23.9997 6.91811 23.871 7.31722C23.8302 7.44374 23.7632 7.5602 23.6742 7.65895C23.5145 7.83612 23.2595 7.91253 22.8575 7.94547V10.0364C22.8575 10.3834 22.5762 10.6646 22.2293 10.6646C21.8823 10.6646 21.601 10.3834 21.601 10.0364V7.97045H2.40187V10.0364C2.40187 10.3834 2.12058 10.6646 1.7736 10.6646C1.42661 10.6646 1.14532 10.3834 1.14532 10.0364V7.94547C0.743357 7.91253 0.488364 7.83612 0.328691 7.65895C0.239697 7.5602 0.172601 7.44374 0.13181 7.31722C0.0031383 6.91811 0.291737 6.42035 0.868935 5.42484Z" fill="#AC32BF"/>
</svg>
