<svg width="24" height="24" viewBox="0 0 24 24" fill="none" xmlns="http://www.w3.org/2000/svg">
<path fill-rule="evenodd" clip-rule="evenodd" d="M15.4609 17.7477C18.6353 17.7477 21.2087 15.1744 21.2087 12C21.2087 8.82557 18.6353 6.25221 15.4609 6.25221C12.2865 6.25221 9.71314 8.82557 9.71314 12C9.71314 15.1744 12.2865 17.7477 15.4609 17.7477ZM15.4609 19.8378C19.7896 19.8378 23.2988 16.3287 23.2988 12C23.2988 7.67124 19.7896 4.16211 15.4609 4.16211C11.1322 4.16211 7.62305 7.67124 7.62305 12C7.62305 16.3287 11.1322 19.8378 15.4609 19.8378Z" fill="url(#paint0_linear_7460_7652)"/>
<path fill-rule="evenodd" clip-rule="evenodd" d="M5.43974 6.69403C4.36184 5.93052 2.87133 6.70129 2.87133 8.02221L2.87133 15.977C2.87133 17.2979 4.36183 18.0687 5.43973 17.3052L12.0549 12.6194C12.4823 12.3167 12.4823 11.6825 12.0549 11.3798L5.43974 6.69403ZM0.701172 8.02221C0.701172 4.94006 4.17902 3.1416 6.69413 4.92313L13.3093 9.60888C14.9577 10.7765 14.9577 13.2227 13.3093 14.3903L6.69412 19.0761C4.17902 20.8576 0.701172 19.0591 0.701172 15.977L0.701172 8.02221Z" fill="url(#paint1_linear_7460_7652)"/>
<defs>
<linearGradient id="paint0_linear_7460_7652" x1="8" y1="12" x2="23" y2="12" gradientUnits="userSpaceOnUse">
<stop stop-color="#F9A217"/>
<stop offset="1" stop-color="#FFD400"/>
</linearGradient>
<linearGradient id="paint1_linear_7460_7652" x1="0.5" y1="11.9995" x2="15" y2="11.9995" gradientUnits="userSpaceOnUse">
<stop offset="0.00428791" stop-color="#43C7F4"/>
<stop offset="1" stop-color="#1A85C7"/>
</linearGradient>
</defs>
</svg>
