<svg width="24" height="24" viewBox="0 0 24 24" fill="none" xmlns="http://www.w3.org/2000/svg">
<g opacity="0.8">
<path fill-rule="evenodd" clip-rule="evenodd" d="M15.3074 4.89504C15.6798 4.4872 16.3123 4.45848 16.7201 4.83089C17.4263 5.47571 17.9928 6.25838 18.3848 7.13061C18.7768 8.00285 18.986 8.94616 18.9993 9.90234C19.0127 10.8585 18.83 11.8073 18.4625 12.6901C18.095 13.573 17.5505 14.3712 16.8626 15.0355C16.4653 15.4191 15.8323 15.4081 15.4486 15.0108C15.065 14.6135 15.076 13.9804 15.4733 13.5968C15.9646 13.1223 16.3536 12.5522 16.6161 11.9216C16.8785 11.2909 17.0091 10.6133 16.9995 9.93026C16.99 9.24728 16.8406 8.57349 16.5606 7.95046C16.2806 7.32743 15.8759 6.76838 15.3715 6.3078C14.9637 5.93539 14.935 5.30288 15.3074 4.89504Z" fill="#F28E3D"/>
<path fill-rule="evenodd" clip-rule="evenodd" d="M8.69264 4.89504C8.32023 4.4872 7.68772 4.45848 7.27988 4.83089C6.57372 5.47571 6.00716 6.25838 5.61516 7.13061C5.22316 8.00285 5.01403 8.94616 5.00068 9.90234C4.98733 10.8585 5.17004 11.8073 5.53753 12.6901C5.90502 13.573 6.44951 14.3712 7.13739 15.0355C7.53467 15.4191 8.16774 15.4081 8.55139 15.0108C8.93504 14.6135 8.92399 13.9804 8.52671 13.5968C8.03536 13.1223 7.64644 12.5522 7.38395 11.9216C7.12145 11.2909 6.99095 10.6133 7.00049 9.93026C7.01002 9.24728 7.1594 8.57349 7.4394 7.95046C7.7194 7.32743 8.12408 6.76838 8.62849 6.3078C9.03633 5.93539 9.06505 5.30288 8.69264 4.89504Z" fill="#F28E3D"/>
</g>
<path fill-rule="evenodd" clip-rule="evenodd" d="M17.4867 1.58046C17.8328 1.15005 18.4622 1.08166 18.8926 1.42773C20.1091 2.40582 21.1035 3.63162 21.8098 5.02366C22.516 6.41571 22.9179 7.94212 22.9887 9.50145C23.0595 11.0608 22.7976 12.6173 22.2205 14.0677C21.6433 15.518 20.7641 16.8289 19.6412 17.9132C19.244 18.2968 18.6109 18.2858 18.2272 17.8885C17.8436 17.4912 17.8546 16.8582 18.2519 16.4745C19.1706 15.5873 19.89 14.5148 20.3622 13.3282C20.8344 12.1415 21.0487 10.868 20.9907 9.59218C20.9328 8.31636 20.604 7.06748 20.0262 5.92853C19.4484 4.78959 18.6348 3.78666 17.6394 2.9864C17.209 2.64034 17.1406 2.01088 17.4867 1.58046Z" fill="#F28E3D"/>
<path fill-rule="evenodd" clip-rule="evenodd" d="M6.5133 1.58046C6.16724 1.15005 5.53778 1.08166 5.10736 1.42773C3.89086 2.40582 2.89645 3.63162 2.19023 5.02366C1.484 6.41571 1.08213 7.94212 1.01132 9.50145C0.940516 11.0608 1.20239 12.6173 1.77954 14.0677C2.3567 15.518 3.23591 16.8289 4.35876 17.9132C4.75604 18.2968 5.38911 18.2858 5.77276 17.8885C6.15641 17.4912 6.14536 16.8582 5.74808 16.4745C4.82938 15.5873 4.11002 14.5148 3.63781 13.3282C3.16559 12.1415 2.95133 10.868 3.00926 9.59218C3.0672 8.31636 3.396 7.06748 3.97382 5.92853C4.55164 4.78959 5.36525 3.78666 6.36057 2.9864C6.79098 2.64034 6.85936 2.01088 6.5133 1.58046Z" fill="#F28E3D"/>
<path d="M12.8007 12.892C14.0688 12.5416 15 11.3796 15 10C15 8.34315 13.6569 7 12 7C10.3431 7 9 8.34315 9 10C9 11.3796 9.9313 12.5418 11.1995 12.892L10.4244 22.9695C10.402 23.2599 10.6316 23.5078 10.9229 23.5078H13.0774C13.3686 23.5078 13.5982 23.2599 13.5759 22.9695L12.8007 12.892Z" fill="#525282"/>
</svg>
