<svg width="24" height="24" viewBox="0 0 24 24" fill="none" xmlns="http://www.w3.org/2000/svg">
<g clip-path="url(#clip0_7460_6364)">
<path d="M11.9837 0.0332031C12.5379 0.0332031 12.9872 0.48247 12.9872 1.03667L12.9872 2.16106C13.9463 2.25601 14.8881 2.48911 15.7823 2.8545C16.9815 3.34458 18.0719 4.06317 18.9909 4.96977C19.9099 5.8764 20.6395 6.95331 21.1374 8.13931C21.6354 9.32533 21.8918 10.5969 21.8918 11.8813C21.8918 12.2151 21.6853 12.514 21.3731 12.6321C21.0609 12.7502 20.7082 12.6628 20.4873 12.4126L20.1634 12.0458C19.0943 10.8349 17.1863 10.8986 16.2004 12.1782L16.1698 12.2179C15.5923 12.9673 14.464 12.9624 13.8896 12.2168C13.6513 11.9077 13.3559 11.6759 13.032 11.5215V21.177C13.032 22.2738 12.3876 23.2683 11.3865 23.7165L11.298 23.7561C10.4139 24.1519 9.39745 24.1224 8.53778 23.6759C7.66599 23.2232 7.1189 22.3226 7.1189 21.3403V20.451C7.1189 19.8968 7.56817 19.4476 8.12236 19.4476C8.67656 19.4476 9.12583 19.8968 9.12583 20.451V21.3403C9.12583 21.5735 9.25573 21.7874 9.46274 21.8949C9.77894 22.0591 10.1528 22.0699 10.478 21.9244L10.5665 21.8847C10.8455 21.7598 11.0251 21.4827 11.0251 21.177V11.5002C10.684 11.6542 10.373 11.8929 10.1252 12.2163C9.55155 12.9646 8.42501 12.9674 7.84766 12.222L7.81384 12.1783C6.82106 10.8965 4.90685 10.835 3.83378 12.0503L3.51393 12.4126C3.29301 12.6628 2.94031 12.7502 2.62811 12.6321C2.31592 12.514 2.10938 12.2151 2.10938 11.8813C2.10938 10.5969 2.36582 9.32533 2.86379 8.13931C3.36174 6.95331 4.09131 5.8764 5.0103 4.96977C5.92927 4.06317 7.01966 3.34458 8.21893 2.8545C9.10259 2.49341 10.0328 2.26151 10.9802 2.16446L10.9802 1.03667C10.9802 0.48247 11.4295 0.0332031 11.9837 0.0332031Z" fill="#5B79E3"/>
<path fill-rule="evenodd" clip-rule="evenodd" d="M9.40958 5.73923C9.4803 6.07281 9.26348 6.3952 8.94937 6.52792C8.17502 6.85511 7.55726 7.47287 7.23007 8.24722C7.09735 8.56134 6.77496 8.77815 6.44137 8.70743C5.94099 8.60135 5.6132 8.10399 5.81365 7.6334C6.29662 6.49961 7.20176 5.59447 8.33555 5.11151C8.80613 4.91105 9.3035 5.23884 9.40958 5.73923Z" fill="white"/>
</g>
<defs>
<clipPath id="clip0_7460_6364">
<rect width="24" height="24" fill="white"/>
</clipPath>
</defs>
</svg>
