<svg width="24" height="24" viewBox="0 0 24 24" fill="none" xmlns="http://www.w3.org/2000/svg">
<path fill-rule="evenodd" clip-rule="evenodd" d="M5.80266 1.32614C5.92651 1.24481 6.1817 1.13406 6.44574 1.03302C6.90234 0.858276 7.38477 0.768768 7.87013 0.710144L8.27124 0.661743C10.2841 0.418701 12.3192 0.423492 14.3309 0.675995C14.978 0.757202 15.6177 0.901306 16.2152 1.16284C16.3664 1.229 16.4917 1.28854 16.549 1.32614C16.96 1.59616 17.3114 1.94754 17.5814 2.35858C18.1725 3.25842 18.1725 3.93588 18.1725 6.42963V13.255L14.3279 13.2549C13.6235 13.2549 12.975 13.2548 12.4383 13.3116C12.174 13.3395 11.8995 13.3841 11.624 13.4627H10.6224C10.3737 13.4627 10.1721 13.6643 10.1721 13.913V14.3135C10.0117 14.4709 9.86558 14.6428 9.73584 14.8274C9.32436 15.4129 9.18131 16.0464 9.1196 16.6302C9.06286 17.167 9.06293 17.8154 9.06299 18.5199V20.1538C9.06297 20.3412 9.06296 20.5247 9.06401 20.7031C7.73011 20.6868 6.85883 20.6181 6.19188 20.3271L6.19333 20.3258C6.05402 20.266 5.92438 20.1969 5.80266 20.1169C5.3916 19.8469 5.04024 19.4956 4.77023 19.0845C4.17914 18.1847 4.17914 16.9378 4.17914 14.444V6.42963C4.17914 3.93588 4.17914 3.25842 4.77023 2.35858C5.04024 1.94754 5.3916 1.59616 5.80266 1.32614ZM6.43387 5.63885C6.43387 4.90189 6.43387 4.53342 6.59975 4.26273C6.69257 4.11127 6.81992 3.98395 6.97137 3.89111C7.24207 3.72525 7.61053 3.72525 8.34747 3.72528H14.0042C14.7411 3.72525 15.1096 3.72525 15.3803 3.89111C15.5318 3.98395 15.6591 4.11127 15.7519 4.26273C15.9178 4.53342 15.9178 4.90189 15.9178 5.63885V6.46155C15.9178 7.19849 15.9178 7.56693 15.7519 7.83762C15.6591 7.98907 15.5318 8.11642 15.3803 8.20923C15.1096 8.37512 14.7412 8.37512 14.0042 8.37512H8.34744C7.6105 8.37512 7.24203 8.37512 6.97136 8.20923C6.8199 8.11642 6.69255 7.98907 6.59975 7.83762C6.43387 7.56693 6.43387 7.19849 6.43387 6.46155V5.63885ZM10.1721 11.2128C10.1721 10.9641 10.3737 10.7625 10.6224 10.7625H11.7294C11.978 10.7625 12.1796 10.9641 12.1796 11.2128V11.8132C12.1796 12.062 11.978 12.2635 11.7294 12.2635H10.6224C10.3737 12.2635 10.1721 12.062 10.1721 11.8132V11.2128ZM13.701 11.2128C13.701 10.9641 13.9025 10.7625 14.1512 10.7625H15.2582C15.5068 10.7625 15.7084 10.9641 15.7084 11.2128V11.8132C15.7084 12.062 15.5068 12.2635 15.2582 12.2635H14.1512C13.9025 12.2635 13.701 12.062 13.701 11.8132V11.2128ZM6.62903 11.2128C6.62903 10.9641 6.83061 10.7625 7.07928 10.7625H8.18625C8.43491 10.7625 8.63649 10.9641 8.63649 11.2128V11.8133C8.63649 12.062 8.43491 12.2635 8.18625 12.2635H7.07928C6.83061 12.2635 6.62903 12.062 6.62903 11.8133V11.2128ZM8.20041 13.4626C8.44908 13.4626 8.65067 13.6642 8.65067 13.9129V14.5134C8.65067 14.7621 8.44908 14.9636 8.20041 14.9636H7.09344C6.84479 14.9636 6.6432 14.7621 6.6432 14.5134V13.9129C6.6432 13.6642 6.84479 13.4626 7.09344 13.4626H8.20041ZM8.20041 16.1626C8.44908 16.1626 8.65067 16.3642 8.65067 16.6129V17.2133C8.65067 17.462 8.44908 17.6636 8.20041 17.6636H7.09344C6.84479 17.6636 6.6432 17.462 6.6432 17.2133V16.6129C6.6432 16.3642 6.84479 16.1626 7.09344 16.1626H8.20041Z" fill="#1187C3"/>
<path opacity="0.6" d="M19.6568 5.729C19.6568 4.71339 18.8335 3.89008 17.8179 3.89008V13.255H19.6568V5.729Z" fill="#1187C3"/>
<path d="M18.5756 19.3335C18.5756 20.2843 17.8047 21.0552 16.8539 21.0552C15.903 21.0552 15.1322 20.2843 15.1322 19.3335C15.1322 18.3826 15.903 17.6118 16.8539 17.6118C17.8047 17.6118 18.5756 18.3826 18.5756 19.3335Z" fill="#484878"/>
<path fill-rule="evenodd" clip-rule="evenodd" d="M14.1873 14.8574L19.5197 14.8574C20.1429 14.8574 20.6478 14.8573 21.052 14.9011C21.4704 14.9465 21.835 15.0431 22.1526 15.2739C22.3377 15.4084 22.5005 15.5712 22.635 15.7563C22.8658 16.0739 22.9624 16.4385 23.0077 16.8569C23.0515 17.2611 23.0515 17.7659 23.0515 18.3892V20.2782C23.0515 20.9015 23.0515 21.4063 23.0077 21.8105C22.9624 22.2289 22.8658 22.5935 22.635 22.9111C22.5005 23.0962 22.3377 23.259 22.1526 23.3935C21.835 23.6243 21.4704 23.7209 21.052 23.7663C20.6478 23.81 20.1429 23.81 19.5197 23.81H14.1873C13.5641 23.81 13.0592 23.81 12.6551 23.7663C12.2366 23.7209 11.8721 23.6243 11.5545 23.3935C11.3693 23.259 11.2065 23.0962 11.072 22.9111C10.8413 22.5935 10.7446 22.2289 10.6993 21.8105C10.6555 21.4063 10.6555 20.9015 10.6555 20.2782L10.6555 18.3892C10.6555 17.7659 10.6555 17.2611 10.6993 16.8569C10.7446 16.4385 10.8413 16.0739 11.072 15.7563C11.2065 15.5712 11.3693 15.4084 11.5545 15.2739C11.8721 15.0431 12.2366 14.9465 12.6551 14.9011C13.0592 14.8573 13.5641 14.8574 14.1873 14.8574ZM11.5737 18.4155C11.5737 18.3107 11.5738 18.211 11.5739 18.1161C11.5745 17.8078 11.9541 17.6121 12.2624 17.6121C12.8963 17.6121 13.4102 17.0982 13.4102 16.4643C13.4102 16.1559 13.6059 15.7764 13.9143 15.7758C14.0092 15.7756 14.1088 15.7756 14.2136 15.7756L19.4934 15.7756C19.5982 15.7756 19.6979 15.7756 19.7928 15.7758C20.1011 15.7764 20.2969 16.1559 20.2969 16.4643C20.2969 17.0982 20.8107 17.6121 21.4446 17.6121C21.753 17.6121 22.1325 17.8078 22.1331 18.1161C22.1333 18.211 22.1333 18.3107 22.1333 18.4155L22.1333 20.2519C22.1333 20.3567 22.1333 20.4564 22.1331 20.5513C22.1325 20.8597 21.753 21.0554 21.4446 21.0554C20.8107 21.0554 20.2969 21.5693 20.2969 22.2032C20.2969 22.5115 20.1011 22.891 19.7928 22.8916C19.6979 22.8918 19.5982 22.8918 19.4934 22.8918H14.2136C14.1088 22.8918 14.0092 22.8918 13.9142 22.8916C13.6059 22.891 13.4102 22.5115 13.4102 22.2032C13.4102 21.5693 12.8963 21.0554 12.2624 21.0554C11.9541 21.0554 11.5745 20.8597 11.5739 20.5513C11.5738 20.4564 11.5737 20.3567 11.5737 20.2519V18.4155Z" fill="#484878"/>
<path opacity="0.5" fill-rule="evenodd" clip-rule="evenodd" d="M11.5736 18.4153C11.5736 18.3106 11.5736 18.2109 11.5738 18.116C11.5744 17.8076 11.9539 17.6119 12.2623 17.6119C12.8962 17.6119 13.4101 17.098 13.4101 16.4641C13.4101 16.1558 13.6058 15.7762 13.9141 15.7756C14.0091 15.7755 14.1087 15.7755 14.2135 15.7755L19.4933 15.7755C19.5981 15.7755 19.6977 15.7755 19.7926 15.7756C20.101 15.7762 20.2967 16.1558 20.2967 16.4641C20.2967 17.098 20.8106 17.6119 21.4445 17.6119C21.7528 17.6119 22.1324 17.8076 22.133 18.116C22.1332 18.2109 22.1332 18.3106 22.1332 18.4153V20.2518C22.1332 20.3566 22.1332 20.4563 22.133 20.5512C22.1324 20.8595 21.7528 21.0553 21.4445 21.0553C20.8106 21.0553 20.2967 21.5691 20.2967 22.203C20.2967 22.5114 20.101 22.8909 19.7927 22.8915C19.6977 22.8917 19.5981 22.8917 19.4933 22.8917H14.2135C14.1087 22.8917 14.009 22.8917 13.9141 22.8915C13.6058 22.8909 13.4101 22.5114 13.4101 22.203C13.4101 21.5691 12.8962 21.0553 12.2623 21.0553C11.9539 21.0553 11.5744 20.8595 11.5738 20.5512C11.5736 20.4563 11.5736 20.3566 11.5736 20.2518L11.5736 18.4153Z" fill="#484878"/>
</svg>
