<svg width="24" height="24" viewBox="0 0 24 24" fill="none" xmlns="http://www.w3.org/2000/svg">
<path d="M10.5 19H13.5V24H10.5V19Z" fill="#525282"/>
<path d="M11.3585 9.40783V6.56862H12.7781C13.5621 6.56862 14.1977 7.2042 14.1977 7.98823C14.1977 8.77225 13.5621 9.40783 12.7781 9.40783H11.3585Z" fill="#AC32BF"/>
<path fill-rule="evenodd" clip-rule="evenodd" d="M3.93597 2.18404C3.5 3.03968 3.5 4.15979 3.5 6.4V12.6C3.5 14.8402 3.5 15.9603 3.93597 16.816C4.31947 17.5686 4.93139 18.1805 5.68404 18.564C6.53968 19 7.65979 19 9.9 19H14.1C16.3402 19 17.4603 19 18.316 18.564C19.0686 18.1805 19.6805 17.5686 20.064 16.816C20.5 15.9603 20.5 14.8402 20.5 12.6V6.4C20.5 4.15979 20.5 3.03968 20.064 2.18404C19.6805 1.43139 19.0686 0.819467 18.316 0.435974C17.4603 0 16.3402 0 14.1 0H9.9C7.65979 0 6.53968 0 5.68404 0.435974C4.93139 0.819467 4.31947 1.43139 3.93597 2.18404ZM9.09851 5.43864C9.09851 4.81457 9.60442 4.30865 10.2285 4.30865H12.7781C14.8103 4.30865 16.4577 5.95605 16.4577 7.98823C16.4577 10.0204 14.8103 11.6678 12.7781 11.6678H11.3585V14.3622C11.3585 14.9863 10.8526 15.4922 10.2285 15.4922C9.60442 15.4922 9.09851 14.9863 9.09851 14.3622V5.43864Z" fill="#AC32BF"/>
</svg>
