<svg width="24" height="24" viewBox="0 0 24 24" fill="none" xmlns="http://www.w3.org/2000/svg">
<g clip-path="url(#clip0_7460_9332)">
<path d="M1.28611 11.1312C1.28611 10.7777 1.57264 10.4912 1.92609 10.4912C2.27186 10.4912 2.56607 10.7819 2.56607 11.143C2.56607 11.5175 2.26112 11.8191 1.9021 11.8191H1.63237V13.1052H1.9021C2.98678 13.1052 3.85218 12.2123 3.85218 11.143C3.85218 10.087 2.99752 9.20508 1.92609 9.20508C0.86234 9.20508 0 10.0674 0 11.1312V14.7947H1.28611V11.1312Z" fill="#0093D3"/>
<path d="M12.9565 10.4912H14.1263V14.7947H15.4124V10.4912H16.6003V9.20508H12.9565V10.4912Z" fill="#0093D3"/>
<path d="M11.2452 10.5761C11.0346 10.5761 10.8639 10.7581 10.8639 10.9825C10.8639 11.1295 10.9384 11.265 11.0586 11.3369L11.6393 11.6844C12.1926 12.0153 12.5024 12.6708 12.4228 13.3418C12.3242 14.1721 11.6617 14.7947 10.8766 14.7947H9.62391V13.4237H10.8766C11.0138 13.4237 11.1296 13.3148 11.1469 13.1697C11.1608 13.0524 11.1066 12.9379 11.0099 12.88L10.4292 12.5326C9.90335 12.218 9.57781 11.6253 9.57781 10.9825C9.57781 10.0009 10.3243 9.20508 11.2452 9.20508H12.3232V10.5761H11.2452Z" fill="#0093D3"/>
<path fill-rule="evenodd" clip-rule="evenodd" d="M4.19444 11.7215C4.19444 10.3317 5.32108 9.20508 6.71085 9.20508C8.10063 9.20508 9.22727 10.3317 9.22727 11.7215C9.22727 13.1113 8.10063 14.2379 6.71085 14.2379C5.32108 14.2379 4.19444 13.1113 4.19444 11.7215ZM6.71085 10.6166C6.10065 10.6166 5.60599 11.1113 5.60599 11.7215C5.60599 12.3317 6.10065 12.8264 6.71085 12.8264C7.32105 12.8264 7.81572 12.3317 7.81572 11.7215C7.81572 11.1113 7.32105 10.6166 6.71085 10.6166Z" fill="#0093D3"/>
<path d="M23.9174 9.20508H22.5023L22.0479 10.2492L21.5934 9.20508H20.1783L21.3403 11.8749L20.0954 14.7351H21.5106L22.0479 13.5006L22.5852 14.7351H24.0003L22.7554 11.8749L23.9174 9.20508Z" fill="#0093D3"/>
<path d="M18.2959 10.9656C18.2959 10.7743 18.4509 10.6193 18.6421 10.6193H19.6314L19.6315 9.20508H18.6421C17.7406 9.20508 17.0098 10.064 17.0098 10.9656V13.0281C17.0098 13.9296 17.7406 14.7351 18.6421 14.7351H19.6314V13.3743H18.6421C18.4509 13.3743 18.2959 13.2193 18.2959 13.0281C18.2959 12.8368 18.4509 12.6818 18.6421 12.6818H19.6314V11.3424H18.6727C18.4646 11.3424 18.2959 11.1737 18.2959 10.9656Z" fill="#EA8C1C"/>
</g>
<defs>
<clipPath id="clip0_7460_9332">
<rect width="24" height="24" fill="white"/>
</clipPath>
</defs>
</svg>
