<svg width="24" height="24" viewBox="0 0 24 24" fill="none" xmlns="http://www.w3.org/2000/svg">
<path fill-rule="evenodd" clip-rule="evenodd" d="M12.211 23.004C18.1718 23.004 23.004 18.1718 23.004 12.211C23.004 6.25016 18.1718 1.41797 12.211 1.41797C6.25016 1.41797 1.41797 6.25016 1.41797 12.211C1.41797 18.1718 6.25016 23.004 12.211 23.004ZM10.6691 20.6254C15.3162 20.6254 19.0835 16.8581 19.0835 12.211C19.0835 7.56382 15.3162 3.79656 10.6691 3.79656C6.02194 3.79656 2.25468 7.56382 2.25468 12.211C2.25468 16.8581 6.02194 20.6254 10.6691 20.6254Z" fill="#98208E"/>
<path opacity="0.7" fill-rule="evenodd" clip-rule="evenodd" d="M10.5921 19.588C14.7895 19.588 18.1921 16.2852 18.1921 12.211C18.1921 8.13679 14.7895 4.83398 10.5921 4.83398C6.39482 4.83398 2.99219 8.13679 2.99219 12.211C2.99219 16.2852 6.39482 19.588 10.5921 19.588ZM11.7031 17.719C14.837 17.719 17.3775 15.253 17.3775 12.211C17.3775 9.16903 14.837 6.70304 11.7031 6.70304C8.56914 6.70304 6.02865 9.16903 6.02865 12.211C6.02865 15.253 8.56914 17.719 11.7031 17.719Z" fill="#98208E"/>
</svg>
