<svg width="24" height="24" viewBox="0 0 24 24" fill="none" xmlns="http://www.w3.org/2000/svg">
<g clip-path="url(#clip0_7460_4717)">
<path d="M19.31 12.0895V7.98242L18.0756 9.21685V12.0895C18.0756 13.2139 18.9871 14.1255 20.1115 14.1255H22.7651L23.9995 12.891H20.1115C19.6688 12.891 19.31 12.5322 19.31 12.0895Z" fill="#FC4F00"/>
<path fill-rule="evenodd" clip-rule="evenodd" d="M12.9979 12.0895V8.12169L11.7634 9.19841V12.0895C11.7634 13.214 12.675 14.1255 13.7994 14.1255L16.3756 14.1255C16.9777 14.1255 17.4657 13.6375 17.4657 13.0354V12.0896C17.4657 11.4875 16.9777 10.9994 16.3756 10.9994H15.4298C14.8277 10.9994 14.3396 11.4875 14.3396 12.0896V12.8911L13.7994 12.8911C13.3567 12.8911 12.9979 12.5322 12.9979 12.0895ZM15.5741 12.8911V12.2339H16.2313V12.8911H15.5741Z" fill="#FC4F00"/>
<path d="M11.2424 12.0895V9.86273L10.0079 10.9771V12.0895C10.0079 12.5322 9.64908 12.891 9.2064 12.891H8.44537L7.21094 14.1255H9.2064C10.3308 14.1255 11.2424 13.2139 11.2424 12.0895Z" fill="#FC4F00"/>
<path d="M8.87046 9.93845C8.73317 9.93845 8.62188 10.0497 8.62188 10.187V10.8116C8.62188 10.9489 8.73317 11.0602 8.87046 11.0602H9.49505C9.63234 11.0602 9.74363 10.9489 9.74363 10.8116V10.187C9.74363 10.0497 9.63234 9.93845 9.49505 9.93845H8.87046Z" fill="#FC4F00"/>
<path d="M4.54485 12.0902V8.36914L3.31042 9.43048V13.9818C3.31042 14.4245 2.95156 14.7833 2.50888 14.7833H2.03597C1.59329 14.7833 1.23443 14.4245 1.23443 13.9818V13.4592H0V13.9818C0 15.1062 0.911533 16.0178 2.03597 16.0178H2.50888C3.63331 16.0178 4.54485 15.1062 4.54485 13.9818V13.9623C4.79089 14.0678 5.06188 14.1261 5.34638 14.1261L6.44806 14.1261L7.68249 12.8917L5.34638 12.8917C4.90371 12.8917 4.54485 12.5328 4.54485 12.0902Z" fill="#8E8D8D"/>
<path d="M5.27344 9.939C5.13616 9.939 5.02486 10.0503 5.02486 10.1876V10.8122C5.02486 10.9495 5.13616 11.0608 5.27344 11.0608H5.89803C6.03532 11.0608 6.14662 10.9495 6.14662 10.8122V10.1876C6.14662 10.0503 6.03532 9.939 5.89803 9.939H5.27344Z" fill="#8E8D8D"/>
<path d="M6.80932 9.939C6.67203 9.939 6.56074 10.0503 6.56074 10.1876V10.8122C6.56074 10.9495 6.67203 11.0608 6.80932 11.0608H7.43391C7.5712 11.0608 7.68249 10.9495 7.68249 10.8122V10.1876C7.68249 10.0503 7.5712 9.939 7.43391 9.939H6.80932Z" fill="#8E8D8D"/>
</g>
<defs>
<clipPath id="clip0_7460_4717">
<rect width="24" height="24" fill="white"/>
</clipPath>
</defs>
</svg>
