<svg width="24" height="24" viewBox="0 0 24 24" fill="none" xmlns="http://www.w3.org/2000/svg">
<path fill-rule="evenodd" clip-rule="evenodd" d="M10.0984 1.85254C7.5027 1.85254 5.39844 3.9568 5.39844 6.55254V17.0907C5.39844 19.4981 7.21746 21.5163 9.6119 21.7655L9.74561 21.7794C12.6363 22.0803 15.5504 22.0803 18.4411 21.7794L18.5748 21.7655C20.9693 21.5163 22.7883 19.4981 22.7883 17.0907V9.96705C22.7883 8.53139 22.1712 7.165 21.0941 6.21581L17.8433 3.35105C16.7474 2.38534 15.337 1.85254 13.8763 1.85254H10.0984ZM15.038 14.5913C15.2589 14.5913 15.438 14.4123 15.438 14.1913V13.3768C15.438 12.4103 14.7107 11.5987 13.75 11.4931C13.4961 11.4652 13.2418 11.4435 12.9871 11.428C12.7612 11.4142 12.5735 11.596 12.5735 11.8223V14.1913C12.5735 14.4123 12.7525 14.5913 12.9735 14.5913H15.038ZM11.4735 18.4602C11.4735 18.6866 11.2857 18.8683 11.0597 18.8545C10.8062 18.839 10.553 18.8173 10.3003 18.7895C9.33961 18.684 8.6123 17.8724 8.6123 16.9059V16.0913C8.6123 15.8704 8.79139 15.6913 9.0123 15.6913H11.0735C11.2944 15.6913 11.4735 15.8704 11.4735 16.0913V18.4602ZM12.9871 18.8547C12.7612 18.8685 12.5735 18.6867 12.5735 18.4604V16.0913C12.5735 15.8704 12.7525 15.6913 12.9735 15.6913H15.038C15.2589 15.6913 15.438 15.8704 15.438 16.0913V16.9059C15.438 17.8724 14.7107 18.684 13.75 18.7895C13.4961 18.8174 13.2418 18.8392 12.9871 18.8547ZM11.0597 11.4282C11.2857 11.4144 11.4735 11.5961 11.4735 11.8225V14.1913C11.4735 14.4123 11.2944 14.5913 11.0735 14.5913H9.0123C8.79139 14.5913 8.6123 14.4123 8.6123 14.1913V13.3768C8.6123 12.4103 9.33961 11.5987 10.3003 11.4931C10.553 11.4654 10.8062 11.4437 11.0597 11.4282Z" fill="#F28E3D"/>
<path d="M6.50897 22.1477C4.92028 21.0185 3.89777 19.1643 3.89777 17.0912L3.89777 6.55302C3.89777 5.69057 4.07386 4.86924 4.39206 4.12305C2.41564 4.64983 1.04325 6.53464 1.2275 8.64241L2.06534 18.2271C2.25674 20.4167 4.07164 22.1076 6.26924 22.1439L6.39195 22.1459C6.43096 22.1466 6.46996 22.1472 6.50897 22.1477Z" fill="#525282"/>
</svg>
