<svg width="24" height="24" viewBox="0 0 24 24" fill="none" xmlns="http://www.w3.org/2000/svg">
<path d="M12.5267 5.1975C12.1871 5.07015 11.8129 5.07015 11.4733 5.1975L1.9975 8.75093C1.30536 9.01048 1.30536 9.9895 1.99749 10.2491L11.4733 13.8025C11.8129 13.9298 12.1871 13.9298 12.5267 13.8025L21 10.625V15.9996C21 16.5519 21.4477 16.9996 22 16.9996C22.5523 16.9996 23 16.5519 23 15.9996V9.83398C23 9.65508 23.012 9.44608 22.9297 9.30078C22.8474 9.15548 22.7019 9.0132 22.5019 8.93819L12.5267 5.1975Z" fill="#30BA8F"/>
<path d="M5 13.1906V16.7033C5 17.5726 5.4836 18.3698 6.25463 18.7714C9.85528 20.6469 14.1447 20.6469 17.7454 18.7714C18.5164 18.3698 19 17.5726 19 16.7033V13.1906L13.1236 15.3942C12.3991 15.6659 11.6008 15.6659 10.8764 15.3942L5 13.1906Z" fill="#525282"/>
</svg>
